<?xml version="1.0" standalone="no"?>
<!DOCTYPE svg PUBLIC "-//W3C//DTD SVG 1.1//EN" "http://www.w3.org/Graphics/SVG/1.1/DTD/svg11.dtd" >
<svg>
<metadata>
Created by FontForge 20090914 at Mon Aug  8 12:06:41 2022
 By www-data
Copyright &#194;&#169; 2019, ParaType Ltd. All rights reserved.
</metadata>
<defs>
<font id="GolosText-Regular" horiz-adv-x="620" >
  <font-face 
    font-family="Golos Text"
    font-weight="400"
    font-stretch="normal"
    units-per-em="1000"
    panose-1="2 11 5 3 2 2 2 2 2 4"
    ascent="774"
    descent="-226"
    x-height="530"
    cap-height="700"
    bbox="-968 -230 1190 955.002"
    underline-thickness="50"
    underline-position="-50"
    unicode-range="U+000D-U+FEFF"
  />
<missing-glyph horiz-adv-x="500" 
d="M442 8v496h-384v-496h384zM50 512h400v-512h-400v512z" />
    <glyph glyph-name=".notdef" horiz-adv-x="500" 
d="M442 8v496h-384v-496h384zM50 512h400v-512h-400v512z" />
    <glyph glyph-name=".null" horiz-adv-x="0" 
 />
    <glyph glyph-name=".null" horiz-adv-x="0" 
 />
    <glyph glyph-name="uni000D" unicode="&#xd;" horiz-adv-x="250" 
 />
    <glyph glyph-name="space" unicode=" " horiz-adv-x="250" 
 />
    <glyph glyph-name="exclam" unicode="!" horiz-adv-x="300" 
d="M106 700h88v-480h-88v480zM150 -10c-19.333 0 -35.833 6.83301 -49.5 20.5s-20.5 30.167 -20.5 49.5c0 20 6.83301 36.667 20.5 50s30.167 20 49.5 20s35.833 -6.66699 49.5 -20s20.5 -30 20.5 -50c0 -19.333 -6.83301 -35.833 -20.5 -49.5s-30.167 -20.5 -49.5 -20.5z
" />
    <glyph glyph-name="quotedbl" unicode="&#x22;" horiz-adv-x="390" 
d="M65 700h90v-200h-90v200zM235 700h90v-200h-90v200z" />
    <glyph glyph-name="numbersign" unicode="#" horiz-adv-x="680" 
d="M147 198h-82v74h95l29 156h-85v74h99l37 198h84l-37 -198h162l37 198h84l-37 -198h82v-74h-96l-29 -156h86v-74h-99l-37 -198h-84l37 198h-162l-37 -198h-84zM406 272l29 156h-162l-29 -156h162z" />
    <glyph glyph-name="dollar" unicode="$" horiz-adv-x="640" 
d="M278 -8c-35.333 3.33301 -66.0029 10.5049 -92.0029 21.5049s-48 25 -66 42s-32.333 36.5 -43 58.5s-18 45.667 -22 71h94c3.33301 -15.333 9 -29.833 17 -43.5s18.833 -25.5 32.5 -35.5s30.5 -17.833 50.5 -23.5s43.667 -8.5 71 -8.5c56 0 98.5 10.667 127.5 32
s43.5 47.666 43.5 78.999c0 19.333 -3.16699 35.666 -9.5 48.999s-17 25 -32 35s-34.667 19 -59 27s-54.166 16 -89.499 24c-39.333 8.66699 -73.166 18.167 -101.499 28.5s-51.666 23.333 -69.999 39s-32 34.5 -41 56.5s-13.5 49 -13.5 81c0 23.333 4.5 45.333 13.5 66
s22.333 39 40 55s39 29.333 64 40s53.5 17.667 85.5 21v93h84v-93c60.667 -7.33301 106.834 -27.833 138.501 -61.5s51.5 -73.834 59.5 -120.501h-94c-3.33301 14 -8.33301 27.167 -15 39.5s-15.834 23 -27.501 32s-26 16.167 -43 21.5s-37.167 8 -60.5 8
c-48 0 -85.167 -9.83301 -111.5 -29.5s-39.5 -43.5 -39.5 -71.5c0 -18 3.33301 -33.5 10 -46.5s17 -24.333 31 -34s31.833 -18 53.5 -25s47.5 -13.833 77.5 -20.5c43.333 -9.33301 80.5 -19.833 111.5 -31.5s56.333 -25.834 76 -42.501s34 -36.334 43 -59.001
s13.5 -49.667 13.5 -81c0 -25.333 -5 -49 -15 -71s-24.5 -41.5 -43.5 -58.5s-42.333 -31 -70 -42s-59.167 -18.167 -94.5 -21.5v-112h-84v112z" />
    <glyph glyph-name="percent" unicode="%" horiz-adv-x="840" 
d="M610 700h100l-480 -700h-100zM190 370c-23.333 0 -44.833 4 -64.5 12s-36.5 19.167 -50.5 33.5s-25 31.666 -33 51.999s-12 42.833 -12 67.5v10c0 24.667 4 47 12 67s19 37.333 33 52s30.833 26 50.5 34s41.167 12 64.5 12s44.833 -4 64.5 -12s36.5 -19.333 50.5 -34
s25 -32 33 -52s12 -42.333 12 -67v-10c0 -24.667 -4 -47.167 -12 -67.5s-19 -37.666 -33 -51.999s-30.833 -25.5 -50.5 -33.5s-41.167 -12 -64.5 -12zM190 446c22.667 0 40.667 7.33301 54 22s20 37 20 67v10c0 30 -6.66699 52.333 -20 67s-31.333 22 -54 22
s-40.667 -7.33301 -54 -22s-20 -37 -20 -67v-10c0 -30 6.66699 -52.333 20 -67s31.333 -22 54 -22zM650 -9c-23.333 0 -44.833 4 -64.5 12s-36.5 19.167 -50.5 33.5s-25 31.666 -33 51.999s-12 42.833 -12 67.5v10c0 24.667 4 47 12 67s19 37.333 33 52s30.833 26 50.5 34
s41.167 12 64.5 12s44.833 -4 64.5 -12s36.5 -19.333 50.5 -34s25 -32 33 -52s12 -42.333 12 -67v-10c0 -24.667 -4 -47.167 -12 -67.5s-19 -37.666 -33 -51.999s-30.833 -25.5 -50.5 -33.5s-41.167 -12 -64.5 -12zM650 67c22.667 0 40.667 7.33301 54 22s20 37 20 67v10
c0 30 -6.66699 52.333 -20 67s-31.333 22 -54 22s-40.667 -7.33301 -54 -22s-20 -37 -20 -67v-10c0 -30 6.66699 -52.333 20 -67s31.333 -22 54 -22z" />
    <glyph glyph-name="ampersand" unicode="&#x26;" horiz-adv-x="670" 
d="M285 -10c-35.333 0 -67 4.99805 -95 14.998s-51.667 23.833 -71 41.5s-34 38.667 -44 63s-15 51.166 -15 80.499c0 18.667 2.16699 36.5 6.5 53.5s11.5 33.833 21.5 50.5s23.167 33.334 39.5 50.001s36.833 34.334 61.5 53.001c-16 18.667 -28.833 35 -38.5 49
s-17.167 27.167 -22.5 39.5s-8.83301 24.333 -10.5 36s-2.5 24.5 -2.5 38.5c0 21.333 3.83301 41.166 11.5 59.499s18.5 34.166 32.5 47.499s30.833 23.833 50.5 31.5s41.5 11.5 65.5 11.5s45.833 -3.83301 65.5 -11.5s36.5 -18.167 50.5 -31.5s24.833 -29.166 32.5 -47.499
s11.5 -38.166 11.5 -59.499c0 -12 -1.83301 -24.5 -5.5 -37.5s-10 -26.5 -19 -40.5s-21.5 -28.833 -37.5 -44.5s-36 -32.5 -60 -50.5l169 -188c16.667 38.667 25 82.334 25 131.001h88c0 -40 -4.5 -76.667 -13.5 -110s-21.833 -63.333 -38.5 -90l117 -130h-114l-58 63
c-26.667 -23.333 -57.167 -41.333 -91.5 -54s-71.5 -19 -111.5 -19zM285 67.998c58 0 107 19.3301 147 57.9971l-190 211c-20 -15.333 -36.167 -29.166 -48.5 -41.499s-21.833 -24.166 -28.5 -35.499s-11.167 -22.666 -13.5 -33.999s-3.5 -23.333 -3.5 -36
c0 -36 11.833 -65.333 35.5 -88s57.5 -34 101.5 -34zM203 559.995c0 -8.66699 0.832031 -16.835 2.49902 -24.502s4.5 -15.667 8.5 -24s9.66699 -17.666 17 -27.999s17 -22.5 29 -36.5c20 14.667 35.833 27.5 47.5 38.5s20.334 21 26.001 30s9.33398 17 11.001 24
s2.5 13.833 2.5 20.5c0 20.667 -6.83301 37.834 -20.5 51.501s-30.834 20.5 -51.501 20.5c-20 0 -37 -7 -51 -21s-21 -31 -21 -51z" />
    <glyph glyph-name="quotesingle" unicode="'" horiz-adv-x="220" 
d="M65 700h90v-200h-90v200z" />
    <glyph glyph-name="parenleft" unicode="(" horiz-adv-x="380" 
d="M90 260c0 65.333 9.16699 124.668 27.5 178.001s38.833 99.666 61.5 138.999c26 45.333 55.667 86.333 89 123h102c-36 -36.667 -67.667 -77.667 -95 -123c-12 -19.333 -23.667 -40.666 -35 -63.999s-21.5 -48.333 -30.5 -75s-16.167 -54.834 -21.5 -84.501
s-8 -60.834 -8 -93.501v-20c0 -32.667 2.66699 -64 8 -94s12.5 -58.333 21.5 -85s19.167 -51.667 30.5 -75s23 -44.666 35 -63.999c27.333 -46 59 -86.667 95 -122h-106c-32.667 35.333 -61.667 76 -87 122c-22 38.667 -42 85 -60 139s-27 113.667 -27 179v20z" />
    <glyph glyph-name="parenright" unicode=")" horiz-adv-x="380" 
d="M290.006 240.016c0 -65.3291 -9.16699 -124.66 -27.5 -177.99c-18.332 -53.3301 -38.8311 -99.6602 -61.4961 -138.991c-25.998 -45.3311 -55.6631 -86.3281 -88.9941 -122.992h-101.994c35.998 36.6641 67.6631 77.6611 94.9941 122.992
c11.999 19.332 23.665 40.6641 34.998 63.9961s21.499 48.3301 30.498 74.9951s16.165 54.8301 21.498 84.4951s7.99902 60.8301 7.99902 93.4951v19.999c0 32.665 -2.66602 63.9961 -7.99902 93.9941s-12.499 58.3301 -21.498 84.9951s-19.165 51.6631 -30.498 74.9951
s-22.999 44.6641 -34.998 63.9961c-27.3311 45.9971 -58.9961 86.6611 -94.9941 121.992h105.993c32.665 -35.3311 61.6631 -75.9951 86.9951 -121.992c21.999 -38.6641 41.998 -84.9941 59.9971 -138.991s26.999 -113.66 26.999 -178.989v-19.999z" />
    <glyph glyph-name="asterisk" unicode="*" horiz-adv-x="450" 
d="M195 473l-104 -66l-36 62l110 56l-110 56l36 62l104 -66l-6 123h72l-6 -123l104 66l36 -62l-110 -56l110 -56l-36 -62l-104 66l6 -123h-72z" />
    <glyph glyph-name="plus" unicode="+" horiz-adv-x="550" 
d="M231 319h-181v82h181v184h88v-184h181v-82h-181v-184h-88v184z" />
    <glyph glyph-name="comma" unicode="," horiz-adv-x="300" 
d="M95 0v110h110v-110l-100 -150h-50z" />
    <glyph glyph-name="hyphen" unicode="-" horiz-adv-x="380" 
d="M40 321h300v-82h-300v82z" />
    <glyph glyph-name="period" unicode="." horiz-adv-x="300" 
d="M150 -10c-19.333 0 -35.833 6.83301 -49.5 20.5s-20.5 30.167 -20.5 49.5c0 20 6.83301 36.667 20.5 50s30.167 20 49.5 20s35.833 -6.66699 49.5 -20s20.5 -30 20.5 -50c0 -19.333 -6.83301 -35.833 -20.5 -49.5s-30.167 -20.5 -49.5 -20.5z" />
    <glyph glyph-name="slash" unicode="/" horiz-adv-x="480" 
d="M356 700h84l-316 -900h-84z" />
    <glyph glyph-name="zero" unicode="0" 
d="M310 -10c-34 0 -66.167 5.66699 -96.5 17s-56.833 30.833 -79.5 58.5s-40.667 64.667 -54 111s-20 104.166 -20 173.499v20c0 64.667 6.66699 118.667 20 162s31.333 78.166 54 104.499s49.167 45.166 79.5 56.499s62.5 17 96.5 17s66.167 -5.66699 96.5 -17
s56.833 -30.166 79.5 -56.499s40.667 -61.166 54 -104.499s20 -97.333 20 -162v-20c0 -69.333 -6.66699 -127.166 -20 -173.499s-31.333 -83.333 -54 -111s-49.167 -47.167 -79.5 -58.5s-62.5 -17 -96.5 -17zM310 72c20.667 0 40.5 3.83301 59.5 11.5s35.667 21.667 50 42
s25.666 48.5 33.999 84.5s12.5 82.667 12.5 140v20c0 52 -4.16699 94.667 -12.5 128s-19.666 59.666 -33.999 78.999s-31 32.666 -50 39.999s-38.833 11 -59.5 11c-21.333 0 -41.333 -3.66699 -60 -11s-35.167 -20.666 -49.5 -39.999s-25.666 -45.666 -33.999 -78.999
s-12.5 -76 -12.5 -128v-20c0 -57.333 4.16699 -104 12.5 -140s19.666 -64.167 33.999 -84.5s30.833 -34.333 49.5 -42s38.667 -11.5 60 -11.5z" />
    <glyph glyph-name="one" unicode="1" horiz-adv-x="485" 
d="M55 82h167v515l-167 -119v102l169 120h94v-618h137v-82h-400v82z" />
    <glyph glyph-name="two" unicode="2" horiz-adv-x="580" 
d="M40 77l279.999 243.002c21.333 18 38.833 34.333 52.5 49s24.5 28.5 32.5 41.5s13.5 25.833 16.5 38.5s4.5 26.334 4.5 41.001c0 39.333 -11.667 71.833 -35 97.5s-55.333 38.5 -96 38.5c-48.667 0 -86 -13.167 -112 -39.5s-39 -63.5 -39 -111.5h-94
c0 34 5.83301 65.5 17.5 94.5s28.334 53.833 50.001 74.5s47.5 36.834 77.5 48.501s63.333 17.5 100 17.5c35.333 0 67 -5.5 95 -16.5s51.667 -26.333 71 -46s34 -42.834 44 -69.501s15 -56 15 -88c0 -24 -3.66699 -46.333 -11 -67s-17.5 -40.334 -30.5 -59.001
s-28.667 -36.834 -47 -54.501s-38.5 -35.834 -60.5 -54.501l-209 -173h368v-82h-490v77z" />
    <glyph glyph-name="three" unicode="3" horiz-adv-x="585" 
d="M285 -10c-38 0 -71.833 5.1709 -101.5 15.5039s-54.834 24.5 -75.501 42.5s-36.334 39.167 -47.001 63.5s-16 50.5 -16 78.5h94c0 -34 11.667 -61.833 35 -83.5s60.333 -32.5 111 -32.5s87.667 11.167 111 33.5s35 51.5 35 87.5c0 37.333 -11.833 67.5 -35.5 90.5
s-60.5 34.5 -110.5 34.5h-75v80h75c48 0 82.667 10.167 104 30.5s32 48.5 32 84.5c0 34.667 -10.333 61.834 -31 81.501s-55.667 29.5 -105 29.5c-47.333 0 -81.833 -10.167 -103.5 -30.5s-32.5 -45.5 -32.5 -75.5h-94c0 26 5.16699 50.667 15.5 74s25.333 43.5 45 60.5
s43.667 30.5 72 40.5s60.833 15 97.5 15s69.334 -5 98.001 -15s52.834 -23.333 72.501 -40s34.5 -36.334 44.5 -59.001s15 -46.334 15 -71.001c0 -40 -10.5 -73.833 -31.5 -101.5s-50.5 -47.167 -88.5 -58.5c40 -12.667 71.667 -33.334 95 -62.001s35 -68 35 -118
c0 -26.667 -5.33301 -51.834 -16 -75.501s-26.167 -44.334 -46.5 -62.001s-45.5 -31.667 -75.5 -42s-64 -15.5 -102 -15.5z" />
    <glyph glyph-name="four" unicode="4" horiz-adv-x="610" 
d="M376 169h-356v72l346 459h104v-449h90v-82h-90v-169h-94v169zM376 251v339l-256 -339h256z" />
    <glyph glyph-name="five" unicode="5" horiz-adv-x="580" 
d="M290 -10c-38 0 -70.999 5.16016 -98.999 15.4932s-51.5 24 -70.5 41s-33.5 36.167 -43.5 57.5s-15.667 43.333 -17 66h94c3.33301 -25.333 16.833 -47.666 40.5 -66.999s55.5 -29 95.5 -29c45.333 0 81 14.167 107 42.5s39 67.833 39 118.5
c0 28.667 -4.16699 53.334 -12.5 74.001s-19.333 37.334 -33 50.001s-29.167 22 -46.5 28s-35.333 9 -54 9c-36 0 -64.167 -6.66699 -84.5 -20s-35.833 -28.666 -46.5 -45.999h-84v370h415v-82h-321v-195c34.667 38 80 57 136 57c69.333 0 124.166 -21 164.499 -63
s60.5 -102.667 60.5 -182c0 -37.333 -5.83301 -71.166 -17.5 -101.499s-28 -56.166 -49 -77.499s-46.333 -37.666 -76 -48.999s-62.167 -17 -97.5 -17z" />
    <glyph glyph-name="six" unicode="6" horiz-adv-x="605" 
d="M315 -10c-38.667 0 -73.6699 6.33301 -105.003 19s-58.166 32.167 -80.499 58.5s-39.5 59.5 -51.5 99.5s-18 87.667 -18 143v20c0 68.667 7 127.167 21 175.5s33 87.666 57 117.999s52 52.333 84 66s66.333 20.5 103 20.5c54 0 99.5 -12.833 136.5 -38.5
s61.5 -64.5 73.5 -116.5h-94c-18.667 47.333 -57.334 71 -116.001 71c-25.333 0 -48.666 -4.33301 -69.999 -13s-39.833 -23 -55.5 -43s-28.167 -46.667 -37.5 -80s-14.666 -75 -15.999 -125c9.33301 16 20.666 29.833 33.999 41.5s27.833 21 43.5 28
s31.834 12.167 48.501 15.5s32.667 5 48 5c70 0 125.833 -19.5 167.5 -58.5s62.5 -94.833 62.5 -167.5v-10c0 -33.333 -6.16699 -64 -18.5 -92s-29.166 -52.167 -50.499 -72.5s-46.333 -36.166 -75 -47.499s-59 -17 -91 -17zM306.997 74c48.667 0 85.667 12.332 111 36.999
s38 60.334 38 107.001v10c0 46 -12.667 81.333 -38 106s-62.333 37 -111 37s-85.667 -12.333 -111 -37s-38 -60 -38 -106v-10c0 -46 12.667 -81.5 38 -106.5s62.333 -37.5 111 -37.5z" />
    <glyph glyph-name="seven" unicode="7" horiz-adv-x="530" 
d="M392 618h-372v82h470v-77l-250 -623h-100z" />
    <glyph glyph-name="eight" unicode="8" horiz-adv-x="610" 
d="M305 -10c-41.333 0 -77.667 4.99902 -109 14.999s-57.5 23.667 -78.5 41s-36.667 37.833 -47 61.5s-15.5 49.5 -15.5 77.5c0 40 12.667 75.833 38 107.5s62.666 54.167 111.999 67.5c-18 6 -34.833 14.167 -50.5 24.5s-29.5 22.5 -41.5 36.5s-21.333 29.833 -28 47.5
s-10 36.5 -10 56.5c0 26 5 50.333 15 73s24.667 42.167 44 58.5s43.333 29.333 72 39s61.667 14.5 99 14.5s70.333 -4.83301 99 -14.5s52.667 -22.667 72 -39s34 -35.833 44 -58.5s15 -47 15 -73c0 -40 -12.5 -74 -37.5 -102s-55.833 -49 -92.5 -63
c50 -16.667 87.5 -38.667 112.5 -66s37.5 -63.666 37.5 -108.999c0 -28 -5.16699 -53.833 -15.5 -77.5s-26 -44.167 -47 -61.5s-47.167 -31 -78.5 -41s-67.666 -15 -108.999 -15zM304.999 73.999c28.667 0 53.002 3.16797 73.002 9.50098s36.167 14.666 48.5 24.999
s21.166 22.666 26.499 36.999s8 29.5 8 45.5c0 18.667 -3.83301 35.667 -11.5 51s-18.5 28.833 -32.5 40.5s-30.5 21 -49.5 28s-39.833 11.833 -62.5 14.5c-22.667 -2.66699 -43.5 -7.5 -62.5 -14.5s-35.5 -16.167 -49.5 -27.5s-24.833 -24.833 -32.5 -40.5
s-11.5 -32.834 -11.5 -51.501c0 -16 2.66699 -31.167 8 -45.5s14.166 -26.666 26.499 -36.999s28.5 -18.666 48.5 -24.999s44.333 -9.5 73 -9.5zM305.001 395c40 5.33301 72.667 18.166 98 38.499s38 49.166 38 86.499c0 34 -11.167 60.167 -33.5 78.5
s-56.5 27.5 -102.5 27.5c-46.667 0 -81 -9.16699 -103 -27.5s-33 -44.5 -33 -78.5c0 -37.333 12.667 -66.166 38 -86.499s58 -33.166 98 -38.499z" />
    <glyph glyph-name="nine" unicode="9" horiz-adv-x="605" 
d="M285 -10c-56.667 0 -103.666 12.833 -140.999 38.5s-62 64.5 -74 116.5h94c18.667 -47.333 59 -71 121 -71c24 0 46.333 4.33301 67 13s38.667 23 54 43s27.666 46.667 36.999 80s14.666 75 15.999 125c-9.33301 -16 -20.666 -29.833 -33.999 -41.5
s-27.833 -21 -43.5 -28s-31.834 -12.167 -48.501 -15.5s-32.667 -5 -48 -5c-70 0 -125.833 19.5 -167.5 58.5s-62.5 94.833 -62.5 167.5v10c0 33.333 6.16699 64 18.5 92s29.166 52.167 50.499 72.5s46.333 36.166 75 47.499s59 17 91 17
c78.667 0 140.834 -25.667 186.501 -77s68.5 -132.333 68.5 -243v-20c0 -68.667 -7 -127.167 -21 -175.5s-32.833 -87.666 -56.5 -117.999s-51.167 -52.333 -82.5 -66s-64.666 -20.5 -99.999 -20.5zM298.001 329c48.667 0 85.667 12.333 111 37s38 60 38 106v10
c0 45.333 -12.833 80.666 -38.5 105.999s-62.5 38 -110.5 38c-48.667 0 -85.667 -12.167 -111 -36.5s-38 -60.166 -38 -107.499v-10c0 -46 12.667 -81.333 38 -106s62.333 -37 111 -37z" />
    <glyph glyph-name="colon" unicode=":" horiz-adv-x="300" 
d="M150 -10c-19.333 0 -35.833 6.83301 -49.5 20.5s-20.5 30.167 -20.5 49.5c0 20 6.83301 36.667 20.5 50s30.167 20 49.5 20s35.833 -6.66699 49.5 -20s20.5 -30 20.5 -50c0 -19.333 -6.83301 -35.833 -20.5 -49.5s-30.167 -20.5 -49.5 -20.5zM150 400
c-19.333 0 -35.833 6.83301 -49.5 20.5s-20.5 30.167 -20.5 49.5c0 20 6.83301 36.667 20.5 50s30.167 20 49.5 20s35.833 -6.66699 49.5 -20s20.5 -30 20.5 -50c0 -19.333 -6.83301 -35.833 -20.5 -49.5s-30.167 -20.5 -49.5 -20.5z" />
    <glyph glyph-name="semicolon" unicode=";" horiz-adv-x="300" 
d="M95 0v110h110v-110l-100 -150h-50zM150 400c-19.333 0 -35.833 6.83301 -49.5 20.5s-20.5 30.167 -20.5 49.5c0 20 6.83301 36.667 20.5 50s30.167 20 49.5 20s35.833 -6.66699 49.5 -20s20.5 -30 20.5 -50c0 -19.333 -6.83301 -35.833 -20.5 -49.5
s-30.167 -20.5 -49.5 -20.5z" />
    <glyph glyph-name="less" unicode="&#x3c;" horiz-adv-x="550" 
d="M50 321v78l450 201v-94l-340 -144l340 -144v-98z" />
    <glyph glyph-name="equal" unicode="=" horiz-adv-x="550" 
d="M50 301h450v-82h-450v82zM50 501h450v-82h-450v82z" />
    <glyph glyph-name="greater" unicode="&#x3e;" horiz-adv-x="550" 
d="M500 399v-78l-450 -201v94l340 144l-340 144v98z" />
    <glyph glyph-name="question" unicode="?" horiz-adv-x="510" 
d="M210 250c0 12.667 0.828125 24.502 2.49512 35.502s5.33398 22 11.001 33s13.667 22.5 24 34.5s24.166 25.333 41.499 40c28 24 49.333 45.667 64 65s22 40 22 62c0 32 -10.667 58.333 -32 79s-50.666 31 -87.999 31s-66.666 -10.333 -87.999 -31s-32 -47 -32 -79h-90
c0 27.333 4.83301 52.5 14.5 75.5s23.667 43 42 60s40.5 30.333 66.5 40s55 14.5 87 14.5s61 -4.83301 87 -14.5s48.167 -23 66.5 -40s32.333 -37 42 -60s14.5 -48.167 14.5 -75.5c0 -18.667 -3 -36.334 -9 -53.001s-14.167 -32.5 -24.5 -47.5s-22.166 -29.333 -35.499 -43
s-27 -26.5 -41 -38.5c-11.333 -9.33301 -20.666 -18.166 -27.999 -26.499s-13.166 -16.333 -17.499 -24s-7.33301 -15.334 -9 -23.001s-2.5 -15.834 -2.5 -24.501v-20h-88v30zM254.995 -9.99805c-19.333 0 -35.833 6.83301 -49.5 20.5s-20.5 30.167 -20.5 49.5
c0 20 6.83301 36.667 20.5 50s30.167 20 49.5 20s35.833 -6.66699 49.5 -20s20.5 -30 20.5 -50c0 -19.333 -6.83301 -35.833 -20.5 -49.5s-30.167 -20.5 -49.5 -20.5z" />
    <glyph glyph-name="at" unicode="@" horiz-adv-x="1020" 
d="M520 -210c-67.333 0 -129.165 11.332 -185.498 33.999s-104.833 54.334 -145.5 95.001s-72.334 89.167 -95.001 145.5s-34 118.166 -34 185.499c0 66 11.5 127.167 34.5 183.5s54.667 105 95 146s87.833 73 142.5 96s114 34.5 178 34.5
c67.333 0 128.666 -10.667 183.999 -32s102.666 -50.666 141.999 -87.999s69.833 -81.666 91.5 -132.999s32.5 -107 32.5 -167c0 -46 -5.33301 -86.333 -16 -121s-25.334 -63.334 -44.001 -86.001s-40.834 -39.667 -66.501 -51s-53.5 -17 -83.5 -17
c-14.667 0 -28.667 1.5 -42 4.5s-25.666 8.16699 -36.999 15.5s-21 17.333 -29 30s-13.667 28.667 -17 48c-15.333 -29.333 -34.166 -53 -56.499 -71s-53.5 -27 -93.5 -27c-27.333 0 -52.333 4.66699 -75 14s-42.167 23.333 -58.5 42s-29 42.167 -38 70.5
s-13.5 61.166 -13.5 98.499v20c0 37.333 4.5 70.166 13.5 98.499s21.667 51.833 38 70.5s35.833 32.667 58.5 42s47.667 14 75 14c38 0 68.167 -8.33301 90.5 -25s37.833 -35 46.5 -55v70h88v-284c0 -19.333 1.16699 -35.333 3.5 -48s5.66602 -22.667 9.99902 -30
s9.66602 -12.5 15.999 -15.5s13.166 -4.5 20.499 -4.5c18 0 34.5 3.33301 49.5 10s27.833 17.834 38.5 33.501s19 36 25 61s9 55.833 9 92.5c0 55.333 -9.83301 104.333 -29.5 147s-46.167 78.5 -79.5 107.5s-71.833 50.833 -115.5 65.5s-89.5 22 -137.5 22
c-52 0 -100 -9.33301 -144 -28s-82.167 -44.667 -114.5 -78s-57.666 -73.5 -75.999 -120.5s-27.5 -98.833 -27.5 -155.5c0 -58 9 -110.5 27 -157.5s43.333 -87.167 76 -120.5s71.834 -59 117.501 -77s96.167 -27 151.5 -27s101.5 5.16699 138.5 15.5s67.5 22.5 91.5 36.5
v-85c-25.333 -13.333 -56.166 -24.166 -92.499 -32.499s-82.166 -12.5 -137.499 -12.5zM490.001 92.999c36 0 65.333 11.3311 88 33.998s34 52 34 88v70c0 36 -11.333 65.333 -34 88s-52 34 -88 34c-34 0 -61.167 -11.667 -81.5 -35s-30.5 -60.666 -30.5 -111.999v-20
c0 -51.333 10.167 -88.666 30.5 -111.999s47.5 -35 81.5 -35z" />
    <glyph glyph-name="A" unicode="A" horiz-adv-x="670" 
d="M481 174h-296l-67 -174h-98l268 700h94l268 -700h-102zM216 256h234l-117 324z" />
    <glyph glyph-name="B" unicode="B" horiz-adv-x="670" 
d="M100 700l250.001 -0.00292969c42 0 78 -4.66699 108 -14s54.833 -22.166 74.5 -38.499s34.167 -36 43.5 -59s14 -48.167 14 -75.5c0 -36 -10 -66.833 -30 -92.5s-44.667 -44.167 -74 -55.5c41.333 -9.33301 74 -28.166 98 -56.499s36 -65.166 36 -110.499
c0 -28.667 -4.66699 -55 -14 -79s-24 -44.833 -44 -62.5s-45.833 -31.5 -77.5 -41.5s-69.834 -15 -114.501 -15h-270v700zM370.001 81.9971c30 0 55 2.83301 75 8.5s36 13.667 48 24s20.5 22.833 25.5 37.5s7.5 31 7.5 49s-2.5 34.5 -7.5 49.5s-13.5 27.667 -25.5 38
s-28.167 18.333 -48.5 24s-45.5 8.5 -75.5 8.5h-175v-239h176zM350.001 398.997c28 0 51.333 2.66797 70 8.00098s33.667 13 45 23s19.333 21.667 24 35s7 28 7 44s-2.33301 30.833 -7 44.5s-12.667 25.167 -24 34.5s-26.333 16.666 -45 21.999s-42 8 -70 8h-156v-219h156z
" />
    <glyph glyph-name="C" unicode="C" horiz-adv-x="680" 
d="M355 -10c-39.333 0 -76.667 6.83008 -112 20.4971s-66.666 35 -93.999 64s-49 65.833 -65 110.5s-24 98 -24 160v20c0 60 8 111.667 24 155s37.667 79 65 107s58.666 48.833 93.999 62.5s72.666 20.5 111.999 20.5c38 0 72.833 -5 104.5 -15s59.5 -24.333 83.5 -43
s43.5 -41.667 58.5 -69s24.5 -58.333 28.5 -93h-100c-9.33301 45.333 -29 79.333 -59 102s-68.667 34 -116 34c-24.667 0 -48.667 -4.66699 -72 -14s-44.166 -24.166 -62.499 -44.499s-33 -47.166 -44 -80.499s-16.5 -74 -16.5 -122v-20c0 -50.667 6 -93.167 18 -127.5
s27.333 -62.166 46 -83.499s39.667 -36.666 63 -45.999s46 -14 68 -14c52 0 92.667 12.667 122 38s47 58 53 98h100c-5.33301 -38.667 -16 -71.834 -32 -99.501s-36.167 -50.5 -60.5 -68.5s-52 -31.167 -83 -39.5s-64.167 -12.5 -99.5 -12.5z" />
    <glyph glyph-name="D" unicode="D" horiz-adv-x="700" 
d="M100 700h205.002c52.667 0 99.667 -7.16699 141 -21.5s76.333 -35.5 105 -63.5s50.667 -63 66 -105s23 -90.333 23 -145v-20c0 -56 -7.83301 -105.5 -23.5 -148.5s-38.334 -79 -68.001 -108s-65.834 -51 -108.501 -66s-91 -22.5 -145 -22.5h-195v700zM285.002 82
c39.333 0 74.8301 5 106.497 15s58.5 25.5 80.5 46.5s38.833 48.167 50.5 81.5s17.5 73.333 17.5 120v20c0 44.667 -5.66699 83 -17 115s-27.666 58.167 -48.999 78.5s-47.166 35.333 -77.499 45s-64.166 14.5 -101.499 14.5h-101v-536h91z" />
    <glyph glyph-name="E" unicode="E" horiz-adv-x="610" 
d="M100 700h450v-82h-356v-217h326v-82h-326v-237h356v-82h-450v700z" />
    <glyph glyph-name="F" unicode="F" horiz-adv-x="595" 
d="M100 700h450v-82h-356v-227h326v-82h-326v-309h-94v700z" />
    <glyph glyph-name="G" unicode="G" horiz-adv-x="705" 
d="M365 -10c-41.333 0 -80.5 6.83008 -117.5 20.4971s-69.333 35 -97 64s-49.667 65.833 -66 110.5s-24.5 98 -24.5 160v20c0 60 8.16699 111.667 24.5 155s38.333 79 66 107s60 48.833 97 62.5s76.167 20.5 117.5 20.5c34 0 65.667 -4.83301 95 -14.5
s55.666 -23.5 78.999 -41.5s43.166 -40 59.499 -66s28.5 -55.333 36.5 -88h-100c-14.667 44 -37.667 76 -69 96s-65 30 -101 30c-27.333 0 -53.333 -4.66699 -78 -14s-46.5 -24.166 -65.5 -44.499s-34 -47.166 -45 -80.499s-16.5 -74 -16.5 -122v-20
c0 -50.667 6 -93.167 18 -127.5s27.833 -62.166 47.5 -83.499s41.667 -36.666 66 -45.999s48.833 -14 73.5 -14c55.333 0 100.333 15.667 135 47s54.667 82.666 60 153.999h-175v80h265v-30c0 -54 -6.66699 -101.833 -20 -143.5s-32.166 -76.667 -56.499 -105
s-54.166 -49.833 -89.499 -64.5s-75 -22 -119 -22z" />
    <glyph glyph-name="H" unicode="H" horiz-adv-x="760" 
d="M100 700h94v-299h372v299h94v-700h-94v319h-372v-319h-94v700z" />
    <glyph glyph-name="I" unicode="I" horiz-adv-x="314" 
d="M110 700h94v-700h-94v700z" />
    <glyph glyph-name="J" unicode="J" horiz-adv-x="555" 
d="M235 -10c-69.333 0 -120.999 17.166 -154.999 51.499s-52.333 80.5 -55 138.5h92c2.66699 -33.333 13 -59.333 31 -78s47 -28 87 -28c20.667 0 39 2.66699 55 8s29.167 14.833 39.5 28.5s18.166 31.834 23.499 54.501s8 51 8 85v450h94v-450c0 -93.333 -18 -160 -54 -200
s-91.333 -60 -166 -60z" />
    <glyph glyph-name="K" unicode="K" horiz-adv-x="690" 
d="M100 700h94v-369l329 369h117l-260 -288l280 -412h-116l-225 348l-125 -137v-211h-94v700z" />
    <glyph glyph-name="L" unicode="L" horiz-adv-x="570" 
d="M100 700h94v-618h356v-82h-450v700z" />
    <glyph glyph-name="M" unicode="M" horiz-adv-x="860" 
d="M100 700h98l234 -445l234 445h94v-700h-94v530l-201 -380h-70l-201 380v-530h-94v700z" />
    <glyph glyph-name="N" unicode="N" horiz-adv-x="760" 
d="M100 700h92l376 -545v545h92v-700h-92l-376 545v-545h-92v700z" />
    <glyph glyph-name="O" unicode="O" horiz-adv-x="740" 
d="M370 -10c-40 0 -78.667 6.83301 -116 20.5s-70.333 34.834 -99 63.501s-51.667 65.334 -69 110.001s-26 98.334 -26 161.001v20c0 60 8.66699 111.667 26 155s40.333 79.166 69 107.499s61.667 49.166 99 62.499s76 20 116 20s78.667 -6.66699 116 -20
s70.333 -34.166 99 -62.499s51.667 -64.166 69 -107.499s26 -95 26 -155v-20c0 -62.667 -8.66699 -116.334 -26 -161.001s-40.333 -81.334 -69 -110.001s-61.667 -49.834 -99 -63.501s-76 -20.5 -116 -20.5zM370 74c27.333 0 53.666 5 78.999 15s47.666 25.833 66.999 47.5
s34.833 49.667 46.5 84s17.5 75.833 17.5 124.5v20c0 46 -5.83301 85.5 -17.5 118.5s-27.167 60 -46.5 81s-41.666 36.5 -66.999 46.5s-51.666 15 -78.999 15s-53.666 -5 -78.999 -15s-47.666 -25.5 -66.999 -46.5s-34.833 -48 -46.5 -81s-17.5 -72.5 -17.5 -118.5v-20
c0 -48.667 5.83301 -90.167 17.5 -124.5s27.167 -62.333 46.5 -84s41.666 -37.5 66.999 -47.5s51.666 -15 78.999 -15z" />
    <glyph glyph-name="P" unicode="P" horiz-adv-x="655" 
d="M100 700l240 -0.00195312c46 0 86 -5.33301 120 -16s62.167 -25.5 84.5 -44.5s38.833 -41.667 49.5 -68s16 -55.166 16 -86.499s-5.33301 -60.166 -16 -86.499s-27.167 -49 -49.5 -68s-50.5 -33.833 -84.5 -44.5s-74 -16 -120 -16h-146v-270h-94v700zM335 351.998
c33.333 0 61.5 3.16895 84.5 9.50195s41.667 15.166 56 26.499s24.666 25.333 30.999 42s9.5 35 9.5 55s-3.16699 38.333 -9.5 55s-16.666 30.667 -30.999 42s-33 20.166 -56 26.499s-51.167 9.5 -84.5 9.5h-141v-266h141z" />
    <glyph glyph-name="Q" unicode="Q" horiz-adv-x="740" 
d="M370 -10c-40 0 -78.6689 6.83008 -116.002 20.4971s-70.333 34.834 -99 63.501s-51.667 65.334 -69 110.001s-26 98.334 -26 161.001v20c0 60 8.66699 111.667 26 155s40.333 79.166 69 107.499s61.667 49.166 99 62.499s76 20 116 20s78.667 -6.66699 116 -20
s70.333 -34.166 99 -62.499s51.667 -64.166 69 -107.499s26 -95 26 -155v-20c0 -56.667 -7 -105.5 -21 -146.5s-32.667 -75.833 -56 -104.5l67 -67l-57 -57l-70 69c-25.333 -16.667 -52.666 -29 -81.999 -37s-59.666 -12 -90.999 -12zM369.998 73.9971
c19.333 0 38.165 2.50098 56.498 7.50098s35.5 12.5 51.5 22.5l-108 109l57 57l108 -109c14 21.333 25 47.166 33 77.499s12 65.833 12 106.5v20c0 46 -5.83301 85.5 -17.5 118.5s-27.167 60 -46.5 81s-41.666 36.5 -66.999 46.5s-51.666 15 -78.999 15
s-53.666 -5 -78.999 -15s-47.666 -25.5 -66.999 -46.5s-34.833 -48 -46.5 -81s-17.5 -72.5 -17.5 -118.5v-20c0 -48.667 5.83301 -90.167 17.5 -124.5s27.167 -62.333 46.5 -84s41.666 -37.5 66.999 -47.5s51.666 -15 78.999 -15z" />
    <glyph glyph-name="R" unicode="R" horiz-adv-x="680" 
d="M100 700l245 0.00195312c44 0 82.5 -5.33301 115.5 -16s60.5 -25.334 82.5 -44.001s38.667 -40.834 50 -66.501s17 -53.5 17 -83.5c0 -46.667 -13.833 -87.5 -41.5 -122.5s-68.5 -59.5 -122.5 -73.5l184 -294h-111l-167 282h-158v-282h-94v700zM335 362.002
c64.667 0 111 11.833 139 35.5s42 54.5 42 92.5s-14 68.833 -42 92.5s-74.333 35.5 -139 35.5h-141v-256h141z" />
    <glyph glyph-name="S" unicode="S" horiz-adv-x="640" 
d="M320 -10c-42 0 -78.6699 5.00391 -110.003 15.0039s-57.666 23.833 -78.999 41.5s-38.166 38.334 -50.499 62.001s-20.833 49.167 -25.5 76.5h94c3.33301 -15.333 9 -29.833 17 -43.5s18.833 -25.5 32.5 -35.5s30.5 -17.833 50.5 -23.5s43.667 -8.5 71 -8.5
c56 0 98.5 10.667 127.5 32s43.5 47.666 43.5 78.999c0 19.333 -3.16699 35.666 -9.5 48.999s-17 25 -32 35s-34.667 19 -59 27s-54.166 16 -89.499 24c-39.333 8.66699 -73.166 18.167 -101.499 28.5s-51.666 23.333 -69.999 39s-32 34.5 -41 56.5s-13.5 49 -13.5 81
c0 26 5.66699 50.167 17 72.5s27.5 41.833 48.5 58.5s46.667 29.834 77 39.501s64.5 14.5 102.5 14.5c37.333 0 70 -4.83301 98 -14.5s51.833 -22.834 71.5 -39.501s35.167 -36.167 46.5 -58.5s19.333 -46.5 24 -72.5h-94c-3.33301 14 -8.33301 27.167 -15 39.5
s-15.834 23 -27.501 32s-26 16.167 -43 21.5s-37.167 8 -60.5 8c-48 0 -85.167 -9.83301 -111.5 -29.5s-39.5 -43.5 -39.5 -71.5c0 -18 3.33301 -33.5 10 -46.5s17 -24.333 31 -34s31.833 -18 53.5 -25s47.5 -13.833 77.5 -20.5c43.333 -9.33301 80.5 -19.833 111.5 -31.5
s56.333 -25.834 76 -42.501s34 -36.334 43 -59.001s13.5 -49.667 13.5 -81c0 -27.333 -6 -52.833 -18 -76.5s-29.333 -44.334 -52 -62.001s-50.334 -31.5 -83.001 -41.5s-70 -15 -112 -15z" />
    <glyph glyph-name="T" unicode="T" 
d="M263 618h-243v82h580v-82h-243v-618h-94v618z" />
    <glyph glyph-name="U" unicode="U" horiz-adv-x="730" 
d="M365 -10c-42 0 -79.833 6 -113.5 18s-62.5 30.333 -86.5 55s-42.5 55.834 -55.5 93.501s-19.5 82.167 -19.5 133.5v410h94v-410c0 -76 16 -131 48 -165s76.333 -51 133 -51s101 17 133 51s48 89 48 165v410h94v-410c0 -51.333 -6.5 -95.833 -19.5 -133.5
s-31.5 -68.834 -55.5 -93.501s-52.833 -43 -86.5 -55s-71.5 -18 -113.5 -18z" />
    <glyph glyph-name="V" unicode="V" horiz-adv-x="670" 
d="M20 700h102l219 -580l211 580h98l-263 -700h-94z" />
    <glyph glyph-name="W" unicode="W" horiz-adv-x="960" 
d="M30 700h100l144 -550l164 550h84l167 -550l145 550h96l-188 -700h-94l-170 550l-166 -550h-94z" />
    <glyph glyph-name="X" unicode="X" horiz-adv-x="660" 
d="M277 357l-237 343h104l187 -271l189 271h100l-236 -341l246 -359h-106l-195 288l-197 -288h-102z" />
    <glyph glyph-name="Y" unicode="Y" horiz-adv-x="640" 
d="M283 277l-273 423h108l211 -326l197 326h104l-253 -423v-277h-94v277z" />
    <glyph glyph-name="Z" unicode="Z" horiz-adv-x="600" 
d="M45 77l392 541h-382v82h490v-77l-392 -541h402v-82h-510v77z" />
    <glyph glyph-name="bracketleft" unicode="[" horiz-adv-x="380" 
d="M130 700h180v-74h-96v-752h96v-74h-180v900z" />
    <glyph glyph-name="backslash" unicode="\" horiz-adv-x="480" 
d="M40 700h84l316 -900h-84z" />
    <glyph glyph-name="bracketright" unicode="]" horiz-adv-x="380" 
d="M250.008 -199.957h-179.989v73.9951h95.9941v751.954h-95.9941v73.9961h179.989v-899.945z" />
    <glyph glyph-name="asciicircum" unicode="^" horiz-adv-x="550" 
d="M234 700h82l184 -260h-96l-131 185l-131 -185h-92z" />
    <glyph glyph-name="underscore" unicode="_" horiz-adv-x="500" 
d="M0 -63h500v-74h-500v74z" />
    <glyph glyph-name="grave" unicode="`" horiz-adv-x="260" 
d="M20 740h110l110 -160h-70z" />
    <glyph glyph-name="a" unicode="a" horiz-adv-x="565" 
d="M231 -10c-29.333 0 -55.168 4.16992 -77.501 12.5029s-41.166 19.833 -56.499 34.5s-27 32 -35 52s-12 42 -12 66c0 52.667 15.5 90.667 46.5 114s75.5 35 133.5 35h172v36c0 45.333 -10.167 76.666 -30.5 93.999s-50.833 26 -91.5 26c-38 0 -65.667 -7.16699 -83 -21.5
s-27 -30.5 -29 -48.5h-88c1.33301 21.333 7.16602 41.166 17.499 59.499s24.333 34.166 42 47.499s38.834 23.833 63.501 31.5s52 11.5 82 11.5c62.667 0 112.5 -14.833 149.5 -44.5s55.5 -78.167 55.5 -145.5v-215c0 -28 0.166992 -52.5 0.5 -73.5s1.83301 -41.5 4.5 -61.5
h-77c-2 15.333 -3.33301 29.833 -4 43.5s-1 29.167 -1 46.5c-14 -28 -36.667 -51.667 -68 -71s-69.333 -29 -114 -29zM249.998 70.0029c20.667 0 40.168 2.83301 58.501 8.5s34.5 14 48.5 25s25 24.5 33 40.5s12 34.667 12 56v36h-157c-32.667 0 -58.334 -6.5 -77.001 -19.5
s-28 -33.5 -28 -61.5c0 -24.667 8.83301 -45 26.5 -61s45.5 -24 83.5 -24z" />
    <glyph glyph-name="b" unicode="b" horiz-adv-x="615" 
d="M350 -10c-45.333 0 -84.6689 10.165 -118.002 30.498s-56.666 46.833 -69.999 79.5v-100h-82v700h88v-265c15.333 32.667 38.833 58.334 70.5 77.001s68.834 28 111.501 28c66 0 119.167 -21.833 159.5 -65.5s60.5 -108.5 60.5 -194.5v-20
c0 -45.333 -5.33301 -84.833 -16 -118.5s-25.667 -61.667 -45 -84s-42.5 -39.166 -69.5 -50.499s-56.833 -17 -89.5 -17zM329.997 67.998c21.333 0 41.333 4.16699 60 12.5s34.834 20.5 48.501 36.5s24.334 36 32.001 60s11.5 51.667 11.5 83v20
c0 28.667 -3.83301 54.334 -11.5 77.001s-18.334 41.834 -32.001 57.501s-29.834 27.5 -48.501 35.5s-38.667 12 -60 12c-24 0 -46 -3.83301 -66 -11.5s-37 -18.334 -51 -32.001s-25 -29.834 -33 -48.501s-12 -38.667 -12 -60v-80c0 -24 4 -46 12 -66s19 -37 33 -51
s31 -25 51 -33s42 -12 66 -12z" />
    <glyph glyph-name="c" unicode="c" horiz-adv-x="545" 
d="M285 -10c-34 0 -65.6689 5.49805 -95.002 16.498s-54.666 27.667 -75.999 50s-38.166 50.5 -50.499 84.5s-18.5 73.667 -18.5 119v20c0 42.667 6.66699 80.334 20 113.001s31 59.834 53 81.501s47.5 38 76.5 49s59.167 16.5 90.5 16.5s59.5 -4.33301 84.5 -13
s46.667 -20.667 65 -36s33.333 -33.333 45 -54s20.167 -43 25.5 -67h-90c-5.33301 12.667 -11.5 24.5 -18.5 35.5s-15.667 20.5 -26 28.5s-22.5 14.333 -36.5 19s-30.333 7 -49 7c-19.333 0 -38 -3.5 -56 -10.5s-34 -17.667 -48 -32s-25.167 -32.833 -33.5 -55.5
s-12.5 -50 -12.5 -82v-20c0 -34 4.16699 -63.167 12.5 -87.5s19.5 -44 33.5 -59s30 -26 48 -33s36.667 -10.5 56 -10.5c32.667 0 60.167 8 82.5 24s38.166 38 47.499 66h90c-12.667 -52.667 -38.667 -94.167 -78 -124.5s-86.666 -45.5 -141.999 -45.5z" />
    <glyph glyph-name="d" unicode="d" horiz-adv-x="615" 
d="M265 -10c-32.667 0 -62.5029 5.66895 -89.5029 17.002s-50.167 28.166 -69.5 50.499s-34.333 50.333 -45 84s-16 73.167 -16 118.5v20c0 42 5.5 79.167 16.5 111.5s26.167 59.5 45.5 81.5s42.5 38.667 69.5 50s56.5 17 88.5 17c42.667 0 79.834 -9.33301 111.501 -28
s55.167 -44.334 70.5 -77.001v265h88v-700h-82v100c-13.333 -32.667 -36.666 -59.167 -69.999 -79.5s-72.666 -30.5 -117.999 -30.5zM284.997 68.002c24 0 46 4 66 12s37 19 51 33s25 31 33 51s12 42 12 66v80c0 21.333 -4 41.333 -12 60s-19 34.834 -33 48.501
s-31 24.334 -51 32.001s-42 11.5 -66 11.5c-21.333 0 -41.333 -4 -60 -12s-34.834 -19.833 -48.501 -35.5s-24.334 -34.834 -32.001 -57.501s-11.5 -48.334 -11.5 -77.001v-20c0 -31.333 3.83301 -59 11.5 -83s18.334 -44 32.001 -60s29.834 -28.167 48.501 -36.5
s38.667 -12.5 60 -12.5z" />
    <glyph glyph-name="e" unicode="e" horiz-adv-x="580" 
d="M300 -10c-34 0 -66.332 5.33008 -96.999 15.9971s-57.667 27.167 -81 49.5s-42 50.5 -56 84.5s-21 74 -21 120v20c0 44 6.66699 82.167 20 114.5s31.166 59.333 53.499 81s48.333 37.834 78 48.501s60.834 16 93.501 16c78 0 138.333 -21.333 181 -64s64 -103 64 -181
v-56h-402c0 -31.333 5 -57.666 15 -78.999s23 -38.666 39 -51.999s33.833 -23 53.5 -29s39.5 -9 59.5 -9c40 0 70.833 6.66699 92.5 20s37.167 31.666 46.5 54.999h86c-5.33301 -25.333 -14.833 -47.666 -28.5 -66.999s-30.334 -35.5 -50.001 -48.5s-42 -22.833 -67 -29.5
s-51.5 -10 -79.5 -10zM295.001 459.997c-20.667 0 -40.667 -2.83301 -60 -8.5s-36.5 -14.667 -51.5 -27s-27.167 -27.833 -36.5 -46.5s-14 -41 -14 -67h319c-0.666992 27.333 -5.16699 50.5 -13.5 69.5s-19.5 34.333 -33.5 46s-30.5 20.167 -49.5 25.5s-39.167 8 -60.5 8z
" />
    <glyph glyph-name="f" unicode="f" horiz-adv-x="365" 
d="M110 452l-75 0.00195312v78h75v10c0 55.333 12.833 96.666 38.5 123.999s66.167 41 121.5 41c20 0 45 -1 75 -3v-80c-10 1.33301 -20.833 2.16602 -32.5 2.49902s-22.5 0.5 -32.5 0.5c-30.667 0 -52 -6.16699 -64 -18.5s-18 -34.5 -18 -66.5v-10h137v-78h-137v-452h-88
v452z" />
    <glyph glyph-name="g" unicode="g" horiz-adv-x="615" 
d="M290 -210c-38.667 0 -71.6641 3.83301 -98.9971 11.5s-49.833 18.167 -67.5 31.5s-31.167 29.166 -40.5 47.499s-15.333 38.166 -18 59.499h92c3.33301 -10.667 8 -20.334 14 -29.001s14 -16 24 -22s22.833 -10.667 38.5 -14s34.5 -5 56.5 -5c54 0 93.667 13 119 39
s38 63 38 111v85c-15.333 -35.333 -38.833 -61.666 -70.5 -78.999s-68.834 -26 -111.501 -26c-32.667 0 -62.5 5.66699 -89.5 17s-50.167 28 -69.5 50s-34.333 49.5 -45 82.5s-16 71.5 -16 115.5v20c0 40.667 5.5 76.834 16.5 108.501s26.167 58.334 45.5 80.001
s42.5 38.167 69.5 49.5s56.5 17 88.5 17c45.333 0 84.666 -10.167 117.999 -30.5s56.666 -46.833 69.999 -79.5v100h82v-510c0 -72 -21 -128.333 -63 -169s-102.667 -61 -182 -61zM285.003 78c24 0 46 3.83301 66 11.5s37 18.5 51 32.5s25 30.667 33 50s12 40.333 12 63v80
c0 20 -4 39 -12 57s-19 33.667 -33 47s-31 23.833 -51 31.5s-42 11.5 -66 11.5c-21.333 0 -41.333 -4 -60 -12s-34.834 -19.667 -48.501 -35s-24.334 -33.833 -32.001 -55.5s-11.5 -46.5 -11.5 -74.5v-20c0 -30 3.83301 -56.667 11.5 -80s18.334 -43 32.001 -59
s29.834 -28 48.501 -36s38.667 -12 60 -12z" />
    <glyph glyph-name="h" unicode="h" horiz-adv-x="615" 
d="M80 700h87.998v-265c6.66699 14 15.334 27.333 26.001 40s23.334 23.834 38.001 33.501s31.334 17.334 50.001 23.001s39 8.5 61 8.5c66.667 0 116.167 -17.833 148.5 -53.5s48.5 -87.834 48.5 -156.501v-330h-88v310c0 49.333 -10.333 86.666 -31 111.999
s-55.334 38 -104.001 38c-26 0 -48.5 -4.33301 -67.5 -13s-34.5 -20 -46.5 -34s-20.833 -30 -26.5 -48s-8.5 -36.333 -8.5 -55v-310h-88v700z" />
    <glyph glyph-name="i" unicode="i" horiz-adv-x="268" 
d="M90 530h88v-530h-88v530zM134 600c-17.333 0 -31.666 5.66699 -42.999 17s-17 25.666 -17 42.999s5.66699 31.666 17 42.999s25.666 17 42.999 17s31.666 -5.66699 42.999 -17s17 -25.666 17 -42.999s-5.66699 -31.666 -17 -42.999s-25.666 -17 -42.999 -17z" />
    <glyph glyph-name="j" unicode="j" horiz-adv-x="268" 
d="M18 -210c-7.33301 0 -15.667 0.164062 -25 0.49707s-17.666 1.16602 -24.999 2.49902v80c5.33301 -1.33301 11.166 -2.16602 17.499 -2.49902s12.166 -0.5 17.499 -0.5c16.667 0 30.667 1.83301 42 5.5s20.333 10.334 27 20.001s11.334 22.834 14.001 39.501
s4 38.334 4 65.001v530h88v-530c0 -41.333 -2.83301 -75.5 -8.5 -102.5s-14.834 -48.5 -27.501 -64.5s-29.167 -27.167 -49.5 -33.5s-45.166 -9.5 -74.499 -9.5zM133.999 599.997c-17.333 0 -31.666 5.66699 -42.999 17s-17 25.666 -17 42.999s5.66699 31.666 17 42.999
s25.666 17 42.999 17s31.666 -5.66699 42.999 -17s17 -25.666 17 -42.999s-5.66699 -31.666 -17 -42.999s-25.666 -17 -42.999 -17z" />
    <glyph glyph-name="k" unicode="k" horiz-adv-x="565" 
d="M80 700h88v-414l244 244h108l-220 -219l240 -311h-112l-191 250l-69 -65v-185h-88v700z" />
    <glyph glyph-name="l" unicode="l" horiz-adv-x="320" 
d="M240 -5c-55.333 0 -94.998 13.334 -118.998 40.001s-36 70 -36 130v535h88v-535c0 -34.667 5.66699 -58.334 17 -71.001s31.333 -19 60 -19c7.33301 0 13.666 0.166992 18.999 0.5s10.666 0.833008 15.999 1.5v-78c-5.33301 -1.33301 -12.833 -2.33301 -22.5 -3
s-17.167 -1 -22.5 -1z" />
    <glyph glyph-name="m" unicode="m" horiz-adv-x="885" 
d="M80 530l81.999 0.00195312v-100c11.333 32.667 30.833 59.167 58.5 79.5s59.167 30.5 94.5 30.5c46 0 81.333 -9.83301 106 -29.5s41.667 -44.834 51 -75.501c17.333 32.667 39.5 58.334 66.5 77.001s59.5 28 97.5 28c54.667 0 97.334 -16.5 128.001 -49.5
s46 -84.833 46 -155.5v-335h-88v315c0 52.667 -9.16699 90 -27.5 112s-46.166 33 -83.499 33c-16 0 -31.333 -3.33301 -46 -10s-27.667 -16.334 -39 -29.001s-20.333 -28 -27 -46s-10 -38 -10 -60v-315h-88v315c0 52.667 -9.33301 90 -28 112s-46.334 33 -83.001 33
c-16 0 -31.333 -3.33301 -46 -10s-27.667 -16.334 -39 -29.001s-20.333 -28 -27 -46s-10 -38 -10 -60v-315h-88v530z" />
    <glyph glyph-name="n" unicode="n" horiz-adv-x="615" 
d="M80 530l82.001 0.00195312v-100c6 14.667 14.333 28.667 25 42s23.5 25 38.5 35s32.333 18 52 24s41.5 9 65.5 9c66.667 0 116.167 -17.833 148.5 -53.5s48.5 -87.834 48.5 -156.501v-330h-88v310c0 49.333 -10.333 86.666 -31 111.999s-55.334 38 -104.001 38
c-26 0 -48.5 -4.33301 -67.5 -13s-34.5 -20 -46.5 -34s-20.833 -30 -26.5 -48s-8.5 -36.333 -8.5 -55v-310h-88v530z" />
    <glyph glyph-name="o" unicode="o" horiz-adv-x="600" 
d="M300 -10c-34 0 -66.333 5.5 -97 16.5s-57.667 27.667 -81 50s-42 50.5 -56 84.5s-21 73.667 -21 119v20c0 42.667 7 80.334 21 113.001s32.667 59.834 56 81.501s50.333 38 81 49s63 16.5 97 16.5s66.333 -5.5 97 -16.5s57.667 -27.333 81 -49s42 -48.834 56 -81.501
s21 -70.334 21 -113.001v-20c0 -45.333 -7 -85 -21 -119s-32.667 -62.167 -56 -84.5s-50.333 -39 -81 -50s-63 -16.5 -97 -16.5zM300 70c20 0 40 3.5 60 10.5s37.667 18 53 33s27.833 34.5 37.5 58.5s14.5 53.333 14.5 88v20c0 32 -4.83301 59.333 -14.5 82
s-22.167 41.334 -37.5 56.001s-33 25.334 -53 32.001s-40 10 -60 10s-40 -3.33301 -60 -10s-37.667 -17.334 -53 -32.001s-27.833 -33.334 -37.5 -56.001s-14.5 -50 -14.5 -82v-20c0 -34.667 4.83301 -64 14.5 -88s22.167 -43.5 37.5 -58.5s33 -26 53 -33s40 -10.5 60 -10.5
z" />
    <glyph glyph-name="p" unicode="p" horiz-adv-x="615" 
d="M80 530l81.998 -0.000976562v-100c18 35.333 43.167 62.5 75.5 81.5s69.833 28.5 112.5 28.5c66.667 0 120 -21.833 160 -65.5s60 -108.5 60 -194.5v-20c0 -45.333 -5.33301 -84.833 -16 -118.5s-25.667 -61.667 -45 -84s-42.5 -39.166 -69.5 -50.499
s-56.833 -17 -89.5 -17c-45.333 0 -83.166 10 -113.499 30s-53.166 45 -68.499 75v-295h-88v730zM329.998 67.999c21.333 0 41.333 4.16699 60 12.5s34.834 20.5 48.501 36.5s24.334 36 32.001 60s11.5 51.667 11.5 83v20c0 28.667 -3.83301 54.334 -11.5 77.001
s-18.334 41.834 -32.001 57.501s-29.834 27.5 -48.501 35.5s-38.667 12 -60 12c-24 0 -46 -3.83301 -66 -11.5s-37 -18.334 -51 -32.001s-25 -29.834 -33 -48.501s-12 -38.667 -12 -60v-80c0 -24 4 -46 12 -66s19 -37 33 -51s31 -25 51 -33s42 -12 66 -12z" />
    <glyph glyph-name="q" unicode="q" horiz-adv-x="615" 
d="M447 95c-15.333 -32.667 -38.8301 -58.332 -70.4971 -76.999s-68.834 -28 -111.501 -28c-32.667 0 -62.5 5.66699 -89.5 17s-50.167 28.166 -69.5 50.499s-34.333 50.333 -45 84s-16 73.167 -16 118.5v20c0 42 5.5 79.167 16.5 111.5s26.167 59.5 45.5 81.5
s42.5 38.667 69.5 50s56.5 17 88.5 17c45.333 0 84.666 -10.167 117.999 -30.5s56.666 -46.833 69.999 -79.5v100h82v-730h-88v295zM285.003 68.002c24 0 46 4 66 12s37 19 51 33s25 31 33 51s12 42 12 66v80c0 21.333 -4 41.333 -12 60s-19 34.834 -33 48.501
s-31 24.334 -51 32.001s-42 11.5 -66 11.5c-21.333 0 -41.333 -4 -60 -12s-34.834 -19.833 -48.501 -35.5s-24.334 -34.834 -32.001 -57.501s-11.5 -48.334 -11.5 -77.001v-20c0 -31.333 3.83301 -59 11.5 -83s18.334 -44 32.001 -60s29.834 -28.167 48.501 -36.5
s38.667 -12.5 60 -12.5z" />
    <glyph glyph-name="r" unicode="r" horiz-adv-x="390" 
d="M80 530l82.002 0.000976562v-100c11.333 31.333 30.166 57.5 56.499 78.5s58.5 31.5 96.5 31.5c13.333 0 24.166 -0.666992 32.499 -2s15.833 -3 22.5 -5v-82c-8.66699 3.33301 -17.167 5.66602 -25.5 6.99902s-19.833 2 -34.5 2c-20 0 -38.667 -3.66699 -56 -11
s-32.333 -17.5 -45 -30.5s-22.667 -28.833 -30 -47.5s-11 -39 -11 -61v-310h-88v530z" />
    <glyph glyph-name="s" unicode="s" horiz-adv-x="530" 
d="M265 -10c-35.333 0 -65.8301 4.16406 -91.4971 12.4971s-47.5 19.5 -65.5 33.5s-32 30.333 -42 49s-17 38.667 -21 60h88c4.66699 -21.333 17.167 -39.833 37.5 -55.5s51.833 -23.5 94.5 -23.5c24.667 0 45.334 2.16699 62.001 6.5s30.167 10 40.5 17
s17.833 15.333 22.5 25s7 19.834 7 30.501c0 11.333 -2.16699 21.333 -6.5 30s-12 16.5 -23 23.5s-26 13.333 -45 19s-42.833 10.5 -71.5 14.5c-29.333 4 -55.833 9.83301 -79.5 17.5s-43.667 17.834 -60 30.501s-29 27.834 -38 45.501s-13.5 39.167 -13.5 64.5
c0 20 4.33301 39 13 57s21.667 34 39 48s38.666 25 63.999 33s55 12 89 12c31.333 0 58.666 -4.16699 81.999 -12.5s43.166 -19.5 59.499 -33.5s29.166 -30.333 38.499 -49s16 -38.667 20 -60h-88c-5.33301 23.333 -16.666 42.333 -33.999 57s-43.333 22 -78 22
c-43.333 0 -73.666 -7.16699 -90.999 -21.5s-26 -31.833 -26 -52.5c0 -12 2.16699 -22.333 6.5 -31s11.666 -16.334 21.999 -23.001s24 -12.167 41 -16.5s38.167 -8.16602 63.5 -11.499c32.667 -4 61.667 -9.83301 87 -17.5s46.666 -18 63.999 -31s30.5 -28.833 39.5 -47.5
s13.5 -41 13.5 -67c0 -21.333 -4.5 -41.333 -13.5 -60s-22.5 -35 -40.5 -49s-40.833 -25.167 -68.5 -33.5s-60.167 -12.5 -97.5 -12.5z" />
    <glyph glyph-name="t" unicode="t" horiz-adv-x="400" 
d="M275 -5c-56.667 0 -97.499 12.833 -122.499 38.5s-37.5 64.5 -37.5 116.5v302h-80v78h80v120h88v-120h142v-78h-142v-292c0 -30 6.33301 -51.667 19 -65s37 -20 73 -20c20 0 40 1 60 3v-78c-12.667 -1.33301 -25.334 -2.5 -38.001 -3.5s-26.667 -1.5 -42 -1.5z" />
    <glyph glyph-name="u" unicode="u" horiz-adv-x="605" 
d="M267 -10c-64 0 -112.001 18.3311 -144.001 54.998s-48 93.334 -48 170.001v315h88v-310c0 -49.333 10.167 -86.666 30.5 -111.999s53.5 -38 99.5 -38c24.667 0 46.167 4.33301 64.5 13s33.333 20 45 34s20.334 30 26.001 48s8.5 36.333 8.5 55v310h88v-530h-82v100
c-6 -14.667 -14.167 -28.667 -24.5 -42s-23 -25 -38 -35s-32 -18 -51 -24s-39.833 -9 -62.5 -9z" />
    <glyph glyph-name="v" unicode="v" horiz-adv-x="560" 
d="M20 530h98l172 -440l156 440h94l-200 -530h-100z" />
    <glyph glyph-name="w" unicode="w" horiz-adv-x="810" 
d="M30 530h96l102 -410l138 410h78l143 -410l101 410h92l-145 -530h-88l-144 410l-140 -410h-88z" />
    <glyph glyph-name="x" unicode="x" horiz-adv-x="550" 
d="M224 269l-189 261h102l140 -193l140 193h98l-189 -256l199 -274h-104l-148 207l-148 -207h-100z" />
    <glyph glyph-name="y" unicode="y" horiz-adv-x="560" 
d="M150 -210c-10 0 -20.002 1.00098 -30.002 3.00098v80c10 -2 20 -3 30 -3s18.667 1.66699 26 5s14.333 9.66602 21 18.999s13.834 22.5 21.501 39.5s16.5 39.167 26.5 66.5l-225 530h98l172 -430l156 430h94l-200 -530c-14 -37.333 -27.333 -69.333 -40 -96
s-26.167 -48.5 -40.5 -65.5s-30.166 -29.333 -47.499 -37s-38 -11.5 -62 -11.5z" />
    <glyph glyph-name="z" unicode="z" horiz-adv-x="510" 
d="M40 73l314 379h-304v78h410v-73l-314 -379h324v-78h-430v73z" />
    <glyph glyph-name="braceleft" unicode="{" horiz-adv-x="380" 
d="M280 -200c-45.333 0 -80 12 -104 36s-36 58.667 -36 104v223c0 15.333 -4.5 27.5 -13.5 36.5s-21.167 13.5 -36.5 13.5v74c15.333 0 27.5 4.5 36.5 13.5s13.5 21.167 13.5 36.5v223c0 45.333 12 80 36 104s58.667 36 104 36h40v-74h-40c-37.333 0 -56 -18.667 -56 -56
v-250c0 -20 -4.5 -35.333 -13.5 -46s-21.167 -18.667 -36.5 -24c15.333 -5.33301 27.5 -13.333 36.5 -24s13.5 -26 13.5 -46v-250c0 -37.333 18.667 -56 56 -56h40v-74h-40z" />
    <glyph glyph-name="bar" unicode="|" horiz-adv-x="340" 
d="M128 700h84v-900h-84v900z" />
    <glyph glyph-name="braceright" unicode="}" horiz-adv-x="380" 
d="M100.018 699.988c45.3301 0 79.9941 -11.998 103.993 -35.9971s35.998 -58.6641 35.998 -103.995v-222.986c0 -15.332 4.5 -27.498 13.499 -36.498c8.99902 -8.99902 21.165 -13.499 36.498 -13.499v-73.9951c-15.333 0 -27.499 -4.5 -36.498 -13.499
s-13.499 -21.165 -13.499 -36.498v-222.986c0 -45.3311 -11.999 -79.9951 -35.998 -103.993c-23.999 -23.999 -58.6631 -35.998 -103.993 -35.998h-39.998v73.9951h39.998c37.3311 0 55.9961 18.666 55.9961 55.9971v249.984c0 19.999 4.5 35.3311 13.499 45.9971
s21.165 18.666 36.498 23.999c-15.333 5.33301 -27.499 13.332 -36.498 23.998s-13.499 25.998 -13.499 45.9971v249.985c0 37.3311 -18.665 55.9961 -55.9961 55.9961h-39.998v73.9961h39.998z" />
    <glyph glyph-name="asciitilde" unicode="~" horiz-adv-x="550" 
d="M370 280c-21.333 0 -40.665 4.00195 -57.998 12.002s-33.666 16.667 -48.999 26l-44.5 26c-14.333 8 -28.833 12 -43.5 12c-13.333 0 -24.666 -3.33301 -33.999 -10s-17.333 -13.667 -24 -21c-7.33301 -8.66699 -13.666 -18.667 -18.999 -30l-63 40
c8.66699 19.333 19.667 36.666 33 51.999c11.333 13.333 26.166 25.5 44.499 36.5s40.833 16.5 67.5 16.5c21.333 0 40.666 -4 57.999 -12s33.666 -16.667 48.999 -26l44 -26c14 -8 28.667 -12 44 -12c13.333 0 24.666 3.16699 33.999 9.5s17.333 13.166 24 20.499
c7.33301 8.66699 13.666 19 18.999 31l63 -40c-8.66699 -20 -19.667 -37.667 -33 -53c-11.333 -13.333 -26.333 -25.333 -45 -36s-41 -16 -67 -16z" />
    <glyph glyph-name="uni00A0" unicode="&#xa0;" horiz-adv-x="250" 
 />
    <glyph glyph-name="exclamdown" unicode="&#xa1;" horiz-adv-x="300" 
d="M106 310h88v-510h-88v510zM150 400c-19.333 0 -35.833 6.83301 -49.5 20.5s-20.5 30.167 -20.5 49.5c0 20 6.83301 36.667 20.5 50s30.167 20 49.5 20s35.833 -6.66699 49.5 -20s20.5 -30 20.5 -50c0 -19.333 -6.83301 -35.833 -20.5 -49.5s-30.167 -20.5 -49.5 -20.5z
" />
    <glyph glyph-name="cent" unicode="&#xa2;" horiz-adv-x="545" 
d="M243 -7c-28.667 4 -55.168 12.5 -79.501 25.5s-45.166 30.667 -62.499 53s-31 49.166 -41 80.499s-15 67.333 -15 108v20c0 38 5.16699 71.833 15.5 101.5s24.5 55.334 42.5 77.001s39 39 63 52s49.667 21.5 77 25.5v94h84v-93c50 -7.33301 89.833 -26.5 119.5 -57.5
s49.167 -67.5 58.5 -109.5h-90c-5.33301 12.667 -11.5 24.5 -18.5 35.5s-15.667 20.5 -26 28.5s-22.5 14.333 -36.5 19s-30.333 7 -49 7c-19.333 0 -38 -3.5 -56 -10.5s-34 -17.667 -48 -32s-25.167 -32.833 -33.5 -55.5s-12.5 -50 -12.5 -82v-20
c0 -34 4.16699 -63.167 12.5 -87.5s19.5 -44 33.5 -59s30 -26 48 -33s36.667 -10.5 56 -10.5c32.667 0 60.167 8 82.5 24s38.166 38 47.499 66h90c-11.333 -46 -32.666 -83.333 -63.999 -112s-69.333 -46.667 -114 -54v-114h-84v113z" />
    <glyph glyph-name="sterling" unicode="&#xa3;" horiz-adv-x="630" 
d="M60 82l90 0.00292969v227h-80v72h80v119c0 32.667 5 62 15 88s24.333 48 43 66s41.167 31.833 67.5 41.5s55.5 14.5 87.5 14.5c31.333 0 59.5 -4.5 84.5 -13.5s46.333 -21.833 64 -38.5s31.5 -36.334 41.5 -59.001s15.667 -47.334 17 -74.001h-94
c-2.66699 32 -13.167 56.833 -31.5 74.5s-45.5 26.5 -81.5 26.5c-38.667 0 -68.167 -9.83301 -88.5 -29.5s-30.5 -51.834 -30.5 -96.501v-119h181v-72h-181v-227h326v-82h-510v82z" />
    <glyph glyph-name="currency" unicode="&#xa4;" horiz-adv-x="550" 
d="M35 179l79.001 78.999c-9.33301 15.333 -16.5 31.333 -21.5 48s-7.5 34.667 -7.5 54c0 18.667 2.5 36.5 7.5 53.5s12.167 32.833 21.5 47.5l-79 80l59 59l79 -80c31.333 20 65.333 30 102 30c18.667 0 36.5 -2.66699 53.5 -8s32.833 -12.666 47.5 -21.999l80 80l59 -59
l-80 -80c9.33301 -14.667 16.666 -30.5 21.999 -47.5s8 -34.833 8 -53.5c0 -36.667 -10 -70.667 -30 -102l80 -79l-59 -59l-80 79c-14.667 -9.33301 -30.5 -16.5 -47.5 -21.5s-34.833 -7.5 -53.5 -7.5c-19.333 0 -37.333 2.5 -54 7.5s-32.667 12.167 -48 21.5l-79 -79z
M275.001 251.999c14.667 0 28.5 2.83301 41.5 8.5s24.167 13.334 33.5 23.001s16.833 21 22.5 34s8.5 27.167 8.5 42.5s-2.83301 29.5 -8.5 42.5s-13.167 24.333 -22.5 34s-20.5 17.334 -33.5 23.001s-26.833 8.5 -41.5 8.5s-28.5 -2.83301 -41.5 -8.5
s-24.167 -13.334 -33.5 -23.001s-16.833 -21 -22.5 -34s-8.5 -27.167 -8.5 -42.5s2.83301 -29.5 8.5 -42.5s13.167 -24.333 22.5 -34s20.5 -17.334 33.5 -23.001s26.833 -8.5 41.5 -8.5z" />
    <glyph glyph-name="yen" unicode="&#xa5;" horiz-adv-x="630" 
d="M273 156h-193v72h193v84h-193v72h134l-189 316h108l186 -316l182 316h104l-183 -316h138v-72h-193v-84h193v-72h-193v-156h-94v156z" />
    <glyph glyph-name="brokenbar" unicode="&#xa6;" horiz-adv-x="340" 
d="M128 170h84v-370h-84v370zM128 700h84v-370h-84v370z" />
    <glyph glyph-name="section" unicode="&#xa7;" horiz-adv-x="560" 
d="M280 -210c-27.333 0 -51.835 4.16895 -73.502 12.502s-40 19.666 -55 33.999s-26.5 31.166 -34.5 50.499s-12 40.333 -12 63h94c0 -50 27 -75 81 -75s81 25.667 81 77c0 12 -2.33301 22.667 -7 32s-13 18.5 -25 27.5s-28.167 18.167 -48.5 27.5s-46.5 20.333 -78.5 33
c-40 16 -72 39.167 -96 69.5s-36 66.5 -36 108.5c0 38 11 71.5 33 100.5s52 51.5 90 67.5c-26 15.333 -47.167 32.833 -63.5 52.5s-24.5 45.5 -24.5 77.5c0 22.667 4 44 12 64s19.5 37.167 34.5 51.5s33.333 25.666 55 33.999s46.167 12.5 73.5 12.5
s51.833 -4.16699 73.5 -12.5s40 -19.833 55 -34.5s26.5 -32 34.5 -52s12 -42 12 -66h-94c0 54 -27 81 -81 81c-25.333 0 -45.166 -7 -59.499 -21s-21.5 -33 -21.5 -57c0 -12 2.33301 -22.667 7 -32s13 -18.5 25 -27.5s28.333 -18.167 49 -27.5s46.667 -20.333 78 -33
c40 -16 72 -39.5 96 -70.5s36 -67.167 36 -108.5c0 -38 -11.167 -71.333 -33.5 -100s-52.166 -51 -89.499 -67c25.333 -14.667 46.333 -32 63 -52s25 -46 25 -78c0 -23.333 -4 -44.833 -12 -64.5s-19.5 -36.667 -34.5 -51s-33.333 -25.666 -55 -33.999
s-46.167 -12.5 -73.5 -12.5zM279.998 142.002c34 0 62.167 9.99805 84.5 29.998s33.5 45.667 33.5 77c0 15.333 -3 29.666 -9 42.999s-14.333 24.833 -25 34.5s-23.167 17.334 -37.5 23.001s-29.833 8.5 -46.5 8.5c-34 0 -62.167 -10.167 -84.5 -30.5
s-33.5 -46.166 -33.5 -77.499s11.167 -57.166 33.5 -77.499s50.5 -30.5 84.5 -30.5z" />
    <glyph glyph-name="dieresis" unicode="&#xa8;" horiz-adv-x="360" 
d="M78 602c-16 0 -29.667 5.66699 -41 17s-17 25 -17 41s5.66699 29.667 17 41s25 17 41 17s29.667 -5.66699 41 -17s17 -25 17 -41s-5.66699 -29.667 -17 -41s-25 -17 -41 -17zM282 602c-16 0 -29.667 5.66699 -41 17s-17 25 -17 41s5.66699 29.667 17 41s25 17 41 17
s29.667 -5.66699 41 -17s17 -25 17 -41s-5.66699 -29.667 -17 -41s-25 -17 -41 -17z" />
    <glyph glyph-name="copyright" unicode="&#xa9;" horiz-adv-x="830" 
d="M415 -10c-50.667 0 -97.834 9.33301 -141.501 28s-81.667 44.167 -114 76.5s-57.833 70.333 -76.5 114s-28 90.834 -28 141.501c0 50 9.33301 96.833 28 140.5s44.334 81.834 77.001 114.501s70.834 58.334 114.501 77.001s90.5 28 140.5 28
c50.667 0 97.834 -9.33301 141.501 -28s81.667 -44.167 114 -76.5s57.833 -70.333 76.5 -114s28 -90.834 28 -141.501c0 -50 -9.33301 -96.833 -28 -140.5s-44.334 -81.834 -77.001 -114.501s-70.834 -58.334 -114.501 -77.001s-90.5 -28 -140.5 -28zM415 66
c38.667 0 75.168 7.16797 109.501 21.501s64 34.166 89 59.499s44.833 55.333 59.5 90s22 72.334 22 113.001c0 40 -7.33301 77.333 -22 112s-34.5 64.834 -59.5 90.501s-54.667 45.667 -89 60s-70.833 21.5 -109.5 21.5c-39.333 0 -76 -7.16699 -110 -21.5
s-63.5 -34.333 -88.5 -60s-44.833 -55.834 -59.5 -90.501s-22 -72 -22 -112s7.16699 -77.333 21.5 -112s34.166 -64.834 59.499 -90.501s55 -45.667 89 -60s70.667 -21.5 110 -21.5zM415.001 140.001c-26.667 0 -50.999 4.49902 -72.999 13.499s-41 22.333 -57 40
s-28.333 39.167 -37 64.5s-13 54.333 -13 87v10c0 32 4.5 60.833 13.5 86.5s21.5 47.167 37.5 64.5s35 30.666 57 39.999s46 14 72 14c50.667 0 90.334 -12.667 119.001 -38s45.667 -56 51 -92h-80c-5.33301 18 -15.333 32.833 -30 44.5s-34.667 17.5 -60 17.5
c-30 0 -54.167 -10.667 -72.5 -32s-27.5 -56.333 -27.5 -105v-10c0 -48 9.33301 -82.833 28 -104.5s42.667 -32.5 72 -32.5c28 0 48.667 6 62 18s22.666 28.333 27.999 49h80c-2.66699 -18 -8.33398 -35.167 -17.001 -51.5s-20.167 -30.666 -34.5 -42.999
s-31.5 -22.166 -51.5 -29.499s-42.333 -11 -67 -11z" />
    <glyph glyph-name="ordfeminine" unicode="&#xaa;" horiz-adv-x="380" 
d="M155 370c-41.333 0 -71.667 8.99902 -91 26.999s-29 43 -29 75c0 30 10.167 54.167 30.5 72.5s51.833 27.5 94.5 27.5h91v13c0 39.333 -18.667 59 -56 59c-18.667 0 -31.667 -2.83301 -39 -8.5s-12.333 -14.167 -15 -25.5h-86c2.66699 30 14.667 54.167 36 72.5
s56 27.5 104 27.5c50 0 85.833 -10.167 107.5 -30.5s32.5 -51.833 32.5 -94.5v-125c0 -17.333 0.333008 -32.5 1 -45.5s2 -24.5 4 -34.5h-72c-2 10 -3.33301 18.333 -4 25s-1 15.334 -1 26.001c-8 -15.333 -21 -29.333 -39 -42s-41 -19 -69 -19zM169.999 435.999
c25.333 0 45.167 6.16699 59.5 18.5s21.5 27.5 21.5 45.5v18h-81c-18 0 -30.667 -4.16699 -38 -12.5s-11 -18.5 -11 -30.5s3.83301 -21.5 11.5 -28.5s20.167 -10.5 37.5 -10.5z" />
    <glyph glyph-name="guillemotleft" unicode="&#xab;" horiz-adv-x="550" 
d="M40 236v78l220 186v-98l-150 -125l150 -125v-102zM270 236v78l220 186v-98l-150 -125l150 -125v-102z" />
    <glyph glyph-name="logicalnot" unicode="&#xac;" horiz-adv-x="550" 
d="M412 319h-362v82h450v-250h-88v168z" />
    <glyph glyph-name="uni00AD" unicode="&#xad;" horiz-adv-x="380" 
d="M40 321h300v-82h-300v82z" />
    <glyph glyph-name="registered" unicode="&#xae;" horiz-adv-x="660" 
d="M330 140c-39.333 0 -76.333 7.5 -111 22.5s-64.834 35.333 -90.501 61s-46 55.834 -61 90.501s-22.5 71.667 -22.5 111s7.5 76.333 22.5 111s35.333 64.834 61 90.501s55.834 46 90.501 61s71.667 22.5 111 22.5s76.333 -7.5 111 -22.5s64.834 -35.333 90.501 -61
s46 -55.834 61 -90.501s22.5 -71.667 22.5 -111s-7.5 -76.333 -22.5 -111s-35.333 -64.834 -61 -90.501s-55.834 -46 -90.501 -61s-71.667 -22.5 -111 -22.5zM330 200c30 0 58.333 5.83301 85 17.5s49.834 27.667 69.501 48s35.334 44.166 47.001 71.499
s17.5 56.666 17.5 87.999s-5.83301 60.666 -17.5 87.999s-27.334 51.166 -47.001 71.499s-42.834 36.333 -69.501 48s-55 17.5 -85 17.5s-58.333 -5.83301 -85 -17.5s-49.834 -27.667 -69.501 -48s-35.334 -44.166 -47.001 -71.499s-17.5 -56.666 -17.5 -87.999
s5.83301 -60.666 17.5 -87.999s27.334 -51.166 47.001 -71.499s42.834 -36.333 69.501 -48s55 -17.5 85 -17.5zM225 575h105c44.667 0 76.667 -8.33301 96 -25s29 -40 29 -70c0 -22 -5.33301 -40.667 -16 -56s-27.667 -26.333 -51 -33l67 -116h-70l-60 110h-36v-110h-64v300
zM326 435c25.333 0 42.5 3.66895 51.5 11.002s13.5 18.666 13.5 33.999s-4.5 26.666 -13.5 33.999s-26.167 11 -51.5 11h-37v-90h37z" />
    <glyph glyph-name="macron" unicode="&#xaf;" horiz-adv-x="300" 
d="M20 694h260v-68h-260v68z" />
    <glyph glyph-name="degree" unicode="&#xb0;" horiz-adv-x="390" 
d="M195 400c-21.333 0 -41.5 4 -60.5 12s-35.5 19 -49.5 33s-25 30.5 -33 49.5s-12 39.167 -12 60.5s4 41.5 12 60.5s19 35.5 33 49.5s30.5 25 49.5 33s39.167 12 60.5 12s41.5 -4 60.5 -12s35.5 -19 49.5 -33s25 -30.5 33 -49.5s12 -39.167 12 -60.5s-4 -41.5 -12 -60.5
s-19 -35.5 -33 -49.5s-30.5 -25 -49.5 -33s-39.167 -12 -60.5 -12zM195 476c22 0 40.667 7.66699 56 23s23 34 23 56s-7.66699 40.667 -23 56s-34 23 -56 23s-40.667 -7.66699 -56 -23s-23 -34 -23 -56s7.66699 -40.667 23 -56s34 -23 56 -23z" />
    <glyph glyph-name="plusminus" unicode="&#xb1;" horiz-adv-x="550" 
d="M50 171h450v-82h-450v82zM231 369h-181v82h181v184h88v-184h181v-82h-181v-99h-88v99z" />
    <glyph glyph-name="twosuperior" unicode="&#xb2;" horiz-adv-x="360" 
d="M30 444l148.999 128.001c12.667 10.667 22.834 20.167 30.501 28.5s13.667 16 18 23s7.33301 13.833 9 20.5s2.5 13.667 2.5 21c0 13.333 -5.16699 24.833 -15.5 34.5s-24.833 14.5 -43.5 14.5s-33.167 -4.83301 -43.5 -14.5s-15.5 -21.167 -15.5 -34.5h-86
c0 35.333 12.833 65 38.5 89s61.167 36 106.5 36s80.833 -12 106.5 -36s38.5 -53.667 38.5 -89c0 -26 -8 -49.833 -24 -71.5s-41 -45.834 -75 -72.501l-84 -67h188v-74h-300v64z" />
    <glyph glyph-name="threesuperior" unicode="&#xb3;" horiz-adv-x="370" 
d="M185 370c-25.333 0 -47.5 3.16992 -66.5 9.50293s-35.167 15 -48.5 26s-23.333 23.833 -30 38.5s-10 30 -10 46h86c0 -29.333 23 -44 69 -44c23.333 0 40.666 4.66699 51.999 14s17 22 17 38c0 16.667 -5.5 29.5 -16.5 38.5s-28.833 13.5 -53.5 13.5h-49v70h49
c20 0 35 4.5 45 13.5s15 20.833 15 35.5c0 13.333 -4.66699 24.166 -14 32.499s-24.333 12.5 -45 12.5c-18 0 -32.333 -3.33301 -43 -10s-16 -16.334 -16 -29.001h-86c0 32 12.333 59.167 37 81.5s60.667 33.5 108 33.5c48 0 84.167 -10.833 108.5 -32.5
s36.5 -48.834 36.5 -81.501c0 -26 -5.83301 -45 -17.5 -57s-27.5 -21.667 -47.5 -29c20 -7.33301 37.5 -18.5 52.5 -33.5s22.5 -36.5 22.5 -64.5c0 -16.667 -3.33301 -32.5 -10 -47.5s-16.667 -28 -30 -39s-29.666 -19.667 -48.999 -26s-41.333 -9.5 -66 -9.5z" />
    <glyph glyph-name="acute" unicode="&#xb4;" horiz-adv-x="260" 
d="M130 740h110l-150 -160h-70z" />
    <glyph glyph-name="mu" unicode="&#xb5;" horiz-adv-x="610" 
d="M80 530l87.999 -0.000976562v-310c0 -49.333 10.167 -86.666 30.5 -111.999s53.5 -38 99.5 -38c24.667 0 46.167 4.33301 64.5 13s33.333 20 45 34s20.334 30 26.001 48s8.5 36.333 8.5 55v310h88v-530h-82v100c-6 -14.667 -14.167 -28.667 -24.5 -42s-23 -25 -38 -35
s-32 -18 -51 -24s-39.833 -9 -62.5 -9c-41.333 0 -76 9 -104 27v-217h-88v730z" />
    <glyph glyph-name="paragraph" unicode="&#xb6;" horiz-adv-x="625" 
d="M195 306c-21.333 5.33301 -41.167 14.168 -59.5 26.501s-34.166 27 -47.499 44s-23.833 36 -31.5 57s-11.5 43.167 -11.5 66.5c0 27.333 5.33301 53.166 16 77.499s25 45.5 43 63.5s39.167 32.333 63.5 43s50.166 16 77.499 16h280v-900h-84v820h-162v-820h-84v506z" />
    <glyph glyph-name="periodcentered" unicode="&#xb7;" horiz-adv-x="300" 
d="M150 205c-19.333 0 -35.833 6.83301 -49.5 20.5s-20.5 30.167 -20.5 49.5c0 20 6.83301 36.667 20.5 50s30.167 20 49.5 20s35.833 -6.66699 49.5 -20s20.5 -30 20.5 -50c0 -19.333 -6.83301 -35.833 -20.5 -49.5s-30.167 -20.5 -49.5 -20.5z" />
    <glyph glyph-name="cedilla" unicode="&#xb8;" horiz-adv-x="220" 
d="M80 -210c-16.667 0 -30.335 1.00098 -41.002 3.00098c-6.66699 0.666992 -13 1.66699 -19 3v60c4 -0.666992 8.66699 -1.33398 14 -2.00098c4.66699 -0.666992 10 -1.16699 16 -1.5s12.667 -0.5 20 -0.5c18.667 0 32 3.5 40 10.5s12 15.167 12 24.5
c0 8 -3.33301 15.667 -10 23s-22.334 11 -47.001 11l17 89h60l-7 -48c13.333 -3.33301 24.333 -7.83301 33 -13.5s15.334 -12 20.001 -19s7.83398 -14.333 9.50098 -22s2.5 -15.167 2.5 -22.5c0 -28.667 -9.66699 -51.667 -29 -69s-49.666 -26 -90.999 -26z" />
    <glyph glyph-name="onesuperior" unicode="&#xb9;" horiz-adv-x="250" 
d="M129 690l-104 -74v86l110 78h80v-400h-86v310z" />
    <glyph glyph-name="ordmasculine" unicode="&#xba;" horiz-adv-x="380" 
d="M190 370c-23.333 0 -44.833 4 -64.5 12s-36.5 19.167 -50.5 33.5s-25 31.666 -33 51.999s-12 42.833 -12 67.5v10c0 24.667 4 47 12 67s19 37.333 33 52s30.833 26 50.5 34s41.167 12 64.5 12s44.833 -4 64.5 -12s36.5 -19.333 50.5 -34s25 -32 33 -52s12 -42.333 12 -67
v-10c0 -24.667 -4 -47.167 -12 -67.5s-19 -37.666 -33 -51.999s-30.833 -25.5 -50.5 -33.5s-41.167 -12 -64.5 -12zM190 446c22.667 0 40.667 7.33301 54 22s20 37 20 67v10c0 30 -6.66699 52.333 -20 67s-31.333 22 -54 22s-40.667 -7.33301 -54 -22s-20 -37 -20 -67v-10
c0 -30 6.66699 -52.333 20 -67s31.333 -22 54 -22z" />
    <glyph glyph-name="guillemotright" unicode="&#xbb;" horiz-adv-x="550" 
d="M280 314v-78l-220 -186v98l150 125l-150 125v102zM510 314v-78l-220 -186v98l150 125l-150 125v102z" />
    <glyph glyph-name="onequarter" unicode="&#xbc;" horiz-adv-x="840" 
d="M630 700h100l-480 -700h-100zM129 611l-104 -74v86l110 78h80v-400h-86v310zM674 84h-194v64l187 253h93v-243h40v-74h-40v-83h-86v83zM674 158v148l-105 -148h105z" />
    <glyph glyph-name="onehalf" unicode="&#xbd;" horiz-adv-x="900" 
d="M630 700h100l-480 -700h-100zM129 611l-104 -74v86l110 78h80v-400h-86v310zM570 65l148.999 128.001c12.667 10.667 22.834 20.167 30.501 28.5s13.667 16 18 23s7.33301 13.833 9 20.5s2.5 13.667 2.5 21c0 13.333 -5.16699 24.833 -15.5 34.5s-24.833 14.5 -43.5 14.5
s-33.167 -4.83301 -43.5 -14.5s-15.5 -21.167 -15.5 -34.5h-86c0 35.333 12.833 65 38.5 89s61.167 36 106.5 36s80.833 -12 106.5 -36s38.5 -53.667 38.5 -89c0 -26 -8 -49.833 -24 -71.5s-41 -45.834 -75 -72.501l-84 -67h188v-74h-300v64z" />
    <glyph glyph-name="threequarters" unicode="&#xbe;" horiz-adv-x="870" 
d="M660 700h100l-480 -700h-100zM185 291c-25.333 0 -47.5 3.16992 -66.5 9.50293s-35.167 15 -48.5 26s-23.333 23.833 -30 38.5s-10 30 -10 46h86c0 -29.333 23 -44 69 -44c23.333 0 40.666 4.66699 51.999 14s17 22 17 38c0 16.667 -5.5 29.5 -16.5 38.5
s-28.833 13.5 -53.5 13.5h-49v70h49c20 0 35 4.5 45 13.5s15 20.833 15 35.5c0 13.333 -4.66699 24.166 -14 32.499s-24.333 12.5 -45 12.5c-18 0 -32.333 -3.33301 -43 -10s-16 -16.334 -16 -29.001h-86c0 32 12.333 59.167 37 81.5s60.667 33.5 108 33.5
c48 0 84.167 -10.833 108.5 -32.5s36.5 -48.834 36.5 -81.501c0 -26 -5.83301 -45 -17.5 -57s-27.5 -21.667 -47.5 -29c20 -7.33301 37.5 -18.5 52.5 -33.5s22.5 -36.5 22.5 -64.5c0 -16.667 -3.33301 -32.5 -10 -47.5s-16.667 -28 -30 -39s-29.666 -19.667 -48.999 -26
s-41.333 -9.5 -66 -9.5zM704 84.0029h-194v64l187 253h93v-243h40v-74h-40v-83h-86v83zM704 158.003v148l-105 -148h105z" />
    <glyph glyph-name="questiondown" unicode="&#xbf;" horiz-adv-x="500" 
d="M250 -210c-32 0 -60.9951 4.83105 -86.9951 14.498s-48.167 23 -66.5 40s-32.333 37 -42 60s-14.5 48.167 -14.5 75.5c0 18.667 3 36.334 9 53.001s14.167 32.5 24.5 47.5s22.166 29.333 35.499 43s27 26.5 41 38.5c11.333 9.33301 20.666 18.166 27.999 26.499
s13.166 16.333 17.499 24s7.33301 15.334 9 23.001s2.5 15.834 2.5 24.501v50h88v-60c0 -12.667 -0.833008 -24.5 -2.5 -35.5s-5.33398 -22 -11.001 -33s-13.667 -22.5 -24 -34.5s-24.166 -25.333 -41.499 -40c-28 -24 -49.333 -45.667 -64 -65s-22 -40 -22 -62
c0 -32 10.667 -58.333 32 -79s50.666 -31 87.999 -31s66.666 10.333 87.999 31s32 47 32 79h90c0 -27.333 -4.83301 -52.5 -14.5 -75.5s-23.667 -43 -42 -60s-40.5 -30.333 -66.5 -40s-55 -14.5 -87 -14.5zM250.005 399.998c-19.333 0 -35.833 6.83301 -49.5 20.5
s-20.5 30.167 -20.5 49.5c0 20 6.83301 36.667 20.5 50s30.167 20 49.5 20s35.833 -6.66699 49.5 -20s20.5 -30 20.5 -50c0 -19.333 -6.83301 -35.833 -20.5 -49.5s-30.167 -20.5 -49.5 -20.5z" />
    <glyph glyph-name="Agrave" unicode="&#xc0;" horiz-adv-x="670" 
d="M481 174h-296l-67 -174h-98l268 700h94l268 -700h-102zM216 256h234l-117 324zM145 900h119l111 -150h-80z" />
    <glyph glyph-name="Aacute" unicode="&#xc1;" horiz-adv-x="670" 
d="M481 174h-296l-67 -174h-98l268 700h94l268 -700h-102zM216 256h234l-117 324zM405 900h120l-150 -150h-80z" />
    <glyph glyph-name="Acircumflex" unicode="&#xc2;" horiz-adv-x="670" 
d="M481 174h-296l-67 -174h-98l268 700h94l268 -700h-102zM216 256h234l-117 324zM285 900h99l111 -150h-80l-80 80l-80 -80h-80z" />
    <glyph glyph-name="Atilde" unicode="&#xc3;" horiz-adv-x="670" 
d="M481 174h-296l-67 -174h-98l268 700h94l268 -700h-102zM216 256h234l-117 324zM405 760c-16 0 -30.167 2.33398 -42.5 7.00098s-23.666 9.83398 -33.999 15.501l-29.5 15.5c-9.33301 4.66699 -19 7 -29 7c-7.33301 0 -13.5 -2 -18.5 -6s-9.16699 -8.66699 -12.5 -14
c-3.33301 -6 -6.33301 -12.667 -9 -20l-65 20c4.66699 19.333 11.334 36.666 20.001 51.999c7.33301 13.333 17.5 25.5 30.5 36.5s29.5 16.5 49.5 16.5c16 0 30.167 -2.33301 42.5 -7s23.666 -9.83398 33.999 -15.501l29.5 -15.5c9.33301 -4.66699 19 -7 29 -7
c7.33301 0 13.5 2 18.5 6s9.16699 8.66699 12.5 14c3.33301 6 6.33301 12.667 9 20l65 -20c-4.66699 -20 -11.334 -37.667 -20.001 -53c-7.33301 -13.333 -17.5 -25.333 -30.5 -36s-29.5 -16 -49.5 -16z" />
    <glyph glyph-name="Adieresis" unicode="&#xc4;" horiz-adv-x="670" 
d="M481 174h-296l-67 -174h-98l268 700h94l268 -700h-102zM216 256h234l-117 324zM225 765c-16.667 0 -30.834 5.83301 -42.501 17.5s-17.5 25.834 -17.5 42.501s5.83301 30.834 17.5 42.501s25.834 17.5 42.501 17.5s30.834 -5.83301 42.501 -17.5
s17.5 -25.834 17.5 -42.501s-5.83301 -30.834 -17.5 -42.501s-25.834 -17.5 -42.501 -17.5zM445 765c-16.667 0 -30.834 5.83301 -42.501 17.5s-17.5 25.834 -17.5 42.501s5.83301 30.834 17.5 42.501s25.834 17.5 42.501 17.5s30.834 -5.83301 42.501 -17.5
s17.5 -25.834 17.5 -42.501s-5.83301 -30.834 -17.5 -42.501s-25.834 -17.5 -42.501 -17.5z" />
    <glyph glyph-name="Aring" unicode="&#xc5;" horiz-adv-x="670" 
d="M481 174h-296l-67 -174h-98l268 700h94l268 -700h-102zM216 256h234l-117 324zM335 735c-17.333 0 -33.166 2.83301 -47.499 8.5s-27 13.334 -38 23.001s-19.5 21.167 -25.5 34.5s-9 28 -9 44s3 30.667 9 44s14.5 24.833 25.5 34.5s23.667 17.334 38 23.001
s30.166 8.5 47.499 8.5c16.667 0 32.334 -2.83301 47.001 -8.5s27.5 -13.334 38.5 -23.001s19.5 -21.167 25.5 -34.5s9 -28 9 -44s-3 -30.667 -9 -44s-14.5 -24.833 -25.5 -34.5s-23.833 -17.334 -38.5 -23.001s-30.334 -8.5 -47.001 -8.5zM335 795
c14.667 0 26.667 4.66699 36 14s14 21.333 14 36s-4.66699 26.667 -14 36s-21.333 14 -36 14s-26.667 -4.66699 -36 -14s-14 -21.333 -14 -36s4.66699 -26.667 14 -36s21.333 -14 36 -14z" />
    <glyph glyph-name="AE" unicode="&#xc6;" horiz-adv-x="950" 
d="M419 700h471v-82h-356v-217h326v-82h-326v-237h356v-82h-450v174h-225l-101 -174h-104zM440 256v320l-177 -320h177z" />
    <glyph glyph-name="Ccedilla" unicode="&#xc7;" horiz-adv-x="680" 
d="M355 -10c-39.333 0 -76.667 6.83008 -112 20.4971s-66.666 35 -93.999 64s-49 65.833 -65 110.5s-24 98 -24 160v20c0 60 8 111.667 24 155s37.667 79 65 107s58.666 48.833 93.999 62.5s72.666 20.5 111.999 20.5c38 0 72.833 -5 104.5 -15s59.5 -24.333 83.5 -43
s43.5 -41.667 58.5 -69s24.5 -58.333 28.5 -93h-100c-9.33301 45.333 -29 79.333 -59 102s-68.667 34 -116 34c-24.667 0 -48.667 -4.66699 -72 -14s-44.166 -24.166 -62.499 -44.499s-33 -47.166 -44 -80.499s-16.5 -74 -16.5 -122v-20c0 -50.667 6 -93.167 18 -127.5
s27.333 -62.166 46 -83.499s39.667 -36.666 63 -45.999s46 -14 68 -14c52 0 92.667 12.667 122 38s47 58 53 98h100c-5.33301 -38.667 -16 -71.834 -32 -99.501s-36.167 -50.5 -60.5 -68.5s-52 -31.167 -83 -39.5s-64.167 -12.5 -99.5 -12.5zM324.999 -210.003
c-16.667 0 -30.335 1.00293 -41.002 3.00293c-6.66699 0.666992 -13 1.66699 -19 3v62c4 -0.666992 8.66699 -1.33398 14 -2.00098c4.66699 -0.666992 10 -1.16699 16 -1.5s12.667 -0.5 20 -0.5c18.667 0 31.667 3.16699 39 9.5s11 14.166 11 23.499
c0 8 -3.16699 15.333 -9.5 22s-22.166 10 -47.499 10l17 91h64l-7 -48c26 -6.66699 43 -17.334 51 -32.001s12 -29.667 12 -45c0 -28.667 -9.66699 -51.667 -29 -69s-49.666 -26 -90.999 -26z" />
    <glyph glyph-name="Egrave" unicode="&#xc8;" horiz-adv-x="610" 
d="M100 700h450v-82h-356v-217h326v-82h-326v-237h356v-82h-450v700zM135 900h119l111 -150h-80z" />
    <glyph glyph-name="Eacute" unicode="&#xc9;" horiz-adv-x="610" 
d="M100 700h450v-82h-356v-217h326v-82h-326v-237h356v-82h-450v700zM395 900h120l-150 -150h-80z" />
    <glyph glyph-name="Ecircumflex" unicode="&#xca;" horiz-adv-x="610" 
d="M100 700h450v-82h-356v-217h326v-82h-326v-237h356v-82h-450v700zM275 900h99l111 -150h-80l-80 80l-80 -80h-80z" />
    <glyph glyph-name="Edieresis" unicode="&#xcb;" horiz-adv-x="610" 
d="M100 700h450v-82h-356v-217h326v-82h-326v-237h356v-82h-450v700zM215 765c-16.667 0 -30.834 5.83301 -42.501 17.5s-17.5 25.834 -17.5 42.501s5.83301 30.834 17.5 42.501s25.834 17.5 42.501 17.5s30.834 -5.83301 42.501 -17.5s17.5 -25.834 17.5 -42.501
s-5.83301 -30.834 -17.5 -42.501s-25.834 -17.5 -42.501 -17.5zM435 765c-16.667 0 -30.834 5.83301 -42.501 17.5s-17.5 25.834 -17.5 42.501s5.83301 30.834 17.5 42.501s25.834 17.5 42.501 17.5s30.834 -5.83301 42.501 -17.5s17.5 -25.834 17.5 -42.501
s-5.83301 -30.834 -17.5 -42.501s-25.834 -17.5 -42.501 -17.5z" />
    <glyph glyph-name="Igrave" unicode="&#xcc;" horiz-adv-x="314" 
d="M110 700h94v-700h-94v700zM-32 900h119l111 -150h-80z" />
    <glyph glyph-name="Iacute" unicode="&#xcd;" horiz-adv-x="314" 
d="M110 700h94v-700h-94v700zM227 900h120l-150 -150h-80z" />
    <glyph glyph-name="Icircumflex" unicode="&#xce;" horiz-adv-x="314" 
d="M110 700h94v-700h-94v700zM108 900h99l111 -150h-80l-80 80l-80 -80h-80z" />
    <glyph glyph-name="Idieresis" unicode="&#xcf;" horiz-adv-x="314" 
d="M110 700h94v-700h-94v700zM48 765c-16.667 0 -30.834 5.83301 -42.501 17.5s-17.5 25.834 -17.5 42.501s5.83301 30.834 17.5 42.501s25.834 17.5 42.501 17.5s30.834 -5.83301 42.501 -17.5s17.5 -25.834 17.5 -42.501s-5.83301 -30.834 -17.5 -42.501
s-25.834 -17.5 -42.501 -17.5zM268 765c-16.667 0 -30.834 5.83301 -42.501 17.5s-17.5 25.834 -17.5 42.501s5.83301 30.834 17.5 42.501s25.834 17.5 42.501 17.5s30.834 -5.83301 42.501 -17.5s17.5 -25.834 17.5 -42.501s-5.83301 -30.834 -17.5 -42.501
s-25.834 -17.5 -42.501 -17.5z" />
    <glyph glyph-name="Eth" unicode="&#xd0;" horiz-adv-x="715" 
d="M115 319h-79.998v72h80v309h205c52.667 0 99.667 -7.16699 141 -21.5s76.333 -35.5 105 -63.5s50.667 -63 66 -105s23 -90.333 23 -145v-20c0 -56 -7.83301 -105.5 -23.5 -148.5s-38.334 -79 -68.001 -108s-65.834 -51 -108.501 -66s-91 -22.5 -145 -22.5h-195v319z
M300.002 82c39.333 0 74.8301 5 106.497 15s58.5 25.5 80.5 46.5s38.833 48.167 50.5 81.5s17.5 73.333 17.5 120v20c0 44.667 -5.66699 83 -17 115s-27.666 58.167 -48.999 78.5s-47.166 35.333 -77.499 45s-64.166 14.5 -101.499 14.5h-101v-227h176v-72h-176v-237h91z
" />
    <glyph glyph-name="Ntilde" unicode="&#xd1;" horiz-adv-x="760" 
d="M100 700h92l376 -545v545h92v-700h-92l-376 545v-545h-92v700zM450 760c-16 0 -30.167 2.33398 -42.5 7.00098s-23.666 9.83398 -33.999 15.501l-29.5 15.5c-9.33301 4.66699 -19 7 -29 7c-7.33301 0 -13.5 -2 -18.5 -6s-9.16699 -8.66699 -12.5 -14
c-3.33301 -6 -6.33301 -12.667 -9 -20l-65 20c4.66699 19.333 11.334 36.666 20.001 51.999c7.33301 13.333 17.5 25.5 30.5 36.5s29.5 16.5 49.5 16.5c16 0 30.167 -2.33301 42.5 -7s23.666 -9.83398 33.999 -15.501l29.5 -15.5c9.33301 -4.66699 19 -7 29 -7
c7.33301 0 13.5 2 18.5 6s9.16699 8.66699 12.5 14c3.33301 6 6.33301 12.667 9 20l65 -20c-4.66699 -20 -11.334 -37.667 -20.001 -53c-7.33301 -13.333 -17.5 -25.333 -30.5 -36s-29.5 -16 -49.5 -16z" />
    <glyph glyph-name="Ograve" unicode="&#xd2;" horiz-adv-x="740" 
d="M370 -10c-40 0 -78.667 6.83301 -116 20.5s-70.333 34.834 -99 63.501s-51.667 65.334 -69 110.001s-26 98.334 -26 161.001v20c0 60 8.66699 111.667 26 155s40.333 79.166 69 107.499s61.667 49.166 99 62.499s76 20 116 20s78.667 -6.66699 116 -20
s70.333 -34.166 99 -62.499s51.667 -64.166 69 -107.499s26 -95 26 -155v-20c0 -62.667 -8.66699 -116.334 -26 -161.001s-40.333 -81.334 -69 -110.001s-61.667 -49.834 -99 -63.501s-76 -20.5 -116 -20.5zM370 74c27.333 0 53.666 5 78.999 15s47.666 25.833 66.999 47.5
s34.833 49.667 46.5 84s17.5 75.833 17.5 124.5v20c0 46 -5.83301 85.5 -17.5 118.5s-27.167 60 -46.5 81s-41.666 36.5 -66.999 46.5s-51.666 15 -78.999 15s-53.666 -5 -78.999 -15s-47.666 -25.5 -66.999 -46.5s-34.833 -48 -46.5 -81s-17.5 -72.5 -17.5 -118.5v-20
c0 -48.667 5.83301 -90.167 17.5 -124.5s27.167 -62.333 46.5 -84s41.666 -37.5 66.999 -47.5s51.666 -15 78.999 -15zM180 900h119l111 -150h-80z" />
    <glyph glyph-name="Oacute" unicode="&#xd3;" horiz-adv-x="740" 
d="M370 -10c-40 0 -78.667 6.83301 -116 20.5s-70.333 34.834 -99 63.501s-51.667 65.334 -69 110.001s-26 98.334 -26 161.001v20c0 60 8.66699 111.667 26 155s40.333 79.166 69 107.499s61.667 49.166 99 62.499s76 20 116 20s78.667 -6.66699 116 -20
s70.333 -34.166 99 -62.499s51.667 -64.166 69 -107.499s26 -95 26 -155v-20c0 -62.667 -8.66699 -116.334 -26 -161.001s-40.333 -81.334 -69 -110.001s-61.667 -49.834 -99 -63.501s-76 -20.5 -116 -20.5zM370 74c27.333 0 53.666 5 78.999 15s47.666 25.833 66.999 47.5
s34.833 49.667 46.5 84s17.5 75.833 17.5 124.5v20c0 46 -5.83301 85.5 -17.5 118.5s-27.167 60 -46.5 81s-41.666 36.5 -66.999 46.5s-51.666 15 -78.999 15s-53.666 -5 -78.999 -15s-47.666 -25.5 -66.999 -46.5s-34.833 -48 -46.5 -81s-17.5 -72.5 -17.5 -118.5v-20
c0 -48.667 5.83301 -90.167 17.5 -124.5s27.167 -62.333 46.5 -84s41.666 -37.5 66.999 -47.5s51.666 -15 78.999 -15zM440 900h120l-150 -150h-80z" />
    <glyph glyph-name="Ocircumflex" unicode="&#xd4;" horiz-adv-x="740" 
d="M370 -10c-40 0 -78.667 6.83301 -116 20.5s-70.333 34.834 -99 63.501s-51.667 65.334 -69 110.001s-26 98.334 -26 161.001v20c0 60 8.66699 111.667 26 155s40.333 79.166 69 107.499s61.667 49.166 99 62.499s76 20 116 20s78.667 -6.66699 116 -20
s70.333 -34.166 99 -62.499s51.667 -64.166 69 -107.499s26 -95 26 -155v-20c0 -62.667 -8.66699 -116.334 -26 -161.001s-40.333 -81.334 -69 -110.001s-61.667 -49.834 -99 -63.501s-76 -20.5 -116 -20.5zM370 74c27.333 0 53.666 5 78.999 15s47.666 25.833 66.999 47.5
s34.833 49.667 46.5 84s17.5 75.833 17.5 124.5v20c0 46 -5.83301 85.5 -17.5 118.5s-27.167 60 -46.5 81s-41.666 36.5 -66.999 46.5s-51.666 15 -78.999 15s-53.666 -5 -78.999 -15s-47.666 -25.5 -66.999 -46.5s-34.833 -48 -46.5 -81s-17.5 -72.5 -17.5 -118.5v-20
c0 -48.667 5.83301 -90.167 17.5 -124.5s27.167 -62.333 46.5 -84s41.666 -37.5 66.999 -47.5s51.666 -15 78.999 -15zM320 900h99l111 -150h-80l-80 80l-80 -80h-80z" />
    <glyph glyph-name="Otilde" unicode="&#xd5;" horiz-adv-x="740" 
d="M370 -10c-40 0 -78.667 6.83301 -116 20.5s-70.333 34.834 -99 63.501s-51.667 65.334 -69 110.001s-26 98.334 -26 161.001v20c0 60 8.66699 111.667 26 155s40.333 79.166 69 107.499s61.667 49.166 99 62.499s76 20 116 20s78.667 -6.66699 116 -20
s70.333 -34.166 99 -62.499s51.667 -64.166 69 -107.499s26 -95 26 -155v-20c0 -62.667 -8.66699 -116.334 -26 -161.001s-40.333 -81.334 -69 -110.001s-61.667 -49.834 -99 -63.501s-76 -20.5 -116 -20.5zM370 74c27.333 0 53.666 5 78.999 15s47.666 25.833 66.999 47.5
s34.833 49.667 46.5 84s17.5 75.833 17.5 124.5v20c0 46 -5.83301 85.5 -17.5 118.5s-27.167 60 -46.5 81s-41.666 36.5 -66.999 46.5s-51.666 15 -78.999 15s-53.666 -5 -78.999 -15s-47.666 -25.5 -66.999 -46.5s-34.833 -48 -46.5 -81s-17.5 -72.5 -17.5 -118.5v-20
c0 -48.667 5.83301 -90.167 17.5 -124.5s27.167 -62.333 46.5 -84s41.666 -37.5 66.999 -47.5s51.666 -15 78.999 -15zM440 760c-16 0 -30.167 2.33398 -42.5 7.00098s-23.666 9.83398 -33.999 15.501l-29.5 15.5c-9.33301 4.66699 -19 7 -29 7
c-7.33301 0 -13.5 -2 -18.5 -6s-9.16699 -8.66699 -12.5 -14c-3.33301 -6 -6.33301 -12.667 -9 -20l-65 20c4.66699 19.333 11.334 36.666 20.001 51.999c7.33301 13.333 17.5 25.5 30.5 36.5s29.5 16.5 49.5 16.5c16 0 30.167 -2.33301 42.5 -7
s23.666 -9.83398 33.999 -15.501l29.5 -15.5c9.33301 -4.66699 19 -7 29 -7c7.33301 0 13.5 2 18.5 6s9.16699 8.66699 12.5 14c3.33301 6 6.33301 12.667 9 20l65 -20c-4.66699 -20 -11.334 -37.667 -20.001 -53c-7.33301 -13.333 -17.5 -25.333 -30.5 -36
s-29.5 -16 -49.5 -16z" />
    <glyph glyph-name="Odieresis" unicode="&#xd6;" horiz-adv-x="740" 
d="M370 -10c-40 0 -78.667 6.83301 -116 20.5s-70.333 34.834 -99 63.501s-51.667 65.334 -69 110.001s-26 98.334 -26 161.001v20c0 60 8.66699 111.667 26 155s40.333 79.166 69 107.499s61.667 49.166 99 62.499s76 20 116 20s78.667 -6.66699 116 -20
s70.333 -34.166 99 -62.499s51.667 -64.166 69 -107.499s26 -95 26 -155v-20c0 -62.667 -8.66699 -116.334 -26 -161.001s-40.333 -81.334 -69 -110.001s-61.667 -49.834 -99 -63.501s-76 -20.5 -116 -20.5zM370 74c27.333 0 53.666 5 78.999 15s47.666 25.833 66.999 47.5
s34.833 49.667 46.5 84s17.5 75.833 17.5 124.5v20c0 46 -5.83301 85.5 -17.5 118.5s-27.167 60 -46.5 81s-41.666 36.5 -66.999 46.5s-51.666 15 -78.999 15s-53.666 -5 -78.999 -15s-47.666 -25.5 -66.999 -46.5s-34.833 -48 -46.5 -81s-17.5 -72.5 -17.5 -118.5v-20
c0 -48.667 5.83301 -90.167 17.5 -124.5s27.167 -62.333 46.5 -84s41.666 -37.5 66.999 -47.5s51.666 -15 78.999 -15zM260 765c-16.667 0 -30.834 5.83301 -42.501 17.5s-17.5 25.834 -17.5 42.501s5.83301 30.834 17.5 42.501s25.834 17.5 42.501 17.5
s30.834 -5.83301 42.501 -17.5s17.5 -25.834 17.5 -42.501s-5.83301 -30.834 -17.5 -42.501s-25.834 -17.5 -42.501 -17.5zM480 765c-16.667 0 -30.834 5.83301 -42.501 17.5s-17.5 25.834 -17.5 42.501s5.83301 30.834 17.5 42.501s25.834 17.5 42.501 17.5
s30.834 -5.83301 42.501 -17.5s17.5 -25.834 17.5 -42.501s-5.83301 -30.834 -17.5 -42.501s-25.834 -17.5 -42.501 -17.5z" />
    <glyph glyph-name="multiply" unicode="&#xd7;" horiz-adv-x="550" 
d="M75 219l141 141l-141 141l59 59l141 -141l141 141l59 -59l-141 -141l141 -141l-59 -59l-141 141l-141 -141z" />
    <glyph glyph-name="Oslash" unicode="&#xd8;" horiz-adv-x="740" 
d="M370 -10c-35.333 0 -69.333 5.17188 -102 15.5049s-63 26.166 -91 47.499l-50 -63l-52 42l55 70c-21.333 28.667 -38.333 62.834 -51 102.501s-19 86.5 -19 140.5v20c0 60 8.66699 111.667 26 155s40.333 79.166 69 107.499s61.667 49.166 99 62.499s76 20 116 20
c35.333 0 69.333 -5.16699 102 -15.5s63 -26.166 91 -47.499l50 63l52 -42l-55 -69c21.333 -28 38.333 -61.333 51 -100s19 -83.334 19 -134.001v-20c0 -62.667 -8.66699 -116.334 -26 -161.001s-40.333 -81.334 -69 -110.001s-61.667 -49.834 -99 -63.501
s-76 -20.5 -116 -20.5zM370 74.0049c27.333 0 53.6689 4.99902 79.002 14.999s47.666 25.833 66.999 47.5s34.833 49.667 46.5 84s17.5 75.833 17.5 124.5v20c0 32 -2.83301 60.833 -8.5 86.5s-13.834 48.5 -24.501 68.5l-313 -395
c19.333 -17.333 40.5 -30.166 63.5 -38.499s47.167 -12.5 72.5 -12.5zM370.003 626.004c-27.333 0 -53.6689 -4.99902 -79.002 -14.999s-47.666 -25.5 -66.999 -46.5s-34.833 -48 -46.5 -81s-17.5 -72.5 -17.5 -118.5v-20c0 -34.667 2.83301 -65.5 8.5 -92.5
s13.834 -50.833 24.501 -71.5l313 394c-19.333 17.333 -40.5 30.166 -63.5 38.499s-47.167 12.5 -72.5 12.5z" />
    <glyph glyph-name="Ugrave" unicode="&#xd9;" horiz-adv-x="730" 
d="M365 -10c-42 0 -79.833 6 -113.5 18s-62.5 30.333 -86.5 55s-42.5 55.834 -55.5 93.501s-19.5 82.167 -19.5 133.5v410h94v-410c0 -76 16 -131 48 -165s76.333 -51 133 -51s101 17 133 51s48 89 48 165v410h94v-410c0 -51.333 -6.5 -95.833 -19.5 -133.5
s-31.5 -68.834 -55.5 -93.501s-52.833 -43 -86.5 -55s-71.5 -18 -113.5 -18zM175 900h119l111 -150h-80z" />
    <glyph glyph-name="Uacute" unicode="&#xda;" horiz-adv-x="730" 
d="M365 -10c-42 0 -79.833 6 -113.5 18s-62.5 30.333 -86.5 55s-42.5 55.834 -55.5 93.501s-19.5 82.167 -19.5 133.5v410h94v-410c0 -76 16 -131 48 -165s76.333 -51 133 -51s101 17 133 51s48 89 48 165v410h94v-410c0 -51.333 -6.5 -95.833 -19.5 -133.5
s-31.5 -68.834 -55.5 -93.501s-52.833 -43 -86.5 -55s-71.5 -18 -113.5 -18zM435 900h120l-150 -150h-80z" />
    <glyph glyph-name="Ucircumflex" unicode="&#xdb;" horiz-adv-x="730" 
d="M365 -10c-42 0 -79.833 6 -113.5 18s-62.5 30.333 -86.5 55s-42.5 55.834 -55.5 93.501s-19.5 82.167 -19.5 133.5v410h94v-410c0 -76 16 -131 48 -165s76.333 -51 133 -51s101 17 133 51s48 89 48 165v410h94v-410c0 -51.333 -6.5 -95.833 -19.5 -133.5
s-31.5 -68.834 -55.5 -93.501s-52.833 -43 -86.5 -55s-71.5 -18 -113.5 -18zM315 900h99l111 -150h-80l-80 80l-80 -80h-80z" />
    <glyph glyph-name="Udieresis" unicode="&#xdc;" horiz-adv-x="730" 
d="M365 -10c-42 0 -79.833 6 -113.5 18s-62.5 30.333 -86.5 55s-42.5 55.834 -55.5 93.501s-19.5 82.167 -19.5 133.5v410h94v-410c0 -76 16 -131 48 -165s76.333 -51 133 -51s101 17 133 51s48 89 48 165v410h94v-410c0 -51.333 -6.5 -95.833 -19.5 -133.5
s-31.5 -68.834 -55.5 -93.501s-52.833 -43 -86.5 -55s-71.5 -18 -113.5 -18zM255 765c-16.667 0 -30.834 5.83301 -42.501 17.5s-17.5 25.834 -17.5 42.501s5.83301 30.834 17.5 42.501s25.834 17.5 42.501 17.5s30.834 -5.83301 42.501 -17.5s17.5 -25.834 17.5 -42.501
s-5.83301 -30.834 -17.5 -42.501s-25.834 -17.5 -42.501 -17.5zM475 765c-16.667 0 -30.834 5.83301 -42.501 17.5s-17.5 25.834 -17.5 42.501s5.83301 30.834 17.5 42.501s25.834 17.5 42.501 17.5s30.834 -5.83301 42.501 -17.5s17.5 -25.834 17.5 -42.501
s-5.83301 -30.834 -17.5 -42.501s-25.834 -17.5 -42.501 -17.5z" />
    <glyph glyph-name="Yacute" unicode="&#xdd;" horiz-adv-x="640" 
d="M283 277l-273 423h108l211 -326l197 326h104l-253 -423v-277h-94v277zM392 900h120l-150 -150h-80z" />
    <glyph glyph-name="Thorn" unicode="&#xde;" horiz-adv-x="655" 
d="M100 700l94 -0.00195312v-125h146c46 0 86 -5.33301 120 -16s62.167 -25.5 84.5 -44.5s38.833 -41.667 49.5 -68s16 -55.166 16 -86.499s-5.33301 -60.166 -16 -86.499s-27.167 -49 -49.5 -68s-50.5 -33.833 -84.5 -44.5s-74 -16 -120 -16h-146v-145h-94v700z
M335 226.998c33.333 0 61.5 3.16895 84.5 9.50195s41.667 15.166 56 26.499s24.666 25.333 30.999 42s9.5 35 9.5 55s-3.16699 38.333 -9.5 55s-16.666 30.667 -30.999 42s-33 20.166 -56 26.499s-51.167 9.5 -84.5 9.5h-141v-266h141z" />
    <glyph glyph-name="germandbls" unicode="&#xdf;" horiz-adv-x="580" 
d="M80 485c0 35.333 5 67.002 15 95.002s24.167 51.667 42.5 71s40.333 34 66 44s54.5 15 86.5 15c31.333 0 59.333 -4.5 84 -13.5s45.667 -21.167 63 -36.5s30.5 -33.833 39.5 -55.5s13.5 -44.834 13.5 -69.501c0 -34 -8.66699 -64.333 -26 -91s-42 -45.667 -74 -57
c25.333 -4 47 -11.667 65 -23s32.5 -25 43.5 -41s19 -33.333 24 -52s7.5 -37.334 7.5 -56.001v-9c0 -70 -18.667 -122.667 -56 -158s-97 -53 -179 -53c-7.33301 0 -15.666 0.166992 -24.999 0.5s-17.666 1.16602 -24.999 2.49902v80
c7.33301 -1.33301 15.666 -2.16602 24.999 -2.49902s17.666 -0.5 24.999 -0.5c50.667 0 87.834 11.333 111.501 34s35.5 55 35.5 97v9c0 42 -11.833 74.167 -35.5 96.5s-60.834 33.5 -111.501 33.5h-20v70h15c36 0 63.667 9.5 83 28.5s29 45.5 29 79.5
c0 33.333 -9.66699 59.5 -29 78.5s-47 28.5 -83 28.5s-65.333 -12.333 -88 -37s-34 -60.667 -34 -108v-485h-88v485z" />
    <glyph glyph-name="agrave" unicode="&#xe0;" horiz-adv-x="565" 
d="M231 -10c-29.333 0 -55.168 4.16992 -77.501 12.5029s-41.166 19.833 -56.499 34.5s-27 32 -35 52s-12 42 -12 66c0 52.667 15.5 90.667 46.5 114s75.5 35 133.5 35h172v36c0 45.333 -10.167 76.666 -30.5 93.999s-50.833 26 -91.5 26c-38 0 -65.667 -7.16699 -83 -21.5
s-27 -30.5 -29 -48.5h-88c1.33301 21.333 7.16602 41.166 17.499 59.499s24.333 34.166 42 47.499s38.834 23.833 63.501 31.5s52 11.5 82 11.5c62.667 0 112.5 -14.833 149.5 -44.5s55.5 -78.167 55.5 -145.5v-215c0 -28 0.166992 -52.5 0.5 -73.5s1.83301 -41.5 4.5 -61.5
h-77c-2 15.333 -3.33301 29.833 -4 43.5s-1 29.167 -1 46.5c-14 -28 -36.667 -51.667 -68 -71s-69.333 -29 -114 -29zM249.998 70.0029c20.667 0 40.168 2.83301 58.501 8.5s34.5 14 48.5 25s25 24.5 33 40.5s12 34.667 12 56v36h-157c-32.667 0 -58.334 -6.5 -77.001 -19.5
s-28 -33.5 -28 -61.5c0 -24.667 8.83301 -45 26.5 -61s45.5 -24 83.5 -24zM99.999 740.003h110l110 -160h-70z" />
    <glyph glyph-name="aacute" unicode="&#xe1;" horiz-adv-x="565" 
d="M231 -10c-29.333 0 -55.168 4.16992 -77.501 12.5029s-41.166 19.833 -56.499 34.5s-27 32 -35 52s-12 42 -12 66c0 52.667 15.5 90.667 46.5 114s75.5 35 133.5 35h172v36c0 45.333 -10.167 76.666 -30.5 93.999s-50.833 26 -91.5 26c-38 0 -65.667 -7.16699 -83 -21.5
s-27 -30.5 -29 -48.5h-88c1.33301 21.333 7.16602 41.166 17.499 59.499s24.333 34.166 42 47.499s38.834 23.833 63.501 31.5s52 11.5 82 11.5c62.667 0 112.5 -14.833 149.5 -44.5s55.5 -78.167 55.5 -145.5v-215c0 -28 0.166992 -52.5 0.5 -73.5s1.83301 -41.5 4.5 -61.5
h-77c-2 15.333 -3.33301 29.833 -4 43.5s-1 29.167 -1 46.5c-14 -28 -36.667 -51.667 -68 -71s-69.333 -29 -114 -29zM249.998 70.0029c20.667 0 40.168 2.83301 58.501 8.5s34.5 14 48.5 25s25 24.5 33 40.5s12 34.667 12 56v36h-157c-32.667 0 -58.334 -6.5 -77.001 -19.5
s-28 -33.5 -28 -61.5c0 -24.667 8.83301 -45 26.5 -61s45.5 -24 83.5 -24zM359.999 740.003h110l-150 -160h-70z" />
    <glyph glyph-name="acircumflex" unicode="&#xe2;" horiz-adv-x="565" 
d="M231 -10c-29.333 0 -55.168 4.16992 -77.501 12.5029s-41.166 19.833 -56.499 34.5s-27 32 -35 52s-12 42 -12 66c0 52.667 15.5 90.667 46.5 114s75.5 35 133.5 35h172v36c0 45.333 -10.167 76.666 -30.5 93.999s-50.833 26 -91.5 26c-38 0 -65.667 -7.16699 -83 -21.5
s-27 -30.5 -29 -48.5h-88c1.33301 21.333 7.16602 41.166 17.499 59.499s24.333 34.166 42 47.499s38.834 23.833 63.501 31.5s52 11.5 82 11.5c62.667 0 112.5 -14.833 149.5 -44.5s55.5 -78.167 55.5 -145.5v-215c0 -28 0.166992 -52.5 0.5 -73.5s1.83301 -41.5 4.5 -61.5
h-77c-2 15.333 -3.33301 29.833 -4 43.5s-1 29.167 -1 46.5c-14 -28 -36.667 -51.667 -68 -71s-69.333 -29 -114 -29zM249.998 70.0029c20.667 0 40.168 2.83301 58.501 8.5s34.5 14 48.5 25s25 24.5 33 40.5s12 34.667 12 56v36h-157c-32.667 0 -58.334 -6.5 -77.001 -19.5
s-28 -33.5 -28 -61.5c0 -24.667 8.83301 -45 26.5 -61s45.5 -24 83.5 -24zM239.999 740.003h90l110 -160h-70l-85 91l-85 -91h-70z" />
    <glyph glyph-name="atilde" unicode="&#xe3;" horiz-adv-x="565" 
d="M231 -10c-29.333 0 -55.168 4.16992 -77.501 12.5029s-41.166 19.833 -56.499 34.5s-27 32 -35 52s-12 42 -12 66c0 52.667 15.5 90.667 46.5 114s75.5 35 133.5 35h172v36c0 45.333 -10.167 76.666 -30.5 93.999s-50.833 26 -91.5 26c-38 0 -65.667 -7.16699 -83 -21.5
s-27 -30.5 -29 -48.5h-88c1.33301 21.333 7.16602 41.166 17.499 59.499s24.333 34.166 42 47.499s38.834 23.833 63.501 31.5s52 11.5 82 11.5c62.667 0 112.5 -14.833 149.5 -44.5s55.5 -78.167 55.5 -145.5v-215c0 -28 0.166992 -52.5 0.5 -73.5s1.83301 -41.5 4.5 -61.5
h-77c-2 15.333 -3.33301 29.833 -4 43.5s-1 29.167 -1 46.5c-14 -28 -36.667 -51.667 -68 -71s-69.333 -29 -114 -29zM249.998 70.0029c20.667 0 40.168 2.83301 58.501 8.5s34.5 14 48.5 25s25 24.5 33 40.5s12 34.667 12 56v36h-157c-32.667 0 -58.334 -6.5 -77.001 -19.5
s-28 -33.5 -28 -61.5c0 -24.667 8.83301 -45 26.5 -61s45.5 -24 83.5 -24zM342.999 600.003c-15.333 0 -28.4971 2.33203 -39.4971 6.99902s-21 10 -30 16s-17.5 11.333 -25.5 16s-16.333 7 -25 7c-7.33301 0 -13.333 -2.16699 -18 -6.5s-8.33398 -9.16602 -11.001 -14.499
c-2.66699 -6 -4.66699 -12.667 -6 -20l-55 15c4 18.667 9.66699 35.334 17 50.001c6.66699 12.667 15.667 24.167 27 34.5s26.666 15.5 45.999 15.5c14.667 0 27.667 -2.33301 39 -7s21.5 -10 30.5 -16s17.5 -11.333 25.5 -16s16.333 -7 25 -7c7.33301 0 13.333 2 18 6
s8.33398 8.66699 11.001 14c2.66699 6 4.66699 13 6 21l55 -15c-4 -18.667 -9.66699 -35.334 -17 -50.001c-6.66699 -12.667 -15.834 -24.167 -27.501 -34.5s-26.834 -15.5 -45.501 -15.5z" />
    <glyph glyph-name="adieresis" unicode="&#xe4;" horiz-adv-x="565" 
d="M231 -10c-29.333 0 -55.168 4.16992 -77.501 12.5029s-41.166 19.833 -56.499 34.5s-27 32 -35 52s-12 42 -12 66c0 52.667 15.5 90.667 46.5 114s75.5 35 133.5 35h172v36c0 45.333 -10.167 76.666 -30.5 93.999s-50.833 26 -91.5 26c-38 0 -65.667 -7.16699 -83 -21.5
s-27 -30.5 -29 -48.5h-88c1.33301 21.333 7.16602 41.166 17.499 59.499s24.333 34.166 42 47.499s38.834 23.833 63.501 31.5s52 11.5 82 11.5c62.667 0 112.5 -14.833 149.5 -44.5s55.5 -78.167 55.5 -145.5v-215c0 -28 0.166992 -52.5 0.5 -73.5s1.83301 -41.5 4.5 -61.5
h-77c-2 15.333 -3.33301 29.833 -4 43.5s-1 29.167 -1 46.5c-14 -28 -36.667 -51.667 -68 -71s-69.333 -29 -114 -29zM249.998 70.0029c20.667 0 40.168 2.83301 58.501 8.5s34.5 14 48.5 25s25 24.5 33 40.5s12 34.667 12 56v36h-157c-32.667 0 -58.334 -6.5 -77.001 -19.5
s-28 -33.5 -28 -61.5c0 -24.667 8.83301 -45 26.5 -61s45.5 -24 83.5 -24zM182.999 602.003c-16 0 -29.667 5.66699 -41 17s-17 25 -17 41s5.66699 29.667 17 41s25 17 41 17s29.667 -5.66699 41 -17s17 -25 17 -41s-5.66699 -29.667 -17 -41s-25 -17 -41 -17z
M386.999 602.003c-16 0 -29.667 5.66699 -41 17s-17 25 -17 41s5.66699 29.667 17 41s25 17 41 17s29.667 -5.66699 41 -17s17 -25 17 -41s-5.66699 -29.667 -17 -41s-25 -17 -41 -17z" />
    <glyph glyph-name="aring" unicode="&#xe5;" horiz-adv-x="565" 
d="M231 -10c-29.333 0 -55.168 4.16992 -77.501 12.5029s-41.166 19.833 -56.499 34.5s-27 32 -35 52s-12 42 -12 66c0 52.667 15.5 90.667 46.5 114s75.5 35 133.5 35h172v36c0 45.333 -10.167 76.666 -30.5 93.999s-50.833 26 -91.5 26c-38 0 -65.667 -7.16699 -83 -21.5
s-27 -30.5 -29 -48.5h-88c1.33301 21.333 7.16602 41.166 17.499 59.499s24.333 34.166 42 47.499s38.834 23.833 63.501 31.5s52 11.5 82 11.5c62.667 0 112.5 -14.833 149.5 -44.5s55.5 -78.167 55.5 -145.5v-215c0 -28 0.166992 -52.5 0.5 -73.5s1.83301 -41.5 4.5 -61.5
h-77c-2 15.333 -3.33301 29.833 -4 43.5s-1 29.167 -1 46.5c-14 -28 -36.667 -51.667 -68 -71s-69.333 -29 -114 -29zM249.998 70.0029c20.667 0 40.168 2.83301 58.501 8.5s34.5 14 48.5 25s25 24.5 33 40.5s12 34.667 12 56v36h-157c-32.667 0 -58.334 -6.5 -77.001 -19.5
s-28 -33.5 -28 -61.5c0 -24.667 8.83301 -45 26.5 -61s45.5 -24 83.5 -24zM284.999 575.003c-16 0 -31 2.66699 -45 8s-26.167 12.666 -36.5 21.999s-18.5 20.333 -24.5 33s-9 26.667 -9 42c0 14.667 3 28.5 9 41.5s14.167 24.167 24.5 33.5s22.5 16.666 36.5 21.999
s29 8 45 8s31 -2.66699 45 -8s26.167 -12.666 36.5 -21.999s18.5 -20.5 24.5 -33.5s9 -26.833 9 -41.5c0 -15.333 -3 -29.333 -9 -42s-14.167 -23.667 -24.5 -33s-22.5 -16.666 -36.5 -21.999s-29 -8 -45 -8zM284.999 633.003c14 0 25.333 4.33301 34 13s13 20 13 34
s-4.33301 25.333 -13 34s-20 13 -34 13s-25.333 -4.33301 -34 -13s-13 -20 -13 -34s4.33301 -25.333 13 -34s20 -13 34 -13z" />
    <glyph glyph-name="ae" unicode="&#xe6;" horiz-adv-x="935" 
d="M241 -10c-31.333 0 -58.998 4.1709 -82.998 12.5039s-44 19.833 -60 34.5s-28 32 -36 52s-12 42 -12 66c0 54.667 15.833 94 47.5 118s75.5 36 131.5 36h173v31c0 45.333 -10.167 76.666 -30.5 93.999s-50.833 26 -91.5 26c-38 0 -65.667 -7.16699 -83 -21.5
s-27 -30.5 -29 -48.5h-88c1.33301 21.333 7.16602 41.166 17.499 59.499s24.333 34.166 42 47.499s38.5 23.833 62.5 31.5s50 11.5 78 11.5c44 0 82.167 -7.5 114.5 -22.5s56.166 -37.5 71.499 -67.5c20 31.333 44.333 54.166 73 68.499s64 21.5 106 21.5
c78 0 138.333 -21.333 181 -64s64 -103 64 -181v-54h-402c0 -31.333 5 -58 15 -80s23 -39.667 39 -53s33.833 -23 53.5 -29s39.5 -9 59.5 -9c40 0 70.833 6.66699 92.5 20s37.167 31.666 46.5 54.999h86c-5.33301 -25.333 -14.833 -47.666 -28.5 -66.999
s-30.334 -35.5 -50.001 -48.5s-42 -22.833 -67 -29.5s-51.5 -10 -79.5 -10c-42.667 0 -82.167 9.66699 -118.5 29s-65.166 48 -86.499 86c-19.333 -35.333 -45.5 -63.333 -78.5 -84s-76.5 -31 -130.5 -31zM251.002 70.0039c20 0 39.167 2.83301 57.5 8.5s34.5 14 48.5 25
s25 24.5 33 40.5s12 34.667 12 56v41h-156c-33.333 0 -59.333 -7 -78 -21s-28 -35.667 -28 -65c0 -24.667 9 -45 27 -61s46 -24 84 -24zM650.002 460.004c-20.667 0 -40.667 -3 -60 -9s-36.5 -15.167 -51.5 -27.5s-27.167 -28 -36.5 -47s-14 -41.5 -14 -67.5h319
c-0.666992 27.333 -5.16699 50.5 -13.5 69.5s-19.5 34.5 -33.5 46.5s-30.5 20.833 -49.5 26.5s-39.167 8.5 -60.5 8.5z" />
    <glyph glyph-name="ccedilla" unicode="&#xe7;" horiz-adv-x="545" 
d="M285 -10c-34 0 -65.6689 5.49805 -95.002 16.498s-54.666 27.667 -75.999 50s-38.166 50.5 -50.499 84.5s-18.5 73.667 -18.5 119v20c0 42.667 6.66699 80.334 20 113.001s31 59.834 53 81.501s47.5 38 76.5 49s59.167 16.5 90.5 16.5s59.5 -4.33301 84.5 -13
s46.667 -20.667 65 -36s33.333 -33.333 45 -54s20.167 -43 25.5 -67h-90c-5.33301 12.667 -11.5 24.5 -18.5 35.5s-15.667 20.5 -26 28.5s-22.5 14.333 -36.5 19s-30.333 7 -49 7c-19.333 0 -38 -3.5 -56 -10.5s-34 -17.667 -48 -32s-25.167 -32.833 -33.5 -55.5
s-12.5 -50 -12.5 -82v-20c0 -34 4.16699 -63.167 12.5 -87.5s19.5 -44 33.5 -59s30 -26 48 -33s36.667 -10.5 56 -10.5c32.667 0 60.167 8 82.5 24s38.166 38 47.499 66h90c-12.667 -52.667 -38.667 -94.167 -78 -124.5s-86.666 -45.5 -141.999 -45.5zM254.998 -210.002
c-16.667 0 -30.335 1.00098 -41.002 3.00098c-6.66699 0.666992 -13 1.66699 -19 3v60c4 -0.666992 8.66699 -1.33398 14 -2.00098c4.66699 -0.666992 10 -1.16699 16 -1.5s12.667 -0.5 20 -0.5c18.667 0 32 3.5 40 10.5s12 15.167 12 24.5c0 8 -3.33301 15.667 -10 23
s-22.334 11 -47.001 11l17 89h60l-7 -48c13.333 -3.33301 24.333 -7.83301 33 -13.5s15.334 -12 20.001 -19s7.83398 -14.333 9.50098 -22s2.5 -15.167 2.5 -22.5c0 -28.667 -9.66699 -51.667 -29 -69s-49.666 -26 -90.999 -26z" />
    <glyph glyph-name="egrave" unicode="&#xe8;" horiz-adv-x="580" 
d="M300 -10c-34 0 -66.332 5.33008 -96.999 15.9971s-57.667 27.167 -81 49.5s-42 50.5 -56 84.5s-21 74 -21 120v20c0 44 6.66699 82.167 20 114.5s31.166 59.333 53.499 81s48.333 37.834 78 48.501s60.834 16 93.501 16c78 0 138.333 -21.333 181 -64s64 -103 64 -181
v-56h-402c0 -31.333 5 -57.666 15 -78.999s23 -38.666 39 -51.999s33.833 -23 53.5 -29s39.5 -9 59.5 -9c40 0 70.833 6.66699 92.5 20s37.167 31.666 46.5 54.999h86c-5.33301 -25.333 -14.833 -47.666 -28.5 -66.999s-30.334 -35.5 -50.001 -48.5s-42 -22.833 -67 -29.5
s-51.5 -10 -79.5 -10zM295.001 459.997c-20.667 0 -40.667 -2.83301 -60 -8.5s-36.5 -14.667 -51.5 -27s-27.167 -27.833 -36.5 -46.5s-14 -41 -14 -67h319c-0.666992 27.333 -5.16699 50.5 -13.5 69.5s-19.5 34.333 -33.5 46s-30.5 20.167 -49.5 25.5s-39.167 8 -60.5 8z
M105.001 739.997h110l110 -160h-70z" />
    <glyph glyph-name="eacute" unicode="&#xe9;" horiz-adv-x="580" 
d="M300 -10c-34 0 -66.332 5.33008 -96.999 15.9971s-57.667 27.167 -81 49.5s-42 50.5 -56 84.5s-21 74 -21 120v20c0 44 6.66699 82.167 20 114.5s31.166 59.333 53.499 81s48.333 37.834 78 48.501s60.834 16 93.501 16c78 0 138.333 -21.333 181 -64s64 -103 64 -181
v-56h-402c0 -31.333 5 -57.666 15 -78.999s23 -38.666 39 -51.999s33.833 -23 53.5 -29s39.5 -9 59.5 -9c40 0 70.833 6.66699 92.5 20s37.167 31.666 46.5 54.999h86c-5.33301 -25.333 -14.833 -47.666 -28.5 -66.999s-30.334 -35.5 -50.001 -48.5s-42 -22.833 -67 -29.5
s-51.5 -10 -79.5 -10zM295.001 459.997c-20.667 0 -40.667 -2.83301 -60 -8.5s-36.5 -14.667 -51.5 -27s-27.167 -27.833 -36.5 -46.5s-14 -41 -14 -67h319c-0.666992 27.333 -5.16699 50.5 -13.5 69.5s-19.5 34.333 -33.5 46s-30.5 20.167 -49.5 25.5s-39.167 8 -60.5 8z
M365.001 739.997h110l-150 -160h-70z" />
    <glyph glyph-name="ecircumflex" unicode="&#xea;" horiz-adv-x="580" 
d="M300 -10c-34 0 -66.332 5.33008 -96.999 15.9971s-57.667 27.167 -81 49.5s-42 50.5 -56 84.5s-21 74 -21 120v20c0 44 6.66699 82.167 20 114.5s31.166 59.333 53.499 81s48.333 37.834 78 48.501s60.834 16 93.501 16c78 0 138.333 -21.333 181 -64s64 -103 64 -181
v-56h-402c0 -31.333 5 -57.666 15 -78.999s23 -38.666 39 -51.999s33.833 -23 53.5 -29s39.5 -9 59.5 -9c40 0 70.833 6.66699 92.5 20s37.167 31.666 46.5 54.999h86c-5.33301 -25.333 -14.833 -47.666 -28.5 -66.999s-30.334 -35.5 -50.001 -48.5s-42 -22.833 -67 -29.5
s-51.5 -10 -79.5 -10zM295.001 459.997c-20.667 0 -40.667 -2.83301 -60 -8.5s-36.5 -14.667 -51.5 -27s-27.167 -27.833 -36.5 -46.5s-14 -41 -14 -67h319c-0.666992 27.333 -5.16699 50.5 -13.5 69.5s-19.5 34.333 -33.5 46s-30.5 20.167 -49.5 25.5s-39.167 8 -60.5 8z
M245.001 739.997h90l110 -160h-70l-85 91l-85 -91h-70z" />
    <glyph glyph-name="edieresis" unicode="&#xeb;" horiz-adv-x="580" 
d="M300 -10c-34 0 -66.332 5.33008 -96.999 15.9971s-57.667 27.167 -81 49.5s-42 50.5 -56 84.5s-21 74 -21 120v20c0 44 6.66699 82.167 20 114.5s31.166 59.333 53.499 81s48.333 37.834 78 48.501s60.834 16 93.501 16c78 0 138.333 -21.333 181 -64s64 -103 64 -181
v-56h-402c0 -31.333 5 -57.666 15 -78.999s23 -38.666 39 -51.999s33.833 -23 53.5 -29s39.5 -9 59.5 -9c40 0 70.833 6.66699 92.5 20s37.167 31.666 46.5 54.999h86c-5.33301 -25.333 -14.833 -47.666 -28.5 -66.999s-30.334 -35.5 -50.001 -48.5s-42 -22.833 -67 -29.5
s-51.5 -10 -79.5 -10zM295.001 459.997c-20.667 0 -40.667 -2.83301 -60 -8.5s-36.5 -14.667 -51.5 -27s-27.167 -27.833 -36.5 -46.5s-14 -41 -14 -67h319c-0.666992 27.333 -5.16699 50.5 -13.5 69.5s-19.5 34.333 -33.5 46s-30.5 20.167 -49.5 25.5s-39.167 8 -60.5 8z
M188.001 601.997c-16 0 -29.667 5.66699 -41 17s-17 25 -17 41s5.66699 29.667 17 41s25 17 41 17s29.667 -5.66699 41 -17s17 -25 17 -41s-5.66699 -29.667 -17 -41s-25 -17 -41 -17zM392.001 601.997c-16 0 -29.667 5.66699 -41 17s-17 25 -17 41s5.66699 29.667 17 41
s25 17 41 17s29.667 -5.66699 41 -17s17 -25 17 -41s-5.66699 -29.667 -17 -41s-25 -17 -41 -17z" />
    <glyph glyph-name="igrave" unicode="&#xec;" horiz-adv-x="268" 
d="M90 530h88v-530h-88v530zM-50 740h110l110 -160h-70z" />
    <glyph glyph-name="iacute" unicode="&#xed;" horiz-adv-x="268" 
d="M90 530h88v-530h-88v530zM209 740h110l-150 -160h-70z" />
    <glyph glyph-name="icircumflex" unicode="&#xee;" horiz-adv-x="268" 
d="M90 530h88v-530h-88v530zM90 740h90l110 -160h-70l-85 91l-85 -91h-70z" />
    <glyph glyph-name="idieresis" unicode="&#xef;" horiz-adv-x="268" 
d="M90 530h88v-530h-88v530zM33 602c-16 0 -29.667 5.66699 -41 17s-17 25 -17 41s5.66699 29.667 17 41s25 17 41 17s29.667 -5.66699 41 -17s17 -25 17 -41s-5.66699 -29.667 -17 -41s-25 -17 -41 -17zM237 602c-16 0 -29.667 5.66699 -41 17s-17 25 -17 41
s5.66699 29.667 17 41s25 17 41 17s29.667 -5.66699 41 -17s17 -25 17 -41s-5.66699 -29.667 -17 -41s-25 -17 -41 -17z" />
    <glyph glyph-name="eth" unicode="&#xf0;" horiz-adv-x="600" 
d="M305 -10c-34 0 -66.333 5.50391 -97 16.5039s-57.667 27.333 -81 49s-42 48.667 -56 81s-21 70.166 -21 113.499v20c0 40.667 6.83301 76.5 20.5 107.5s31.667 57 54 78s47.5 37 75.5 48s56.333 16.5 85 16.5c36 0 68 -5.66699 96 -17s51.667 -29 71 -53
c-15.333 43.333 -36.333 78.166 -63 104.499s-60.667 49.166 -102 68.499l-26 -49l-46 21l25 47c-11.333 4.66699 -22.833 9 -34.5 13l-37.5 13l22 74l45 -15.5c14.667 -5 28.667 -10.167 42 -15.5l25 47l46 -21l-25 -47c44 -21.333 81.167 -45.333 111.5 -72
s54.833 -56.5 73.5 -89.5s32 -69.333 40 -109s12 -82.834 12 -129.501v-20c0 -48 -7 -89.667 -21 -125s-32.667 -64.5 -56 -87.5s-50.333 -40 -81 -51s-63 -16.5 -97 -16.5zM305 70.0039c20 0 40 3.33301 60 10s37.667 17.334 53 32.001s27.833 33.334 37.5 56.001
s14.5 50 14.5 82v20c0 29.333 -4.83301 54.666 -14.5 75.999s-22.167 39 -37.5 53s-33 24.333 -53 31s-40 10 -60 10s-40 -3.33301 -60 -10s-37.667 -17 -53 -31s-27.833 -31.667 -37.5 -53s-14.5 -46.666 -14.5 -75.999v-20c0 -32 4.83301 -59.333 14.5 -82
s22.167 -41.334 37.5 -56.001s33 -25.334 53 -32.001s40 -10 60 -10z" />
    <glyph glyph-name="ntilde" unicode="&#xf1;" horiz-adv-x="615" 
d="M80 530l82.001 0.00195312v-100c6 14.667 14.333 28.667 25 42s23.5 25 38.5 35s32.333 18 52 24s41.5 9 65.5 9c66.667 0 116.167 -17.833 148.5 -53.5s48.5 -87.834 48.5 -156.501v-330h-88v310c0 49.333 -10.333 86.666 -31 111.999s-55.334 38 -104.001 38
c-26 0 -48.5 -4.33301 -67.5 -13s-34.5 -20 -46.5 -34s-20.833 -30 -26.5 -48s-8.5 -36.333 -8.5 -55v-310h-88v530zM370.001 600.002c-15.333 0 -28.4971 2.33203 -39.4971 6.99902s-21 10 -30 16s-17.5 11.333 -25.5 16s-16.333 7 -25 7
c-7.33301 0 -13.333 -2.16699 -18 -6.5s-8.33398 -9.16602 -11.001 -14.499c-2.66699 -6 -4.66699 -12.667 -6 -20l-55 15c4 18.667 9.66699 35.334 17 50.001c6.66699 12.667 15.667 24.167 27 34.5s26.666 15.5 45.999 15.5c14.667 0 27.667 -2.33301 39 -7
s21.5 -10 30.5 -16s17.5 -11.333 25.5 -16s16.333 -7 25 -7c7.33301 0 13.333 2 18 6s8.33398 8.66699 11.001 14c2.66699 6 4.66699 13 6 21l55 -15c-4 -18.667 -9.66699 -35.334 -17 -50.001c-6.66699 -12.667 -15.834 -24.167 -27.501 -34.5s-26.834 -15.5 -45.501 -15.5
z" />
    <glyph glyph-name="ograve" unicode="&#xf2;" horiz-adv-x="600" 
d="M300 -10c-34 0 -66.333 5.5 -97 16.5s-57.667 27.667 -81 50s-42 50.5 -56 84.5s-21 73.667 -21 119v20c0 42.667 7 80.334 21 113.001s32.667 59.834 56 81.501s50.333 38 81 49s63 16.5 97 16.5s66.333 -5.5 97 -16.5s57.667 -27.333 81 -49s42 -48.834 56 -81.501
s21 -70.334 21 -113.001v-20c0 -45.333 -7 -85 -21 -119s-32.667 -62.167 -56 -84.5s-50.333 -39 -81 -50s-63 -16.5 -97 -16.5zM300 70c20 0 40 3.5 60 10.5s37.667 18 53 33s27.833 34.5 37.5 58.5s14.5 53.333 14.5 88v20c0 32 -4.83301 59.333 -14.5 82
s-22.167 41.334 -37.5 56.001s-33 25.334 -53 32.001s-40 10 -60 10s-40 -3.33301 -60 -10s-37.667 -17.334 -53 -32.001s-27.833 -33.334 -37.5 -56.001s-14.5 -50 -14.5 -82v-20c0 -34.667 4.83301 -64 14.5 -88s22.167 -43.5 37.5 -58.5s33 -26 53 -33s40 -10.5 60 -10.5
zM115 740h110l110 -160h-70z" />
    <glyph glyph-name="oacute" unicode="&#xf3;" horiz-adv-x="600" 
d="M300 -10c-34 0 -66.333 5.5 -97 16.5s-57.667 27.667 -81 50s-42 50.5 -56 84.5s-21 73.667 -21 119v20c0 42.667 7 80.334 21 113.001s32.667 59.834 56 81.501s50.333 38 81 49s63 16.5 97 16.5s66.333 -5.5 97 -16.5s57.667 -27.333 81 -49s42 -48.834 56 -81.501
s21 -70.334 21 -113.001v-20c0 -45.333 -7 -85 -21 -119s-32.667 -62.167 -56 -84.5s-50.333 -39 -81 -50s-63 -16.5 -97 -16.5zM300 70c20 0 40 3.5 60 10.5s37.667 18 53 33s27.833 34.5 37.5 58.5s14.5 53.333 14.5 88v20c0 32 -4.83301 59.333 -14.5 82
s-22.167 41.334 -37.5 56.001s-33 25.334 -53 32.001s-40 10 -60 10s-40 -3.33301 -60 -10s-37.667 -17.334 -53 -32.001s-27.833 -33.334 -37.5 -56.001s-14.5 -50 -14.5 -82v-20c0 -34.667 4.83301 -64 14.5 -88s22.167 -43.5 37.5 -58.5s33 -26 53 -33s40 -10.5 60 -10.5
zM375 740h110l-150 -160h-70z" />
    <glyph glyph-name="ocircumflex" unicode="&#xf4;" horiz-adv-x="600" 
d="M300 -10c-34 0 -66.333 5.5 -97 16.5s-57.667 27.667 -81 50s-42 50.5 -56 84.5s-21 73.667 -21 119v20c0 42.667 7 80.334 21 113.001s32.667 59.834 56 81.501s50.333 38 81 49s63 16.5 97 16.5s66.333 -5.5 97 -16.5s57.667 -27.333 81 -49s42 -48.834 56 -81.501
s21 -70.334 21 -113.001v-20c0 -45.333 -7 -85 -21 -119s-32.667 -62.167 -56 -84.5s-50.333 -39 -81 -50s-63 -16.5 -97 -16.5zM300 70c20 0 40 3.5 60 10.5s37.667 18 53 33s27.833 34.5 37.5 58.5s14.5 53.333 14.5 88v20c0 32 -4.83301 59.333 -14.5 82
s-22.167 41.334 -37.5 56.001s-33 25.334 -53 32.001s-40 10 -60 10s-40 -3.33301 -60 -10s-37.667 -17.334 -53 -32.001s-27.833 -33.334 -37.5 -56.001s-14.5 -50 -14.5 -82v-20c0 -34.667 4.83301 -64 14.5 -88s22.167 -43.5 37.5 -58.5s33 -26 53 -33s40 -10.5 60 -10.5
zM255 740h90l110 -160h-70l-85 91l-85 -91h-70z" />
    <glyph glyph-name="otilde" unicode="&#xf5;" horiz-adv-x="600" 
d="M300 -10c-34 0 -66.333 5.5 -97 16.5s-57.667 27.667 -81 50s-42 50.5 -56 84.5s-21 73.667 -21 119v20c0 42.667 7 80.334 21 113.001s32.667 59.834 56 81.501s50.333 38 81 49s63 16.5 97 16.5s66.333 -5.5 97 -16.5s57.667 -27.333 81 -49s42 -48.834 56 -81.501
s21 -70.334 21 -113.001v-20c0 -45.333 -7 -85 -21 -119s-32.667 -62.167 -56 -84.5s-50.333 -39 -81 -50s-63 -16.5 -97 -16.5zM300 70c20 0 40 3.5 60 10.5s37.667 18 53 33s27.833 34.5 37.5 58.5s14.5 53.333 14.5 88v20c0 32 -4.83301 59.333 -14.5 82
s-22.167 41.334 -37.5 56.001s-33 25.334 -53 32.001s-40 10 -60 10s-40 -3.33301 -60 -10s-37.667 -17.334 -53 -32.001s-27.833 -33.334 -37.5 -56.001s-14.5 -50 -14.5 -82v-20c0 -34.667 4.83301 -64 14.5 -88s22.167 -43.5 37.5 -58.5s33 -26 53 -33s40 -10.5 60 -10.5
zM360 600c-15.333 0 -28.4971 2.33203 -39.4971 6.99902s-21 10 -30 16s-17.5 11.333 -25.5 16s-16.333 7 -25 7c-7.33301 0 -13.333 -2.16699 -18 -6.5s-8.33398 -9.16602 -11.001 -14.499c-2.66699 -6 -4.66699 -12.667 -6 -20l-55 15c4 18.667 9.66699 35.334 17 50.001
c6.66699 12.667 15.667 24.167 27 34.5s26.666 15.5 45.999 15.5c14.667 0 27.667 -2.33301 39 -7s21.5 -10 30.5 -16s17.5 -11.333 25.5 -16s16.333 -7 25 -7c7.33301 0 13.333 2 18 6s8.33398 8.66699 11.001 14c2.66699 6 4.66699 13 6 21l55 -15
c-4 -18.667 -9.66699 -35.334 -17 -50.001c-6.66699 -12.667 -15.834 -24.167 -27.501 -34.5s-26.834 -15.5 -45.501 -15.5z" />
    <glyph glyph-name="odieresis" unicode="&#xf6;" horiz-adv-x="600" 
d="M300 -10c-34 0 -66.333 5.5 -97 16.5s-57.667 27.667 -81 50s-42 50.5 -56 84.5s-21 73.667 -21 119v20c0 42.667 7 80.334 21 113.001s32.667 59.834 56 81.501s50.333 38 81 49s63 16.5 97 16.5s66.333 -5.5 97 -16.5s57.667 -27.333 81 -49s42 -48.834 56 -81.501
s21 -70.334 21 -113.001v-20c0 -45.333 -7 -85 -21 -119s-32.667 -62.167 -56 -84.5s-50.333 -39 -81 -50s-63 -16.5 -97 -16.5zM300 70c20 0 40 3.5 60 10.5s37.667 18 53 33s27.833 34.5 37.5 58.5s14.5 53.333 14.5 88v20c0 32 -4.83301 59.333 -14.5 82
s-22.167 41.334 -37.5 56.001s-33 25.334 -53 32.001s-40 10 -60 10s-40 -3.33301 -60 -10s-37.667 -17.334 -53 -32.001s-27.833 -33.334 -37.5 -56.001s-14.5 -50 -14.5 -82v-20c0 -34.667 4.83301 -64 14.5 -88s22.167 -43.5 37.5 -58.5s33 -26 53 -33s40 -10.5 60 -10.5
zM198 602c-16 0 -29.667 5.66699 -41 17s-17 25 -17 41s5.66699 29.667 17 41s25 17 41 17s29.667 -5.66699 41 -17s17 -25 17 -41s-5.66699 -29.667 -17 -41s-25 -17 -41 -17zM402 602c-16 0 -29.667 5.66699 -41 17s-17 25 -17 41s5.66699 29.667 17 41s25 17 41 17
s29.667 -5.66699 41 -17s17 -25 17 -41s-5.66699 -29.667 -17 -41s-25 -17 -41 -17z" />
    <glyph glyph-name="divide" unicode="&#xf7;" horiz-adv-x="550" 
d="M50 401h450v-82h-450v82zM275 119c-19.333 0 -35.833 6.83301 -49.5 20.5s-20.5 30.167 -20.5 49.5c0 20 6.83301 36.667 20.5 50s30.167 20 49.5 20s35.833 -6.66699 49.5 -20s20.5 -30 20.5 -50c0 -19.333 -6.83301 -35.833 -20.5 -49.5s-30.167 -20.5 -49.5 -20.5z
M275 461c-19.333 0 -35.833 6.83301 -49.5 20.5s-20.5 30.167 -20.5 49.5c0 20 6.83301 36.667 20.5 50s30.167 20 49.5 20s35.833 -6.66699 49.5 -20s20.5 -30 20.5 -50c0 -19.333 -6.83301 -35.833 -20.5 -49.5s-30.167 -20.5 -49.5 -20.5z" />
    <glyph glyph-name="oslash" unicode="&#xf8;" horiz-adv-x="600" 
d="M300 -10c-29.333 0 -57.332 3.99902 -83.999 11.999s-51 20 -73 36l-41 -48l-42 36l43 51c-18 22 -32.167 48 -42.5 78s-15.5 65 -15.5 105v20c0 42.667 7 80.334 21 113.001s32.667 59.834 56 81.501s50.333 38 81 49s63 16.5 97 16.5c29.333 0 57.333 -4 84 -12
s51 -20 73 -36l41 48l42 -38l-42 -49c17.333 -21.333 31.166 -46.333 41.499 -75s15.5 -61.334 15.5 -98.001v-20c0 -45.333 -7 -85 -21 -119s-32.667 -62.167 -56 -84.5s-50.333 -39 -81 -50s-63 -16.5 -97 -16.5zM300.001 69.999c20 0 40 3.50098 60 10.501
s37.667 18 53 33s27.833 34.5 37.5 58.5s14.5 53.333 14.5 88v20c0 21.333 -2.33301 40.666 -7 57.999s-11 32.666 -19 45.999l-240 -281c14.667 -11.333 30.667 -19.666 48 -24.999s35 -8 53 -8zM300.001 460c-20 0 -40.002 -3.33008 -60.002 -9.99707
s-37.667 -17.334 -53 -32.001s-27.833 -33.334 -37.5 -56.001s-14.5 -50 -14.5 -82v-20c0 -24 2.33301 -45.5 7 -64.5s11.334 -35.833 20.001 -50.5l240 282c-15.333 11.333 -31.666 19.666 -48.999 24.999s-35 8 -53 8z" />
    <glyph glyph-name="ugrave" unicode="&#xf9;" horiz-adv-x="605" 
d="M267 -10c-64 0 -112.001 18.3311 -144.001 54.998s-48 93.334 -48 170.001v315h88v-310c0 -49.333 10.167 -86.666 30.5 -111.999s53.5 -38 99.5 -38c24.667 0 46.167 4.33301 64.5 13s33.333 20 45 34s20.334 30 26.001 48s8.5 36.333 8.5 55v310h88v-530h-82v100
c-6 -14.667 -14.167 -28.667 -24.5 -42s-23 -25 -38 -35s-32 -18 -51 -24s-39.833 -9 -62.5 -9zM114.999 739.998h110l110 -160h-70z" />
    <glyph glyph-name="uacute" unicode="&#xfa;" horiz-adv-x="605" 
d="M267 -10c-64 0 -112.001 18.3311 -144.001 54.998s-48 93.334 -48 170.001v315h88v-310c0 -49.333 10.167 -86.666 30.5 -111.999s53.5 -38 99.5 -38c24.667 0 46.167 4.33301 64.5 13s33.333 20 45 34s20.334 30 26.001 48s8.5 36.333 8.5 55v310h88v-530h-82v100
c-6 -14.667 -14.167 -28.667 -24.5 -42s-23 -25 -38 -35s-32 -18 -51 -24s-39.833 -9 -62.5 -9zM374.999 739.998h110l-150 -160h-70z" />
    <glyph glyph-name="ucircumflex" unicode="&#xfb;" horiz-adv-x="605" 
d="M267 -10c-64 0 -112.001 18.3311 -144.001 54.998s-48 93.334 -48 170.001v315h88v-310c0 -49.333 10.167 -86.666 30.5 -111.999s53.5 -38 99.5 -38c24.667 0 46.167 4.33301 64.5 13s33.333 20 45 34s20.334 30 26.001 48s8.5 36.333 8.5 55v310h88v-530h-82v100
c-6 -14.667 -14.167 -28.667 -24.5 -42s-23 -25 -38 -35s-32 -18 -51 -24s-39.833 -9 -62.5 -9zM254.999 739.998h90l110 -160h-70l-85 91l-85 -91h-70z" />
    <glyph glyph-name="udieresis" unicode="&#xfc;" horiz-adv-x="605" 
d="M267 -10c-64 0 -112.001 18.3311 -144.001 54.998s-48 93.334 -48 170.001v315h88v-310c0 -49.333 10.167 -86.666 30.5 -111.999s53.5 -38 99.5 -38c24.667 0 46.167 4.33301 64.5 13s33.333 20 45 34s20.334 30 26.001 48s8.5 36.333 8.5 55v310h88v-530h-82v100
c-6 -14.667 -14.167 -28.667 -24.5 -42s-23 -25 -38 -35s-32 -18 -51 -24s-39.833 -9 -62.5 -9zM197.999 601.998c-16 0 -29.667 5.66699 -41 17s-17 25 -17 41s5.66699 29.667 17 41s25 17 41 17s29.667 -5.66699 41 -17s17 -25 17 -41s-5.66699 -29.667 -17 -41
s-25 -17 -41 -17zM401.999 601.998c-16 0 -29.667 5.66699 -41 17s-17 25 -17 41s5.66699 29.667 17 41s25 17 41 17s29.667 -5.66699 41 -17s17 -25 17 -41s-5.66699 -29.667 -17 -41s-25 -17 -41 -17z" />
    <glyph glyph-name="yacute" unicode="&#xfd;" horiz-adv-x="560" 
d="M150 -210c-10 0 -20.002 1.00098 -30.002 3.00098v80c10 -2 20 -3 30 -3s18.667 1.66699 26 5s14.333 9.66602 21 18.999s13.834 22.5 21.501 39.5s16.5 39.167 26.5 66.5l-225 530h98l172 -430l156 430h94l-200 -530c-14 -37.333 -27.333 -69.333 -40 -96
s-26.167 -48.5 -40.5 -65.5s-30.166 -29.333 -47.499 -37s-38 -11.5 -62 -11.5zM356.998 740.001h110l-150 -160h-70z" />
    <glyph glyph-name="thorn" unicode="&#xfe;" horiz-adv-x="615" 
d="M80 700l87.998 0.00292969v-265c15.333 32.667 38.833 58.334 70.5 77.001s68.834 28 111.501 28c33.333 0 63.666 -5.5 90.999 -16.5s50.5 -27.333 69.5 -49s33.667 -48.834 44 -81.501s15.5 -70.334 15.5 -113.001v-20c0 -44.667 -5.33301 -83.834 -16 -117.501
s-25.667 -61.834 -45 -84.501s-42.5 -39.667 -69.5 -51s-56.833 -17 -89.5 -17c-45.333 0 -83.166 10 -113.499 30s-53.166 45 -68.499 75v-295h-88v900zM329.998 68.0029c21.333 0 41.333 4.16699 60 12.5s34.834 20.5 48.501 36.5s24.334 36 32.001 60
s11.5 51.667 11.5 83v20c0 28.667 -3.83301 54.334 -11.5 77.001s-18.334 41.834 -32.001 57.501s-29.834 27.5 -48.501 35.5s-38.667 12 -60 12c-24 0 -46 -3.83301 -66 -11.5s-37 -18.334 -51 -32.001s-25 -29.834 -33 -48.501s-12 -38.667 -12 -60v-80
c0 -24 4 -46 12 -66s19 -37 33 -51s31 -25 51 -33s42 -12 66 -12z" />
    <glyph glyph-name="ydieresis" unicode="&#xff;" horiz-adv-x="560" 
d="M150 -210c-10 0 -20.002 1.00098 -30.002 3.00098v80c10 -2 20 -3 30 -3s18.667 1.66699 26 5s14.333 9.66602 21 18.999s13.834 22.5 21.501 39.5s16.5 39.167 26.5 66.5l-225 530h98l172 -430l156 430h94l-200 -530c-14 -37.333 -27.333 -69.333 -40 -96
s-26.167 -48.5 -40.5 -65.5s-30.166 -29.333 -47.499 -37s-38 -11.5 -62 -11.5zM179.998 602.001c-16 0 -29.667 5.66699 -41 17s-17 25 -17 41s5.66699 29.667 17 41s25 17 41 17s29.667 -5.66699 41 -17s17 -25 17 -41s-5.66699 -29.667 -17 -41s-25 -17 -41 -17z
M383.998 602.001c-16 0 -29.667 5.66699 -41 17s-17 25 -17 41s5.66699 29.667 17 41s25 17 41 17s29.667 -5.66699 41 -17s17 -25 17 -41s-5.66699 -29.667 -17 -41s-25 -17 -41 -17z" />
    <glyph glyph-name="dotlessi" unicode="&#x131;" horiz-adv-x="268" 
d="M90 530h88v-530h-88v530z" />
    <glyph glyph-name="Lslash" unicode="&#x141;" horiz-adv-x="590" 
d="M120 272l-100 -57v82l100 57v346h94v-292l176 102v-82l-176 -102v-244h356v-82h-450v272z" />
    <glyph glyph-name="lslash" unicode="&#x142;" horiz-adv-x="340" 
d="M255 -5c-55.333 0 -94.998 13.334 -118.998 40.001s-36 70 -36 130v181l-80 -46v78l80 46v276h88v-225l112 65v-78l-112 -65v-232c0 -34.667 5.66699 -58.334 17 -71.001s31.333 -19 60 -19c7.33301 0 13.666 0.166992 18.999 0.5s10.666 0.833008 15.999 1.5v-78
c-5.33301 -1.33301 -12.833 -2.33301 -22.5 -3s-17.167 -1 -22.5 -1z" />
    <glyph glyph-name="OE" unicode="&#x152;" horiz-adv-x="1090" 
d="M370 -10c-40 0 -78.667 6.83203 -116 20.499s-70.333 34.834 -99 63.501s-51.667 65.334 -69 110.001s-26 98.334 -26 161.001v20c0 60 8.66699 111.667 26 155s40.333 79.166 69 107.499s61.667 49.166 99 62.499s76 20 116 20c42 0 81.333 -7 118 -21
s67.334 -36 92.001 -66v77h450v-82h-356v-217h326v-82h-326v-237h356v-82h-450v78c-24.667 -31.333 -55.334 -53.833 -92.001 -67.5s-76 -20.5 -118 -20.5zM370 73.999c27.333 0 53.666 5 78.999 15s47.666 25.833 66.999 47.5s34.833 49.667 46.5 84
s17.5 75.833 17.5 124.5v20c0 46 -5.83301 85.5 -17.5 118.5s-27.167 60 -46.5 81s-41.666 36.5 -66.999 46.5s-51.666 15 -78.999 15s-53.666 -5 -78.999 -15s-47.666 -25.5 -66.999 -46.5s-34.833 -48 -46.5 -81s-17.5 -72.5 -17.5 -118.5v-20
c0 -48.667 5.83301 -90.167 17.5 -124.5s27.167 -62.333 46.5 -84s41.666 -37.5 66.999 -47.5s51.666 -15 78.999 -15z" />
    <glyph glyph-name="oe" unicode="&#x153;" horiz-adv-x="1000" 
d="M300 -10c-34 0 -66.3301 5.49609 -96.9971 16.4961s-57.667 27.667 -81 50s-42 50.5 -56 84.5s-21 73.667 -21 119v20c0 42.667 7 80.334 21 113.001s32.667 59.834 56 81.501s50.333 38 81 49s63 16.5 97 16.5c44 0 84.333 -9.33301 121 -28s65.667 -46.667 87 -84
c20.667 38 48.667 66.167 84 84.5s74.666 27.5 117.999 27.5c78 0 138.333 -21.333 181 -64s64 -103 64 -181v-56h-402c0 -31.333 5 -57.666 15 -78.999s23 -38.666 39 -51.999s33.833 -23 53.5 -29s39.5 -9 59.5 -9c40 0 70.833 6.66699 92.5 20s37.167 31.666 46.5 54.999
h86c-5.33301 -25.333 -14.833 -47.666 -28.5 -66.999s-30.334 -35.5 -50.001 -48.5s-42 -22.833 -67 -29.5s-51.5 -10 -79.5 -10c-45.333 0 -86.5 9.33301 -123.5 28s-66.167 48 -87.5 88c-21.333 -39.333 -50.333 -68.5 -87 -87.5s-77.334 -28.5 -122.001 -28.5z
M300.003 69.9961c20 0 40 3.5 60 10.5s37.667 18 53 33s27.833 34.5 37.5 58.5s14.5 53.333 14.5 88v20c0 32 -4.83301 59.333 -14.5 82s-22.167 41.334 -37.5 56.001s-33 25.334 -53 32.001s-40 10 -60 10s-40 -3.33301 -60 -10s-37.667 -17.334 -53 -32.001
s-27.833 -33.334 -37.5 -56.001s-14.5 -50 -14.5 -82v-20c0 -34.667 4.83301 -64 14.5 -88s22.167 -43.5 37.5 -58.5s33 -26 53 -33s40 -10.5 60 -10.5zM715.003 459.996c-20.667 0 -40.667 -2.83301 -60 -8.5s-36.5 -14.667 -51.5 -27s-27.167 -27.833 -36.5 -46.5
s-14 -41 -14 -67h319c-0.666992 27.333 -5.16699 50.5 -13.5 69.5s-19.5 34.333 -33.5 46s-30.5 20.167 -49.5 25.5s-39.167 8 -60.5 8z" />
    <glyph glyph-name="Scaron" unicode="&#x160;" horiz-adv-x="640" 
d="M320 -10c-42 0 -78.6699 5.00391 -110.003 15.0039s-57.666 23.833 -78.999 41.5s-38.166 38.334 -50.499 62.001s-20.833 49.167 -25.5 76.5h94c3.33301 -15.333 9 -29.833 17 -43.5s18.833 -25.5 32.5 -35.5s30.5 -17.833 50.5 -23.5s43.667 -8.5 71 -8.5
c56 0 98.5 10.667 127.5 32s43.5 47.666 43.5 78.999c0 19.333 -3.16699 35.666 -9.5 48.999s-17 25 -32 35s-34.667 19 -59 27s-54.166 16 -89.499 24c-39.333 8.66699 -73.166 18.167 -101.499 28.5s-51.666 23.333 -69.999 39s-32 34.5 -41 56.5s-13.5 49 -13.5 81
c0 26 5.66699 50.167 17 72.5s27.5 41.833 48.5 58.5s46.667 29.834 77 39.501s64.5 14.5 102.5 14.5c37.333 0 70 -4.83301 98 -14.5s51.833 -22.834 71.5 -39.501s35.167 -36.167 46.5 -58.5s19.333 -46.5 24 -72.5h-94c-3.33301 14 -8.33301 27.167 -15 39.5
s-15.834 23 -27.501 32s-26 16.167 -43 21.5s-37.167 8 -60.5 8c-48 0 -85.167 -9.83301 -111.5 -29.5s-39.5 -43.5 -39.5 -71.5c0 -18 3.33301 -33.5 10 -46.5s17 -24.333 31 -34s31.833 -18 53.5 -25s47.5 -13.833 77.5 -20.5c43.333 -9.33301 80.5 -19.833 111.5 -31.5
s56.333 -25.834 76 -42.501s34 -36.334 43 -59.001s13.5 -49.667 13.5 -81c0 -27.333 -6 -52.833 -18 -76.5s-29.333 -44.334 -52 -62.001s-50.334 -31.5 -83.001 -41.5s-70 -15 -112 -15zM159.997 900.004h80l80 -80l80 80h80l-111 -150h-99z" />
    <glyph glyph-name="scaron" unicode="&#x161;" horiz-adv-x="530" 
d="M265 -10c-35.333 0 -65.8301 4.16406 -91.4971 12.4971s-47.5 19.5 -65.5 33.5s-32 30.333 -42 49s-17 38.667 -21 60h88c4.66699 -21.333 17.167 -39.833 37.5 -55.5s51.833 -23.5 94.5 -23.5c24.667 0 45.334 2.16699 62.001 6.5s30.167 10 40.5 17
s17.833 15.333 22.5 25s7 19.834 7 30.501c0 11.333 -2.16699 21.333 -6.5 30s-12 16.5 -23 23.5s-26 13.333 -45 19s-42.833 10.5 -71.5 14.5c-29.333 4 -55.833 9.83301 -79.5 17.5s-43.667 17.834 -60 30.501s-29 27.834 -38 45.501s-13.5 39.167 -13.5 64.5
c0 20 4.33301 39 13 57s21.667 34 39 48s38.666 25 63.999 33s55 12 89 12c31.333 0 58.666 -4.16699 81.999 -12.5s43.166 -19.5 59.499 -33.5s29.166 -30.333 38.499 -49s16 -38.667 20 -60h-88c-5.33301 23.333 -16.666 42.333 -33.999 57s-43.333 22 -78 22
c-43.333 0 -73.666 -7.16699 -90.999 -21.5s-26 -31.833 -26 -52.5c0 -12 2.16699 -22.333 6.5 -31s11.666 -16.334 21.999 -23.001s24 -12.167 41 -16.5s38.167 -8.16602 63.5 -11.499c32.667 -4 61.667 -9.83301 87 -17.5s46.666 -18 63.999 -31s30.5 -28.833 39.5 -47.5
s13.5 -41 13.5 -67c0 -21.333 -4.5 -41.333 -13.5 -60s-22.5 -35 -40.5 -49s-40.833 -25.167 -68.5 -33.5s-60.167 -12.5 -97.5 -12.5zM110.003 739.997h70l85 -91l85 91h70l-110 -160h-90z" />
    <glyph glyph-name="Ydieresis" unicode="&#x178;" horiz-adv-x="640" 
d="M283 277l-273 423h108l211 -326l197 326h104l-253 -423v-277h-94v277zM212 765c-16.667 0 -30.834 5.83301 -42.501 17.5s-17.5 25.834 -17.5 42.501s5.83301 30.834 17.5 42.501s25.834 17.5 42.501 17.5s30.834 -5.83301 42.501 -17.5s17.5 -25.834 17.5 -42.501
s-5.83301 -30.834 -17.5 -42.501s-25.834 -17.5 -42.501 -17.5zM432 765c-16.667 0 -30.834 5.83301 -42.501 17.5s-17.5 25.834 -17.5 42.501s5.83301 30.834 17.5 42.501s25.834 17.5 42.501 17.5s30.834 -5.83301 42.501 -17.5s17.5 -25.834 17.5 -42.501
s-5.83301 -30.834 -17.5 -42.501s-25.834 -17.5 -42.501 -17.5z" />
    <glyph glyph-name="Zcaron" unicode="&#x17d;" horiz-adv-x="600" 
d="M45 77l392 541h-382v82h490v-77l-392 -541h402v-82h-510v77zM140 900h80l80 -80l80 80h80l-111 -150h-99z" />
    <glyph glyph-name="zcaron" unicode="&#x17e;" horiz-adv-x="510" 
d="M40 73l314 379h-304v78h410v-73l-314 -379h324v-78h-430v73zM100 740h70l85 -91l85 91h70l-110 -160h-90z" />
    <glyph glyph-name="florin" unicode="&#x192;" horiz-adv-x="370" 
d="M48 -210c-5.33301 0 -13.332 0.168945 -23.999 0.501953s-21 1.16602 -31 2.49902v80c5.33301 -1.33301 12.833 -2.16602 22.5 -2.49902s17.167 -0.5 22.5 -0.5c25.333 0 43.666 6.16699 54.999 18.5s17 34.5 17 66.5v497h-75v78h75v10
c0 55.333 12.833 96.666 38.5 123.999s66.167 41 121.5 41c20 0 45 -1 75 -3v-80c-10 1.33301 -20.833 2.16602 -32.5 2.49902s-22.5 0.5 -32.5 0.5c-30.667 0 -52 -6.16699 -64 -18.5s-18 -34.5 -18 -66.5v-10h137v-78h-137v-497c0 -110 -50 -165 -150 -165z" />
    <glyph glyph-name="uni0237" unicode="&#x237;" horiz-adv-x="268" 
d="M18 -210c-7.33301 0 -15.667 0.164062 -25 0.49707s-17.666 1.16602 -24.999 2.49902v80c5.33301 -1.33301 11.166 -2.16602 17.499 -2.49902s12.166 -0.5 17.499 -0.5c16.667 0 30.667 1.83301 42 5.5s20.333 10.334 27 20.001s11.334 22.834 14.001 39.501
s4 38.334 4 65.001v530h88v-530c0 -41.333 -2.83301 -75.5 -8.5 -102.5s-14.834 -48.5 -27.501 -64.5s-29.167 -27.167 -49.5 -33.5s-45.166 -9.5 -74.499 -9.5z" />
    <glyph glyph-name="uni02BC" unicode="&#x2bc;" horiz-adv-x="275" 
d="M95 590v110h110v-110l-100 -150h-50z" />
    <glyph glyph-name="circumflex" unicode="&#x2c6;" horiz-adv-x="350" 
d="M130 740h90l110 -160h-70l-85 91l-85 -91h-70z" />
    <glyph glyph-name="caron" unicode="&#x2c7;" horiz-adv-x="350" 
d="M20 740h70l85 -91l85 91h70l-110 -160h-90z" />
    <glyph glyph-name="dotaccent" unicode="&#x2d9;" horiz-adv-x="160" 
d="M80 600c-17.333 0 -31.666 5.66699 -42.999 17s-17 25.666 -17 42.999s5.66699 31.666 17 42.999s25.666 17 42.999 17s31.666 -5.66699 42.999 -17s17 -25.666 17 -42.999s-5.66699 -31.666 -17 -42.999s-25.666 -17 -42.999 -17z" />
    <glyph glyph-name="ring" unicode="&#x2da;" horiz-adv-x="270" 
d="M135 575c-16 0 -31 2.66699 -45 8s-26.167 12.666 -36.5 21.999s-18.5 20.333 -24.5 33s-9 26.667 -9 42c0 14.667 3 28.5 9 41.5s14.167 24.167 24.5 33.5s22.5 16.666 36.5 21.999s29 8 45 8s31 -2.66699 45 -8s26.167 -12.666 36.5 -21.999s18.5 -20.5 24.5 -33.5
s9 -26.833 9 -41.5c0 -15.333 -3 -29.333 -9 -42s-14.167 -23.667 -24.5 -33s-22.5 -16.666 -36.5 -21.999s-29 -8 -45 -8zM135 633c14 0 25.333 4.33301 34 13s13 20 13 34s-4.33301 25.333 -13 34s-20 13 -34 13s-25.333 -4.33301 -34 -13s-13 -20 -13 -34
s4.33301 -25.333 13 -34s20 -13 34 -13z" />
    <glyph glyph-name="tilde" unicode="&#x2dc;" horiz-adv-x="340" 
d="M230 600c-15.333 0 -28.4971 2.33203 -39.4971 6.99902s-21 10 -30 16s-17.5 11.333 -25.5 16s-16.333 7 -25 7c-7.33301 0 -13.333 -2.16699 -18 -6.5s-8.33398 -9.16602 -11.001 -14.499c-2.66699 -6 -4.66699 -12.667 -6 -20l-55 15
c4 18.667 9.66699 35.334 17 50.001c6.66699 12.667 15.667 24.167 27 34.5s26.666 15.5 45.999 15.5c14.667 0 27.667 -2.33301 39 -7s21.5 -10 30.5 -16s17.5 -11.333 25.5 -16s16.333 -7 25 -7c7.33301 0 13.333 2 18 6s8.33398 8.66699 11.001 14
c2.66699 6 4.66699 13 6 21l55 -15c-4 -18.667 -9.66699 -35.334 -17 -50.001c-6.66699 -12.667 -15.834 -24.167 -27.501 -34.5s-26.834 -15.5 -45.501 -15.5z" />
    <glyph glyph-name="hungarumlaut" unicode="&#x2dd;" horiz-adv-x="520" 
d="M52 580l110 160h110l-150 -160h-70zM232 580l130 160h110l-170 -160h-70z" />
    <glyph glyph-name="uni0401" unicode="&#x401;" horiz-adv-x="610" 
d="M100 700h450v-82h-356v-217h326v-82h-326v-237h356v-82h-450v700zM215 765c-16.667 0 -30.834 5.83301 -42.501 17.5s-17.5 25.834 -17.5 42.501s5.83301 30.834 17.5 42.501s25.834 17.5 42.501 17.5s30.834 -5.83301 42.501 -17.5s17.5 -25.834 17.5 -42.501
s-5.83301 -30.834 -17.5 -42.501s-25.834 -17.5 -42.501 -17.5zM435 765c-16.667 0 -30.834 5.83301 -42.501 17.5s-17.5 25.834 -17.5 42.501s5.83301 30.834 17.5 42.501s25.834 17.5 42.501 17.5s30.834 -5.83301 42.501 -17.5s17.5 -25.834 17.5 -42.501
s-5.83301 -30.834 -17.5 -42.501s-25.834 -17.5 -42.501 -17.5z" />
    <glyph glyph-name="uni0402" unicode="&#x402;" horiz-adv-x="820" 
d="M263 618l-243.001 0.000976562v82h580v-82h-243v-226c17.333 11.333 42 21.666 74 30.999s68.333 14 109 14c78 0 136.667 -18.667 176 -56s59 -89 59 -155v-20c0 -66 -19.667 -117.667 -59 -155s-98 -56 -176 -56c-5.33301 0 -13.666 0.166992 -24.999 0.5
s-19.666 1.16602 -24.999 2.49902v84c5.33301 -1.33301 12 -2.16602 20 -2.49902s14.667 -0.5 20 -0.5c53.333 0 91.833 10.833 115.5 32.5s35.5 53.167 35.5 94.5v20c0 41.333 -11.833 72.833 -35.5 94.5s-62.167 32.5 -115.5 32.5c-40.667 0 -75.334 -5 -104.001 -15
s-51.667 -20.667 -69 -32v-306h-94v618z" />
    <glyph glyph-name="uni0403" unicode="&#x403;" horiz-adv-x="560" 
d="M100 700h440v-82h-346v-618h-94v700zM393 900h120l-150 -150h-80z" />
    <glyph glyph-name="uni0404" unicode="&#x404;" horiz-adv-x="680" 
d="M355 -10c-39.333 0 -76.668 6.33496 -112.001 19.002s-66.666 33.167 -93.999 61.5s-49 65 -65 110s-24 99.833 -24 164.5v20c0 62 8 115 24 159s37.667 79.667 65 107s58.666 47.333 93.999 60s72.666 19 111.999 19c38 0 72.833 -5 104.5 -15s59.5 -24.333 83.5 -43
s43.5 -41.667 58.5 -69s24.5 -58.333 28.5 -93h-100c-9.33301 45.333 -29 79.333 -59 102s-68.667 34 -116 34c-23.333 0 -46.166 -3.66699 -68.499 -11s-42.5 -20 -60.5 -38s-33 -41.833 -45 -71.5s-19 -66.5 -21 -110.5h280v-80h-280
c2.66699 -47.333 10.334 -86.333 23.001 -117s28.167 -55.334 46.5 -74.001s38.5 -31.667 60.5 -39s43.667 -11 65 -11c52 0 92.667 12.667 122 38s47 58 53 98h100c-5.33301 -38.667 -16 -71.834 -32 -99.501s-36.167 -50.5 -60.5 -68.5s-52 -31.167 -83 -39.5
s-64.167 -12.5 -99.5 -12.5z" />
    <glyph glyph-name="uni0405" unicode="&#x405;" horiz-adv-x="640" 
d="M320 -10c-42 0 -78.6699 5.00391 -110.003 15.0039s-57.666 23.833 -78.999 41.5s-38.166 38.334 -50.499 62.001s-20.833 49.167 -25.5 76.5h94c3.33301 -15.333 9 -29.833 17 -43.5s18.833 -25.5 32.5 -35.5s30.5 -17.833 50.5 -23.5s43.667 -8.5 71 -8.5
c56 0 98.5 10.667 127.5 32s43.5 47.666 43.5 78.999c0 19.333 -3.16699 35.666 -9.5 48.999s-17 25 -32 35s-34.667 19 -59 27s-54.166 16 -89.499 24c-39.333 8.66699 -73.166 18.167 -101.499 28.5s-51.666 23.333 -69.999 39s-32 34.5 -41 56.5s-13.5 49 -13.5 81
c0 26 5.66699 50.167 17 72.5s27.5 41.833 48.5 58.5s46.667 29.834 77 39.501s64.5 14.5 102.5 14.5c37.333 0 70 -4.83301 98 -14.5s51.833 -22.834 71.5 -39.501s35.167 -36.167 46.5 -58.5s19.333 -46.5 24 -72.5h-94c-3.33301 14 -8.33301 27.167 -15 39.5
s-15.834 23 -27.501 32s-26 16.167 -43 21.5s-37.167 8 -60.5 8c-48 0 -85.167 -9.83301 -111.5 -29.5s-39.5 -43.5 -39.5 -71.5c0 -18 3.33301 -33.5 10 -46.5s17 -24.333 31 -34s31.833 -18 53.5 -25s47.5 -13.833 77.5 -20.5c43.333 -9.33301 80.5 -19.833 111.5 -31.5
s56.333 -25.834 76 -42.501s34 -36.334 43 -59.001s13.5 -49.667 13.5 -81c0 -27.333 -6 -52.833 -18 -76.5s-29.333 -44.334 -52 -62.001s-50.334 -31.5 -83.001 -41.5s-70 -15 -112 -15z" />
    <glyph glyph-name="uni0406" unicode="&#x406;" horiz-adv-x="314" 
d="M110 700h94v-700h-94v700z" />
    <glyph glyph-name="uni0407" unicode="&#x407;" horiz-adv-x="314" 
d="M110 700h94v-700h-94v700zM48 765c-16.667 0 -30.834 5.83301 -42.501 17.5s-17.5 25.834 -17.5 42.501s5.83301 30.834 17.5 42.501s25.834 17.5 42.501 17.5s30.834 -5.83301 42.501 -17.5s17.5 -25.834 17.5 -42.501s-5.83301 -30.834 -17.5 -42.501
s-25.834 -17.5 -42.501 -17.5zM268 765c-16.667 0 -30.834 5.83301 -42.501 17.5s-17.5 25.834 -17.5 42.501s5.83301 30.834 17.5 42.501s25.834 17.5 42.501 17.5s30.834 -5.83301 42.501 -17.5s17.5 -25.834 17.5 -42.501s-5.83301 -30.834 -17.5 -42.501
s-25.834 -17.5 -42.501 -17.5z" />
    <glyph glyph-name="uni0408" unicode="&#x408;" horiz-adv-x="555" 
d="M235 -10c-69.333 0 -120.999 17.166 -154.999 51.499s-52.333 80.5 -55 138.5h92c2.66699 -33.333 13 -59.333 31 -78s47 -28 87 -28c20.667 0 39 2.66699 55 8s29.167 14.833 39.5 28.5s18.166 31.834 23.499 54.501s8 51 8 85v450h94v-450c0 -93.333 -18 -160 -54 -200
s-91.333 -60 -166 -60z" />
    <glyph glyph-name="uni0409" unicode="&#x409;" horiz-adv-x="1055" 
d="M55 -10c-10 0 -19.999 1 -29.999 3v92c3.33301 -0.666992 8.33301 -1 15 -1c13.333 0 25.166 2.16699 35.499 6.5s19.333 12.333 27 24s14.334 28.167 20.001 49.5s10.167 48.833 13.5 82.5s5.66602 74.5 6.99902 122.5s2 105 2 171v160h460v-280h135c46 0 86 -5 120 -15
s62.167 -24.333 84.5 -43s38.833 -40.834 49.5 -66.501s16 -54.167 16 -85.5s-5.33301 -59.833 -16 -85.5s-27.167 -47.834 -49.5 -66.501s-50.5 -33 -84.5 -43s-74 -15 -120 -15h-229v618h-272v-98c0 -74 -1.66699 -138.5 -5 -193.5s-8.33301 -102.167 -15 -141.5
s-15 -71.666 -25 -96.999s-21.833 -45.166 -35.5 -59.499s-29.167 -24.333 -46.5 -30s-36.333 -8.5 -57 -8.5zM735.001 82c66.667 0 113.5 11.167 140.5 33.5s40.5 53.833 40.5 94.5s-13.5 72.167 -40.5 94.5s-73.833 33.5 -140.5 33.5h-130v-256h130z" />
    <glyph glyph-name="uni040A" unicode="&#x40a;" horiz-adv-x="1105" 
d="M100 700h94v-289h362v289h94v-289h140c94.667 0 163.334 -18.5 206.001 -55.5s64 -86.833 64 -149.5c0 -63.333 -21.333 -113.5 -64 -150.5s-111.334 -55.5 -206.001 -55.5h-234v329h-362v-329h-94v700zM785 82c33.333 0 61.5 2.83203 84.5 8.49902
s41.667 13.834 56 24.501s24.666 23.667 30.999 39s9.5 32.666 9.5 51.999c0 18.667 -3.16699 35.667 -9.5 51s-16.666 28.333 -30.999 39s-33 18.834 -56 24.501s-51.167 8.5 -84.5 8.5h-135v-247h135z" />
    <glyph glyph-name="uni040B" unicode="&#x40b;" horiz-adv-x="835" 
d="M263 618l-243.002 0.000976562v82h580v-82h-243v-226c17.333 11.333 42 21.666 74 30.999s68.333 14 109 14c82 0 141.667 -18.5 179 -55.5s56 -95.833 56 -176.5v-205h-94v205c0 52.667 -11.667 90.5 -35 113.5s-62 34.5 -116 34.5c-41.333 0 -76.166 -5 -104.499 -15
s-51.166 -20.667 -68.499 -32v-306h-94v618z" />
    <glyph glyph-name="uni040C" unicode="&#x40c;" horiz-adv-x="700" 
d="M100 700h94v-301h80l274 301h112l-306 -334l316 -366h-120l-276 321h-80v-321h-94v700zM443 900h120l-150 -150h-80z" />
    <glyph glyph-name="uni040E" unicode="&#x40e;" horiz-adv-x="670" 
d="M205 -10c-7.33301 0 -14.4971 0.167969 -21.4971 0.500977s-13.167 0.833008 -18.5 1.5v84c5.33301 -0.666992 11.5 -1.16699 18.5 -1.5s14.167 -0.5 21.5 -0.5c14 0 26 1.16699 36 3.5s18.833 6.66602 26.5 12.999s14.667 14.833 21 25.5s13.166 24.667 20.499 42
l-289 542h102l234 -445l198 445h96l-255 -563c-11.333 -25.333 -23 -47.333 -35 -66s-25.333 -34 -40 -46s-31.334 -20.833 -50.001 -26.5s-40.334 -8.5 -65.001 -8.5zM338.003 750.001c-56.667 0 -99.166 12.667 -127.499 38s-42.5 62.666 -42.5 111.999h88
c0 -30.667 7 -52.667 21 -66s34.333 -20 61 -20c27.333 0 48.166 6.66699 62.499 20s21.5 35.333 21.5 66h86c0 -49.333 -14.167 -86.666 -42.5 -111.999s-70.833 -38 -127.5 -38z" />
    <glyph glyph-name="uni040F" unicode="&#x40f;" horiz-adv-x="740" 
d="M325 0h-225v700h94v-618h352v618h94v-700h-225v-130h-90v130z" />
    <glyph glyph-name="uni0410" unicode="&#x410;" horiz-adv-x="670" 
d="M481 174h-296l-67 -174h-98l268 700h94l268 -700h-102zM216 256h234l-117 324z" />
    <glyph glyph-name="uni0411" unicode="&#x411;" horiz-adv-x="665" 
d="M100 700l455 0.00195312v-81h-361v-199h156c46 0 86 -5 120 -15s62.167 -24.333 84.5 -43s38.833 -40.834 49.5 -66.501s16 -54.167 16 -85.5s-5.33301 -59.833 -16 -85.5s-27.167 -47.834 -49.5 -66.501s-50.5 -33 -84.5 -43s-74 -15 -120 -15h-250v700zM345 82.002
c66.667 0 113.5 11.167 140.5 33.5s40.5 53.833 40.5 94.5s-13.5 72.167 -40.5 94.5s-73.833 33.5 -140.5 33.5h-151v-256h151z" />
    <glyph glyph-name="uni0412" unicode="&#x412;" horiz-adv-x="670" 
d="M100 700l250.001 -0.00292969c42 0 78 -4.66699 108 -14s54.833 -22.166 74.5 -38.499s34.167 -36 43.5 -59s14 -48.167 14 -75.5c0 -36 -10 -66.833 -30 -92.5s-44.667 -44.167 -74 -55.5c41.333 -9.33301 74 -28.166 98 -56.499s36 -65.166 36 -110.499
c0 -28.667 -4.66699 -55 -14 -79s-24 -44.833 -44 -62.5s-45.833 -31.5 -77.5 -41.5s-69.834 -15 -114.501 -15h-270v700zM370.001 81.9971c30 0 55 2.83301 75 8.5s36 13.667 48 24s20.5 22.833 25.5 37.5s7.5 31 7.5 49s-2.5 34.5 -7.5 49.5s-13.5 27.667 -25.5 38
s-28.167 18.333 -48.5 24s-45.5 8.5 -75.5 8.5h-175v-239h176zM350.001 398.997c28 0 51.333 2.66797 70 8.00098s33.667 13 45 23s19.333 21.667 24 35s7 28 7 44s-2.33301 30.833 -7 44.5s-12.667 25.167 -24 34.5s-26.333 16.666 -45 21.999s-42 8 -70 8h-156v-219h156z
" />
    <glyph glyph-name="uni0413" unicode="&#x413;" horiz-adv-x="560" 
d="M100 700h440v-82h-346v-618h-94v700z" />
    <glyph glyph-name="uni0414" unicode="&#x414;" horiz-adv-x="730" 
d="M20 82l74.998 0.000976562c12.667 25.333 23.334 56.666 32.001 93.999s15.334 77.5 20.001 120.5s8 87.333 10 133s3 89.167 3 130.5v140h455v-618h85v-212h-90v130h-500v-130h-90v212zM520.998 82.001v536h-269v-78c0 -101.333 -4.5 -189 -13.5 -263
s-23.5 -139 -43.5 -195h326z" />
    <glyph glyph-name="uni0415" unicode="&#x415;" horiz-adv-x="610" 
d="M100 700h450v-82h-356v-217h326v-82h-326v-237h356v-82h-450v700z" />
    <glyph glyph-name="uni0416" unicode="&#x416;" horiz-adv-x="960" 
d="M288 364l-248 336h104l219 -301h70v301h94v-301h70l221 301h102l-248 -333l258 -367h-110l-223 321h-70v-321h-94v321h-70l-225 -321h-108z" />
    <glyph glyph-name="uni0417" unicode="&#x417;" horiz-adv-x="640" 
d="M321 -10c-41.333 0 -78.001 5.16406 -110.001 15.4971s-59.333 24.833 -82 43.5s-40.667 40.834 -54 66.501s-21.333 53.834 -24 84.501h94c5.33301 -38 23.333 -68.5 54 -91.5s71.334 -34.5 122.001 -34.5c62 0 106.833 11 134.5 33s41.5 51.667 41.5 89
c0 36 -13.333 65.833 -40 89.5s-70.334 35.5 -131.001 35.5h-95v78h95c50 0 86.833 10.833 110.5 32.5s35.5 49.167 35.5 82.5s-12.667 60.333 -38 81s-63 31 -113 31c-53.333 0 -92.5 -10.167 -117.5 -30.5s-39.5 -47.166 -43.5 -80.499h-94
c2.66699 28 9.83398 54 21.501 78s28.167 44.667 49.5 62s47.333 30.833 78 40.5s66 14.5 106 14.5c80.667 0 141.667 -18 183 -54s62 -83.333 62 -142c0 -36.667 -10.5 -67.834 -31.5 -93.501s-48.833 -44.167 -83.5 -55.5c42 -10 75.833 -29.333 101.5 -58
s38.5 -65.667 38.5 -111c0 -30 -5.83301 -57.5 -17.5 -82.5s-29 -46.667 -52 -65s-51.167 -32.666 -84.5 -42.999s-72 -15.5 -116 -15.5z" />
    <glyph glyph-name="uni0418" unicode="&#x418;" horiz-adv-x="760" 
d="M100 700h94v-550l372 550h94v-700h-94v550l-372 -550h-94v700z" />
    <glyph glyph-name="uni0419" unicode="&#x419;" horiz-adv-x="760" 
d="M100 700h94v-550l372 550h94v-700h-94v550l-372 -550h-94v700zM380 750c-56.667 0 -99.166 12.667 -127.499 38s-42.5 62.666 -42.5 111.999h88c0 -30.667 7 -52.667 21 -66s34.333 -20 61 -20c27.333 0 48.166 6.66699 62.499 20s21.5 35.333 21.5 66h86
c0 -49.333 -14.167 -86.666 -42.5 -111.999s-70.833 -38 -127.5 -38z" />
    <glyph glyph-name="uni041A" unicode="&#x41a;" horiz-adv-x="700" 
d="M100 700h94v-301h80l274 301h112l-306 -334l316 -366h-120l-276 321h-80v-321h-94v700z" />
    <glyph glyph-name="uni041B" unicode="&#x41b;" horiz-adv-x="715" 
d="M55 -10c-10 0 -19.999 0.998047 -29.999 2.99805v92c3.33301 -0.666992 8.33301 -1 15 -1c13.333 0 25.166 2.16699 35.499 6.5s19.333 12.333 27 24s14.334 28.167 20.001 49.5s10.167 48.833 13.5 82.5s5.66602 74.5 6.99902 122.5s2 105 2 171v160h470v-700h-94v618
h-282v-98c0 -74 -1.66699 -138.5 -5 -193.5s-8.33301 -102.167 -15 -141.5s-15 -71.666 -25 -96.999s-21.833 -45.166 -35.5 -59.499s-29.167 -24.333 -46.5 -30s-36.333 -8.5 -57 -8.5z" />
    <glyph glyph-name="uni041C" unicode="&#x41c;" horiz-adv-x="860" 
d="M100 700h98l234 -445l234 445h94v-700h-94v530l-201 -380h-70l-201 380v-530h-94v700z" />
    <glyph glyph-name="uni041D" unicode="&#x41d;" horiz-adv-x="760" 
d="M100 700h94v-299h372v299h94v-700h-94v319h-372v-319h-94v700z" />
    <glyph glyph-name="uni041E" unicode="&#x41e;" horiz-adv-x="740" 
d="M370 -10c-40 0 -78.667 6.83301 -116 20.5s-70.333 34.834 -99 63.501s-51.667 65.334 -69 110.001s-26 98.334 -26 161.001v20c0 60 8.66699 111.667 26 155s40.333 79.166 69 107.499s61.667 49.166 99 62.499s76 20 116 20s78.667 -6.66699 116 -20
s70.333 -34.166 99 -62.499s51.667 -64.166 69 -107.499s26 -95 26 -155v-20c0 -62.667 -8.66699 -116.334 -26 -161.001s-40.333 -81.334 -69 -110.001s-61.667 -49.834 -99 -63.501s-76 -20.5 -116 -20.5zM370 74c27.333 0 53.666 5 78.999 15s47.666 25.833 66.999 47.5
s34.833 49.667 46.5 84s17.5 75.833 17.5 124.5v20c0 46 -5.83301 85.5 -17.5 118.5s-27.167 60 -46.5 81s-41.666 36.5 -66.999 46.5s-51.666 15 -78.999 15s-53.666 -5 -78.999 -15s-47.666 -25.5 -66.999 -46.5s-34.833 -48 -46.5 -81s-17.5 -72.5 -17.5 -118.5v-20
c0 -48.667 5.83301 -90.167 17.5 -124.5s27.167 -62.333 46.5 -84s41.666 -37.5 66.999 -47.5s51.666 -15 78.999 -15z" />
    <glyph glyph-name="uni041F" unicode="&#x41f;" horiz-adv-x="750" 
d="M100 700h550v-700h-94v618h-362v-618h-94v700z" />
    <glyph glyph-name="uni0420" unicode="&#x420;" horiz-adv-x="655" 
d="M100 700l240 -0.00195312c46 0 86 -5.33301 120 -16s62.167 -25.5 84.5 -44.5s38.833 -41.667 49.5 -68s16 -55.166 16 -86.499s-5.33301 -60.166 -16 -86.499s-27.167 -49 -49.5 -68s-50.5 -33.833 -84.5 -44.5s-74 -16 -120 -16h-146v-270h-94v700zM335 351.998
c33.333 0 61.5 3.16895 84.5 9.50195s41.667 15.166 56 26.499s24.666 25.333 30.999 42s9.5 35 9.5 55s-3.16699 38.333 -9.5 55s-16.666 30.667 -30.999 42s-33 20.166 -56 26.499s-51.167 9.5 -84.5 9.5h-141v-266h141z" />
    <glyph glyph-name="uni0421" unicode="&#x421;" horiz-adv-x="680" 
d="M355 -10c-39.333 0 -76.667 6.83008 -112 20.4971s-66.666 35 -93.999 64s-49 65.833 -65 110.5s-24 98 -24 160v20c0 60 8 111.667 24 155s37.667 79 65 107s58.666 48.833 93.999 62.5s72.666 20.5 111.999 20.5c38 0 72.833 -5 104.5 -15s59.5 -24.333 83.5 -43
s43.5 -41.667 58.5 -69s24.5 -58.333 28.5 -93h-100c-9.33301 45.333 -29 79.333 -59 102s-68.667 34 -116 34c-24.667 0 -48.667 -4.66699 -72 -14s-44.166 -24.166 -62.499 -44.499s-33 -47.166 -44 -80.499s-16.5 -74 -16.5 -122v-20c0 -50.667 6 -93.167 18 -127.5
s27.333 -62.166 46 -83.499s39.667 -36.666 63 -45.999s46 -14 68 -14c52 0 92.667 12.667 122 38s47 58 53 98h100c-5.33301 -38.667 -16 -71.834 -32 -99.501s-36.167 -50.5 -60.5 -68.5s-52 -31.167 -83 -39.5s-64.167 -12.5 -99.5 -12.5z" />
    <glyph glyph-name="uni0422" unicode="&#x422;" 
d="M263 618h-243v82h580v-82h-243v-618h-94v618z" />
    <glyph glyph-name="uni0423" unicode="&#x423;" horiz-adv-x="670" 
d="M205 -10c-7.33301 0 -14.4971 0.167969 -21.4971 0.500977s-13.167 0.833008 -18.5 1.5v84c5.33301 -0.666992 11.5 -1.16699 18.5 -1.5s14.167 -0.5 21.5 -0.5c14 0 26 1.16699 36 3.5s18.833 6.66602 26.5 12.999s14.667 14.833 21 25.5s13.166 24.667 20.499 42
l-289 542h102l234 -445l198 445h96l-255 -563c-11.333 -25.333 -23 -47.333 -35 -66s-25.333 -34 -40 -46s-31.334 -20.833 -50.001 -26.5s-40.334 -8.5 -65.001 -8.5z" />
    <glyph glyph-name="uni0424" unicode="&#x424;" horiz-adv-x="860" 
d="M383 43c-51.333 0 -97.333 7.33301 -138 22s-75 35.5 -103 62.5s-49.5 59.333 -64.5 97s-22.5 79.5 -22.5 125.5v20c0 40.667 7.5 78.667 22.5 114s36.5 65.666 64.5 90.999s62.333 45.333 103 60s86.667 22 138 22v73h94v-73c51.333 0 97.333 -7.33301 138 -22
s75 -34.667 103 -60s49.5 -55.666 64.5 -90.999s22.5 -73.333 22.5 -114v-20c0 -46 -7.5 -87.833 -22.5 -125.5s-36.5 -70 -64.5 -97s-62.333 -47.833 -103 -62.5s-86.667 -22 -138 -22v-73h-94v73zM705 370c0 28.667 -5 55.335 -15 80.002s-24.667 46.167 -44 64.5
s-43.166 32.666 -71.499 42.999s-60.833 15.5 -97.5 15.5v-446c36.667 0 69.167 5.33301 97.5 16s52.166 25.667 71.499 45s34 42.666 44 69.999s15 58 15 92v20zM155 350.001c0 -34 5 -64.668 15 -92.001s24.667 -50.666 44 -69.999s43.166 -34.333 71.499 -45
s60.833 -16 97.5 -16v446c-36.667 0 -69.167 -5.16699 -97.5 -15.5s-52.166 -24.666 -71.499 -42.999s-34 -39.833 -44 -64.5s-15 -51.334 -15 -80.001v-20z" />
    <glyph glyph-name="uni0425" unicode="&#x425;" horiz-adv-x="660" 
d="M277 357l-237 343h104l187 -271l189 271h100l-236 -341l246 -359h-106l-195 288l-197 -288h-102z" />
    <glyph glyph-name="uni0426" unicode="&#x426;" horiz-adv-x="765" 
d="M645 0h-545v700h94v-618h352v618h94v-618h95v-212h-90v130z" />
    <glyph glyph-name="uni0427" unicode="&#x427;" horiz-adv-x="670" 
d="M476 308c-17.333 -11.333 -41.667 -21.667 -73 -31s-67.333 -14 -108 -14c-82 0 -141.667 18.5 -179 55.5s-56 95.833 -56 176.5v205h94v-205c0 -52.667 11.667 -90.5 35 -113.5s62 -34.5 116 -34.5c41.333 0 75.833 5 103.5 15s50.167 20.667 67.5 32v306h94v-700h-94
v308z" />
    <glyph glyph-name="uni0428" unicode="&#x428;" horiz-adv-x="970" 
d="M100 700h94v-618h244v618h94v-618h244v618h94v-700h-770v700z" />
    <glyph glyph-name="uni0429" unicode="&#x429;" horiz-adv-x="995" 
d="M100 700h94v-618h244v618h94v-618h244v618h94v-618h95v-212h-90v130h-775v700z" />
    <glyph glyph-name="uni042A" unicode="&#x42a;" horiz-adv-x="735" 
d="M180 618l-160 0.00195312v82h254v-280h146c46 0 86 -5 120 -15s62.167 -24.333 84.5 -43s38.833 -40.834 49.5 -66.501s16 -54.167 16 -85.5s-5.33301 -59.833 -16 -85.5s-27.167 -47.834 -49.5 -66.501s-50.5 -33 -84.5 -43s-74 -15 -120 -15h-240v618zM415 82.002
c66.667 0 113.5 11.167 140.5 33.5s40.5 53.833 40.5 94.5s-13.5 72.167 -40.5 94.5s-73.833 33.5 -140.5 33.5h-141v-256h141z" />
    <glyph glyph-name="uni042B" unicode="&#x42b;" horiz-adv-x="890" 
d="M100 700l94 0.00195312v-280h126c46 0 86 -5 120 -15s62.167 -24.333 84.5 -43s38.833 -40.834 49.5 -66.501s16 -54.167 16 -85.5s-5.33301 -59.833 -16 -85.5s-27.167 -47.834 -49.5 -66.501s-50.5 -33 -84.5 -43s-74 -15 -120 -15h-220v700zM315 82.002
c66.667 0 113.5 11.167 140.5 33.5s40.5 53.833 40.5 94.5s-13.5 72.167 -40.5 94.5s-73.833 33.5 -140.5 33.5h-121v-256h121zM696 700.002h94v-700h-94v700z" />
    <glyph glyph-name="uni042C" unicode="&#x42c;" horiz-adv-x="655" 
d="M100 700l94 0.00195312v-280h146c46 0 86 -5 120 -15s62.167 -24.333 84.5 -43s38.833 -40.834 49.5 -66.501s16 -54.167 16 -85.5s-5.33301 -59.833 -16 -85.5s-27.167 -47.834 -49.5 -66.501s-50.5 -33 -84.5 -43s-74 -15 -120 -15h-240v700zM335 82.002
c66.667 0 113.5 11.167 140.5 33.5s40.5 53.833 40.5 94.5s-13.5 72.167 -40.5 94.5s-73.833 33.5 -140.5 33.5h-141v-256h141z" />
    <glyph glyph-name="uni042D" unicode="&#x42d;" horiz-adv-x="680" 
d="M325 -10c-35.333 0 -68.502 4.16504 -99.502 12.498s-58.667 21.5 -83 39.5s-44.5 40.833 -60.5 68.5s-26.667 60.834 -32 99.501h100c6 -40 23.667 -72.667 53 -98s70 -38 122 -38c20.667 0 42 3.66699 64 11s42.333 20.333 61 39s34.334 43.334 47.001 74.001
s20 69.667 22 117h-279v80h279c-2 44 -8.83301 80.833 -20.5 110.5s-26.5 53.5 -44.5 71.5s-38.167 30.667 -60.5 38s-45.166 11 -68.499 11c-47.333 0 -86 -11.333 -116 -34s-49.667 -56.667 -59 -102h-100c4 34.667 13.5 65.667 28.5 93s34.5 50.333 58.5 69
s51.833 33 83.5 43s66.5 15 104.5 15c38.667 0 75.834 -6.33301 111.501 -19s67.167 -32.667 94.5 -60s49 -63 65 -107s24 -97 24 -159v-20c0 -64.667 -8 -119.5 -24 -164.5s-37.667 -81.667 -65 -110s-58.833 -48.833 -94.5 -61.5s-72.834 -19 -111.501 -19z" />
    <glyph glyph-name="uni042E" unicode="&#x42e;" horiz-adv-x="950" 
d="M100 700l93.9961 0.00292969v-299h133c2.66699 54.667 11.834 101.5 27.501 140.5s35.834 71 60.501 96s53.334 43.333 86.001 55s67.334 17.5 104.001 17.5c38.667 0 75.334 -6.5 110.001 -19.5s65 -33.333 91 -61s46.5 -63.334 61.5 -107.001s22.5 -96.167 22.5 -157.5
v-20c0 -64 -7.5 -118.333 -22.5 -163s-35.5 -81.334 -61.5 -110.001s-56.333 -49.5 -91 -62.5s-71.334 -19.5 -110.001 -19.5c-37.333 0 -72.5 6 -105.5 18s-62 31.333 -87 58s-45.167 60.667 -60.5 102s-24 91.666 -26 150.999h-132v-319h-94v700zM604.996 74.0029
c24.667 0 48.334 5 71.001 15s42.334 25.833 59.001 47.5s30 49.667 40 84s15 75.833 15 124.5v20c0 46 -5 85.5 -15 118.5s-23.333 60 -40 81s-36.334 36.5 -59.001 46.5s-46.334 15 -71.001 15c-25.333 0 -49.166 -5 -71.499 -15s-41.833 -25.5 -58.5 -46.5
s-30 -48 -40 -81s-15 -72.5 -15 -118.5v-20c0 -48.667 5 -90.167 15 -124.5s23.333 -62.333 40 -84s36.167 -37.5 58.5 -47.5s46.166 -15 71.499 -15z" />
    <glyph glyph-name="uni042F" unicode="&#x42f;" horiz-adv-x="685" 
d="M237 294c-54 14.667 -94.5 39.498 -121.5 74.498s-40.5 75.5 -40.5 121.5c0 30 5.66699 57.833 17 83.5s28 47.834 50 66.501s49.5 33.334 82.5 44.001s71.5 16 115.5 16h245v-700h-94v282h-162l-178 -282h-106zM169 489.998c0 -38 14 -68.833 42 -92.5
s74.333 -35.5 139 -35.5h141v256h-141c-64.667 0 -111 -11.833 -139 -35.5s-42 -54.5 -42 -92.5z" />
    <glyph glyph-name="uni0430" unicode="&#x430;" horiz-adv-x="565" 
d="M231 -10c-29.333 0 -55.168 4.16992 -77.501 12.5029s-41.166 19.833 -56.499 34.5s-27 32 -35 52s-12 42 -12 66c0 52.667 15.5 90.667 46.5 114s75.5 35 133.5 35h172v36c0 45.333 -10.167 76.666 -30.5 93.999s-50.833 26 -91.5 26c-38 0 -65.667 -7.16699 -83 -21.5
s-27 -30.5 -29 -48.5h-88c1.33301 21.333 7.16602 41.166 17.499 59.499s24.333 34.166 42 47.499s38.834 23.833 63.501 31.5s52 11.5 82 11.5c62.667 0 112.5 -14.833 149.5 -44.5s55.5 -78.167 55.5 -145.5v-215c0 -28 0.166992 -52.5 0.5 -73.5s1.83301 -41.5 4.5 -61.5
h-77c-2 15.333 -3.33301 29.833 -4 43.5s-1 29.167 -1 46.5c-14 -28 -36.667 -51.667 -68 -71s-69.333 -29 -114 -29zM249.998 70.0029c20.667 0 40.168 2.83301 58.501 8.5s34.5 14 48.5 25s25 24.5 33 40.5s12 34.667 12 56v36h-157c-32.667 0 -58.334 -6.5 -77.001 -19.5
s-28 -33.5 -28 -61.5c0 -24.667 8.83301 -45 26.5 -61s45.5 -24 83.5 -24z" />
    <glyph glyph-name="uni0431" unicode="&#x431;" horiz-adv-x="595" 
d="M300 -10c-35.333 0 -68.167 6.66699 -98.5 20s-56.666 32.833 -78.999 58.5s-40 57.167 -53 94.5s-19.5 79.666 -19.5 126.999v20c0 60 4.33301 113.5 13 160.5s23.5 87 44.5 120s48.667 58.833 83 77.5s77.5 29.334 129.5 32.001c42 2 78.667 3.83301 110 5.5
s58 8.16699 80 19.5v-85c-10.667 -6 -30.167 -10.667 -58.5 -14s-67.166 -5.66602 -116.499 -6.99902c-32 -0.666992 -60.167 -4.66699 -84.5 -12s-45 -19 -62 -35s-30.333 -36.833 -40 -62.5s-15.834 -57.167 -18.501 -94.5c16 35.333 40.667 63.333 74 84s72 31 116 31
c34 0 65 -5.83301 93 -17.5s52.167 -28.167 72.5 -49.5s36.166 -47.5 47.499 -78.5s17 -65.833 17 -104.5v-20c0 -41.333 -6.33301 -78.5 -19 -111.5s-30 -61.333 -52 -85s-48.333 -41.834 -79 -54.501s-64 -19 -100 -19zM299.999 70c46.667 0 85 16.167 115 48.5
s45 79.5 45 141.5v20c0 26 -4 49.333 -12 70s-19 38.5 -33 53.5s-30.833 26.5 -50.5 34.5s-41.167 12 -64.5 12s-44.833 -4 -64.5 -12s-36.5 -19.5 -50.5 -34.5s-25 -32.833 -33 -53.5s-12 -44 -12 -70v-20c0 -29.333 4.16699 -55.833 12.5 -79.5s19.833 -43.667 34.5 -60
s31.667 -28.833 51 -37.5s40 -13 62 -13z" />
    <glyph glyph-name="uni0432" unicode="&#x432;" horiz-adv-x="565" 
d="M80 530h230c65.333 0 113.333 -13.5 144 -40.5s46 -61.833 46 -104.5c0 -11.333 -2 -22.833 -6 -34.5s-9.5 -22.5 -16.5 -32.5s-15.333 -18.667 -25 -26s-20.5 -13 -32.5 -17c32.667 -8 57.5 -23.167 74.5 -45.5s25.5 -48.5 25.5 -78.5c0 -46 -15.333 -82.667 -46 -110
s-78.667 -41 -144 -41h-250v530zM330 78c37.333 0 63.666 6.66699 78.999 20s23 32.333 23 57c0 25.333 -7.66699 44.833 -23 58.5s-41.666 20.5 -78.999 20.5h-162v-156h162zM310 306c38 0 64.5 6.66797 79.5 20.001s22.5 31.666 22.5 54.999c0 22 -7.5 39.333 -22.5 52
s-41.5 19 -79.5 19h-142v-146h142z" />
    <glyph glyph-name="uni0433" unicode="&#x433;" horiz-adv-x="460" 
d="M80 530h360v-78h-272v-452h-88v530z" />
    <glyph glyph-name="uni0434" unicode="&#x434;" horiz-adv-x="605" 
d="M20 78h65c7.33301 10 14 25.333 20 46s11.333 45 16 73s8.16699 58.5 10.5 91.5s3.5 66.833 3.5 101.5v140h370v-452h75v-203h-84v125h-392v-125h-84v203zM417 78v374h-196v-82c0 -28 -1 -55.833 -3 -83.5s-5 -54 -9 -79s-8.83301 -48.667 -14.5 -71
s-12.167 -41.833 -19.5 -58.5h242z" />
    <glyph glyph-name="uni0435" unicode="&#x435;" horiz-adv-x="580" 
d="M300 -10c-34 0 -66.332 5.33008 -96.999 15.9971s-57.667 27.167 -81 49.5s-42 50.5 -56 84.5s-21 74 -21 120v20c0 44 6.66699 82.167 20 114.5s31.166 59.333 53.499 81s48.333 37.834 78 48.501s60.834 16 93.501 16c78 0 138.333 -21.333 181 -64s64 -103 64 -181
v-56h-402c0 -31.333 5 -57.666 15 -78.999s23 -38.666 39 -51.999s33.833 -23 53.5 -29s39.5 -9 59.5 -9c40 0 70.833 6.66699 92.5 20s37.167 31.666 46.5 54.999h86c-5.33301 -25.333 -14.833 -47.666 -28.5 -66.999s-30.334 -35.5 -50.001 -48.5s-42 -22.833 -67 -29.5
s-51.5 -10 -79.5 -10zM295.001 459.997c-20.667 0 -40.667 -2.83301 -60 -8.5s-36.5 -14.667 -51.5 -27s-27.167 -27.833 -36.5 -46.5s-14 -41 -14 -67h319c-0.666992 27.333 -5.16699 50.5 -13.5 69.5s-19.5 34.333 -33.5 46s-30.5 20.167 -49.5 25.5s-39.167 8 -60.5 8z
" />
    <glyph glyph-name="uni0436" unicode="&#x436;" horiz-adv-x="800" 
d="M225 273l-190 257h98l162 -222h61v222h88v-222h60l165 222h96l-190 -254l200 -276h-104l-167 232h-60v-232h-88v232h-61l-168 -232h-102z" />
    <glyph glyph-name="uni0437" unicode="&#x437;" horiz-adv-x="525" 
d="M260 -10c-66.667 0 -119.002 14.002 -157.002 42.002s-59 67.333 -63 118h88c4.66699 -26 18.5 -45.833 41.5 -59.5s53.167 -20.5 90.5 -20.5c46 0 79.5 7.83301 100.5 23.5s31.5 34.5 31.5 56.5c0 26 -8.66699 46.5 -26 61.5s-47.333 22.5 -90 22.5h-91v72h85
c36.667 0 62.834 7 78.501 21s23.5 33.667 23.5 59c0 20 -9.33301 37.333 -28 52s-46.667 22 -84 22c-40.667 0 -70.167 -6.5 -88.5 -19.5s-29.5 -31.5 -33.5 -55.5h-88c2 22 8.16699 42.5 18.5 61.5s24.5 35.5 42.5 49.5s39.5 24.833 64.5 32.5s53.167 11.5 84.5 11.5
c34 0 63.5 -3.83301 88.5 -11.5s45.833 -18.334 62.5 -32.001s29 -29.834 37 -48.501s12 -39.334 12 -62.001c0 -25.333 -6.33301 -47.5 -19 -66.5s-33 -33.833 -61 -44.5c37.333 -10 63.333 -26 78 -48s22 -47.667 22 -77c0 -22 -4.66699 -42.667 -14 -62
s-23.166 -36.166 -41.499 -50.499s-41.333 -25.833 -69 -34.5s-59.5 -13 -95.5 -13z" />
    <glyph glyph-name="uni0438" unicode="&#x438;" horiz-adv-x="610" 
d="M80 530h88v-400l274 400h88v-530h-88v400l-274 -400h-88v530z" />
    <glyph glyph-name="uni0439" unicode="&#x439;" horiz-adv-x="610" 
d="M80 530h88v-400l274 400h88v-530h-88v400l-274 -400h-88v530zM305 595c-52 0 -90 11.167 -114 33.5s-36 54.5 -36 96.5h86c0 -45.333 21.333 -68 64 -68c44 0 66 22.667 66 68h84c0 -42 -12 -74.167 -36 -96.5s-62 -33.5 -114 -33.5z" />
    <glyph glyph-name="uni043A" unicode="&#x43a;" horiz-adv-x="575" 
d="M80 530h88v-222h70l198 222h104l-230 -254l240 -276h-112l-200 232h-70v-232h-88v530z" />
    <glyph glyph-name="uni043B" unicode="&#x43b;" horiz-adv-x="585" 
d="M55 -10c-10 0 -20 1.00098 -30 3.00098v88c3.33301 -0.666992 8.33301 -1 15 -1c14.667 0 27.5 4.66699 38.5 14s19.833 25.666 26.5 48.999s11.667 55 15 95s5 90.667 5 152v140h380v-530h-88v452h-204v-82c0 -74 -3.33301 -135.333 -10 -184s-16.5 -87.5 -29.5 -116.5
s-29.5 -49.5 -49.5 -61.5s-43 -18 -69 -18z" />
    <glyph glyph-name="uni043C" unicode="&#x43c;" horiz-adv-x="720" 
d="M80 530h94l189 -330l189 330h88v-530h-88v385l-157 -270h-70l-157 270v-385h-88v530z" />
    <glyph glyph-name="uni043D" unicode="&#x43d;" horiz-adv-x="610" 
d="M80 530h88v-221h274v221h88v-530h-88v231h-274v-231h-88v530z" />
    <glyph glyph-name="uni043E" unicode="&#x43e;" horiz-adv-x="600" 
d="M300 -10c-34 0 -66.333 5.5 -97 16.5s-57.667 27.667 -81 50s-42 50.5 -56 84.5s-21 73.667 -21 119v20c0 42.667 7 80.334 21 113.001s32.667 59.834 56 81.501s50.333 38 81 49s63 16.5 97 16.5s66.333 -5.5 97 -16.5s57.667 -27.333 81 -49s42 -48.834 56 -81.501
s21 -70.334 21 -113.001v-20c0 -45.333 -7 -85 -21 -119s-32.667 -62.167 -56 -84.5s-50.333 -39 -81 -50s-63 -16.5 -97 -16.5zM300 70c20 0 40 3.5 60 10.5s37.667 18 53 33s27.833 34.5 37.5 58.5s14.5 53.333 14.5 88v20c0 32 -4.83301 59.333 -14.5 82
s-22.167 41.334 -37.5 56.001s-33 25.334 -53 32.001s-40 10 -60 10s-40 -3.33301 -60 -10s-37.667 -17.334 -53 -32.001s-27.833 -33.334 -37.5 -56.001s-14.5 -50 -14.5 -82v-20c0 -34.667 4.83301 -64 14.5 -88s22.167 -43.5 37.5 -58.5s33 -26 53 -33s40 -10.5 60 -10.5
z" />
    <glyph glyph-name="uni043F" unicode="&#x43f;" horiz-adv-x="600" 
d="M80 530h440v-530h-88v452h-264v-452h-88v530z" />
    <glyph glyph-name="uni0440" unicode="&#x440;" horiz-adv-x="615" 
d="M80 530l81.998 -0.000976562v-100c18 35.333 43.167 62.5 75.5 81.5s69.833 28.5 112.5 28.5c66.667 0 120 -21.833 160 -65.5s60 -108.5 60 -194.5v-20c0 -45.333 -5.33301 -84.833 -16 -118.5s-25.667 -61.667 -45 -84s-42.5 -39.166 -69.5 -50.499
s-56.833 -17 -89.5 -17c-45.333 0 -83.166 10 -113.499 30s-53.166 45 -68.499 75v-295h-88v730zM329.998 67.999c21.333 0 41.333 4.16699 60 12.5s34.834 20.5 48.501 36.5s24.334 36 32.001 60s11.5 51.667 11.5 83v20c0 28.667 -3.83301 54.334 -11.5 77.001
s-18.334 41.834 -32.001 57.501s-29.834 27.5 -48.501 35.5s-38.667 12 -60 12c-24 0 -46 -3.83301 -66 -11.5s-37 -18.334 -51 -32.001s-25 -29.834 -33 -48.501s-12 -38.667 -12 -60v-80c0 -24 4 -46 12 -66s19 -37 33 -51s31 -25 51 -33s42 -12 66 -12z" />
    <glyph glyph-name="uni0441" unicode="&#x441;" horiz-adv-x="545" 
d="M285 -10c-34 0 -65.6689 5.49805 -95.002 16.498s-54.666 27.667 -75.999 50s-38.166 50.5 -50.499 84.5s-18.5 73.667 -18.5 119v20c0 42.667 6.66699 80.334 20 113.001s31 59.834 53 81.501s47.5 38 76.5 49s59.167 16.5 90.5 16.5s59.5 -4.33301 84.5 -13
s46.667 -20.667 65 -36s33.333 -33.333 45 -54s20.167 -43 25.5 -67h-90c-5.33301 12.667 -11.5 24.5 -18.5 35.5s-15.667 20.5 -26 28.5s-22.5 14.333 -36.5 19s-30.333 7 -49 7c-19.333 0 -38 -3.5 -56 -10.5s-34 -17.667 -48 -32s-25.167 -32.833 -33.5 -55.5
s-12.5 -50 -12.5 -82v-20c0 -34 4.16699 -63.167 12.5 -87.5s19.5 -44 33.5 -59s30 -26 48 -33s36.667 -10.5 56 -10.5c32.667 0 60.167 8 82.5 24s38.166 38 47.499 66h90c-12.667 -52.667 -38.667 -94.167 -78 -124.5s-86.666 -45.5 -141.999 -45.5z" />
    <glyph glyph-name="uni0442" unicode="&#x442;" horiz-adv-x="490" 
d="M201 452h-181v78h450v-78h-181v-452h-88v452z" />
    <glyph glyph-name="uni0443" unicode="&#x443;" horiz-adv-x="560" 
d="M150 -210c-10 0 -20.002 1.00098 -30.002 3.00098v80c10 -2 20 -3 30 -3s18.667 1.66699 26 5s14.333 9.66602 21 18.999s13.834 22.5 21.501 39.5s16.5 39.167 26.5 66.5l-225 530h98l172 -430l156 430h94l-200 -530c-14 -37.333 -27.333 -69.333 -40 -96
s-26.167 -48.5 -40.5 -65.5s-30.166 -29.333 -47.499 -37s-38 -11.5 -62 -11.5z" />
    <glyph glyph-name="uni0444" unicode="&#x444;" horiz-adv-x="740" 
d="M326 -10c-92 0 -161.833 23.333 -209.5 70s-71.5 113 -71.5 199v20c0 82 23.833 146 71.5 192s117.5 69 209.5 69v160h88v-160c92 0 161.833 -23 209.5 -69s71.5 -110 71.5 -192v-20c0 -86 -23.833 -152.333 -71.5 -199s-117.5 -70 -209.5 -70v-190h-88v190zM605 279
c0 60.667 -15.5 105.999 -46.5 135.999s-79.5 45 -145.5 45v-390c66 0 114.5 15.333 145.5 46s46.5 78.334 46.5 143.001v20zM135 258.999c0 -64.667 15.5 -112.333 46.5 -143s79.5 -46 145.5 -46v390c-66 0 -114.5 -15 -145.5 -45s-46.5 -75.333 -46.5 -136v-20z" />
    <glyph glyph-name="uni0445" unicode="&#x445;" horiz-adv-x="550" 
d="M224 269l-189 261h102l140 -193l140 193h98l-189 -256l199 -274h-104l-148 207l-148 -207h-100z" />
    <glyph glyph-name="uni0446" unicode="&#x446;" 
d="M511 0h-431v530h88v-452h254v452h88v-452h85v-203h-84v125z" />
    <glyph glyph-name="uni0447" unicode="&#x447;" horiz-adv-x="555" 
d="M387 211c-15.333 -9.33301 -33.8311 -17.6689 -55.498 -25.002s-48.834 -11 -81.501 -11c-30.667 0 -58.167 3.33301 -82.5 10s-44.833 17.334 -61.5 32.001s-29.334 33.667 -38.001 57s-13 52 -13 86v170h88v-155c0 -22.667 2.16699 -41.667 6.5 -57
s11.5 -27.666 21.5 -36.999s22.667 -16 38 -20s34 -6 56 -6c30 0 55.667 3 77 9s36.333 12.333 45 19v247h88v-530h-88v211z" />
    <glyph glyph-name="uni0448" unicode="&#x448;" horiz-adv-x="810" 
d="M80 530h88v-452h193v452h88v-452h193v452h88v-530h-650v530z" />
    <glyph glyph-name="uni0449" unicode="&#x449;" horiz-adv-x="840" 
d="M731 0h-651v530h88v-452h193v452h88v-452h193v452h88v-452h85v-203h-84v125z" />
    <glyph glyph-name="uni044A" unicode="&#x44a;" horiz-adv-x="605" 
d="M160 452h-140v78h228v-200h127c66.667 0 115.834 -14.667 147.501 -44s47.5 -70 47.5 -122c0 -50.667 -15.833 -90.667 -47.5 -120s-80.834 -44 -147.501 -44h-215v452zM370 78c41.333 0 70.333 7.33105 87 21.998s25 36.334 25 65.001s-8.33301 50.334 -25 65.001
s-45.667 22 -87 22h-122v-174h122z" />
    <glyph glyph-name="uni044B" unicode="&#x44b;" horiz-adv-x="720" 
d="M80 530h88v-200h107c66.667 0 115.834 -14.667 147.501 -44s47.5 -70 47.5 -122c0 -50.667 -15.833 -90.667 -47.5 -120s-80.834 -44 -147.501 -44h-195v530zM270 78c41.333 0 70.333 7.33105 87 21.998s25 36.334 25 65.001s-8.33301 50.334 -25 65.001
s-45.667 22 -87 22h-102v-174h102zM552 529.998h88v-530h-88v530z" />
    <glyph glyph-name="uni044C" unicode="&#x44c;" horiz-adv-x="525" 
d="M80 530h88v-200h127c66.667 0 115.834 -14.667 147.501 -44s47.5 -70 47.5 -122c0 -50.667 -15.833 -90.667 -47.5 -120s-80.834 -44 -147.501 -44h-215v530zM290 78c41.333 0 70.333 7.33105 87 21.998s25 36.334 25 65.001s-8.33301 50.334 -25 65.001
s-45.667 22 -87 22h-122v-174h122z" />
    <glyph glyph-name="uni044D" unicode="&#x44d;" horiz-adv-x="545" 
d="M260 -10c-55.333 0 -102.666 15.1699 -141.999 45.5029s-65.333 71.833 -78 124.5h90c9.33301 -28 25.166 -50 47.499 -66s49.833 -24 82.5 -24c20 0 38.5 3 55.5 9s32 15.333 45 28s23.833 29.167 32.5 49.5s14 45.166 16 74.499h-209v78h209
c-4.66699 53.333 -20.667 91.833 -48 115.5s-61 35.5 -101 35.5c-18.667 0 -35 -2.33301 -49 -7s-26.167 -11 -36.5 -19s-19.166 -17.5 -26.499 -28.5s-13.333 -22.833 -18 -35.5h-90c4.66699 24 13 46.333 25 67s27.167 38.667 45.5 54s40 27.333 65 36s53.167 13 84.5 13
c34 0 65.5 -5.5 94.5 -16.5s54.333 -27.333 76 -49s38.667 -48.834 51 -81.501s18.5 -70.334 18.5 -113.001v-20c0 -45.333 -6 -85 -18 -119s-28.5 -62.167 -49.5 -84.5s-46.333 -39 -76 -50s-61.834 -16.5 -96.501 -16.5z" />
    <glyph glyph-name="uni044E" unicode="&#x44e;" horiz-adv-x="775" 
d="M80 530l88.001 0.00195312v-221h75c2.66699 38 11 71.5 25 100.5s31.833 53.167 53.5 72.5s46.5 33.833 74.5 43.5s57.667 14.5 89 14.5c34 0 65.833 -5.5 95.5 -16.5s55.5 -27.333 77.5 -49s39.5 -48.834 52.5 -81.501s19.5 -70.334 19.5 -113.001v-20
c0 -45.333 -6.5 -85 -19.5 -119s-30.5 -62.167 -52.5 -84.5s-47.833 -39 -77.5 -50s-61.5 -16.5 -95.5 -16.5c-31.333 0 -61.166 4.83301 -89.499 14.5s-53.333 24.5 -75 44.5s-39.334 45.167 -53.001 75.5s-21.834 65.833 -24.501 106.5h-75v-231h-88v530zM485.001 70.002
c20 0 39.333 3.5 58 10.5s35.167 18 49.5 33s25.833 34.5 34.5 58.5s13 53.333 13 88v20c0 32 -4.33301 59.333 -13 82s-20.167 41.334 -34.5 56.001s-30.833 25.334 -49.5 32.001s-38 10 -58 10s-39.333 -3.33301 -58 -10s-35.167 -17.334 -49.5 -32.001
s-25.833 -33.334 -34.5 -56.001s-13 -50 -13 -82v-20c0 -34.667 4.33301 -64 13 -88s20.167 -43.5 34.5 -58.5s30.833 -26 49.5 -33s38 -10.5 58 -10.5z" />
    <glyph glyph-name="uni044F" unicode="&#x44f;" horiz-adv-x="570" 
d="M184 210c-44 10 -75.667 28.168 -95 54.501s-29 60.166 -29 101.499c0 52 15.833 92.333 47.5 121s82.5 43 152.5 43h230v-530h-88v202h-135l-129 -202h-98zM148 366.001c0 -28 8.16699 -49.333 24.5 -64s43.833 -22 82.5 -22h147v172h-147
c-38.667 0 -66.167 -7.33301 -82.5 -22s-24.5 -36 -24.5 -64z" />
    <glyph glyph-name="uni0451" unicode="&#x451;" horiz-adv-x="580" 
d="M300 -10c-34 0 -66.332 5.33008 -96.999 15.9971s-57.667 27.167 -81 49.5s-42 50.5 -56 84.5s-21 74 -21 120v20c0 44 6.66699 82.167 20 114.5s31.166 59.333 53.499 81s48.333 37.834 78 48.501s60.834 16 93.501 16c78 0 138.333 -21.333 181 -64s64 -103 64 -181
v-56h-402c0 -31.333 5 -57.666 15 -78.999s23 -38.666 39 -51.999s33.833 -23 53.5 -29s39.5 -9 59.5 -9c40 0 70.833 6.66699 92.5 20s37.167 31.666 46.5 54.999h86c-5.33301 -25.333 -14.833 -47.666 -28.5 -66.999s-30.334 -35.5 -50.001 -48.5s-42 -22.833 -67 -29.5
s-51.5 -10 -79.5 -10zM295.001 459.997c-20.667 0 -40.667 -2.83301 -60 -8.5s-36.5 -14.667 -51.5 -27s-27.167 -27.833 -36.5 -46.5s-14 -41 -14 -67h319c-0.666992 27.333 -5.16699 50.5 -13.5 69.5s-19.5 34.333 -33.5 46s-30.5 20.167 -49.5 25.5s-39.167 8 -60.5 8z
M188.001 601.997c-16 0 -29.667 5.66699 -41 17s-17 25 -17 41s5.66699 29.667 17 41s25 17 41 17s29.667 -5.66699 41 -17s17 -25 17 -41s-5.66699 -29.667 -17 -41s-25 -17 -41 -17zM392.001 601.997c-16 0 -29.667 5.66699 -41 17s-17 25 -17 41s5.66699 29.667 17 41
s25 17 41 17s29.667 -5.66699 41 -17s17 -25 17 -41s-5.66699 -29.667 -17 -41s-25 -17 -41 -17z" />
    <glyph glyph-name="uni0452" unicode="&#x452;" 
d="M110 456l-90.001 -0.00292969v74h90v170h88v-170h232v-74h-232v-161c6.66699 14 15.334 27.333 26.001 40s23.167 23.834 37.5 33.501s30.5 17.334 48.5 23.001s37.333 8.5 58 8.5c64 0 112 -17.833 144 -53.5s48 -87.834 48 -156.501v-190
c0 -41.333 -2.83301 -75.5 -8.5 -102.5s-14.834 -48.5 -27.501 -64.5s-29.167 -27.167 -49.5 -33.5s-45.166 -9.5 -74.499 -9.5c-7.33301 0 -15.666 0.166992 -24.999 0.5s-17.666 1.16602 -24.999 2.49902v80c5.33301 -1.33301 11.166 -2.16602 17.499 -2.49902
s12.166 -0.5 17.499 -0.5c16.667 0 30.667 1.83301 42 5.5s20.333 10.334 27 20.001s11.334 22.834 14.001 39.501s4 38.334 4 65.001v170c0 49.333 -10.167 86.666 -30.5 111.999s-53.5 38 -99.5 38c-25.333 0 -47 -4.33301 -65 -13s-32.833 -20 -44.5 -34
s-20.334 -30 -26.001 -48s-8.5 -36.333 -8.5 -55v-170h-88v456z" />
    <glyph glyph-name="uni0453" unicode="&#x453;" horiz-adv-x="460" 
d="M80 530h360v-78h-272v-452h-88v530zM335 740h110l-150 -160h-70z" />
    <glyph glyph-name="uni0454" unicode="&#x454;" horiz-adv-x="545" 
d="M285 -10c-34 0 -65.6709 5.49707 -95.0039 16.4971s-54.666 27.667 -75.999 50s-38.166 50.5 -50.499 84.5s-18.5 73.667 -18.5 119v20c0 42.667 6.66699 80.334 20 113.001s31 59.834 53 81.501s47.5 38 76.5 49s59.167 16.5 90.5 16.5s59.5 -4.33301 84.5 -13
s46.667 -20.667 65 -36s33.333 -33.333 45 -54s20.167 -43 25.5 -67h-90c-5.33301 12.667 -11.5 24.5 -18.5 35.5s-15.667 20.5 -26 28.5s-22.5 14.333 -36.5 19s-30.333 7 -49 7c-17.333 0 -34.5 -2.83301 -51.5 -8.5s-32.167 -14.667 -45.5 -27s-24.666 -28 -33.999 -47
s-15.333 -41.833 -18 -68.5h209v-78h-209c2 -29.333 7.66699 -54.166 17 -74.499s20.833 -36.833 34.5 -49.5s28.834 -22 45.501 -28s34 -9 52 -9c32.667 0 60.167 8 82.5 24s38.166 38 47.499 66h90c-12.667 -52.667 -38.667 -94.167 -78 -124.5
s-86.666 -45.5 -141.999 -45.5z" />
    <glyph glyph-name="uni0455" unicode="&#x455;" horiz-adv-x="530" 
d="M265 -10c-35.333 0 -65.8301 4.16406 -91.4971 12.4971s-47.5 19.5 -65.5 33.5s-32 30.333 -42 49s-17 38.667 -21 60h88c4.66699 -21.333 17.167 -39.833 37.5 -55.5s51.833 -23.5 94.5 -23.5c24.667 0 45.334 2.16699 62.001 6.5s30.167 10 40.5 17
s17.833 15.333 22.5 25s7 19.834 7 30.501c0 11.333 -2.16699 21.333 -6.5 30s-12 16.5 -23 23.5s-26 13.333 -45 19s-42.833 10.5 -71.5 14.5c-29.333 4 -55.833 9.83301 -79.5 17.5s-43.667 17.834 -60 30.501s-29 27.834 -38 45.501s-13.5 39.167 -13.5 64.5
c0 20 4.33301 39 13 57s21.667 34 39 48s38.666 25 63.999 33s55 12 89 12c31.333 0 58.666 -4.16699 81.999 -12.5s43.166 -19.5 59.499 -33.5s29.166 -30.333 38.499 -49s16 -38.667 20 -60h-88c-5.33301 23.333 -16.666 42.333 -33.999 57s-43.333 22 -78 22
c-43.333 0 -73.666 -7.16699 -90.999 -21.5s-26 -31.833 -26 -52.5c0 -12 2.16699 -22.333 6.5 -31s11.666 -16.334 21.999 -23.001s24 -12.167 41 -16.5s38.167 -8.16602 63.5 -11.499c32.667 -4 61.667 -9.83301 87 -17.5s46.666 -18 63.999 -31s30.5 -28.833 39.5 -47.5
s13.5 -41 13.5 -67c0 -21.333 -4.5 -41.333 -13.5 -60s-22.5 -35 -40.5 -49s-40.833 -25.167 -68.5 -33.5s-60.167 -12.5 -97.5 -12.5z" />
    <glyph glyph-name="uni0456" unicode="&#x456;" horiz-adv-x="268" 
d="M90 530h88v-530h-88v530zM134 600c-17.333 0 -31.666 5.66699 -42.999 17s-17 25.666 -17 42.999s5.66699 31.666 17 42.999s25.666 17 42.999 17s31.666 -5.66699 42.999 -17s17 -25.666 17 -42.999s-5.66699 -31.666 -17 -42.999s-25.666 -17 -42.999 -17z" />
    <glyph glyph-name="uni0457" unicode="&#x457;" horiz-adv-x="268" 
d="M90 530h88v-530h-88v530zM33 602c-16 0 -29.667 5.66699 -41 17s-17 25 -17 41s5.66699 29.667 17 41s25 17 41 17s29.667 -5.66699 41 -17s17 -25 17 -41s-5.66699 -29.667 -17 -41s-25 -17 -41 -17zM237 602c-16 0 -29.667 5.66699 -41 17s-17 25 -17 41
s5.66699 29.667 17 41s25 17 41 17s29.667 -5.66699 41 -17s17 -25 17 -41s-5.66699 -29.667 -17 -41s-25 -17 -41 -17z" />
    <glyph glyph-name="uni0458" unicode="&#x458;" horiz-adv-x="268" 
d="M18 -210c-7.33301 0 -15.667 0.164062 -25 0.49707s-17.666 1.16602 -24.999 2.49902v80c5.33301 -1.33301 11.166 -2.16602 17.499 -2.49902s12.166 -0.5 17.499 -0.5c16.667 0 30.667 1.83301 42 5.5s20.333 10.334 27 20.001s11.334 22.834 14.001 39.501
s4 38.334 4 65.001v530h88v-530c0 -41.333 -2.83301 -75.5 -8.5 -102.5s-14.834 -48.5 -27.501 -64.5s-29.167 -27.167 -49.5 -33.5s-45.166 -9.5 -74.499 -9.5zM133.999 599.997c-17.333 0 -31.666 5.66699 -42.999 17s-17 25.666 -17 42.999s5.66699 31.666 17 42.999
s25.666 17 42.999 17s31.666 -5.66699 42.999 -17s17 -25.666 17 -42.999s-5.66699 -31.666 -17 -42.999s-25.666 -17 -42.999 -17z" />
    <glyph glyph-name="uni0459" unicode="&#x459;" horiz-adv-x="840" 
d="M55 -10c-10 0 -20 1.00098 -30 3.00098v88c3.33301 -0.666992 8.33301 -1 15 -1c14.667 0 27.5 4.66699 38.5 14s19.833 25.666 26.5 48.999s11.667 55 15 95s5 90.667 5 152v140h370v-200h115c66.667 0 115.834 -14.667 147.501 -44s47.5 -70 47.5 -122
c0 -50.667 -15.833 -90.667 -47.5 -120s-80.834 -44 -147.501 -44h-203v452h-194v-82c0 -74 -3.33301 -135.333 -10 -184s-16.5 -87.5 -29.5 -116.5s-29.5 -49.5 -49.5 -61.5s-43 -18 -69 -18zM605 76.001c41.333 0 70.333 7.33301 87 22s25 37 25 67
s-8.33301 52.333 -25 67s-45.667 22 -87 22h-110v-178h110z" />
    <glyph glyph-name="uni045A" unicode="&#x45a;" horiz-adv-x="875" 
d="M80 530h88v-206h267v206h88v-206h127c64 0 111.667 -14.5 143 -43.5s47 -68.5 47 -118.5s-15.667 -89.5 -47 -118.5s-79 -43.5 -143 -43.5h-215v246h-267v-246h-88v530zM645 78c38.667 0 66.167 7.16895 82.5 21.502s24.5 35.166 24.5 62.499
s-8.16699 48.166 -24.5 62.499s-43.833 21.5 -82.5 21.5h-122v-168h122z" />
    <glyph glyph-name="uni045B" unicode="&#x45b;" 
d="M110 456h-90v74h90v170h88v-170h232v-74h-232v-161c6.66699 14 15.334 27.333 26.001 40s23.167 23.834 37.5 33.501s30.5 17.334 48.5 23.001s37.333 8.5 58 8.5c64 0 112 -17.833 144 -53.5s48 -87.834 48 -156.501v-190h-88v170
c0 49.333 -10.167 86.666 -30.5 111.999s-53.5 38 -99.5 38c-25.333 0 -47 -4.33301 -65 -13s-32.833 -20 -44.5 -34s-20.334 -30 -26.001 -48s-8.5 -36.333 -8.5 -55v-170h-88v456z" />
    <glyph glyph-name="uni045C" unicode="&#x45c;" horiz-adv-x="575" 
d="M80 530h88v-222h70l198 222h104l-230 -254l240 -276h-112l-200 232h-70v-232h-88v530zM377 740h110l-150 -160h-70z" />
    <glyph glyph-name="uni045E" unicode="&#x45e;" horiz-adv-x="560" 
d="M150 -210c-10 0 -20.002 1.00098 -30.002 3.00098v80c10 -2 20 -3 30 -3s18.667 1.66699 26 5s14.333 9.66602 21 18.999s13.834 22.5 21.501 39.5s16.5 39.167 26.5 66.5l-225 530h98l172 -430l156 430h94l-200 -530c-14 -37.333 -27.333 -69.333 -40 -96
s-26.167 -48.5 -40.5 -65.5s-30.166 -29.333 -47.499 -37s-38 -11.5 -62 -11.5zM281.998 595.001c-52 0 -90 11.167 -114 33.5s-36 54.5 -36 96.5h86c0 -45.333 21.333 -68 64 -68c44 0 66 22.667 66 68h84c0 -42 -12 -74.167 -36 -96.5s-62 -33.5 -114 -33.5z" />
    <glyph glyph-name="uni045F" unicode="&#x45f;" horiz-adv-x="590" 
d="M252 0h-172v530h88v-452h254v452h88v-530h-172v-125h-86v125z" />
    <glyph glyph-name="uni0490" unicode="&#x490;" horiz-adv-x="560" 
d="M100 700h350v130h90v-212h-346v-618h-94v700z" />
    <glyph glyph-name="uni0491" unicode="&#x491;" horiz-adv-x="460" 
d="M80 530h276v125h84v-203h-272v-452h-88v530z" />
    <glyph glyph-name="uni0492" unicode="&#x492;" horiz-adv-x="560" 
d="M100 700h440v-82h-346v-217h196v-82h-196v-319h-94v319h-80v82h80v299z" />
    <glyph glyph-name="uni0493" unicode="&#x493;" horiz-adv-x="495" 
d="M35 309h80v221h360v-78h-272v-143h177v-78h-177v-231h-88v231h-80v78z" />
    <glyph glyph-name="uni0494" unicode="&#x494;" horiz-adv-x="633" 
d="M100 700l417.999 0.000976562v-82h-324v-230c4.66699 4 11.5 8.66699 20.5 14s20.167 10.666 33.5 15.999s28.833 9.83301 46.5 13.5s37.5 5.5 59.5 5.5c29.333 0 56.833 -4 82.5 -12s47.834 -20.333 66.501 -37s33.334 -38 44.001 -64s16 -56.667 16 -92v-244
c0 -64.667 -15.5 -112.167 -46.5 -142.5s-79.833 -45.5 -146.5 -45.5h-33v77h23c42 0 71.5 8.66699 88.5 26s25.5 47 25.5 89v228c0 47.333 -11.667 81.5 -35 102.5s-58.333 31.5 -105 31.5c-34.667 0 -63.834 -6.5 -87.501 -19.5s-41.167 -26.167 -52.5 -39.5v-295h-94v700
z" />
    <glyph glyph-name="uni0495" unicode="&#x495;" horiz-adv-x="559" 
d="M80 530l360 -0.000976562v-78h-272v-133c15.333 9.33301 33.666 17.666 54.999 24.999s48.333 11 81 11c62 0 110 -14 144 -42s51 -75.667 51 -143v-170c0 -41.333 -2.83301 -75.5 -8.5 -102.5s-14.834 -48.5 -27.501 -64.5s-29.167 -27.167 -49.5 -33.5
s-45.166 -9.5 -74.499 -9.5c-7.33301 0 -15.666 0.166992 -24.999 0.5s-17.666 1.16602 -24.999 2.49902v80c5.33301 -1.33301 11.166 -2.16602 17.499 -2.49902s12.166 -0.5 17.499 -0.5c16.667 0 30.667 1.83301 42 5.5s20.333 10.334 27 20.001
s11.334 22.834 14.001 39.501s4 38.334 4 65.001v155c0 45.333 -9.33301 76.666 -28 93.999s-50 26 -94 26c-30 0 -55.333 -3 -76 -9s-35.667 -12.333 -45 -19v-247h-88v530z" />
    <glyph glyph-name="uni0496" unicode="&#x496;" horiz-adv-x="976" 
d="M856 -130v130h-36l-223 321h-70v-321h-94v321h-70l-225 -321h-108l258 364l-248 336h104l219 -301h70v301h94v-301h70l221 301h102l-248 -333l200 -285h74v-212h-90z" />
    <glyph glyph-name="uni0497" unicode="&#x497;" horiz-adv-x="816" 
d="M707 -125v125h-36l-167 232h-60v-232h-88v232h-61l-168 -232h-102l200 273l-190 257h98l162 -222h61v222h88v-222h60l165 222h96l-190 -254l143 -198h73v-203h-84z" />
    <glyph glyph-name="uni0498" unicode="&#x498;" horiz-adv-x="640" 
d="M275 -130l-0.00195312 122.997c-23.333 2 -44.666 6 -63.999 12c-32 10.667 -59.333 25.334 -82 44.001s-40.667 40.834 -54 66.501s-21.333 53.834 -24 84.501h94c5.33301 -38 23.333 -68.5 54 -91.5s71.334 -34.5 122.001 -34.5c62 0 106.833 11 134.5 33
s41.5 51.667 41.5 89c0 36 -13.333 65.833 -40 89.5s-70.334 35.5 -131.001 35.5h-95v78h95c50 0 86.833 10.833 110.5 32.5s35.5 49.167 35.5 82.5s-12.667 60.333 -38 81s-63 31 -113 31c-53.333 0 -92.5 -10.167 -117.5 -30.5s-39.5 -47.166 -43.5 -80.499h-94
c2.66699 28 9.83398 54 21.501 78s28.167 44.667 49.5 62s47.333 30.833 78 40.5s66 14.5 106 14.5c80.667 0 141.667 -18 183 -54s62 -83.333 62 -142c0 -36.667 -10.5 -67.834 -31.5 -93.501s-48.833 -44.167 -83.5 -55.5c42 -10 75.833 -29.333 101.5 -58
s38.5 -65.667 38.5 -111c0 -30 -5.83301 -57.5 -17.5 -82.5s-29 -46.667 -52 -65s-51.167 -32.833 -84.5 -43.5c-22 -6 -46 -10.333 -72 -13v-122h-90z" />
    <glyph glyph-name="uni0499" unicode="&#x499;" horiz-adv-x="525" 
d="M217 -125l-0.00195312 117.004c-46.667 5.33301 -84.667 18.666 -114 39.999c-38 28 -59 67.333 -63 118h88c4.66699 -26 18.5 -45.833 41.5 -59.5s53.167 -20.5 90.5 -20.5c46 0 79.5 7.83301 100.5 23.5s31.5 34.5 31.5 56.5c0 26 -8.66699 46.5 -26 61.5
s-47.333 22.5 -90 22.5h-91v72h85c36.667 0 62.834 7 78.501 21s23.5 33.667 23.5 59c0 20 -9.33301 37.333 -28 52s-46.667 22 -84 22c-40.667 0 -70.167 -6.5 -88.5 -19.5s-29.5 -31.5 -33.5 -55.5h-88c2 22 8.16699 42.5 18.5 61.5s24.5 35.5 42.5 49.5
s39.5 24.833 64.5 32.5s53.167 11.5 84.5 11.5c34 0 63.5 -3.83301 88.5 -11.5s45.833 -18.334 62.5 -32.001s29 -29.834 37 -48.501s12 -39.334 12 -62.001c0 -25.333 -6.33301 -47.5 -19 -66.5s-33 -33.833 -61 -44.5c37.333 -10 63.333 -26 78 -48s22 -47.667 22 -77
c0 -22 -4.66699 -42.667 -14 -62s-23.166 -36.166 -41.499 -50.499s-41.5 -25.833 -69.5 -34.5c-16 -4.66699 -33.333 -8.33398 -52 -11.001v-117h-86z" />
    <glyph glyph-name="uni049A" unicode="&#x49a;" horiz-adv-x="716" 
d="M596 -130v130h-46l-276 321h-80v-321h-94v700h94v-301h80l274 301h112l-306 -334l245 -284h87v-212h-90z" />
    <glyph glyph-name="uni049B" unicode="&#x49b;" horiz-adv-x="583" 
d="M474 -125v125h-36l-200 232h-70v-232h-88v530h88v-222h70l198 222h104l-230 -254l172 -198h76v-203h-84z" />
    <glyph glyph-name="uni049C" unicode="&#x49c;" horiz-adv-x="709" 
d="M100 700h94v-305h54v117h85v-117h17l202 305h107l-232 -341l252 -359h-114l-215 314h-17v-114h-85v114h-54v-314h-94v700z" />
    <glyph glyph-name="uni049D" unicode="&#x49d;" horiz-adv-x="588" 
d="M80 530h89v-222h34v95h75v-95h10l160 222h99l-186 -257l202 -273h-104l-170 232h-11v-102h-75v102h-34v-232h-89v530z" />
    <glyph glyph-name="uni04A0" unicode="&#x4a0;" horiz-adv-x="780" 
d="M20 700h254v-301h80l274 301h112l-306 -334l316 -366h-120l-276 321h-80v-321h-94v618h-160v82z" />
    <glyph glyph-name="uni04A1" unicode="&#x4a1;" horiz-adv-x="655" 
d="M20 530h228v-222h70l198 222h104l-230 -254l240 -276h-112l-200 232h-70v-232h-88v452h-140v78z" />
    <glyph glyph-name="uni04A2" unicode="&#x4a2;" horiz-adv-x="775" 
d="M655 -130v130h-89v319h-372v-319h-94v700h94v-299h372v299h94v-618h85v-212h-90z" />
    <glyph glyph-name="uni04A3" unicode="&#x4a3;" horiz-adv-x="630" 
d="M521 -125v125h-79v231h-274v-231h-88v530h88v-221h274v221h88v-452h75v-203h-84z" />
    <glyph glyph-name="uni04A4" unicode="&#x4a4;" horiz-adv-x="1026" 
d="M100 0v700h94v-299h372v299h440v-82h-346v-618h-94v319h-372v-319h-94z" />
    <glyph glyph-name="uni04A5" unicode="&#x4a5;" horiz-adv-x="822" 
d="M442 231h-274v-231h-88v530h88v-221h274v221h360v-78h-272v-452h-88v231z" />
    <glyph glyph-name="uni04AA" unicode="&#x4aa;" horiz-adv-x="680" 
d="M315 -130l-0.00195312 122.996c-24.667 2.66699 -48.667 8.33398 -72 17.001c-35.333 14 -66.666 35.5 -93.999 64.5s-49 65.833 -65 110.5s-24 98 -24 160v20c0 60 8 111.667 24 155s37.667 79 65 107s58.666 48.833 93.999 62.5s72.666 20.5 111.999 20.5
c38 0 72.833 -5 104.5 -15s59.5 -24.333 83.5 -43s43.5 -41.667 58.5 -69s24.5 -58.333 28.5 -93h-100c-9.33301 45.333 -29 79.333 -59 102s-68.667 34 -116 34c-24.667 0 -48.667 -4.66699 -72 -14s-44.166 -24.166 -62.499 -44.499s-33 -47.166 -44 -80.499
s-16.5 -74 -16.5 -122v-20c0 -50.667 6 -93.167 18 -127.5s27.333 -62.166 46 -83.499s39.667 -36.666 63 -45.999s46 -14 68 -14c52 0 92.667 12.667 122 38s47 58 53 98h100c-5.33301 -38.667 -16 -71.834 -32 -99.501s-36.167 -50.5 -60.5 -68.5
s-52.166 -31.333 -83.499 -40c-15.333 -4 -31.666 -7 -48.999 -9v-123h-90z" />
    <glyph glyph-name="uni04AB" unicode="&#x4ab;" horiz-adv-x="545" 
d="M243 -125l0.000976562 118c-18.667 2.66699 -36.334 7 -53.001 13c-29.333 11.333 -54.666 28.166 -75.999 50.499s-38.166 50.5 -50.499 84.5s-18.5 73.667 -18.5 119v20c0 42.667 6.66699 80.334 20 113.001s31 59.834 53 81.501s47.5 38 76.5 49
s59.167 16.5 90.5 16.5s59.5 -4.33301 84.5 -13s46.667 -20.667 65 -36s33.333 -33.333 45 -54s20.167 -43 25.5 -67h-90c-5.33301 12.667 -11.5 24.5 -18.5 35.5s-15.667 20.5 -26 28.5s-22.5 14.333 -36.5 19s-30.333 7 -49 7c-19.333 0 -38 -3.5 -56 -10.5
s-34 -17.667 -48 -32s-25.167 -32.833 -33.5 -55.5s-12.5 -50 -12.5 -82v-20c0 -34 4.16699 -63.167 12.5 -87.5s19.5 -44 33.5 -59s30 -26 48 -33s36.667 -10.5 56 -10.5c32.667 0 60.167 8 82.5 24s38.166 38 47.499 66h90c-12.667 -52.667 -38.667 -94.334 -78 -125.001
c-28.667 -22 -61.334 -35.667 -98.001 -41v-119h-86z" />
    <glyph glyph-name="uni04AE" unicode="&#x4ae;" horiz-adv-x="640" 
d="M283 0v277l-273 423h108l211 -326l197 326h104l-253 -423v-277h-94z" />
    <glyph glyph-name="uni04AF" unicode="&#x4af;" horiz-adv-x="560" 
d="M245 -230v219l-225 541h98l172 -440l156 440h94l-207 -546v-214h-88z" />
    <glyph glyph-name="uni04B0" unicode="&#x4b0;" horiz-adv-x="599" 
d="M268 219h-146v82h143l-244 399h107l186 -306l172 306h103l-225 -399h133v-82h-135v-219h-94v219z" />
    <glyph glyph-name="uni04B1" unicode="&#x4b1;" horiz-adv-x="536" 
d="M114 77h98l-192 453h99l159 -398l143 398h95l-177 -453h106v-77h-123v-230h-88v230h-120v77z" />
    <glyph glyph-name="uni04B2" unicode="&#x4b2;" horiz-adv-x="684" 
d="M564 -130v130h-40l-195 288l-197 -288h-102l247 357l-237 343h104l187 -271l189 271h100l-236 -341l190 -277h80v-212h-90z" />
    <glyph glyph-name="uni04B3" unicode="&#x4b3;" horiz-adv-x="566" 
d="M457 -125v125h-36l-148 207l-148 -207h-100l199 269l-189 261h102l140 -193l140 193h98l-189 -256l142 -196h73v-203h-84z" />
    <glyph glyph-name="uni04B6" unicode="&#x4b6;" horiz-adv-x="695" 
d="M476 0v307.999c-17.333 -11.333 -41.666 -21.666 -72.999 -30.999s-67.333 -14 -108 -14c-82 0 -141.667 18.5 -179 55.5s-56 95.833 -56 176.5v205h94v-205c0 -52.667 11.667 -90.5 35 -113.5s62 -34.5 116 -34.5c42 0 76.667 5 104 15s49.666 20.667 66.999 32v306h94
v-618h95v-212h-90v130h-99z" />
    <glyph glyph-name="uni04B7" unicode="&#x4b7;" horiz-adv-x="585" 
d="M476 0l-88.999 -0.00195312v211c-15.333 -9.33301 -33.833 -17.666 -55.5 -24.999s-48.834 -11 -81.501 -11c-62 0 -110 14 -144 42s-51 75.667 -51 143v170h88v-155c0 -45.333 9.33301 -76.666 28 -93.999s50 -26 94 -26c30 0 55.667 3 77 9s36.333 12.333 45 19v247h88
v-452h85v-203h-84v125z" />
    <glyph glyph-name="uni04B8" unicode="&#x4b8;" horiz-adv-x="632" 
d="M438 0l-0.000976562 333.997c-14.667 -11.333 -31.334 -20.833 -50.001 -28.5s-37.667 -13.167 -57 -16.5v-99h-85v93c-39.333 2 -72.166 8.83301 -98.499 20.5s-47.5 28.334 -63.5 50.001s-27.333 47.667 -34 78s-10 64.833 -10 103.5v165h94v-165
c0 -25.333 1.5 -47.833 4.5 -67.5s8.66699 -36.5 17 -50.5s19.833 -25.167 34.5 -33.5s33.334 -13.833 56.001 -16.5v135h85v-133c20.667 4.66699 40 11.834 58 21.501s34.333 22.834 49 39.501v270h94v-700h-94z" />
    <glyph glyph-name="uni04B9" unicode="&#x4b9;" horiz-adv-x="555" 
d="M387 237c-11.333 -7.33301 -23.833 -13.668 -37.5 -19.001s-30.167 -9.66602 -49.5 -12.999v-84h-75v81c-27.333 2 -51.5 6.66699 -72.5 14s-38.667 18.333 -53 33s-25.333 33.334 -33 56.001s-11.5 49.667 -11.5 81v144h88v-129c0 -38 6.33301 -65.833 19 -83.5
s33.667 -28.834 63 -33.501v90h75v-91c21.333 2 39.5 5.5 54.5 10.5s25.833 10.167 32.5 15.5v221h88v-530h-88v237z" />
    <glyph glyph-name="uni04BA" unicode="&#x4ba;" horiz-adv-x="655" 
d="M194 700l-0.00292969 -284.999c17.333 11.333 42 21.666 74 30.999s70 14 114 14c78.667 0 136.334 -18.5 173.001 -55.5s55 -95.833 55 -176.5v-228h-94v228c0 52.667 -11.667 90.5 -35 113.5s-62.333 34.5 -117 34.5c-41.333 0 -75.666 -5 -102.999 -15
s-49.666 -20.667 -66.999 -32v-329h-94v700h94z" />
    <glyph glyph-name="uni04BB" unicode="&#x4bb;" horiz-adv-x="615" 
d="M80 0l0.00195312 700.001h88v-265c13.333 28 34.666 52.5 63.999 73.5s66.333 31.5 111 31.5c66.667 0 116.167 -17.833 148.5 -53.5s48.5 -87.834 48.5 -156.501v-330h-88v310c0 50 -10.333 87.5 -31 112.5s-55.334 37.5 -104.001 37.5c-26 0 -48.5 -4.33301 -67.5 -13
s-34.5 -20 -46.5 -34s-20.833 -30 -26.5 -48s-8.5 -36.333 -8.5 -55v-310h-88z" />
    <glyph glyph-name="uni04C0" unicode="&#x4c0;" horiz-adv-x="314" 
d="M110 700h94v-700h-94v700z" />
    <glyph glyph-name="uni04C3" unicode="&#x4c3;" horiz-adv-x="643" 
d="M100 700h94v-305h106l212 305h107l-219 -310c22 -3.33301 43.5 -10 64.5 -20s39.5 -23.5 55.5 -40.5s28.833 -37.333 38.5 -61s14.5 -50.5 14.5 -80.5v-200c0 -64.667 -15.5 -112.167 -46.5 -142.5s-79.833 -45.5 -146.5 -45.5h-33v77h23c42 0 71.5 8.66699 88.5 26
s25.5 47 25.5 89v179c0 48.667 -13.833 84.667 -41.5 108s-65.5 35 -113.5 35h-135v-314h-94v700z" />
    <glyph glyph-name="uni04C4" unicode="&#x4c4;" horiz-adv-x="540" 
d="M297 -118c6 -1.33301 11.499 -2.33105 16.499 -2.99805s9.83301 -1 14.5 -1c24.667 0 41.334 9.66699 50.001 29s13 50.333 13 93v100c0 46 -11.5 79.5 -34.5 100.5s-52.5 31.5 -88.5 31.5h-99v-232h-89v530h89v-222h71l168 222h99l-177 -230
c48 -9.33301 85 -29.333 111 -60s39 -73.334 39 -128.001v-137c0 -56.667 -11 -100.334 -33 -131.001s-54 -46 -96 -46c-18 0 -36 2.33301 -54 7v77z" />
    <glyph glyph-name="uni04C7" unicode="&#x4c7;" horiz-adv-x="760" 
d="M100 700h94v-299h372v299h94v-700c0 -39.333 -3.16699 -72 -9.5 -98s-16.5 -46.5 -30.5 -61.5s-32.5 -25.5 -55.5 -31.5s-51.5 -9 -85.5 -9h-2v82h2c16.667 0 30.5 1.83301 41.5 5.5s19.833 10 26.5 19s11.5 21 14.5 36s4.5 34.167 4.5 57.5v319h-372v-319h-94v700z" />
    <glyph glyph-name="uni04C8" unicode="&#x4c8;" horiz-adv-x="610" 
d="M80 530l88 0.000976562v-221h274v221h88v-555c0 -56.667 -11 -100.334 -33 -131.001s-54 -46 -96 -46c-18 0 -36 2.33301 -54 7v77c6 -1.33301 11.5 -2.33301 16.5 -3s9.83301 -1 14.5 -1c24.667 0 41.5 9.66699 50.5 29s13.5 50.333 13.5 93v231h-274v-231h-88v530z" />
    <glyph glyph-name="uni04CB" unicode="&#x4cb;" horiz-adv-x="670" 
d="M381 82l95 -0.000976562v226c-17.333 -11.333 -41.666 -21.666 -72.999 -30.999s-67.333 -14 -108 -14c-82 0 -141.667 18.5 -179 55.5s-56 95.833 -56 176.5v205h94v-205c0 -52.667 11.667 -90.5 35 -113.5s62 -34.5 116 -34.5c42 0 76.667 5 104 15
s49.666 20.667 66.999 32v306h94v-700h-99v-130h-90v212z" />
    <glyph glyph-name="uni04CC" unicode="&#x4cc;" horiz-adv-x="555" 
d="M314 78l73.001 -0.00195312v133c-15.333 -9.33301 -33.833 -17.666 -55.5 -24.999s-48.834 -11 -81.501 -11c-62 0 -110 14 -144 42s-51 75.667 -51 143v170h88v-155c0 -45.333 9.33301 -76.666 28 -93.999s50 -26 94 -26c30 0 55.667 3 77 9s36.333 12.333 45 19v247h88
v-530h-77v-125h-84v203z" />
    <glyph glyph-name="uni04CF" unicode="&#x4cf;" horiz-adv-x="258" 
d="M85 0v700h88v-700h-88z" />
    <glyph glyph-name="uni04D0" unicode="&#x4d0;" horiz-adv-x="670" 
d="M481 174h-296l-67 -174h-98l268 700h94l268 -700h-102zM216 256h234l-117 324zM335 753c-56.667 0 -99.166 12.667 -127.499 38s-42.5 62.666 -42.5 111.999h88c0 -30.667 7 -52.667 21 -66s34.333 -20 61 -20c27.333 0 48.166 6.66699 62.499 20s21.5 35.333 21.5 66h86
c0 -49.333 -14.167 -86.666 -42.5 -111.999s-70.833 -38 -127.5 -38z" />
    <glyph glyph-name="uni04D1" unicode="&#x4d1;" horiz-adv-x="565" 
d="M231 -10c-29.333 0 -55.168 4.16992 -77.501 12.5029s-41.166 19.833 -56.499 34.5s-27 32 -35 52s-12 42 -12 66c0 52.667 15.5 90.667 46.5 114s75.5 35 133.5 35h172v36c0 45.333 -10.167 76.666 -30.5 93.999s-50.833 26 -91.5 26c-38 0 -65.667 -7.16699 -83 -21.5
s-27 -30.5 -29 -48.5h-88c1.33301 21.333 7.16602 41.166 17.499 59.499s24.333 34.166 42 47.499s38.834 23.833 63.501 31.5s52 11.5 82 11.5c62.667 0 112.5 -14.833 149.5 -44.5s55.5 -78.167 55.5 -145.5v-215c0 -28 0.166992 -52.5 0.5 -73.5s1.83301 -41.5 4.5 -61.5
h-77c-2 15.333 -3.33301 29.833 -4 43.5s-1 29.167 -1 46.5c-14 -28 -36.667 -51.667 -68 -71s-69.333 -29 -114 -29zM249.998 70.0029c20.667 0 40.168 2.83301 58.501 8.5s34.5 14 48.5 25s25 24.5 33 40.5s12 34.667 12 56v36h-157c-32.667 0 -58.334 -6.5 -77.001 -19.5
s-28 -33.5 -28 -61.5c0 -24.667 8.83301 -45 26.5 -61s45.5 -24 83.5 -24zM284.999 596.003c-52 0 -90 11.167 -114 33.5s-36 54.5 -36 96.5h86c0 -45.333 21.333 -68 64 -68c44 0 66 22.667 66 68h84c0 -42 -12 -74.167 -36 -96.5s-62 -33.5 -114 -33.5z" />
    <glyph glyph-name="uni04D2" unicode="&#x4d2;" horiz-adv-x="670" 
d="M481 174h-296l-67 -174h-98l268 700h94l268 -700h-102zM216 256h234l-117 324zM224 765c-16.667 0 -30.834 5.83301 -42.501 17.5s-17.5 25.834 -17.5 42.501s5.83301 30.834 17.5 42.501s25.834 17.5 42.501 17.5s30.834 -5.83301 42.501 -17.5
s17.5 -25.834 17.5 -42.501s-5.83301 -30.834 -17.5 -42.501s-25.834 -17.5 -42.501 -17.5zM444 765c-16.667 0 -30.834 5.83301 -42.501 17.5s-17.5 25.834 -17.5 42.501s5.83301 30.834 17.5 42.501s25.834 17.5 42.501 17.5s30.834 -5.83301 42.501 -17.5
s17.5 -25.834 17.5 -42.501s-5.83301 -30.834 -17.5 -42.501s-25.834 -17.5 -42.501 -17.5z" />
    <glyph glyph-name="uni04D3" unicode="&#x4d3;" horiz-adv-x="565" 
d="M231 -10c-29.333 0 -55.168 4.16992 -77.501 12.5029s-41.166 19.833 -56.499 34.5s-27 32 -35 52s-12 42 -12 66c0 52.667 15.5 90.667 46.5 114s75.5 35 133.5 35h172v36c0 45.333 -10.167 76.666 -30.5 93.999s-50.833 26 -91.5 26c-38 0 -65.667 -7.16699 -83 -21.5
s-27 -30.5 -29 -48.5h-88c1.33301 21.333 7.16602 41.166 17.499 59.499s24.333 34.166 42 47.499s38.834 23.833 63.501 31.5s52 11.5 82 11.5c62.667 0 112.5 -14.833 149.5 -44.5s55.5 -78.167 55.5 -145.5v-215c0 -28 0.166992 -52.5 0.5 -73.5s1.83301 -41.5 4.5 -61.5
h-77c-2 15.333 -3.33301 29.833 -4 43.5s-1 29.167 -1 46.5c-14 -28 -36.667 -51.667 -68 -71s-69.333 -29 -114 -29zM249.998 70.0029c20.667 0 40.168 2.83301 58.501 8.5s34.5 14 48.5 25s25 24.5 33 40.5s12 34.667 12 56v36h-157c-32.667 0 -58.334 -6.5 -77.001 -19.5
s-28 -33.5 -28 -61.5c0 -24.667 8.83301 -45 26.5 -61s45.5 -24 83.5 -24zM180.999 602.003c-16 0 -29.667 5.66699 -41 17s-17 25 -17 41s5.66699 29.667 17 41s25 17 41 17s29.667 -5.66699 41 -17s17 -25 17 -41s-5.66699 -29.667 -17 -41s-25 -17 -41 -17z
M384.999 602.003c-16 0 -29.667 5.66699 -41 17s-17 25 -17 41s5.66699 29.667 17 41s25 17 41 17s29.667 -5.66699 41 -17s17 -25 17 -41s-5.66699 -29.667 -17 -41s-25 -17 -41 -17z" />
    <glyph glyph-name="uni04D4" unicode="&#x4d4;" horiz-adv-x="950" 
d="M419 700h471v-82h-356v-217h326v-82h-326v-237h356v-82h-450v174h-225l-101 -174h-104zM440 256v320l-177 -320h177z" />
    <glyph glyph-name="uni04D5" unicode="&#x4d5;" horiz-adv-x="935" 
d="M241 -10c-31.333 0 -58.998 4.1709 -82.998 12.5039s-44 19.833 -60 34.5s-28 32 -36 52s-12 42 -12 66c0 54.667 15.833 94 47.5 118s75.5 36 131.5 36h173v31c0 45.333 -10.167 76.666 -30.5 93.999s-50.833 26 -91.5 26c-38 0 -65.667 -7.16699 -83 -21.5
s-27 -30.5 -29 -48.5h-88c1.33301 21.333 7.16602 41.166 17.499 59.499s24.333 34.166 42 47.499s38.5 23.833 62.5 31.5s50 11.5 78 11.5c44 0 82.167 -7.5 114.5 -22.5s56.166 -37.5 71.499 -67.5c20 31.333 44.333 54.166 73 68.499s64 21.5 106 21.5
c78 0 138.333 -21.333 181 -64s64 -103 64 -181v-54h-402c0 -31.333 5 -58 15 -80s23 -39.667 39 -53s33.833 -23 53.5 -29s39.5 -9 59.5 -9c40 0 70.833 6.66699 92.5 20s37.167 31.666 46.5 54.999h86c-5.33301 -25.333 -14.833 -47.666 -28.5 -66.999
s-30.334 -35.5 -50.001 -48.5s-42 -22.833 -67 -29.5s-51.5 -10 -79.5 -10c-42.667 0 -82.167 9.66699 -118.5 29s-65.166 48 -86.499 86c-19.333 -35.333 -45.5 -63.333 -78.5 -84s-76.5 -31 -130.5 -31zM251.002 70.0039c20 0 39.167 2.83301 57.5 8.5s34.5 14 48.5 25
s25 24.5 33 40.5s12 34.667 12 56v41h-156c-33.333 0 -59.333 -7 -78 -21s-28 -35.667 -28 -65c0 -24.667 9 -45 27 -61s46 -24 84 -24zM650.002 460.004c-20.667 0 -40.667 -3 -60 -9s-36.5 -15.167 -51.5 -27.5s-27.167 -28 -36.5 -47s-14 -41.5 -14 -67.5h319
c-0.666992 27.333 -5.16699 50.5 -13.5 69.5s-19.5 34.5 -33.5 46.5s-30.5 20.833 -49.5 26.5s-39.167 8.5 -60.5 8.5z" />
    <glyph glyph-name="uni04D6" unicode="&#x4d6;" horiz-adv-x="610" 
d="M100 700h450v-82h-356v-217h326v-82h-326v-237h356v-82h-450v700zM325 750c-56.667 0 -99.166 12.667 -127.499 38s-42.5 62.666 -42.5 111.999h88c0 -30.667 7 -52.667 21 -66s34.333 -20 61 -20c27.333 0 48.166 6.66699 62.499 20s21.5 35.333 21.5 66h86
c0 -49.333 -14.167 -86.666 -42.5 -111.999s-70.833 -38 -127.5 -38z" />
    <glyph glyph-name="uni04D7" unicode="&#x4d7;" horiz-adv-x="580" 
d="M300 -10c-34 0 -66.332 5.33008 -96.999 15.9971s-57.667 27.167 -81 49.5s-42 50.5 -56 84.5s-21 74 -21 120v20c0 44 6.66699 82.167 20 114.5s31.166 59.333 53.499 81s48.333 37.834 78 48.501s60.834 16 93.501 16c78 0 138.333 -21.333 181 -64s64 -103 64 -181
v-56h-402c0 -31.333 5 -57.666 15 -78.999s23 -38.666 39 -51.999s33.833 -23 53.5 -29s39.5 -9 59.5 -9c40 0 70.833 6.66699 92.5 20s37.167 31.666 46.5 54.999h86c-5.33301 -25.333 -14.833 -47.666 -28.5 -66.999s-30.334 -35.5 -50.001 -48.5s-42 -22.833 -67 -29.5
s-51.5 -10 -79.5 -10zM295.001 459.997c-20.667 0 -40.667 -2.83301 -60 -8.5s-36.5 -14.667 -51.5 -27s-27.167 -27.833 -36.5 -46.5s-14 -41 -14 -67h319c-0.666992 27.333 -5.16699 50.5 -13.5 69.5s-19.5 34.333 -33.5 46s-30.5 20.167 -49.5 25.5s-39.167 8 -60.5 8z
M290.001 594.997c-52 0 -90 11.167 -114 33.5s-36 54.5 -36 96.5h86c0 -45.333 21.333 -68 64 -68c44 0 66 22.667 66 68h84c0 -42 -12 -74.167 -36 -96.5s-62 -33.5 -114 -33.5z" />
    <glyph glyph-name="uni04D8" unicode="&#x4d8;" horiz-adv-x="705" 
d="M335 -10c-42.667 0 -81.166 6.83203 -115.499 20.499s-63.666 35 -87.999 64s-43.166 65.833 -56.499 110.5s-20 98 -20 160v56h489c-2 40.667 -9 75.334 -21 104.001s-27.167 52 -45.5 70s-39 31 -62 39s-46.5 12 -70.5 12c-38.667 0 -73.834 -10 -105.501 -30
s-54.834 -52 -69.501 -96h-100c16 66 48 117.5 96 154.5s107 55.5 177 55.5c40.667 0 79.167 -6.83301 115.5 -20.5s68.333 -34.5 96 -62.5s49.667 -63.667 66 -107s24.5 -95 24.5 -155v-20c0 -62 -8.16699 -115.333 -24.5 -160s-38.5 -81.5 -66.5 -110.5
s-60.833 -50.333 -98.5 -64s-77.834 -20.5 -120.501 -20.5zM335.001 73.999c24.667 0 48.9961 4.16895 72.9961 12.502s45.833 22.166 65.5 41.499s35.834 44.666 48.501 75.999s20 69.666 22 114.999h-389c2.66699 -46 8.83398 -84.5 18.501 -115.5
s22.334 -56.167 38.001 -75.5s33.834 -33.166 54.501 -41.499s43.667 -12.5 69 -12.5z" />
    <glyph glyph-name="uni04D9" unicode="&#x4d9;" horiz-adv-x="580" 
d="M280 540c34 0 66.332 -5.33301 96.999 -16s57.667 -27.167 81 -49.5s42 -50.5 56 -84.5s21 -74 21 -120v-20c0 -44 -6.66699 -82.167 -20 -114.5s-31.166 -59.333 -53.499 -81s-48.333 -37.834 -78 -48.501s-60.834 -16 -93.501 -16
c-78.667 0 -139.167 21.167 -181.5 63.5s-63.5 102.833 -63.5 181.5v56h402c0 30.667 -5 56.834 -15 78.501s-23 39.167 -39 52.5s-33.833 23 -53.5 29s-39.5 9 -59.5 9c-40 0 -70.833 -6.66699 -92.5 -20s-37.167 -31.666 -46.5 -54.999h-86
c5.33301 25.333 14.833 47.666 28.5 66.999s30.334 35.5 50.001 48.5s42 22.833 67 29.5s51.5 10 79.5 10zM127.999 219c0.666992 -27.333 5.16699 -50.5 13.5 -69.5s19.5 -34.333 33.5 -46s30.5 -20.167 49.5 -25.5s39.167 -8 60.5 -8c20.667 0 40.667 2.83301 60 8.5
s36.5 14.667 51.5 27s27.167 27.833 36.5 46.5s14 41 14 67h-319z" />
    <glyph glyph-name="uni04DA" unicode="&#x4da;" horiz-adv-x="705" 
d="M335 -10c-42.667 0 -81.166 6.83203 -115.499 20.499s-63.666 35 -87.999 64s-43.166 65.833 -56.499 110.5s-20 98 -20 160v56h489c-2 40.667 -9 75.334 -21 104.001s-27.167 52 -45.5 70s-39 31 -62 39s-46.5 12 -70.5 12c-38.667 0 -73.834 -10 -105.501 -30
s-54.834 -52 -69.501 -96h-100c16 66 48 117.5 96 154.5s107 55.5 177 55.5c40.667 0 79.167 -6.83301 115.5 -20.5s68.333 -34.5 96 -62.5s49.667 -63.667 66 -107s24.5 -95 24.5 -155v-20c0 -62 -8.16699 -115.333 -24.5 -160s-38.5 -81.5 -66.5 -110.5
s-60.833 -50.333 -98.5 -64s-77.834 -20.5 -120.501 -20.5zM335.001 73.999c24.667 0 48.9961 4.16895 72.9961 12.502s45.833 22.166 65.5 41.499s35.834 44.666 48.501 75.999s20 69.666 22 114.999h-389c2.66699 -46 8.83398 -84.5 18.501 -115.5
s22.334 -56.167 38.001 -75.5s33.834 -33.166 54.501 -41.499s43.667 -12.5 69 -12.5zM242.997 765.001c-16.667 0 -30.834 5.83301 -42.501 17.5s-17.5 25.834 -17.5 42.501s5.83301 30.834 17.5 42.501s25.834 17.5 42.501 17.5s30.834 -5.83301 42.501 -17.5
s17.5 -25.834 17.5 -42.501s-5.83301 -30.834 -17.5 -42.501s-25.834 -17.5 -42.501 -17.5zM462.997 765.001c-16.667 0 -30.834 5.83301 -42.501 17.5s-17.5 25.834 -17.5 42.501s5.83301 30.834 17.5 42.501s25.834 17.5 42.501 17.5s30.834 -5.83301 42.501 -17.5
s17.5 -25.834 17.5 -42.501s-5.83301 -30.834 -17.5 -42.501s-25.834 -17.5 -42.501 -17.5z" />
    <glyph glyph-name="uni04DB" unicode="&#x4db;" horiz-adv-x="580" 
d="M280 540c34 0 66.332 -5.33301 96.999 -16s57.667 -27.167 81 -49.5s42 -50.5 56 -84.5s21 -74 21 -120v-20c0 -44 -6.66699 -82.167 -20 -114.5s-31.166 -59.333 -53.499 -81s-48.333 -37.834 -78 -48.501s-60.834 -16 -93.501 -16
c-78.667 0 -139.167 21.167 -181.5 63.5s-63.5 102.833 -63.5 181.5v56h402c0 30.667 -5 56.834 -15 78.501s-23 39.167 -39 52.5s-33.833 23 -53.5 29s-39.5 9 -59.5 9c-40 0 -70.833 -6.66699 -92.5 -20s-37.167 -31.666 -46.5 -54.999h-86
c5.33301 25.333 14.833 47.666 28.5 66.999s30.334 35.5 50.001 48.5s42 22.833 67 29.5s51.5 10 79.5 10zM127.999 219c0.666992 -27.333 5.16699 -50.5 13.5 -69.5s19.5 -34.333 33.5 -46s30.5 -20.167 49.5 -25.5s39.167 -8 60.5 -8c20.667 0 40.667 2.83301 60 8.5
s36.5 14.667 51.5 27s27.167 27.833 36.5 46.5s14 41 14 67h-319zM176.999 602c-16 0 -29.667 5.66699 -41 17s-17 25 -17 41s5.66699 29.667 17 41s25 17 41 17s29.667 -5.66699 41 -17s17 -25 17 -41s-5.66699 -29.667 -17 -41s-25 -17 -41 -17zM380.999 602
c-16 0 -29.667 5.66699 -41 17s-17 25 -17 41s5.66699 29.667 17 41s25 17 41 17s29.667 -5.66699 41 -17s17 -25 17 -41s-5.66699 -29.667 -17 -41s-25 -17 -41 -17z" />
    <glyph glyph-name="uni04DC" unicode="&#x4dc;" horiz-adv-x="960" 
d="M288 364l-248 336h104l219 -301h70v301h94v-301h70l221 301h102l-248 -333l258 -367h-110l-223 321h-70v-321h-94v321h-70l-225 -321h-108zM369 765c-16.667 0 -30.834 5.83301 -42.501 17.5s-17.5 25.834 -17.5 42.501s5.83301 30.834 17.5 42.501
s25.834 17.5 42.501 17.5s30.834 -5.83301 42.501 -17.5s17.5 -25.834 17.5 -42.501s-5.83301 -30.834 -17.5 -42.501s-25.834 -17.5 -42.501 -17.5zM589 765c-16.667 0 -30.834 5.83301 -42.501 17.5s-17.5 25.834 -17.5 42.501s5.83301 30.834 17.5 42.501
s25.834 17.5 42.501 17.5s30.834 -5.83301 42.501 -17.5s17.5 -25.834 17.5 -42.501s-5.83301 -30.834 -17.5 -42.501s-25.834 -17.5 -42.501 -17.5z" />
    <glyph glyph-name="uni04DD" unicode="&#x4dd;" horiz-adv-x="800" 
d="M225 273l-190 257h98l162 -222h61v222h88v-222h60l165 222h96l-190 -254l200 -276h-104l-167 232h-60v-232h-88v232h-61l-168 -232h-102zM298 602c-16 0 -29.667 5.66699 -41 17s-17 25 -17 41s5.66699 29.667 17 41s25 17 41 17s29.667 -5.66699 41 -17s17 -25 17 -41
s-5.66699 -29.667 -17 -41s-25 -17 -41 -17zM502 602c-16 0 -29.667 5.66699 -41 17s-17 25 -17 41s5.66699 29.667 17 41s25 17 41 17s29.667 -5.66699 41 -17s17 -25 17 -41s-5.66699 -29.667 -17 -41s-25 -17 -41 -17z" />
    <glyph glyph-name="uni04DE" unicode="&#x4de;" horiz-adv-x="640" 
d="M321 -10c-41.333 0 -78.001 5.16406 -110.001 15.4971s-59.333 24.833 -82 43.5s-40.667 40.834 -54 66.501s-21.333 53.834 -24 84.501h94c5.33301 -38 23.333 -68.5 54 -91.5s71.334 -34.5 122.001 -34.5c62 0 106.833 11 134.5 33s41.5 51.667 41.5 89
c0 36 -13.333 65.833 -40 89.5s-70.334 35.5 -131.001 35.5h-95v78h95c50 0 86.833 10.833 110.5 32.5s35.5 49.167 35.5 82.5s-12.667 60.333 -38 81s-63 31 -113 31c-53.333 0 -92.5 -10.167 -117.5 -30.5s-39.5 -47.166 -43.5 -80.499h-94
c2.66699 28 9.83398 54 21.501 78s28.167 44.667 49.5 62s47.333 30.833 78 40.5s66 14.5 106 14.5c80.667 0 141.667 -18 183 -54s62 -83.333 62 -142c0 -36.667 -10.5 -67.834 -31.5 -93.501s-48.833 -44.167 -83.5 -55.5c42 -10 75.833 -29.333 101.5 -58
s38.5 -65.667 38.5 -111c0 -30 -5.83301 -57.5 -17.5 -82.5s-29 -46.667 -52 -65s-51.167 -32.666 -84.5 -42.999s-72 -15.5 -116 -15.5zM208.999 764.997c-16.667 0 -30.834 5.83301 -42.501 17.5s-17.5 25.834 -17.5 42.501s5.83301 30.834 17.5 42.501
s25.834 17.5 42.501 17.5s30.834 -5.83301 42.501 -17.5s17.5 -25.834 17.5 -42.501s-5.83301 -30.834 -17.5 -42.501s-25.834 -17.5 -42.501 -17.5zM428.999 764.997c-16.667 0 -30.834 5.83301 -42.501 17.5s-17.5 25.834 -17.5 42.501s5.83301 30.834 17.5 42.501
s25.834 17.5 42.501 17.5s30.834 -5.83301 42.501 -17.5s17.5 -25.834 17.5 -42.501s-5.83301 -30.834 -17.5 -42.501s-25.834 -17.5 -42.501 -17.5z" />
    <glyph glyph-name="uni04DF" unicode="&#x4df;" horiz-adv-x="525" 
d="M260 -10c-66.667 0 -119.002 14.002 -157.002 42.002s-59 67.333 -63 118h88c4.66699 -26 18.5 -45.833 41.5 -59.5s53.167 -20.5 90.5 -20.5c46 0 79.5 7.83301 100.5 23.5s31.5 34.5 31.5 56.5c0 26 -8.66699 46.5 -26 61.5s-47.333 22.5 -90 22.5h-91v72h85
c36.667 0 62.834 7 78.501 21s23.5 33.667 23.5 59c0 20 -9.33301 37.333 -28 52s-46.667 22 -84 22c-40.667 0 -70.167 -6.5 -88.5 -19.5s-29.5 -31.5 -33.5 -55.5h-88c2 22 8.16699 42.5 18.5 61.5s24.5 35.5 42.5 49.5s39.5 24.833 64.5 32.5s53.167 11.5 84.5 11.5
c34 0 63.5 -3.83301 88.5 -11.5s45.833 -18.334 62.5 -32.001s29 -29.834 37 -48.501s12 -39.334 12 -62.001c0 -25.333 -6.33301 -47.5 -19 -66.5s-33 -33.833 -61 -44.5c37.333 -10 63.333 -26 78 -48s22 -47.667 22 -77c0 -22 -4.66699 -42.667 -14 -62
s-23.166 -36.166 -41.499 -50.499s-41.333 -25.833 -69 -34.5s-59.5 -13 -95.5 -13zM160.998 602.002c-16 0 -29.667 5.66699 -41 17s-17 25 -17 41s5.66699 29.667 17 41s25 17 41 17s29.667 -5.66699 41 -17s17 -25 17 -41s-5.66699 -29.667 -17 -41s-25 -17 -41 -17z
M364.998 602.002c-16 0 -29.667 5.66699 -41 17s-17 25 -17 41s5.66699 29.667 17 41s25 17 41 17s29.667 -5.66699 41 -17s17 -25 17 -41s-5.66699 -29.667 -17 -41s-25 -17 -41 -17z" />
    <glyph glyph-name="uni04E2" unicode="&#x4e2;" horiz-adv-x="760" 
d="M100 700h94v-550l372 550h94v-700h-94v550l-372 -550h-94v700zM250 864h260v-68h-260v68z" />
    <glyph glyph-name="uni04E3" unicode="&#x4e3;" horiz-adv-x="610" 
d="M80 530h88v-400l274 400h88v-530h-88v400l-274 -400h-88v530zM175 694h260v-68h-260v68z" />
    <glyph glyph-name="uni04E4" unicode="&#x4e4;" horiz-adv-x="760" 
d="M100 700h94v-550l372 550h94v-700h-94v550l-372 -550h-94v700zM269 765c-16.667 0 -30.834 5.83301 -42.501 17.5s-17.5 25.834 -17.5 42.501s5.83301 30.834 17.5 42.501s25.834 17.5 42.501 17.5s30.834 -5.83301 42.501 -17.5s17.5 -25.834 17.5 -42.501
s-5.83301 -30.834 -17.5 -42.501s-25.834 -17.5 -42.501 -17.5zM489 765c-16.667 0 -30.834 5.83301 -42.501 17.5s-17.5 25.834 -17.5 42.501s5.83301 30.834 17.5 42.501s25.834 17.5 42.501 17.5s30.834 -5.83301 42.501 -17.5s17.5 -25.834 17.5 -42.501
s-5.83301 -30.834 -17.5 -42.501s-25.834 -17.5 -42.501 -17.5z" />
    <glyph glyph-name="uni04E5" unicode="&#x4e5;" horiz-adv-x="610" 
d="M80 530h88v-400l274 400h88v-530h-88v400l-274 -400h-88v530zM203 602c-16 0 -29.667 5.66699 -41 17s-17 25 -17 41s5.66699 29.667 17 41s25 17 41 17s29.667 -5.66699 41 -17s17 -25 17 -41s-5.66699 -29.667 -17 -41s-25 -17 -41 -17zM407 602
c-16 0 -29.667 5.66699 -41 17s-17 25 -17 41s5.66699 29.667 17 41s25 17 41 17s29.667 -5.66699 41 -17s17 -25 17 -41s-5.66699 -29.667 -17 -41s-25 -17 -41 -17z" />
    <glyph glyph-name="uni04E6" unicode="&#x4e6;" horiz-adv-x="740" 
d="M370 -10c-40 0 -78.667 6.83301 -116 20.5s-70.333 34.834 -99 63.501s-51.667 65.334 -69 110.001s-26 98.334 -26 161.001v20c0 60 8.66699 111.667 26 155s40.333 79.166 69 107.499s61.667 49.166 99 62.499s76 20 116 20s78.667 -6.66699 116 -20
s70.333 -34.166 99 -62.499s51.667 -64.166 69 -107.499s26 -95 26 -155v-20c0 -62.667 -8.66699 -116.334 -26 -161.001s-40.333 -81.334 -69 -110.001s-61.667 -49.834 -99 -63.501s-76 -20.5 -116 -20.5zM370 74c27.333 0 53.666 5 78.999 15s47.666 25.833 66.999 47.5
s34.833 49.667 46.5 84s17.5 75.833 17.5 124.5v20c0 46 -5.83301 85.5 -17.5 118.5s-27.167 60 -46.5 81s-41.666 36.5 -66.999 46.5s-51.666 15 -78.999 15s-53.666 -5 -78.999 -15s-47.666 -25.5 -66.999 -46.5s-34.833 -48 -46.5 -81s-17.5 -72.5 -17.5 -118.5v-20
c0 -48.667 5.83301 -90.167 17.5 -124.5s27.167 -62.333 46.5 -84s41.666 -37.5 66.999 -47.5s51.666 -15 78.999 -15zM260 765c-16.667 0 -30.834 5.83301 -42.501 17.5s-17.5 25.834 -17.5 42.501s5.83301 30.834 17.5 42.501s25.834 17.5 42.501 17.5
s30.834 -5.83301 42.501 -17.5s17.5 -25.834 17.5 -42.501s-5.83301 -30.834 -17.5 -42.501s-25.834 -17.5 -42.501 -17.5zM480 765c-16.667 0 -30.834 5.83301 -42.501 17.5s-17.5 25.834 -17.5 42.501s5.83301 30.834 17.5 42.501s25.834 17.5 42.501 17.5
s30.834 -5.83301 42.501 -17.5s17.5 -25.834 17.5 -42.501s-5.83301 -30.834 -17.5 -42.501s-25.834 -17.5 -42.501 -17.5z" />
    <glyph glyph-name="uni04E7" unicode="&#x4e7;" horiz-adv-x="600" 
d="M300 -10c-34 0 -66.333 5.5 -97 16.5s-57.667 27.667 -81 50s-42 50.5 -56 84.5s-21 73.667 -21 119v20c0 42.667 7 80.334 21 113.001s32.667 59.834 56 81.501s50.333 38 81 49s63 16.5 97 16.5s66.333 -5.5 97 -16.5s57.667 -27.333 81 -49s42 -48.834 56 -81.501
s21 -70.334 21 -113.001v-20c0 -45.333 -7 -85 -21 -119s-32.667 -62.167 -56 -84.5s-50.333 -39 -81 -50s-63 -16.5 -97 -16.5zM300 70c20 0 40 3.5 60 10.5s37.667 18 53 33s27.833 34.5 37.5 58.5s14.5 53.333 14.5 88v20c0 32 -4.83301 59.333 -14.5 82
s-22.167 41.334 -37.5 56.001s-33 25.334 -53 32.001s-40 10 -60 10s-40 -3.33301 -60 -10s-37.667 -17.334 -53 -32.001s-27.833 -33.334 -37.5 -56.001s-14.5 -50 -14.5 -82v-20c0 -34.667 4.83301 -64 14.5 -88s22.167 -43.5 37.5 -58.5s33 -26 53 -33s40 -10.5 60 -10.5
zM198 602c-16 0 -29.667 5.66699 -41 17s-17 25 -17 41s5.66699 29.667 17 41s25 17 41 17s29.667 -5.66699 41 -17s17 -25 17 -41s-5.66699 -29.667 -17 -41s-25 -17 -41 -17zM402 602c-16 0 -29.667 5.66699 -41 17s-17 25 -17 41s5.66699 29.667 17 41s25 17 41 17
s29.667 -5.66699 41 -17s17 -25 17 -41s-5.66699 -29.667 -17 -41s-25 -17 -41 -17z" />
    <glyph glyph-name="uni04E8" unicode="&#x4e8;" horiz-adv-x="740" 
d="M370 -10c-40 0 -78.667 6.83301 -116 20.5s-70.333 34.834 -99 63.501s-51.667 65.334 -69 110.001s-26 98.334 -26 161.001v20c0 60 8.66699 111.667 26 155s40.333 79.166 69 107.499s61.667 49.166 99 62.499s76 20 116 20s78.667 -6.66699 116 -20
s70.333 -34.166 99 -62.499s51.667 -64.166 69 -107.499s26 -95 26 -155v-20c0 -62.667 -8.66699 -116.334 -26 -161.001s-40.333 -81.334 -69 -110.001s-61.667 -49.834 -99 -63.501s-76 -20.5 -116 -20.5zM370 74c26 0 51.001 4.5 75.001 13.5s45.5 23.167 64.5 42.5
s34.667 44.166 47 74.499s19.833 67.166 22.5 110.499h-419c2.66699 -43.333 10.167 -80.166 22.5 -110.499s28.166 -55.166 47.499 -74.499s41 -33.5 65 -42.5s49 -13.5 75 -13.5zM370.001 626c-26 0 -50.999 -4.5 -74.999 -13.5s-45.5 -22.833 -64.5 -41.5
s-34.833 -42.5 -47.5 -71.5s-20.334 -63.833 -23.001 -104.5h419c-2.66699 40.667 -10.167 75.5 -22.5 104.5s-28 52.833 -47 71.5s-40.5 32.5 -64.5 41.5s-49 13.5 -75 13.5z" />
    <glyph glyph-name="uni04E9" unicode="&#x4e9;" horiz-adv-x="600" 
d="M300 -10c-34 0 -66.333 5.5 -97 16.5s-57.667 27.667 -81 50s-42 50.5 -56 84.5s-21 73.667 -21 119v20c0 42.667 7 80.334 21 113.001s32.667 59.834 56 81.501s50.333 38 81 49s63 16.5 97 16.5s66.333 -5.5 97 -16.5s57.667 -27.333 81 -49s42 -48.834 56 -81.501
s21 -70.334 21 -113.001v-20c0 -45.333 -7 -85 -21 -119s-32.667 -62.167 -56 -84.5s-50.333 -39 -81 -50s-63 -16.5 -97 -16.5zM300 70c18.667 0 37.501 3 56.501 9s36 15.833 51 29.5s27.667 31.167 38 52.5s16.5 47.333 18.5 78h-329c2 -30.667 8.16699 -56.667 18.5 -78
s23.166 -38.833 38.499 -52.5s32.333 -23.5 51 -29.5s37.667 -9 57 -9zM300.001 460c-18.667 0 -37 -2.83301 -55 -8.5s-34.5 -14.5 -49.5 -26.5s-27.833 -27.5 -38.5 -46.5s-17.334 -41.5 -20.001 -67.5h326c-3.33301 26 -10.166 48.5 -20.499 67.5s-23 34.5 -38 46.5
s-31.5 20.833 -49.5 26.5s-36.333 8.5 -55 8.5z" />
    <glyph glyph-name="uni04EA" unicode="&#x4ea;" horiz-adv-x="740" 
d="M370 -10c-40 0 -78.667 6.83301 -116 20.5s-70.333 34.834 -99 63.501s-51.667 65.334 -69 110.001s-26 98.334 -26 161.001v20c0 60 8.66699 111.667 26 155s40.333 79.166 69 107.499s61.667 49.166 99 62.499s76 20 116 20s78.667 -6.66699 116 -20
s70.333 -34.166 99 -62.499s51.667 -64.166 69 -107.499s26 -95 26 -155v-20c0 -62.667 -8.66699 -116.334 -26 -161.001s-40.333 -81.334 -69 -110.001s-61.667 -49.834 -99 -63.501s-76 -20.5 -116 -20.5zM370 74c26 0 51.001 4.5 75.001 13.5s45.5 23.167 64.5 42.5
s34.667 44.166 47 74.499s19.833 67.166 22.5 110.499h-419c2.66699 -43.333 10.167 -80.166 22.5 -110.499s28.166 -55.166 47.499 -74.499s41 -33.5 65 -42.5s49 -13.5 75 -13.5zM370.001 626c-26 0 -50.999 -4.5 -74.999 -13.5s-45.5 -22.833 -64.5 -41.5
s-34.833 -42.5 -47.5 -71.5s-20.334 -63.833 -23.001 -104.5h419c-2.66699 40.667 -10.167 75.5 -22.5 104.5s-28 52.833 -47 71.5s-40.5 32.5 -64.5 41.5s-49 13.5 -75 13.5zM260.002 765c-16.667 0 -30.834 5.83301 -42.501 17.5s-17.5 25.834 -17.5 42.501
s5.83301 30.834 17.5 42.501s25.834 17.5 42.501 17.5s30.834 -5.83301 42.501 -17.5s17.5 -25.834 17.5 -42.501s-5.83301 -30.834 -17.5 -42.501s-25.834 -17.5 -42.501 -17.5zM480.002 765c-16.667 0 -30.834 5.83301 -42.501 17.5s-17.5 25.834 -17.5 42.501
s5.83301 30.834 17.5 42.501s25.834 17.5 42.501 17.5s30.834 -5.83301 42.501 -17.5s17.5 -25.834 17.5 -42.501s-5.83301 -30.834 -17.5 -42.501s-25.834 -17.5 -42.501 -17.5z" />
    <glyph glyph-name="uni04EB" unicode="&#x4eb;" horiz-adv-x="600" 
d="M300 -10c-34 0 -66.333 5.5 -97 16.5s-57.667 27.667 -81 50s-42 50.5 -56 84.5s-21 73.667 -21 119v20c0 42.667 7 80.334 21 113.001s32.667 59.834 56 81.501s50.333 38 81 49s63 16.5 97 16.5s66.333 -5.5 97 -16.5s57.667 -27.333 81 -49s42 -48.834 56 -81.501
s21 -70.334 21 -113.001v-20c0 -45.333 -7 -85 -21 -119s-32.667 -62.167 -56 -84.5s-50.333 -39 -81 -50s-63 -16.5 -97 -16.5zM300 70c18.667 0 37.501 3 56.501 9s36 15.833 51 29.5s27.667 31.167 38 52.5s16.5 47.333 18.5 78h-329c2 -30.667 8.16699 -56.667 18.5 -78
s23.166 -38.833 38.499 -52.5s32.333 -23.5 51 -29.5s37.667 -9 57 -9zM300.001 460c-18.667 0 -37 -2.83301 -55 -8.5s-34.5 -14.5 -49.5 -26.5s-27.833 -27.5 -38.5 -46.5s-17.334 -41.5 -20.001 -67.5h326c-3.33301 26 -10.166 48.5 -20.499 67.5s-23 34.5 -38 46.5
s-31.5 20.833 -49.5 26.5s-36.333 8.5 -55 8.5zM198.001 602c-16 0 -29.667 5.66699 -41 17s-17 25 -17 41s5.66699 29.667 17 41s25 17 41 17s29.667 -5.66699 41 -17s17 -25 17 -41s-5.66699 -29.667 -17 -41s-25 -17 -41 -17zM402.001 602c-16 0 -29.667 5.66699 -41 17
s-17 25 -17 41s5.66699 29.667 17 41s25 17 41 17s29.667 -5.66699 41 -17s17 -25 17 -41s-5.66699 -29.667 -17 -41s-25 -17 -41 -17z" />
    <glyph glyph-name="uni04EE" unicode="&#x4ee;" horiz-adv-x="670" 
d="M205 -10c-7.33301 0 -14.4971 0.167969 -21.4971 0.500977s-13.167 0.833008 -18.5 1.5v84c5.33301 -0.666992 11.5 -1.16699 18.5 -1.5s14.167 -0.5 21.5 -0.5c14 0 26 1.16699 36 3.5s18.833 6.66602 26.5 12.999s14.667 14.833 21 25.5s13.166 24.667 20.499 42
l-289 542h102l234 -445l198 445h96l-255 -563c-11.333 -25.333 -23 -47.333 -35 -66s-25.333 -34 -40 -46s-31.334 -20.833 -50.001 -26.5s-40.334 -8.5 -65.001 -8.5zM205.003 864.001h260v-68h-260v68z" />
    <glyph glyph-name="uni04EF" unicode="&#x4ef;" horiz-adv-x="560" 
d="M150 -210c-10 0 -20.002 1.00098 -30.002 3.00098v80c10 -2 20 -3 30 -3s18.667 1.66699 26 5s14.333 9.66602 21 18.999s13.834 22.5 21.501 39.5s16.5 39.167 26.5 66.5l-225 530h98l172 -430l156 430h94l-200 -530c-14 -37.333 -27.333 -69.333 -40 -96
s-26.167 -48.5 -40.5 -65.5s-30.166 -29.333 -47.499 -37s-38 -11.5 -62 -11.5zM149.998 694.001h260v-68h-260v68z" />
    <glyph glyph-name="uni04F0" unicode="&#x4f0;" horiz-adv-x="670" 
d="M205 -10c-7.33301 0 -14.4971 0.167969 -21.4971 0.500977s-13.167 0.833008 -18.5 1.5v84c5.33301 -0.666992 11.5 -1.16699 18.5 -1.5s14.167 -0.5 21.5 -0.5c14 0 26 1.16699 36 3.5s18.833 6.66602 26.5 12.999s14.667 14.833 21 25.5s13.166 24.667 20.499 42
l-289 542h102l234 -445l198 445h96l-255 -563c-11.333 -25.333 -23 -47.333 -35 -66s-25.333 -34 -40 -46s-31.334 -20.833 -50.001 -26.5s-40.334 -8.5 -65.001 -8.5zM225.003 765.001c-16.667 0 -30.834 5.83301 -42.501 17.5s-17.5 25.834 -17.5 42.501
s5.83301 30.834 17.5 42.501s25.834 17.5 42.501 17.5s30.834 -5.83301 42.501 -17.5s17.5 -25.834 17.5 -42.501s-5.83301 -30.834 -17.5 -42.501s-25.834 -17.5 -42.501 -17.5zM445.003 765.001c-16.667 0 -30.834 5.83301 -42.501 17.5s-17.5 25.834 -17.5 42.501
s5.83301 30.834 17.5 42.501s25.834 17.5 42.501 17.5s30.834 -5.83301 42.501 -17.5s17.5 -25.834 17.5 -42.501s-5.83301 -30.834 -17.5 -42.501s-25.834 -17.5 -42.501 -17.5z" />
    <glyph glyph-name="uni04F1" unicode="&#x4f1;" horiz-adv-x="560" 
d="M150 -210c-10 0 -20.002 1.00098 -30.002 3.00098v80c10 -2 20 -3 30 -3s18.667 1.66699 26 5s14.333 9.66602 21 18.999s13.834 22.5 21.501 39.5s16.5 39.167 26.5 66.5l-225 530h98l172 -430l156 430h94l-200 -530c-14 -37.333 -27.333 -69.333 -40 -96
s-26.167 -48.5 -40.5 -65.5s-30.166 -29.333 -47.499 -37s-38 -11.5 -62 -11.5zM184.998 602.001c-16 0 -29.667 5.66699 -41 17s-17 25 -17 41s5.66699 29.667 17 41s25 17 41 17s29.667 -5.66699 41 -17s17 -25 17 -41s-5.66699 -29.667 -17 -41s-25 -17 -41 -17z
M388.998 602.001c-16 0 -29.667 5.66699 -41 17s-17 25 -17 41s5.66699 29.667 17 41s25 17 41 17s29.667 -5.66699 41 -17s17 -25 17 -41s-5.66699 -29.667 -17 -41s-25 -17 -41 -17z" />
    <glyph glyph-name="uni04F2" unicode="&#x4f2;" horiz-adv-x="670" 
d="M205 -10c-7.33301 0 -14.4971 0.167969 -21.4971 0.500977s-13.167 0.833008 -18.5 1.5v84c5.33301 -0.666992 11.5 -1.16699 18.5 -1.5s14.167 -0.5 21.5 -0.5c14 0 26 1.16699 36 3.5s18.833 6.66602 26.5 12.999s14.667 14.833 21 25.5s13.166 24.667 20.499 42
l-289 542h102l234 -445l198 445h96l-255 -563c-11.333 -25.333 -23 -47.333 -35 -66s-25.333 -34 -40 -46s-31.334 -20.833 -50.001 -26.5s-40.334 -8.5 -65.001 -8.5zM329.003 900.001h103l-136 -150h-82zM502.003 900.001h103l-161 -150h-82z" />
    <glyph glyph-name="uni04F3" unicode="&#x4f3;" horiz-adv-x="560" 
d="M150 -210c-10 0 -20.002 1.00098 -30.002 3.00098v80c10 -2 20 -3 30 -3s18.667 1.66699 26 5s14.333 9.66602 21 18.999s13.834 22.5 21.501 39.5s16.5 39.167 26.5 66.5l-225 530h98l172 -430l156 430h94l-200 -530c-14 -37.333 -27.333 -69.333 -40 -96
s-26.167 -48.5 -40.5 -65.5s-30.166 -29.333 -47.499 -37s-38 -11.5 -62 -11.5zM158.998 580.001l110 160h110l-150 -160h-70zM338.998 580.001l130 160h110l-170 -160h-70z" />
    <glyph glyph-name="uni04F4" unicode="&#x4f4;" horiz-adv-x="670" 
d="M476 308c-17.333 -11.333 -41.667 -21.667 -73 -31s-67.333 -14 -108 -14c-82 0 -141.667 18.5 -179 55.5s-56 95.833 -56 176.5v205h94v-205c0 -52.667 11.667 -90.5 35 -113.5s62 -34.5 116 -34.5c41.333 0 75.833 5 103.5 15s50.167 20.667 67.5 32v306h94v-700h-94
v308zM224.999 764.999c-16.667 0 -30.834 5.83301 -42.501 17.5s-17.5 25.834 -17.5 42.501s5.83301 30.834 17.5 42.501s25.834 17.5 42.501 17.5s30.834 -5.83301 42.501 -17.5s17.5 -25.834 17.5 -42.501s-5.83301 -30.834 -17.5 -42.501s-25.834 -17.5 -42.501 -17.5z
M444.999 764.999c-16.667 0 -30.834 5.83301 -42.501 17.5s-17.5 25.834 -17.5 42.501s5.83301 30.834 17.5 42.501s25.834 17.5 42.501 17.5s30.834 -5.83301 42.501 -17.5s17.5 -25.834 17.5 -42.501s-5.83301 -30.834 -17.5 -42.501s-25.834 -17.5 -42.501 -17.5z" />
    <glyph glyph-name="uni04F5" unicode="&#x4f5;" horiz-adv-x="555" 
d="M387 211c-15.333 -9.33301 -33.8311 -17.6689 -55.498 -25.002s-48.834 -11 -81.501 -11c-30.667 0 -58.167 3.33301 -82.5 10s-44.833 17.334 -61.5 32.001s-29.334 33.667 -38.001 57s-13 52 -13 86v170h88v-155c0 -22.667 2.16699 -41.667 6.5 -57
s11.5 -27.666 21.5 -36.999s22.667 -16 38 -20s34 -6 56 -6c30 0 55.667 3 77 9s36.333 12.333 45 19v247h88v-530h-88v211zM167.002 601.997c-16 0 -29.667 5.66699 -41 17s-17 25 -17 41s5.66699 29.667 17 41s25 17 41 17s29.667 -5.66699 41 -17s17 -25 17 -41
s-5.66699 -29.667 -17 -41s-25 -17 -41 -17zM371.002 601.997c-16 0 -29.667 5.66699 -41 17s-17 25 -17 41s5.66699 29.667 17 41s25 17 41 17s29.667 -5.66699 41 -17s17 -25 17 -41s-5.66699 -29.667 -17 -41s-25 -17 -41 -17z" />
    </font>
</defs>
</svg>
