<?xml version="1.0" standalone="no"?>
<!DOCTYPE svg PUBLIC "-//W3C//DTD SVG 1.1//EN" "http://www.w3.org/Graphics/SVG/1.1/DTD/svg11.dtd" >
<svg>
<metadata>
Created by FontForge 20090914 at Sun Aug  7 11:27:06 2022
 By www-data
Copyright &#194;&#169; 2019, ParaType Ltd. All rights reserved.
</metadata>
<defs>
<font id="GolosText-Medium" horiz-adv-x="630" >
  <font-face 
    font-family="Golos Text Medium"
    font-weight="500"
    font-stretch="normal"
    units-per-em="1000"
    panose-1="2 11 6 3 2 2 2 2 2 4"
    ascent="774"
    descent="-226"
    x-height="530"
    cap-height="700"
    bbox="-993 -229 1195 960"
    underline-thickness="50"
    underline-position="-50"
    unicode-range="U+000D-U+FEFF"
  />
<missing-glyph horiz-adv-x="500" 
d="M442 8v496h-384v-496h384zM50 512h400v-512h-400v512z" />
    <glyph glyph-name=".notdef" horiz-adv-x="500" 
d="M442 8v496h-384v-496h384zM50 512h400v-512h-400v512z" />
    <glyph glyph-name=".null" horiz-adv-x="0" 
 />
    <glyph glyph-name=".null" horiz-adv-x="0" 
 />
    <glyph glyph-name="uni000D" unicode="&#xd;" horiz-adv-x="250" 
 />
    <glyph glyph-name="space" unicode=" " horiz-adv-x="250" 
 />
    <glyph glyph-name="exclam" unicode="!" horiz-adv-x="310" 
d="M100 700h110v-475h-110v475zM155 -11c-22.667 0 -41.667 7.66699 -57 23s-23 34.333 -23 57c0 23.333 7.66699 42.5 23 57.5s34.333 22.5 57 22.5s41.667 -7.5 57 -22.5s23 -34.167 23 -57.5c0 -22.667 -7.66699 -41.667 -23 -57s-34.333 -23 -57 -23z" />
    <glyph glyph-name="quotedbl" unicode="&#x22;" horiz-adv-x="400" 
d="M60 700h100v-220h-100v220zM240 700h100v-220h-100v220z" />
    <glyph glyph-name="numbersign" unicode="#" horiz-adv-x="680" 
d="M135 192h-80v86h96l27 144h-84v86h100l36 192h102l-36 -192h146l36 192h102l-36 -192h81v-86h-97l-27 -144h85v-86h-101l-35 -192h-102l35 192h-146l-35 -192h-102zM399 278l27 144h-146l-27 -144h146z" />
    <glyph glyph-name="dollar" unicode="$" horiz-adv-x="650" 
d="M275 -8c-73.333 7.33301 -128 28.9961 -164 64.9961s-56.333 80.333 -61 133h120c2.66699 -14 7.16699 -26.667 13.5 -38s15.5 -21.333 27.5 -30s27.167 -15.334 45.5 -20.001s41.166 -7 68.499 -7c28 0 51.833 2.5 71.5 7.5s35.667 11.667 48 20s21.333 18.333 27 30
s8.5 24.167 8.5 37.5c0 32.667 -15.167 57.334 -45.5 74.001s-77.5 31.667 -141.5 45c-36 8 -68 17.5 -96 28.5s-51.333 24.667 -70 41s-32.834 36 -42.501 59s-14.5 50.5 -14.5 82.5c0 23.333 4.33301 45.5 13 66.5s21.667 39.833 39 56.5s38.666 30.667 63.999 42
s55 19 89 23v92h100v-92c64.667 -7.33301 113.834 -28.166 147.501 -62.499s52.834 -76.166 57.501 -125.499h-120c-5.33301 25.333 -18.833 45.833 -40.5 61.5s-53.167 23.5 -94.5 23.5c-48 0 -82.5 -8.33301 -103.5 -25s-31.5 -36.667 -31.5 -60c0 -32 13.333 -56 40 -72
s67.667 -29.667 123 -41c40.667 -8.66699 76.5 -18.667 107.5 -30s56.833 -25.5 77.5 -42.5s36.167 -37.167 46.5 -60.5s15.5 -51.333 15.5 -84c0 -26 -4.66699 -50.333 -14 -73s-23.333 -42.667 -42 -60s-42.167 -31.666 -70.5 -42.999s-61.166 -18.666 -98.499 -21.999
v-112h-100v112z" />
    <glyph glyph-name="percent" unicode="%" horiz-adv-x="840" 
d="M600 700h120l-480 -700h-120zM190 369c-24.667 0 -47.167 4 -67.5 12s-37.666 19.333 -51.999 34s-25.5 32.167 -33.5 52.5s-12 42.833 -12 67.5v10c0 24.667 4 47.167 12 67.5s19.167 37.833 33.5 52.5s31.666 26 51.999 34s42.833 12 67.5 12s47 -4 67 -12
s37.333 -19.333 52 -34s26 -32.167 34 -52.5s12 -42.833 12 -67.5v-10c0 -24.667 -4 -47.167 -12 -67.5s-19.333 -37.833 -34 -52.5s-32 -26 -52 -34s-42.333 -12 -67 -12zM190 459c18 0 32.333 6 43 18s16 31.333 16 58v10c0 26.667 -5.33301 46 -16 58s-25 18 -43 18
s-32.333 -6 -43 -18s-16 -31.333 -16 -58v-10c0 -26.667 5.33301 -46 16 -58s25 -18 43 -18zM650 -10c-24.667 0 -47.167 4 -67.5 12s-37.666 19.333 -51.999 34s-25.5 32.167 -33.5 52.5s-12 42.833 -12 67.5v10c0 24.667 4 47.167 12 67.5s19.167 37.833 33.5 52.5
s31.666 26 51.999 34s42.833 12 67.5 12s47 -4 67 -12s37.333 -19.333 52 -34s26 -32.167 34 -52.5s12 -42.833 12 -67.5v-10c0 -24.667 -4 -47.167 -12 -67.5s-19.333 -37.833 -34 -52.5s-32 -26 -52 -34s-42.333 -12 -67 -12zM650 80c18 0 32.333 6 43 18s16 31.333 16 58
v10c0 26.667 -5.33301 46 -16 58s-25 18 -43 18s-32.333 -6 -43 -18s-16 -31.333 -16 -58v-10c0 -26.667 5.33301 -46 16 -58s25 -18 43 -18z" />
    <glyph glyph-name="ampersand" unicode="&#x26;" horiz-adv-x="685" 
d="M290 -11c-35.333 0 -67.5029 4.99707 -96.5029 14.9971s-53.833 23.833 -74.5 41.5s-36.5 38.834 -47.5 63.501s-16.5 51.667 -16.5 81c0 20.667 2.16699 39.834 6.5 57.501s11.333 34.834 21 51.501s22.334 33.167 38.001 49.5s35.167 33.166 58.5 50.499
c-14.667 17.333 -26.5 33 -35.5 47s-16 27.333 -21 40s-8.33301 24.834 -10 36.501s-2.5 24.167 -2.5 37.5c0 21.333 4 41.166 12 59.499s19.333 34.333 34 48s32.5 24.334 53.5 32.001s44.5 11.5 70.5 11.5s49.5 -3.83301 70.5 -11.5s38.833 -18.334 53.5 -32.001
s26 -29.667 34 -48s12 -38.166 12 -59.499c0 -14 -2 -27.5 -6 -40.5s-10.667 -26.5 -20 -40.5s-21.666 -28.5 -36.999 -43.5s-34 -31.5 -56 -49.5l147 -165c6.66699 17.333 11.667 35 15 53s5 38.333 5 61h112c0 -41.333 -4.66699 -78.333 -14 -111s-22.666 -63 -39.999 -91
l119 -133h-134l-52 57c-27.333 -22 -57.833 -38.833 -91.5 -50.5s-69.5 -17.5 -107.5 -17.5zM289.997 84.9971c50.667 0 93.998 16 129.998 48l-172 189c-17.333 -14 -31.166 -26.333 -41.499 -37s-18.5 -21 -24.5 -31s-10 -20 -12 -30s-3 -21.333 -3 -34
c0 -30 10.833 -55 32.5 -75s51.834 -30 90.501 -30zM219.995 559.997c0 -8 0.5 -15.334 1.5 -22.001s3.16699 -13.667 6.5 -21s8 -15.333 14 -24s14 -19 24 -31c17.333 12.667 31 23.834 41 33.501s17.5 18.167 22.5 25.5s8 14 9 20s1.5 12.333 1.5 19
c0 15.333 -5.5 28.333 -16.5 39s-25.5 16 -43.5 16s-32.5 -5.33301 -43.5 -16s-16.5 -23.667 -16.5 -39z" />
    <glyph glyph-name="quotesingle" unicode="'" horiz-adv-x="220" 
d="M60 700h100v-220h-100v220z" />
    <glyph glyph-name="parenleft" unicode="(" horiz-adv-x="380" 
d="M80 260c0 34 2.33301 66.167 7 96.5s11 59 19 86s17.167 52 27.5 75s20.833 44.167 31.5 63.5c24.667 44.667 53 84.334 85 119.001h120c-34 -34.667 -64.333 -74.334 -91 -119.001c-11.333 -19.333 -22.5 -40.5 -33.5 -63.5s-20.833 -48 -29.5 -75
s-15.5 -55.667 -20.5 -86s-7.5 -62.5 -7.5 -96.5v-20c0 -34 2.5 -66.167 7.5 -96.5s11.833 -59 20.5 -86s18.5 -52.167 29.5 -75.5s22.167 -44.333 33.5 -63c26.667 -44.667 57 -84.334 91 -119.001h-124c-31.333 34.667 -59 74.334 -83 119.001
c-21.333 38 -40.5 84 -57.5 138s-25.5 115 -25.5 183v20z" />
    <glyph glyph-name="parenright" unicode=")" horiz-adv-x="380" 
d="M300.005 240.016c0 -33.998 -2.33301 -66.1631 -7 -96.4941c-4.66602 -30.3311 -10.999 -58.9961 -18.998 -85.9941c-8 -26.999 -17.166 -51.998 -27.499 -74.9971s-20.832 -44.1641 -31.498 -63.4961c-24.665 -44.6641 -52.9961 -84.3281 -84.9941 -118.992h-119.993
c33.998 34.6641 64.3291 74.3281 90.9941 118.992c11.333 19.332 22.499 40.4971 33.498 63.4961s20.832 47.998 29.499 74.9971c8.66602 26.998 15.499 55.6631 20.498 85.9941c5 30.3311 7.5 62.4961 7.5 96.4941v19.999c0 33.998 -2.5 66.1631 -7.5 96.4941
c-4.99902 30.3311 -11.832 58.9961 -20.498 85.9951c-8.66699 26.998 -18.5 52.1631 -29.499 75.4951s-22.165 44.3311 -33.498 62.9961c-26.665 44.6641 -56.9961 84.3281 -90.9941 118.993h123.992c31.3311 -34.665 58.9961 -74.3291 82.9951 -118.993
c21.332 -37.998 40.498 -83.9951 57.4971 -137.991c16.999 -53.9971 25.498 -114.993 25.498 -182.989v-19.999z" />
    <glyph glyph-name="asterisk" unicode="*" horiz-adv-x="450" 
d="M191 467l-98 -67l-43 74l108 51l-108 51l42 74l99 -67l-8 117h84l-8 -117l99 67l42 -74l-108 -51l108 -51l-43 -74l-98 67l8 -117h-84z" />
    <glyph glyph-name="plus" unicode="+" horiz-adv-x="560" 
d="M225 308h-180v104h180v183h110v-183h180v-104h-180v-183h-110v183z" />
    <glyph glyph-name="comma" unicode="," horiz-adv-x="310" 
d="M90 0v126h130v-126l-110 -155h-60z" />
    <glyph glyph-name="hyphen" unicode="-" horiz-adv-x="380" 
d="M35 332h310v-104h-310v104z" />
    <glyph glyph-name="period" unicode="." horiz-adv-x="310" 
d="M155 -11c-22.667 0 -41.667 7.66699 -57 23s-23 34.333 -23 57c0 23.333 7.66699 42.5 23 57.5s34.333 22.5 57 22.5s41.667 -7.5 57 -22.5s23 -34.167 23 -57.5c0 -22.667 -7.66699 -41.667 -23 -57s-34.333 -23 -57 -23z" />
    <glyph glyph-name="slash" unicode="/" horiz-adv-x="480" 
d="M348 700h102l-318 -900h-102z" />
    <glyph glyph-name="zero" unicode="0" 
d="M315 -11c-36.667 0 -70.834 5.66699 -102.501 17s-59.167 30.833 -82.5 58.5s-41.666 64.667 -54.999 111s-20 104.5 -20 174.5v20c0 64.667 6.66699 118.834 20 162.501s31.666 78.667 54.999 105s50.833 45.166 82.5 56.499s65.834 17 102.501 17
s70.834 -5.66699 102.501 -17s59.167 -30.166 82.5 -56.499s41.666 -61.333 54.999 -105s20 -97.834 20 -162.501v-20c0 -70 -6.66699 -128.167 -20 -174.5s-31.666 -83.333 -54.999 -111s-50.833 -47.167 -82.5 -58.5s-65.834 -17 -102.501 -17zM315 93
c18.667 0 36.334 3.66699 53.001 11s31.5 20.5 44.5 39.5s23.333 45.167 31 78.5s11.5 76 11.5 128v20c0 46.667 -3.83301 85.334 -11.5 116.001s-18 55 -31 73s-27.833 30.5 -44.5 37.5s-34.334 10.5 -53.001 10.5s-36.334 -3.5 -53.001 -10.5s-31.5 -19.5 -44.5 -37.5
s-23.333 -42.333 -31 -73s-11.5 -69.334 -11.5 -116.001v-20c0 -52 3.83301 -94.667 11.5 -128s18 -59.5 31 -78.5s27.833 -32.167 44.5 -39.5s34.334 -11 53.001 -11z" />
    <glyph glyph-name="one" unicode="1" horiz-adv-x="495" 
d="M50 104h165v469l-165 -117v124l169 120h116v-596h135v-104h-420v104z" />
    <glyph glyph-name="two" unicode="2" horiz-adv-x="590" 
d="M35 94l261.003 225.997c21.333 18.667 39.5 35.334 54.5 50.001s27.333 28.5 37 41.5s16.667 25.833 21 38.5s6.5 26 6.5 40c0 34 -10.167 61.667 -30.5 83s-48.5 32 -84.5 32c-42.667 0 -75.834 -11.5 -99.501 -34.5s-35.5 -58.167 -35.5 -105.5h-120
c0 36.667 6 70.167 18 100.5s29 56.333 51 78s48.667 38.334 80 50.001s66.666 17.5 105.999 17.5c38 0 71.667 -5.5 101 -16.5s53.833 -26.333 73.5 -46s34.667 -43 45 -70s15.5 -56.5 15.5 -88.5c0 -24 -3.83301 -46.667 -11.5 -68s-18.334 -41.666 -32.001 -60.999
s-30 -38.333 -49 -57s-39.833 -37 -62.5 -55l-178 -145h343v-104h-510v94z" />
    <glyph glyph-name="three" unicode="3" horiz-adv-x="595" 
d="M290 -11c-40.667 0 -76.501 5.16504 -107.501 15.498s-57 24.833 -78 43.5s-37 40.834 -48 66.501s-16.5 54.167 -16.5 85.5h120c0 -33.333 10.5 -59.166 31.5 -77.499s53.833 -27.5 98.5 -27.5c43.333 0 75.833 9.16699 97.5 27.5s32.5 44.166 32.5 77.499
c0 34 -10 60.833 -30 80.5s-53.333 29.5 -100 29.5h-70v100h70c40 0 70 8.5 90 25.5s30 41.5 30 73.5s-9.5 56 -28.5 72s-49.5 24 -91.5 24c-41.333 0 -71.833 -8.33301 -91.5 -25s-29.5 -40 -29.5 -70h-120c0 60.667 20.5 109.334 61.5 146.001s100.833 55 179.5 55
c39.333 0 74 -5 104 -15s55 -23.5 75 -40.5s35.167 -36.833 45.5 -59.5s15.5 -47 15.5 -73c0 -40 -10.667 -73.5 -32 -100.5s-50.666 -46.167 -87.999 -57.5c40.667 -12 72.5 -32.167 95.5 -60.5s34.5 -66.5 34.5 -114.5c0 -28 -5.33301 -54.333 -16 -79
s-26.5 -46 -47.5 -64s-47.167 -32.167 -78.5 -42.5s-67.333 -15.5 -108 -15.5z" />
    <glyph glyph-name="four" unicode="4" horiz-adv-x="615" 
d="M365 158h-345v89l340 453h125v-438h85v-104h-85v-158h-120v158zM365 262v300l-225 -300h225z" />
    <glyph glyph-name="five" unicode="5" horiz-adv-x="590" 
d="M295 -11c-41.333 0 -76.834 5.33398 -106.501 16.001s-54.167 25 -73.5 43s-33.833 38.5 -43.5 61.5s-15.167 46.5 -16.5 70.5h120c3.33301 -24 15.166 -44.167 35.499 -60.5s48.5 -24.5 84.5 -24.5c40.667 0 72.5 12 95.5 36s34.5 59 34.5 105
c0 26 -3.83301 47.833 -11.5 65.5s-17.5 32 -29.5 43s-25.833 19 -41.5 24s-31.5 7.5 -47.5 7.5c-28.667 0 -52.5 -5 -71.5 -15s-34.167 -23.667 -45.5 -41h-108v380h435v-104h-317v-163c15.333 14.667 33.333 26.5 54 35.5s46.667 13.5 78 13.5
c34 0 64.833 -5.33301 92.5 -16s51.334 -26.334 71.001 -47.001s34.834 -46.167 45.501 -76.5s16 -65.5 16 -105.5c0 -38 -6 -72.333 -18 -103s-29 -56.667 -51 -78s-48.333 -37.833 -79 -49.5s-64.667 -17.5 -102 -17.5z" />
    <glyph glyph-name="six" unicode="6" horiz-adv-x="615" 
d="M320 -11c-41.333 0 -78.332 6.33594 -110.999 19.0029s-60.5 32.334 -83.5 59.001s-40.5 60.5 -52.5 101.5s-18 89.833 -18 146.5v20c0 68 7 125.833 21 173.5s33.333 86.5 58 116.5s53.667 51.833 87 65.5s69.666 20.5 108.999 20.5c59.333 0 108.333 -13.167 147 -39.5
s63 -68.5 73 -126.5h-120c-7.33301 21.333 -19.333 36.666 -36 45.999s-38 14 -64 14c-22.667 0 -43.667 -3.5 -63 -10.5s-36.333 -19.167 -51 -36.5s-26.334 -40.833 -35.001 -70.5s-13.334 -67.167 -14.001 -112.5c8.66699 14.667 19.5 27.167 32.5 37.5
s27.333 18.666 43 24.999s31.834 11 48.501 14s33 4.5 49 4.5c70.667 0 125.834 -19.333 165.501 -58s59.5 -93.667 59.5 -165v-10c0 -34.667 -6.16699 -66.334 -18.5 -95.001s-29.5 -53.334 -51.5 -74.001s-48 -36.667 -78 -48s-62.333 -17 -97 -17zM312.001 95.0029
c40 0 72.167 11.833 96.5 35.5s36.5 54.5 36.5 92.5v10c0 37.333 -12.167 67.833 -36.5 91.5s-56.5 35.5 -96.5 35.5s-72.167 -11.833 -96.5 -35.5s-36.5 -54.167 -36.5 -91.5v-10c0 -38 12.167 -68.833 36.5 -92.5s56.5 -35.5 96.5 -35.5z" />
    <glyph glyph-name="seven" unicode="7" horiz-adv-x="535" 
d="M374 596h-354v104h480v-94l-240 -606h-130z" />
    <glyph glyph-name="eight" unicode="8" horiz-adv-x="620" 
d="M310 -11c-42 0 -79.168 4.83203 -111.501 14.499s-59.5 23.334 -81.5 41.001s-38.667 38.667 -50 63s-17 51.166 -17 80.499c0 40 12.5 75.5 37.5 106.5s61.5 53.167 109.5 66.5c-18 6 -34.667 14 -50 24s-28.666 22 -39.999 36s-20.333 29.5 -27 46.5s-10 35.5 -10 55.5
c0 26.667 5.33301 51.5 16 74.5s26.167 43 46.5 60s45.333 30.167 75 39.5s63.834 14 102.501 14s73 -4.66699 103 -14s55.167 -22.5 75.5 -39.5s35.666 -37 45.999 -60s15.5 -47.833 15.5 -74.5c0 -40 -12 -73.667 -36 -101s-54 -47.666 -90 -60.999
c48.667 -15.333 85.167 -37 109.5 -65s36.5 -64 36.5 -108c0 -29.333 -5.66699 -56.166 -17 -80.499s-28 -45.333 -50 -63s-49.167 -31.334 -81.5 -41.001s-69.5 -14.5 -111.5 -14.5zM309.999 94.999c47.333 0 82.5 9.5 105.5 28.5s34.5 43.5 34.5 73.5
c0 34 -13.333 61.167 -40 81.5s-60 33.166 -100 38.499c-40 -5.33301 -73.333 -18.166 -100 -38.499s-40 -47.5 -40 -81.5c0 -30 11.833 -54.5 35.5 -73.5s58.5 -28.5 104.5 -28.5zM309.999 402.999c35.333 5.33301 64.168 16.666 86.501 33.999s33.5 43 33.5 77
c0 30 -10.833 52.667 -32.5 68s-50.834 23 -87.501 23s-65.834 -7.5 -87.501 -22.5s-32.5 -37.833 -32.5 -68.5c0 -34 11.333 -59.667 34 -77s51.334 -28.666 86.001 -33.999z" />
    <glyph glyph-name="nine" unicode="9" horiz-adv-x="615" 
d="M290 -11c-61.333 0 -111.666 13.1621 -150.999 39.4951s-64 68.5 -74 126.5h120c7.33301 -21.333 19.666 -36.666 36.999 -45.999s40 -14 68 -14c21.333 0 41.333 3.5 60 10.5s35.167 19.167 49.5 36.5s25.833 40.833 34.5 70.5s13.334 67.167 14.001 112.5
c-8.66699 -14.667 -19.5 -27.167 -32.5 -37.5s-27.333 -18.666 -43 -24.999s-31.834 -11 -48.501 -14s-33 -4.5 -49 -4.5c-70.667 0 -125.834 19.5 -165.501 58.5s-59.5 93.833 -59.5 164.5v10c0 34.667 6.16699 66.334 18.5 95.001s29.5 53.334 51.5 74.001
s48 36.667 78 48s62.333 17 97 17c42 0 79.333 -6.33301 112 -19s60.334 -32.167 83.001 -58.5s40 -60.166 52 -101.499s18 -90.333 18 -147v-20c0 -68 -7 -125.833 -21 -173.5s-33.167 -86.5 -57.5 -116.5s-52.833 -51.833 -85.5 -65.5s-68 -20.5 -106 -20.5zM303 339.995
c40 0 72.167 11.832 96.5 35.499s36.5 54.167 36.5 91.5v10c0 18 -3.33301 34.833 -10 50.5s-15.834 29.334 -27.501 41.001s-25.667 20.667 -42 27s-34.166 9.5 -53.499 9.5c-40 0 -72.167 -11.833 -96.5 -35.5s-36.5 -54.5 -36.5 -92.5v-10
c0 -37.333 12.167 -67.833 36.5 -91.5s56.5 -35.5 96.5 -35.5z" />
    <glyph glyph-name="colon" unicode=":" horiz-adv-x="310" 
d="M155 -11c-22.667 0 -41.667 7.66699 -57 23s-23 34.333 -23 57c0 23.333 7.66699 42.5 23 57.5s34.333 22.5 57 22.5s41.667 -7.5 57 -22.5s23 -34.167 23 -57.5c0 -22.667 -7.66699 -41.667 -23 -57s-34.333 -23 -57 -23zM155 381c-22.667 0 -41.667 7.66699 -57 23
s-23 34.333 -23 57c0 23.333 7.66699 42.5 23 57.5s34.333 22.5 57 22.5s41.667 -7.5 57 -22.5s23 -34.167 23 -57.5c0 -22.667 -7.66699 -41.667 -23 -57s-34.333 -23 -57 -23z" />
    <glyph glyph-name="semicolon" unicode=";" horiz-adv-x="310" 
d="M90 0v126h130v-126l-110 -155h-60zM155 381c-22.667 0 -41.667 7.66699 -57 23s-23 34.333 -23 57c0 23.333 7.66699 42.5 23 57.5s34.333 22.5 57 22.5s41.667 -7.5 57 -22.5s23 -34.167 23 -57.5c0 -22.667 -7.66699 -41.667 -23 -57s-34.333 -23 -57 -23z" />
    <glyph glyph-name="less" unicode="&#x3c;" horiz-adv-x="560" 
d="M45 313v94l470 208v-120l-330 -133l330 -133v-124z" />
    <glyph glyph-name="equal" unicode="=" horiz-adv-x="560" 
d="M45 302h470v-104h-470v104zM45 522h470v-104h-470v104z" />
    <glyph glyph-name="greater" unicode="&#x3e;" horiz-adv-x="560" 
d="M515 407v-94l-470 -208v120l330 133l-330 133v124z" />
    <glyph glyph-name="question" unicode="?" horiz-adv-x="520" 
d="M205 260c0 14 1.33301 26.665 4 37.998s7.16699 22.333 13.5 33s14.666 21.5 24.999 32.5s23.5 23.167 39.5 36.5c25.333 22 45.166 42.333 59.499 61s21.5 38.334 21.5 59.001c0 26.667 -9.66699 49.167 -29 67.5s-45.666 27.5 -78.999 27.5s-59.666 -9.5 -78.999 -28.5
s-29 -44.5 -29 -76.5h-112c0 28 5.33301 54.333 16 79s25.5 46 44.5 64s42 32.167 69 42.5s57.167 15.5 90.5 15.5c34 0 64.667 -4.83301 92 -14.5s50.5 -23.167 69.5 -40.5s33.5 -37.666 43.5 -60.999s15 -48.333 15 -75c0 -38.667 -9.5 -71.667 -28.5 -99
s-43.167 -54 -72.5 -80c-22 -19.333 -38.167 -35.333 -48.5 -48s-15.5 -28.667 -15.5 -48v-20h-110v35zM260 -11.002c-22.667 0 -41.667 7.66699 -57 23s-23 34.333 -23 57c0 23.333 7.66699 42.5 23 57.5s34.333 22.5 57 22.5s41.667 -7.5 57 -22.5s23 -34.167 23 -57.5
c0 -22.667 -7.66699 -41.667 -23 -57s-34.333 -23 -57 -23z" />
    <glyph glyph-name="at" unicode="@" horiz-adv-x="990" 
d="M507 -211c-66.667 0 -127.671 10.8311 -183.004 32.498s-103 52.5 -143 92.5s-71 88.5 -93 145.5s-33 120.5 -33 190.5c0 69.333 11.333 132.333 34 189s53.667 105.167 93 145.5s85.833 71.5 139.5 93.5s111.5 33 173.5 33c66.667 0 127.167 -10 181.5 -30
s100.666 -48.333 138.999 -85s67.833 -80.334 88.5 -131.001s31 -107 31 -169c0 -44.667 -5.33301 -83.667 -16 -117s-25.334 -61.166 -44.001 -83.499s-40.667 -39 -66 -50s-53 -16.5 -83 -16.5c-14.667 0 -28.667 1.33301 -42 4s-25.5 7.5 -36.5 14.5
s-20.333 16.667 -28 29s-13.5 27.833 -17.5 46.5c-14 -28.667 -32 -51.5 -54 -68.5s-52 -25.5 -90 -25.5c-57.333 0 -102.833 18.667 -136.5 56s-50.5 94 -50.5 170v20c0 76.667 16.5 133.5 49.5 170.5s77.833 55.5 134.5 55.5c36.667 0 64.167 -7.33301 82.5 -22
s31.833 -31 40.5 -49v60h100v-277c0 -34 4.33301 -57.167 13 -69.5s22.334 -18.5 41.001 -18.5c14 0 27.167 3 39.5 9s23 15.667 32 29s16.167 31 21.5 53s8 48.667 8 80c0 54.667 -9.16699 102.667 -27.5 144s-43 75.666 -74 102.999s-66.833 47.833 -107.5 61.5
s-83.667 20.5 -129 20.5c-47.333 0 -91.666 -8.5 -132.999 -25.5s-77.166 -41.667 -107.499 -74s-54.166 -71.666 -71.499 -117.999s-26 -98.833 -26 -157.5c0 -59.333 8.5 -112.166 25.5 -158.499s41 -85.5 72 -117.5s68 -56.5 111 -73.5s90.167 -25.5 141.5 -25.5
c52.667 0 97.167 5.16699 133.5 15.5s66.5 22.833 90.5 37.5v-94c-25.333 -13.333 -55.666 -24.166 -90.999 -32.499s-79.666 -12.5 -132.999 -12.5zM476.996 124.998c30.667 0 55.166 9.66797 73.499 29.001s27.5 45.666 27.5 78.999v65c0 33.333 -9 59.5 -27 78.5
s-43 28.5 -75 28.5c-29.333 0 -52.166 -10.167 -68.499 -30.5s-24.5 -53.5 -24.5 -99.5v-20c0 -46 8.33301 -79.167 25 -99.5s39.667 -30.5 69 -30.5z" />
    <glyph glyph-name="A" unicode="A" horiz-adv-x="680" 
d="M478 158h-284l-59 -158h-120l265 700h120l265 -700h-128zM233 262h206l-102 288z" />
    <glyph glyph-name="B" unicode="B" horiz-adv-x="675" 
d="M90 700l280.003 -0.00390625c79.333 0 137.5 -17 174.5 -51s55.5 -79.333 55.5 -136c0 -36 -9.33301 -66.833 -28 -92.5s-44.334 -44.167 -77.001 -55.5c41.333 -9.33301 74.166 -28.166 98.499 -56.499s36.5 -65.166 36.5 -110.499
c0 -29.333 -4.66699 -56.166 -14 -80.499s-23.833 -45.166 -43.5 -62.499s-44.834 -30.833 -75.501 -40.5s-67.667 -14.5 -111 -14.5h-296v700zM373.003 103.996c52 0 87.835 8.33203 107.502 24.999s29.5 42.334 29.5 77.001c0 16.667 -2.33301 31.667 -7 45
s-12.334 24.5 -23.001 33.5s-24.834 15.833 -42.501 20.5s-39.5 7 -65.5 7h-162v-208h163zM355.005 407.995c46.667 0 79.167 8.66797 97.5 26.001s27.5 40.666 27.5 69.999c0 30 -9 52.833 -27 68.5s-50.667 23.5 -98 23.5h-145v-188h145z" />
    <glyph glyph-name="C" unicode="C" horiz-adv-x="690" 
d="M360 -11c-43.333 0 -83.499 6.66602 -120.499 19.999s-69.167 34.333 -96.5 63s-48.833 65.5 -64.5 110.5s-23.5 99.167 -23.5 162.5v20c0 60.667 8 112.834 24 156.501s37.833 79.5 65.5 107.5s60 48.667 97 62s76.5 20 118.5 20c38.667 0 74.667 -4.83301 108 -14.5
s62.5 -24.167 87.5 -43.5s45.333 -43.333 61 -72s25.167 -62.334 28.5 -101.001h-126c-8.66699 43.333 -27.167 75 -55.5 95s-62.833 30 -103.5 30c-22 0 -43.667 -4 -65 -12s-40.5 -21.333 -57.5 -40s-30.667 -43.334 -41 -74.001s-15.5 -68.667 -15.5 -114v-20
c0 -48 5.5 -88 16.5 -120s25.167 -57.667 42.5 -77s36.5 -33 57.5 -41s41.833 -12 62.5 -12c48 0 85.167 11.167 111.5 33.5s42.166 52.833 47.499 91.5h126c-4 -41.333 -14 -76.666 -30 -105.999s-36.5 -53.166 -61.5 -71.499s-54 -31.833 -87 -40.5s-68.5 -13 -106.5 -13z
" />
    <glyph glyph-name="D" unicode="D" horiz-adv-x="705" 
d="M90 700h225.002c106 0 188.333 -28.167 247 -84.5s88 -139.833 88 -250.5v-20c0 -56 -7.83301 -105.5 -23.5 -148.5s-38.334 -79 -68.001 -108s-65.834 -51 -108.501 -66s-91 -22.5 -145 -22.5h-215v700zM295.002 104c34 0 65.166 4.33203 93.499 12.999
s52.5 22.5 72.5 41.5s35.5 43.833 46.5 74.5s16.5 68 16.5 112v20c0 40.667 -5.66699 75.667 -17 105s-26.666 53.333 -45.999 72s-42.5 32.334 -69.5 41.001s-55.833 13 -86.5 13h-95v-492h85z" />
    <glyph glyph-name="E" unicode="E" horiz-adv-x="615" 
d="M90 700h470v-104h-350v-184h320v-104h-320v-204h350v-104h-470v700z" />
    <glyph glyph-name="F" unicode="F" horiz-adv-x="595" 
d="M90 700h465v-104h-345v-199h315v-104h-315v-293h-120v700z" />
    <glyph glyph-name="G" unicode="G" horiz-adv-x="715" 
d="M370 -11c-48 0 -91.499 7.5 -130.499 22.5s-72.167 37.5 -99.5 67.5s-48.333 67.167 -63 111.5s-22 95.833 -22 154.5v20c0 54.667 7.5 103.5 22.5 146.5s36.333 79.333 64 109s60.834 52.167 99.501 67.5s81.667 23 129 23c72.667 0 133.667 -18.833 183 -56.5
s81.666 -92.5 96.999 -164.5h-130c-7.33301 22 -16.333 40.333 -27 55s-22.667 26.5 -36 35.5s-27.5 15.333 -42.5 19s-29.833 5.5 -44.5 5.5c-56.667 0 -102.334 -19.5 -137.001 -58.5s-52 -99.5 -52 -181.5v-20c0 -42.667 4.66699 -79.667 14 -111s22.333 -57.333 39 -78
s36.667 -36 60 -46s48.666 -15 75.999 -15c52 0 93.5 13.667 124.5 41s49.167 70.333 54.5 129h-159v100h275v-40c0 -56 -6.83301 -105 -20.5 -147s-33.167 -77 -58.5 -105s-56.166 -49 -92.499 -63s-77.5 -21 -123.5 -21z" />
    <glyph glyph-name="H" unicode="H" horiz-adv-x="760" 
d="M90 700h120v-288h340v288h120v-700h-120v308h-340v-308h-120v700z" />
    <glyph glyph-name="I" unicode="I" horiz-adv-x="320" 
d="M100 700h120v-700h-120v700z" />
    <glyph glyph-name="J" unicode="J" horiz-adv-x="560" 
d="M240 -11c-72 0 -126.001 18.501 -162.001 55.501s-55.333 88.833 -58 155.5h116c2.66699 -34.667 12.334 -60.834 29.001 -78.501s41.667 -26.5 75 -26.5c18 0 33.833 2.5 47.5 7.5s25.167 13.5 34.5 25.5s16.333 27.833 21 47.5s7 44.5 7 74.5v450h120v-450
c0 -94 -19.667 -161 -59 -201s-96.333 -60 -171 -60z" />
    <glyph glyph-name="K" unicode="K" horiz-adv-x="695" 
d="M90 700h120v-334l296 334h144l-262 -286l282 -414h-146l-216 331l-98 -106v-225h-120v700z" />
    <glyph glyph-name="L" unicode="L" horiz-adv-x="570" 
d="M90 700h120v-596h340v-104h-460v700z" />
    <glyph glyph-name="M" unicode="M" horiz-adv-x="870" 
d="M90 700h124l223 -415l223 415h120v-700h-120v490l-185 -345h-80l-185 345v-490h-120v700z" />
    <glyph glyph-name="N" unicode="N" horiz-adv-x="760" 
d="M90 700h116l344 -500v500h120v-700h-116l-344 500v-500h-120v700z" />
    <glyph glyph-name="O" unicode="O" horiz-adv-x="750" 
d="M375 -11c-42.667 0 -83.334 6.66699 -122.001 20s-72.667 34.166 -102 62.499s-52.666 65 -69.999 110s-26 99.5 -26 163.5v20c0 61.333 8.66699 113.833 26 157.5s40.666 79.5 69.999 107.5s63.333 48.5 102 61.5s79.334 19.5 122.001 19.5s83.334 -6.5 122.001 -19.5
s72.667 -33.5 102 -61.5s52.666 -63.833 69.999 -107.5s26 -96.167 26 -157.5v-20c0 -64 -8.66699 -118.5 -26 -163.5s-40.666 -81.667 -69.999 -110s-63.333 -49.166 -102 -62.499s-79.334 -20 -122.001 -20zM375 95c24.667 0 48.667 4.33301 72 13s44 22.834 62 42.501
s32.5 45.5 43.5 77.5s16.5 71 16.5 117v20c0 44 -5.5 81.167 -16.5 111.5s-25.5 55 -43.5 74s-38.667 32.833 -62 41.5s-47.333 13 -72 13c-25.333 0 -49.666 -4.33301 -72.999 -13s-44 -22.5 -62 -41.5s-32.333 -43.667 -43 -74s-16 -67.5 -16 -111.5v-20
c0 -46 5.33301 -85 16 -117s25 -57.833 43 -77.5s38.667 -33.834 62 -42.501s47.666 -13 72.999 -13z" />
    <glyph glyph-name="P" unicode="P" horiz-adv-x="660" 
d="M90 700h255c94 0 163.333 -20.167 208 -60.5s67 -94.5 67 -162.5s-22.333 -122.167 -67 -162.5s-114 -60.5 -208 -60.5h-135v-254h-120v700zM335 358c31.333 0 57.666 2.5 78.999 7.5s38.333 12.333 51 22s21.667 22 27 37s8 32.5 8 52.5s-2.66699 37.333 -8 52
s-14.333 27 -27 37s-29.667 17.5 -51 22.5s-47.666 7.5 -78.999 7.5h-125v-238h125z" />
    <glyph glyph-name="Q" unicode="Q" horiz-adv-x="750" 
d="M375 -11c-42.667 0 -83.334 6.66992 -122.001 20.0029s-72.667 34.166 -102 62.499s-52.666 65 -69.999 110s-26 99.5 -26 163.5v20c0 61.333 8.66699 113.833 26 157.5s40.666 79.5 69.999 107.5s63.333 48.5 102 61.5s79.334 19.5 122.001 19.5
s83.334 -6.5 122.001 -19.5s72.667 -33.5 102 -61.5s52.666 -63.833 69.999 -107.5s26 -96.167 26 -157.5v-20c0 -54.667 -6.5 -102.334 -19.5 -143.001s-30.833 -75.334 -53.5 -104.001l63 -62l-66 -66l-66 66c-26 -16 -54.167 -27.833 -84.5 -35.5
s-61.5 -11.5 -93.5 -11.5zM375 95.0029c16.667 0 33 1.83301 49 5.5s31.333 9.83398 46 18.501l-105 105l66 66l104 -104c10.667 19.333 19 42 25 68s9 56.333 9 91v20c0 44 -5.5 81.167 -16.5 111.5s-25.5 55 -43.5 74s-38.667 32.833 -62 41.5s-47.333 13 -72 13
c-25.333 0 -49.666 -4.33301 -72.999 -13s-44 -22.5 -62 -41.5s-32.333 -43.667 -43 -74s-16 -67.5 -16 -111.5v-20c0 -46 5.33301 -85 16 -117s25 -57.833 43 -77.5s38.667 -33.834 62 -42.501s47.666 -13 72.999 -13z" />
    <glyph glyph-name="R" unicode="R" horiz-adv-x="685" 
d="M90 700h265c44 0 82.5 -5.33301 115.5 -16s60.5 -25.667 82.5 -45s38.667 -42.333 50 -69s17 -56 17 -88c0 -48 -13 -89.5 -39 -124.5s-65 -60.167 -117 -75.5l176 -282h-132l-155 268h-143v-268h-120v700zM335 368c61.333 0 104.166 10 128.499 30s36.5 48 36.5 84
s-12.167 64 -36.5 84s-67.166 30 -128.499 30h-125v-228h125z" />
    <glyph glyph-name="S" unicode="S" horiz-adv-x="650" 
d="M325 -11c-45.333 0 -84.668 5.00293 -118.001 15.0029s-61.166 24 -83.499 42s-39.5 39.167 -51.5 63.5s-19.333 51.166 -22 80.499h120c2.66699 -14 7.16699 -26.667 13.5 -38s15.5 -21.333 27.5 -30s27.167 -15.334 45.5 -20.001s41.166 -7 68.499 -7
c28 0 51.833 2.5 71.5 7.5s35.667 11.667 48 20s21.333 18.333 27 30s8.5 24.167 8.5 37.5c0 32.667 -15.167 57.334 -45.5 74.001s-77.5 31.667 -141.5 45c-36 8 -68 17.5 -96 28.5s-51.333 24.667 -70 41s-32.834 36 -42.501 59s-14.5 50.5 -14.5 82.5
c0 26 5.5 50.667 16.5 74s27.167 43.666 48.5 60.999s47.833 31 79.5 41s68.5 15 110.5 15c40.667 0 76.334 -4.66699 107.001 -14s56.5 -22.5 77.5 -39.5s37.333 -37.167 49 -60.5s18.834 -49 21.501 -77h-120c-5.33301 25.333 -18.833 45.833 -40.5 61.5
s-53.167 23.5 -94.5 23.5c-48 0 -82.5 -8.33301 -103.5 -25s-31.5 -36.667 -31.5 -60c0 -32 13.333 -56 40 -72s67.667 -29.667 123 -41c40.667 -8.66699 76.5 -18.667 107.5 -30s56.833 -25.5 77.5 -42.5s36.167 -37.167 46.5 -60.5s15.5 -51.333 15.5 -84
c0 -28.667 -5.66699 -55.334 -17 -80.001s-28.5 -46 -51.5 -64s-51.667 -32 -86 -42s-74.5 -15 -120.5 -15z" />
    <glyph glyph-name="T" unicode="T" 
d="M255 596h-235v104h590v-104h-235v-596h-120v596z" />
    <glyph glyph-name="U" unicode="U" horiz-adv-x="730" 
d="M365 -11c-43.333 0 -82.6689 6 -118.002 18s-65.333 30 -90 54s-43.667 54.167 -57 90.5s-20 79.166 -20 128.499v420h120v-413c0 -66 14 -114.5 42 -145.5s69 -46.5 123 -46.5c54.667 0 95.834 15.5 123.501 46.5s41.5 79.167 41.5 144.5v414h120v-420
c0 -49.333 -6.66699 -92.166 -20 -128.499s-32.333 -66.5 -57 -90.5s-54.667 -42 -90 -54s-74.666 -18 -117.999 -18z" />
    <glyph glyph-name="V" unicode="V" horiz-adv-x="680" 
d="M15 700h128l205 -549l197 549h120l-260 -700h-120z" />
    <glyph glyph-name="W" unicode="W" horiz-adv-x="970" 
d="M25 700h124l133 -520l153 520h100l162 -520l132 520h116l-185 -700h-120l-159 520l-151 -520h-120z" />
    <glyph glyph-name="X" unicode="X" horiz-adv-x="680" 
d="M266 366l-231 334h136l170 -245l172 245h132l-230 -332l240 -368h-138l-178 280l-180 -280h-134z" />
    <glyph glyph-name="Y" unicode="Y" horiz-adv-x="660" 
d="M280 270l-270 430h142l190 -310l176 310h132l-250 -430v-270h-120v270z" />
    <glyph glyph-name="Z" unicode="Z" horiz-adv-x="610" 
d="M40 94l376 502h-366v104h510v-94l-376 -502h386v-104h-530v94z" />
    <glyph glyph-name="bracketleft" unicode="[" horiz-adv-x="380" 
d="M120 700h200v-86h-98v-728h98v-86h-200v900z" />
    <glyph glyph-name="backslash" unicode="\" horiz-adv-x="480" 
d="M30 700h102l318 -900h-102z" />
    <glyph glyph-name="bracketright" unicode="]" horiz-adv-x="380" 
d="M260.008 -199.957h-199.988v85.9941h97.9941v727.956h-97.9941v85.9951h199.988v-899.945z" />
    <glyph glyph-name="asciicircum" unicode="^" horiz-adv-x="560" 
d="M225 700h110l185 -260h-126l-118 170l-118 -170h-118z" />
    <glyph glyph-name="underscore" unicode="_" horiz-adv-x="500" 
d="M0 -57h500v-86h-500v86z" />
    <glyph glyph-name="grave" unicode="`" horiz-adv-x="280" 
d="M20 740h130l110 -160h-90z" />
    <glyph glyph-name="a" unicode="a" horiz-adv-x="570" 
d="M225 -11c-28.667 0 -54.167 4.16992 -76.5 12.5029s-41.166 20 -56.499 35s-27 32.5 -35 52.5s-12 42 -12 66c0 52.667 15.667 91.834 47 117.501s77.333 38.5 138 38.5h165v29c0 40 -8.83301 67.5 -26.5 82.5s-45.5 22.5 -83.5 22.5c-34 0 -59 -5.33301 -75 -16
s-25.333 -25.334 -28 -44.001h-107c1.33301 22.667 7.16602 43.5 17.499 62.5s24.666 35.5 42.999 49.5s40.5 24.833 66.5 32.5s55.333 11.5 88 11.5s62.167 -3.66699 88.5 -11s48.833 -18.833 67.5 -34.5s33.167 -35.834 43.5 -60.501s15.5 -54.334 15.5 -89.001v-211
c0 -28 0.333008 -52.5 1 -73.5s2.33398 -41.5 5.00098 -61.5h-100c-2 15.333 -3.5 28.333 -4.5 39s-1.5 24 -1.5 40c-12.667 -24.667 -34.5 -45.834 -65.5 -63.501s-69.167 -26.5 -114.5 -26.5zM255 85.0029c18.667 0 36.499 2.5 53.499 7.5s31.833 12.333 44.5 22
s22.834 21.667 30.501 36s11.5 30.833 11.5 49.5v29h-145c-28 0 -50.5 -6 -67.5 -18s-25.5 -29.667 -25.5 -53c0 -22 7.83301 -39.667 23.5 -53s40.5 -20 74.5 -20z" />
    <glyph glyph-name="b" unicode="b" horiz-adv-x="615" 
d="M352 -11c-44 0 -81.832 9.99805 -113.499 29.998s-53.834 43.333 -66.501 70v-89h-102v700h110v-254c16.667 27.333 39.5 50 68.5 68s63.5 27 103.5 27c68.667 0 123 -21.667 163 -65s60 -108.666 60 -195.999v-20c0 -45.333 -5.33301 -85 -16 -119
s-25.834 -62.167 -45.501 -84.5s-43.167 -39.166 -70.5 -50.499s-57.666 -17 -90.999 -17zM326.001 84.998c40.667 0 73.666 14.3359 98.999 43.0029s38 72.667 38 132v20c0 56 -12.333 97.5 -37 124.5s-58 40.5 -100 40.5c-19.333 0 -37.666 -3 -54.999 -9
s-32.833 -14.833 -46.5 -26.5s-24.5 -26.334 -32.5 -44.001s-12 -37.834 -12 -60.501v-70c0 -25.333 4 -47.333 12 -66s18.667 -34.334 32 -47.001s28.833 -22 46.5 -28s36.167 -9 55.5 -9z" />
    <glyph glyph-name="c" unicode="c" horiz-adv-x="555" 
d="M290 -11c-36 0 -69.168 5.49609 -99.501 16.4961s-56.666 27.833 -78.999 50.5s-39.833 51 -52.5 85s-19 73.667 -19 119v20c0 42.667 6.66699 80.334 20 113.001s31.5 60 54.5 82s49.667 38.5 80 49.5s62.166 16.5 95.499 16.5c34.667 0 65.5 -4.66699 92.5 -14
s50 -22.166 69 -38.499s34.167 -35.5 45.5 -57.5s19 -45.667 23 -71h-112c-6.66699 24.667 -18.667 45 -36 61s-44.666 24 -81.999 24c-18.667 0 -36.334 -3.16699 -53.001 -9.5s-31.334 -16.166 -44.001 -29.499s-22.667 -30.5 -30 -51.5s-11 -45.833 -11 -74.5v-20
c0 -31.333 3.66699 -58.166 11 -80.499s17.333 -40.5 30 -54.5s27.334 -24.167 44.001 -30.5s34.334 -9.5 53.001 -9.5c62 0 101.333 28.333 118 85h112c-5.33301 -28 -14.5 -53.167 -27.5 -75.5s-29.5 -41.333 -49.5 -57s-43 -27.667 -69 -36s-54 -12.5 -84 -12.5z" />
    <glyph glyph-name="d" unicode="d" horiz-adv-x="615" 
d="M264 -11c-34 0 -64.666 5.66699 -91.999 17s-50.833 28.166 -70.5 50.499s-34.834 50.5 -45.501 84.5s-16 73.667 -16 119v20c0 42.667 5.33301 80.167 16 112.5s25.834 59.5 45.501 81.5s43.167 38.667 70.5 50s57.666 17 90.999 17c40 0 74.5 -9 103.5 -27
s51.833 -41 68.5 -69v255h110v-700h-102v89c-6 -13.333 -14.667 -26 -26 -38s-24.833 -22.667 -40.5 -32s-33 -16.666 -52 -21.999s-39.167 -8 -60.5 -8zM289.001 85c19.333 0 37.835 2.99902 55.502 8.99902s33.167 15.333 46.5 28s24 28.334 32 47.001s12 40.667 12 66v71
c0 22.667 -4 42.667 -12 60s-18.833 31.833 -32.5 43.5s-29.334 20.5 -47.001 26.5s-35.834 9 -54.501 9c-42 0 -75.333 -13.5 -100 -40.5s-37 -68.5 -37 -124.5v-20c0 -58.667 12.667 -102.5 38 -131.5s58.333 -43.5 99 -43.5z" />
    <glyph glyph-name="e" unicode="e" horiz-adv-x="580" 
d="M300 -11c-35.333 0 -68.6689 5.49805 -100.002 16.498s-58.833 27.667 -82.5 50s-42.5 50.5 -56.5 84.5s-21 74 -21 120v20c0 44 6.66699 82.333 20 115s31.5 59.834 54.5 81.501s49.5 37.834 79.5 48.501s62 16 96 16c80.667 0 142.5 -21.667 185.5 -65
s64.5 -105.333 64.5 -186v-56h-388c0.666992 -27.333 5.16699 -50.5 13.5 -69.5s19.333 -34.333 33 -46s29.334 -20.167 47.001 -25.5s35.834 -8 54.501 -8c38 0 65.833 6 83.5 18s29.834 27.667 36.501 47h110c-10.667 -52.667 -36.834 -92.667 -78.501 -120
s-92.167 -41 -151.5 -41zM294.997 444.998c-18.667 0 -36.5 -2.33594 -53.5 -7.00293s-32 -12.167 -45 -22.5s-23.5 -23.666 -31.5 -39.999s-12.333 -36.166 -13 -59.499h278c-0.666992 24.667 -4.5 45.334 -11.5 62.001s-16.5 30 -28.5 40s-26.167 17 -42.5 21
s-33.833 6 -52.5 6z" />
    <glyph glyph-name="f" unicode="f" horiz-adv-x="365" 
d="M100 436h-70v94h70v15c0 52.667 13.5 92.5 40.5 119.5s71.833 40.5 134.5 40.5c20 0 45 -1 75 -3v-96c-10 1.33301 -20.833 2.16602 -32.5 2.49902s-22.5 0.5 -32.5 0.5c-28 0 -47.5 -5.16699 -58.5 -15.5s-16.5 -28.166 -16.5 -53.499v-10h130v-94h-130v-436h-110v436z
" />
    <glyph glyph-name="g" unicode="g" horiz-adv-x="615" 
d="M290 -211c-41.333 0 -75.9971 3.83203 -103.997 11.499s-51 18.5 -69 32.5s-31.333 30.5 -40 49.5s-14.334 39.833 -17.001 62.5h112c2.66699 -8 6.5 -15.833 11.5 -23.5s12 -14.5 21 -20.5s20.5 -10.833 34.5 -14.5s31 -5.5 51 -5.5c50 0 86.667 12 110 36
s35 58.333 35 103v75c-16.667 -28 -39.334 -51 -68.001 -69s-63 -27 -103 -27c-34 0 -64.667 5.66699 -92 17s-50.833 28 -70.5 50s-34.834 49.667 -45.501 83s-16 72 -16 116v20c0 41.333 5.33301 77.833 16 109.5s25.834 58.334 45.501 80.001s43.167 38.167 70.5 49.5
s57.666 17 90.999 17c44 0 81.833 -10 113.5 -30s53.834 -43.333 66.501 -70v89h102v-505c0 -74.667 -21.333 -132.667 -64 -174s-106.334 -62 -191.001 -62zM289.003 94.999c19.333 0 37.835 3.00098 55.502 9.00098s33.167 15.167 46.5 27.5s24 27.666 32 45.999
s12 39.5 12 63.5v70c0 21.333 -4 40.333 -12 57s-18.833 30.667 -32.5 42s-29.334 20 -47.001 26s-35.834 9 -54.501 9c-42 0 -75.333 -13.167 -100 -39.5s-37 -66.5 -37 -120.5v-20c0 -56.667 12.667 -99.167 38 -127.5s58.333 -42.5 99 -42.5z" />
    <glyph glyph-name="h" unicode="h" horiz-adv-x="605" 
d="M70 700l109.996 -0.00390625v-254c6 12 13.667 23.833 23 35.5s20.833 21.834 34.5 30.501s29.334 15.667 47.001 21s37.834 8 60.501 8c64.667 0 113.334 -17.5 146.001 -52.5s49 -86.167 49 -153.5v-335h-110v310c0 44.667 -9.33301 78.334 -28 101.001
s-49.334 34 -92.001 34c-23.333 0 -43.166 -3.83301 -59.499 -11.5s-29.666 -17.667 -39.999 -30s-18 -26.666 -23 -42.999s-7.5 -33.166 -7.5 -50.499v-310h-110v700z" />
    <glyph glyph-name="i" unicode="i" horiz-adv-x="270" 
d="M80 530h110v-530h-110v530zM135 590c-20.667 0 -37.5 6.5 -50.5 19.5s-19.5 29.833 -19.5 50.5s6.5 37.5 19.5 50.5s29.833 19.5 50.5 19.5s37.5 -6.5 50.5 -19.5s19.5 -29.833 19.5 -50.5s-6.5 -37.5 -19.5 -50.5s-29.833 -19.5 -50.5 -19.5z" />
    <glyph glyph-name="j" unicode="j" horiz-adv-x="270" 
d="M20 -211c-7.33301 0 -15.665 0.166016 -24.998 0.499023s-17.666 1.16602 -24.999 2.49902v96c5.33301 -1.33301 11.166 -2.16602 17.499 -2.49902s12.166 -0.5 17.499 -0.5c12.667 0 23.667 1.83301 33 5.5s17.166 10 23.499 19s11 21.167 14 36.5s4.5 35 4.5 59v525
h110v-530c0 -41.333 -2.83301 -75.666 -8.5 -102.999s-15.167 -49 -28.5 -65s-30.833 -27.167 -52.5 -33.5s-48.5 -9.5 -80.5 -9.5zM135.001 589.999c-20.667 0 -37.5 6.5 -50.5 19.5s-19.5 29.833 -19.5 50.5s6.5 37.5 19.5 50.5s29.833 19.5 50.5 19.5
s37.5 -6.5 50.5 -19.5s19.5 -29.833 19.5 -50.5s-6.5 -37.5 -19.5 -50.5s-29.833 -19.5 -50.5 -19.5z" />
    <glyph glyph-name="k" unicode="k" horiz-adv-x="570" 
d="M70 700h110v-401l220 231h130l-214 -225l234 -305h-132l-175 235l-63 -64v-171h-110v700z" />
    <glyph glyph-name="l" unicode="l" horiz-adv-x="325" 
d="M240 -5c-28.667 0 -53.3311 2.99902 -73.998 8.99902s-37.834 15.833 -51.501 29.5s-23.667 31.667 -30 54s-9.5 49.5 -9.5 81.5v531h110v-523c0 -32.667 5.33301 -55.167 16 -67.5s30.334 -18.5 59.001 -18.5c7.33301 0 13.666 0.166992 18.999 0.5
s10.666 0.833008 15.999 1.5v-95c-5.33301 -1.33301 -14 -2.16602 -26 -2.49902s-21.667 -0.5 -29 -0.5z" />
    <glyph glyph-name="m" unicode="m" horiz-adv-x="875" 
d="M70 530l102 0.00390625v-90c6 13.333 14 26.166 24 38.499s21.5 23.166 34.5 32.499s27.167 16.666 42.5 21.999s31.666 8 48.999 8c44 0 78.333 -9.33301 103 -28s41.667 -43 51 -73c15.333 30 36.833 54.333 64.5 73s59.834 28 96.501 28c55.333 0 98 -16.333 128 -49
s45 -83.334 45 -152.001v-340h-110v315c0 47.333 -8.83301 80.833 -26.5 100.5s-41.5 29.5 -71.5 29.5c-36 0 -62.833 -12.167 -80.5 -36.5s-26.5 -55.5 -26.5 -93.5v-315h-110v315c0 47.333 -8.83301 80.833 -26.5 100.5s-41.5 29.5 -71.5 29.5
c-36 0 -62.833 -12.167 -80.5 -36.5s-26.5 -55.5 -26.5 -93.5v-315h-110v530z" />
    <glyph glyph-name="n" unicode="n" horiz-adv-x="605" 
d="M70 530l101.997 -0.00292969v-89c12.667 26.667 33.334 50 62.001 70s65.667 30 111 30c64.667 0 113.334 -17.5 146.001 -52.5s49 -86.167 49 -153.5v-335h-110v310c0 44.667 -9.33301 78.334 -28 101.001s-49.334 34 -92.001 34
c-23.333 0 -43.166 -3.83301 -59.499 -11.5s-29.666 -17.667 -39.999 -30s-18 -26.666 -23 -42.999s-7.5 -33.166 -7.5 -50.499v-310h-110v530z" />
    <glyph glyph-name="o" unicode="o" horiz-adv-x="600" 
d="M300 -11c-36.667 0 -70.834 5.83301 -102.501 17.5s-59.167 28.834 -82.5 51.501s-41.666 50.834 -54.999 84.501s-20 72.834 -20 117.501v20c0 42 6.66699 79.167 20 111.5s31.666 59.666 54.999 81.999s50.833 39.166 82.5 50.499s65.834 17 102.501 17
s70.834 -5.66699 102.501 -17s59.167 -28.166 82.5 -50.499s41.666 -49.666 54.999 -81.999s20 -69.5 20 -111.5v-20c0 -44.667 -6.66699 -83.834 -20 -117.501s-31.666 -61.834 -54.999 -84.501s-50.833 -39.834 -82.5 -51.501s-65.834 -17.5 -102.501 -17.5zM300 85
c19.333 0 37.833 3.33301 55.5 10s33.334 17 47.001 31s24.667 32 33 54s12.5 48.667 12.5 80v20c0 28.667 -4.16699 53.334 -12.5 74.001s-19.333 37.667 -33 51s-29.334 23.333 -47.001 30s-36.167 10 -55.5 10s-37.833 -3.33301 -55.5 -10s-33.334 -16.667 -47.001 -30
s-24.667 -30.333 -33 -51s-12.5 -45.334 -12.5 -74.001v-20c0 -31.333 4.16699 -58 12.5 -80s19.333 -40 33 -54s29.334 -24.333 47.001 -31s36.167 -10 55.5 -10z" />
    <glyph glyph-name="p" unicode="p" horiz-adv-x="615" 
d="M70 530l102 -0.00195312v-89c16 30.667 39.833 55 71.5 73s67.5 27 107.5 27c69.333 0 124 -21.667 164 -65s60 -108.666 60 -195.999v-20c0 -45.333 -5.33301 -85 -16 -119s-25.834 -62.167 -45.501 -84.5s-43.167 -39.166 -70.5 -50.499s-58 -17 -92 -17
c-38 0 -72.667 8.33301 -104 25s-53.666 40 -66.999 70v-284h-110v730zM325 84.998c41.333 0 74.6699 14.3359 100.003 43.0029s38 72.667 38 132v20c0 56 -12.333 97.5 -37 124.5s-58.334 40.5 -101.001 40.5c-18.667 0 -36.667 -3 -54 -9s-32.833 -14.833 -46.5 -26.5
s-24.5 -26.334 -32.5 -44.001s-12 -37.834 -12 -60.501v-70c0 -25.333 4 -47.333 12 -66s18.667 -34.334 32 -47.001s28.666 -22 45.999 -28s35.666 -9 54.999 -9z" />
    <glyph glyph-name="q" unicode="q" horiz-adv-x="615" 
d="M435 85c-16.667 -28 -39.333 -50.999 -68 -68.999s-63 -27 -103 -27c-34 0 -64.667 5.66699 -92 17s-50.833 28.166 -70.5 50.499s-34.834 50.5 -45.501 84.5s-16 73.667 -16 119v20c0 42.667 5.33301 80.167 16 112.5s25.834 59.5 45.501 81.5s43.167 38.667 70.5 50
s57.666 17 90.999 17c44 0 81.833 -10 113.5 -30s53.834 -43.333 66.501 -70v89h102v-730h-110v285zM289.001 85.001c19.333 0 37.835 3.00098 55.502 9.00098s33.167 15.333 46.5 28s24 28.5 32 47.5s12 41.167 12 66.5v70c0 22.667 -4 42.667 -12 60
s-18.833 31.833 -32.5 43.5s-29.334 20.5 -47.001 26.5s-35.834 9 -54.501 9c-42 0 -75.333 -13.333 -100 -40s-37 -68.334 -37 -125.001v-20c0 -58.667 12.667 -102.5 38 -131.5s58.333 -43.5 99 -43.5z" />
    <glyph glyph-name="r" unicode="r" horiz-adv-x="390" 
d="M70 530l101.999 -0.00292969v-90c10.667 27.333 28.167 51 52.5 71s54.5 30 90.5 30c16.667 0 29.167 -0.666992 37.5 -2s14.166 -2.66602 17.499 -3.99902v-100c-11.333 3.33301 -21.666 5.83301 -30.999 7.5s-20.666 2.5 -33.999 2.5
c-22 0 -40.833 -3.83301 -56.5 -11.5s-28.5 -17.667 -38.5 -30s-17.5 -26.666 -22.5 -42.999s-7.5 -33.166 -7.5 -50.499v-310h-110v530z" />
    <glyph glyph-name="s" unicode="s" horiz-adv-x="540" 
d="M270 -11c-39.333 0 -72.835 4.33398 -100.502 13.001s-50.667 20.334 -69 35.001s-32.333 31.834 -42 51.501s-15.834 40.167 -18.501 61.5h110c4.66699 -18.667 16 -34.167 34 -46.5s46.667 -18.5 86 -18.5c44 0 75 6 93 18s27 27.667 27 47
c0 8.66699 -2.33301 16.834 -7 24.501s-12.167 14.667 -22.5 21s-24.166 12.166 -41.499 17.499s-39 9.66602 -65 12.999c-30 4 -57.333 9.83301 -82 17.5s-45.667 17.834 -63 30.501s-30.666 28 -39.999 46s-14 39.667 -14 65c0 21.333 4.33301 41.5 13 60.5
s22 35.5 40 49.5s40.5 25.167 67.5 33.5s58.5 12.5 94.5 12.5c34.667 0 64.667 -4.33301 90 -13s46.5 -20.334 63.5 -35.001s30 -31.834 39 -51.501s14.833 -40.167 17.5 -61.5h-110c-5.33301 20.667 -16.166 36.667 -32.499 48s-38.833 17 -67.5 17
c-39.333 0 -66.666 -6 -81.999 -18s-23 -26 -23 -42c0 -9.33301 2 -17.666 6 -24.999s10.667 -13.833 20 -19.5s22.166 -10.834 38.499 -15.501s37.166 -8.33398 62.499 -11.001c30.667 -4 58.834 -10 84.501 -18s47.667 -18.5 66 -31.5s32.5 -29 42.5 -48
s15 -41.167 15 -66.5c0 -22.667 -4.83301 -43.834 -14.5 -63.501s-24 -36.667 -43 -51s-43 -25.666 -72 -33.999s-62.5 -12.5 -100.5 -12.5z" />
    <glyph glyph-name="t" unicode="t" horiz-adv-x="400" 
d="M275 -5c-60.667 0 -104.168 12.999 -130.501 38.999s-39.5 68 -39.5 126v276h-75v94h75v120h110v-120h135v-94h-135v-261c0 -31.333 5.83301 -53.166 17.5 -65.499s34.167 -18.5 67.5 -18.5c20 0 40 1 60 3v-94c-12.667 -1.33301 -25.667 -2.5 -39 -3.5
s-28.666 -1.5 -45.999 -1.5z" />
    <glyph glyph-name="u" unicode="u" horiz-adv-x="595" 
d="M255 -11c-62.667 0 -110 18.1689 -142 54.502s-48 91.833 -48 166.5v320h110v-310c0 -44.667 9.16699 -78.334 27.5 -101.001s47.5 -34 87.5 -34c22 0 40.833 3.66699 56.5 11s28.5 17.333 38.5 30s17.5 27.167 22.5 43.5s7.5 33.166 7.5 50.499v310h110v-530h-102v90
c-12.667 -27.333 -33.167 -51 -61.5 -71s-63.833 -30 -106.5 -30z" />
    <glyph glyph-name="v" unicode="v" horiz-adv-x="580" 
d="M20 530h120l162 -410l146 410h112l-205 -530h-110z" />
    <glyph glyph-name="w" unicode="w" horiz-adv-x="830" 
d="M30 530h116l97 -390l122 390h100l130 -390l97 390h108l-145 -530h-110l-132 390l-128 -390h-110z" />
    <glyph glyph-name="x" unicode="x" horiz-adv-x="560" 
d="M211 276l-181 254h124l129 -178l127 178h120l-179 -250l189 -280h-126l-135 206l-137 -206h-122z" />
    <glyph glyph-name="y" unicode="y" horiz-adv-x="580" 
d="M155 -211c-10 0 -19.998 1 -29.998 3v96c10 -2 20 -3 30 -3c11.333 0 20.833 1.83301 28.5 5.5s14.667 10 21 19s12.666 20.833 18.999 35.5s13.5 33 21.5 55l-225 530h120l162 -410l146 410h112l-205 -530c-14.667 -37.333 -28.334 -69.333 -41.001 -96
s-26.5 -48.5 -41.5 -65.5s-31.833 -29.5 -50.5 -37.5s-41 -12 -67 -12z" />
    <glyph glyph-name="z" unicode="z" horiz-adv-x="510" 
d="M35 84l298 352h-288v94h420v-84l-298 -352h308v-94h-440v84z" />
    <glyph glyph-name="braceleft" unicode="{" horiz-adv-x="380" 
d="M280 -200c-48 0 -85 13 -111 39s-39 63 -39 111v207c0 15.333 -4.5 27.5 -13.5 36.5s-21.167 13.5 -36.5 13.5v86c15.333 0 27.5 4.5 36.5 13.5s13.5 21.167 13.5 36.5v207c0 48 13 85 39 111s63 39 111 39h50v-86h-40c-38.667 0 -58 -19.333 -58 -58v-236
c0 -20 -4.5 -35.333 -13.5 -46s-21.167 -18.667 -36.5 -24c15.333 -5.33301 27.5 -13.333 36.5 -24s13.5 -26 13.5 -46v-236c0 -38.667 19.333 -58 58 -58h40v-86h-50z" />
    <glyph glyph-name="bar" unicode="|" horiz-adv-x="340" 
d="M119 700h102v-900h-102v900z" />
    <glyph glyph-name="braceright" unicode="}" horiz-adv-x="380" 
d="M100.018 699.988c47.9971 0 84.9951 -12.9971 110.994 -38.9961c25.998 -25.999 38.9971 -62.9971 38.9971 -110.994v-206.987c0 -15.333 4.5 -27.499 13.499 -36.498s21.165 -13.499 36.498 -13.499v-85.9951c-15.333 0 -27.499 -4.5 -36.498 -13.499
s-13.499 -21.165 -13.499 -36.498v-206.987c0 -47.9971 -12.999 -84.9951 -38.9971 -110.994c-25.999 -25.998 -62.9971 -38.9971 -110.994 -38.9971h-49.9971v85.9941h39.9971c38.6641 0 57.9961 19.332 57.9961 57.9971v235.985c0 19.999 4.5 35.3311 13.5 45.9971
c8.99902 10.666 21.165 18.666 36.4971 23.999c-15.332 5.33301 -27.498 13.332 -36.4971 23.998c-9 10.666 -13.5 25.998 -13.5 45.9971v235.985c0 38.665 -19.332 57.9971 -57.9961 57.9971h-39.9971v85.9951h49.9971z" />
    <glyph glyph-name="asciitilde" unicode="~" horiz-adv-x="560" 
d="M375 270c-21.333 0 -40.668 3.83496 -58.001 11.502s-33.666 16.167 -48.999 25.5s-30.166 17.833 -44.499 25.5s-28.833 11.5 -43.5 11.5c-12 0 -22.5 -2.83301 -31.5 -8.5s-16.5 -11.834 -22.5 -18.501c-7.33301 -8 -13.333 -17 -18 -27l-73 45
c10 20.667 22 39.667 36 57c12 14.667 27.333 28 46 40s41.334 18 68.001 18c21.333 0 40.666 -3.83301 57.999 -11.5s33.666 -16.167 48.999 -25.5s30 -17.833 44 -25.5s28.667 -11.5 44 -11.5c12 0 22.5 2.66699 31.5 8s16.5 11.666 22.5 18.999
c7.33301 7.33301 13.333 16.333 18 27l73 -45c-10 -21.333 -22 -40.666 -36 -57.999c-12 -14.667 -27.5 -27.834 -46.5 -39.501s-41.5 -17.5 -67.5 -17.5z" />
    <glyph glyph-name="uni00A0" unicode="&#xa0;" horiz-adv-x="250" 
 />
    <glyph glyph-name="exclamdown" unicode="&#xa1;" horiz-adv-x="310" 
d="M100 305h110v-505h-110v505zM155 381c-22.667 0 -41.667 7.66699 -57 23s-23 34.333 -23 57c0 23.333 7.66699 42.5 23 57.5s34.333 22.5 57 22.5s41.667 -7.5 57 -22.5s23 -34.167 23 -57.5c0 -22.667 -7.66699 -41.667 -23 -57s-34.333 -23 -57 -23z" />
    <glyph glyph-name="cent" unicode="&#xa2;" horiz-adv-x="555" 
d="M245 -8c-30 4 -57.5029 12.6641 -82.5029 25.9971s-46.667 31.166 -65 53.499s-32.5 49.166 -42.5 80.499s-15 67.333 -15 108v20c0 38 5.33301 71.833 16 101.5s25.167 55.334 43.5 77.001s40 39 65 52s51.833 21.833 80.5 26.5v93h100v-94
c52.667 -9.33301 93.334 -30 122.001 -62s46.334 -70 53.001 -114h-112c-6.66699 24.667 -18.667 45 -36 61s-44.666 24 -81.999 24c-18.667 0 -36.334 -3.16699 -53.001 -9.5s-31.334 -16.166 -44.001 -29.499s-22.667 -30.5 -30 -51.5s-11 -45.833 -11 -74.5v-20
c0 -31.333 3.66699 -58.166 11 -80.499s17.333 -40.5 30 -54.5s27.334 -24.167 44.001 -30.5s34.334 -9.5 53.001 -9.5c62 0 101.333 28.333 118 85h112c-8.66699 -47.333 -28.5 -86.166 -59.5 -116.499s-69.5 -50.166 -115.5 -59.499v-114h-100v112z" />
    <glyph glyph-name="sterling" unicode="&#xa3;" horiz-adv-x="640" 
d="M55 104h89.9971v189h-80v94h80v113c0 66.667 19.667 118.5 59 155.5s94 55.5 164 55.5c68.667 0 121.334 -17.5 158.001 -52.5s56.334 -81.167 59.001 -138.5h-120c-2.66699 28 -11.667 49.167 -27 63.5s-38.666 21.5 -69.999 21.5c-68.667 0 -103 -35 -103 -105v-113
h175v-94h-175v-189h320v-104h-530v104z" />
    <glyph glyph-name="currency" unicode="&#xa4;" horiz-adv-x="560" 
d="M35 184l72.999 73.001c-18.667 31.333 -28 65.666 -28 102.999c0 36.667 9.33301 70.667 28 102l-73 74l69 69l73 -74c15.333 9.33301 31.5 16.5 48.5 21.5s35.167 7.5 54.5 7.5c18.667 0 36.5 -2.5 53.5 -7.5s33.167 -12.167 48.5 -21.5l74 74l69 -69l-74 -74
c9.33301 -15.333 16.5 -31.5 21.5 -48.5s7.5 -34.833 7.5 -53.5c0 -19.333 -2.5 -37.5 -7.5 -54.5s-12.167 -33.167 -21.5 -48.5l74 -73l-69 -69l-74 73c-31.333 -18.667 -65.333 -28 -102 -28c-37.333 0 -71.666 9.33301 -102.999 28l-73 -73zM279.999 262.001
c27.333 0 50.166 9.33301 68.499 28s27.5 42 27.5 70s-9.16699 51.333 -27.5 70s-41.166 28 -68.499 28s-50.166 -9.33301 -68.499 -28s-27.5 -42 -27.5 -70s9.16699 -51.333 27.5 -70s41.166 -28 68.499 -28z" />
    <glyph glyph-name="yen" unicode="&#xa5;" horiz-adv-x="680" 
d="M285 145h-190v94h190v62h-190v94h121l-176 305h142l165 -305l161 305h132l-169 -305h124v-94h-190v-62h190v-94h-190v-145h-120v145z" />
    <glyph glyph-name="brokenbar" unicode="&#xa6;" horiz-adv-x="340" 
d="M119 170h102v-370h-102v370zM119 700h102v-370h-102v370z" />
    <glyph glyph-name="section" unicode="&#xa7;" horiz-adv-x="580" 
d="M290 -211c-35.333 0 -65.333 4.16797 -90 12.501s-44.667 20.166 -60 35.499s-26.666 33.333 -33.999 54s-11 43.667 -11 69h126c0 -43.333 23 -65 69 -65c23.333 0 40.666 5.83301 51.999 17.5s17 25.834 17 42.501c0 8 -1.66699 15.833 -5 23.5s-10.5 15.667 -21.5 24
s-26.5 17.166 -46.5 26.499s-46.333 19.666 -79 30.999c-42.667 14.667 -77.834 38.167 -105.501 70.5s-41.5 72.166 -41.5 119.499c0 40 10 75 30 105s47 53.333 81 70c-23.333 14 -41.833 31.667 -55.5 53s-20.5 45.333 -20.5 72c0 22.667 3.66699 43.667 11 63
s18.666 36.333 33.999 51s35.333 26.167 60 34.5s54.667 12.5 90 12.5c34.667 0 64.5 -4.16699 89.5 -12.5s45.167 -20.166 60.5 -35.499s26.666 -33.5 33.999 -54.5s11 -43.833 11 -68.5h-126c0 22.667 -6.66699 39.167 -20 49.5s-29.666 15.5 -48.999 15.5
c-21.333 0 -38.166 -5.66699 -50.499 -17s-18.5 -25.666 -18.5 -42.999c0 -10 1.83301 -19 5.5 -27s11.167 -16 22.5 -24s27.333 -16.5 48 -25.5s47.667 -19.167 81 -30.5c42 -14 76.167 -37.333 102.5 -70s39.5 -72 39.5 -118c0 -40 -10 -75 -30 -105s-47 -53.667 -81 -71
c23.333 -14 41.833 -31.667 55.5 -53s20.5 -45 20.5 -71c0 -22.667 -3.66699 -43.834 -11 -63.501s-18.666 -36.667 -33.999 -51s-35.5 -25.666 -60.5 -33.999s-54.833 -12.5 -89.5 -12.5zM290 154.001c30.667 0 55.667 9.00098 75 27.001s29 41 29 69
c0 29.333 -9.5 52.666 -28.5 69.999s-44.167 26 -75.5 26s-56.5 -9 -75.5 -27s-28.5 -41 -28.5 -69s9.5 -51 28.5 -69s44.167 -27 75.5 -27z" />
    <glyph glyph-name="dieresis" unicode="&#xa8;" horiz-adv-x="380" 
d="M86 594c-19.333 0 -35.166 6.16699 -47.499 18.5s-18.5 28.166 -18.5 47.499s6.16699 35.166 18.5 47.499s28.166 18.5 47.499 18.5s35.166 -6.16699 47.499 -18.5s18.5 -28.166 18.5 -47.499s-6.16699 -35.166 -18.5 -47.499s-28.166 -18.5 -47.499 -18.5zM294 594
c-19.333 0 -35.166 6.16699 -47.499 18.5s-18.5 28.166 -18.5 47.499s6.16699 35.166 18.5 47.499s28.166 18.5 47.499 18.5s35.166 -6.16699 47.499 -18.5s18.5 -28.166 18.5 -47.499s-6.16699 -35.166 -18.5 -47.499s-28.166 -18.5 -47.499 -18.5z" />
    <glyph glyph-name="copyright" unicode="&#xa9;" horiz-adv-x="830" 
d="M415 -16c-51.333 0 -99.165 9.16406 -143.498 27.4971s-83 43.833 -116 76.5s-58.833 71.334 -77.5 116.001s-28 93.334 -28 146.001c0 52 9.5 100.333 28.5 145s44.833 83.334 77.5 116.001s71.167 58.334 115.5 77.001s92.166 28 143.499 28
s99.166 -9.16699 143.499 -27.5s83 -43.833 116 -76.5s58.833 -71.334 77.5 -116.001s28 -93.334 28 -146.001c0 -51.333 -9.5 -99.166 -28.5 -143.499s-45 -83 -78 -116s-71.667 -59 -116 -78s-91.833 -28.5 -142.5 -28.5zM415.001 69.9971c38.667 0 74.667 7 108 21
s62.5 33.5 87.5 58.5s44.667 54.667 59 89s21.5 71.5 21.5 111.5s-7.16699 77 -21.5 111s-34 63.5 -59 88.5s-54.167 44.667 -87.5 59s-69.333 21.5 -108 21.5s-74.667 -7.16699 -108 -21.5s-62.5 -34 -87.5 -59s-44.667 -54.5 -59 -88.5s-21.5 -71 -21.5 -111
s7.16699 -77 21.5 -111s34 -63.5 59 -88.5s54.167 -44.667 87.5 -59s69.333 -21.5 108 -21.5zM415.001 138.997c-56 0 -100.836 17.668 -134.503 53.001s-50.5 86.333 -50.5 153v10c0 32 4.5 60.667 13.5 86s21.667 47 38 65s35.833 31.667 58.5 41s47.667 14 75 14
c53.333 0 94.666 -13 123.999 -39s46.333 -60 51 -102h-98c-3.33301 19.333 -11.166 34.666 -23.499 45.999s-30.166 17 -53.499 17c-25.333 0 -46.166 -10.5 -62.499 -31.5s-24.5 -53.167 -24.5 -96.5v-10c0 -43.333 8.33301 -75.5 25 -96.5s37.334 -31.5 62.001 -31.5
c24 0 41.667 5.83301 53 17.5s19.333 28.5 24 50.5h98c-4 -42.667 -21.167 -77.667 -51.5 -105s-71.5 -41 -123.5 -41z" />
    <glyph glyph-name="ordfeminine" unicode="&#xaa;" horiz-adv-x="390" 
d="M145 369c-41.333 0 -70.833 9.00195 -88.5 27.002s-26.5 43.333 -26.5 76c0 31.333 10.333 56.166 31 74.499s55.334 27.5 104.001 27.5h79v11c0 22.667 -3.66699 37.667 -11 45s-18.333 11 -33 11c-12 0 -21.667 -2.66699 -29 -8s-12.333 -14.666 -15 -27.999h-106
c2.66699 32.667 15.167 58.5 37.5 77.5s59.833 28.5 112.5 28.5c55.333 0 94.166 -10.333 116.499 -31s33.5 -52.334 33.5 -95.001v-125c0 -33.333 2 -60 6 -80h-93c-2.66699 8 -4.5 15.167 -5.5 21.5s-1.5 14.166 -1.5 23.499c-8 -14 -21 -26.833 -39 -38.5
s-42 -17.5 -72 -17.5zM175 439.002c22 0 39 5.33301 51 16s18 25.667 18 45v16h-64c-14.667 0 -25.667 -4 -33 -12s-11 -17.667 -11 -29c0 -12 3.5 -21 10.5 -27s16.5 -9 28.5 -9z" />
    <glyph glyph-name="guillemotleft" unicode="&#xab;" horiz-adv-x="545" 
d="M35 229v92l220 189v-120l-135 -113l135 -113v-124zM270 229v92l220 189v-120l-135 -113l135 -113v-124z" />
    <glyph glyph-name="logicalnot" unicode="&#xac;" horiz-adv-x="560" 
d="M405 308h-360v104h470v-272h-110v168z" />
    <glyph glyph-name="uni00AD" unicode="&#xad;" horiz-adv-x="380" 
d="M35 332h310v-104h-310v104z" />
    <glyph glyph-name="registered" unicode="&#xae;" horiz-adv-x="650" 
d="M325 139c-39.333 0 -76.333 7.5 -111 22.5s-64.834 35.333 -90.501 61s-46 55.834 -61 90.501s-22.5 72 -22.5 112s7.5 77.333 22.5 112s35.333 64.834 61 90.501s55.834 46 90.501 61s71.667 22.5 111 22.5s76.333 -7.5 111 -22.5s64.834 -35.333 90.501 -61
s46 -55.834 61 -90.501s22.5 -72 22.5 -112s-7.5 -77.333 -22.5 -112s-35.333 -64.834 -61 -90.501s-55.834 -46 -90.501 -61s-71.667 -22.5 -111 -22.5zM325 204c30.667 0 59 5.50098 85 16.501s48.5 26.167 67.5 45.5s34 42.666 45 69.999s16.5 57 16.5 89
s-5.5 61.667 -16.5 89s-26 50.666 -45 69.999s-41.5 34.5 -67.5 45.5s-54.333 16.5 -85 16.5s-59 -5.5 -85 -16.5s-48.5 -26.167 -67.5 -45.5s-34 -42.666 -45 -69.999s-16.5 -57 -16.5 -89s5.5 -61.5 16.5 -88.5s26 -50.333 45 -70s41.5 -35 67.5 -46
s54.333 -16.5 85 -16.5zM215 575.001h110c47.333 0 80.833 -8.5 100.5 -25.5s29.5 -40.833 29.5 -71.5c0 -22 -5.33301 -40.5 -16 -55.5s-28 -25.833 -52 -32.5l68 -115h-80l-60 108h-26v-108h-74v300zM321 441.001c23.333 0 39.166 3.33301 47.499 10s12.5 15.667 12.5 27
s-4.16699 20.333 -12.5 27s-24.166 10 -47.499 10h-32v-74h32z" />
    <glyph glyph-name="macron" unicode="&#xaf;" horiz-adv-x="320" 
d="M20 702h280v-84h-280v84z" />
    <glyph glyph-name="degree" unicode="&#xb0;" horiz-adv-x="390" 
d="M195 391c-22 0 -42.667 4.16699 -62 12.5s-36.333 19.833 -51 34.5s-26.167 31.667 -34.5 51s-12.5 40 -12.5 62s4.16699 42.667 12.5 62s19.833 36.333 34.5 51s31.667 26.167 51 34.5s40 12.5 62 12.5s42.667 -4.16699 62 -12.5s36.333 -19.833 51 -34.5
s26.167 -31.667 34.5 -51s12.5 -40 12.5 -62s-4.16699 -42.667 -12.5 -62s-19.833 -36.333 -34.5 -51s-31.667 -26.167 -51 -34.5s-40 -12.5 -62 -12.5zM195 481c19.333 0 35.833 6.83301 49.5 20.5s20.5 30.167 20.5 49.5s-6.83301 35.833 -20.5 49.5
s-30.167 20.5 -49.5 20.5s-35.833 -6.83301 -49.5 -20.5s-20.5 -30.167 -20.5 -49.5s6.83301 -35.833 20.5 -49.5s30.167 -20.5 49.5 -20.5z" />
    <glyph glyph-name="plusminus" unicode="&#xb1;" horiz-adv-x="560" 
d="M45 182h470v-104h-470v104zM225 358h-180v104h180v183h110v-183h180v-104h-180v-88h-110v88z" />
    <glyph glyph-name="twosuperior" unicode="&#xb2;" horiz-adv-x="370" 
d="M25 453l153 123.001c12 9.33301 21.667 17.666 29 24.999s13 14 17 20s6.66699 12.167 8 18.5s2 13.166 2 20.499c0 11.333 -3.66699 20.833 -11 28.5s-20 11.5 -38 11.5c-16.667 0 -29 -4.16699 -37 -12.5s-12 -19.166 -12 -32.499h-106c0 40.667 13.333 73.5 40 98.5
s65 37.5 115 37.5s88.333 -12 115 -36s40 -54 40 -90c0 -26 -7.16699 -49.667 -21.5 -71s-38.833 -45 -73.5 -71l-73 -55h173v-88h-320v73z" />
    <glyph glyph-name="threesuperior" unicode="&#xb3;" horiz-adv-x="380" 
d="M190 369c-55.333 0 -96.6689 12.332 -124.002 36.999s-41 56 -41 94h106c0 -14 4.16699 -24.333 12.5 -31s23.833 -10 46.5 -10c20.667 0 35.667 4.16699 45 12.5s14 18.833 14 31.5c0 13.333 -4.16699 24.166 -12.5 32.499s-24.166 12.5 -47.499 12.5h-44v74h44
c18 0 30.833 4 38.5 12s11.5 18 11.5 30c0 24.667 -16.333 37 -49 37c-16 0 -28.167 -3.16699 -36.5 -9.5s-12.5 -15.166 -12.5 -26.499h-106c0 38 12.833 68.5 38.5 91.5s64.5 34.5 116.5 34.5c53.333 0 92.5 -10.833 117.5 -32.5s37.5 -49.167 37.5 -82.5
c0 -26 -6.5 -45.167 -19.5 -57.5s-28.167 -21.833 -45.5 -28.5c8.66699 -3.33301 17.5 -7.66602 26.5 -12.999s17 -12 24 -20s12.833 -17.333 17.5 -28s7 -23 7 -37c0 -34 -13.667 -63 -41 -87s-68.666 -36 -123.999 -36z" />
    <glyph glyph-name="acute" unicode="&#xb4;" horiz-adv-x="280" 
d="M130 740h130l-150 -160h-90z" />
    <glyph glyph-name="mu" unicode="&#xb5;" horiz-adv-x="620" 
d="M80 530l110.001 0.00195312v-310c0 -44.667 9.16699 -78.334 27.5 -101.001s47.5 -34 87.5 -34c22 0 40.833 3.66699 56.5 11s28.5 17.333 38.5 30s17.5 27.167 22.5 43.5s7.5 33.166 7.5 50.499v310h110v-530h-102v90c-12.667 -26.667 -33.167 -50.167 -61.5 -70.5
s-63.833 -30.5 -106.5 -30.5c-30.667 0 -57.334 5 -80.001 15v-204h-110v730z" />
    <glyph glyph-name="paragraph" unicode="&#xb6;" 
d="M190 306c-21.333 5.33301 -41.167 14.168 -59.5 26.501s-34.166 27 -47.499 44s-23.833 36 -31.5 57s-11.5 43.167 -11.5 66.5c0 27.333 5.33301 53.166 16 77.499s25 45.5 43 63.5s39.167 32.333 63.5 43s50.166 16 77.499 16h300v-900h-102v806h-146v-806h-102v506z
" />
    <glyph glyph-name="periodcentered" unicode="&#xb7;" horiz-adv-x="310" 
d="M155 195c-22.667 0 -41.667 7.66699 -57 23s-23 34.333 -23 57c0 23.333 7.66699 42.5 23 57.5s34.333 22.5 57 22.5s41.667 -7.5 57 -22.5s23 -34.167 23 -57.5c0 -22.667 -7.66699 -41.667 -23 -57s-34.333 -23 -57 -23z" />
    <glyph glyph-name="cedilla" unicode="&#xb8;" horiz-adv-x="230" 
d="M85 -211c-21.333 0 -37.334 1 -48.001 3c-6.66699 1.33301 -12.334 2.66602 -17.001 3.99902v66c4 -0.666992 8.66699 -1.33398 14 -2.00098c4.66699 -0.666992 10 -1.16699 16 -1.5s12.667 -0.5 20 -0.5c18.667 0 31.334 3.33301 38.001 10s10 13.667 10 21
c0 8.66699 -3.33301 16 -10 22s-20.667 9 -42 9l17 90h68l-7 -47c26.667 -6 44.334 -16.667 53.001 -32s13 -30.666 13 -45.999c0 -29.333 -9.83301 -52.666 -29.5 -69.999s-51.5 -26 -95.5 -26z" />
    <glyph glyph-name="onesuperior" unicode="&#xb9;" horiz-adv-x="260" 
d="M124 666l-104 -74v110l110 78h100v-400h-106v286z" />
    <glyph glyph-name="ordmasculine" unicode="&#xba;" horiz-adv-x="380" 
d="M190 369c-24.667 0 -47.167 4 -67.5 12s-37.666 19.333 -51.999 34s-25.5 32.167 -33.5 52.5s-12 42.833 -12 67.5v10c0 24.667 4 47.167 12 67.5s19.167 37.833 33.5 52.5s31.666 26 51.999 34s42.833 12 67.5 12s47 -4 67 -12s37.333 -19.333 52 -34
s26 -32.167 34 -52.5s12 -42.833 12 -67.5v-10c0 -24.667 -4 -47.167 -12 -67.5s-19.333 -37.833 -34 -52.5s-32 -26 -52 -34s-42.333 -12 -67 -12zM190 459c18 0 32.333 6 43 18s16 31.333 16 58v10c0 26.667 -5.33301 46 -16 58s-25 18 -43 18s-32.333 -6 -43 -18
s-16 -31.333 -16 -58v-10c0 -26.667 5.33301 -46 16 -58s25 -18 43 -18z" />
    <glyph glyph-name="guillemotright" unicode="&#xbb;" horiz-adv-x="545" 
d="M275 321v-92l-220 -189v120l135 113l-135 113v124zM510 321v-92l-220 -189v120l135 113l-135 113v124z" />
    <glyph glyph-name="onequarter" unicode="&#xbc;" horiz-adv-x="850" 
d="M625 700h120l-480 -700h-120zM124 587l-104 -74v110l110 78h100v-400h-106v286zM669 78h-194v71l184 252h116v-237h40v-86h-40v-77h-106v77zM669 164v129l-89 -129h89z" />
    <glyph glyph-name="onehalf" unicode="&#xbd;" horiz-adv-x="910" 
d="M625 700h120l-480 -700h-120zM124 587l-104 -74v110l110 78h100v-400h-106v286zM565 74l153 123.001c12 9.33301 21.667 17.666 29 24.999s13 14 17 20s6.66699 12.167 8 18.5s2 13.166 2 20.499c0 11.333 -3.66699 20.833 -11 28.5s-20 11.5 -38 11.5
c-16.667 0 -29 -4.16699 -37 -12.5s-12 -19.166 -12 -32.499h-106c0 40.667 13.333 73.5 40 98.5s65 37.5 115 37.5s88.333 -12 115 -36s40 -54 40 -90c0 -26 -7.16699 -49.667 -21.5 -71s-38.833 -45 -73.5 -71l-73 -55h173v-88h-320v73z" />
    <glyph glyph-name="threequarters" unicode="&#xbe;" horiz-adv-x="880" 
d="M655 700h120l-480 -700h-120zM190 291c-55.333 0 -96.6689 12.332 -124.002 36.999s-41 56 -41 94h106c0 -14 4.16699 -24.333 12.5 -31s23.833 -10 46.5 -10c20.667 0 35.667 4.16699 45 12.5s14 18.833 14 31.5c0 13.333 -4.16699 24.166 -12.5 32.499
s-24.166 12.5 -47.499 12.5h-44v74h44c18 0 30.833 4 38.5 12s11.5 18 11.5 30c0 24.667 -16.333 37 -49 37c-16 0 -28.167 -3.16699 -36.5 -9.5s-12.5 -15.166 -12.5 -26.499h-106c0 38 12.833 68.5 38.5 91.5s64.5 34.5 116.5 34.5c53.333 0 92.5 -10.833 117.5 -32.5
s37.5 -49.167 37.5 -82.5c0 -26 -6.5 -45.167 -19.5 -57.5s-28.167 -21.833 -45.5 -28.5c8.66699 -3.33301 17.5 -7.66602 26.5 -12.999s17 -12 24 -20s12.833 -17.333 17.5 -28s7 -23 7 -37c0 -34 -13.667 -63 -41 -87s-68.666 -36 -123.999 -36zM698.997 77.999h-194v71
l184 252h116v-237h40v-86h-40v-77h-106v77zM698.997 163.999v129l-89 -129h89z" />
    <glyph glyph-name="questiondown" unicode="&#xbf;" horiz-adv-x="520" 
d="M260 -211c-34 0 -64.667 4.83398 -92 14.501s-50.5 23.167 -69.5 40.5s-33.5 37.5 -43.5 60.5s-15 48.167 -15 75.5c0 38.667 9.5 71.667 28.5 99s43.167 54 72.5 80c22 19.333 38.167 35.333 48.5 48s15.5 28.667 15.5 48v50h110v-65c0 -14 -1.33301 -26.667 -4 -38
s-7.16699 -22.333 -13.5 -33s-14.666 -21.5 -24.999 -32.5s-23.5 -23.167 -39.5 -36.5c-25.333 -22 -45.166 -42.333 -59.499 -61s-21.5 -38.334 -21.5 -59.001c0 -26.667 9.66699 -49.167 29 -67.5s45.666 -27.5 78.999 -27.5s59.666 9.5 78.999 28.5s29 44.5 29 76.5h112
c0 -28 -5.33301 -54.333 -16 -79s-25.5 -46 -44.5 -64s-42.167 -32.167 -69.5 -42.5s-57.333 -15.5 -90 -15.5zM260 381.001c-22.667 0 -41.667 7.66699 -57 23s-23 34.333 -23 57c0 23.333 7.66699 42.5 23 57.5s34.333 22.5 57 22.5s41.667 -7.5 57 -22.5
s23 -34.167 23 -57.5c0 -22.667 -7.66699 -41.667 -23 -57s-34.333 -23 -57 -23z" />
    <glyph glyph-name="Agrave" unicode="&#xc0;" horiz-adv-x="680" 
d="M478 158h-284l-59 -158h-120l265 700h120l265 -700h-128zM233 262h206l-102 288zM140 900h140l110 -150h-100z" />
    <glyph glyph-name="Aacute" unicode="&#xc1;" horiz-adv-x="680" 
d="M478 158h-284l-59 -158h-120l265 700h120l265 -700h-128zM233 262h206l-102 288zM400 900h140l-150 -150h-100z" />
    <glyph glyph-name="Acircumflex" unicode="&#xc2;" horiz-adv-x="680" 
d="M478 158h-284l-59 -158h-120l265 700h120l265 -700h-128zM233 262h206l-102 288zM280 900h120l110 -150h-100l-70 70l-70 -70h-100z" />
    <glyph glyph-name="Atilde" unicode="&#xc3;" horiz-adv-x="680" 
d="M478 158h-284l-59 -158h-120l265 700h120l265 -700h-128zM233 262h206l-102 288zM410 755c-17.333 0 -32.332 2.33398 -44.999 7.00098s-24.167 9.83398 -34.5 15.501l-29.5 15.5c-9.33301 4.66699 -19.666 7 -30.999 7c-7.33301 0 -14 -2 -20 -6
s-10.667 -8.66699 -14 -14c-4.66699 -6 -8.33398 -12.667 -11.001 -20l-65 30c4.66699 19.333 11.667 36.666 21 51.999c8 13.333 19.167 25.5 33.5 36.5s32.833 16.5 55.5 16.5c17.333 0 32.333 -2.33301 45 -7s24.167 -9.83398 34.5 -15.501l29.5 -15.5
c9.33301 -4.66699 19.666 -7 30.999 -7c7.33301 0 13.833 2 19.5 6s10.5 8.66699 14.5 14c4 6 7.66699 12.667 11 20l65 -30c-4.66699 -20 -11.667 -37.667 -21 -53c-8 -13.333 -19.167 -25.333 -33.5 -36s-32.833 -16 -55.5 -16z" />
    <glyph glyph-name="Adieresis" unicode="&#xc4;" horiz-adv-x="680" 
d="M478 158h-284l-59 -158h-120l265 700h120l265 -700h-128zM233 262h206l-102 288zM225 755c-20.667 0 -37.5 6.5 -50.5 19.5s-19.5 29.833 -19.5 50.5s6.5 37.5 19.5 50.5s29.833 19.5 50.5 19.5s37.5 -6.5 50.5 -19.5s19.5 -29.833 19.5 -50.5s-6.5 -37.5 -19.5 -50.5
s-29.833 -19.5 -50.5 -19.5zM455 755c-20.667 0 -37.5 6.5 -50.5 19.5s-19.5 29.833 -19.5 50.5s6.5 37.5 19.5 50.5s29.833 19.5 50.5 19.5s37.5 -6.5 50.5 -19.5s19.5 -29.833 19.5 -50.5s-6.5 -37.5 -19.5 -50.5s-29.833 -19.5 -50.5 -19.5z" />
    <glyph glyph-name="Aring" unicode="&#xc5;" horiz-adv-x="680" 
d="M478 158h-284l-59 -158h-120l265 700h120l265 -700h-128zM233 262h206l-102 288zM340 730c-17.333 0 -33.666 3 -48.999 9s-28.666 14.167 -39.999 24.5s-20.166 22.5 -26.499 36.5s-9.5 29 -9.5 45s3.16699 31 9.5 45s15.166 26.167 26.499 36.5
s24.666 18.5 39.999 24.5s31.666 9 48.999 9s33.666 -3 48.999 -9s28.666 -14.167 39.999 -24.5s20.166 -22.5 26.499 -36.5s9.5 -29 9.5 -45s-3.16699 -31 -9.5 -45s-15.166 -26.167 -26.499 -36.5s-24.666 -18.5 -39.999 -24.5s-31.666 -9 -48.999 -9zM340 800
c13.333 0 24.166 4.16699 32.499 12.5s12.5 19.166 12.5 32.499s-4.16699 24.166 -12.5 32.499s-19.166 12.5 -32.499 12.5s-24.166 -4.16699 -32.499 -12.5s-12.5 -19.166 -12.5 -32.499s4.16699 -24.166 12.5 -32.499s19.166 -12.5 32.499 -12.5z" />
    <glyph glyph-name="AE" unicode="&#xc6;" horiz-adv-x="975" 
d="M420 700h500v-104h-350v-184h320v-104h-320v-204h350v-104h-470v158h-220l-92 -158h-128zM450 262v288l-161 -288h161z" />
    <glyph glyph-name="Ccedilla" unicode="&#xc7;" horiz-adv-x="690" 
d="M360 -11c-43.333 0 -83.499 6.66602 -120.499 19.999s-69.167 34.333 -96.5 63s-48.833 65.5 -64.5 110.5s-23.5 99.167 -23.5 162.5v20c0 60.667 8 112.834 24 156.501s37.833 79.5 65.5 107.5s60 48.667 97 62s76.5 20 118.5 20c38.667 0 74.667 -4.83301 108 -14.5
s62.5 -24.167 87.5 -43.5s45.333 -43.333 61 -72s25.167 -62.334 28.5 -101.001h-126c-8.66699 43.333 -27.167 75 -55.5 95s-62.833 30 -103.5 30c-22 0 -43.667 -4 -65 -12s-40.5 -21.333 -57.5 -40s-30.667 -43.334 -41 -74.001s-15.5 -68.667 -15.5 -114v-20
c0 -48 5.5 -88 16.5 -120s25.167 -57.667 42.5 -77s36.5 -33 57.5 -41s41.833 -12 62.5 -12c48 0 85.167 11.167 111.5 33.5s42.166 52.833 47.499 91.5h126c-4 -41.333 -14 -76.666 -30 -105.999s-36.5 -53.166 -61.5 -71.499s-54 -31.833 -87 -40.5s-68.5 -13 -106.5 -13z
M330.001 -211.001c-21.333 0 -37.332 1 -47.999 3c-6.66699 1.33301 -12.334 2.66602 -17.001 3.99902v68c4 -0.666992 8.66699 -1.33398 14 -2.00098c4.66699 -0.666992 10 -1.16699 16 -1.5s12.667 -0.5 20 -0.5c18.667 0 31 3 37 9s9 12.667 9 20
c0 8.66699 -3.16699 15.667 -9.5 21s-20.5 8 -42.5 8l17 92h72l-7 -47c25.333 -6 42.333 -16.667 51 -32s13 -30.666 13 -45.999c0 -29.333 -9.83301 -52.666 -29.5 -69.999s-51.5 -26 -95.5 -26z" />
    <glyph glyph-name="Egrave" unicode="&#xc8;" horiz-adv-x="615" 
d="M90 700h470v-104h-350v-184h320v-104h-320v-204h350v-104h-470v700zM125 900h140l110 -150h-100z" />
    <glyph glyph-name="Eacute" unicode="&#xc9;" horiz-adv-x="615" 
d="M90 700h470v-104h-350v-184h320v-104h-320v-204h350v-104h-470v700zM385 900h140l-150 -150h-100z" />
    <glyph glyph-name="Ecircumflex" unicode="&#xca;" horiz-adv-x="615" 
d="M90 700h470v-104h-350v-184h320v-104h-320v-204h350v-104h-470v700zM265 900h120l110 -150h-100l-70 70l-70 -70h-100z" />
    <glyph glyph-name="Edieresis" unicode="&#xcb;" horiz-adv-x="615" 
d="M90 700h470v-104h-350v-184h320v-104h-320v-204h350v-104h-470v700zM210 755c-20.667 0 -37.5 6.5 -50.5 19.5s-19.5 29.833 -19.5 50.5s6.5 37.5 19.5 50.5s29.833 19.5 50.5 19.5s37.5 -6.5 50.5 -19.5s19.5 -29.833 19.5 -50.5s-6.5 -37.5 -19.5 -50.5
s-29.833 -19.5 -50.5 -19.5zM440 755c-20.667 0 -37.5 6.5 -50.5 19.5s-19.5 29.833 -19.5 50.5s6.5 37.5 19.5 50.5s29.833 19.5 50.5 19.5s37.5 -6.5 50.5 -19.5s19.5 -29.833 19.5 -50.5s-6.5 -37.5 -19.5 -50.5s-29.833 -19.5 -50.5 -19.5z" />
    <glyph glyph-name="Igrave" unicode="&#xcc;" horiz-adv-x="320" 
d="M100 700h120v-700h-120v700zM-39 900h140l110 -150h-100z" />
    <glyph glyph-name="Iacute" unicode="&#xcd;" horiz-adv-x="320" 
d="M100 700h120v-700h-120v700zM220 900h140l-150 -150h-100z" />
    <glyph glyph-name="Icircumflex" unicode="&#xce;" horiz-adv-x="320" 
d="M100 700h120v-700h-120v700zM101 900h120l110 -150h-100l-70 70l-70 -70h-100z" />
    <glyph glyph-name="Idieresis" unicode="&#xcf;" horiz-adv-x="320" 
d="M100 700h120v-700h-120v700zM46 755c-20.667 0 -37.5 6.5 -50.5 19.5s-19.5 29.833 -19.5 50.5s6.5 37.5 19.5 50.5s29.833 19.5 50.5 19.5s37.5 -6.5 50.5 -19.5s19.5 -29.833 19.5 -50.5s-6.5 -37.5 -19.5 -50.5s-29.833 -19.5 -50.5 -19.5zM276 755
c-20.667 0 -37.5 6.5 -50.5 19.5s-19.5 29.833 -19.5 50.5s6.5 37.5 19.5 50.5s29.833 19.5 50.5 19.5s37.5 -6.5 50.5 -19.5s19.5 -29.833 19.5 -50.5s-6.5 -37.5 -19.5 -50.5s-29.833 -19.5 -50.5 -19.5z" />
    <glyph glyph-name="Eth" unicode="&#xd0;" horiz-adv-x="725" 
d="M110 308h-79.998v94h80v298h225c106 0 188.333 -28.167 247 -84.5s88 -139.833 88 -250.5v-20c0 -56 -7.83301 -105.5 -23.5 -148.5s-38.334 -79 -68.001 -108s-65.834 -51 -108.501 -66s-91 -22.5 -145 -22.5h-215v308zM315.002 104c34 0 65.166 4.33203 93.499 12.999
s52.5 22.5 72.5 41.5s35.5 43.833 46.5 74.5s16.5 68 16.5 112v20c0 40.667 -5.66699 75.667 -17 105s-26.666 53.333 -45.999 72s-42.5 32.334 -69.5 41.001s-55.833 13 -86.5 13h-95v-194h160v-94h-160v-204h85z" />
    <glyph glyph-name="Ntilde" unicode="&#xd1;" horiz-adv-x="760" 
d="M90 700h116l344 -500v500h120v-700h-116l-344 500v-500h-120v700zM450 755c-17.333 0 -32.332 2.33398 -44.999 7.00098s-24.167 9.83398 -34.5 15.501l-29.5 15.5c-9.33301 4.66699 -19.666 7 -30.999 7c-7.33301 0 -14 -2 -20 -6s-10.667 -8.66699 -14 -14
c-4.66699 -6 -8.33398 -12.667 -11.001 -20l-65 30c4.66699 19.333 11.667 36.666 21 51.999c8 13.333 19.167 25.5 33.5 36.5s32.833 16.5 55.5 16.5c17.333 0 32.333 -2.33301 45 -7s24.167 -9.83398 34.5 -15.501l29.5 -15.5c9.33301 -4.66699 19.666 -7 30.999 -7
c7.33301 0 13.833 2 19.5 6s10.5 8.66699 14.5 14c4 6 7.66699 12.667 11 20l65 -30c-4.66699 -20 -11.667 -37.667 -21 -53c-8 -13.333 -19.167 -25.333 -33.5 -36s-32.833 -16 -55.5 -16z" />
    <glyph glyph-name="Ograve" unicode="&#xd2;" horiz-adv-x="750" 
d="M375 -11c-42.667 0 -83.334 6.66699 -122.001 20s-72.667 34.166 -102 62.499s-52.666 65 -69.999 110s-26 99.5 -26 163.5v20c0 61.333 8.66699 113.833 26 157.5s40.666 79.5 69.999 107.5s63.333 48.5 102 61.5s79.334 19.5 122.001 19.5s83.334 -6.5 122.001 -19.5
s72.667 -33.5 102 -61.5s52.666 -63.833 69.999 -107.5s26 -96.167 26 -157.5v-20c0 -64 -8.66699 -118.5 -26 -163.5s-40.666 -81.667 -69.999 -110s-63.333 -49.166 -102 -62.499s-79.334 -20 -122.001 -20zM375 95c24.667 0 48.667 4.33301 72 13s44 22.834 62 42.501
s32.5 45.5 43.5 77.5s16.5 71 16.5 117v20c0 44 -5.5 81.167 -16.5 111.5s-25.5 55 -43.5 74s-38.667 32.833 -62 41.5s-47.333 13 -72 13c-25.333 0 -49.666 -4.33301 -72.999 -13s-44 -22.5 -62 -41.5s-32.333 -43.667 -43 -74s-16 -67.5 -16 -111.5v-20
c0 -46 5.33301 -85 16 -117s25 -57.833 43 -77.5s38.667 -33.834 62 -42.501s47.666 -13 72.999 -13zM175 900h140l110 -150h-100z" />
    <glyph glyph-name="Oacute" unicode="&#xd3;" horiz-adv-x="750" 
d="M375 -11c-42.667 0 -83.334 6.66699 -122.001 20s-72.667 34.166 -102 62.499s-52.666 65 -69.999 110s-26 99.5 -26 163.5v20c0 61.333 8.66699 113.833 26 157.5s40.666 79.5 69.999 107.5s63.333 48.5 102 61.5s79.334 19.5 122.001 19.5s83.334 -6.5 122.001 -19.5
s72.667 -33.5 102 -61.5s52.666 -63.833 69.999 -107.5s26 -96.167 26 -157.5v-20c0 -64 -8.66699 -118.5 -26 -163.5s-40.666 -81.667 -69.999 -110s-63.333 -49.166 -102 -62.499s-79.334 -20 -122.001 -20zM375 95c24.667 0 48.667 4.33301 72 13s44 22.834 62 42.501
s32.5 45.5 43.5 77.5s16.5 71 16.5 117v20c0 44 -5.5 81.167 -16.5 111.5s-25.5 55 -43.5 74s-38.667 32.833 -62 41.5s-47.333 13 -72 13c-25.333 0 -49.666 -4.33301 -72.999 -13s-44 -22.5 -62 -41.5s-32.333 -43.667 -43 -74s-16 -67.5 -16 -111.5v-20
c0 -46 5.33301 -85 16 -117s25 -57.833 43 -77.5s38.667 -33.834 62 -42.501s47.666 -13 72.999 -13zM435 900h140l-150 -150h-100z" />
    <glyph glyph-name="Ocircumflex" unicode="&#xd4;" horiz-adv-x="750" 
d="M375 -11c-42.667 0 -83.334 6.66699 -122.001 20s-72.667 34.166 -102 62.499s-52.666 65 -69.999 110s-26 99.5 -26 163.5v20c0 61.333 8.66699 113.833 26 157.5s40.666 79.5 69.999 107.5s63.333 48.5 102 61.5s79.334 19.5 122.001 19.5s83.334 -6.5 122.001 -19.5
s72.667 -33.5 102 -61.5s52.666 -63.833 69.999 -107.5s26 -96.167 26 -157.5v-20c0 -64 -8.66699 -118.5 -26 -163.5s-40.666 -81.667 -69.999 -110s-63.333 -49.166 -102 -62.499s-79.334 -20 -122.001 -20zM375 95c24.667 0 48.667 4.33301 72 13s44 22.834 62 42.501
s32.5 45.5 43.5 77.5s16.5 71 16.5 117v20c0 44 -5.5 81.167 -16.5 111.5s-25.5 55 -43.5 74s-38.667 32.833 -62 41.5s-47.333 13 -72 13c-25.333 0 -49.666 -4.33301 -72.999 -13s-44 -22.5 -62 -41.5s-32.333 -43.667 -43 -74s-16 -67.5 -16 -111.5v-20
c0 -46 5.33301 -85 16 -117s25 -57.833 43 -77.5s38.667 -33.834 62 -42.501s47.666 -13 72.999 -13zM315 900h120l110 -150h-100l-70 70l-70 -70h-100z" />
    <glyph glyph-name="Otilde" unicode="&#xd5;" horiz-adv-x="750" 
d="M375 -11c-42.667 0 -83.334 6.66699 -122.001 20s-72.667 34.166 -102 62.499s-52.666 65 -69.999 110s-26 99.5 -26 163.5v20c0 61.333 8.66699 113.833 26 157.5s40.666 79.5 69.999 107.5s63.333 48.5 102 61.5s79.334 19.5 122.001 19.5s83.334 -6.5 122.001 -19.5
s72.667 -33.5 102 -61.5s52.666 -63.833 69.999 -107.5s26 -96.167 26 -157.5v-20c0 -64 -8.66699 -118.5 -26 -163.5s-40.666 -81.667 -69.999 -110s-63.333 -49.166 -102 -62.499s-79.334 -20 -122.001 -20zM375 95c24.667 0 48.667 4.33301 72 13s44 22.834 62 42.501
s32.5 45.5 43.5 77.5s16.5 71 16.5 117v20c0 44 -5.5 81.167 -16.5 111.5s-25.5 55 -43.5 74s-38.667 32.833 -62 41.5s-47.333 13 -72 13c-25.333 0 -49.666 -4.33301 -72.999 -13s-44 -22.5 -62 -41.5s-32.333 -43.667 -43 -74s-16 -67.5 -16 -111.5v-20
c0 -46 5.33301 -85 16 -117s25 -57.833 43 -77.5s38.667 -33.834 62 -42.501s47.666 -13 72.999 -13zM445 755c-17.333 0 -32.332 2.33398 -44.999 7.00098s-24.167 9.83398 -34.5 15.501l-29.5 15.5c-9.33301 4.66699 -19.666 7 -30.999 7c-7.33301 0 -14 -2 -20 -6
s-10.667 -8.66699 -14 -14c-4.66699 -6 -8.33398 -12.667 -11.001 -20l-65 30c4.66699 19.333 11.667 36.666 21 51.999c8 13.333 19.167 25.5 33.5 36.5s32.833 16.5 55.5 16.5c17.333 0 32.333 -2.33301 45 -7s24.167 -9.83398 34.5 -15.501l29.5 -15.5
c9.33301 -4.66699 19.666 -7 30.999 -7c7.33301 0 13.833 2 19.5 6s10.5 8.66699 14.5 14c4 6 7.66699 12.667 11 20l65 -30c-4.66699 -20 -11.667 -37.667 -21 -53c-8 -13.333 -19.167 -25.333 -33.5 -36s-32.833 -16 -55.5 -16z" />
    <glyph glyph-name="Odieresis" unicode="&#xd6;" horiz-adv-x="750" 
d="M375 -11c-42.667 0 -83.334 6.66699 -122.001 20s-72.667 34.166 -102 62.499s-52.666 65 -69.999 110s-26 99.5 -26 163.5v20c0 61.333 8.66699 113.833 26 157.5s40.666 79.5 69.999 107.5s63.333 48.5 102 61.5s79.334 19.5 122.001 19.5s83.334 -6.5 122.001 -19.5
s72.667 -33.5 102 -61.5s52.666 -63.833 69.999 -107.5s26 -96.167 26 -157.5v-20c0 -64 -8.66699 -118.5 -26 -163.5s-40.666 -81.667 -69.999 -110s-63.333 -49.166 -102 -62.499s-79.334 -20 -122.001 -20zM375 95c24.667 0 48.667 4.33301 72 13s44 22.834 62 42.501
s32.5 45.5 43.5 77.5s16.5 71 16.5 117v20c0 44 -5.5 81.167 -16.5 111.5s-25.5 55 -43.5 74s-38.667 32.833 -62 41.5s-47.333 13 -72 13c-25.333 0 -49.666 -4.33301 -72.999 -13s-44 -22.5 -62 -41.5s-32.333 -43.667 -43 -74s-16 -67.5 -16 -111.5v-20
c0 -46 5.33301 -85 16 -117s25 -57.833 43 -77.5s38.667 -33.834 62 -42.501s47.666 -13 72.999 -13zM260 755c-20.667 0 -37.5 6.5 -50.5 19.5s-19.5 29.833 -19.5 50.5s6.5 37.5 19.5 50.5s29.833 19.5 50.5 19.5s37.5 -6.5 50.5 -19.5s19.5 -29.833 19.5 -50.5
s-6.5 -37.5 -19.5 -50.5s-29.833 -19.5 -50.5 -19.5zM490 755c-20.667 0 -37.5 6.5 -50.5 19.5s-19.5 29.833 -19.5 50.5s6.5 37.5 19.5 50.5s29.833 19.5 50.5 19.5s37.5 -6.5 50.5 -19.5s19.5 -29.833 19.5 -50.5s-6.5 -37.5 -19.5 -50.5s-29.833 -19.5 -50.5 -19.5z" />
    <glyph glyph-name="multiply" unicode="&#xd7;" horiz-adv-x="560" 
d="M65 215l145 145l-145 145l70 70l145 -145l145 145l70 -70l-145 -145l145 -145l-70 -70l-145 145l-145 -145z" />
    <glyph glyph-name="Oslash" unicode="&#xd8;" horiz-adv-x="750" 
d="M375 -11c-36 0 -70.5 4.66602 -103.5 13.999s-63.5 24 -91.5 44l-47 -58l-58 48l51 63c-22 28.667 -39.333 63.167 -52 103.5s-19 87.5 -19 141.5v20c0 61.333 8.66699 113.833 26 157.5s40.666 79.5 69.999 107.5s63.333 48.5 102 61.5s79.334 19.5 122.001 19.5
c36 0 70.5 -4.66699 103.5 -14s63.5 -24 91.5 -44l47 58l58 -48l-50 -63c21.333 -28 38.333 -61.167 51 -99.5s19 -83.5 19 -135.5v-20c0 -64 -8.66699 -118.5 -26 -163.5s-40.666 -81.667 -69.999 -110s-63.333 -49.166 -102 -62.499s-79.334 -20 -122.001 -20zM375 94.999
c24.667 0 48.666 4.33203 71.999 12.999s44 22.834 62 42.501s32.5 45.5 43.5 77.5s16.5 71 16.5 117v20c0 28 -2.33301 53 -7 75s-11 41.667 -19 59l-290 -361c17.333 -15.333 36.333 -26.333 57 -33s42.334 -10 65.001 -10zM374.999 604.998
c-25.333 0 -49.667 -4.33301 -73 -13s-44 -22.5 -62 -41.5s-32.333 -43.667 -43 -74s-16 -67.5 -16 -111.5v-20c0 -30 2.33301 -56.833 7 -80.5s11 -44.5 19 -62.5l290 360c-17.333 15.333 -36.5 26.333 -57.5 33s-42.5 10 -64.5 10z" />
    <glyph glyph-name="Ugrave" unicode="&#xd9;" horiz-adv-x="730" 
d="M365 -11c-43.333 0 -82.6689 6 -118.002 18s-65.333 30 -90 54s-43.667 54.167 -57 90.5s-20 79.166 -20 128.499v420h120v-413c0 -66 14 -114.5 42 -145.5s69 -46.5 123 -46.5c54.667 0 95.834 15.5 123.501 46.5s41.5 79.167 41.5 144.5v414h120v-420
c0 -49.333 -6.66699 -92.166 -20 -128.499s-32.333 -66.5 -57 -90.5s-54.667 -42 -90 -54s-74.666 -18 -117.999 -18zM164.997 900h140l110 -150h-100z" />
    <glyph glyph-name="Uacute" unicode="&#xda;" horiz-adv-x="730" 
d="M365 -11c-43.333 0 -82.6689 6 -118.002 18s-65.333 30 -90 54s-43.667 54.167 -57 90.5s-20 79.166 -20 128.499v420h120v-413c0 -66 14 -114.5 42 -145.5s69 -46.5 123 -46.5c54.667 0 95.834 15.5 123.501 46.5s41.5 79.167 41.5 144.5v414h120v-420
c0 -49.333 -6.66699 -92.166 -20 -128.499s-32.333 -66.5 -57 -90.5s-54.667 -42 -90 -54s-74.666 -18 -117.999 -18zM424.997 900h140l-150 -150h-100z" />
    <glyph glyph-name="Ucircumflex" unicode="&#xdb;" horiz-adv-x="730" 
d="M365 -11c-43.333 0 -82.6689 6 -118.002 18s-65.333 30 -90 54s-43.667 54.167 -57 90.5s-20 79.166 -20 128.499v420h120v-413c0 -66 14 -114.5 42 -145.5s69 -46.5 123 -46.5c54.667 0 95.834 15.5 123.501 46.5s41.5 79.167 41.5 144.5v414h120v-420
c0 -49.333 -6.66699 -92.166 -20 -128.499s-32.333 -66.5 -57 -90.5s-54.667 -42 -90 -54s-74.666 -18 -117.999 -18zM304.997 900h120l110 -150h-100l-70 70l-70 -70h-100z" />
    <glyph glyph-name="Udieresis" unicode="&#xdc;" horiz-adv-x="730" 
d="M365 -11c-43.333 0 -82.6689 6 -118.002 18s-65.333 30 -90 54s-43.667 54.167 -57 90.5s-20 79.166 -20 128.499v420h120v-413c0 -66 14 -114.5 42 -145.5s69 -46.5 123 -46.5c54.667 0 95.834 15.5 123.501 46.5s41.5 79.167 41.5 144.5v414h120v-420
c0 -49.333 -6.66699 -92.166 -20 -128.499s-32.333 -66.5 -57 -90.5s-54.667 -42 -90 -54s-74.666 -18 -117.999 -18zM249.997 755c-20.667 0 -37.5 6.5 -50.5 19.5s-19.5 29.833 -19.5 50.5s6.5 37.5 19.5 50.5s29.833 19.5 50.5 19.5s37.5 -6.5 50.5 -19.5
s19.5 -29.833 19.5 -50.5s-6.5 -37.5 -19.5 -50.5s-29.833 -19.5 -50.5 -19.5zM479.997 755c-20.667 0 -37.5 6.5 -50.5 19.5s-19.5 29.833 -19.5 50.5s6.5 37.5 19.5 50.5s29.833 19.5 50.5 19.5s37.5 -6.5 50.5 -19.5s19.5 -29.833 19.5 -50.5s-6.5 -37.5 -19.5 -50.5
s-29.833 -19.5 -50.5 -19.5z" />
    <glyph glyph-name="Yacute" unicode="&#xdd;" horiz-adv-x="660" 
d="M280 270l-270 430h142l190 -310l176 310h132l-250 -430v-270h-120v270zM395 900h140l-150 -150h-100z" />
    <glyph glyph-name="Thorn" unicode="&#xde;" horiz-adv-x="660" 
d="M90 700l120.002 -0.00195312v-116h135c94 0 163.333 -20.167 208 -60.5s67 -94.833 67 -163.5c0 -34 -5.5 -64.667 -16.5 -92s-27.833 -50.666 -50.5 -69.999s-51.334 -34.166 -86.001 -44.499s-75.334 -15.5 -122.001 -15.5h-135v-138h-120v700zM335.002 241.998
c31.333 0 57.666 2.49902 78.999 7.49902s38.333 12.333 51 22s21.667 21.834 27 36.501s8 32 8 52s-2.66699 37.5 -8 52.5s-14.333 27.5 -27 37.5s-29.667 17.5 -51 22.5s-47.666 7.5 -78.999 7.5h-125v-238h125z" />
    <glyph glyph-name="germandbls" unicode="&#xdf;" horiz-adv-x="585" 
d="M70 480c0 74 19.5 131.002 58.5 171.002s92.833 60 161.5 60c34 0 64 -4.5 90 -13.5s47.833 -21.333 65.5 -37s31.167 -34.334 40.5 -56.001s14 -44.834 14 -69.501c0 -34 -8.66699 -64.333 -26 -91s-42 -45.667 -74 -57c25.333 -4 47 -11.667 65 -23
s32.5 -24.666 43.5 -39.999s19 -32.5 24 -51.5s7.5 -38.167 7.5 -57.5v-10c0 -70 -19 -122.5 -57 -157.5s-99 -52.5 -183 -52.5c-7.33301 0 -15.666 0.166992 -24.999 0.5s-17.666 1.16602 -24.999 2.49902v94c7.33301 -1.33301 15.666 -2.16602 24.999 -2.49902
s17.666 -0.5 24.999 -0.5c43.333 0 75.833 10.5 97.5 31.5s32.5 50.5 32.5 88.5v10c0 38 -11 67.333 -33 88s-56 31 -102 31h-20v84h15c26.667 0 50 8 70 24s30 40.333 30 73c0 64 -33.333 96 -100 96c-35.333 0 -62.5 -11.833 -81.5 -35.5s-28.5 -56.834 -28.5 -99.501
v-480h-110v480z" />
    <glyph glyph-name="agrave" unicode="&#xe0;" horiz-adv-x="570" 
d="M225 -11c-28.667 0 -54.167 4.16992 -76.5 12.5029s-41.166 20 -56.499 35s-27 32.5 -35 52.5s-12 42 -12 66c0 52.667 15.667 91.834 47 117.501s77.333 38.5 138 38.5h165v29c0 40 -8.83301 67.5 -26.5 82.5s-45.5 22.5 -83.5 22.5c-34 0 -59 -5.33301 -75 -16
s-25.333 -25.334 -28 -44.001h-107c1.33301 22.667 7.16602 43.5 17.499 62.5s24.666 35.5 42.999 49.5s40.5 24.833 66.5 32.5s55.333 11.5 88 11.5s62.167 -3.66699 88.5 -11s48.833 -18.833 67.5 -34.5s33.167 -35.834 43.5 -60.501s15.5 -54.334 15.5 -89.001v-211
c0 -28 0.333008 -52.5 1 -73.5s2.33398 -41.5 5.00098 -61.5h-100c-2 15.333 -3.5 28.333 -4.5 39s-1.5 24 -1.5 40c-12.667 -24.667 -34.5 -45.834 -65.5 -63.501s-69.167 -26.5 -114.5 -26.5zM255 85.0029c18.667 0 36.499 2.5 53.499 7.5s31.833 12.333 44.5 22
s22.834 21.667 30.501 36s11.5 30.833 11.5 49.5v29h-145c-28 0 -50.5 -6 -67.5 -18s-25.5 -29.667 -25.5 -53c0 -22 7.83301 -39.667 23.5 -53s40.5 -20 74.5 -20zM94.999 740.003h130l110 -160h-90z" />
    <glyph glyph-name="aacute" unicode="&#xe1;" horiz-adv-x="570" 
d="M225 -11c-28.667 0 -54.167 4.16992 -76.5 12.5029s-41.166 20 -56.499 35s-27 32.5 -35 52.5s-12 42 -12 66c0 52.667 15.667 91.834 47 117.501s77.333 38.5 138 38.5h165v29c0 40 -8.83301 67.5 -26.5 82.5s-45.5 22.5 -83.5 22.5c-34 0 -59 -5.33301 -75 -16
s-25.333 -25.334 -28 -44.001h-107c1.33301 22.667 7.16602 43.5 17.499 62.5s24.666 35.5 42.999 49.5s40.5 24.833 66.5 32.5s55.333 11.5 88 11.5s62.167 -3.66699 88.5 -11s48.833 -18.833 67.5 -34.5s33.167 -35.834 43.5 -60.501s15.5 -54.334 15.5 -89.001v-211
c0 -28 0.333008 -52.5 1 -73.5s2.33398 -41.5 5.00098 -61.5h-100c-2 15.333 -3.5 28.333 -4.5 39s-1.5 24 -1.5 40c-12.667 -24.667 -34.5 -45.834 -65.5 -63.501s-69.167 -26.5 -114.5 -26.5zM255 85.0029c18.667 0 36.499 2.5 53.499 7.5s31.833 12.333 44.5 22
s22.834 21.667 30.501 36s11.5 30.833 11.5 49.5v29h-145c-28 0 -50.5 -6 -67.5 -18s-25.5 -29.667 -25.5 -53c0 -22 7.83301 -39.667 23.5 -53s40.5 -20 74.5 -20zM354.999 740.003h130l-150 -160h-90z" />
    <glyph glyph-name="acircumflex" unicode="&#xe2;" horiz-adv-x="570" 
d="M225 -11c-28.667 0 -54.167 4.16992 -76.5 12.5029s-41.166 20 -56.499 35s-27 32.5 -35 52.5s-12 42 -12 66c0 52.667 15.667 91.834 47 117.501s77.333 38.5 138 38.5h165v29c0 40 -8.83301 67.5 -26.5 82.5s-45.5 22.5 -83.5 22.5c-34 0 -59 -5.33301 -75 -16
s-25.333 -25.334 -28 -44.001h-107c1.33301 22.667 7.16602 43.5 17.499 62.5s24.666 35.5 42.999 49.5s40.5 24.833 66.5 32.5s55.333 11.5 88 11.5s62.167 -3.66699 88.5 -11s48.833 -18.833 67.5 -34.5s33.167 -35.834 43.5 -60.501s15.5 -54.334 15.5 -89.001v-211
c0 -28 0.333008 -52.5 1 -73.5s2.33398 -41.5 5.00098 -61.5h-100c-2 15.333 -3.5 28.333 -4.5 39s-1.5 24 -1.5 40c-12.667 -24.667 -34.5 -45.834 -65.5 -63.501s-69.167 -26.5 -114.5 -26.5zM255 85.0029c18.667 0 36.499 2.5 53.499 7.5s31.833 12.333 44.5 22
s22.834 21.667 30.501 36s11.5 30.833 11.5 49.5v29h-145c-28 0 -50.5 -6 -67.5 -18s-25.5 -29.667 -25.5 -53c0 -22 7.83301 -39.667 23.5 -53s40.5 -20 74.5 -20zM234.999 740.003h110l110 -160h-90l-75 80l-75 -80h-90z" />
    <glyph glyph-name="atilde" unicode="&#xe3;" horiz-adv-x="570" 
d="M225 -11c-28.667 0 -54.167 4.16992 -76.5 12.5029s-41.166 20 -56.499 35s-27 32.5 -35 52.5s-12 42 -12 66c0 52.667 15.667 91.834 47 117.501s77.333 38.5 138 38.5h165v29c0 40 -8.83301 67.5 -26.5 82.5s-45.5 22.5 -83.5 22.5c-34 0 -59 -5.33301 -75 -16
s-25.333 -25.334 -28 -44.001h-107c1.33301 22.667 7.16602 43.5 17.499 62.5s24.666 35.5 42.999 49.5s40.5 24.833 66.5 32.5s55.333 11.5 88 11.5s62.167 -3.66699 88.5 -11s48.833 -18.833 67.5 -34.5s33.167 -35.834 43.5 -60.501s15.5 -54.334 15.5 -89.001v-211
c0 -28 0.333008 -52.5 1 -73.5s2.33398 -41.5 5.00098 -61.5h-100c-2 15.333 -3.5 28.333 -4.5 39s-1.5 24 -1.5 40c-12.667 -24.667 -34.5 -45.834 -65.5 -63.501s-69.167 -26.5 -114.5 -26.5zM255 85.0029c18.667 0 36.499 2.5 53.499 7.5s31.833 12.333 44.5 22
s22.834 21.667 30.501 36s11.5 30.833 11.5 49.5v29h-145c-28 0 -50.5 -6 -67.5 -18s-25.5 -29.667 -25.5 -53c0 -22 7.83301 -39.667 23.5 -53s40.5 -20 74.5 -20zM349.999 595.003c-15.333 0 -28.5 2.33301 -39.5 7s-21 9.83398 -30 15.501l-25.5 15.5
c-8 4.66699 -16.333 7 -25 7c-7.33301 0 -13.5 -2 -18.5 -6s-9.16699 -8.66699 -12.5 -14c-3.33301 -6 -6.33301 -12.667 -9 -20l-60 25c4.66699 18.667 11.334 35.334 20.001 50.001c7.33301 12.667 17.5 24.167 30.5 34.5s29.5 15.5 49.5 15.5
c14.667 0 27.667 -2.33301 39 -7s21.5 -9.83398 30.5 -15.501l25.5 -15.5c8 -4.66699 16.333 -7 25 -7c7.33301 0 13.5 2 18.5 6s9.16699 8.66699 12.5 14c3.33301 6 6.33301 12.667 9 20l60 -25c-4.66699 -18.667 -11.334 -35.334 -20.001 -50.001
c-7.33301 -12.667 -17.5 -24.167 -30.5 -34.5s-29.5 -15.5 -49.5 -15.5z" />
    <glyph glyph-name="adieresis" unicode="&#xe4;" horiz-adv-x="570" 
d="M225 -11c-28.667 0 -54.167 4.16992 -76.5 12.5029s-41.166 20 -56.499 35s-27 32.5 -35 52.5s-12 42 -12 66c0 52.667 15.667 91.834 47 117.501s77.333 38.5 138 38.5h165v29c0 40 -8.83301 67.5 -26.5 82.5s-45.5 22.5 -83.5 22.5c-34 0 -59 -5.33301 -75 -16
s-25.333 -25.334 -28 -44.001h-107c1.33301 22.667 7.16602 43.5 17.499 62.5s24.666 35.5 42.999 49.5s40.5 24.833 66.5 32.5s55.333 11.5 88 11.5s62.167 -3.66699 88.5 -11s48.833 -18.833 67.5 -34.5s33.167 -35.834 43.5 -60.501s15.5 -54.334 15.5 -89.001v-211
c0 -28 0.333008 -52.5 1 -73.5s2.33398 -41.5 5.00098 -61.5h-100c-2 15.333 -3.5 28.333 -4.5 39s-1.5 24 -1.5 40c-12.667 -24.667 -34.5 -45.834 -65.5 -63.501s-69.167 -26.5 -114.5 -26.5zM255 85.0029c18.667 0 36.499 2.5 53.499 7.5s31.833 12.333 44.5 22
s22.834 21.667 30.501 36s11.5 30.833 11.5 49.5v29h-145c-28 0 -50.5 -6 -67.5 -18s-25.5 -29.667 -25.5 -53c0 -22 7.83301 -39.667 23.5 -53s40.5 -20 74.5 -20zM185.999 594.003c-19.333 0 -35.166 6.16699 -47.499 18.5s-18.5 28.166 -18.5 47.499
s6.16699 35.166 18.5 47.499s28.166 18.5 47.499 18.5s35.166 -6.16699 47.499 -18.5s18.5 -28.166 18.5 -47.499s-6.16699 -35.166 -18.5 -47.499s-28.166 -18.5 -47.499 -18.5zM393.999 594.003c-19.333 0 -35.166 6.16699 -47.499 18.5s-18.5 28.166 -18.5 47.499
s6.16699 35.166 18.5 47.499s28.166 18.5 47.499 18.5s35.166 -6.16699 47.499 -18.5s18.5 -28.166 18.5 -47.499s-6.16699 -35.166 -18.5 -47.499s-28.166 -18.5 -47.499 -18.5z" />
    <glyph glyph-name="aring" unicode="&#xe5;" horiz-adv-x="570" 
d="M225 -11c-28.667 0 -54.167 4.16992 -76.5 12.5029s-41.166 20 -56.499 35s-27 32.5 -35 52.5s-12 42 -12 66c0 52.667 15.667 91.834 47 117.501s77.333 38.5 138 38.5h165v29c0 40 -8.83301 67.5 -26.5 82.5s-45.5 22.5 -83.5 22.5c-34 0 -59 -5.33301 -75 -16
s-25.333 -25.334 -28 -44.001h-107c1.33301 22.667 7.16602 43.5 17.499 62.5s24.666 35.5 42.999 49.5s40.5 24.833 66.5 32.5s55.333 11.5 88 11.5s62.167 -3.66699 88.5 -11s48.833 -18.833 67.5 -34.5s33.167 -35.834 43.5 -60.501s15.5 -54.334 15.5 -89.001v-211
c0 -28 0.333008 -52.5 1 -73.5s2.33398 -41.5 5.00098 -61.5h-100c-2 15.333 -3.5 28.333 -4.5 39s-1.5 24 -1.5 40c-12.667 -24.667 -34.5 -45.834 -65.5 -63.501s-69.167 -26.5 -114.5 -26.5zM255 85.0029c18.667 0 36.499 2.5 53.499 7.5s31.833 12.333 44.5 22
s22.834 21.667 30.501 36s11.5 30.833 11.5 49.5v29h-145c-28 0 -50.5 -6 -67.5 -18s-25.5 -29.667 -25.5 -53c0 -22 7.83301 -39.667 23.5 -53s40.5 -20 74.5 -20zM289.999 570.003c-17.333 0 -33.166 2.83301 -47.499 8.5s-27 13.334 -38 23.001s-19.5 21.167 -25.5 34.5
s-9 28 -9 44s3 30.667 9 44s14.5 24.833 25.5 34.5s23.667 17.334 38 23.001s30.166 8.5 47.499 8.5c16.667 0 32.334 -2.83301 47.001 -8.5s27.5 -13.334 38.5 -23.001s19.5 -21.167 25.5 -34.5s9 -28 9 -44s-3 -30.667 -9 -44s-14.5 -24.833 -25.5 -34.5
s-23.833 -17.334 -38.5 -23.001s-30.334 -8.5 -47.001 -8.5zM289.999 638.003c12 0 22 4 30 12s12 18 12 30s-4 22 -12 30s-18 12 -30 12s-22 -4 -30 -12s-12 -18 -12 -30s4 -22 12 -30s18 -12 30 -12z" />
    <glyph glyph-name="ae" unicode="&#xe6;" horiz-adv-x="935" 
d="M225 -11c-28.667 0 -54.166 4.16699 -76.499 12.5s-41.166 20 -56.499 35s-27 32.5 -35 52.5s-12 42 -12 66c0 52.667 15.667 91.5 47 116.5s77.333 37.5 138 37.5h165v31c0 40 -8.83301 67.5 -26.5 82.5s-45.5 22.5 -83.5 22.5c-34 0 -59 -5.33301 -75 -16
s-25.333 -25.334 -28 -44.001h-107c1.33301 22.667 7.16602 43.5 17.499 62.5s24.666 35.5 42.999 49.5s40.5 24.833 66.5 32.5s55.333 11.5 88 11.5c40 0 75.5 -7.16699 106.5 -21.5s54.167 -34.5 69.5 -60.5c21.333 30 47.166 51.167 77.499 63.5
s64.166 18.5 101.499 18.5c80.667 0 142.5 -21.667 185.5 -65s64.5 -105.333 64.5 -186v-62h-388c0.666992 -26 5.16699 -48 13.5 -66s19.333 -32.667 33 -44s29.334 -19.666 47.001 -24.999s35.834 -8 54.501 -8c38 0 65.833 6 83.5 18s29.834 27.667 36.501 47h110
c-10.667 -52 -36.834 -91.833 -78.501 -119.5s-92.167 -41.5 -151.5 -41.5c-46 0 -86.833 8.66699 -122.5 26s-63.167 43 -82.5 77c-19.333 -32.667 -47.5 -58 -84.5 -76s-83.833 -27 -140.5 -27zM255.001 85c18.667 0 36.499 2.50098 53.499 7.50098
s31.833 12.167 44.5 21.5s22.834 21.166 30.501 35.499s11.5 30.833 11.5 49.5v30h-145c-28 0 -50.5 -6 -67.5 -18s-25.5 -29.667 -25.5 -53c0 -22 7.83301 -39.667 23.5 -53s40.5 -20 74.5 -20zM650 445.001c-18.667 0 -36.5 -2.33008 -53.5 -6.99707
s-32 -12.334 -45 -23.001s-23.5 -24.334 -31.5 -41.001s-12.333 -37.334 -13 -62.001h278c-0.666992 26 -4.5 47.5 -11.5 64.5s-16.5 30.5 -28.5 40.5s-26.167 17.167 -42.5 21.5s-33.833 6.5 -52.5 6.5z" />
    <glyph glyph-name="ccedilla" unicode="&#xe7;" horiz-adv-x="555" 
d="M290 -11c-36 0 -69.168 5.49609 -99.501 16.4961s-56.666 27.833 -78.999 50.5s-39.833 51 -52.5 85s-19 73.667 -19 119v20c0 42.667 6.66699 80.334 20 113.001s31.5 60 54.5 82s49.667 38.5 80 49.5s62.166 16.5 95.499 16.5c34.667 0 65.5 -4.66699 92.5 -14
s50 -22.166 69 -38.499s34.167 -35.5 45.5 -57.5s19 -45.667 23 -71h-112c-6.66699 24.667 -18.667 45 -36 61s-44.666 24 -81.999 24c-18.667 0 -36.334 -3.16699 -53.001 -9.5s-31.334 -16.166 -44.001 -29.499s-22.667 -30.5 -30 -51.5s-11 -45.833 -11 -74.5v-20
c0 -31.333 3.66699 -58.166 11 -80.499s17.333 -40.5 30 -54.5s27.334 -24.167 44.001 -30.5s34.334 -9.5 53.001 -9.5c62 0 101.333 28.333 118 85h112c-5.33301 -28 -14.5 -53.167 -27.5 -75.5s-29.5 -41.333 -49.5 -57s-43 -27.667 -69 -36s-54 -12.5 -84 -12.5z
M259.999 -211.004c-21.333 0 -37.334 1 -48.001 3c-6.66699 1.33301 -12.334 2.66602 -17.001 3.99902v66c4 -0.666992 8.66699 -1.33398 14 -2.00098c4.66699 -0.666992 10 -1.16699 16 -1.5s12.667 -0.5 20 -0.5c18.667 0 31.334 3.33301 38.001 10s10 13.667 10 21
c0 8.66699 -3.33301 16 -10 22s-20.667 9 -42 9l17 90h68l-7 -47c26.667 -6 44.334 -16.667 53.001 -32s13 -30.666 13 -45.999c0 -29.333 -9.83301 -52.666 -29.5 -69.999s-51.5 -26 -95.5 -26z" />
    <glyph glyph-name="egrave" unicode="&#xe8;" horiz-adv-x="580" 
d="M300 -11c-35.333 0 -68.6689 5.49805 -100.002 16.498s-58.833 27.667 -82.5 50s-42.5 50.5 -56.5 84.5s-21 74 -21 120v20c0 44 6.66699 82.333 20 115s31.5 59.834 54.5 81.501s49.5 37.834 79.5 48.501s62 16 96 16c80.667 0 142.5 -21.667 185.5 -65
s64.5 -105.333 64.5 -186v-56h-388c0.666992 -27.333 5.16699 -50.5 13.5 -69.5s19.333 -34.333 33 -46s29.334 -20.167 47.001 -25.5s35.834 -8 54.501 -8c38 0 65.833 6 83.5 18s29.834 27.667 36.501 47h110c-10.667 -52.667 -36.834 -92.667 -78.501 -120
s-92.167 -41 -151.5 -41zM294.997 444.998c-18.667 0 -36.5 -2.33594 -53.5 -7.00293s-32 -12.167 -45 -22.5s-23.5 -23.666 -31.5 -39.999s-12.333 -36.166 -13 -59.499h278c-0.666992 24.667 -4.5 45.334 -11.5 62.001s-16.5 30 -28.5 40s-26.167 17 -42.5 21
s-33.833 6 -52.5 6zM94.9971 739.995h130l110 -160h-90z" />
    <glyph glyph-name="eacute" unicode="&#xe9;" horiz-adv-x="580" 
d="M300 -11c-35.333 0 -68.6689 5.49805 -100.002 16.498s-58.833 27.667 -82.5 50s-42.5 50.5 -56.5 84.5s-21 74 -21 120v20c0 44 6.66699 82.333 20 115s31.5 59.834 54.5 81.501s49.5 37.834 79.5 48.501s62 16 96 16c80.667 0 142.5 -21.667 185.5 -65
s64.5 -105.333 64.5 -186v-56h-388c0.666992 -27.333 5.16699 -50.5 13.5 -69.5s19.333 -34.333 33 -46s29.334 -20.167 47.001 -25.5s35.834 -8 54.501 -8c38 0 65.833 6 83.5 18s29.834 27.667 36.501 47h110c-10.667 -52.667 -36.834 -92.667 -78.501 -120
s-92.167 -41 -151.5 -41zM294.997 444.998c-18.667 0 -36.5 -2.33594 -53.5 -7.00293s-32 -12.167 -45 -22.5s-23.5 -23.666 -31.5 -39.999s-12.333 -36.166 -13 -59.499h278c-0.666992 24.667 -4.5 45.334 -11.5 62.001s-16.5 30 -28.5 40s-26.167 17 -42.5 21
s-33.833 6 -52.5 6zM354.997 739.995h130l-150 -160h-90z" />
    <glyph glyph-name="ecircumflex" unicode="&#xea;" horiz-adv-x="580" 
d="M300 -11c-35.333 0 -68.6689 5.49805 -100.002 16.498s-58.833 27.667 -82.5 50s-42.5 50.5 -56.5 84.5s-21 74 -21 120v20c0 44 6.66699 82.333 20 115s31.5 59.834 54.5 81.501s49.5 37.834 79.5 48.501s62 16 96 16c80.667 0 142.5 -21.667 185.5 -65
s64.5 -105.333 64.5 -186v-56h-388c0.666992 -27.333 5.16699 -50.5 13.5 -69.5s19.333 -34.333 33 -46s29.334 -20.167 47.001 -25.5s35.834 -8 54.501 -8c38 0 65.833 6 83.5 18s29.834 27.667 36.501 47h110c-10.667 -52.667 -36.834 -92.667 -78.501 -120
s-92.167 -41 -151.5 -41zM294.997 444.998c-18.667 0 -36.5 -2.33594 -53.5 -7.00293s-32 -12.167 -45 -22.5s-23.5 -23.666 -31.5 -39.999s-12.333 -36.166 -13 -59.499h278c-0.666992 24.667 -4.5 45.334 -11.5 62.001s-16.5 30 -28.5 40s-26.167 17 -42.5 21
s-33.833 6 -52.5 6zM234.997 739.995h110l110 -160h-90l-75 80l-75 -80h-90z" />
    <glyph glyph-name="edieresis" unicode="&#xeb;" horiz-adv-x="580" 
d="M300 -11c-35.333 0 -68.6689 5.49805 -100.002 16.498s-58.833 27.667 -82.5 50s-42.5 50.5 -56.5 84.5s-21 74 -21 120v20c0 44 6.66699 82.333 20 115s31.5 59.834 54.5 81.501s49.5 37.834 79.5 48.501s62 16 96 16c80.667 0 142.5 -21.667 185.5 -65
s64.5 -105.333 64.5 -186v-56h-388c0.666992 -27.333 5.16699 -50.5 13.5 -69.5s19.333 -34.333 33 -46s29.334 -20.167 47.001 -25.5s35.834 -8 54.501 -8c38 0 65.833 6 83.5 18s29.834 27.667 36.501 47h110c-10.667 -52.667 -36.834 -92.667 -78.501 -120
s-92.167 -41 -151.5 -41zM294.997 444.998c-18.667 0 -36.5 -2.33594 -53.5 -7.00293s-32 -12.167 -45 -22.5s-23.5 -23.666 -31.5 -39.999s-12.333 -36.166 -13 -59.499h278c-0.666992 24.667 -4.5 45.334 -11.5 62.001s-16.5 30 -28.5 40s-26.167 17 -42.5 21
s-33.833 6 -52.5 6zM185.997 593.995c-19.333 0 -35.166 6.16699 -47.499 18.5s-18.5 28.166 -18.5 47.499s6.16699 35.166 18.5 47.499s28.166 18.5 47.499 18.5s35.166 -6.16699 47.499 -18.5s18.5 -28.166 18.5 -47.499s-6.16699 -35.166 -18.5 -47.499
s-28.166 -18.5 -47.499 -18.5zM393.997 593.995c-19.333 0 -35.166 6.16699 -47.499 18.5s-18.5 28.166 -18.5 47.499s6.16699 35.166 18.5 47.499s28.166 18.5 47.499 18.5s35.166 -6.16699 47.499 -18.5s18.5 -28.166 18.5 -47.499s-6.16699 -35.166 -18.5 -47.499
s-28.166 -18.5 -47.499 -18.5z" />
    <glyph glyph-name="igrave" unicode="&#xec;" horiz-adv-x="270" 
d="M80 530h110v-530h-110v530zM-59 740h130l110 -160h-90z" />
    <glyph glyph-name="iacute" unicode="&#xed;" horiz-adv-x="270" 
d="M80 530h110v-530h-110v530zM200 740h130l-150 -160h-90z" />
    <glyph glyph-name="icircumflex" unicode="&#xee;" horiz-adv-x="270" 
d="M80 530h110v-530h-110v530zM81 740h110l110 -160h-90l-75 80l-75 -80h-90z" />
    <glyph glyph-name="idieresis" unicode="&#xef;" horiz-adv-x="270" 
d="M80 530h110v-530h-110v530zM32 594c-19.333 0 -35.166 6.16699 -47.499 18.5s-18.5 28.166 -18.5 47.499s6.16699 35.166 18.5 47.499s28.166 18.5 47.499 18.5s35.166 -6.16699 47.499 -18.5s18.5 -28.166 18.5 -47.499s-6.16699 -35.166 -18.5 -47.499
s-28.166 -18.5 -47.499 -18.5zM240 594c-19.333 0 -35.166 6.16699 -47.499 18.5s-18.5 28.166 -18.5 47.499s6.16699 35.166 18.5 47.499s28.166 18.5 47.499 18.5s35.166 -6.16699 47.499 -18.5s18.5 -28.166 18.5 -47.499s-6.16699 -35.166 -18.5 -47.499
s-28.166 -18.5 -47.499 -18.5z" />
    <glyph glyph-name="eth" unicode="&#xf0;" horiz-adv-x="605" 
d="M300 -11c-34 0 -66.6699 5.50195 -98.0029 16.502s-59 27.5 -83 49.5s-43.167 49.167 -57.5 81.5s-21.5 70.166 -21.5 113.499v20c0 40.667 7.16699 76.5 21.5 107.5s32.833 57.167 55.5 78.5s48.334 37.5 77.001 48.5s57.334 16.5 86.001 16.5
c27.333 0 52.666 -3.33301 75.999 -10s44.666 -16.667 63.999 -30c-15.333 31.333 -34.666 57.666 -57.999 78.999s-51.666 39.666 -84.999 54.999l-25 -47l-53 24l23 45c-23.333 8.66699 -47.666 16.334 -72.999 23.001l28 87l46 -14c14.667 -4.66699 29 -9.66699 43 -15
l24 45l53 -24l-24 -44c44 -21.333 81.333 -45.5 112 -72.5s55.5 -57.167 74.5 -90.5s32.833 -70 41.5 -110s13 -84 13 -132v-20c0 -48 -7.16699 -89.667 -21.5 -125s-33.5 -64.5 -57.5 -87.5s-51.667 -40.167 -83 -51.5s-64 -17 -98 -17zM299.997 85.002
c20 0 39 3.33301 57 10s33.833 16.834 47.5 30.501s24.334 30.834 32.001 51.501s11.5 45 11.5 73v20c0 25.333 -3.83301 47.666 -11.5 66.999s-18.334 35.5 -32.001 48.5s-29.5 22.833 -47.5 29.5s-37 10 -57 10s-39 -3.33301 -57 -10s-33.833 -16.5 -47.5 -29.5
s-24.334 -29.167 -32.001 -48.5s-11.5 -41.666 -11.5 -66.999v-20c0 -28 3.83301 -52.333 11.5 -73s18.334 -37.834 32.001 -51.501s29.5 -23.834 47.5 -30.501s37 -10 57 -10z" />
    <glyph glyph-name="ntilde" unicode="&#xf1;" horiz-adv-x="605" 
d="M70 530l101.997 -0.00292969v-89c12.667 26.667 33.334 50 62.001 70s65.667 30 111 30c64.667 0 113.334 -17.5 146.001 -52.5s49 -86.167 49 -153.5v-335h-110v310c0 44.667 -9.33301 78.334 -28 101.001s-49.334 34 -92.001 34
c-23.333 0 -43.166 -3.83301 -59.499 -11.5s-29.666 -17.667 -39.999 -30s-18 -26.666 -23 -42.999s-7.5 -33.166 -7.5 -50.499v-310h-110v530zM364.997 594.997c-15.333 0 -28.5 2.33301 -39.5 7s-21 9.83398 -30 15.501l-25.5 15.5c-8 4.66699 -16.333 7 -25 7
c-7.33301 0 -13.5 -2 -18.5 -6s-9.16699 -8.66699 -12.5 -14c-3.33301 -6 -6.33301 -12.667 -9 -20l-60 25c4.66699 18.667 11.334 35.334 20.001 50.001c7.33301 12.667 17.5 24.167 30.5 34.5s29.5 15.5 49.5 15.5c14.667 0 27.667 -2.33301 39 -7
s21.5 -9.83398 30.5 -15.501l25.5 -15.5c8 -4.66699 16.333 -7 25 -7c7.33301 0 13.5 2 18.5 6s9.16699 8.66699 12.5 14c3.33301 6 6.33301 12.667 9 20l60 -25c-4.66699 -18.667 -11.334 -35.334 -20.001 -50.001c-7.33301 -12.667 -17.5 -24.167 -30.5 -34.5
s-29.5 -15.5 -49.5 -15.5z" />
    <glyph glyph-name="ograve" unicode="&#xf2;" horiz-adv-x="600" 
d="M300 -11c-36.667 0 -70.834 5.83301 -102.501 17.5s-59.167 28.834 -82.5 51.501s-41.666 50.834 -54.999 84.501s-20 72.834 -20 117.501v20c0 42 6.66699 79.167 20 111.5s31.666 59.666 54.999 81.999s50.833 39.166 82.5 50.499s65.834 17 102.501 17
s70.834 -5.66699 102.501 -17s59.167 -28.166 82.5 -50.499s41.666 -49.666 54.999 -81.999s20 -69.5 20 -111.5v-20c0 -44.667 -6.66699 -83.834 -20 -117.501s-31.666 -61.834 -54.999 -84.501s-50.833 -39.834 -82.5 -51.501s-65.834 -17.5 -102.501 -17.5zM300 85
c19.333 0 37.833 3.33301 55.5 10s33.334 17 47.001 31s24.667 32 33 54s12.5 48.667 12.5 80v20c0 28.667 -4.16699 53.334 -12.5 74.001s-19.333 37.667 -33 51s-29.334 23.333 -47.001 30s-36.167 10 -55.5 10s-37.833 -3.33301 -55.5 -10s-33.334 -16.667 -47.001 -30
s-24.667 -30.333 -33 -51s-12.5 -45.334 -12.5 -74.001v-20c0 -31.333 4.16699 -58 12.5 -80s19.333 -40 33 -54s29.334 -24.333 47.001 -31s36.167 -10 55.5 -10zM105 740h130l110 -160h-90z" />
    <glyph glyph-name="oacute" unicode="&#xf3;" horiz-adv-x="600" 
d="M300 -11c-36.667 0 -70.834 5.83301 -102.501 17.5s-59.167 28.834 -82.5 51.501s-41.666 50.834 -54.999 84.501s-20 72.834 -20 117.501v20c0 42 6.66699 79.167 20 111.5s31.666 59.666 54.999 81.999s50.833 39.166 82.5 50.499s65.834 17 102.501 17
s70.834 -5.66699 102.501 -17s59.167 -28.166 82.5 -50.499s41.666 -49.666 54.999 -81.999s20 -69.5 20 -111.5v-20c0 -44.667 -6.66699 -83.834 -20 -117.501s-31.666 -61.834 -54.999 -84.501s-50.833 -39.834 -82.5 -51.501s-65.834 -17.5 -102.501 -17.5zM300 85
c19.333 0 37.833 3.33301 55.5 10s33.334 17 47.001 31s24.667 32 33 54s12.5 48.667 12.5 80v20c0 28.667 -4.16699 53.334 -12.5 74.001s-19.333 37.667 -33 51s-29.334 23.333 -47.001 30s-36.167 10 -55.5 10s-37.833 -3.33301 -55.5 -10s-33.334 -16.667 -47.001 -30
s-24.667 -30.333 -33 -51s-12.5 -45.334 -12.5 -74.001v-20c0 -31.333 4.16699 -58 12.5 -80s19.333 -40 33 -54s29.334 -24.333 47.001 -31s36.167 -10 55.5 -10zM365 740h130l-150 -160h-90z" />
    <glyph glyph-name="ocircumflex" unicode="&#xf4;" horiz-adv-x="600" 
d="M300 -11c-36.667 0 -70.834 5.83301 -102.501 17.5s-59.167 28.834 -82.5 51.501s-41.666 50.834 -54.999 84.501s-20 72.834 -20 117.501v20c0 42 6.66699 79.167 20 111.5s31.666 59.666 54.999 81.999s50.833 39.166 82.5 50.499s65.834 17 102.501 17
s70.834 -5.66699 102.501 -17s59.167 -28.166 82.5 -50.499s41.666 -49.666 54.999 -81.999s20 -69.5 20 -111.5v-20c0 -44.667 -6.66699 -83.834 -20 -117.501s-31.666 -61.834 -54.999 -84.501s-50.833 -39.834 -82.5 -51.501s-65.834 -17.5 -102.501 -17.5zM300 85
c19.333 0 37.833 3.33301 55.5 10s33.334 17 47.001 31s24.667 32 33 54s12.5 48.667 12.5 80v20c0 28.667 -4.16699 53.334 -12.5 74.001s-19.333 37.667 -33 51s-29.334 23.333 -47.001 30s-36.167 10 -55.5 10s-37.833 -3.33301 -55.5 -10s-33.334 -16.667 -47.001 -30
s-24.667 -30.333 -33 -51s-12.5 -45.334 -12.5 -74.001v-20c0 -31.333 4.16699 -58 12.5 -80s19.333 -40 33 -54s29.334 -24.333 47.001 -31s36.167 -10 55.5 -10zM245 740h110l110 -160h-90l-75 80l-75 -80h-90z" />
    <glyph glyph-name="otilde" unicode="&#xf5;" horiz-adv-x="600" 
d="M300 -11c-36.667 0 -70.834 5.83301 -102.501 17.5s-59.167 28.834 -82.5 51.501s-41.666 50.834 -54.999 84.501s-20 72.834 -20 117.501v20c0 42 6.66699 79.167 20 111.5s31.666 59.666 54.999 81.999s50.833 39.166 82.5 50.499s65.834 17 102.501 17
s70.834 -5.66699 102.501 -17s59.167 -28.166 82.5 -50.499s41.666 -49.666 54.999 -81.999s20 -69.5 20 -111.5v-20c0 -44.667 -6.66699 -83.834 -20 -117.501s-31.666 -61.834 -54.999 -84.501s-50.833 -39.834 -82.5 -51.501s-65.834 -17.5 -102.501 -17.5zM300 85
c19.333 0 37.833 3.33301 55.5 10s33.334 17 47.001 31s24.667 32 33 54s12.5 48.667 12.5 80v20c0 28.667 -4.16699 53.334 -12.5 74.001s-19.333 37.667 -33 51s-29.334 23.333 -47.001 30s-36.167 10 -55.5 10s-37.833 -3.33301 -55.5 -10s-33.334 -16.667 -47.001 -30
s-24.667 -30.333 -33 -51s-12.5 -45.334 -12.5 -74.001v-20c0 -31.333 4.16699 -58 12.5 -80s19.333 -40 33 -54s29.334 -24.333 47.001 -31s36.167 -10 55.5 -10zM360 595c-15.333 0 -28.5 2.33301 -39.5 7s-21 9.83398 -30 15.501l-25.5 15.5c-8 4.66699 -16.333 7 -25 7
c-7.33301 0 -13.5 -2 -18.5 -6s-9.16699 -8.66699 -12.5 -14c-3.33301 -6 -6.33301 -12.667 -9 -20l-60 25c4.66699 18.667 11.334 35.334 20.001 50.001c7.33301 12.667 17.5 24.167 30.5 34.5s29.5 15.5 49.5 15.5c14.667 0 27.667 -2.33301 39 -7
s21.5 -9.83398 30.5 -15.501l25.5 -15.5c8 -4.66699 16.333 -7 25 -7c7.33301 0 13.5 2 18.5 6s9.16699 8.66699 12.5 14c3.33301 6 6.33301 12.667 9 20l60 -25c-4.66699 -18.667 -11.334 -35.334 -20.001 -50.001c-7.33301 -12.667 -17.5 -24.167 -30.5 -34.5
s-29.5 -15.5 -49.5 -15.5z" />
    <glyph glyph-name="odieresis" unicode="&#xf6;" horiz-adv-x="600" 
d="M300 -11c-36.667 0 -70.834 5.83301 -102.501 17.5s-59.167 28.834 -82.5 51.501s-41.666 50.834 -54.999 84.501s-20 72.834 -20 117.501v20c0 42 6.66699 79.167 20 111.5s31.666 59.666 54.999 81.999s50.833 39.166 82.5 50.499s65.834 17 102.501 17
s70.834 -5.66699 102.501 -17s59.167 -28.166 82.5 -50.499s41.666 -49.666 54.999 -81.999s20 -69.5 20 -111.5v-20c0 -44.667 -6.66699 -83.834 -20 -117.501s-31.666 -61.834 -54.999 -84.501s-50.833 -39.834 -82.5 -51.501s-65.834 -17.5 -102.501 -17.5zM300 85
c19.333 0 37.833 3.33301 55.5 10s33.334 17 47.001 31s24.667 32 33 54s12.5 48.667 12.5 80v20c0 28.667 -4.16699 53.334 -12.5 74.001s-19.333 37.667 -33 51s-29.334 23.333 -47.001 30s-36.167 10 -55.5 10s-37.833 -3.33301 -55.5 -10s-33.334 -16.667 -47.001 -30
s-24.667 -30.333 -33 -51s-12.5 -45.334 -12.5 -74.001v-20c0 -31.333 4.16699 -58 12.5 -80s19.333 -40 33 -54s29.334 -24.333 47.001 -31s36.167 -10 55.5 -10zM196 594c-19.333 0 -35.166 6.16699 -47.499 18.5s-18.5 28.166 -18.5 47.499s6.16699 35.166 18.5 47.499
s28.166 18.5 47.499 18.5s35.166 -6.16699 47.499 -18.5s18.5 -28.166 18.5 -47.499s-6.16699 -35.166 -18.5 -47.499s-28.166 -18.5 -47.499 -18.5zM404 594c-19.333 0 -35.166 6.16699 -47.499 18.5s-18.5 28.166 -18.5 47.499s6.16699 35.166 18.5 47.499
s28.166 18.5 47.499 18.5s35.166 -6.16699 47.499 -18.5s18.5 -28.166 18.5 -47.499s-6.16699 -35.166 -18.5 -47.499s-28.166 -18.5 -47.499 -18.5z" />
    <glyph glyph-name="divide" unicode="&#xf7;" horiz-adv-x="560" 
d="M45 412h470v-104h-470v104zM280 88c-22.667 0 -41.667 7.66699 -57 23s-23 34.333 -23 57c0 23.333 7.66699 42.5 23 57.5s34.333 22.5 57 22.5s41.667 -7.5 57 -22.5s23 -34.167 23 -57.5c0 -22.667 -7.66699 -41.667 -23 -57s-34.333 -23 -57 -23zM280 472
c-22.667 0 -41.667 7.66699 -57 23s-23 34.333 -23 57c0 23.333 7.66699 42.5 23 57.5s34.333 22.5 57 22.5s41.667 -7.5 57 -22.5s23 -34.167 23 -57.5c0 -22.667 -7.66699 -41.667 -23 -57s-34.333 -23 -57 -23z" />
    <glyph glyph-name="oslash" unicode="&#xf8;" horiz-adv-x="600" 
d="M300 -11c-61.333 0 -113.333 15.0049 -156 45.0049l-38 -45l-46 40l39 46c-18.667 22 -33.167 48.333 -43.5 79s-15.5 66 -15.5 106v20c0 42 6.66699 79.167 20 111.5s31.666 59.666 54.999 81.999s50.833 39.166 82.5 50.499s65.834 17 102.501 17
c60.667 0 112.667 -15 156 -45l38 45l46 -40l-39 -45c18.667 -22 33.167 -47.667 43.5 -77s15.5 -62.333 15.5 -99v-20c0 -44.667 -6.66699 -83.834 -20 -117.501s-31.666 -61.834 -54.999 -84.501s-50.833 -39.834 -82.5 -51.501s-65.834 -17.5 -102.501 -17.5z
M300 85.0049c19.333 0 37.832 3.33301 55.499 10s33.334 17 47.001 31s24.667 32 33 54s12.5 48.667 12.5 80v20c0 18 -1.83301 34.333 -5.5 49s-8.5 28 -14.5 40l-217 -256c13.333 -9.33301 27.5 -16.333 42.5 -21s30.5 -7 46.5 -7zM299.999 445.005
c-19.333 0 -37.832 -3.33203 -55.499 -9.99902s-33.334 -16.667 -47.001 -30s-24.667 -30.333 -33 -51s-12.5 -45.334 -12.5 -74.001v-20c0 -39.333 6.66699 -72.333 20 -99l217 256c-13.333 9.33301 -27.5 16.333 -42.5 21s-30.5 7 -46.5 7z" />
    <glyph glyph-name="ugrave" unicode="&#xf9;" horiz-adv-x="595" 
d="M255 -11c-62.667 0 -110 18.1689 -142 54.502s-48 91.833 -48 166.5v320h110v-310c0 -44.667 9.16699 -78.334 27.5 -101.001s47.5 -34 87.5 -34c22 0 40.833 3.66699 56.5 11s28.5 17.333 38.5 30s17.5 27.167 22.5 43.5s7.5 33.166 7.5 50.499v310h110v-530h-102v90
c-12.667 -27.333 -33.167 -51 -61.5 -71s-63.833 -30 -106.5 -30zM100 740.002h130l110 -160h-90z" />
    <glyph glyph-name="uacute" unicode="&#xfa;" horiz-adv-x="595" 
d="M255 -11c-62.667 0 -110 18.1689 -142 54.502s-48 91.833 -48 166.5v320h110v-310c0 -44.667 9.16699 -78.334 27.5 -101.001s47.5 -34 87.5 -34c22 0 40.833 3.66699 56.5 11s28.5 17.333 38.5 30s17.5 27.167 22.5 43.5s7.5 33.166 7.5 50.499v310h110v-530h-102v90
c-12.667 -27.333 -33.167 -51 -61.5 -71s-63.833 -30 -106.5 -30zM360 740.002h130l-150 -160h-90z" />
    <glyph glyph-name="ucircumflex" unicode="&#xfb;" horiz-adv-x="595" 
d="M255 -11c-62.667 0 -110 18.1689 -142 54.502s-48 91.833 -48 166.5v320h110v-310c0 -44.667 9.16699 -78.334 27.5 -101.001s47.5 -34 87.5 -34c22 0 40.833 3.66699 56.5 11s28.5 17.333 38.5 30s17.5 27.167 22.5 43.5s7.5 33.166 7.5 50.499v310h110v-530h-102v90
c-12.667 -27.333 -33.167 -51 -61.5 -71s-63.833 -30 -106.5 -30zM240 740.002h110l110 -160h-90l-75 80l-75 -80h-90z" />
    <glyph glyph-name="udieresis" unicode="&#xfc;" horiz-adv-x="595" 
d="M255 -11c-62.667 0 -110 18.1689 -142 54.502s-48 91.833 -48 166.5v320h110v-310c0 -44.667 9.16699 -78.334 27.5 -101.001s47.5 -34 87.5 -34c22 0 40.833 3.66699 56.5 11s28.5 17.333 38.5 30s17.5 27.167 22.5 43.5s7.5 33.166 7.5 50.499v310h110v-530h-102v90
c-12.667 -27.333 -33.167 -51 -61.5 -71s-63.833 -30 -106.5 -30zM191 594.002c-19.333 0 -35.166 6.16699 -47.499 18.5s-18.5 28.166 -18.5 47.499s6.16699 35.166 18.5 47.499s28.166 18.5 47.499 18.5s35.166 -6.16699 47.499 -18.5s18.5 -28.166 18.5 -47.499
s-6.16699 -35.166 -18.5 -47.499s-28.166 -18.5 -47.499 -18.5zM399 594.002c-19.333 0 -35.166 6.16699 -47.499 18.5s-18.5 28.166 -18.5 47.499s6.16699 35.166 18.5 47.499s28.166 18.5 47.499 18.5s35.166 -6.16699 47.499 -18.5s18.5 -28.166 18.5 -47.499
s-6.16699 -35.166 -18.5 -47.499s-28.166 -18.5 -47.499 -18.5z" />
    <glyph glyph-name="yacute" unicode="&#xfd;" horiz-adv-x="580" 
d="M155 -211c-10 0 -19.998 1 -29.998 3v96c10 -2 20 -3 30 -3c11.333 0 20.833 1.83301 28.5 5.5s14.667 10 21 19s12.666 20.833 18.999 35.5s13.5 33 21.5 55l-225 530h120l162 -410l146 410h112l-205 -530c-14.667 -37.333 -28.334 -69.333 -41.001 -96
s-26.5 -48.5 -41.5 -65.5s-31.833 -29.5 -50.5 -37.5s-41 -12 -67 -12zM359.002 740h130l-150 -160h-90z" />
    <glyph glyph-name="thorn" unicode="&#xfe;" horiz-adv-x="615" 
d="M70 700l110 -0.00195312v-254c16.667 27.333 39.5 50 68.5 68s63.5 27 103.5 27c68.667 0 123 -21.667 163 -65s60 -108.666 60 -195.999v-20c0 -45.333 -5.33301 -85 -16 -119s-25.834 -62.167 -45.501 -84.5s-43.167 -39.166 -70.5 -50.499s-58 -17 -92 -17
c-38 0 -72.667 8.33301 -104 25s-53.666 39.667 -66.999 69v-283h-110v900zM326 84.998c40.667 0 73.667 14.334 99 43.001s38 72.667 38 132v20c0 56 -12.333 97.5 -37 124.5s-58 40.5 -100 40.5c-43.333 0 -78.5 -13 -105.5 -39s-40.5 -59.667 -40.5 -101v-70
c0 -25.333 4 -47.333 12 -66s18.667 -34.334 32 -47.001s28.833 -22 46.5 -28s36.167 -9 55.5 -9z" />
    <glyph glyph-name="ydieresis" unicode="&#xff;" horiz-adv-x="580" 
d="M155 -211c-10 0 -19.998 1 -29.998 3v96c10 -2 20 -3 30 -3c11.333 0 20.833 1.83301 28.5 5.5s14.667 10 21 19s12.666 20.833 18.999 35.5s13.5 33 21.5 55l-225 530h120l162 -410l146 410h112l-205 -530c-14.667 -37.333 -28.334 -69.333 -41.001 -96
s-26.5 -48.5 -41.5 -65.5s-31.833 -29.5 -50.5 -37.5s-41 -12 -67 -12zM190.002 594c-19.333 0 -35.166 6.16699 -47.499 18.5s-18.5 28.166 -18.5 47.499s6.16699 35.166 18.5 47.499s28.166 18.5 47.499 18.5s35.166 -6.16699 47.499 -18.5s18.5 -28.166 18.5 -47.499
s-6.16699 -35.166 -18.5 -47.499s-28.166 -18.5 -47.499 -18.5zM398.002 594c-19.333 0 -35.166 6.16699 -47.499 18.5s-18.5 28.166 -18.5 47.499s6.16699 35.166 18.5 47.499s28.166 18.5 47.499 18.5s35.166 -6.16699 47.499 -18.5s18.5 -28.166 18.5 -47.499
s-6.16699 -35.166 -18.5 -47.499s-28.166 -18.5 -47.499 -18.5z" />
    <glyph glyph-name="dotlessi" unicode="&#x131;" horiz-adv-x="270" 
d="M80 530h110v-530h-110v530z" />
    <glyph glyph-name="Lslash" unicode="&#x141;" horiz-adv-x="600" 
d="M120 249l-100 -58v104l100 58v347h120v-278l170 98v-104l-170 -98v-214h340v-104h-460v249z" />
    <glyph glyph-name="lslash" unicode="&#x142;" horiz-adv-x="355" 
d="M265 -5c-28.667 0 -53.3311 2.99902 -73.998 8.99902s-37.834 15.833 -51.501 29.5s-23.667 31.667 -30 54s-9.5 49.5 -9.5 81.5v151l-80 -46v94l80 46v286h110v-223l110 64v-94l-110 -64v-206c0 -32.667 5.33301 -55.167 16 -67.5s30.334 -18.5 59.001 -18.5
c7.33301 0 13.666 0.166992 18.999 0.5s10.666 0.833008 15.999 1.5v-95c-5.33301 -1.33301 -14 -2.16602 -26 -2.49902s-21.667 -0.5 -29 -0.5z" />
    <glyph glyph-name="OE" unicode="&#x152;" horiz-adv-x="1100" 
d="M375 -11c-42.667 0 -83.334 6.66797 -122.001 20.001s-72.667 34.166 -102 62.499s-52.666 65 -69.999 110s-26 99.5 -26 163.5v20c0 61.333 8.66699 113.833 26 157.5s40.666 79.5 69.999 107.5s63.333 48.5 102 61.5s79.334 19.5 122.001 19.5
c38 0 74.167 -5.66699 108.5 -17s64.833 -31 91.5 -59v65h470v-104h-350v-184h320v-104h-320v-204h350v-104h-470v65c-26.667 -28 -57.167 -47.667 -91.5 -59s-70.5 -17 -108.5 -17zM375 95.001c24.667 0 48.834 4.33398 72.501 13.001s44.5 23 62.5 43
s32.5 45.833 43.5 77.5s16.5 70.5 16.5 116.5v20c0 43.333 -5.5 80.333 -16.5 111s-25.5 55.5 -43.5 74.5s-38.833 32.833 -62.5 41.5s-47.834 13 -72.501 13c-25.333 0 -49.666 -4.33301 -72.999 -13s-44 -22.5 -62 -41.5s-32.333 -43.667 -43 -74s-16 -67.5 -16 -111.5
v-20c0 -46 5.33301 -85 16 -117s25 -57.833 43 -77.5s38.667 -33.834 62 -42.501s47.666 -13 72.999 -13z" />
    <glyph glyph-name="oe" unicode="&#x153;" horiz-adv-x="990" 
d="M300 -11c-36.667 0 -70.8369 5.83008 -102.504 17.4971s-59.167 28.834 -82.5 51.501s-41.666 50.834 -54.999 84.501s-20 72.834 -20 117.501v20c0 42 6.66699 79.167 20 111.5s31.666 59.666 54.999 81.999s50.833 39.166 82.5 50.499s65.834 17 102.501 17
c44 0 83.5 -8.16699 118.5 -24.5s63.5 -40.166 85.5 -71.499c21.333 32 49 56 83 72s71.667 24 113 24c80.667 0 142.5 -21.667 185.5 -65s64.5 -105.333 64.5 -186v-56h-388c0.666992 -27.333 5.16699 -50.5 13.5 -69.5s19.333 -34.333 33 -46s29.334 -20.167 47.001 -25.5
s35.834 -8 54.501 -8c38 0 65.833 6 83.5 18s29.834 27.667 36.501 47h110c-10.667 -52.667 -36.834 -92.667 -78.501 -120s-92.167 -41 -151.5 -41c-43.333 0 -82.666 8 -117.999 24s-64.333 41 -87 75c-22 -33.333 -50.667 -58.166 -86 -74.499s-75 -24.5 -119 -24.5z
M299.997 84.9971c19.333 0 37.833 3.33301 55.5 10s33.334 17 47.001 31s24.667 32 33 54s12.5 48.667 12.5 80v20c0 28.667 -4.16699 53.334 -12.5 74.001s-19.333 37.667 -33 51s-29.334 23.333 -47.001 30s-36.167 10 -55.5 10s-37.833 -3.33301 -55.5 -10
s-33.334 -16.667 -47.001 -30s-24.667 -30.333 -33 -51s-12.5 -45.334 -12.5 -74.001v-20c0 -31.333 4.16699 -58 12.5 -80s19.333 -40 33 -54s29.334 -24.333 47.001 -31s36.167 -10 55.5 -10zM704.997 444.997c-18.667 0 -36.5 -2.33594 -53.5 -7.00293
s-32 -12.167 -45 -22.5s-23.5 -23.666 -31.5 -39.999s-12.333 -36.166 -13 -59.499h278c-0.666992 24.667 -4.5 45.334 -11.5 62.001s-16.5 30 -28.5 40s-26.167 17 -42.5 21s-33.833 6 -52.5 6z" />
    <glyph glyph-name="Scaron" unicode="&#x160;" horiz-adv-x="650" 
d="M325 -11c-45.333 0 -84.668 5.00293 -118.001 15.0029s-61.166 24 -83.499 42s-39.5 39.167 -51.5 63.5s-19.333 51.166 -22 80.499h120c2.66699 -14 7.16699 -26.667 13.5 -38s15.5 -21.333 27.5 -30s27.167 -15.334 45.5 -20.001s41.166 -7 68.499 -7
c28 0 51.833 2.5 71.5 7.5s35.667 11.667 48 20s21.333 18.333 27 30s8.5 24.167 8.5 37.5c0 32.667 -15.167 57.334 -45.5 74.001s-77.5 31.667 -141.5 45c-36 8 -68 17.5 -96 28.5s-51.333 24.667 -70 41s-32.834 36 -42.501 59s-14.5 50.5 -14.5 82.5
c0 26 5.5 50.667 16.5 74s27.167 43.666 48.5 60.999s47.833 31 79.5 41s68.5 15 110.5 15c40.667 0 76.334 -4.66699 107.001 -14s56.5 -22.5 77.5 -39.5s37.333 -37.167 49 -60.5s18.834 -49 21.501 -77h-120c-5.33301 25.333 -18.833 45.833 -40.5 61.5
s-53.167 23.5 -94.5 23.5c-48 0 -82.5 -8.33301 -103.5 -25s-31.5 -36.667 -31.5 -60c0 -32 13.333 -56 40 -72s67.667 -29.667 123 -41c40.667 -8.66699 76.5 -18.667 107.5 -30s56.833 -25.5 77.5 -42.5s36.167 -37.167 46.5 -60.5s15.5 -51.333 15.5 -84
c0 -28.667 -5.66699 -55.334 -17 -80.001s-28.5 -46 -51.5 -64s-51.667 -32 -86 -42s-74.5 -15 -120.5 -15zM154.998 900.003h100l70 -70l70 70h100l-110 -150h-120z" />
    <glyph glyph-name="scaron" unicode="&#x161;" horiz-adv-x="540" 
d="M270 -11c-39.333 0 -72.835 4.33398 -100.502 13.001s-50.667 20.334 -69 35.001s-32.333 31.834 -42 51.501s-15.834 40.167 -18.501 61.5h110c4.66699 -18.667 16 -34.167 34 -46.5s46.667 -18.5 86 -18.5c44 0 75 6 93 18s27 27.667 27 47
c0 8.66699 -2.33301 16.834 -7 24.501s-12.167 14.667 -22.5 21s-24.166 12.166 -41.499 17.499s-39 9.66602 -65 12.999c-30 4 -57.333 9.83301 -82 17.5s-45.667 17.834 -63 30.501s-30.666 28 -39.999 46s-14 39.667 -14 65c0 21.333 4.33301 41.5 13 60.5
s22 35.5 40 49.5s40.5 25.167 67.5 33.5s58.5 12.5 94.5 12.5c34.667 0 64.667 -4.33301 90 -13s46.5 -20.334 63.5 -35.001s30 -31.834 39 -51.501s14.833 -40.167 17.5 -61.5h-110c-5.33301 20.667 -16.166 36.667 -32.499 48s-38.833 17 -67.5 17
c-39.333 0 -66.666 -6 -81.999 -18s-23 -26 -23 -42c0 -9.33301 2 -17.666 6 -24.999s10.667 -13.833 20 -19.5s22.166 -10.834 38.499 -15.501s37.166 -8.33398 62.499 -11.001c30.667 -4 58.834 -10 84.501 -18s47.667 -18.5 66 -31.5s32.5 -29 42.5 -48
s15 -41.167 15 -66.5c0 -22.667 -4.83301 -43.834 -14.5 -63.501s-24 -36.667 -43 -51s-43 -25.666 -72 -33.999s-62.5 -12.5 -100.5 -12.5zM104.998 740.001h90l75 -80l75 80h90l-110 -160h-110z" />
    <glyph glyph-name="Ydieresis" unicode="&#x178;" horiz-adv-x="660" 
d="M280 270l-270 430h142l190 -310l176 310h132l-250 -430v-270h-120v270zM220 755c-20.667 0 -37.5 6.5 -50.5 19.5s-19.5 29.833 -19.5 50.5s6.5 37.5 19.5 50.5s29.833 19.5 50.5 19.5s37.5 -6.5 50.5 -19.5s19.5 -29.833 19.5 -50.5s-6.5 -37.5 -19.5 -50.5
s-29.833 -19.5 -50.5 -19.5zM450 755c-20.667 0 -37.5 6.5 -50.5 19.5s-19.5 29.833 -19.5 50.5s6.5 37.5 19.5 50.5s29.833 19.5 50.5 19.5s37.5 -6.5 50.5 -19.5s19.5 -29.833 19.5 -50.5s-6.5 -37.5 -19.5 -50.5s-29.833 -19.5 -50.5 -19.5z" />
    <glyph glyph-name="Zcaron" unicode="&#x17d;" horiz-adv-x="610" 
d="M40 94l376 502h-366v104h510v-94l-376 -502h386v-104h-530v94zM135 900h100l70 -70l70 70h100l-110 -150h-120z" />
    <glyph glyph-name="zcaron" unicode="&#x17e;" horiz-adv-x="510" 
d="M35 84l298 352h-288v94h420v-84l-298 -352h308v-94h-440v84zM90 740h90l75 -80l75 80h90l-110 -160h-110z" />
    <glyph glyph-name="florin" unicode="&#x192;" horiz-adv-x="370" 
d="M45 -210c-5.33301 0 -13.333 0.167969 -24 0.500977s-21 1.16602 -31 2.49902v96c5.33301 -1.33301 12.833 -2.16602 22.5 -2.49902s17.167 -0.5 22.5 -0.5c23.333 0 40 5.16699 50 15.5s15 28.166 15 53.499v481h-70v94h70v15c0 52.667 13.5 92.5 40.5 119.5
s71.833 40.5 134.5 40.5c20 0 45 -1 75 -3v-96c-10 1.33301 -20.833 2.16602 -32.5 2.49902s-22.5 0.5 -32.5 0.5c-28 0 -47.5 -5.16699 -58.5 -15.5s-16.5 -28.166 -16.5 -53.499v-10h130v-94h-130v-486c0 -52.667 -13 -92.5 -39 -119.5s-68 -40.5 -126 -40.5z" />
    <glyph glyph-name="uni0237" unicode="&#x237;" horiz-adv-x="270" 
d="M20 -211c-7.33301 0 -15.665 0.166016 -24.998 0.499023s-17.666 1.16602 -24.999 2.49902v96c5.33301 -1.33301 11.166 -2.16602 17.499 -2.49902s12.166 -0.5 17.499 -0.5c12.667 0 23.667 1.83301 33 5.5s17.166 10 23.499 19s11 21.167 14 36.5s4.5 35 4.5 59v525
h110v-530c0 -41.333 -2.83301 -75.666 -8.5 -102.999s-15.167 -49 -28.5 -65s-30.833 -27.167 -52.5 -33.5s-48.5 -9.5 -80.5 -9.5z" />
    <glyph glyph-name="uni02BC" unicode="&#x2bc;" horiz-adv-x="285" 
d="M90 574v126h130v-126l-110 -155h-60z" />
    <glyph glyph-name="circumflex" unicode="&#x2c6;" horiz-adv-x="370" 
d="M130 740h110l110 -160h-90l-75 80l-75 -80h-90z" />
    <glyph glyph-name="caron" unicode="&#x2c7;" horiz-adv-x="370" 
d="M20 740h90l75 -80l75 80h90l-110 -160h-110z" />
    <glyph glyph-name="dotaccent" unicode="&#x2d9;" horiz-adv-x="180" 
d="M90 590c-20.667 0 -37.5 6.5 -50.5 19.5s-19.5 29.833 -19.5 50.5s6.5 37.5 19.5 50.5s29.833 19.5 50.5 19.5s37.5 -6.5 50.5 -19.5s19.5 -29.833 19.5 -50.5s-6.5 -37.5 -19.5 -50.5s-29.833 -19.5 -50.5 -19.5z" />
    <glyph glyph-name="ring" unicode="&#x2da;" horiz-adv-x="280" 
d="M140 570c-17.333 0 -33.166 2.83301 -47.499 8.5s-27 13.334 -38 23.001s-19.5 21.167 -25.5 34.5s-9 28 -9 44s3 30.667 9 44s14.5 24.833 25.5 34.5s23.667 17.334 38 23.001s30.166 8.5 47.499 8.5c16.667 0 32.334 -2.83301 47.001 -8.5s27.5 -13.334 38.5 -23.001
s19.5 -21.167 25.5 -34.5s9 -28 9 -44s-3 -30.667 -9 -44s-14.5 -24.833 -25.5 -34.5s-23.833 -17.334 -38.5 -23.001s-30.334 -8.5 -47.001 -8.5zM140 638c12 0 22 4 30 12s12 18 12 30s-4 22 -12 30s-18 12 -30 12s-22 -4 -30 -12s-12 -18 -12 -30s4 -22 12 -30
s18 -12 30 -12z" />
    <glyph glyph-name="tilde" unicode="&#x2dc;" horiz-adv-x="360" 
d="M240 595c-15.333 0 -28.5 2.33301 -39.5 7s-21 9.83398 -30 15.501l-25.5 15.5c-8 4.66699 -16.333 7 -25 7c-7.33301 0 -13.5 -2 -18.5 -6s-9.16699 -8.66699 -12.5 -14c-3.33301 -6 -6.33301 -12.667 -9 -20l-60 25c4.66699 18.667 11.334 35.334 20.001 50.001
c7.33301 12.667 17.5 24.167 30.5 34.5s29.5 15.5 49.5 15.5c14.667 0 27.667 -2.33301 39 -7s21.5 -9.83398 30.5 -15.501l25.5 -15.5c8 -4.66699 16.333 -7 25 -7c7.33301 0 13.5 2 18.5 6s9.16699 8.66699 12.5 14c3.33301 6 6.33301 12.667 9 20l60 -25
c-4.66699 -18.667 -11.334 -35.334 -20.001 -50.001c-7.33301 -12.667 -17.5 -24.167 -30.5 -34.5s-29.5 -15.5 -49.5 -15.5z" />
    <glyph glyph-name="hungarumlaut" unicode="&#x2dd;" horiz-adv-x="553" 
d="M58 580l96 160h124l-137 -160h-83zM251 580l127 160h127l-167 -160h-87z" />
    <glyph glyph-name="uni0401" unicode="&#x401;" horiz-adv-x="615" 
d="M90 700h470v-104h-350v-184h320v-104h-320v-204h350v-104h-470v700zM210 755c-20.667 0 -37.5 6.5 -50.5 19.5s-19.5 29.833 -19.5 50.5s6.5 37.5 19.5 50.5s29.833 19.5 50.5 19.5s37.5 -6.5 50.5 -19.5s19.5 -29.833 19.5 -50.5s-6.5 -37.5 -19.5 -50.5
s-29.833 -19.5 -50.5 -19.5zM440 755c-20.667 0 -37.5 6.5 -50.5 19.5s-19.5 29.833 -19.5 50.5s6.5 37.5 19.5 50.5s29.833 19.5 50.5 19.5s37.5 -6.5 50.5 -19.5s19.5 -29.833 19.5 -50.5s-6.5 -37.5 -19.5 -50.5s-29.833 -19.5 -50.5 -19.5z" />
    <glyph glyph-name="uni0402" unicode="&#x402;" horiz-adv-x="825" 
d="M255 596h-235.001v104h590v-104h-235v-190c17.333 10.667 41.666 20.334 72.999 29.001s67 13 107 13c78 0 135.833 -18.333 173.5 -55s56.5 -90.334 56.5 -161.001v-20c0 -71.333 -19.5 -125.333 -58.5 -162s-101.167 -55 -186.5 -55
c-5.33301 0 -13.666 0.166992 -24.999 0.5s-19.666 1.16602 -24.999 2.49902v106c5.33301 -1.33301 12 -2.16602 20 -2.49902s14.667 -0.5 20 -0.5c44.667 0 77.334 9.5 98.001 28.5s31 46.5 31 82.5v20c0 35.333 -10.333 62.5 -31 81.5s-53.334 28.5 -98.001 28.5
c-36 0 -67 -4.16699 -93 -12.5s-46.667 -17.5 -62 -27.5v-302h-120v596z" />
    <glyph glyph-name="uni0403" unicode="&#x403;" horiz-adv-x="560" 
d="M90 700h450v-104h-330v-596h-120v700zM380 900h140l-150 -150h-100z" />
    <glyph glyph-name="uni0404" unicode="&#x404;" horiz-adv-x="690" 
d="M360 -11c-43.333 0 -83.498 6.66504 -120.498 19.998s-69.167 34.333 -96.5 63s-48.833 65.5 -64.5 110.5s-23.5 99.167 -23.5 162.5v20c0 60.667 7.83301 112.834 23.5 156.501s37.167 79.5 64.5 107.5s59.5 48.667 96.5 62s77.167 20 120.5 20
c38.667 0 74.667 -4.83301 108 -14.5s62.5 -24.167 87.5 -43.5s45.333 -43.333 61 -72s25.167 -62.334 28.5 -101.001h-126c-8.66699 43.333 -27.167 75 -55.5 95s-62.833 30 -103.5 30c-23.333 0 -45.333 -3.5 -66 -10.5s-38.834 -18.5 -54.501 -34.5
s-28.5 -36.667 -38.5 -62s-16.333 -56.333 -19 -93h263v-100h-263c2.66699 -39.333 9.5 -72.5 20.5 -99.5s24.5 -48.667 40.5 -65s34.167 -28 54.5 -35s41.166 -10.5 62.499 -10.5c48 0 85 11.167 111 33.5s41.667 52.833 47 91.5h127c-4 -41.333 -14 -76.666 -30 -105.999
s-36.5 -53.166 -61.5 -71.499s-54 -31.833 -87 -40.5s-68.5 -13 -106.5 -13z" />
    <glyph glyph-name="uni0405" unicode="&#x405;" horiz-adv-x="650" 
d="M325 -11c-45.333 0 -84.668 5.00293 -118.001 15.0029s-61.166 24 -83.499 42s-39.5 39.167 -51.5 63.5s-19.333 51.166 -22 80.499h120c2.66699 -14 7.16699 -26.667 13.5 -38s15.5 -21.333 27.5 -30s27.167 -15.334 45.5 -20.001s41.166 -7 68.499 -7
c28 0 51.833 2.5 71.5 7.5s35.667 11.667 48 20s21.333 18.333 27 30s8.5 24.167 8.5 37.5c0 32.667 -15.167 57.334 -45.5 74.001s-77.5 31.667 -141.5 45c-36 8 -68 17.5 -96 28.5s-51.333 24.667 -70 41s-32.834 36 -42.501 59s-14.5 50.5 -14.5 82.5
c0 26 5.5 50.667 16.5 74s27.167 43.666 48.5 60.999s47.833 31 79.5 41s68.5 15 110.5 15c40.667 0 76.334 -4.66699 107.001 -14s56.5 -22.5 77.5 -39.5s37.333 -37.167 49 -60.5s18.834 -49 21.501 -77h-120c-5.33301 25.333 -18.833 45.833 -40.5 61.5
s-53.167 23.5 -94.5 23.5c-48 0 -82.5 -8.33301 -103.5 -25s-31.5 -36.667 -31.5 -60c0 -32 13.333 -56 40 -72s67.667 -29.667 123 -41c40.667 -8.66699 76.5 -18.667 107.5 -30s56.833 -25.5 77.5 -42.5s36.167 -37.167 46.5 -60.5s15.5 -51.333 15.5 -84
c0 -28.667 -5.66699 -55.334 -17 -80.001s-28.5 -46 -51.5 -64s-51.667 -32 -86 -42s-74.5 -15 -120.5 -15z" />
    <glyph glyph-name="uni0406" unicode="&#x406;" horiz-adv-x="320" 
d="M100 700h120v-700h-120v700z" />
    <glyph glyph-name="uni0407" unicode="&#x407;" horiz-adv-x="320" 
d="M100 700h120v-700h-120v700zM46 755c-20.667 0 -37.5 6.5 -50.5 19.5s-19.5 29.833 -19.5 50.5s6.5 37.5 19.5 50.5s29.833 19.5 50.5 19.5s37.5 -6.5 50.5 -19.5s19.5 -29.833 19.5 -50.5s-6.5 -37.5 -19.5 -50.5s-29.833 -19.5 -50.5 -19.5zM276 755
c-20.667 0 -37.5 6.5 -50.5 19.5s-19.5 29.833 -19.5 50.5s6.5 37.5 19.5 50.5s29.833 19.5 50.5 19.5s37.5 -6.5 50.5 -19.5s19.5 -29.833 19.5 -50.5s-6.5 -37.5 -19.5 -50.5s-29.833 -19.5 -50.5 -19.5z" />
    <glyph glyph-name="uni0408" unicode="&#x408;" horiz-adv-x="560" 
d="M240 -11c-72 0 -126.001 18.501 -162.001 55.501s-55.333 88.833 -58 155.5h116c2.66699 -34.667 12.334 -60.834 29.001 -78.501s41.667 -26.5 75 -26.5c18 0 33.833 2.5 47.5 7.5s25.167 13.5 34.5 25.5s16.333 27.833 21 47.5s7 44.5 7 74.5v450h120v-450
c0 -94 -19.667 -161 -59 -201s-96.333 -60 -171 -60z" />
    <glyph glyph-name="uni0409" unicode="&#x409;" horiz-adv-x="1060" 
d="M60 -11c-5.33301 0 -11.1709 0.167969 -17.5039 0.500977s-12.166 1.16602 -17.499 2.49902v114c3.33301 -0.666992 8.33301 -1 15 -1c18.667 0 34.334 4.5 47.001 13.5s23 28 31 57s13.667 70.833 17 125.5s5 127.667 5 219v180h480v-264h125
c94.667 0 164.167 -19.667 208.5 -59s66.5 -92.333 66.5 -159s-22.167 -119.667 -66.5 -159s-113.833 -59 -208.5 -59h-245v596h-244v-96c0 -108.667 -4.16699 -196.5 -12.5 -263.5s-20.666 -118.833 -36.999 -155.5s-36.666 -61.167 -60.999 -73.5
s-52.833 -18.5 -85.5 -18.5zM734.995 104.001c31.333 0 57.666 2.50195 78.999 7.50195s38.333 12.167 51 21.5s21.667 21.166 27 35.499s8 30.833 8 49.5s-2.66699 35.167 -8 49.5s-14.333 26.166 -27 35.499s-29.667 16.5 -51 21.5s-47.666 7.5 -78.999 7.5h-115v-228h115
z" />
    <glyph glyph-name="uni040A" unicode="&#x40a;" horiz-adv-x="1100" 
d="M90 700h120v-278h330v278h120v-278h130c47.333 0 88 -4.83301 122 -14.5s62 -23.667 84 -42s38.167 -40.5 48.5 -66.5s15.5 -55.333 15.5 -88s-5.16699 -62 -15.5 -88s-26.5 -48.167 -48.5 -66.5s-50 -32.333 -84 -42s-74.667 -14.5 -122 -14.5h-250v318h-330v-318h-120
v700zM780 104c30.667 0 56.334 2.33496 77.001 7.00195s37.167 11.5 49.5 20.5s21 20.167 26 33.5s7.5 28.666 7.5 45.999s-2.5 32.666 -7.5 45.999s-13.667 24.5 -26 33.5s-28.833 15.833 -49.5 20.5s-46.334 7 -77.001 7h-120v-214h120z" />
    <glyph glyph-name="uni040B" unicode="&#x40b;" horiz-adv-x="840" 
d="M255 596l-234.998 -0.000976562v104h590v-104h-235v-190c17.333 10.667 41.666 20.334 72.999 29.001s67 13 107 13c78.667 0 136.667 -18.667 174 -56s56 -96.333 56 -177v-215h-120v205c0 48 -10.833 82.833 -32.5 104.5s-55.834 32.5 -102.501 32.5
c-36 0 -67 -4.16699 -93 -12.5s-46.667 -17.5 -62 -27.5v-302h-120v596z" />
    <glyph glyph-name="uni040C" unicode="&#x40c;" horiz-adv-x="705" 
d="M90 700h120v-293h70l254 293h136l-295 -333l305 -367h-146l-254 313h-70v-313h-120v700zM432 900h140l-150 -150h-100z" />
    <glyph glyph-name="uni040E" unicode="&#x40e;" horiz-adv-x="680" 
d="M205 -11c-7.33301 0 -14.501 0.168945 -21.501 0.501953s-13.167 0.833008 -18.5 1.5v107c5.33301 -0.666992 11.5 -1.33398 18.5 -2.00098s14.167 -1 21.5 -1c13.333 0 25 1 35 3s18.667 5.66699 26 11s14 12.666 20 21.999s11.667 21 17 35l-288 534h140l211 -405
l175 405h124l-246 -552c-12.667 -28 -25.5 -52.167 -38.5 -72.5s-27.667 -36.833 -44 -49.5s-35.166 -22 -56.499 -28s-46.333 -9 -75 -9zM347.999 745.002c-62 0 -107.5 13.667 -136.5 41s-43.5 67 -43.5 119h110c0 -30.667 5.83301 -52.334 17.5 -65.001
s29.167 -19 52.5 -19s40.833 6.33301 52.5 19s17.5 34.334 17.5 65.001h110c0 -52 -14.5 -91.667 -43.5 -119s-74.5 -41 -136.5 -41z" />
    <glyph glyph-name="uni040F" unicode="&#x40f;" horiz-adv-x="740" 
d="M314 0h-224v700h120v-596h320v596h120v-700h-224v-130h-112v130z" />
    <glyph glyph-name="uni0410" unicode="&#x410;" horiz-adv-x="680" 
d="M478 158h-284l-59 -158h-120l265 700h120l265 -700h-128zM233 262h206l-102 288z" />
    <glyph glyph-name="uni0411" unicode="&#x411;" horiz-adv-x="670" 
d="M90 700h475v-104h-355v-160h145c46.667 0 87.334 -5.16699 122.001 -15.5s63.334 -25 86.001 -44s39.5 -42 50.5 -69s16.5 -56.833 16.5 -89.5s-5.5 -62.5 -16.5 -89.5s-27.833 -50 -50.5 -69s-51.334 -33.667 -86.001 -44s-75.334 -15.5 -122.001 -15.5h-265v700z
M345 104c31.333 0 57.666 2.50195 78.999 7.50195s38.333 12.167 51 21.5s21.667 21.166 27 35.499s8 31.166 8 50.499c0 18.667 -2.66699 35 -8 49s-14.333 25.667 -27 35s-29.667 16.5 -51 21.5s-47.666 7.5 -78.999 7.5h-135v-228h135z" />
    <glyph glyph-name="uni0412" unicode="&#x412;" horiz-adv-x="675" 
d="M90 700l280.003 -0.00390625c79.333 0 137.5 -17 174.5 -51s55.5 -79.333 55.5 -136c0 -36 -9.33301 -66.833 -28 -92.5s-44.334 -44.167 -77.001 -55.5c41.333 -9.33301 74.166 -28.166 98.499 -56.499s36.5 -65.166 36.5 -110.499
c0 -29.333 -4.66699 -56.166 -14 -80.499s-23.833 -45.166 -43.5 -62.499s-44.834 -30.833 -75.501 -40.5s-67.667 -14.5 -111 -14.5h-296v700zM373.003 103.996c52 0 87.835 8.33203 107.502 24.999s29.5 42.334 29.5 77.001c0 16.667 -2.33301 31.667 -7 45
s-12.334 24.5 -23.001 33.5s-24.834 15.833 -42.501 20.5s-39.5 7 -65.5 7h-162v-208h163zM355.005 407.995c46.667 0 79.167 8.66797 97.5 26.001s27.5 40.666 27.5 69.999c0 30 -9 52.833 -27 68.5s-50.667 23.5 -98 23.5h-145v-188h145z" />
    <glyph glyph-name="uni0413" unicode="&#x413;" horiz-adv-x="560" 
d="M90 700h450v-104h-330v-596h-120v700z" />
    <glyph glyph-name="uni0414" unicode="&#x414;" horiz-adv-x="740" 
d="M20 104h74.999c12.667 24.667 22.834 54.5 30.501 89.5s13.667 72.5 18 112.5s7.33301 81 9 123s2.5 82.333 2.5 121v150h474v-596h81v-234h-110v130h-470v-130h-110v234zM508.999 104l-0.000976562 492.001h-238v-66c0 -96 -4.66699 -178.333 -14 -247
s-22.666 -128.334 -39.999 -179.001h292z" />
    <glyph glyph-name="uni0415" unicode="&#x415;" horiz-adv-x="615" 
d="M90 700h470v-104h-350v-184h320v-104h-320v-204h350v-104h-470v700z" />
    <glyph glyph-name="uni0416" unicode="&#x416;" horiz-adv-x="980" 
d="M275 364l-240 336h130l205 -293h60v293h120v-293h60l209 293h126l-240 -332l250 -368h-136l-209 313h-60v-313h-120v313h-60l-211 -313h-134z" />
    <glyph glyph-name="uni0417" unicode="&#x417;" horiz-adv-x="650" 
d="M325 -11c-44 0 -82.8311 5.33105 -116.498 15.998s-62.334 25.667 -86.001 45s-42 42.5 -55 69.5s-20.5 57.167 -22.5 90.5h126c4 -34 19 -61.667 45 -83s62.333 -32 109 -32c52.667 0 91.5 9.33301 116.5 28s37.5 45.334 37.5 80.001c0 33.333 -12 59.833 -36 79.5
s-63.333 29.5 -118 29.5h-85v96h85c42.667 0 74.834 8.83301 96.501 26.5s32.5 41.834 32.5 72.501c0 30 -10.167 53.833 -30.5 71.5s-53.166 26.5 -98.499 26.5c-44.667 0 -78.167 -8.66699 -100.5 -26s-35.166 -42 -38.499 -74h-126c4.66699 62.667 28.667 112.667 72 150
s107.666 56 192.999 56s149.166 -17.667 191.499 -53s63.5 -84 63.5 -146c0 -36.667 -10.333 -67.5 -31 -92.5s-48.334 -43.167 -83.001 -54.5c42.667 -10 76.5 -29 101.5 -57s37.5 -64.667 37.5 -110c0 -30.667 -5.83301 -58.834 -17.5 -84.501
s-29.334 -47.667 -53.001 -66s-53 -32.666 -88 -42.999s-75.5 -15.5 -121.5 -15.5z" />
    <glyph glyph-name="uni0418" unicode="&#x418;" horiz-adv-x="760" 
d="M90 700h120v-510l344 510h116v-700h-120v510l-344 -510h-116v700z" />
    <glyph glyph-name="uni0419" unicode="&#x419;" horiz-adv-x="760" 
d="M90 700h120v-510l344 510h116v-700h-120v510l-344 -510h-116v700zM380 745c-62 0 -107.5 13.667 -136.5 41s-43.5 67 -43.5 119h110c0 -30.667 5.83301 -52.334 17.5 -65.001s29.167 -19 52.5 -19s40.833 6.33301 52.5 19s17.5 34.334 17.5 65.001h110
c0 -52 -14.5 -91.667 -43.5 -119s-74.5 -41 -136.5 -41z" />
    <glyph glyph-name="uni041A" unicode="&#x41a;" horiz-adv-x="705" 
d="M90 700h120v-293h70l254 293h136l-295 -333l305 -367h-146l-254 313h-70v-313h-120v700z" />
    <glyph glyph-name="uni041B" unicode="&#x41b;" horiz-adv-x="720" 
d="M60 -11c-5.33301 0 -11.1709 0.167969 -17.5039 0.500977s-12.166 1.16602 -17.499 2.49902v114c3.33301 -0.666992 8.33301 -1 15 -1c18.667 0 34.334 4.5 47.001 13.5s23 28 31 57s13.667 70.833 17 125.5s5 127.667 5 219v180h490v-700h-120v596h-254v-96
c0 -108.667 -4.16699 -196.5 -12.5 -263.5s-20.666 -118.833 -36.999 -155.5s-36.666 -61.167 -60.999 -73.5s-52.833 -18.5 -85.5 -18.5z" />
    <glyph glyph-name="uni041C" unicode="&#x41c;" horiz-adv-x="870" 
d="M90 700h124l223 -415l223 415h120v-700h-120v490l-185 -345h-80l-185 345v-490h-120v700z" />
    <glyph glyph-name="uni041D" unicode="&#x41d;" horiz-adv-x="760" 
d="M90 700h120v-288h340v288h120v-700h-120v308h-340v-308h-120v700z" />
    <glyph glyph-name="uni041E" unicode="&#x41e;" horiz-adv-x="750" 
d="M375 -11c-42.667 0 -83.334 6.66699 -122.001 20s-72.667 34.166 -102 62.499s-52.666 65 -69.999 110s-26 99.5 -26 163.5v20c0 61.333 8.66699 113.833 26 157.5s40.666 79.5 69.999 107.5s63.333 48.5 102 61.5s79.334 19.5 122.001 19.5s83.334 -6.5 122.001 -19.5
s72.667 -33.5 102 -61.5s52.666 -63.833 69.999 -107.5s26 -96.167 26 -157.5v-20c0 -64 -8.66699 -118.5 -26 -163.5s-40.666 -81.667 -69.999 -110s-63.333 -49.166 -102 -62.499s-79.334 -20 -122.001 -20zM375 95c24.667 0 48.667 4.33301 72 13s44 22.834 62 42.501
s32.5 45.5 43.5 77.5s16.5 71 16.5 117v20c0 44 -5.5 81.167 -16.5 111.5s-25.5 55 -43.5 74s-38.667 32.833 -62 41.5s-47.333 13 -72 13c-25.333 0 -49.666 -4.33301 -72.999 -13s-44 -22.5 -62 -41.5s-32.333 -43.667 -43 -74s-16 -67.5 -16 -111.5v-20
c0 -46 5.33301 -85 16 -117s25 -57.833 43 -77.5s38.667 -33.834 62 -42.501s47.666 -13 72.999 -13z" />
    <glyph glyph-name="uni041F" unicode="&#x41f;" horiz-adv-x="750" 
d="M90 700h570v-700h-120v596h-330v-596h-120v700z" />
    <glyph glyph-name="uni0420" unicode="&#x420;" horiz-adv-x="660" 
d="M90 700h255c94 0 163.333 -20.167 208 -60.5s67 -94.5 67 -162.5s-22.333 -122.167 -67 -162.5s-114 -60.5 -208 -60.5h-135v-254h-120v700zM335 358c31.333 0 57.666 2.5 78.999 7.5s38.333 12.333 51 22s21.667 22 27 37s8 32.5 8 52.5s-2.66699 37.333 -8 52
s-14.333 27 -27 37s-29.667 17.5 -51 22.5s-47.666 7.5 -78.999 7.5h-125v-238h125z" />
    <glyph glyph-name="uni0421" unicode="&#x421;" horiz-adv-x="690" 
d="M360 -11c-43.333 0 -83.499 6.66602 -120.499 19.999s-69.167 34.333 -96.5 63s-48.833 65.5 -64.5 110.5s-23.5 99.167 -23.5 162.5v20c0 60.667 8 112.834 24 156.501s37.833 79.5 65.5 107.5s60 48.667 97 62s76.5 20 118.5 20c38.667 0 74.667 -4.83301 108 -14.5
s62.5 -24.167 87.5 -43.5s45.333 -43.333 61 -72s25.167 -62.334 28.5 -101.001h-126c-8.66699 43.333 -27.167 75 -55.5 95s-62.833 30 -103.5 30c-22 0 -43.667 -4 -65 -12s-40.5 -21.333 -57.5 -40s-30.667 -43.334 -41 -74.001s-15.5 -68.667 -15.5 -114v-20
c0 -48 5.5 -88 16.5 -120s25.167 -57.667 42.5 -77s36.5 -33 57.5 -41s41.833 -12 62.5 -12c48 0 85.167 11.167 111.5 33.5s42.166 52.833 47.499 91.5h126c-4 -41.333 -14 -76.666 -30 -105.999s-36.5 -53.166 -61.5 -71.499s-54 -31.833 -87 -40.5s-68.5 -13 -106.5 -13z
" />
    <glyph glyph-name="uni0422" unicode="&#x422;" 
d="M255 596h-235v104h590v-104h-235v-596h-120v596z" />
    <glyph glyph-name="uni0423" unicode="&#x423;" horiz-adv-x="680" 
d="M205 -11c-7.33301 0 -14.501 0.168945 -21.501 0.501953s-13.167 0.833008 -18.5 1.5v107c5.33301 -0.666992 11.5 -1.33398 18.5 -2.00098s14.167 -1 21.5 -1c13.333 0 25 1 35 3s18.667 5.66699 26 11s14 12.666 20 21.999s11.667 21 17 35l-288 534h140l211 -405
l175 405h124l-246 -552c-12.667 -28 -25.5 -52.167 -38.5 -72.5s-27.667 -36.833 -44 -49.5s-35.166 -22 -56.499 -28s-46.333 -9 -75 -9z" />
    <glyph glyph-name="uni0424" unicode="&#x424;" horiz-adv-x="880" 
d="M380 37c-53.333 0 -100.5 7.5 -141.5 22.5s-75.5 36.333 -103.5 64s-49.167 60.667 -63.5 99s-21.5 80.833 -21.5 127.5v20c0 44 7.16699 84.167 21.5 120.5s35.5 67.166 63.5 92.499s62.5 45 103.5 59s88.167 21 141.5 21v67h120v-67c52.667 0 99.5 -7 140.5 -21
s75.5 -33.667 103.5 -59s49.333 -56.166 64 -92.499s22 -76.5 22 -120.5v-20c0 -46.667 -7.33301 -89.167 -22 -127.5s-36 -71.333 -64 -99s-62.5 -49 -103.5 -64s-87.833 -22.5 -140.5 -22.5v-67h-120v67zM704 370c0 60.667 -17.001 107 -51.001 139s-85 48 -153 48v-414
c68.667 0 119.834 18 153.501 54s50.5 87 50.5 153v20zM175.999 350c0 -66 16.833 -117 50.5 -153s84.834 -54 153.501 -54v414c-68.667 0 -119.834 -16 -153.501 -48s-50.5 -78.333 -50.5 -139v-20z" />
    <glyph glyph-name="uni0425" unicode="&#x425;" horiz-adv-x="680" 
d="M266 366l-231 334h136l170 -245l172 245h132l-230 -332l240 -368h-138l-178 280l-180 -280h-134z" />
    <glyph glyph-name="uni0426" unicode="&#x426;" horiz-adv-x="770" 
d="M628 0h-538v700h120v-596h320v596h120v-596h90v-234h-112v130z" />
    <glyph glyph-name="uni0427" unicode="&#x427;" horiz-adv-x="675" 
d="M465 294c-17.333 -10.667 -41.668 -20.333 -73.001 -29s-67 -13 -107 -13c-78.667 0 -136.667 18.667 -174 56s-56 96.333 -56 177v215h120v-205c0 -48 10.833 -82.833 32.5 -104.5s55.834 -32.5 102.501 -32.5c36 0 67 4.16699 93 12.5s46.667 17.5 62 27.5v302h120
v-700h-120v294z" />
    <glyph glyph-name="uni0428" unicode="&#x428;" horiz-adv-x="980" 
d="M90 700h120v-596h220v596h120v-596h220v596h120v-700h-800v700z" />
    <glyph glyph-name="uni0429" unicode="&#x429;" horiz-adv-x="1010" 
d="M90 700h120v-596h220v596h120v-596h220v596h120v-596h90v-234h-112v130h-778v700z" />
    <glyph glyph-name="uni042A" unicode="&#x42a;" horiz-adv-x="740" 
d="M170 596h-150v104h270v-264h135c46.667 0 87.334 -5.16699 122.001 -15.5s63.334 -25 86.001 -44s39.5 -42 50.5 -69s16.5 -56.833 16.5 -89.5s-5.5 -62.5 -16.5 -89.5s-27.833 -50 -50.5 -69s-51.334 -33.667 -86.001 -44s-75.334 -15.5 -122.001 -15.5h-255v596z
M415 104c31.333 0 57.666 2.50195 78.999 7.50195s38.333 12.167 51 21.5s21.667 21.166 27 35.499s8 30.833 8 49.5s-2.66699 35.167 -8 49.5s-14.333 26.166 -27 35.499s-29.667 16.5 -51 21.5s-47.666 7.5 -78.999 7.5h-125v-228h125z" />
    <glyph glyph-name="uni042B" unicode="&#x42b;" horiz-adv-x="900" 
d="M90 700h120v-264h115c46.667 0 87.334 -5.16699 122.001 -15.5s63.334 -25 86.001 -44s39.5 -42 50.5 -69s16.5 -56.833 16.5 -89.5s-5.5 -62.5 -16.5 -89.5s-27.833 -50 -50.5 -69s-51.334 -33.667 -86.001 -44s-75.334 -15.5 -122.001 -15.5h-235v700zM315 104
c31.333 0 57.666 2.50195 78.999 7.50195s38.333 12.167 51 21.5s21.667 21.166 27 35.499s8 30.833 8 49.5s-2.66699 35.167 -8 49.5s-14.333 26.166 -27 35.499s-29.667 16.5 -51 21.5s-47.666 7.5 -78.999 7.5h-105v-228h105zM690 700.002h120v-700h-120v700z" />
    <glyph glyph-name="uni042C" unicode="&#x42c;" horiz-adv-x="660" 
d="M90 700h120v-264h135c46.667 0 87.334 -5.16699 122.001 -15.5s63.334 -25 86.001 -44s39.5 -42 50.5 -69s16.5 -56.833 16.5 -89.5s-5.5 -62.5 -16.5 -89.5s-27.833 -50 -50.5 -69s-51.334 -33.667 -86.001 -44s-75.334 -15.5 -122.001 -15.5h-255v700zM335 104
c31.333 0 57.666 2.50195 78.999 7.50195s38.333 12.167 51 21.5s21.667 21.166 27 35.499s8 30.833 8 49.5s-2.66699 35.167 -8 49.5s-14.333 26.166 -27 35.499s-29.667 16.5 -51 21.5s-47.666 7.5 -78.999 7.5h-125v-228h125z" />
    <glyph glyph-name="uni042D" unicode="&#x42d;" horiz-adv-x="690" 
d="M330 -11c-38 0 -73.501 4.33496 -106.501 13.002s-62 22.167 -87 40.5s-45.5 42.166 -61.5 71.499s-26 64.666 -30 105.999h127c5.33301 -38.667 21 -69.167 47 -91.5s63 -33.5 111 -33.5c21.333 0 42.166 3.5 62.499 10.5s38.5 18.667 54.5 35s29.333 38 40 65
s17.334 60.167 20.001 99.5h-262v100h262c-2.66699 36.667 -9 67.667 -19 93s-22.833 46 -38.5 62s-33.667 27.5 -54 34.5s-42.166 10.5 -65.499 10.5c-38.667 0 -72.667 -10 -102 -30s-48.333 -51.667 -57 -95h-126c3.33301 38.667 12.833 72.334 28.5 101.001
s36 52.667 61 72s54.167 33.833 87.5 43.5s69.333 14.5 108 14.5c42.667 0 82.667 -6.66699 120 -20s69.666 -34 96.999 -62s48.833 -63.833 64.5 -107.5s23.5 -95.834 23.5 -156.501v-20c0 -63.333 -7.83301 -117.5 -23.5 -162.5s-37.167 -81.833 -64.5 -110.5
s-59.666 -49.667 -96.999 -63s-77.333 -20 -120 -20z" />
    <glyph glyph-name="uni042E" unicode="&#x42e;" horiz-adv-x="955" 
d="M90 700l120.003 0.000976562v-288h107c4 52.667 14 97.834 30 135.501s36.667 68.667 62 93s54.833 42.166 88.5 53.499s69.5 17 107.5 17c42.667 0 82 -6.5 118 -19.5s67.167 -33.5 93.5 -61.5s46.833 -63.833 61.5 -107.5s22 -96.167 22 -157.5v-20
c0 -64 -7.33301 -118.5 -22 -163.5s-35.167 -81.667 -61.5 -110s-57.5 -49.166 -93.5 -62.499s-75.333 -20 -118 -20c-39.333 0 -75.833 6 -109.5 18s-63.334 30.667 -89.001 56s-46.334 58.166 -62.001 98.499s-24.834 89.166 -27.501 146.499h-107v-308h-120v700z
M605.003 95.001c24 0 46.167 4.33301 66.5 13s38.166 22.834 53.499 42.501s27.333 45.5 36 77.5s13 71 13 117v20c0 44 -4.33301 81.167 -13 111.5s-20.667 55 -36 74s-33.166 32.833 -53.499 41.5s-42.5 13 -66.5 13s-46.167 -4.33301 -66.5 -13
s-38.166 -22.5 -53.499 -41.5s-27.333 -43.667 -36 -74s-13 -67.5 -13 -111.5v-20c0 -46 4.33301 -85 13 -117s20.667 -57.833 36 -77.5s33.166 -33.834 53.499 -42.501s42.5 -13 66.5 -13z" />
    <glyph glyph-name="uni042F" unicode="&#x42f;" horiz-adv-x="680" 
d="M216 282c-52 15.333 -91 40.5 -117 75.5s-39 76.5 -39 124.5c0 32 5.66699 61.333 17 88s28 49.667 50 69s49.5 34.333 82.5 45s71.5 16 115.5 16h265v-700h-120v268h-147l-155 -268h-128zM180 482c0 -36 12.167 -64 36.5 -84s67.166 -30 128.499 -30h125v228h-125
c-61.333 0 -104.166 -10 -128.499 -30s-36.5 -48 -36.5 -84z" />
    <glyph glyph-name="uni0430" unicode="&#x430;" horiz-adv-x="570" 
d="M225 -11c-28.667 0 -54.167 4.16992 -76.5 12.5029s-41.166 20 -56.499 35s-27 32.5 -35 52.5s-12 42 -12 66c0 52.667 15.667 91.834 47 117.501s77.333 38.5 138 38.5h165v29c0 40 -8.83301 67.5 -26.5 82.5s-45.5 22.5 -83.5 22.5c-34 0 -59 -5.33301 -75 -16
s-25.333 -25.334 -28 -44.001h-107c1.33301 22.667 7.16602 43.5 17.499 62.5s24.666 35.5 42.999 49.5s40.5 24.833 66.5 32.5s55.333 11.5 88 11.5s62.167 -3.66699 88.5 -11s48.833 -18.833 67.5 -34.5s33.167 -35.834 43.5 -60.501s15.5 -54.334 15.5 -89.001v-211
c0 -28 0.333008 -52.5 1 -73.5s2.33398 -41.5 5.00098 -61.5h-100c-2 15.333 -3.5 28.333 -4.5 39s-1.5 24 -1.5 40c-12.667 -24.667 -34.5 -45.834 -65.5 -63.501s-69.167 -26.5 -114.5 -26.5zM255 85.0029c18.667 0 36.499 2.5 53.499 7.5s31.833 12.333 44.5 22
s22.834 21.667 30.501 36s11.5 30.833 11.5 49.5v29h-145c-28 0 -50.5 -6 -67.5 -18s-25.5 -29.667 -25.5 -53c0 -22 7.83301 -39.667 23.5 -53s40.5 -20 74.5 -20z" />
    <glyph glyph-name="uni0431" unicode="&#x431;" horiz-adv-x="595" 
d="M300 -11c-36 0 -69.667 6.66797 -101 20.001s-58.333 32.833 -81 58.5s-40.5 57.334 -53.5 95.001s-19.5 80.834 -19.5 129.501v20c0 60 4.33301 113.333 13 160s23.5 86.5 44.5 119.5s49 58.667 84 77s78.5 28.833 130.5 31.5l114 5.5c34 1.66699 62 8.16699 84 19.5
v-101c-10.667 -6 -30.334 -10.833 -59.001 -14.5s-70 -6.16699 -124 -7.5c-31.333 -0.666992 -58.5 -4.33398 -81.5 -11.001s-42.333 -17.334 -58 -32.001s-28 -33.834 -37 -57.501s-14.833 -52.5 -17.5 -86.5c15.333 31.333 39.5 56.833 72.5 76.5s72.833 29.5 119.5 29.5
c32.667 0 62.834 -5.5 90.501 -16.5s51.5 -27 71.5 -48s35.5 -46.667 46.5 -77s16.5 -64.5 16.5 -102.5v-23c0 -41.333 -6.5 -78.5 -19.5 -111.5s-30.833 -60.833 -53.5 -83.5s-49.5 -40 -80.5 -52s-64.833 -18 -101.5 -18zM300 85.001c43.333 0 78 14.333 104 43
s39 70.667 39 126v23c0 46.667 -13.167 83 -39.5 109s-60.833 39 -103.5 39s-77.167 -12.833 -103.5 -38.5s-39.5 -62.167 -39.5 -109.5v-23c0 -26.667 3.66699 -50.5 11 -71.5s17.5 -38.667 30.5 -53s28.167 -25.333 45.5 -33s36 -11.5 56 -11.5z" />
    <glyph glyph-name="uni0432" unicode="&#x432;" horiz-adv-x="570" 
d="M70 530h250c66.667 0 115 -13.5 145 -40.5s45 -61.5 45 -103.5c0 -23.333 -7 -45.833 -21 -67.5s-33.667 -36.167 -59 -43.5c32.667 -8 57.5 -23.167 74.5 -45.5s25.5 -48.5 25.5 -78.5c0 -46 -15.333 -82.667 -46 -110s-78.667 -41 -144 -41h-270v530zM325 94
c36 0 60.833 5.83301 74.5 17.5s20.5 28.167 20.5 49.5s-6.83301 37.5 -20.5 48.5s-38.5 16.5 -74.5 16.5h-145v-132h145zM310 312c33.333 0 56.666 5.5 69.999 16.5s20 26.167 20 45.5s-6.66699 34.5 -20 45.5s-36.666 16.5 -69.999 16.5h-130v-124h130z" />
    <glyph glyph-name="uni0433" unicode="&#x433;" horiz-adv-x="460" 
d="M70 530h370v-94h-260v-436h-110v530z" />
    <glyph glyph-name="uni0434" unicode="&#x434;" horiz-adv-x="615" 
d="M20 94l59.999 -0.000976562c6.66699 10 12.834 25 18.501 45s10.5 42.833 14.5 68.5s7 53.334 9 83.001s3 59.5 3 89.5v150h395v-436h70v-219h-102v125h-366v-125h-102v219zM409.999 93.999v342h-179v-76c0 -51.333 -3 -100.5 -9 -147.5s-16 -86.5 -30 -118.5h218z" />
    <glyph glyph-name="uni0435" unicode="&#x435;" horiz-adv-x="580" 
d="M300 -11c-35.333 0 -68.6689 5.49805 -100.002 16.498s-58.833 27.667 -82.5 50s-42.5 50.5 -56.5 84.5s-21 74 -21 120v20c0 44 6.66699 82.333 20 115s31.5 59.834 54.5 81.501s49.5 37.834 79.5 48.501s62 16 96 16c80.667 0 142.5 -21.667 185.5 -65
s64.5 -105.333 64.5 -186v-56h-388c0.666992 -27.333 5.16699 -50.5 13.5 -69.5s19.333 -34.333 33 -46s29.334 -20.167 47.001 -25.5s35.834 -8 54.501 -8c38 0 65.833 6 83.5 18s29.834 27.667 36.501 47h110c-10.667 -52.667 -36.834 -92.667 -78.501 -120
s-92.167 -41 -151.5 -41zM294.997 444.998c-18.667 0 -36.5 -2.33594 -53.5 -7.00293s-32 -12.167 -45 -22.5s-23.5 -23.666 -31.5 -39.999s-12.333 -36.166 -13 -59.499h278c-0.666992 24.667 -4.5 45.334 -11.5 62.001s-16.5 30 -28.5 40s-26.167 17 -42.5 21
s-33.833 6 -52.5 6z" />
    <glyph glyph-name="uni0436" unicode="&#x436;" horiz-adv-x="810" 
d="M210 273l-180 257h126l144 -213h50v213h110v-213h50l156 213h114l-190 -252l200 -278h-124l-156 223h-50v-223h-110v223h-50l-150 -223h-130z" />
    <glyph glyph-name="uni0437" unicode="&#x437;" horiz-adv-x="535" 
d="M265 -11c-72 0 -127.499 14.8311 -166.499 44.498s-60.167 71.834 -63.5 126.501h112c3.33301 -24 14 -42.5 32 -55.5s46 -19.5 84 -19.5c45.333 0 76.666 7.33301 93.999 22s26 33 26 55c0 20 -7.5 35.833 -22.5 47.5s-41.167 17.5 -78.5 17.5h-87v86h80
c30.667 0 53 6.33301 67 19s21 28.667 21 48c0 17.333 -7.33301 32.5 -22 45.5s-40 19.5 -76 19.5c-38.667 0 -65.5 -6.33301 -80.5 -19s-24.167 -29.667 -27.5 -51h-112c3.33301 50.667 23.833 91 61.5 121s90.5 45 158.5 45c72.667 0 125.834 -14.333 159.501 -43
s50.5 -66 50.5 -112c0 -25.333 -6.16699 -47.666 -18.5 -66.999s-32.5 -34 -60.5 -44c37.333 -9.33301 63.166 -25 77.499 -47s21.5 -47.333 21.5 -76c0 -22.667 -4.66699 -44 -14 -64s-23.5 -37.333 -42.5 -52s-43 -26.167 -72 -34.5s-62.833 -12.5 -101.5 -12.5z" />
    <glyph glyph-name="uni0438" unicode="&#x438;" horiz-adv-x="610" 
d="M70 530h110v-375l255 375h105v-530h-110v375l-255 -375h-105v530z" />
    <glyph glyph-name="uni0439" unicode="&#x439;" horiz-adv-x="610" 
d="M70 530h110v-375l255 375h105v-530h-110v375l-255 -375h-105v530zM305 590c-55.333 0 -95.833 12.167 -121.5 36.5s-38.5 58.833 -38.5 103.5h102c0 -24 4.83301 -41.333 14.5 -52s24.167 -16 43.5 -16s33.833 5.33301 43.5 16s14.5 28 14.5 52h102
c0 -44.667 -13 -79.167 -39 -103.5s-66.333 -36.5 -121 -36.5z" />
    <glyph glyph-name="uni043A" unicode="&#x43a;" horiz-adv-x="580" 
d="M70 530h110v-215h60l186 215h124l-225 -253l235 -277h-134l-186 225h-60v-225h-110v530z" />
    <glyph glyph-name="uni043B" unicode="&#x43b;" horiz-adv-x="590" 
d="M60 -11c-5.33301 0 -11.167 0.166016 -17.5 0.499023s-12.166 1.16602 -17.499 2.49902v104c3.33301 -0.666992 8.33301 -1 15 -1c14 0 26 4.16699 36 12.5s18.167 23 24.5 44s11.166 49.167 14.499 84.5s5 80 5 134v160h400v-530h-110v436h-184v-86
c0 -71.333 -3.5 -130.166 -10.5 -176.499s-17.5 -83.166 -31.5 -110.499s-31.333 -46.5 -52 -57.5s-44.667 -16.5 -72 -16.5z" />
    <glyph glyph-name="uni043C" unicode="&#x43c;" horiz-adv-x="720" 
d="M70 530h124l169 -310l169 310h118v-530h-110v365l-140 -255h-80l-140 255v-365h-110v530z" />
    <glyph glyph-name="uni043D" unicode="&#x43d;" horiz-adv-x="610" 
d="M70 530h110v-213h250v213h110v-530h-110v223h-250v-223h-110v530z" />
    <glyph glyph-name="uni043E" unicode="&#x43e;" horiz-adv-x="600" 
d="M300 -11c-36.667 0 -70.834 5.83301 -102.501 17.5s-59.167 28.834 -82.5 51.501s-41.666 50.834 -54.999 84.501s-20 72.834 -20 117.501v20c0 42 6.66699 79.167 20 111.5s31.666 59.666 54.999 81.999s50.833 39.166 82.5 50.499s65.834 17 102.501 17
s70.834 -5.66699 102.501 -17s59.167 -28.166 82.5 -50.499s41.666 -49.666 54.999 -81.999s20 -69.5 20 -111.5v-20c0 -44.667 -6.66699 -83.834 -20 -117.501s-31.666 -61.834 -54.999 -84.501s-50.833 -39.834 -82.5 -51.501s-65.834 -17.5 -102.501 -17.5zM300 85
c19.333 0 37.833 3.33301 55.5 10s33.334 17 47.001 31s24.667 32 33 54s12.5 48.667 12.5 80v20c0 28.667 -4.16699 53.334 -12.5 74.001s-19.333 37.667 -33 51s-29.334 23.333 -47.001 30s-36.167 10 -55.5 10s-37.833 -3.33301 -55.5 -10s-33.334 -16.667 -47.001 -30
s-24.667 -30.333 -33 -51s-12.5 -45.334 -12.5 -74.001v-20c0 -31.333 4.16699 -58 12.5 -80s19.333 -40 33 -54s29.334 -24.333 47.001 -31s36.167 -10 55.5 -10z" />
    <glyph glyph-name="uni043F" unicode="&#x43f;" horiz-adv-x="600" 
d="M70 530h460v-530h-110v436h-240v-436h-110v530z" />
    <glyph glyph-name="uni0440" unicode="&#x440;" horiz-adv-x="615" 
d="M70 530l102 -0.00195312v-89c16 30.667 39.833 55 71.5 73s67.5 27 107.5 27c69.333 0 124 -21.667 164 -65s60 -108.666 60 -195.999v-20c0 -45.333 -5.33301 -85 -16 -119s-25.834 -62.167 -45.501 -84.5s-43.167 -39.166 -70.5 -50.499s-58 -17 -92 -17
c-38 0 -72.667 8.33301 -104 25s-53.666 40 -66.999 70v-284h-110v730zM325 84.998c41.333 0 74.6699 14.3359 100.003 43.0029s38 72.667 38 132v20c0 56 -12.333 97.5 -37 124.5s-58.334 40.5 -101.001 40.5c-18.667 0 -36.667 -3 -54 -9s-32.833 -14.833 -46.5 -26.5
s-24.5 -26.334 -32.5 -44.001s-12 -37.834 -12 -60.501v-70c0 -25.333 4 -47.333 12 -66s18.667 -34.334 32 -47.001s28.666 -22 45.999 -28s35.666 -9 54.999 -9z" />
    <glyph glyph-name="uni0441" unicode="&#x441;" horiz-adv-x="555" 
d="M290 -11c-36 0 -69.168 5.49609 -99.501 16.4961s-56.666 27.833 -78.999 50.5s-39.833 51 -52.5 85s-19 73.667 -19 119v20c0 42.667 6.66699 80.334 20 113.001s31.5 60 54.5 82s49.667 38.5 80 49.5s62.166 16.5 95.499 16.5c34.667 0 65.5 -4.66699 92.5 -14
s50 -22.166 69 -38.499s34.167 -35.5 45.5 -57.5s19 -45.667 23 -71h-112c-6.66699 24.667 -18.667 45 -36 61s-44.666 24 -81.999 24c-18.667 0 -36.334 -3.16699 -53.001 -9.5s-31.334 -16.166 -44.001 -29.499s-22.667 -30.5 -30 -51.5s-11 -45.833 -11 -74.5v-20
c0 -31.333 3.66699 -58.166 11 -80.499s17.333 -40.5 30 -54.5s27.334 -24.167 44.001 -30.5s34.334 -9.5 53.001 -9.5c62 0 101.333 28.333 118 85h112c-5.33301 -28 -14.5 -53.167 -27.5 -75.5s-29.5 -41.333 -49.5 -57s-43 -27.667 -69 -36s-54 -12.5 -84 -12.5z" />
    <glyph glyph-name="uni0442" unicode="&#x442;" horiz-adv-x="500" 
d="M195 436h-175v94h460v-94h-175v-436h-110v436z" />
    <glyph glyph-name="uni0443" unicode="&#x443;" horiz-adv-x="580" 
d="M155 -211c-10 0 -19.998 1 -29.998 3v96c10 -2 20 -3 30 -3c11.333 0 20.833 1.83301 28.5 5.5s14.667 10 21 19s12.666 20.833 18.999 35.5s13.5 33 21.5 55l-225 530h120l162 -410l146 410h112l-205 -530c-14.667 -37.333 -28.334 -69.333 -41.001 -96
s-26.5 -48.5 -41.5 -65.5s-31.833 -29.5 -50.5 -37.5s-41 -12 -67 -12z" />
    <glyph glyph-name="uni0444" unicode="&#x444;" horiz-adv-x="750" 
d="M320 -11c-92 0 -161.667 23.333 -209 70s-71 113.667 -71 201v20c0 83.333 23.667 147.666 71 192.999s117 68 209 68v159h110v-159c91.333 0 160.833 -22.667 208.5 -68s71.5 -109.666 71.5 -192.999v-20c0 -87.333 -23.833 -154.333 -71.5 -201
s-117.167 -70 -208.5 -70v-189h-110v189zM598 280c0 55.333 -13.5 96.667 -40.5 124s-70.167 41 -129.5 41v-360c59.333 0 102.5 14.5 129.5 43.5s40.5 72.833 40.5 131.5v20zM152 260.001c0 -58.667 13.667 -102.5 41 -131.5s70.333 -43.5 129 -43.5v360
c-59.333 0 -102.5 -13.667 -129.5 -41s-40.5 -68.333 -40.5 -123v-21z" />
    <glyph glyph-name="uni0445" unicode="&#x445;" horiz-adv-x="560" 
d="M211 276l-181 254h124l129 -178l127 178h120l-179 -250l189 -280h-126l-135 206l-137 -206h-122z" />
    <glyph glyph-name="uni0446" unicode="&#x446;" horiz-adv-x="625" 
d="M498 0h-428v530h110v-436h230v436h110v-436h80v-219h-102v125z" />
    <glyph glyph-name="uni0447" unicode="&#x447;" horiz-adv-x="560" 
d="M380 203c-15.333 -9.33301 -33.501 -17.667 -54.501 -25s-47.833 -11 -80.5 -11c-63.333 0 -111.666 15 -144.999 45s-50 77.667 -50 143v175h110v-160c0 -40 8.16699 -67.833 24.5 -83.5s44.833 -23.5 85.5 -23.5c28 0 51.5 3.16699 70.5 9.5s32.167 12.5 39.5 18.5v239
h110v-530h-110v203z" />
    <glyph glyph-name="uni0448" unicode="&#x448;" horiz-adv-x="820" 
d="M70 530h110v-436h175v436h110v-436h175v436h110v-530h-680v530z" />
    <glyph glyph-name="uni0449" unicode="&#x449;" horiz-adv-x="855" 
d="M728 0h-658v530h110v-436h175v436h110v-436h175v436h110v-436h80v-219h-102v125z" />
    <glyph glyph-name="uni044A" unicode="&#x44a;" horiz-adv-x="610" 
d="M150 436h-130v94h240v-186h120c68 0 118.333 -14.5 151 -43.5s49 -71.833 49 -128.5c0 -53.333 -16 -95.333 -48 -126s-82.667 -46 -152 -46h-230v436zM370 94c36.667 0 62.5 6.5 77.5 19.5s22.5 32.5 22.5 58.5s-7.5 45.5 -22.5 58.5s-40.833 19.5 -77.5 19.5h-110v-156
h110z" />
    <glyph glyph-name="uni044B" unicode="&#x44b;" horiz-adv-x="730" 
d="M70 530h110v-186h100c68 0 118.333 -14.5 151 -43.5s49 -71.833 49 -128.5c0 -53.333 -16 -95.333 -48 -126s-82.667 -46 -152 -46h-210v530zM270 94c36.667 0 62.5 6.5 77.5 19.5s22.5 32.5 22.5 58.5s-7.5 45.5 -22.5 58.5s-40.833 19.5 -77.5 19.5h-90v-156h90z
M550 530h110v-530h-110v530z" />
    <glyph glyph-name="uni044C" unicode="&#x44c;" horiz-adv-x="540" 
d="M80 530h110v-186h120c68 0 118.333 -14.5 151 -43.5s49 -71.833 49 -128.5c0 -53.333 -16 -95.333 -48 -126s-82.667 -46 -152 -46h-230v530zM300 94c36.667 0 62.5 6.5 77.5 19.5s22.5 32.5 22.5 58.5s-7.5 45.5 -22.5 58.5s-40.833 19.5 -77.5 19.5h-110v-156h110z" />
    <glyph glyph-name="uni044D" unicode="&#x44d;" horiz-adv-x="555" 
d="M265 -11c-62 0 -113.334 16.168 -154.001 48.501s-66 76.5 -76 132.5h112c16.667 -56.667 56 -85 118 -85c36 0 66.333 10.667 91 32s39.667 57 45 107h-196v92h196c-5.33301 44.667 -20.666 77.334 -45.999 98.001s-55.333 31 -90 31c-37.333 0 -64.666 -8 -81.999 -24
s-29.333 -36.333 -36 -61h-112c4 25.333 11.667 49 23 71s26.5 41.167 45.5 57.5s41.833 29.166 68.5 38.499s57.667 14 93 14c34.667 0 67.167 -5.5 97.5 -16.5s56.833 -27.5 79.5 -49.5s40.5 -49.333 53.5 -82s19.5 -70.334 19.5 -113.001v-20
c0 -45.333 -6.16699 -85 -18.5 -119s-29.5 -62.333 -51.5 -85s-48.333 -39.5 -79 -50.5s-64.334 -16.5 -101.001 -16.5z" />
    <glyph glyph-name="uni044E" unicode="&#x44e;" horiz-adv-x="775" 
d="M70 530l110 0.000976562v-213h59c3.33301 36 12 67.833 26 95.5s31.833 51 53.5 70s46.667 33.5 75 43.5s58.833 15 91.5 15c35.333 0 68.333 -5.66699 99 -17s57.167 -28.166 79.5 -50.499s39.833 -49.666 52.5 -81.999s19 -69.5 19 -111.5v-20
c0 -44.667 -6.33301 -83.834 -19 -117.501s-30.167 -61.834 -52.5 -84.501s-48.833 -39.834 -79.5 -51.501s-63.667 -17.5 -99 -17.5c-33.333 0 -64.166 5 -92.499 15s-53.333 24.833 -75 44.5s-39.334 44 -53.001 73s-22.167 62.833 -25.5 101.5h-59v-223h-110v530z
M485 85.001c18 0 35.333 3.33301 52 10s31.334 17 44.001 31s22.834 32 30.501 54s11.5 48.667 11.5 80v20c0 28.667 -3.83301 53.334 -11.5 74.001s-17.834 37.667 -30.501 51s-27.334 23.333 -44.001 30s-34 10 -52 10s-35.333 -3.33301 -52 -10
s-31.334 -16.667 -44.001 -30s-22.834 -30.333 -30.501 -51s-11.5 -45.334 -11.5 -74.001v-20c0 -31.333 3.83301 -58 11.5 -80s17.834 -40 30.501 -54s27.334 -24.333 44.001 -31s34 -10 52 -10z" />
    <glyph glyph-name="uni044F" unicode="&#x44f;" horiz-adv-x="575" 
d="M173 201c-40 12 -69.668 31.667 -89.001 59s-29 60.333 -29 99c0 52 17.333 93.5 52 124.5s87.334 46.5 158.001 46.5h240v-530h-110v188h-114l-118 -188h-128zM166.999 359c0 -28 8.33301 -47.833 25 -59.5s39.334 -17.5 68.001 -17.5h135v154h-135
c-28.667 0 -51.334 -5.83301 -68.001 -17.5s-25 -31.5 -25 -59.5z" />
    <glyph glyph-name="uni0451" unicode="&#x451;" horiz-adv-x="580" 
d="M300 -11c-35.333 0 -68.6689 5.49805 -100.002 16.498s-58.833 27.667 -82.5 50s-42.5 50.5 -56.5 84.5s-21 74 -21 120v20c0 44 6.66699 82.333 20 115s31.5 59.834 54.5 81.501s49.5 37.834 79.5 48.501s62 16 96 16c80.667 0 142.5 -21.667 185.5 -65
s64.5 -105.333 64.5 -186v-56h-388c0.666992 -27.333 5.16699 -50.5 13.5 -69.5s19.333 -34.333 33 -46s29.334 -20.167 47.001 -25.5s35.834 -8 54.501 -8c38 0 65.833 6 83.5 18s29.834 27.667 36.501 47h110c-10.667 -52.667 -36.834 -92.667 -78.501 -120
s-92.167 -41 -151.5 -41zM294.997 444.998c-18.667 0 -36.5 -2.33594 -53.5 -7.00293s-32 -12.167 -45 -22.5s-23.5 -23.666 -31.5 -39.999s-12.333 -36.166 -13 -59.499h278c-0.666992 24.667 -4.5 45.334 -11.5 62.001s-16.5 30 -28.5 40s-26.167 17 -42.5 21
s-33.833 6 -52.5 6zM185.997 593.995c-19.333 0 -35.166 6.16699 -47.499 18.5s-18.5 28.166 -18.5 47.499s6.16699 35.166 18.5 47.499s28.166 18.5 47.499 18.5s35.166 -6.16699 47.499 -18.5s18.5 -28.166 18.5 -47.499s-6.16699 -35.166 -18.5 -47.499
s-28.166 -18.5 -47.499 -18.5zM393.997 593.995c-19.333 0 -35.166 6.16699 -47.499 18.5s-18.5 28.166 -18.5 47.499s6.16699 35.166 18.5 47.499s28.166 18.5 47.499 18.5s35.166 -6.16699 47.499 -18.5s18.5 -28.166 18.5 -47.499s-6.16699 -35.166 -18.5 -47.499
s-28.166 -18.5 -47.499 -18.5z" />
    <glyph glyph-name="uni0452" unicode="&#x452;" horiz-adv-x="625" 
d="M110 444l-89.998 -0.00488281v86h90v170h110v-170h220v-86h-220v-148c6 12 13.667 23.833 23 35.5s20.666 21.834 33.999 30.501s28.5 15.667 45.5 21s36.167 8 57.5 8c62.667 0 110 -17.5 142 -52.5s48 -86.167 48 -153.5v-185
c0 -41.333 -2.83301 -75.666 -8.5 -102.999s-15.167 -49 -28.5 -65s-30.833 -27.167 -52.5 -33.5s-48.5 -9.5 -80.5 -9.5c-7.33301 0 -15.666 0.166992 -24.999 0.5s-17.666 1.16602 -24.999 2.49902v96c5.33301 -1.33301 11.166 -2.16602 17.499 -2.49902
s12.166 -0.5 17.499 -0.5c12.667 0 23.667 1.83301 33 5.5s17.166 10 23.499 19s11 21.167 14 36.5s4.5 35 4.5 59v155c0 44.667 -9.16699 78.334 -27.5 101.001s-47.5 34 -87.5 34c-22 0 -40.833 -3.83301 -56.5 -11.5s-28.5 -17.667 -38.5 -30
s-17.5 -26.666 -22.5 -42.999s-7.5 -33.166 -7.5 -50.499v-160h-110v444z" />
    <glyph glyph-name="uni0453" unicode="&#x453;" horiz-adv-x="460" 
d="M70 530h370v-94h-260v-436h-110v530zM320 740h130l-150 -160h-90z" />
    <glyph glyph-name="uni0454" unicode="&#x454;" horiz-adv-x="555" 
d="M290 -11c-36 0 -69.168 5.49707 -99.501 16.4971s-56.666 27.833 -78.999 50.5s-39.833 51 -52.5 85s-19 73.667 -19 119v20c0 42.667 6.66699 80.334 20 113.001s31.5 60 54.5 82s49.667 38.5 80 49.5s62.166 16.5 95.499 16.5c34.667 0 65.5 -4.66699 92.5 -14
s50 -22.166 69 -38.499s34.167 -35.5 45.5 -57.5s19 -45.667 23 -71h-112c-6.66699 24.667 -18.667 45 -36 61s-44.666 24 -81.999 24c-33.333 0 -62.833 -10.333 -88.5 -31s-41.5 -53.334 -47.5 -98.001h196v-92h-196c2.66699 -25.333 8.16699 -46.666 16.5 -63.999
s18.5 -31.666 30.5 -42.999s25.5 -19.5 40.5 -24.5s31.167 -7.5 48.5 -7.5c62 0 101.333 28.333 118 85h112c-5.33301 -28 -14.5 -53.167 -27.5 -75.5s-29.5 -41.333 -49.5 -57s-43 -27.667 -69 -36s-54 -12.5 -84 -12.5z" />
    <glyph glyph-name="uni0455" unicode="&#x455;" horiz-adv-x="540" 
d="M270 -11c-39.333 0 -72.835 4.33398 -100.502 13.001s-50.667 20.334 -69 35.001s-32.333 31.834 -42 51.501s-15.834 40.167 -18.501 61.5h110c4.66699 -18.667 16 -34.167 34 -46.5s46.667 -18.5 86 -18.5c44 0 75 6 93 18s27 27.667 27 47
c0 8.66699 -2.33301 16.834 -7 24.501s-12.167 14.667 -22.5 21s-24.166 12.166 -41.499 17.499s-39 9.66602 -65 12.999c-30 4 -57.333 9.83301 -82 17.5s-45.667 17.834 -63 30.501s-30.666 28 -39.999 46s-14 39.667 -14 65c0 21.333 4.33301 41.5 13 60.5
s22 35.5 40 49.5s40.5 25.167 67.5 33.5s58.5 12.5 94.5 12.5c34.667 0 64.667 -4.33301 90 -13s46.5 -20.334 63.5 -35.001s30 -31.834 39 -51.501s14.833 -40.167 17.5 -61.5h-110c-5.33301 20.667 -16.166 36.667 -32.499 48s-38.833 17 -67.5 17
c-39.333 0 -66.666 -6 -81.999 -18s-23 -26 -23 -42c0 -9.33301 2 -17.666 6 -24.999s10.667 -13.833 20 -19.5s22.166 -10.834 38.499 -15.501s37.166 -8.33398 62.499 -11.001c30.667 -4 58.834 -10 84.501 -18s47.667 -18.5 66 -31.5s32.5 -29 42.5 -48
s15 -41.167 15 -66.5c0 -22.667 -4.83301 -43.834 -14.5 -63.501s-24 -36.667 -43 -51s-43 -25.666 -72 -33.999s-62.5 -12.5 -100.5 -12.5z" />
    <glyph glyph-name="uni0456" unicode="&#x456;" horiz-adv-x="270" 
d="M80 530h110v-530h-110v530zM135 590c-20.667 0 -37.5 6.5 -50.5 19.5s-19.5 29.833 -19.5 50.5s6.5 37.5 19.5 50.5s29.833 19.5 50.5 19.5s37.5 -6.5 50.5 -19.5s19.5 -29.833 19.5 -50.5s-6.5 -37.5 -19.5 -50.5s-29.833 -19.5 -50.5 -19.5z" />
    <glyph glyph-name="uni0457" unicode="&#x457;" horiz-adv-x="270" 
d="M80 530h110v-530h-110v530zM32 594c-19.333 0 -35.166 6.16699 -47.499 18.5s-18.5 28.166 -18.5 47.499s6.16699 35.166 18.5 47.499s28.166 18.5 47.499 18.5s35.166 -6.16699 47.499 -18.5s18.5 -28.166 18.5 -47.499s-6.16699 -35.166 -18.5 -47.499
s-28.166 -18.5 -47.499 -18.5zM240 594c-19.333 0 -35.166 6.16699 -47.499 18.5s-18.5 28.166 -18.5 47.499s6.16699 35.166 18.5 47.499s28.166 18.5 47.499 18.5s35.166 -6.16699 47.499 -18.5s18.5 -28.166 18.5 -47.499s-6.16699 -35.166 -18.5 -47.499
s-28.166 -18.5 -47.499 -18.5z" />
    <glyph glyph-name="uni0458" unicode="&#x458;" horiz-adv-x="270" 
d="M20 -211c-7.33301 0 -15.665 0.166016 -24.998 0.499023s-17.666 1.16602 -24.999 2.49902v96c5.33301 -1.33301 11.166 -2.16602 17.499 -2.49902s12.166 -0.5 17.499 -0.5c12.667 0 23.667 1.83301 33 5.5s17.166 10 23.499 19s11 21.167 14 36.5s4.5 35 4.5 59v525
h110v-530c0 -41.333 -2.83301 -75.666 -8.5 -102.999s-15.167 -49 -28.5 -65s-30.833 -27.167 -52.5 -33.5s-48.5 -9.5 -80.5 -9.5zM135.001 589.999c-20.667 0 -37.5 6.5 -50.5 19.5s-19.5 29.833 -19.5 50.5s6.5 37.5 19.5 50.5s29.833 19.5 50.5 19.5
s37.5 -6.5 50.5 -19.5s19.5 -29.833 19.5 -50.5s-6.5 -37.5 -19.5 -50.5s-29.833 -19.5 -50.5 -19.5z" />
    <glyph glyph-name="uni0459" unicode="&#x459;" horiz-adv-x="850" 
d="M60 -11c-5.33301 0 -11.167 0.166016 -17.5 0.499023s-12.166 1.16602 -17.499 2.49902v104c3.33301 -0.666992 8.33301 -1 15 -1c14 0 26 4.16699 36 12.5s18.167 23 24.5 44s11.166 49.167 14.499 84.5s5 80 5 134v160h390v-186h110c68 0 118.333 -14.5 151 -43.5
s49 -71.833 49 -128.5c0 -53.333 -16 -95.333 -48 -126s-82.667 -46 -152 -46h-220v436h-174v-86c0 -71.333 -3.5 -130.166 -10.5 -176.499s-17.5 -83.166 -31.5 -110.499s-31.333 -46.5 -52 -57.5s-44.667 -16.5 -72 -16.5zM609.999 93.999c36.667 0 62.5 6.5 77.5 19.5
s22.5 32.5 22.5 58.5s-7.5 45.5 -22.5 58.5s-40.833 19.5 -77.5 19.5h-100v-156h100z" />
    <glyph glyph-name="uni045A" unicode="&#x45a;" horiz-adv-x="880" 
d="M70 530h110v-198h240v198h110v-198h130c62.667 0 110 -14.333 142 -43s48 -69.667 48 -123c0 -50 -15.5 -90.167 -46.5 -120.5s-78.833 -45.5 -143.5 -45.5h-240v238h-240v-238h-110v530zM650 94c30.667 0 53 6.16699 67 18.5s21 30.166 21 53.499
c0 22.667 -7 40.334 -21 53.001s-36.333 19 -67 19h-120v-144h120z" />
    <glyph glyph-name="uni045B" unicode="&#x45b;" horiz-adv-x="625" 
d="M110 444l-89.999 -0.00390625v86h90v170h110v-170h220v-86h-220v-148c6 12 13.667 23.833 23 35.5s20.666 21.834 33.999 30.501s28.5 15.667 45.5 21s36.167 8 57.5 8c62.667 0 110 -17.5 142 -52.5s48 -86.167 48 -153.5v-185h-110v160
c0 44.667 -9.16699 78.334 -27.5 101.001s-47.5 34 -87.5 34c-22 0 -40.833 -3.83301 -56.5 -11.5s-28.5 -17.667 -38.5 -30s-17.5 -26.666 -22.5 -42.999s-7.5 -33.166 -7.5 -50.499v-160h-110v444z" />
    <glyph glyph-name="uni045C" unicode="&#x45c;" horiz-adv-x="580" 
d="M70 530h110v-215h60l186 215h124l-225 -253l235 -277h-134l-186 225h-60v-225h-110v530zM368 740h130l-150 -160h-90z" />
    <glyph glyph-name="uni045E" unicode="&#x45e;" horiz-adv-x="580" 
d="M155 -211c-10 0 -19.998 1 -29.998 3v96c10 -2 20 -3 30 -3c11.333 0 20.833 1.83301 28.5 5.5s14.667 10 21 19s12.666 20.833 18.999 35.5s13.5 33 21.5 55l-225 530h120l162 -410l146 410h112l-205 -530c-14.667 -37.333 -28.334 -69.333 -41.001 -96
s-26.5 -48.5 -41.5 -65.5s-31.833 -29.5 -50.5 -37.5s-41 -12 -67 -12zM294.002 590c-55.333 0 -95.833 12.167 -121.5 36.5s-38.5 58.833 -38.5 103.5h102c0 -24 4.83301 -41.333 14.5 -52s24.167 -16 43.5 -16s33.833 5.33301 43.5 16s14.5 28 14.5 52h102
c0 -44.667 -13 -79.167 -39 -103.5s-66.333 -36.5 -121 -36.5z" />
    <glyph glyph-name="uni045F" unicode="&#x45f;" horiz-adv-x="590" 
d="M244 0h-174v530h110v-436h230v436h110v-530h-174v-125h-102v125z" />
    <glyph glyph-name="uni0490" unicode="&#x490;" horiz-adv-x="560" 
d="M90 700h338v130h112v-234h-330v-596h-120v700z" />
    <glyph glyph-name="uni0491" unicode="&#x491;" horiz-adv-x="460" 
d="M70 530h268v125h102v-219h-260v-436h-110v530z" />
    <glyph glyph-name="uni0492" unicode="&#x492;" horiz-adv-x="570" 
d="M100 700h450v-104h-330v-187h187v-104h-187v-305h-120v305h-80v104h80v291z" />
    <glyph glyph-name="uni0493" unicode="&#x493;" horiz-adv-x="495" 
d="M30 307h75v223h370v-94h-260v-129h167v-94h-167v-213h-110v213h-75v94z" />
    <glyph glyph-name="uni0494" unicode="&#x494;" horiz-adv-x="645" 
d="M90 700l435 0.000976562v-104h-312v-193c12 8 31 17.167 57 27.5s59 15.5 99 15.5c32 0 61 -4.16699 87 -12.5s48.333 -21.166 67 -38.499s33.167 -39.5 43.5 -66.5s15.5 -58.833 15.5 -95.5v-241c0 -30 -3.66699 -57.333 -11 -82s-19.333 -45.834 -36 -63.501
s-38 -31.334 -64 -41.001s-58 -14.5 -96 -14.5h-43v96h31c36.667 0 62.5 8.66699 77.5 26s22.5 44.666 22.5 81.999v220c0 44.667 -10.5 76.834 -31.5 96.501s-52.167 29.5 -93.5 29.5c-30 0 -55.5 -5 -76.5 -15s-37.167 -20.333 -48.5 -31v-295h-123v700z" />
    <glyph glyph-name="uni0495" unicode="&#x495;" horiz-adv-x="561" 
d="M70 530l369.997 -0.000976562v-94h-260v-122c15.333 9.33301 33.5 17.5 54.5 24.5s47.5 10.5 79.5 10.5c64.667 0 113.334 -14.5 146.001 -43.5s49 -77.167 49 -144.5v-161c0 -41.333 -2.83301 -75.666 -8.5 -102.999s-15.167 -49 -28.5 -65s-30.833 -27.167 -52.5 -33.5
s-48.5 -9.5 -80.5 -9.5c-7.33301 0 -15.666 0.166992 -24.999 0.5s-17.666 1.16602 -24.999 2.49902v96c5.33301 -1.33301 11.166 -2.16602 17.499 -2.49902s12.166 -0.5 17.499 -0.5c14 0 25.833 1.66699 35.5 5s17.334 9.5 23.001 18.5s9.83398 21.167 12.501 36.5
s4 35.333 4 60v141c0 40.667 -8.33301 68.667 -25 84s-45 23 -85 23c-28 0 -51.333 -3 -70 -9s-31.667 -12 -39 -18v-226h-110v530z" />
    <glyph glyph-name="uni0496" unicode="&#x496;" horiz-adv-x="998" 
d="M857 -130v130h-41l-204 313h-60v-313h-123v313h-60l-209 -313h-135l247 362l-237 338h133l201 -293h60v293h123v-293h60l204 293h129l-237 -331l177 -265h84v-234h-112z" />
    <glyph glyph-name="uni0497" unicode="&#x497;" horiz-adv-x="826" 
d="M704 -125v125h-43l-153 226h-50v-226h-110v226h-51l-154 -226h-123l192 273l-182 257h120l148 -216h50v216h110v-216h50l153 216h116l-182 -251l127 -185h81v-219h-99z" />
    <glyph glyph-name="uni0498" unicode="&#x498;" horiz-adv-x="649" 
d="M272 -130v121.999c-23.333 2.66699 -44.666 7 -63.999 13c-33.333 10.667 -61.833 25.667 -85.5 45s-42 42.5 -55 69.5s-20.5 57.167 -22.5 90.5h126c4 -34 19 -61.667 45 -83s62.333 -32 109 -32c52.667 0 91.5 9.33301 116.5 28s37.5 45.334 37.5 80.001
c0 33.333 -12 59.833 -36 79.5s-63.333 29.5 -118 29.5h-85v96h85c42.667 0 74.834 8.83301 96.501 26.5s32.5 41.834 32.5 72.501c0 30 -10.167 53.833 -30.5 71.5s-53.166 26.5 -98.499 26.5c-44.667 0 -78.167 -8.66699 -100.5 -26s-35.166 -42 -38.499 -74h-126
c4.66699 62.667 28.667 112.667 72 150s107.666 56 192.999 56s149.166 -17.667 191.499 -53s63.5 -84 63.5 -146c0 -36.667 -10.333 -67.5 -31 -92.5s-48.334 -43.167 -83.001 -54.5c42.667 -10 76.5 -29 101.5 -57s37.5 -64.667 37.5 -110
c0 -30.667 -5.83301 -58.834 -17.5 -84.501s-29.334 -47.667 -53.001 -66s-53.167 -32.833 -88.5 -43.5c-19.333 -5.33301 -40 -9.33301 -62 -12v-122h-112z" />
    <glyph glyph-name="uni0499" unicode="&#x499;" horiz-adv-x="535" 
d="M219 -125l0.00195312 116c-50 5.33301 -90.333 19.333 -121 42c-38.667 30 -59.667 72.333 -63 127h112c3.33301 -24 14 -42.5 32 -55.5s46 -19.5 84 -19.5c45.333 0 76.666 7.33301 93.999 22s26 33 26 55c0 20 -7.5 35.833 -22.5 47.5s-41.167 17.5 -78.5 17.5h-87v86
h80c30.667 0 53 6.33301 67 19s21 28.667 21 48c0 17.333 -7.33301 32.5 -22 45.5s-40 19.5 -76 19.5c-38.667 0 -65.5 -6.33301 -80.5 -19s-24.167 -29.667 -27.5 -51h-112c3.33301 50.667 23.833 91 61.5 121s90.5 45 158.5 45c72.667 0 125.834 -14.333 159.501 -43
s50.5 -66 50.5 -112c0 -25.333 -6.16699 -47.666 -18.5 -66.999s-32.5 -34 -60.5 -44c37.333 -9.33301 63.166 -25 77.499 -47s21.5 -47.333 21.5 -76c0 -22.667 -4.66699 -44 -14 -64s-23.5 -37.333 -42.5 -52s-43.167 -26.334 -72.5 -35.001
c-14.667 -4 -30.334 -7 -47.001 -9v-117h-100z" />
    <glyph glyph-name="uni049A" unicode="&#x49a;" horiz-adv-x="729" 
d="M589 -130v130h-55l-254 313h-70v-313h-120v700h120v-293h70l254 293h136l-295 -333l218 -263h108v-234h-112z" />
    <glyph glyph-name="uni049B" unicode="&#x49b;" horiz-adv-x="587" 
d="M464 -125v125h-38l-186 225h-60v-225h-110v530h110v-215h60l186 215h124l-225 -253l155 -183h83v-219h-99z" />
    <glyph glyph-name="uni049C" unicode="&#x49c;" horiz-adv-x="742" 
d="M90 700h123v-296h50v119h102v-119h20l172 296h131l-205 -333l234 -367h-146l-186 308h-20v-113h-102v113h-50v-308h-123v700z" />
    <glyph glyph-name="uni049D" unicode="&#x49d;" horiz-adv-x="624" 
d="M70 530h111v-215h38v92h94v-92h15l134 215h122l-166 -254l186 -276h-130l-146 225h-15v-97h-94v97h-38v-225h-111v530z" />
    <glyph glyph-name="uni04A0" unicode="&#x4a0;" horiz-adv-x="798" 
d="M20 700h276v-293h70l254 293h136l-295 -333l305 -367h-146l-254 313h-70v-313h-120v602h-156v98z" />
    <glyph glyph-name="uni04A1" unicode="&#x4a1;" horiz-adv-x="657" 
d="M20 530h240v-215h60l181 215h126l-219 -252l229 -278h-136l-181 225h-60v-225h-110v435h-130v95z" />
    <glyph glyph-name="uni04A2" unicode="&#x4a2;" horiz-adv-x="779" 
d="M638 -130v130h-91v308h-334v-308h-123v700h123v-288h334v288h123v-596h80v-234h-112z" />
    <glyph glyph-name="uni04A3" unicode="&#x4a3;" horiz-adv-x="633" 
d="M511 -125v125h-81v223h-250v-223h-110v530h110v-213h250v213h110v-436h70v-219h-99z" />
    <glyph glyph-name="uni04A4" unicode="&#x4a4;" horiz-adv-x="1017" 
d="M90 0v700h123v-288h334v288h450v-104h-327v-596h-123v308h-334v-308h-123z" />
    <glyph glyph-name="uni04A5" unicode="&#x4a5;" horiz-adv-x="820" 
d="M430 223h-250v-223h-110v530h110v-213h250v213h370v-94h-260v-436h-110v223z" />
    <glyph glyph-name="uni04AA" unicode="&#x4aa;" horiz-adv-x="690" 
d="M308 -130l0.000976562 123c-24 3.33301 -47 8.66602 -69 15.999c-36.667 13.333 -68.667 34.333 -96 63s-48.833 65.5 -64.5 110.5s-23.5 99.167 -23.5 162.5v20c0 60.667 8 112.834 24 156.501s37.833 79.5 65.5 107.5s60 48.667 97 62s76.5 20 118.5 20
c38.667 0 74.667 -4.83301 108 -14.5s62.5 -24.167 87.5 -43.5s45.333 -43.333 61 -72s25.167 -62.334 28.5 -101.001h-126c-8.66699 43.333 -27.167 75 -55.5 95s-62.833 30 -103.5 30c-22 0 -43.667 -4 -65 -12s-40.5 -21.333 -57.5 -40s-30.667 -43.334 -41 -74.001
s-15.5 -68.667 -15.5 -114v-20c0 -48 5.5 -88 16.5 -120s25.167 -57.667 42.5 -77s36.5 -33 57.5 -41s41.833 -12 62.5 -12c48 0 85.167 11.167 111.5 33.5s42.166 52.833 47.499 91.5h126c-4 -41.333 -14 -76.666 -30 -105.999s-36.5 -53.166 -61.5 -71.499
s-54.167 -31.833 -87.5 -40.5c-14.667 -4 -30 -7 -46 -9v-123h-112z" />
    <glyph glyph-name="uni04AB" unicode="&#x4ab;" horiz-adv-x="555" 
d="M240 -125v117.997c-17.333 2.66699 -34 6.66699 -50 12c-30 11.333 -56.167 28.333 -78.5 51s-39.833 51 -52.5 85s-19 73.667 -19 119v20c0 42.667 6.66699 80.334 20 113.001s31.5 60 54.5 82s49.667 38.5 80 49.5s62.166 16.5 95.499 16.5
c34.667 0 65.5 -4.66699 92.5 -14s50 -22.166 69 -38.499s34.167 -35.5 45.5 -57.5s19 -45.667 23 -71h-112c-6.66699 24.667 -18.667 45 -36 61s-44.666 24 -81.999 24c-18.667 0 -36.334 -3.16699 -53.001 -9.5s-31.334 -16.166 -44.001 -29.499s-22.667 -30.5 -30 -51.5
s-11 -45.833 -11 -74.5v-20c0 -31.333 3.66699 -58.166 11 -80.499s17.333 -40.5 30 -54.5s27.334 -24.167 44.001 -30.5s34.334 -9.5 53.001 -9.5c62 0 101.333 28.333 118 85h112c-5.33301 -28 -14.5 -53.167 -27.5 -75.5s-29.5 -41.333 -49.5 -57
s-43 -27.834 -69 -36.501c-10.667 -2.66699 -21.667 -5 -33 -7v-119h-101z" />
    <glyph glyph-name="uni04AE" unicode="&#x4ae;" horiz-adv-x="660" 
d="M279 0v272l-269 428h141l190 -304l177 304h132l-249 -428v-272h-122z" />
    <glyph glyph-name="uni04AF" unicode="&#x4af;" horiz-adv-x="573" 
d="M242 -229v219l-225 540h122l159 -411l145 411h114l-205 -538v-221h-110z" />
    <glyph glyph-name="uni04B0" unicode="&#x4b0;" horiz-adv-x="633" 
d="M269 196h-138v104h135l-249 400h141l173 -287l160 287h132l-229 -400h127v-104h-130v-196h-122v196z" />
    <glyph glyph-name="uni04B1" unicode="&#x4b1;" horiz-adv-x="557" 
d="M103 93h102l-188 437h122l151 -376l136 376h115l-173 -437h108v-93h-131v-229h-110v229h-132v93z" />
    <glyph glyph-name="uni04B2" unicode="&#x4b2;" horiz-adv-x="703" 
d="M562 -130v130h-48l-178 280l-180 -280h-134l241 366l-231 334h136l170 -245l172 245h132l-230 -332l172 -264h90v-234h-112z" />
    <glyph glyph-name="uni04B3" unicode="&#x4b3;" horiz-adv-x="579" 
d="M456 -125v125h-42l-135 206l-137 -206h-122l191 276l-181 254h124l129 -178l127 178h120l-179 -250l125 -186h80v-219h-100z" />
    <glyph glyph-name="uni04B6" unicode="&#x4b6;" horiz-adv-x="703" 
d="M462 0l0.000976562 298c-17.333 -11.333 -41.166 -21.5 -71.499 -30.5s-65.5 -13.5 -105.5 -13.5c-79.333 0 -137.5 18.333 -174.5 55s-55.5 95.334 -55.5 176.001v215h123v-205c0 -48.667 10.5 -83.334 31.5 -104.001s54.5 -31 100.5 -31
c37.333 0 68.166 4.33301 92.499 13s44.166 18 59.499 28v299h123v-596h90v-234h-112v130h-101z" />
    <glyph glyph-name="uni04B7" unicode="&#x4b7;" horiz-adv-x="592" 
d="M469 0l-91 -0.000976562v203c-15.333 -9.33301 -33.5 -17.666 -54.5 -24.999s-47.833 -11 -80.5 -11c-64 0 -112.5 14.5 -145.5 43.5s-49.5 77.167 -49.5 144.5v175h110v-160c0 -40 8.33301 -67.833 25 -83.5s45 -23.5 85 -23.5c28 0 51.5 3 70.5 9s32.167 12 39.5 18
v240h110v-436h80v-219h-99v125z" />
    <glyph glyph-name="uni04B8" unicode="&#x4b8;" horiz-adv-x="670" 
d="M457 0l-0.000976562 322.998c-12 -9.33301 -26 -17.166 -42 -23.499s-32.667 -11.5 -50 -15.5v-105h-102v96c-40 0.666992 -74.167 6.5 -102.5 17.5s-51.166 26.667 -68.499 47s-30 45.5 -38 75.5s-12 64.667 -12 104v181h122v-171c0 -45.333 7 -80.166 21 -104.499
s40 -39.5 78 -45.5v128h102v-125c36 8.66699 66.667 25.667 92 51v267h123v-700h-123z" />
    <glyph glyph-name="uni04B9" unicode="&#x4b9;" horiz-adv-x="582" 
d="M398 230c-9.33301 -5.33301 -19.999 -10.3311 -31.999 -14.998s-25.667 -8.66699 -41 -12v-94h-94v86c-60.667 3.33301 -106.334 19.5 -137.001 48.5s-46 75.167 -46 138.5v148h110v-133c0 -32.667 5.66699 -56.834 17 -72.501s30 -25.834 56 -30.501v93h94v-93
c17.333 2.66699 32.5 6.16699 45.5 10.5s22.167 8.5 27.5 12.5v213h110v-530h-110v230z" />
    <glyph glyph-name="uni04BA" unicode="&#x4ba;" horiz-adv-x="660" 
d="M213 700l-0.00195312 -277.998c17.333 11.333 41.333 21.666 72 30.999s67.334 14 110.001 14c76.667 0 133.334 -18.5 170.001 -55.5s55 -95.833 55 -176.5v-235h-123v225c0 48.667 -10.5 83.5 -31.5 104.5s-55.5 31.5 -103.5 31.5c-36 0 -66 -4.33301 -90 -13
s-43.667 -18.334 -59 -29.001v-319h-123v700h123z" />
    <glyph glyph-name="uni04BB" unicode="&#x4bb;" horiz-adv-x="612" 
d="M70 0l0.00195312 699.997h110v-256c6 12 14.167 23.833 24.5 35.5s22.666 22 36.999 31s30.666 16.333 48.999 22s38.5 8.5 60.5 8.5c66 0 115.167 -17.667 147.5 -53s48.5 -86.333 48.5 -153v-335h-110v310c0 44.667 -9.33301 78.334 -28 101.001s-50 34 -94 34
c-24 0 -44.5 -3.83301 -61.5 -11.5s-31 -17.667 -42 -30s-19 -26.666 -24 -42.999s-7.5 -33.166 -7.5 -50.499v-310h-110z" />
    <glyph glyph-name="uni04C0" unicode="&#x4c0;" horiz-adv-x="323" 
d="M100 700h120v-700h-120v700z" />
    <glyph glyph-name="uni04C3" unicode="&#x4c3;" horiz-adv-x="668" 
d="M90 700l123 0.00292969v-296h94l192 296h137l-207 -301c23.333 -4 45.333 -11.167 66 -21.5s38.667 -23.833 54 -40.5s27.5 -36.667 36.5 -60s13.5 -50 13.5 -80v-205c0 -30 -3.66699 -57.333 -11 -82s-19.333 -45.834 -36 -63.501s-38 -31.334 -64 -41.001
s-58 -14.5 -96 -14.5h-44v96h31c37.333 0 63.333 8.66699 78 26s22 44.666 22 81.999v180c0 45.333 -12 78.833 -36 100.5s-57 32.5 -99 32.5h-131v-308h-123v700z" />
    <glyph glyph-name="uni04C4" unicode="&#x4c4;" horiz-adv-x="558" 
d="M295 -106c5.33301 -1.33301 10.666 -2.33398 15.999 -3.00098s10.666 -1 15.999 -1c21.333 0 36.5 8.66699 45.5 26s13.5 47 13.5 89v105c0 40 -9.66699 69.167 -29 87.5s-46.666 27.5 -81.999 27.5h-94v-225h-111v530h111v-215h74l148 215h122l-163 -225
c44 -9.33301 77.5 -29 100.5 -59s34.5 -71 34.5 -123v-140c0 -65.333 -11.667 -113.166 -35 -143.499s-61.666 -45.5 -114.999 -45.5c-8 0 -16.5 0.5 -25.5 1.5s-17.833 2.5 -26.5 4.5v94z" />
    <glyph glyph-name="uni04C7" unicode="&#x4c7;" horiz-adv-x="760" 
d="M90 700l123 0.000976562v-288h334v288h123v-700c0 -34.667 -3.16699 -65 -9.5 -91s-17.333 -47.833 -33 -65.5s-36.167 -30.834 -61.5 -39.501s-57 -13 -95 -13h-23v100h17c31.333 0 52.833 8.16699 64.5 24.5s17.5 44.5 17.5 84.5v308h-334v-308h-123v700z" />
    <glyph glyph-name="uni04C8" unicode="&#x4c8;" horiz-adv-x="610" 
d="M70 530l110 -0.000976562v-213h250v213h110v-547c0 -65.333 -11.667 -113.166 -35 -143.499s-61.333 -45.5 -114 -45.5c-17.333 0 -35 2 -53 6v94c6 -1.33301 11.667 -2.33301 17 -3s10.333 -1 15 -1c22 0 37.5 8.66699 46.5 26s13.5 47 13.5 89v218h-250v-223h-110v530z
" />
    <glyph glyph-name="uni04CB" unicode="&#x4cb;" horiz-adv-x="675" 
d="M375 104h87.001v194c-17.333 -11.333 -41.166 -21.5 -71.499 -30.5s-65.5 -13.5 -105.5 -13.5c-79.333 0 -137.5 18.333 -174.5 55s-55.5 95.334 -55.5 176.001v215h123v-205c0 -48.667 10.5 -83.334 31.5 -104.001s54.5 -31 100.5 -31
c37.333 0 68.166 4.33301 92.499 13s44.166 18 59.499 28v299h123v-700h-98v-130h-112v234z" />
    <glyph glyph-name="uni04CC" unicode="&#x4cc;" horiz-adv-x="562" 
d="M310 89l68 -0.000976562v120c-15.333 -9.33301 -33.5 -17.5 -54.5 -24.5s-47.833 -10.5 -80.5 -10.5c-64 0 -112.5 14.5 -145.5 43.5s-49.5 77.167 -49.5 144.5v168h110v-153c0 -40.667 8.33301 -68.667 25 -84s45 -23 85 -23c28 0 51.5 2.83301 70.5 8.5
s32.167 11.834 39.5 18.501v233h110v-530h-79v-125h-99v214z" />
    <glyph glyph-name="uni04CF" unicode="&#x4cf;" horiz-adv-x="260" 
d="M75 0v700h110v-700h-110z" />
    <glyph glyph-name="uni04D0" unicode="&#x4d0;" horiz-adv-x="683" 
d="M478 158h-284l-59 -158h-120l265 700h120l265 -700h-128zM233 262h206l-102 288zM341 747c-62 0 -107.5 13.667 -136.5 41s-43.5 67 -43.5 119h110c0 -30.667 5.83301 -52.334 17.5 -65.001s29.167 -19 52.5 -19s40.833 6.33301 52.5 19s17.5 34.334 17.5 65.001h110
c0 -52 -14.5 -91.667 -43.5 -119s-74.5 -41 -136.5 -41z" />
    <glyph glyph-name="uni04D1" unicode="&#x4d1;" horiz-adv-x="570" 
d="M225 -11c-28.667 0 -54.167 4.16992 -76.5 12.5029s-41.166 20 -56.499 35s-27 32.5 -35 52.5s-12 42 -12 66c0 52.667 15.667 91.834 47 117.501s77.333 38.5 138 38.5h165v29c0 40 -8.83301 67.5 -26.5 82.5s-45.5 22.5 -83.5 22.5c-34 0 -59 -5.33301 -75 -16
s-25.333 -25.334 -28 -44.001h-107c1.33301 22.667 7.16602 43.5 17.499 62.5s24.666 35.5 42.999 49.5s40.5 24.833 66.5 32.5s55.333 11.5 88 11.5s62.167 -3.66699 88.5 -11s48.833 -18.833 67.5 -34.5s33.167 -35.834 43.5 -60.501s15.5 -54.334 15.5 -89.001v-211
c0 -28 0.333008 -52.5 1 -73.5s2.33398 -41.5 5.00098 -61.5h-100c-2 15.333 -3.5 28.333 -4.5 39s-1.5 24 -1.5 40c-12.667 -24.667 -34.5 -45.834 -65.5 -63.501s-69.167 -26.5 -114.5 -26.5zM255 85.0029c18.667 0 36.499 2.5 53.499 7.5s31.833 12.333 44.5 22
s22.834 21.667 30.501 36s11.5 30.833 11.5 49.5v29h-145c-28 0 -50.5 -6 -67.5 -18s-25.5 -29.667 -25.5 -53c0 -22 7.83301 -39.667 23.5 -53s40.5 -20 74.5 -20zM289.999 591.003c-55.333 0 -95.833 12.167 -121.5 36.5s-38.5 58.833 -38.5 103.5h102
c0 -24 4.83301 -41.333 14.5 -52s24.167 -16 43.5 -16s33.833 5.33301 43.5 16s14.5 28 14.5 52h102c0 -44.667 -13 -79.167 -39 -103.5s-66.333 -36.5 -121 -36.5z" />
    <glyph glyph-name="uni04D2" unicode="&#x4d2;" horiz-adv-x="683" 
d="M478 158h-284l-59 -158h-120l265 700h120l265 -700h-128zM233 262h206l-102 288zM226 755c-20.667 0 -37.5 6.5 -50.5 19.5s-19.5 29.833 -19.5 50.5s6.5 37.5 19.5 50.5s29.833 19.5 50.5 19.5s37.5 -6.5 50.5 -19.5s19.5 -29.833 19.5 -50.5s-6.5 -37.5 -19.5 -50.5
s-29.833 -19.5 -50.5 -19.5zM456 755c-20.667 0 -37.5 6.5 -50.5 19.5s-19.5 29.833 -19.5 50.5s6.5 37.5 19.5 50.5s29.833 19.5 50.5 19.5s37.5 -6.5 50.5 -19.5s19.5 -29.833 19.5 -50.5s-6.5 -37.5 -19.5 -50.5s-29.833 -19.5 -50.5 -19.5z" />
    <glyph glyph-name="uni04D3" unicode="&#x4d3;" horiz-adv-x="570" 
d="M225 -11c-28.667 0 -54.167 4.16992 -76.5 12.5029s-41.166 20 -56.499 35s-27 32.5 -35 52.5s-12 42 -12 66c0 52.667 15.667 91.834 47 117.501s77.333 38.5 138 38.5h165v29c0 40 -8.83301 67.5 -26.5 82.5s-45.5 22.5 -83.5 22.5c-34 0 -59 -5.33301 -75 -16
s-25.333 -25.334 -28 -44.001h-107c1.33301 22.667 7.16602 43.5 17.499 62.5s24.666 35.5 42.999 49.5s40.5 24.833 66.5 32.5s55.333 11.5 88 11.5s62.167 -3.66699 88.5 -11s48.833 -18.833 67.5 -34.5s33.167 -35.834 43.5 -60.501s15.5 -54.334 15.5 -89.001v-211
c0 -28 0.333008 -52.5 1 -73.5s2.33398 -41.5 5.00098 -61.5h-100c-2 15.333 -3.5 28.333 -4.5 39s-1.5 24 -1.5 40c-12.667 -24.667 -34.5 -45.834 -65.5 -63.501s-69.167 -26.5 -114.5 -26.5zM255 85.0029c18.667 0 36.499 2.5 53.499 7.5s31.833 12.333 44.5 22
s22.834 21.667 30.501 36s11.5 30.833 11.5 49.5v29h-145c-28 0 -50.5 -6 -67.5 -18s-25.5 -29.667 -25.5 -53c0 -22 7.83301 -39.667 23.5 -53s40.5 -20 74.5 -20zM180.999 594.003c-19.333 0 -35.166 6.16699 -47.499 18.5s-18.5 28.166 -18.5 47.499
s6.16699 35.166 18.5 47.499s28.166 18.5 47.499 18.5s35.166 -6.16699 47.499 -18.5s18.5 -28.166 18.5 -47.499s-6.16699 -35.166 -18.5 -47.499s-28.166 -18.5 -47.499 -18.5zM388.999 594.003c-19.333 0 -35.166 6.16699 -47.499 18.5s-18.5 28.166 -18.5 47.499
s6.16699 35.166 18.5 47.499s28.166 18.5 47.499 18.5s35.166 -6.16699 47.499 -18.5s18.5 -28.166 18.5 -47.499s-6.16699 -35.166 -18.5 -47.499s-28.166 -18.5 -47.499 -18.5z" />
    <glyph glyph-name="uni04D4" unicode="&#x4d4;" horiz-adv-x="975" 
d="M420 700h500v-104h-350v-184h320v-104h-320v-204h350v-104h-470v158h-220l-92 -158h-128zM450 262v288l-161 -288h161z" />
    <glyph glyph-name="uni04D5" unicode="&#x4d5;" horiz-adv-x="935" 
d="M225 -11c-28.667 0 -54.166 4.16699 -76.499 12.5s-41.166 20 -56.499 35s-27 32.5 -35 52.5s-12 42 -12 66c0 52.667 15.667 91.5 47 116.5s77.333 37.5 138 37.5h165v31c0 40 -8.83301 67.5 -26.5 82.5s-45.5 22.5 -83.5 22.5c-34 0 -59 -5.33301 -75 -16
s-25.333 -25.334 -28 -44.001h-107c1.33301 22.667 7.16602 43.5 17.499 62.5s24.666 35.5 42.999 49.5s40.5 24.833 66.5 32.5s55.333 11.5 88 11.5c40 0 75.5 -7.16699 106.5 -21.5s54.167 -34.5 69.5 -60.5c21.333 30 47.166 51.167 77.499 63.5
s64.166 18.5 101.499 18.5c80.667 0 142.5 -21.667 185.5 -65s64.5 -105.333 64.5 -186v-62h-388c0.666992 -26 5.16699 -48 13.5 -66s19.333 -32.667 33 -44s29.334 -19.666 47.001 -24.999s35.834 -8 54.501 -8c38 0 65.833 6 83.5 18s29.834 27.667 36.501 47h110
c-10.667 -52 -36.834 -91.833 -78.501 -119.5s-92.167 -41.5 -151.5 -41.5c-46 0 -86.833 8.66699 -122.5 26s-63.167 43 -82.5 77c-19.333 -32.667 -47.5 -58 -84.5 -76s-83.833 -27 -140.5 -27zM255.001 85c18.667 0 36.499 2.50098 53.499 7.50098
s31.833 12.167 44.5 21.5s22.834 21.166 30.501 35.499s11.5 30.833 11.5 49.5v30h-145c-28 0 -50.5 -6 -67.5 -18s-25.5 -29.667 -25.5 -53c0 -22 7.83301 -39.667 23.5 -53s40.5 -20 74.5 -20zM650 445.001c-18.667 0 -36.5 -2.33008 -53.5 -6.99707
s-32 -12.334 -45 -23.001s-23.5 -24.334 -31.5 -41.001s-12.333 -37.334 -13 -62.001h278c-0.666992 26 -4.5 47.5 -11.5 64.5s-16.5 30.5 -28.5 40.5s-26.167 17.167 -42.5 21.5s-33.833 6.5 -52.5 6.5z" />
    <glyph glyph-name="uni04D6" unicode="&#x4d6;" horiz-adv-x="615" 
d="M90 700h470v-104h-350v-184h320v-104h-320v-204h350v-104h-470v700zM325 745c-62 0 -107.5 13.667 -136.5 41s-43.5 67 -43.5 119h110c0 -30.667 5.83301 -52.334 17.5 -65.001s29.167 -19 52.5 -19s40.833 6.33301 52.5 19s17.5 34.334 17.5 65.001h110
c0 -52 -14.5 -91.667 -43.5 -119s-74.5 -41 -136.5 -41z" />
    <glyph glyph-name="uni04D7" unicode="&#x4d7;" horiz-adv-x="583" 
d="M300 -11c-35.333 0 -68.6689 5.49805 -100.002 16.498s-58.833 27.667 -82.5 50s-42.5 50.5 -56.5 84.5s-21 74 -21 120v20c0 44 6.66699 82.333 20 115s31.5 59.834 54.5 81.501s49.5 37.834 79.5 48.501s62 16 96 16c80.667 0 142.5 -21.667 185.5 -65
s64.5 -105.333 64.5 -186v-56h-388c0.666992 -27.333 5.16699 -50.5 13.5 -69.5s19.333 -34.333 33 -46s29.334 -20.167 47.001 -25.5s35.834 -8 54.501 -8c38 0 65.833 6 83.5 18s29.834 27.667 36.501 47h110c-10.667 -52.667 -36.834 -92.667 -78.501 -120
s-92.167 -41 -151.5 -41zM294.997 444.998c-18.667 0 -36.5 -2.33594 -53.5 -7.00293s-32 -12.167 -45 -22.5s-23.5 -23.666 -31.5 -39.999s-12.333 -36.166 -13 -59.499h278c-0.666992 24.667 -4.5 45.334 -11.5 62.001s-16.5 30 -28.5 40s-26.167 17 -42.5 21
s-33.833 6 -52.5 6zM290.997 589.995c-55.333 0 -95.833 12.167 -121.5 36.5s-38.5 58.833 -38.5 103.5h102c0 -24 4.83301 -41.333 14.5 -52s24.167 -16 43.5 -16s33.833 5.33301 43.5 16s14.5 28 14.5 52h102c0 -44.667 -13 -79.167 -39 -103.5s-66.333 -36.5 -121 -36.5z
" />
    <glyph glyph-name="uni04D8" unicode="&#x4d8;" horiz-adv-x="715" 
d="M341 -11c-44 0 -83.8281 6.83301 -119.495 20.5s-66.334 35 -92.001 64s-45.334 65.833 -59.001 110.5s-20.5 98.334 -20.5 161.001v57h480c-2 37.333 -8.33301 69 -19 95s-24.334 47 -41.001 63s-35.334 27.5 -56.001 34.5s-42.334 10.5 -65.001 10.5
c-36 0 -67.833 -9 -95.5 -27s-47.5 -47.333 -59.5 -88h-129c6.66699 36 18.5 67.833 35.5 95.5s37.833 50.667 62.5 69s52.5 32.333 83.5 42s64.5 14.5 100.5 14.5c42.667 0 83 -6.83301 121 -20.5s71.167 -34.5 99.5 -62.5s50.833 -63.833 67.5 -107.5s25 -95.5 25 -155.5
v-20c0 -62.667 -8.33301 -116.334 -25 -161.001s-39.5 -81.5 -68.5 -110.5s-62.833 -50.333 -101.5 -64s-80 -20.5 -124 -20.5zM342.005 95c24 0 46.8311 3.83496 68.498 11.502s41 20.167 58 37.5s30.833 39.666 41.5 66.999s17.334 61 20.001 101h-358
c2.66699 -40.667 8.66699 -74.834 18 -102.501s21.333 -50 36 -67s31.834 -29.167 51.501 -36.5s41.167 -11 64.5 -11z" />
    <glyph glyph-name="uni04D9" unicode="&#x4d9;" horiz-adv-x="583" 
d="M282 541c35.333 0 68.8311 -5.49707 100.498 -16.4971s59.334 -27.667 83.001 -50s42.5 -50.5 56.5 -84.5s21 -74 21 -120v-20c0 -44 -6.66699 -82.333 -20 -115s-31.333 -59.834 -54 -81.501s-49.334 -37.834 -80.001 -48.501s-63 -16 -97 -16
c-82 0 -144.5 21.667 -187.5 65s-64.5 105.333 -64.5 186v56h392c0 27.333 -4.5 50.666 -13.5 69.999s-20.667 35 -35 47s-30.333 20.667 -48 26s-35.5 8 -53.5 8c-36.667 0 -65 -5.83301 -85 -17.5s-34 -28.167 -42 -49.5h-105c10.667 53.333 36.834 93.5 78.501 120.5
s92.834 40.5 153.501 40.5zM145.998 214.003c0.666992 -24 4.66699 -44.332 12 -60.999s17.333 -30.167 30 -40.5s27.5 -17.833 44.5 -22.5s35.167 -7 54.5 -7c18 0 35.667 2.5 53 7.5s32.833 12.833 46.5 23.5s24.667 24.167 33 40.5s12.5 36.166 12.5 59.499h-286z" />
    <glyph glyph-name="uni04DA" unicode="&#x4da;" horiz-adv-x="715" 
d="M341 -11c-44 0 -83.8281 6.83301 -119.495 20.5s-66.334 35 -92.001 64s-45.334 65.833 -59.001 110.5s-20.5 98.334 -20.5 161.001v57h480c-2 37.333 -8.33301 69 -19 95s-24.334 47 -41.001 63s-35.334 27.5 -56.001 34.5s-42.334 10.5 -65.001 10.5
c-36 0 -67.833 -9 -95.5 -27s-47.5 -47.333 -59.5 -88h-129c6.66699 36 18.5 67.833 35.5 95.5s37.833 50.667 62.5 69s52.5 32.333 83.5 42s64.5 14.5 100.5 14.5c42.667 0 83 -6.83301 121 -20.5s71.167 -34.5 99.5 -62.5s50.833 -63.833 67.5 -107.5s25 -95.5 25 -155.5
v-20c0 -62.667 -8.33301 -116.334 -25 -161.001s-39.5 -81.5 -68.5 -110.5s-62.833 -50.333 -101.5 -64s-80 -20.5 -124 -20.5zM342.005 95c24 0 46.8311 3.83496 68.498 11.502s41 20.167 58 37.5s30.833 39.666 41.5 66.999s17.334 61 20.001 101h-358
c2.66699 -40.667 8.66699 -74.834 18 -102.501s21.333 -50 36 -67s31.834 -29.167 51.501 -36.5s41.167 -11 64.5 -11zM243.003 755.002c-20.667 0 -37.5 6.5 -50.5 19.5s-19.5 29.833 -19.5 50.5s6.5 37.5 19.5 50.5s29.833 19.5 50.5 19.5s37.5 -6.5 50.5 -19.5
s19.5 -29.833 19.5 -50.5s-6.5 -37.5 -19.5 -50.5s-29.833 -19.5 -50.5 -19.5zM473.003 755.002c-20.667 0 -37.5 6.5 -50.5 19.5s-19.5 29.833 -19.5 50.5s6.5 37.5 19.5 50.5s29.833 19.5 50.5 19.5s37.5 -6.5 50.5 -19.5s19.5 -29.833 19.5 -50.5s-6.5 -37.5 -19.5 -50.5
s-29.833 -19.5 -50.5 -19.5z" />
    <glyph glyph-name="uni04DB" unicode="&#x4db;" horiz-adv-x="583" 
d="M282 541c35.333 0 68.8311 -5.49707 100.498 -16.4971s59.334 -27.667 83.001 -50s42.5 -50.5 56.5 -84.5s21 -74 21 -120v-20c0 -44 -6.66699 -82.333 -20 -115s-31.333 -59.834 -54 -81.501s-49.334 -37.834 -80.001 -48.501s-63 -16 -97 -16
c-82 0 -144.5 21.667 -187.5 65s-64.5 105.333 -64.5 186v56h392c0 27.333 -4.5 50.666 -13.5 69.999s-20.667 35 -35 47s-30.333 20.667 -48 26s-35.5 8 -53.5 8c-36.667 0 -65 -5.83301 -85 -17.5s-34 -28.167 -42 -49.5h-105c10.667 53.333 36.834 93.5 78.501 120.5
s92.834 40.5 153.501 40.5zM145.998 214.003c0.666992 -24 4.66699 -44.332 12 -60.999s17.333 -30.167 30 -40.5s27.5 -17.833 44.5 -22.5s35.167 -7 54.5 -7c18 0 35.667 2.5 53 7.5s32.833 12.833 46.5 23.5s24.667 24.167 33 40.5s12.5 36.166 12.5 59.499h-286z
M176.998 594.004c-19.333 0 -35.166 6.16699 -47.499 18.5s-18.5 28.166 -18.5 47.499s6.16699 35.166 18.5 47.499s28.166 18.5 47.499 18.5s35.166 -6.16699 47.499 -18.5s18.5 -28.166 18.5 -47.499s-6.16699 -35.166 -18.5 -47.499s-28.166 -18.5 -47.499 -18.5z
M384.998 594.004c-19.333 0 -35.166 6.16699 -47.499 18.5s-18.5 28.166 -18.5 47.499s6.16699 35.166 18.5 47.499s28.166 18.5 47.499 18.5s35.166 -6.16699 47.499 -18.5s18.5 -28.166 18.5 -47.499s-6.16699 -35.166 -18.5 -47.499s-28.166 -18.5 -47.499 -18.5z" />
    <glyph glyph-name="uni04DC" unicode="&#x4dc;" horiz-adv-x="980" 
d="M275 364l-240 336h130l205 -293h60v293h120v-293h60l209 293h126l-240 -332l250 -368h-136l-209 313h-60v-313h-120v313h-60l-211 -313h-134zM375 755c-20.667 0 -37.5 6.5 -50.5 19.5s-19.5 29.833 -19.5 50.5s6.5 37.5 19.5 50.5s29.833 19.5 50.5 19.5
s37.5 -6.5 50.5 -19.5s19.5 -29.833 19.5 -50.5s-6.5 -37.5 -19.5 -50.5s-29.833 -19.5 -50.5 -19.5zM605 755c-20.667 0 -37.5 6.5 -50.5 19.5s-19.5 29.833 -19.5 50.5s6.5 37.5 19.5 50.5s29.833 19.5 50.5 19.5s37.5 -6.5 50.5 -19.5s19.5 -29.833 19.5 -50.5
s-6.5 -37.5 -19.5 -50.5s-29.833 -19.5 -50.5 -19.5z" />
    <glyph glyph-name="uni04DD" unicode="&#x4dd;" horiz-adv-x="807" 
d="M210 273l-180 257h126l144 -213h50v213h110v-213h50l156 213h114l-190 -252l200 -278h-124l-156 223h-50v-223h-110v223h-50l-150 -223h-130zM299 594c-19.333 0 -35.166 6.16699 -47.499 18.5s-18.5 28.166 -18.5 47.499s6.16699 35.166 18.5 47.499
s28.166 18.5 47.499 18.5s35.166 -6.16699 47.499 -18.5s18.5 -28.166 18.5 -47.499s-6.16699 -35.166 -18.5 -47.499s-28.166 -18.5 -47.499 -18.5zM507 594c-19.333 0 -35.166 6.16699 -47.499 18.5s-18.5 28.166 -18.5 47.499s6.16699 35.166 18.5 47.499
s28.166 18.5 47.499 18.5s35.166 -6.16699 47.499 -18.5s18.5 -28.166 18.5 -47.499s-6.16699 -35.166 -18.5 -47.499s-28.166 -18.5 -47.499 -18.5z" />
    <glyph glyph-name="uni04DE" unicode="&#x4de;" horiz-adv-x="649" 
d="M325 -11c-44 0 -82.8311 5.33105 -116.498 15.998s-62.334 25.667 -86.001 45s-42 42.5 -55 69.5s-20.5 57.167 -22.5 90.5h126c4 -34 19 -61.667 45 -83s62.333 -32 109 -32c52.667 0 91.5 9.33301 116.5 28s37.5 45.334 37.5 80.001c0 33.333 -12 59.833 -36 79.5
s-63.333 29.5 -118 29.5h-85v96h85c42.667 0 74.834 8.83301 96.501 26.5s32.5 41.834 32.5 72.501c0 30 -10.167 53.833 -30.5 71.5s-53.166 26.5 -98.499 26.5c-44.667 0 -78.167 -8.66699 -100.5 -26s-35.166 -42 -38.499 -74h-126c4.66699 62.667 28.667 112.667 72 150
s107.666 56 192.999 56s149.166 -17.667 191.499 -53s63.5 -84 63.5 -146c0 -36.667 -10.333 -67.5 -31 -92.5s-48.334 -43.167 -83.001 -54.5c42.667 -10 76.5 -29 101.5 -57s37.5 -64.667 37.5 -110c0 -30.667 -5.83301 -58.834 -17.5 -84.501
s-29.334 -47.667 -53.001 -66s-53 -32.666 -88 -42.999s-75.5 -15.5 -121.5 -15.5zM209.002 754.998c-20.667 0 -37.5 6.5 -50.5 19.5s-19.5 29.833 -19.5 50.5s6.5 37.5 19.5 50.5s29.833 19.5 50.5 19.5s37.5 -6.5 50.5 -19.5s19.5 -29.833 19.5 -50.5
s-6.5 -37.5 -19.5 -50.5s-29.833 -19.5 -50.5 -19.5zM439.002 754.998c-20.667 0 -37.5 6.5 -50.5 19.5s-19.5 29.833 -19.5 50.5s6.5 37.5 19.5 50.5s29.833 19.5 50.5 19.5s37.5 -6.5 50.5 -19.5s19.5 -29.833 19.5 -50.5s-6.5 -37.5 -19.5 -50.5
s-29.833 -19.5 -50.5 -19.5z" />
    <glyph glyph-name="uni04DF" unicode="&#x4df;" horiz-adv-x="535" 
d="M265 -11c-72 0 -127.499 14.8311 -166.499 44.498s-60.167 71.834 -63.5 126.501h112c3.33301 -24 14 -42.5 32 -55.5s46 -19.5 84 -19.5c45.333 0 76.666 7.33301 93.999 22s26 33 26 55c0 20 -7.5 35.833 -22.5 47.5s-41.167 17.5 -78.5 17.5h-87v86h80
c30.667 0 53 6.33301 67 19s21 28.667 21 48c0 17.333 -7.33301 32.5 -22 45.5s-40 19.5 -76 19.5c-38.667 0 -65.5 -6.33301 -80.5 -19s-24.167 -29.667 -27.5 -51h-112c3.33301 50.667 23.833 91 61.5 121s90.5 45 158.5 45c72.667 0 125.834 -14.333 159.501 -43
s50.5 -66 50.5 -112c0 -25.333 -6.16699 -47.666 -18.5 -66.999s-32.5 -34 -60.5 -44c37.333 -9.33301 63.166 -25 77.499 -47s21.5 -47.333 21.5 -76c0 -22.667 -4.66699 -44 -14 -64s-23.5 -37.333 -42.5 -52s-43 -26.167 -72 -34.5s-62.833 -12.5 -101.5 -12.5z
M164.001 593.998c-19.333 0 -35.166 6.16699 -47.499 18.5s-18.5 28.166 -18.5 47.499s6.16699 35.166 18.5 47.499s28.166 18.5 47.499 18.5s35.166 -6.16699 47.499 -18.5s18.5 -28.166 18.5 -47.499s-6.16699 -35.166 -18.5 -47.499s-28.166 -18.5 -47.499 -18.5z
M372.001 593.998c-19.333 0 -35.166 6.16699 -47.499 18.5s-18.5 28.166 -18.5 47.499s6.16699 35.166 18.5 47.499s28.166 18.5 47.499 18.5s35.166 -6.16699 47.499 -18.5s18.5 -28.166 18.5 -47.499s-6.16699 -35.166 -18.5 -47.499s-28.166 -18.5 -47.499 -18.5z" />
    <glyph glyph-name="uni04E2" unicode="&#x4e2;" horiz-adv-x="760" 
d="M90 700h120v-510l344 510h116v-700h-120v510l-344 -510h-116v700zM240 872h280v-84h-280v84z" />
    <glyph glyph-name="uni04E3" unicode="&#x4e3;" horiz-adv-x="610" 
d="M70 530h110v-375l255 375h105v-530h-110v375l-255 -375h-105v530zM165 702h280v-84h-280v84z" />
    <glyph glyph-name="uni04E4" unicode="&#x4e4;" horiz-adv-x="760" 
d="M90 700h120v-510l344 510h116v-700h-120v510l-344 -510h-116v700zM265 755c-20.667 0 -37.5 6.5 -50.5 19.5s-19.5 29.833 -19.5 50.5s6.5 37.5 19.5 50.5s29.833 19.5 50.5 19.5s37.5 -6.5 50.5 -19.5s19.5 -29.833 19.5 -50.5s-6.5 -37.5 -19.5 -50.5
s-29.833 -19.5 -50.5 -19.5zM495 755c-20.667 0 -37.5 6.5 -50.5 19.5s-19.5 29.833 -19.5 50.5s6.5 37.5 19.5 50.5s29.833 19.5 50.5 19.5s37.5 -6.5 50.5 -19.5s19.5 -29.833 19.5 -50.5s-6.5 -37.5 -19.5 -50.5s-29.833 -19.5 -50.5 -19.5z" />
    <glyph glyph-name="uni04E5" unicode="&#x4e5;" horiz-adv-x="610" 
d="M70 530h110v-375l255 375h105v-530h-110v375l-255 -375h-105v530zM201 594c-19.333 0 -35.166 6.16699 -47.499 18.5s-18.5 28.166 -18.5 47.499s6.16699 35.166 18.5 47.499s28.166 18.5 47.499 18.5s35.166 -6.16699 47.499 -18.5s18.5 -28.166 18.5 -47.499
s-6.16699 -35.166 -18.5 -47.499s-28.166 -18.5 -47.499 -18.5zM409 594c-19.333 0 -35.166 6.16699 -47.499 18.5s-18.5 28.166 -18.5 47.499s6.16699 35.166 18.5 47.499s28.166 18.5 47.499 18.5s35.166 -6.16699 47.499 -18.5s18.5 -28.166 18.5 -47.499
s-6.16699 -35.166 -18.5 -47.499s-28.166 -18.5 -47.499 -18.5z" />
    <glyph glyph-name="uni04E6" unicode="&#x4e6;" horiz-adv-x="750" 
d="M375 -11c-42.667 0 -83.334 6.66699 -122.001 20s-72.667 34.166 -102 62.499s-52.666 65 -69.999 110s-26 99.5 -26 163.5v20c0 61.333 8.66699 113.833 26 157.5s40.666 79.5 69.999 107.5s63.333 48.5 102 61.5s79.334 19.5 122.001 19.5s83.334 -6.5 122.001 -19.5
s72.667 -33.5 102 -61.5s52.666 -63.833 69.999 -107.5s26 -96.167 26 -157.5v-20c0 -64 -8.66699 -118.5 -26 -163.5s-40.666 -81.667 -69.999 -110s-63.333 -49.166 -102 -62.499s-79.334 -20 -122.001 -20zM375 95c24.667 0 48.667 4.33301 72 13s44 22.834 62 42.501
s32.5 45.5 43.5 77.5s16.5 71 16.5 117v20c0 44 -5.5 81.167 -16.5 111.5s-25.5 55 -43.5 74s-38.667 32.833 -62 41.5s-47.333 13 -72 13c-25.333 0 -49.666 -4.33301 -72.999 -13s-44 -22.5 -62 -41.5s-32.333 -43.667 -43 -74s-16 -67.5 -16 -111.5v-20
c0 -46 5.33301 -85 16 -117s25 -57.833 43 -77.5s38.667 -33.834 62 -42.501s47.666 -13 72.999 -13zM260 755c-20.667 0 -37.5 6.5 -50.5 19.5s-19.5 29.833 -19.5 50.5s6.5 37.5 19.5 50.5s29.833 19.5 50.5 19.5s37.5 -6.5 50.5 -19.5s19.5 -29.833 19.5 -50.5
s-6.5 -37.5 -19.5 -50.5s-29.833 -19.5 -50.5 -19.5zM490 755c-20.667 0 -37.5 6.5 -50.5 19.5s-19.5 29.833 -19.5 50.5s6.5 37.5 19.5 50.5s29.833 19.5 50.5 19.5s37.5 -6.5 50.5 -19.5s19.5 -29.833 19.5 -50.5s-6.5 -37.5 -19.5 -50.5s-29.833 -19.5 -50.5 -19.5z" />
    <glyph glyph-name="uni04E7" unicode="&#x4e7;" horiz-adv-x="600" 
d="M300 -11c-36.667 0 -70.834 5.83301 -102.501 17.5s-59.167 28.834 -82.5 51.501s-41.666 50.834 -54.999 84.501s-20 72.834 -20 117.501v20c0 42 6.66699 79.167 20 111.5s31.666 59.666 54.999 81.999s50.833 39.166 82.5 50.499s65.834 17 102.501 17
s70.834 -5.66699 102.501 -17s59.167 -28.166 82.5 -50.499s41.666 -49.666 54.999 -81.999s20 -69.5 20 -111.5v-20c0 -44.667 -6.66699 -83.834 -20 -117.501s-31.666 -61.834 -54.999 -84.501s-50.833 -39.834 -82.5 -51.501s-65.834 -17.5 -102.501 -17.5zM300 85
c19.333 0 37.833 3.33301 55.5 10s33.334 17 47.001 31s24.667 32 33 54s12.5 48.667 12.5 80v20c0 28.667 -4.16699 53.334 -12.5 74.001s-19.333 37.667 -33 51s-29.334 23.333 -47.001 30s-36.167 10 -55.5 10s-37.833 -3.33301 -55.5 -10s-33.334 -16.667 -47.001 -30
s-24.667 -30.333 -33 -51s-12.5 -45.334 -12.5 -74.001v-20c0 -31.333 4.16699 -58 12.5 -80s19.333 -40 33 -54s29.334 -24.333 47.001 -31s36.167 -10 55.5 -10zM196 594c-19.333 0 -35.166 6.16699 -47.499 18.5s-18.5 28.166 -18.5 47.499s6.16699 35.166 18.5 47.499
s28.166 18.5 47.499 18.5s35.166 -6.16699 47.499 -18.5s18.5 -28.166 18.5 -47.499s-6.16699 -35.166 -18.5 -47.499s-28.166 -18.5 -47.499 -18.5zM404 594c-19.333 0 -35.166 6.16699 -47.499 18.5s-18.5 28.166 -18.5 47.499s6.16699 35.166 18.5 47.499
s28.166 18.5 47.499 18.5s35.166 -6.16699 47.499 -18.5s18.5 -28.166 18.5 -47.499s-6.16699 -35.166 -18.5 -47.499s-28.166 -18.5 -47.499 -18.5z" />
    <glyph glyph-name="uni04E8" unicode="&#x4e8;" horiz-adv-x="757" 
d="M378 -11c-42.667 0 -83.5 6.66699 -122.5 20s-73.333 34.5 -103 63.5s-53.334 65.833 -71.001 110.5s-26.5 98.667 -26.5 162v20c0 60.667 8.83301 112.834 26.5 156.501s41.334 79.5 71.001 107.5s64 48.667 103 62s79.833 20 122.5 20s83.5 -6.66699 122.5 -20
s73.5 -34 103.5 -62s53.833 -63.833 71.5 -107.5s26.5 -95.834 26.5 -156.501v-20c0 -63.333 -8.83301 -117.333 -26.5 -162s-41.5 -81.5 -71.5 -110.5s-64.5 -50.167 -103.5 -63.5s-79.833 -20 -122.5 -20zM378 95c23.333 0 46 3.66699 68 11s41.667 19.333 59 36
s31.833 38.334 43.5 65.001s19.167 59.334 22.5 98.001h-386c3.33301 -38.667 10.833 -71.334 22.5 -98.001s26.167 -48.334 43.5 -65.001s37 -28.667 59 -36s44.667 -11 68 -11zM378 605c-23.333 0 -45.8291 -3.66699 -67.4961 -11s-41.334 -19 -59.001 -35
s-32.334 -36.667 -44.001 -62s-19.167 -56 -22.5 -92h386c-3.33301 36 -10.833 66.667 -22.5 92s-26.334 46 -44.001 62s-37.334 27.667 -59.001 35s-44.167 11 -67.5 11z" />
    <glyph glyph-name="uni04E9" unicode="&#x4e9;" horiz-adv-x="607" 
d="M303 -11c-35.333 0 -68.833 5.49902 -100.5 16.499s-59.5 27.833 -83.5 50.5s-43.167 50.834 -57.5 84.501s-21.5 73.5 -21.5 119.5v20c0 42.667 7.16699 80.334 21.5 113.001s33.5 60 57.5 82s51.833 38.5 83.5 49.5s65.167 16.5 100.5 16.5s69 -5.5 101 -16.5
s60 -27.5 84 -49.5s43.167 -49.333 57.5 -82s21.5 -70.334 21.5 -113.001v-20c0 -45.333 -7.16699 -85 -21.5 -119s-33.5 -62.333 -57.5 -85s-52 -39.5 -84 -50.5s-65.667 -16.5 -101 -16.5zM303 84.999c18.667 0 36.5 2.83301 53.5 8.5s32.167 14.5 45.5 26.5
s24.5 27.333 33.5 46s14.833 41 17.5 67h-299c2 -26 7.5 -48.333 16.5 -67s20.167 -34 33.5 -46s28.5 -20.833 45.5 -26.5s34.833 -8.5 53.5 -8.5zM303 444.999c-36 0 -68.001 -10.668 -96.001 -32.001s-45.333 -54.333 -52 -99h296c-3.33301 22 -9.5 41.333 -18.5 58
s-20.167 30.334 -33.5 41.001s-28.166 18.667 -44.499 24s-33.5 8 -51.5 8z" />
    <glyph glyph-name="uni04EA" unicode="&#x4ea;" horiz-adv-x="757" 
d="M378 -11c-42.667 0 -83.5 6.66699 -122.5 20s-73.333 34.5 -103 63.5s-53.334 65.833 -71.001 110.5s-26.5 98.667 -26.5 162v20c0 60.667 8.83301 112.834 26.5 156.501s41.334 79.5 71.001 107.5s64 48.667 103 62s79.833 20 122.5 20s83.5 -6.66699 122.5 -20
s73.5 -34 103.5 -62s53.833 -63.833 71.5 -107.5s26.5 -95.834 26.5 -156.501v-20c0 -63.333 -8.83301 -117.333 -26.5 -162s-41.5 -81.5 -71.5 -110.5s-64.5 -50.167 -103.5 -63.5s-79.833 -20 -122.5 -20zM378 95c23.333 0 46 3.66699 68 11s41.667 19.333 59 36
s31.833 38.334 43.5 65.001s19.167 59.334 22.5 98.001h-386c3.33301 -38.667 10.833 -71.334 22.5 -98.001s26.167 -48.334 43.5 -65.001s37 -28.667 59 -36s44.667 -11 68 -11zM378 605c-23.333 0 -45.8291 -3.66699 -67.4961 -11s-41.334 -19 -59.001 -35
s-32.334 -36.667 -44.001 -62s-19.167 -56 -22.5 -92h386c-3.33301 36 -10.833 66.667 -22.5 92s-26.334 46 -44.001 62s-37.334 27.667 -59.001 35s-44.167 11 -67.5 11zM263.004 755c-20.667 0 -37.5 6.5 -50.5 19.5s-19.5 29.833 -19.5 50.5s6.5 37.5 19.5 50.5
s29.833 19.5 50.5 19.5s37.5 -6.5 50.5 -19.5s19.5 -29.833 19.5 -50.5s-6.5 -37.5 -19.5 -50.5s-29.833 -19.5 -50.5 -19.5zM493.004 755c-20.667 0 -37.5 6.5 -50.5 19.5s-19.5 29.833 -19.5 50.5s6.5 37.5 19.5 50.5s29.833 19.5 50.5 19.5s37.5 -6.5 50.5 -19.5
s19.5 -29.833 19.5 -50.5s-6.5 -37.5 -19.5 -50.5s-29.833 -19.5 -50.5 -19.5z" />
    <glyph glyph-name="uni04EB" unicode="&#x4eb;" horiz-adv-x="607" 
d="M303 -11c-35.333 0 -68.833 5.49902 -100.5 16.499s-59.5 27.833 -83.5 50.5s-43.167 50.834 -57.5 84.501s-21.5 73.5 -21.5 119.5v20c0 42.667 7.16699 80.334 21.5 113.001s33.5 60 57.5 82s51.833 38.5 83.5 49.5s65.167 16.5 100.5 16.5s69 -5.5 101 -16.5
s60 -27.5 84 -49.5s43.167 -49.333 57.5 -82s21.5 -70.334 21.5 -113.001v-20c0 -45.333 -7.16699 -85 -21.5 -119s-33.5 -62.333 -57.5 -85s-52 -39.5 -84 -50.5s-65.667 -16.5 -101 -16.5zM303 84.999c18.667 0 36.5 2.83301 53.5 8.5s32.167 14.5 45.5 26.5
s24.5 27.333 33.5 46s14.833 41 17.5 67h-299c2 -26 7.5 -48.333 16.5 -67s20.167 -34 33.5 -46s28.5 -20.833 45.5 -26.5s34.833 -8.5 53.5 -8.5zM303 444.999c-36 0 -68.001 -10.668 -96.001 -32.001s-45.333 -54.333 -52 -99h296c-3.33301 22 -9.5 41.333 -18.5 58
s-20.167 30.334 -33.5 41.001s-28.166 18.667 -44.499 24s-33.5 8 -51.5 8zM198.999 593.998c-19.333 0 -35.166 6.16699 -47.499 18.5s-18.5 28.166 -18.5 47.499s6.16699 35.166 18.5 47.499s28.166 18.5 47.499 18.5s35.166 -6.16699 47.499 -18.5
s18.5 -28.166 18.5 -47.499s-6.16699 -35.166 -18.5 -47.499s-28.166 -18.5 -47.499 -18.5zM406.999 593.998c-19.333 0 -35.166 6.16699 -47.499 18.5s-18.5 28.166 -18.5 47.499s6.16699 35.166 18.5 47.499s28.166 18.5 47.499 18.5s35.166 -6.16699 47.499 -18.5
s18.5 -28.166 18.5 -47.499s-6.16699 -35.166 -18.5 -47.499s-28.166 -18.5 -47.499 -18.5z" />
    <glyph glyph-name="uni04EE" unicode="&#x4ee;" horiz-adv-x="683" 
d="M205 -11c-7.33301 0 -14.501 0.168945 -21.501 0.501953s-13.167 0.833008 -18.5 1.5v107c5.33301 -0.666992 11.5 -1.33398 18.5 -2.00098s14.167 -1 21.5 -1c13.333 0 25 1 35 3s18.667 5.66699 26 11s14 12.666 20 21.999s11.667 21 17 35l-288 534h140l211 -405
l175 405h124l-246 -552c-12.667 -28 -25.5 -52.167 -38.5 -72.5s-27.667 -36.833 -44 -49.5s-35.166 -22 -56.499 -28s-46.333 -9 -75 -9zM201.999 872.002h280v-84h-280v84z" />
    <glyph glyph-name="uni04EF" unicode="&#x4ef;" horiz-adv-x="573" 
d="M155 -211c-10 0 -19.998 1 -29.998 3v96c10 -2 20 -3 30 -3c11.333 0 20.833 1.83301 28.5 5.5s14.667 10 21 19s12.666 20.833 18.999 35.5s13.5 33 21.5 55l-225 530h120l162 -410l146 410h112l-205 -530c-14.667 -37.333 -28.334 -69.333 -41.001 -96
s-26.5 -48.5 -41.5 -65.5s-31.833 -29.5 -50.5 -37.5s-41 -12 -67 -12zM147.002 702h280v-84h-280v84z" />
    <glyph glyph-name="uni04F0" unicode="&#x4f0;" horiz-adv-x="683" 
d="M205 -11c-7.33301 0 -14.501 0.168945 -21.501 0.501953s-13.167 0.833008 -18.5 1.5v107c5.33301 -0.666992 11.5 -1.33398 18.5 -2.00098s14.167 -1 21.5 -1c13.333 0 25 1 35 3s18.667 5.66699 26 11s14 12.666 20 21.999s11.667 21 17 35l-288 534h140l211 -405
l175 405h124l-246 -552c-12.667 -28 -25.5 -52.167 -38.5 -72.5s-27.667 -36.833 -44 -49.5s-35.166 -22 -56.499 -28s-46.333 -9 -75 -9zM227.999 755.002c-20.667 0 -37.5 6.5 -50.5 19.5s-19.5 29.833 -19.5 50.5s6.5 37.5 19.5 50.5s29.833 19.5 50.5 19.5
s37.5 -6.5 50.5 -19.5s19.5 -29.833 19.5 -50.5s-6.5 -37.5 -19.5 -50.5s-29.833 -19.5 -50.5 -19.5zM457.999 755.002c-20.667 0 -37.5 6.5 -50.5 19.5s-19.5 29.833 -19.5 50.5s6.5 37.5 19.5 50.5s29.833 19.5 50.5 19.5s37.5 -6.5 50.5 -19.5s19.5 -29.833 19.5 -50.5
s-6.5 -37.5 -19.5 -50.5s-29.833 -19.5 -50.5 -19.5z" />
    <glyph glyph-name="uni04F1" unicode="&#x4f1;" horiz-adv-x="573" 
d="M155 -211c-10 0 -19.998 1 -29.998 3v96c10 -2 20 -3 30 -3c11.333 0 20.833 1.83301 28.5 5.5s14.667 10 21 19s12.666 20.833 18.999 35.5s13.5 33 21.5 55l-225 530h120l162 -410l146 410h112l-205 -530c-14.667 -37.333 -28.334 -69.333 -41.001 -96
s-26.5 -48.5 -41.5 -65.5s-31.833 -29.5 -50.5 -37.5s-41 -12 -67 -12zM185.002 594c-19.333 0 -35.166 6.16699 -47.499 18.5s-18.5 28.166 -18.5 47.499s6.16699 35.166 18.5 47.499s28.166 18.5 47.499 18.5s35.166 -6.16699 47.499 -18.5s18.5 -28.166 18.5 -47.499
s-6.16699 -35.166 -18.5 -47.499s-28.166 -18.5 -47.499 -18.5zM393.002 594c-19.333 0 -35.166 6.16699 -47.499 18.5s-18.5 28.166 -18.5 47.499s6.16699 35.166 18.5 47.499s28.166 18.5 47.499 18.5s35.166 -6.16699 47.499 -18.5s18.5 -28.166 18.5 -47.499
s-6.16699 -35.166 -18.5 -47.499s-28.166 -18.5 -47.499 -18.5z" />
    <glyph glyph-name="uni04F2" unicode="&#x4f2;" horiz-adv-x="683" 
d="M205 -11c-7.33301 0 -14.501 0.168945 -21.501 0.501953s-13.167 0.833008 -18.5 1.5v107c5.33301 -0.666992 11.5 -1.33398 18.5 -2.00098s14.167 -1 21.5 -1c13.333 0 25 1 35 3s18.667 5.66699 26 11s14 12.666 20 21.999s11.667 21 17 35l-288 534h140l211 -405
l175 405h124l-246 -552c-12.667 -28 -25.5 -52.167 -38.5 -72.5s-27.667 -36.833 -44 -49.5s-35.166 -22 -56.499 -28s-46.333 -9 -75 -9zM327.999 900.002h114l-134 -150h-92zM509.999 900.002h116l-161 -150h-92z" />
    <glyph glyph-name="uni04F3" unicode="&#x4f3;" horiz-adv-x="573" 
d="M155 -211c-10 0 -19.998 1 -29.998 3v96c10 -2 20 -3 30 -3c11.333 0 20.833 1.83301 28.5 5.5s14.667 10 21 19s12.666 20.833 18.999 35.5s13.5 33 21.5 55l-225 530h120l162 -410l146 410h112l-205 -530c-14.667 -37.333 -28.334 -69.333 -41.001 -96
s-26.5 -48.5 -41.5 -65.5s-31.833 -29.5 -50.5 -37.5s-41 -12 -67 -12zM152.002 580l96 160h124l-137 -160h-83zM345.002 580l127 160h127l-167 -160h-87z" />
    <glyph glyph-name="uni04F4" unicode="&#x4f4;" horiz-adv-x="675" 
d="M465 294c-17.333 -10.667 -41.668 -20.333 -73.001 -29s-67 -13 -107 -13c-78.667 0 -136.667 18.667 -174 56s-56 96.333 -56 177v215h120v-205c0 -48 10.833 -82.833 32.5 -104.5s55.834 -32.5 102.501 -32.5c36 0 67 4.16699 93 12.5s46.667 17.5 62 27.5v302h120
v-700h-120v294zM222.998 755.001c-20.667 0 -37.5 6.5 -50.5 19.5s-19.5 29.833 -19.5 50.5s6.5 37.5 19.5 50.5s29.833 19.5 50.5 19.5s37.5 -6.5 50.5 -19.5s19.5 -29.833 19.5 -50.5s-6.5 -37.5 -19.5 -50.5s-29.833 -19.5 -50.5 -19.5zM452.998 755.001
c-20.667 0 -37.5 6.5 -50.5 19.5s-19.5 29.833 -19.5 50.5s6.5 37.5 19.5 50.5s29.833 19.5 50.5 19.5s37.5 -6.5 50.5 -19.5s19.5 -29.833 19.5 -50.5s-6.5 -37.5 -19.5 -50.5s-29.833 -19.5 -50.5 -19.5z" />
    </font>
</defs>
</svg>
