<svg width="49" height="52" viewBox="0 0 49 52" fill="none" xmlns="http://www.w3.org/2000/svg">
<path d="M44.4823 27.4697C44.0147 26.8635 43.5073 26.2571 42.9651 25.653C43.3378 25.2204 43.693 24.787 44.0272 24.3538C47.482 19.8743 48.4629 15.8106 46.7891 12.9117C45.1155 10.0127 41.1063 8.83045 35.499 9.58262C34.9079 9.66195 34.3045 9.76249 33.6915 9.88193C33.4829 9.27205 33.262 8.68126 33.0282 8.11291C30.8761 2.88123 27.8474 0 24.5 0C21.1526 0 18.1239 2.88123 15.9719 8.11291C15.7381 8.68126 15.5172 9.27205 15.3086 9.88193C14.6956 9.76259 14.0921 9.66195 13.5011 9.58262C7.89443 8.83055 3.88475 10.0127 2.211 12.9117C0.537247 15.8107 1.51814 19.8743 4.97289 24.3538C5.30703 24.787 5.66219 25.2204 6.03503 25.653C5.49268 26.2571 4.98538 26.8634 4.51779 27.4697C1.06304 31.9492 0.0821452 36.0128 1.7559 38.9117C3.10068 41.241 5.95256 42.4619 9.93005 42.4619C10.9029 42.4619 11.9439 42.3887 13.0459 42.2409C13.7556 42.1456 14.483 42.0201 15.224 41.8672C15.4571 42.5664 15.7062 43.2412 15.9719 43.8872C18.1239 49.1188 21.1526 52 24.5 52C27.8474 52 30.8761 49.1188 33.0281 43.8871C33.2938 43.2411 33.5429 42.5663 33.776 41.8671C34.517 42.02 35.2444 42.1456 35.9541 42.2408C37.0564 42.3886 38.0968 42.4618 39.07 42.4618C43.047 42.4618 45.8995 41.2408 47.2441 38.9116C48.918 36.0127 47.9371 31.9492 44.4823 27.4697ZM38.632 12.4034C41.4171 12.4034 43.3856 13.1104 44.1504 14.4351C45.1512 16.1685 44.2269 19.1055 41.6145 22.4929C41.3656 22.8157 41.1034 23.1387 40.8304 23.4615C39.303 22.0084 37.5837 20.5865 35.7131 19.2315C35.4547 16.9751 35.0663 14.8189 34.5582 12.8141C36.0496 12.5389 37.419 12.4034 38.632 12.4034ZM28.5447 33.3117C27.1752 34.1024 25.8235 34.8117 24.5009 35.4424C23.1776 34.8115 21.8256 34.1029 20.4553 33.3117C18.9435 32.4389 17.4968 31.515 16.1319 30.5555C16.0173 29.0981 15.9553 27.5774 15.9553 26C15.9553 24.233 16.0328 22.5368 16.1754 20.9217C17.3926 20.0859 18.6711 19.2791 20.0001 18.5118C21.5276 17.6299 23.0324 16.8505 24.4999 16.1673C25.9675 16.8505 27.4723 17.6299 28.9998 18.5118C30.3289 19.2791 31.6073 20.0859 32.8245 20.9217C32.9671 22.5368 33.0446 24.233 33.0446 26C33.0446 27.5774 32.9826 29.0981 32.868 30.5555C31.5032 31.515 30.0565 32.4389 28.5447 33.3117ZM32.4033 34.5317C32.1992 35.8286 31.9515 37.0571 31.6672 38.2084C30.5371 37.8801 29.3597 37.4828 28.1453 37.0147C28.7878 36.6735 29.4293 36.3192 30.0682 35.9504C30.8638 35.4909 31.6425 35.0171 32.4033 34.5317ZM20.8545 37.0146C19.6399 37.4828 18.4628 37.8797 17.3326 38.208C17.0484 37.0569 16.8008 35.8285 16.5966 34.5317C17.3574 35.0171 18.1361 35.4909 18.9317 35.9503C19.5706 36.3192 20.212 36.6735 20.8545 37.0146ZM12.9456 28.1271C11.9808 27.3278 11.0768 26.5135 10.2427 25.6916C11.088 24.8855 11.9988 24.0882 12.9677 23.3065C12.9288 24.1956 12.9085 25.0943 12.9085 26C12.9085 26.7139 12.9214 27.4232 12.9456 28.1271ZM16.6809 16.9516C16.8858 15.7376 17.1291 14.5869 17.4048 13.506C18.4874 13.8085 19.6156 14.1758 20.7796 14.6085C20.0099 15.0102 19.2414 15.4317 18.4767 15.8732C17.868 16.2246 17.2695 16.5846 16.6809 16.9516ZM28.2203 14.6084C29.3843 14.1757 30.5125 13.8083 31.5952 13.5059C31.8709 14.5869 32.1142 15.7376 32.3191 16.9516C31.7305 16.5846 31.132 16.2246 30.5234 15.8732C29.7585 15.4316 28.9901 15.0101 28.2203 14.6084ZM36.0323 23.3065C37.0012 24.0882 37.912 24.8855 38.7573 25.6916C37.9232 26.5135 37.0192 27.3278 36.0544 28.1271C36.0786 27.4232 36.0915 26.7139 36.0915 26C36.0915 25.0942 36.0712 24.1956 36.0323 23.3065ZM24.5 3.04688C26.7038 3.04688 29.0448 5.8503 30.7182 10.5927C28.7021 11.1593 26.6121 11.9105 24.5 12.8289C22.3879 11.9105 20.298 11.1594 18.2818 10.5927C19.9552 5.8503 22.2962 3.04688 24.5 3.04688ZM4.84959 14.4352C5.61456 13.1103 7.58213 12.4035 10.368 12.4035C11.5809 12.4035 12.9504 12.539 14.4419 12.8143C13.9337 14.8191 13.5454 16.9753 13.287 19.2316C11.4164 20.5866 9.69707 22.0085 8.16967 23.4616C7.89667 23.1388 7.63454 22.8158 7.38561 22.493C4.77311 19.1056 3.84879 16.1686 4.84959 14.4352ZM9.91289 39.42C7.12784 39.4198 5.15936 38.713 4.39449 37.3883C3.39369 35.6548 4.31801 32.7178 6.9304 29.3304C7.30263 28.8477 7.70268 28.3645 8.12813 27.8821C9.63826 29.3667 11.3523 30.823 13.2264 32.2136C13.4731 34.5765 13.8604 36.8368 14.3783 38.9347C12.7341 39.2608 11.2315 39.4201 9.91289 39.42ZM24.5 48.9531C22.2534 48.9531 19.8646 46.0393 18.1856 41.1287C20.2357 40.5327 22.3586 39.7479 24.5 38.794C26.6414 39.7479 28.7643 40.5327 30.8144 41.1287C29.1354 46.0393 26.7466 48.9531 24.5 48.9531ZM44.6055 37.3883C43.4786 39.3403 39.7399 39.9498 34.6216 38.9347C35.1396 36.8368 35.5268 34.5765 35.7735 32.2136C37.6477 30.823 39.3617 29.3667 40.8718 27.8821C41.2972 28.3645 41.6973 28.8478 42.0695 29.3304C44.6821 32.7178 45.6064 35.6548 44.6055 37.3883Z" fill="white"/>
<path d="M24.5 30.7073C27.0998 30.7073 29.2074 28.5997 29.2074 25.9999C29.2074 23.4001 27.0998 21.2925 24.5 21.2925C21.9002 21.2925 19.7926 23.4001 19.7926 25.9999C19.7926 28.5997 21.9002 30.7073 24.5 30.7073Z" fill="white"/>
</svg>
