<svg width="40" height="39" viewBox="0 0 40 39" fill="none" xmlns="http://www.w3.org/2000/svg">
<g filter="url(#filter0_d_1_2403)">
<path fill-rule="evenodd" clip-rule="evenodd" d="M26.2706 0.725593C22.1461 -0.241864 17.8538 -0.241864 13.7295 0.725593C7.77333 2.1227 3.12272 6.77331 1.72559 12.7294C0.758136 16.8538 0.758136 21.1461 1.72559 25.2706C3.12272 31.2267 7.77333 35.8772 13.7295 37.2744C17.8538 38.2419 22.1461 38.2419 26.2706 37.2744C32.2267 35.8772 36.8772 31.2267 38.2744 25.2706C39.2419 21.1461 39.2419 16.8538 38.2744 12.7295C36.8772 6.77333 32.2267 2.1227 26.2706 0.725593V0.725593ZM10.9847 13.1713C11.4134 12.6569 12.178 12.5874 12.6924 13.0161L16.8922 16.5158C18.4435 17.8087 18.4435 20.1913 16.8922 21.4839L12.6924 24.9837C12.178 25.4125 11.4134 25.343 10.9847 24.8285C10.556 24.3141 10.6255 23.5494 11.1399 23.1206L15.3397 19.6209C15.7275 19.2976 15.7275 18.7021 15.3397 18.3789L11.1399 14.8791C10.6255 14.4504 10.556 13.6858 10.9847 13.1713V13.1713ZM21.0104 22.8397C20.3407 22.8397 19.7977 23.3826 19.7977 24.0523C19.7977 24.7219 20.3407 25.2649 21.0104 25.2649H28.0836C28.7533 25.2649 29.2962 24.7219 29.2962 24.0523C29.2962 23.3826 28.7533 22.8397 28.0836 22.8397H21.0104Z" fill="white"/>
<path d="M17.2123 16.1317L17.2123 16.1317C19.0034 17.6245 19.0034 20.3755 17.2123 21.868L13.0126 25.3678C13.0125 25.3678 13.0125 25.3678 13.0125 25.3678C12.286 25.9733 11.2061 25.8753 10.6006 25.1486C9.99507 24.422 10.0932 23.3421 10.8198 22.7366L10.8198 22.7365L15.0196 19.2368C15.1675 19.1135 15.1676 18.8863 15.0196 18.763L17.2123 16.1317ZM17.2123 16.1317L13.0125 12.632L12.6924 13.0161L13.0125 12.6319C12.2859 12.0265 11.2061 12.1246 10.6006 12.8512C9.99508 13.5778 10.0932 14.6577 10.8198 15.2632C10.8198 15.2632 10.8198 15.2632 10.8199 15.2632L15.0196 18.763L17.2123 16.1317ZM13.8436 1.21238L13.7299 0.727273L13.8436 1.21238C17.8929 0.26254 22.107 0.26254 26.1564 1.21238C31.9276 2.56612 36.4338 7.07239 37.7876 12.8436C38.7375 16.8929 38.7375 21.107 37.7876 25.1564C36.4338 30.9276 31.9276 35.4338 26.1564 36.7876C22.107 37.7375 17.8929 37.7375 13.8437 36.7876C8.07239 35.4338 3.56614 30.9276 2.21238 25.1564C1.26254 21.107 1.26254 16.8929 2.21238 12.8436C3.56614 7.07237 8.07239 2.56612 13.8436 1.21238ZM21.0104 22.3397C20.0646 22.3397 19.2977 23.1065 19.2977 24.0523C19.2977 24.9981 20.0646 25.7649 21.0104 25.7649H28.0836C29.0294 25.7649 29.7962 24.9981 29.7962 24.0523C29.7962 23.1065 29.0294 22.3397 28.0836 22.3397H21.0104Z" stroke="black"/>
</g>
<defs>
<filter id="filter0_d_1_2403" x="-3" y="0" width="46" height="46" filterUnits="userSpaceOnUse" color-interpolation-filters="sRGB">
<feFlood flood-opacity="0" result="BackgroundImageFix"/>
<feColorMatrix in="SourceAlpha" type="matrix" values="0 0 0 0 0 0 0 0 0 0 0 0 0 0 0 0 0 0 127 0" result="hardAlpha"/>
<feOffset dy="4"/>
<feGaussianBlur stdDeviation="2"/>
<feComposite in2="hardAlpha" operator="out"/>
<feColorMatrix type="matrix" values="0 0 0 0 0 0 0 0 0 0 0 0 0 0 0 0 0 0 0.25 0"/>
<feBlend mode="normal" in2="BackgroundImageFix" result="effect1_dropShadow_1_2403"/>
<feBlend mode="normal" in="SourceGraphic" in2="effect1_dropShadow_1_2403" result="shape"/>
</filter>
</defs>
</svg>
