<?xml version="1.0" standalone="no"?>
<!DOCTYPE svg PUBLIC "-//W3C//DTD SVG 1.1//EN" "http://www.w3.org/Graphics/SVG/1.1/DTD/svg11.dtd" >
<svg>
<metadata>
Created by FontForge 20090914 at Sun Aug  7 11:27:48 2022
 By www-data
Copyright &#194;&#169; 2019, ParaType Ltd. All rights reserved.
</metadata>
<defs>
<font id="GolosText-DemiBold" horiz-adv-x="640" >
  <font-face 
    font-family="Golos Text DemiBold"
    font-weight="600"
    font-stretch="normal"
    units-per-em="1000"
    panose-1="2 11 7 3 2 2 2 2 2 4"
    ascent="774"
    descent="-226"
    x-height="530"
    cap-height="700"
    bbox="-999 -227 1200 960"
    underline-thickness="50"
    underline-position="-50"
    unicode-range="U+000D-U+FEFF"
  />
<missing-glyph horiz-adv-x="500" 
d="M442 8v496h-384v-496h384zM50 512h400v-512h-400v512z" />
    <glyph glyph-name=".notdef" horiz-adv-x="500" 
d="M442 8v496h-384v-496h384zM50 512h400v-512h-400v512z" />
    <glyph glyph-name=".null" horiz-adv-x="0" 
 />
    <glyph glyph-name=".null" horiz-adv-x="0" 
 />
    <glyph glyph-name="uni000D" unicode="&#xd;" horiz-adv-x="250" 
 />
    <glyph glyph-name="space" unicode=" " horiz-adv-x="250" 
 />
    <glyph glyph-name="exclam" unicode="!" horiz-adv-x="310" 
d="M91 700h132v-470h-132v470zM155 -12c-23.333 0 -43.333 8.33301 -60 25s-25 36.667 -25 60c0 24.667 8.33301 45 25 61s36.667 24 60 24s43.333 -8 60 -24s25 -36.333 25 -61c0 -23.333 -8.33301 -43.333 -25 -60s-36.667 -25 -60 -25z" />
    <glyph glyph-name="quotedbl" unicode="&#x22;" horiz-adv-x="430" 
d="M55 700h120v-240h-120v240zM255 700h120v-240h-120v240z" />
    <glyph glyph-name="numbersign" unicode="#" horiz-adv-x="680" 
d="M124 186h-79v98h97l25 132h-83v98h101l35 186h120l-35 -186h130l35 186h120l-35 -186h80v-98h-98l-25 -132h84v-98h-102l-34 -186h-120l34 186h-130l-34 -186h-120zM392 284l25 132h-130l-25 -132h130z" />
    <glyph glyph-name="dollar" unicode="$" horiz-adv-x="660" 
d="M270 -8c-73.333 8 -128.499 30.0029 -165.499 66.0029s-56.833 81.667 -59.5 137h150c2.66699 -13.333 6.66699 -25 12 -35s13.333 -18.333 24 -25s24 -11.834 40 -15.501s35.667 -5.5 59 -5.5c48 0 82.5 6.5 103.5 19.5s31.5 31.5 31.5 55.5
c0 29.333 -13.833 51.5 -41.5 66.5s-71.834 28.5 -132.501 40.5c-36 6.66699 -68 15.5 -96 26.5s-51.667 25 -71 42s-34 37.5 -44 61.5s-15 52.667 -15 86c0 52.667 18.167 96.167 54.5 130.5s86.5 56.166 150.5 65.499v92h120v-92c66.667 -8 116.334 -29.167 149.001 -63.5
s51.334 -77.5 56.001 -129.5h-150c-4.66699 24 -15.334 41.833 -32.001 53.5s-44.334 17.5 -83.001 17.5c-39.333 0 -68.333 -6.33301 -87 -19s-28 -29.667 -28 -51c0 -25.333 12.833 -45.5 38.5 -60.5s66.167 -27.833 121.5 -38.5c38 -7.33301 71.833 -16.333 101.5 -27
s54.667 -24.334 75 -41.001s36 -37.167 47 -61.5s16.5 -53.5 16.5 -87.5c0 -57.333 -19.5 -104.333 -58.5 -141s-94.5 -59 -166.5 -67v-112h-120v112z" />
    <glyph glyph-name="percent" unicode="%" horiz-adv-x="840" 
d="M590 700h140l-480 -700h-140zM190 368c-26 0 -49.333 4 -70 12s-38.5 19.333 -53.5 34s-26.5 32.167 -34.5 52.5s-12 43.166 -12 68.499v10c0 24.667 4 47.334 12 68.001s19.5 38.334 34.5 53.001s32.833 26 53.5 34s44 12 70 12s49.333 -4 70 -12s38.5 -19.333 53.5 -34
s26.5 -32.334 34.5 -53.001s12 -43.334 12 -68.001v-10c0 -25.333 -4 -48.166 -12 -68.499s-19.5 -37.833 -34.5 -52.5s-32.833 -26 -53.5 -34s-44 -12 -70 -12zM190 472c13.333 0 24 4.83301 32 14.5s12 25.834 12 48.501v10c0 22.667 -4 38.834 -12 48.501
s-18.667 14.5 -32 14.5s-24 -4.83301 -32 -14.5s-12 -25.834 -12 -48.501v-10c0 -22.667 4 -38.834 12 -48.501s18.667 -14.5 32 -14.5zM650 -11c-26 0 -49.333 4 -70 12s-38.5 19.333 -53.5 34s-26.5 32.167 -34.5 52.5s-12 43.166 -12 68.499v10
c0 24.667 4 47.334 12 68.001s19.5 38.334 34.5 53.001s32.833 26 53.5 34s44 12 70 12s49.333 -4 70 -12s38.5 -19.333 53.5 -34s26.5 -32.334 34.5 -53.001s12 -43.334 12 -68.001v-10c0 -25.333 -4 -48.166 -12 -68.499s-19.5 -37.833 -34.5 -52.5s-32.833 -26 -53.5 -34
s-44 -12 -70 -12zM650 93c13.333 0 24 4.83301 32 14.5s12 25.834 12 48.501v10c0 22.667 -4 38.834 -12 48.501s-18.667 14.5 -32 14.5s-24 -4.83301 -32 -14.5s-12 -25.834 -12 -48.501v-10c0 -22.667 4 -38.834 12 -48.501s18.667 -14.5 32 -14.5z" />
    <glyph glyph-name="ampersand" unicode="&#x26;" horiz-adv-x="700" 
d="M295 -12c-41.333 0 -77.335 5.16797 -108.002 15.501s-56.167 24.5 -76.5 42.5s-35.5 39.333 -45.5 64s-15 51.334 -15 80.001c0 18 1.66699 35 5 51s9.5 32 18.5 48s21.5 32.667 37.5 50s36.333 36.333 61 57c-20.667 23.333 -37 47.333 -49 72s-18 55.334 -18 92.001
c0 18 3.5 36 10.5 54s17.667 34.333 32 49s32.833 26.5 55.5 35.5s50 13.5 82 13.5c34 0 62.5 -5 85.5 -15s41.5 -22.5 55.5 -37.5s24 -31.5 30 -49.5s9 -34.667 9 -50c0 -13.333 -1.66699 -26.333 -5 -39s-9.33301 -25.834 -18 -39.501s-20.667 -28.334 -36 -44.001
s-34.666 -33.167 -57.999 -52.5l129 -145c9.33301 31.333 14 64.666 14 99.999h134c0 -42 -4.5 -80.167 -13.5 -114.5s-21.833 -65.5 -38.5 -93.5l117 -132h-158l-41 44c-53.333 -37.333 -118.666 -56 -195.999 -56zM294.998 100.001c22 0 42.499 3.16699 61.499 9.5
s36.167 15.166 51.5 26.499l-156 172c-27.333 -23.333 -45.5 -43.666 -54.5 -60.999s-13.5 -36.333 -13.5 -57c0 -26 9.83301 -47.5 29.5 -64.5s46.834 -25.5 81.501 -25.5zM233.997 560.001c0 -13.333 2.99805 -26.8301 8.99805 -40.4971s15.667 -29.167 29 -46.5
c13.333 10.667 24.166 20.167 32.499 28.5s14.833 15.666 19.5 21.999s7.83398 12.5 9.50098 18.5s2.5 12 2.5 18c0 13.333 -4.66699 24.166 -14 32.499s-21.666 12.5 -36.999 12.5s-27.666 -4.33301 -36.999 -13s-14 -19.334 -14 -32.001z" />
    <glyph glyph-name="quotesingle" unicode="'" horiz-adv-x="230" 
d="M55 700h120v-240h-120v240z" />
    <glyph glyph-name="parenleft" unicode="(" horiz-adv-x="380" 
d="M70 260c0 70.667 8.33105 132.999 24.998 186.999s35 100 55 138c23.333 44 50 82.333 80 115h140c-32 -32.667 -60.667 -71 -86 -115c-10.667 -18.667 -21.167 -39.5 -31.5 -62.5s-19.5 -48.167 -27.5 -75.5s-14.5 -56.666 -19.5 -87.999s-7.5 -64.333 -7.5 -99v-20
c0 -35.333 2.5 -68.5 7.5 -99.5s11.5 -60.167 19.5 -87.5s17.167 -52.5 27.5 -75.5s20.833 -43.833 31.5 -62.5c25.333 -44 54 -82.333 86 -115h-143c-30 32.667 -56.333 71 -79 115c-10 18.667 -19.667 39.5 -29 62.5s-17.666 48.167 -24.999 75.5
s-13.166 56.5 -17.499 87.5s-6.5 64.167 -6.5 99.5v20z" />
    <glyph glyph-name="parenright" unicode=")" horiz-adv-x="380" 
d="M310.004 240.016c0 -70.6621 -8.33398 -132.99 -24.999 -186.987s-34.9971 -99.9941 -54.9961 -137.991c-23.3311 -43.9971 -49.9961 -82.3281 -79.9951 -114.993h-139.991c31.998 32.665 60.6631 70.9961 85.9951 114.993c10.666 18.665 21.165 39.4971 31.498 62.4961
c10.333 22.998 19.499 48.1631 27.498 75.4951c7.99902 27.3311 14.499 56.6621 19.499 87.9932c4.99902 31.332 7.49902 64.3301 7.49902 98.9941v19.999c0 35.3311 -2.5 68.4961 -7.49902 99.4941c-5 30.998 -11.5 60.1631 -19.499 87.4941
c-7.99902 27.332 -17.165 52.4971 -27.498 75.4961c-10.333 22.998 -20.832 43.8301 -31.498 62.4961c-25.332 43.9971 -53.9971 82.3281 -85.9951 114.993h142.991c29.998 -32.665 56.3301 -70.9961 78.9951 -114.993c9.99902 -18.666 19.665 -39.498 28.998 -62.4961
c9.33301 -22.999 17.666 -48.1641 24.999 -75.4961c7.33301 -27.3311 13.166 -56.4961 17.499 -87.4941s6.49902 -64.1631 6.49902 -99.4941v-19.999z" />
    <glyph glyph-name="asterisk" unicode="*" horiz-adv-x="450" 
d="M188 461l-92 -68l-51 89l107 43l-107 43l51 89l92 -68l-10 111h94l-10 -111l93 68l50 -89l-107 -43l107 -43l-51 -89l-92 68l10 -111h-94z" />
    <glyph glyph-name="plus" unicode="+" horiz-adv-x="570" 
d="M219 298h-179v124h179v183h132v-183h179v-124h-179v-183h-132v183z" />
    <glyph glyph-name="comma" unicode="," horiz-adv-x="310" 
d="M85 0v130h140v-130l-112 -160h-68z" />
    <glyph glyph-name="hyphen" unicode="-" horiz-adv-x="380" 
d="M30 342h320v-124h-320v124z" />
    <glyph glyph-name="period" unicode="." horiz-adv-x="310" 
d="M155 -12c-23.333 0 -43.333 8.33301 -60 25s-25 36.667 -25 60c0 24.667 8.33301 45 25 61s36.667 24 60 24s43.333 -8 60 -24s25 -36.333 25 -61c0 -23.333 -8.33301 -43.333 -25 -60s-36.667 -25 -60 -25z" />
    <glyph glyph-name="slash" unicode="/" horiz-adv-x="480" 
d="M340 700h120l-320 -900h-120z" />
    <glyph glyph-name="zero" unicode="0" 
d="M320 -12c-38 0 -73.5 6.16699 -106.5 18.5s-61.5 32.666 -85.5 60.999s-43 65.666 -57 111.999s-21 103.166 -21 170.499v20c0 62.667 7 115.667 21 159s33 78.5 57 105.5s52.5 46.667 85.5 59s68.5 18.5 106.5 18.5s73.5 -6.16699 106.5 -18.5s61.5 -32 85.5 -59
s43 -62.167 57 -105.5s21 -96.333 21 -159v-20c0 -67.333 -7 -124.166 -21 -170.499s-33 -83.666 -57 -111.999s-52.5 -48.666 -85.5 -60.999s-68.5 -18.5 -106.5 -18.5zM320 114c16.667 0 32.334 3.33301 47.001 10s27.5 18.834 38.5 36.501s19.5 41.834 25.5 72.501
s9 69.667 9 117v20c0 42.667 -3 77.834 -9 105.501s-14.5 49.667 -25.5 66s-23.833 27.833 -38.5 34.5s-30.334 10 -47.001 10c-17.333 0 -33.166 -3.33301 -47.499 -10s-27 -18.167 -38 -34.5s-19.5 -38.333 -25.5 -66s-9 -62.834 -9 -105.501v-20
c0 -47.333 3 -86.333 9 -117s14.5 -54.834 25.5 -72.501s23.667 -29.834 38 -36.501s30.166 -10 47.499 -10z" />
    <glyph glyph-name="one" unicode="1" horiz-adv-x="505" 
d="M45 124h160v424l-160 -114v146l169 120h141v-576h130v-124h-440v124z" />
    <glyph glyph-name="two" unicode="2" horiz-adv-x="600" 
d="M30 109l245 210.999l58 52.5c16 15 29 28.833 39 41.5s17.167 25 21.5 37s6.5 25 6.5 39c0 28.667 -8 51.834 -24 69.501s-39.667 26.5 -71 26.5c-36 0 -64.167 -9.83301 -84.5 -29.5s-30.5 -53.5 -30.5 -101.5h-150c0 79.333 22.5 142 67.5 188s110.833 69 197.5 69
c40.667 0 76.167 -5.5 106.5 -16.5s55.833 -26.333 76.5 -46s36.167 -43.167 46.5 -70.5s15.5 -57 15.5 -89c0 -24 -4.33301 -46.833 -13 -68.5s-20.5 -42.5 -35.5 -62.5s-32.5 -39.5 -52.5 -58.5s-41.333 -37.833 -64 -56.5l-144 -120h319v-124h-530v109z" />
    <glyph glyph-name="three" unicode="3" horiz-adv-x="605" 
d="M295 -12c-85.333 0 -150 20.1641 -194 60.4971s-66 95.833 -66 166.5h150c0 -34 8.83301 -59.333 26.5 -76s45.5 -25 83.5 -25c36.667 0 64.167 8.16699 82.5 24.5s27.5 39.5 27.5 69.5c0 62.667 -36.667 94 -110 94h-65v116h65c32 0 56.667 6.66699 74 20s26 34 26 62
c0 25.333 -8.33301 46 -25 62s-41.667 24 -75 24c-34 0 -59.167 -7.83301 -75.5 -23.5s-24.5 -38.167 -24.5 -67.5h-150c0 68.667 20.833 122 62.5 160s104.167 57 187.5 57c42 0 78.667 -4.83301 110 -14.5s57.333 -23 78 -40s36.167 -37.167 46.5 -60.5
s15.5 -48.666 15.5 -75.999c0 -38.667 -10.833 -71.5 -32.5 -98.5s-50.5 -46.167 -86.5 -57.5c41.333 -11.333 73.166 -31 95.499 -59s33.5 -65 33.5 -111c0 -30 -6 -57.667 -18 -83s-29.167 -47.166 -51.5 -65.499s-49.666 -32.666 -81.999 -42.999
s-68.5 -15.5 -108.5 -15.5z" />
    <glyph glyph-name="four" unicode="4" horiz-adv-x="628" 
d="M350 148h-330v104l330 448h150v-428h80v-124h-80v-148h-150v148zM350 272v261l-190 -261h190z" />
    <glyph glyph-name="five" unicode="5" horiz-adv-x="600" 
d="M300 -12c-44.667 0 -82.502 5.66992 -113.502 17.0029s-56.5 26.5 -76.5 45.5s-34.833 41 -44.5 66s-14.834 51.167 -15.501 78.5h150c2 -24 11.167 -43.5 27.5 -58.5s40.5 -22.5 72.5 -22.5c73.333 0 110 41.333 110 124c0 22 -3 40.667 -9 56s-14 27.666 -24 36.999
s-21.667 16.166 -35 20.499s-27.333 6.5 -42 6.5c-23.333 0 -42.666 -4.33301 -57.999 -13s-27.666 -20.334 -36.999 -35.001h-140v390h456v-124h-306v-128c14 12.667 31.167 21.834 51.5 27.501s43.166 8.5 68.499 8.5c34 0 64.833 -5.16699 92.5 -15.5
s51.334 -25.833 71.001 -46.5s34.834 -46.334 45.501 -77.001s16 -66 16 -106c0 -38 -6.16699 -72.5 -18.5 -103.5s-29.833 -57.5 -52.5 -79.5s-50 -38.833 -82 -50.5s-67.667 -17.5 -107 -17.5z" />
    <glyph glyph-name="six" unicode="6" horiz-adv-x="625" 
d="M325 -12c-44 0 -83.0068 6.33008 -117.007 18.9971s-62.667 32.5 -86 59.5s-41.166 61.5 -53.499 103.5s-18.5 92 -18.5 150v20c0 66.667 7 123.5 21 170.5s33.667 85.5 59 115.5s55.5 51.833 90.5 65.5s73.167 20.5 114.5 20.5c64.667 0 117 -13.667 157 -41
s64.333 -72.666 73 -135.999h-140c-13.333 34 -45 51 -95 51c-19.333 0 -37.166 -2.83301 -53.499 -8.5s-30.666 -16 -42.999 -31s-22.166 -35.5 -29.499 -61.5s-12 -59.333 -14 -100c8.66699 13.333 19.334 24.5 32.001 33.5s26.5 16.333 41.5 22s30.667 9.83398 47 12.501
s32.833 4 49.5 4c70.667 0 125 -19.167 163 -57.5s57 -92.5 57 -162.5v-11c0 -35.333 -6.33301 -67.666 -19 -96.999s-30.167 -54.5 -52.5 -75.5s-49.166 -37.167 -80.499 -48.5s-65.666 -17 -102.999 -17zM314.993 113.997c36 0 64.167 10.167 84.5 30.5
s30.5 46.5 30.5 78.5v10c0 32 -10.167 58 -30.5 78s-48.5 30 -84.5 30s-64.167 -10 -84.5 -30s-30.5 -46 -30.5 -78v-10c0 -32 10.167 -58.167 30.5 -78.5s48.5 -30.5 84.5 -30.5z" />
    <glyph glyph-name="seven" unicode="7" horiz-adv-x="540" 
d="M356 576h-336v124h490v-109l-230 -591h-160z" />
    <glyph glyph-name="eight" unicode="8" horiz-adv-x="630" 
d="M315 -12c-42 0 -79.834 4.83301 -113.501 14.5s-62 23.334 -85 41.001s-40.667 39 -53 64s-18.5 52.833 -18.5 83.5c0 39.333 12 74.5 36 105.5s59.667 52.833 107 65.5c-35.333 11.333 -64.666 31 -87.999 59s-35 61.333 -35 100c0 28 5.5 53.667 16.5 77
s27.167 43.5 48.5 60.5s47.5 30.167 78.5 39.5s66.5 14 106.5 14s75.5 -4.66699 106.5 -14s57.333 -22.5 79 -39.5s38 -37.167 49 -60.5s16.5 -49 16.5 -77c0 -38.667 -11.667 -71.5 -35 -98.5s-53 -47.167 -89 -60.5c95.333 -29.333 143 -86.333 143 -171
c0 -30.667 -6.16699 -58.5 -18.5 -83.5s-30 -46.333 -53 -64s-51.167 -31.334 -84.5 -41.001s-71.333 -14.5 -114 -14.5zM314.999 114c41.333 0 71.665 8 90.998 24s29 37.667 29 65c0 30 -11.167 53.833 -33.5 71.5s-51.166 29.167 -86.499 34.5
c-35.333 -5.33301 -64.166 -16.833 -86.499 -34.5s-33.5 -41.5 -33.5 -71.5c0 -27.333 10 -49 30 -65s50 -24 90 -24zM314.998 411c30 5.33301 54.333 15.833 73 31.5s28 37.5 28 65.5c0 26 -8.83301 45.5 -26.5 58.5s-42.5 19.5 -74.5 19.5
c-31.333 0 -55.833 -6.5 -73.5 -19.5s-26.5 -32.5 -26.5 -58.5c0 -28 9.16699 -49.833 27.5 -65.5s42.5 -26.167 72.5 -31.5z" />
    <glyph glyph-name="nine" unicode="9" horiz-adv-x="625" 
d="M295 -12c-66.667 0 -120.329 14.333 -160.996 43s-65.334 73.334 -74.001 134.001h140c6.66699 -17.333 17.5 -30.166 32.5 -38.499s37.5 -12.5 67.5 -12.5c18 0 34.833 2.83301 50.5 8.5s29.5 16 41.5 31s21.667 35.5 29 61.5s12 59.333 14 100
c-8.66699 -13.333 -19.334 -24.5 -32.001 -33.5s-26.5 -16.333 -41.5 -22s-30.667 -9.83398 -47 -12.501s-32.833 -4 -49.5 -4c-70.667 0 -125 19.167 -163 57.5s-57 92.5 -57 162.5v11c0 35.333 6.33301 67.666 19 96.999s30.167 54.5 52.5 75.5s49.166 37.167 80.499 48.5
s65.666 17 102.999 17c88.667 0 156.667 -26 204 -78s71 -136.667 71 -254v-19c0 -67.333 -7 -124.5 -21 -171.5s-33.5 -85.5 -58.5 -115.5s-54.667 -51.833 -89 -65.5s-71.5 -20.5 -111.5 -20.5zM310.005 359c36 0 64.167 10 84.5 30s30.5 46 30.5 78v10
c0 31.333 -10.5 57.333 -31.5 78s-48.833 31 -83.5 31c-36 0 -64.167 -10.167 -84.5 -30.5s-30.5 -46.5 -30.5 -78.5v-10c0 -32 10.167 -58 30.5 -78s48.5 -30 84.5 -30z" />
    <glyph glyph-name="colon" unicode=":" horiz-adv-x="310" 
d="M155 -12c-23.333 0 -43.333 8.33301 -60 25s-25 36.667 -25 60c0 24.667 8.33301 45 25 61s36.667 24 60 24s43.333 -8 60 -24s25 -36.333 25 -61c0 -23.333 -8.33301 -43.333 -25 -60s-36.667 -25 -60 -25zM155 372c-23.333 0 -43.333 8.33301 -60 25s-25 36.667 -25 60
c0 24.667 8.33301 45 25 61s36.667 24 60 24s43.333 -8 60 -24s25 -36.333 25 -61c0 -23.333 -8.33301 -43.333 -25 -60s-36.667 -25 -60 -25z" />
    <glyph glyph-name="semicolon" unicode=";" horiz-adv-x="310" 
d="M85 0v130h140v-130l-112 -160h-68zM155 372c-23.333 0 -43.333 8.33301 -60 25s-25 36.667 -25 60c0 24.667 8.33301 45 25 61s36.667 24 60 24s43.333 -8 60 -24s25 -36.333 25 -61c0 -23.333 -8.33301 -43.333 -25 -60s-36.667 -25 -60 -25z" />
    <glyph glyph-name="less" unicode="&#x3c;" horiz-adv-x="570" 
d="M40 305v110l490 215v-143l-315 -125l315 -125v-147z" />
    <glyph glyph-name="equal" unicode="=" horiz-adv-x="570" 
d="M40 302h490v-124h-490v124zM40 542h490v-124h-490v124z" />
    <glyph glyph-name="greater" unicode="&#x3e;" horiz-adv-x="570" 
d="M530 415v-110l-490 -215v143l315 125l-315 125v147z" />
    <glyph glyph-name="question" unicode="?" horiz-adv-x="530" 
d="M199 270c0 25.333 6.66699 48.167 20 68.5s35 43.166 65 68.499c24 20.667 42.833 38.667 56.5 54s20.5 33.333 20.5 54c0 25.333 -8.16699 45.833 -24.5 61.5s-40.166 23.5 -71.499 23.5c-28.667 0 -51.834 -7.83301 -69.501 -23.5s-26.5 -37.834 -26.5 -66.501h-134
c0 27.333 5.83301 53.166 17.5 77.499s27.667 45.833 48 64.5s44.5 33.334 72.5 44.001s58.667 16 92 16c36 0 68.167 -4.83301 96.5 -14.5s52.5 -23.167 72.5 -40.5s35.167 -37.666 45.5 -60.999s15.5 -48.666 15.5 -75.999c0 -18 -1.66699 -34.333 -5 -49
s-8.83301 -28.667 -16.5 -42s-17.834 -26.833 -30.501 -40.5s-28 -28.5 -46 -44.5c-15.333 -13.333 -27.333 -24.5 -36 -33.5s-15.167 -17 -19.5 -24s-7.16602 -13.333 -8.49902 -19s-2 -11.5 -2 -17.5v-20h-132v40zM265 -11.999c-23.333 0 -43.333 8.33301 -60 25
s-25 36.667 -25 60c0 24.667 8.33301 45 25 61s36.667 24 60 24s43.333 -8 60 -24s25 -36.333 25 -61c0 -23.333 -8.33301 -43.333 -25 -60s-36.667 -25 -60 -25z" />
    <glyph glyph-name="at" unicode="@" horiz-adv-x="990" 
d="M510 -212c-68 0 -130.341 10.668 -187.008 32.001s-105.167 52.166 -145.5 92.499s-71.666 89.5 -93.999 147.5s-33.5 123.333 -33.5 196c0 70 11.333 133 34 189s54 103.833 94 143.5s87.167 70.167 141.5 91.5s112.833 32 175.5 32c68 0 129.5 -9.66699 184.5 -29
s101.667 -47 140 -83s68 -80 89 -132s31.5 -111 31.5 -177c0 -48 -5.5 -89.667 -16.5 -125s-26.167 -64.5 -45.5 -87.5s-42.166 -40.167 -68.499 -51.5s-54.833 -17 -85.5 -17c-30 0 -56.333 6 -79 18s-38.667 36 -48 72c-13.333 -28.667 -31.166 -51 -53.499 -67
s-51.833 -24 -88.5 -24c-56 0 -100.833 19 -134.5 57s-50.5 95 -50.5 171v33c0 76.667 16.167 133.334 48.5 170.001s75.5 55 129.5 55c37.333 0 65.833 -7.16699 85.5 -21.5s33.834 -30.833 42.501 -49.5v62h107v-281c0 -34 3.83301 -57.333 11.5 -70s21.5 -19 41.5 -19
c14.667 0 28 2.83301 40 8.5s22.333 15.334 31 29.001s15.334 31.667 20.001 54s7 50.166 7 83.499c0 56.667 -8.83301 105.5 -26.5 146.5s-41.667 74.833 -72 101.5s-66.166 46.334 -107.499 59.001s-85.666 19 -132.999 19c-48 0 -92.667 -7.83301 -134 -23.5
s-77.166 -38.834 -107.499 -69.501s-54 -68.334 -71 -113.001s-25.5 -96.334 -25.5 -155.001c0 -60 8.5 -113.333 25.5 -160s41 -85.667 72 -117s68.167 -55.166 111.5 -71.499s91.333 -24.5 144 -24.5c52 0 96.333 5.5 133 16.5s67.334 24.167 92.001 39.5v-104
c-26 -13.333 -56.833 -24.5 -92.5 -33.5s-79.834 -13.5 -132.501 -13.5zM477.992 116.001c28.667 0 51.499 9.33301 68.499 28s25.5 44.667 25.5 78v62c0 34 -8.33301 60 -25 78s-40 27 -70 27c-27.333 0 -48.666 -9.5 -63.999 -28.5s-23 -50.5 -23 -94.5v-28
c0 -43.333 7.83301 -74.5 23.5 -93.5s37.167 -28.5 64.5 -28.5z" />
    <glyph glyph-name="A" unicode="A" horiz-adv-x="690" 
d="M468 143h-259l-53 -143h-146l260 700h150l260 -700h-158zM255 267h168l-84 243z" />
    <glyph glyph-name="B" unicode="B" horiz-adv-x="680" 
d="M80 700l300.001 -0.00390625c78.667 0 136.667 -16.5 174 -49.5s56 -78.833 56 -137.5c0 -36 -8.83301 -66.833 -26.5 -92.5s-41.834 -44.167 -72.501 -55.5c40 -9.33301 71.5 -28.166 94.5 -56.499s34.5 -65.166 34.5 -110.499c0 -30 -4.66699 -57.167 -14 -81.5
s-23.833 -45.166 -43.5 -62.499s-45.167 -30.666 -76.5 -39.999s-69 -14 -113 -14h-313v700zM366.001 113.996c46.667 0 79 8 97 24s27 39.667 27 71s-9 55.833 -27 73.5s-50.667 26.5 -98 26.5h-135v-195h136zM350.001 410.996c40.667 0 69.167 8 85.5 24
s24.5 37.667 24.5 65c0 28 -8 49.333 -24 64s-44.333 22 -85 22h-121v-175h120z" />
    <glyph glyph-name="C" unicode="C" horiz-adv-x="700" 
d="M365 -12c-46 0 -88.1641 6.6709 -126.497 20.0039s-71.5 34.166 -99.5 62.499s-49.833 65.166 -65.5 110.499s-23.5 100 -23.5 164v20c0 61.333 8.16699 113.833 24.5 157.5s38.666 79.5 66.999 107.5s61.666 48.667 99.999 62s79.5 20 123.5 20
c39.333 0 76.333 -4.66699 111 -14s65.167 -23.833 91.5 -43.5s47.666 -44.834 63.999 -75.501s25.833 -67 28.5 -109h-156c-7.33301 40 -23.333 69.333 -48 88s-55 28 -91 28c-20.667 0 -40.5 -3.66699 -59.5 -11s-35.833 -19.666 -50.5 -36.999s-26.5 -40 -35.5 -68
s-13.5 -63 -13.5 -105v-20c0 -44 4.66699 -80.833 14 -110.5s21.5 -53.334 36.5 -71.001s32 -30.334 51 -38.001s38.167 -11.5 57.5 -11.5c38 0 69.333 9.83301 94 29.5s39.667 48.5 45 86.5h156c-3.33301 -44 -13 -81.333 -29 -112s-37 -55.667 -63 -75
s-56.333 -33.333 -91 -42s-72 -13 -112 -13z" />
    <glyph glyph-name="D" unicode="D" horiz-adv-x="710" 
d="M80 700h245.002c52.667 0 99.667 -7.16699 141 -21.5s76.333 -35.5 105 -63.5s50.667 -63 66 -105s23 -90.333 23 -145v-20c0 -56 -7.83301 -105.5 -23.5 -148.5s-38.334 -79 -68.001 -108s-65.834 -51 -108.501 -66s-91 -22.5 -145 -22.5h-235v700zM305.002 124
c26.667 0 52 3.83301 76 11.5s45.167 20.167 63.5 37.5s32.833 40 43.5 68s16 62.667 16 104v20c0 38.667 -5 71.5 -15 98.5s-23.5 48.833 -40.5 65.5s-37 28.667 -60 36s-47.5 11 -73.5 11h-85v-452h75z" />
    <glyph glyph-name="E" unicode="E" horiz-adv-x="620" 
d="M80 700h490v-124h-339v-156h309v-120h-309v-176h339v-124h-490v700z" />
    <glyph glyph-name="F" unicode="F" horiz-adv-x="595" 
d="M80 700h480v-124h-330v-176h300v-120h-300v-280h-150v700z" />
    <glyph glyph-name="G" unicode="G" horiz-adv-x="725" 
d="M375 -12c-46.667 0 -89.833 6.66504 -129.5 19.998s-74 34.333 -103 63s-51.667 65.667 -68 111s-24.5 99.666 -24.5 162.999v20c0 60.667 8.66699 112.834 26 156.501s40.666 79.667 69.999 108s63.333 49.166 102 62.499s79.334 20 122.001 20
c80 0 145.833 -19.167 197.5 -57.5s84.167 -96.5 97.5 -174.5h-156c-7.33301 21.333 -16 38.833 -26 52.5s-21.167 24.334 -33.5 32.001s-25.333 13 -39 16s-27.167 4.5 -40.5 4.5c-22 0 -43 -3.83301 -63 -11.5s-37.5 -20.167 -52.5 -37.5s-26.833 -40 -35.5 -68
s-13 -62.333 -13 -103v-20c0 -43.333 4.83301 -79.666 14.5 -108.999s22.334 -53 38.001 -71s33.667 -30.833 54 -38.5s41.166 -11.5 62.499 -11.5s41.5 2.83301 60.5 8.5s35.667 14.334 50 26.001s26 26.667 35 45s14.5 40.5 16.5 66.5h-142v104h285v-40
c0 -58 -7.33301 -108.167 -22 -150.5s-35.167 -77.333 -61.5 -105s-58.333 -48.167 -96 -61.5s-79.5 -20 -125.5 -20z" />
    <glyph glyph-name="H" unicode="H" horiz-adv-x="760" 
d="M80 700h150v-278h300v278h150v-700h-150v298h-300v-298h-150v700z" />
    <glyph glyph-name="I" unicode="I" horiz-adv-x="330" 
d="M90 700h150v-700h-150v700z" />
    <glyph glyph-name="J" unicode="J" horiz-adv-x="575" 
d="M255 -12c-74.667 0 -131.165 20 -169.498 60s-58.5 97.333 -60.5 172h142c2.66699 -70 32 -105 88 -105c31.333 0 54.166 10 68.499 30s21.5 55 21.5 105v450h150v-450c0 -47.333 -5.5 -87.5 -16.5 -120.5s-26.833 -60 -47.5 -81s-45.834 -36.333 -75.501 -46
s-63.167 -14.5 -100.5 -14.5z" />
    <glyph glyph-name="K" unicode="K" horiz-adv-x="700" 
d="M80 700h150v-295l256 295h174l-261 -287l281 -413h-176l-206 314l-68 -74v-240h-150v700z" />
    <glyph glyph-name="L" unicode="L" horiz-adv-x="570" 
d="M80 700h150v-576h320v-124h-470v700z" />
    <glyph glyph-name="M" unicode="M" horiz-adv-x="880" 
d="M80 700h150l213 -394l212 394h145v-700h-150v445l-165 -305h-90l-165 305v-445h-150v700z" />
    <glyph glyph-name="N" unicode="N" horiz-adv-x="760" 
d="M80 700h142l308 -450v450h150v-700h-142l-308 450v-450h-150v700z" />
    <glyph glyph-name="O" unicode="O" horiz-adv-x="760" 
d="M380 -12c-44 0 -85.833 6.66699 -125.5 20s-74.667 34.333 -105 63s-54.5 65.5 -72.5 110.5s-27 99.5 -27 163.5v20c0 61.333 9 113.833 27 157.5s42.167 79.5 72.5 107.5s65.333 48.667 105 62s81.5 20 125.5 20s85.833 -6.66699 125.5 -20s74.667 -34 105 -62
s54.5 -63.833 72.5 -107.5s27 -96.167 27 -157.5v-20c0 -64 -9 -118.5 -27 -163.5s-42.167 -81.833 -72.5 -110.5s-65.333 -49.667 -105 -63s-81.5 -20 -125.5 -20zM380 114c22.667 0 44.5 3.83301 65.5 11.5s39.5 20.5 55.5 38.5s28.833 41.667 38.5 71s14.5 66 14.5 110
v20c0 41.333 -4.83301 76 -14.5 104s-22.5 50.667 -38.5 68s-34.5 29.833 -55.5 37.5s-42.833 11.5 -65.5 11.5s-44.5 -3.83301 -65.5 -11.5s-39.5 -20.167 -55.5 -37.5s-28.833 -40 -38.5 -68s-14.5 -62.667 -14.5 -104v-20c0 -44 4.83301 -80.667 14.5 -110
s22.5 -53 38.5 -71s34.5 -30.833 55.5 -38.5s42.833 -11.5 65.5 -11.5z" />
    <glyph glyph-name="P" unicode="P" horiz-adv-x="665" 
d="M80 700h270c94.667 0 165 -20.833 211 -62.5s69 -97.5 69 -167.5s-23 -125.833 -69 -167.5s-116.333 -62.5 -211 -62.5h-120v-240h-150v700zM335 364c53.333 0 90.833 9 112.5 27s32.5 44.333 32.5 79c0 34 -10.833 60.167 -32.5 78.5s-59.167 27.5 -112.5 27.5h-105
v-212h105z" />
    <glyph glyph-name="Q" unicode="Q" horiz-adv-x="760" 
d="M380 -12c-44 0 -85.8311 6.66797 -125.498 20.001s-74.667 34.333 -105 63s-54.5 65.5 -72.5 110.5s-27 99.5 -27 163.5v20c0 61.333 9 113.833 27 157.5s42.167 79.5 72.5 107.5s65.333 48.667 105 62s81.5 20 125.5 20s85.833 -6.66699 125.5 -20s74.667 -34 105 -62
s54.5 -63.833 72.5 -107.5s27 -96.167 27 -157.5v-20c0 -52.667 -6.33301 -98.834 -19 -138.501s-29.667 -73.834 -51 -102.501l60 -59l-75 -75l-64 63c-26.667 -15.333 -55.334 -26.666 -86.001 -33.999s-62.334 -11 -95.001 -11zM380.002 114.001
c29.333 0 56.333 6.33398 81 19.001l-101 102l75 75l96 -97c7.33301 17.333 13 36.666 17 57.999s6 46 6 74v20c0 41.333 -4.83301 76 -14.5 104s-22.5 50.667 -38.5 68s-34.5 29.833 -55.5 37.5s-42.833 11.5 -65.5 11.5s-44.5 -3.83301 -65.5 -11.5
s-39.5 -20.167 -55.5 -37.5s-28.833 -40 -38.5 -68s-14.5 -62.667 -14.5 -104v-20c0 -44 4.83301 -80.667 14.5 -110s22.5 -53 38.5 -71s34.5 -30.833 55.5 -38.5s42.833 -11.5 65.5 -11.5z" />
    <glyph glyph-name="R" unicode="R" horiz-adv-x="690" 
d="M80 700l285 0.00292969c44 0 82.5 -5.33301 115.5 -16s60.5 -25.834 82.5 -45.501s38.667 -43.334 50 -71.001s17 -58.5 17 -92.5c0 -48.667 -12.5 -90.834 -37.5 -126.501s-62.5 -61.167 -112.5 -76.5l170 -272h-174l-147 256h-99v-256h-150v700zM335 374.003
c28 0 51.167 2.16699 69.5 6.5s33.166 10.666 44.499 18.999s19.333 18.833 24 31.5s7 27.334 7 44.001s-2.33301 31.334 -7 44.001s-12.667 23.167 -24 31.5s-26.166 14.666 -44.499 18.999s-41.5 6.5 -69.5 6.5h-105v-202h105z" />
    <glyph glyph-name="S" unicode="S" horiz-adv-x="660" 
d="M330 -12c-92.667 0 -162.664 19 -209.997 57s-72.333 88 -75 150h150c2.66699 -13.333 6.66699 -25 12 -35s13.333 -18.333 24 -25s24 -11.834 40 -15.501s35.667 -5.5 59 -5.5c48 0 82.5 6.5 103.5 19.5s31.5 31.5 31.5 55.5c0 29.333 -13.833 51.5 -41.5 66.5
s-71.834 28.5 -132.501 40.5c-36 6.66699 -68 15.5 -96 26.5s-51.667 25 -71 42s-34 37.5 -44 61.5s-15 52.667 -15 86c0 30 6.16699 57.333 18.5 82s30 45.834 53 63.501s50.833 31.167 83.5 40.5s69.334 14 110.001 14c44 0 82 -4.66699 114 -14
s58.833 -22.666 80.5 -39.999s38.167 -38 49.5 -62s18.333 -51 21 -81h-150c-4.66699 24 -15.334 41.833 -32.001 53.5s-44.334 17.5 -83.001 17.5c-39.333 0 -68.333 -6.33301 -87 -19s-28 -29.667 -28 -51c0 -25.333 12.833 -45.5 38.5 -60.5s66.167 -27.833 121.5 -38.5
c38 -7.33301 71.833 -16.333 101.5 -27s54.667 -24.334 75 -41.001s36 -37.167 47 -61.5s16.5 -53.5 16.5 -87.5c0 -64.667 -24.833 -116.167 -74.5 -154.5s-119.834 -57.5 -210.501 -57.5z" />
    <glyph glyph-name="T" unicode="T" 
d="M245 576h-225v124h600v-124h-225v-576h-150v576z" />
    <glyph glyph-name="U" unicode="U" horiz-adv-x="730" 
d="M365 -12c-45.333 0 -86.168 6 -122.501 18s-67.166 30.167 -92.499 54.5s-45 54.833 -59 91.5s-21 79.334 -21 128.001v420h150v-406c0 -60 11.667 -105 35 -135s60 -45 110 -45s86.667 15 110 45s35 74.667 35 134v407h150v-420
c0 -48.667 -6.83301 -91.334 -20.5 -128.001s-33.334 -67.167 -59.001 -91.5s-56.667 -42.5 -93 -54.5s-77.166 -18 -122.499 -18z" />
    <glyph glyph-name="V" unicode="V" horiz-adv-x="690" 
d="M10 700h162l184 -520l174 520h150l-255 -700h-150z" />
    <glyph glyph-name="W" unicode="W" horiz-adv-x="980" 
d="M20 700h156l109 -494l135 494h140l138 -496l118 496h144l-180 -700h-150l-145 500l-135 -500h-150z" />
    <glyph glyph-name="X" unicode="X" horiz-adv-x="700" 
d="M255 365l-225 335h168l154 -229l155 229h163l-223 -332l233 -368h-169l-162 262l-163 -262h-166z" />
    <glyph glyph-name="Y" unicode="Y" horiz-adv-x="680" 
d="M275 267l-265 433h176l167 -281l157 281h160l-245 -433v-267h-150v267z" />
    <glyph glyph-name="Z" unicode="Z" horiz-adv-x="620" 
d="M35 109l360 467h-350v124h530v-109l-360 -467h370v-124h-550v109z" />
    <glyph glyph-name="bracketleft" unicode="[" horiz-adv-x="380" 
d="M110 700h220v-98h-100v-704h100v-98h-220v900z" />
    <glyph glyph-name="backslash" unicode="\" horiz-adv-x="480" 
d="M20 700h120l320 -900h-120z" />
    <glyph glyph-name="bracketright" unicode="]" horiz-adv-x="380" 
d="M270.007 -199.957h-219.986v97.9941h99.9932v703.957h-99.9932v97.9941h219.986v-899.945z" />
    <glyph glyph-name="asciicircum" unicode="^" horiz-adv-x="570" 
d="M219 700h132l184 -260h-150l-106 155l-106 -155h-138z" />
    <glyph glyph-name="underscore" unicode="_" horiz-adv-x="500" 
d="M0 -51h500v-98h-500v98z" />
    <glyph glyph-name="grave" unicode="`" horiz-adv-x="300" 
d="M20 740h150l110 -160h-110z" />
    <glyph glyph-name="a" unicode="a" horiz-adv-x="575" 
d="M219 -12c-28.667 0 -53.999 4.16504 -75.999 12.498s-40.667 20 -56 35s-27 32.667 -35 53s-12 42.5 -12 66.5c0 106.667 63.333 160 190 160h158v25c0 34.667 -7.83301 59 -23.5 73s-40.5 21 -74.5 21c-30 0 -51.667 -5.16699 -65 -15.5s-21 -23.166 -23 -38.499h-132
c1.33301 22.667 7.16602 44 17.499 64s25 37.167 44 51.5s42.167 25.666 69.5 33.999s58.666 12.5 93.999 12.5c34 0 64.833 -3.66699 92.5 -11s51.334 -19.166 71.001 -35.499s34.834 -37.5 45.501 -63.5s16 -57.333 16 -94v-203c0 -28 0.5 -52.5 1.5 -73.5
s2.83301 -41.5 5.5 -61.5h-123c-2.66699 14.667 -4.16699 25.834 -4.5 33.501s-0.5 19.167 -0.5 34.5c-14.667 -21.333 -36.834 -40 -66.501 -56s-67.5 -24 -113.5 -24zM260.001 89.998c16 0 31.666 2.16699 46.999 6.5s29 11 41 20s21.667 20.5 29 34.5s11 30.333 11 49v25
h-133c-25.333 0 -45.166 -5.83301 -59.499 -17.5s-21.5 -27.5 -21.5 -47.5c0 -21.333 7.33301 -38.333 22 -51s36 -19 64 -19z" />
    <glyph glyph-name="b" unicode="b" horiz-adv-x="615" 
d="M355 -12c-44 0 -80.335 9 -109.002 27s-49.667 39 -63 63v-78h-123v700h132v-243c17.333 25.333 39.833 45.833 67.5 61.5s59.5 23.5 95.5 23.5c70.667 0 125.834 -21.833 165.501 -65.5s59.5 -109.167 59.5 -196.5v-20c0 -91.333 -20.167 -159.5 -60.5 -204.5
s-95.166 -67.5 -164.499 -67.5zM323.998 100c34.667 0 63.668 13.167 87.001 39.5s35 66.5 35 120.5v20c0 50 -11.333 87.5 -34 112.5s-52 37.5 -88 37.5c-38 0 -69.5 -10.833 -94.5 -32.5s-37.5 -54.167 -37.5 -97.5v-60c0 -47.333 12.167 -82.5 36.5 -105.5
s56.166 -34.5 95.499 -34.5z" />
    <glyph glyph-name="c" unicode="c" horiz-adv-x="565" 
d="M295 -12c-36.667 0 -70.8311 5.66602 -102.498 16.999s-59.167 28.333 -82.5 51s-41.666 51 -54.999 85s-20 73.667 -20 119v20c0 42.667 7 80.334 21 113.001s32.833 60 56.5 82s51.167 38.667 82.5 50s64.666 17 99.999 17c37.333 0 70.5 -5 99.5 -15
s53.5 -23.667 73.5 -41s35.667 -37.666 47 -60.999s18 -48.333 20 -75h-134c-5.33301 24.667 -16.166 44.167 -32.499 58.5s-40.833 21.5 -73.5 21.5c-17.333 0 -33.5 -3 -48.5 -9s-28.333 -15.167 -40 -27.5s-20.834 -27.833 -27.501 -46.5s-10 -41 -10 -67v-20
c0 -28 3.16699 -52.167 9.5 -72.5s15.166 -37 26.499 -50s24.666 -22.5 39.999 -28.5s32 -9 50 -9c26 0 48.5 6.83301 67.5 20.5s31.833 33.5 38.5 59.5h134c-3.33301 -29.333 -11.5 -55.833 -24.5 -79.5s-30 -43.834 -51 -60.501s-45.5 -29.5 -73.5 -38.5
s-58.333 -13.5 -91 -13.5z" />
    <glyph glyph-name="d" unicode="d" horiz-adv-x="615" 
d="M260 -12c-69.333 0 -124.168 22.5 -164.501 67.5s-60.5 113.167 -60.5 204.5v20c0 85.333 20.333 150.333 61 195s95.334 67 164.001 67c36 0 67.833 -7.83301 95.5 -23.5s50.167 -36.167 67.5 -61.5v243h132v-700h-123v78c-13.333 -24 -34.333 -45 -63 -63
s-65 -27 -109 -27zM290.998 100c39.333 0 71.167 11.5 95.5 34.5s36.5 58.167 36.5 105.5v60c0 43.333 -12.5 75.833 -37.5 97.5s-56.5 32.5 -94.5 32.5c-36 0 -65.333 -12.5 -88 -37.5s-34 -62.5 -34 -112.5v-20c0 -54 11.667 -94.167 35 -120.5s52.333 -39.5 87 -39.5z
" />
    <glyph glyph-name="e" unicode="e" horiz-adv-x="580" 
d="M300 -12c-36 0 -70.1641 5.5 -102.497 16.5s-60.5 27.667 -84.5 50s-43 50.666 -57 84.999s-21 74.5 -21 120.5v20c0 44 6.66699 82.333 20 115s31.666 59.834 54.999 81.501s50.333 38 81 49s63.667 16.5 99 16.5c83.333 0 146.666 -22 189.999 -66s65 -107.667 65 -191
v-56h-375c0.666992 -23.333 4.66699 -43.5 12 -60.5s17 -30.833 29 -41.5s25.833 -18.5 41.5 -23.5s31.5 -7.5 47.5 -7.5c34 0 59.667 5 77 15s29.666 24.667 36.999 44h121c-10.667 -55.333 -37 -97 -79 -125s-94 -42 -156 -42zM295.003 434
c-15.333 0 -30.5 -1.99902 -45.5 -5.99902s-28.167 -10.333 -39.5 -19s-20.666 -20.334 -27.999 -35.001s-11.333 -32.334 -12 -53.001h247c-0.666992 22 -4.16699 40.333 -10.5 55s-15 26.334 -26 35.001s-23.833 14.667 -38.5 18s-30.334 5 -47.001 5z" />
    <glyph glyph-name="f" unicode="f" horiz-adv-x="365" 
d="M90 420h-65v110h65v20c0 50.667 14.167 89.334 42.5 116.001s77.5 40 147.5 40c10 0 22.5 -0.166992 37.5 -0.5s27.5 -1.16602 37.5 -2.49902v-112c-10 1.33301 -20.833 2.16602 -32.5 2.49902s-22.5 0.5 -32.5 0.5c-25.333 0 -43 -4.33301 -53 -13
s-15 -22.334 -15 -41.001v-10h123v-110h-123v-420h-132v420z" />
    <glyph glyph-name="g" unicode="g" horiz-adv-x="615" 
d="M290 -212c-42 0 -77.502 3.83301 -106.502 11.5s-52.667 18.667 -71 33s-32 31.5 -41 51.5s-14.5 42 -16.5 66h134c2 -7.33301 5 -14.333 9 -21s10 -12.834 18 -18.501s18 -10.167 30 -13.5s26.667 -5 44 -5c88.667 0 133 42.667 133 128v63
c-17.333 -25.333 -39.833 -45.833 -67.5 -61.5s-59.5 -23.5 -95.5 -23.5c-69.333 0 -124.166 22.333 -164.499 67s-60.5 111.334 -60.5 200.001v20c0 82.667 20.333 146.167 61 190.5s95.334 66.5 164.001 66.5c44 0 80.333 -9 109 -27s49.667 -39 63 -63v78h123v-500
c0 -78.667 -21.833 -138.667 -65.5 -180s-110.167 -62 -199.5 -62zM290.998 110c39.333 0 71.167 11.332 95.5 33.999s36.5 56.334 36.5 101.001v60c0 40.667 -12.5 71.667 -37.5 93s-56.5 32 -94.5 32c-36 0 -65.333 -12.333 -88 -37s-34 -60.667 -34 -108v-20
c0 -51.333 11.667 -90 35 -116s52.333 -39 87 -39z" />
    <glyph glyph-name="h" unicode="h" horiz-adv-x="605" 
d="M60 700h131.998v-243c6 10 13.667 20 23 30s20.833 19.167 34.5 27.5s29.334 15 47.001 20s38.167 7.5 61.5 7.5c64.667 0 112.834 -17.333 144.501 -52s47.5 -84.667 47.5 -150v-340h-132v309c0 40 -8.16699 70.167 -24.5 90.5s-44.166 30.5 -83.499 30.5
c-21.333 0 -39.333 -3.33301 -54 -10s-26.834 -15.5 -36.501 -26.5s-16.667 -23.833 -21 -38.5s-6.5 -30 -6.5 -46v-309h-132v700z" />
    <glyph glyph-name="i" unicode="i" horiz-adv-x="272" 
d="M70 530h132v-530h-132v530zM136 580c-23.333 0 -42.5 7.5 -57.5 22.5s-22.5 34.167 -22.5 57.5s7.5 42.5 22.5 57.5s34.167 22.5 57.5 22.5s42.5 -7.5 57.5 -22.5s22.5 -34.167 22.5 -57.5s-7.5 -42.5 -22.5 -57.5s-34.167 -22.5 -57.5 -22.5z" />
    <glyph glyph-name="j" unicode="j" horiz-adv-x="272" 
d="M22 -212c-7.33301 0 -15.666 0.166992 -24.999 0.5s-17.666 1.16602 -24.999 2.49902v112c5.33301 -1.33301 11.166 -2.16602 17.499 -2.49902s12.166 -0.5 17.499 -0.5c12 0 22 1.66699 30 5s14.5 9 19.5 17s8.5 19.167 10.5 33.5s3 32.5 3 54.5v520h132v-530
c0 -42 -2.83301 -76.667 -8.5 -104s-15.5 -49 -29.5 -65s-32.5 -27.167 -55.5 -33.5s-51.833 -9.5 -86.5 -9.5zM136 580c-23.333 0 -42.5 7.5 -57.5 22.5s-22.5 34.167 -22.5 57.5s7.5 42.5 22.5 57.5s34.167 22.5 57.5 22.5s42.5 -7.5 57.5 -22.5s22.5 -34.167 22.5 -57.5
s-7.5 -42.5 -22.5 -57.5s-34.167 -22.5 -57.5 -22.5z" />
    <glyph glyph-name="k" unicode="k" horiz-adv-x="575" 
d="M60 700h132v-388l196 218h152l-204 -227l224 -303h-154l-154 216l-60 -63v-153h-132v700z" />
    <glyph glyph-name="l" unicode="l" horiz-adv-x="330" 
d="M240 -6c-30.667 0 -56.998 2.83203 -78.998 8.49902s-40.167 15.5 -54.5 29.5s-24.833 32.833 -31.5 56.5s-10 53.167 -10 88.5v523h132v-507c0 -34 5 -57 15 -69s29.333 -18 58 -18c7.33301 0 13.666 0.166992 18.999 0.5s10.666 0.833008 15.999 1.5v-111
c-5.33301 -1.33301 -15 -2.16602 -29 -2.49902s-26 -0.5 -36 -0.5z" />
    <glyph glyph-name="m" unicode="m" horiz-adv-x="875" 
d="M60 530l122.001 -0.000976562v-79c6 12 13.833 23.333 23.5 34s21 20.334 34 29.001s27.333 15.5 43 20.5s32.5 7.5 50.5 7.5c42.667 0 76.167 -8.66699 100.5 -26s41.5 -40.333 51.5 -69c14.667 28 35.834 50.833 63.501 68.5s60.5 26.5 98.5 26.5
c56.667 0 99.667 -16.167 129 -48.5s44 -81.833 44 -148.5v-345h-132v315c0 42 -6.83301 71.667 -20.5 89s-35.5 26 -65.5 26c-26.667 0 -49.334 -10.167 -68.001 -30.5s-28 -48.5 -28 -84.5v-315h-132v315c0 42 -6.83301 71.667 -20.5 89s-35.5 26 -65.5 26
c-26.667 0 -49.334 -10.167 -68.001 -30.5s-28 -48.5 -28 -84.5v-315h-132v530z" />
    <glyph glyph-name="n" unicode="n" horiz-adv-x="605" 
d="M60 530h121.999v-78c12.667 24 33.167 45 61.5 63s66.5 27 114.5 27c64.667 0 112.834 -17.333 144.501 -52s47.5 -84.667 47.5 -150v-340h-132v310c0 40 -8.16699 70 -24.5 90s-44.166 30 -83.499 30c-21.333 0 -39.333 -3.33301 -54 -10s-26.834 -15.5 -36.501 -26.5
s-16.667 -23.667 -21 -38s-6.5 -29.5 -6.5 -45.5v-310h-132v530z" />
    <glyph glyph-name="o" unicode="o" horiz-adv-x="600" 
d="M300 -12c-36 0 -70.167 5.5 -102.5 16.5s-60.5 27.833 -84.5 50.5s-43 51 -57 85s-21 74 -21 120v20c0 43.333 7 81.333 21 114s33 60 57 82s52.167 38.5 84.5 49.5s66.5 16.5 102.5 16.5s70 -5.5 102 -16.5s60.167 -27.5 84.5 -49.5s43.5 -49.333 57.5 -82
s21 -70.667 21 -114v-20c0 -45.333 -7 -85 -21 -119s-33.167 -62.333 -57.5 -85s-52.5 -39.667 -84.5 -51s-66 -17 -102 -17zM300 100c37.333 0 68.5 13.333 93.5 40s37.5 66.667 37.5 120v20c0 48.667 -12.5 85.834 -37.5 111.501s-56.167 38.5 -93.5 38.5
c-38 0 -69.333 -12.833 -94 -38.5s-37 -62.834 -37 -111.501v-20c0 -54 12.333 -94.167 37 -120.5s56 -39.5 94 -39.5z" />
    <glyph glyph-name="p" unicode="p" horiz-adv-x="615" 
d="M60 530h122.998v-78c13.333 24 34.333 45 63 63s65 27 109 27c70.667 0 125.834 -21.833 165.501 -65.5s59.5 -109.167 59.5 -196.5v-20c0 -91.333 -20.167 -159.5 -60.5 -204.5s-95.166 -67.5 -164.499 -67.5c-36 0 -67.833 7.83301 -95.5 23.5
s-50.167 36.167 -67.5 61.5v-273h-132v730zM323.998 100c34.667 0 63.668 13.167 87.001 39.5s35 66.5 35 120.5v20c0 50 -11.333 87.5 -34 112.5s-52 37.5 -88 37.5c-38 0 -69.5 -10.833 -94.5 -32.5s-37.5 -54.167 -37.5 -97.5v-60c0 -47.333 12.167 -82.5 36.5 -105.5
s56.166 -34.5 95.499 -34.5z" />
    <glyph glyph-name="q" unicode="q" horiz-adv-x="615" 
d="M423 73c-17.333 -25.333 -39.835 -45.833 -67.502 -61.5s-59.5 -23.5 -95.5 -23.5c-69.333 0 -124.166 22.5 -164.499 67.5s-60.5 113.167 -60.5 204.5v20c0 85.333 20.333 150.333 61 195s95.334 67 164.001 67c44 0 80.333 -9 109 -27s49.667 -39 63 -63v78h123v-730
h-132v273zM290.998 100c39.333 0 71.167 11.5 95.5 34.5s36.5 58.167 36.5 105.5v60c0 43.333 -12.5 75.833 -37.5 97.5s-56.5 32.5 -94.5 32.5c-36 0 -65.333 -12.5 -88 -37.5s-34 -62.5 -34 -112.5v-20c0 -54 11.667 -94.167 35 -120.5s52.333 -39.5 87 -39.5z" />
    <glyph glyph-name="r" unicode="r" horiz-adv-x="390" 
d="M60 530h121.999v-78c4.66699 10.667 11.334 21.5 20.001 32.5s19 20.667 31 29s25.167 15.166 39.5 20.499s30.166 8 47.499 8c12.667 0 23.5 -0.666992 32.5 -2s14.833 -2.66602 17.5 -3.99902v-117c-6.66699 2.66699 -15.167 5.16699 -25.5 7.5
s-24.166 3.5 -41.499 3.5c-20 0 -37 -3.33301 -51 -10s-25.5 -15.5 -34.5 -26.5s-15.5 -23.833 -19.5 -38.5s-6 -30 -6 -46v-309h-132v530z" />
    <glyph glyph-name="s" unicode="s" horiz-adv-x="550" 
d="M275 -12c-43.333 0 -79.835 4.6709 -109.502 14.0039s-53.667 21.666 -72 36.999s-32.166 33 -41.499 53s-15 41 -17 63h132c3.33301 -17.333 13.666 -31.5 30.999 -42.5s43 -16.5 77 -16.5c38.667 0 66.334 5.33301 83.001 16s25 24.334 25 41.001
c0 8.66699 -2 16.167 -6 22.5s-10.833 12.166 -20.5 17.499s-22.834 10 -39.501 14s-37.667 8 -63 12c-28.667 4 -55.334 9.66699 -80.001 17s-46.167 17.333 -64.5 30s-32.833 28.5 -43.5 47.5s-16 42.167 -16 69.5c0 22 5 42.667 15 62s24.667 36.166 44 50.499
s43 25.666 71 33.999s59.667 12.5 95 12.5c38 0 70.5 -4.66699 97.5 -14s49.167 -21.833 66.5 -37.5s30.333 -33.5 39 -53.5s14.334 -40.667 17.001 -62h-132c-5.33301 19.333 -15.666 34 -30.999 44s-34.333 15 -57 15c-33.333 0 -57.166 -5.16699 -71.499 -15.5
s-21.5 -23.166 -21.5 -38.499c0 -8 1.66699 -15 5 -21s9.5 -11.333 18.5 -16s21.333 -8.83398 37 -12.501s35.5 -7.16699 59.5 -10.5c30 -4 57.833 -9.83301 83.5 -17.5s48.167 -17.834 67.5 -30.501s34.5 -28.667 45.5 -48s16.5 -42.333 16.5 -69
c0 -24 -5 -46.167 -15 -66.5s-25 -38 -45 -53s-45 -26.667 -75 -35s-65 -12.5 -105 -12.5z" />
    <glyph glyph-name="t" unicode="t" horiz-adv-x="400" 
d="M275 -6c-62.667 0 -108.332 13.5 -136.999 40.5s-43 72.167 -43 135.5v250h-70v110h70v120h132v-120h128v-110h-128v-230c0 -30 5.5 -51.5 16.5 -64.5s31.5 -19.5 61.5 -19.5c20 0 40 1 60 3v-110c-12.667 -1.33301 -25.834 -2.5 -39.501 -3.5s-30.5 -1.5 -50.5 -1.5z
" />
    <glyph glyph-name="u" unicode="u" horiz-adv-x="595" 
d="M242 -12c-62 0 -108.665 17.5 -139.998 52.5s-47 89.167 -47 162.5v327h132v-309c0 -40 7.83301 -70.167 23.5 -90.5s42.167 -30.5 79.5 -30.5c20 0 37 3.33301 51 10s25.667 15.5 35 26.5s16.166 23.833 20.499 38.5s6.5 30 6.5 46v309h132v-530h-122v78
c-12.667 -24 -32.834 -45 -60.501 -63s-64.5 -27 -110.5 -27z" />
    <glyph glyph-name="v" unicode="v" horiz-adv-x="580" 
d="M10 530h148l144 -365l132 365h136l-204 -530h-132z" />
    <glyph glyph-name="w" unicode="w" horiz-adv-x="830" 
d="M20 530h142l86 -350l107 350h122l112 -350l91 350h130l-148 -530h-132l-117 370l-113 -370h-132z" />
    <glyph glyph-name="x" unicode="x" horiz-adv-x="570" 
d="M195 276l-170 254h147l116 -170l114 170h143l-168 -249l178 -281h-148l-124 198l-123 -198h-145z" />
    <glyph glyph-name="y" unicode="y" horiz-adv-x="580" 
d="M150 -212c-10 0 -20 1 -30 3v112c10 -2 20 -3 30 -3c20 0 35.5 7.5 46.5 22.5s23.5 40.833 37.5 77.5l-224 530h148l144 -366l132 366h136l-204 -530c-14.667 -37.333 -28.5 -69.5 -41.5 -96.5s-27.5 -49 -43.5 -66s-34.333 -29.5 -55 -37.5s-46 -12 -76 -12z" />
    <glyph glyph-name="z" unicode="z" horiz-adv-x="510" 
d="M30 95l274 325h-264v110h430v-95l-274 -325h284v-110h-450v95z" />
    <glyph glyph-name="braceleft" unicode="{" horiz-adv-x="380" 
d="M280 -200c-50 0 -89.167 14.167 -117.5 42.5s-42.5 67.5 -42.5 117.5v191c0 15.333 -4.5 27.5 -13.5 36.5s-21.167 13.5 -36.5 13.5v98c15.333 0 27.5 4.66699 36.5 14s13.5 21.333 13.5 36v201c0 22.667 4 43.167 12 61.5s19 34 33 47s30.833 23.167 50.5 30.5
s41.167 11 64.5 11h60v-98h-40c-40 0 -60 -20 -60 -60v-222c0 -20 -4.5 -35.333 -13.5 -46s-21.167 -18.667 -36.5 -24c15.333 -5.33301 27.5 -13.333 36.5 -24s13.5 -26 13.5 -46v-222c0 -40 20 -60 60 -60h40v-98h-60z" />
    <glyph glyph-name="bar" unicode="|" horiz-adv-x="340" 
d="M110 700h120v-900h-120v900z" />
    <glyph glyph-name="braceright" unicode="}" horiz-adv-x="380" 
d="M100.018 699.988c49.9971 0 89.1592 -14.167 117.49 -42.499c28.332 -28.3311 42.498 -67.4951 42.498 -117.492v-190.989c0 -15.332 4.5 -27.498 13.499 -36.4971s21.165 -13.499 36.4971 -13.499v-97.9941c-15.332 0 -27.498 -4.66602 -36.4971 -13.999
s-13.499 -21.332 -13.499 -35.9971v-200.988c0 -22.665 -4 -43.1641 -12 -61.4961c-7.99902 -18.332 -18.998 -33.998 -32.9971 -46.9971s-30.8311 -23.165 -50.4971 -30.498c-19.665 -7.33301 -41.1631 -10.999 -64.4941 -10.999h-59.9971v97.9941h39.998
c39.9971 0 59.9961 19.999 59.9961 59.9961v221.986c0 19.999 4.5 35.3311 13.499 45.9971s21.165 18.666 36.498 23.999c-15.333 5.33301 -27.499 13.332 -36.498 23.998s-13.499 25.998 -13.499 45.9971v221.986c0 39.998 -19.999 59.9971 -59.9961 59.9971h-39.998
v97.9941h59.9971z" />
    <glyph glyph-name="asciitilde" unicode="~" horiz-adv-x="570" 
d="M380 260c-22.667 0 -42.6699 3.83594 -60.0029 11.5029s-33.5 16.167 -48.5 25.5s-29.5 17.833 -43.5 25.5s-28.333 11.5 -43 11.5c-11.333 0 -21.166 -2.83301 -29.499 -8.5s-15.166 -11.834 -20.499 -18.501c-6.66699 -8 -12.334 -17 -17.001 -27l-88 55
c10.667 23.333 23.667 44 39 62c13.333 15.333 29.833 29.666 49.5 42.999s43.5 20 71.5 20c22.667 0 42.667 -3.83301 60 -11.5s33.5 -16.167 48.5 -25.5s29.333 -17.833 43 -25.5s28.167 -11.5 43.5 -11.5c10.667 0 20.334 2.66699 29.001 8s15.667 11.666 21 18.999
c6.66699 7.33301 12.334 16.333 17.001 27l88 -55c-10.667 -24 -23.667 -45 -39 -63c-13.333 -15.333 -29.833 -29.5 -49.5 -42.5s-43.5 -19.5 -71.5 -19.5z" />
    <glyph glyph-name="uni00A0" unicode="&#xa0;" horiz-adv-x="250" 
 />
    <glyph glyph-name="exclamdown" unicode="&#xa1;" horiz-adv-x="310" 
d="M91 300h132v-500h-132v500zM155 372c-23.333 0 -43.333 8.33301 -60 25s-25 36.667 -25 60c0 24.667 8.33301 45 25 61s36.667 24 60 24s43.333 -8 60 -24s25 -36.333 25 -61c0 -23.333 -8.33301 -43.333 -25 -60s-36.667 -25 -60 -25z" />
    <glyph glyph-name="cent" unicode="&#xa2;" horiz-adv-x="565" 
d="M235 -6c-29.333 5.33301 -56.166 14.833 -80.499 28.5s-45.333 31.5 -63 53.5s-31.5 48.333 -41.5 79s-15 65.667 -15 105v20c0 36 5.16699 68.667 15.5 98s24.5 54.666 42.5 75.999s39.167 39 63.5 53s50.5 23.667 78.5 29v94h120v-93c56 -10 99 -32.167 129 -66.5
s47 -74.5 51 -120.5h-134c-5.33301 24.667 -16.166 44.167 -32.499 58.5s-40.833 21.5 -73.5 21.5c-17.333 0 -33.5 -3 -48.5 -9s-28.333 -15.167 -40 -27.5s-20.834 -27.833 -27.501 -46.5s-10 -41 -10 -67v-20c0 -28 3.16699 -52.167 9.5 -72.5s15.166 -37 26.499 -50
s24.666 -22.5 39.999 -28.5s32 -9 50 -9c26 0 48.5 6.83301 67.5 20.5s31.833 33.5 38.5 59.5h134c-5.33301 -50 -24.166 -91.167 -56.499 -123.5s-73.5 -53.166 -123.5 -62.499v-114h-120v114z" />
    <glyph glyph-name="sterling" unicode="&#xa3;" horiz-adv-x="650" 
d="M50 124h90v164h-80v104h80v108c0 66.667 20.167 118.667 60.5 156s97.833 56 172.5 56c73.333 0 128.833 -17.833 166.5 -53.5s57.834 -83.5 60.501 -143.5h-150c-2.66699 22.667 -10.334 40.167 -23.001 52.5s-30.667 18.5 -54 18.5c-29.333 0 -50.5 -7.33301 -63.5 -22
s-19.5 -36 -19.5 -64v-108h165v-104h-165v-164h310v-124h-550v124z" />
    <glyph glyph-name="currency" unicode="&#xa4;" horiz-adv-x="570" 
d="M35 189l66.998 67.002c-8.66699 15.333 -15.334 31.666 -20.001 48.999s-7 35.666 -7 54.999c0 18.667 2.33301 36.667 7 54s11.334 33.666 20.001 48.999l-67 68l79 79l67 -68c32 18.667 66.667 28 104 28s71.666 -9.33301 102.999 -28l68 68l79 -79l-68 -68
c18.667 -31.333 28 -65.666 28 -102.999s-9.33301 -72 -28 -104l68 -67l-79 -79l-68 67c-15.333 -8.66699 -31.666 -15.334 -48.999 -20.001s-35.333 -7 -54 -7c-19.333 0 -37.666 2.33301 -54.999 7s-33.666 11.334 -48.999 20.001l-67 -67zM284.998 272.002
c24.667 0 45.167 8.33301 61.5 25s24.5 37.667 24.5 63s-8.16699 46.333 -24.5 63s-36.833 25 -61.5 25s-45.167 -8.33301 -61.5 -25s-24.5 -37.667 -24.5 -63s8.16699 -46.333 24.5 -63s36.833 -25 61.5 -25z" />
    <glyph glyph-name="yen" unicode="&#xa5;" horiz-adv-x="650" 
d="M255 137h-185v104h185v58h-185v104h104l-159 297h176l142 -297l142 297h160l-152 -297h107v-104h-185v-58h185v-104h-185v-137h-150v137z" />
    <glyph glyph-name="brokenbar" unicode="&#xa6;" horiz-adv-x="340" 
d="M110 170h120v-370h-120v370zM110 700h120v-370h-120v370z" />
    <glyph glyph-name="section" unicode="&#xa7;" horiz-adv-x="580" 
d="M290 -212c-65.333 0 -115.832 16.334 -151.499 49.001s-53.5 75.334 -53.5 128.001h156c0 -34 16.333 -51 49 -51c16 0 28.167 4.16699 36.5 12.5s12.5 19.5 12.5 33.5c0 7.33301 -1 14.833 -3 22.5s-7.33301 15.334 -16 23.001s-21.334 15.5 -38.001 23.5
s-39.334 16.667 -68.001 26c-48 15.333 -87.333 39.333 -118 72s-46 73.667 -46 123c0 38 9.5 71.833 28.5 101.5s44.833 53.167 77.5 70.5c-23.333 15.333 -41 34.166 -53 56.499s-18 46.166 -18 71.499c0 22.667 4.5 43.834 13.5 63.501s22.333 36.834 40 51.501
s39.167 26.167 64.5 34.5s54.333 12.5 87 12.5c65.333 0 115.833 -16.333 151.5 -49s53.5 -75.334 53.5 -128.001h-156c0 34 -16.333 51 -49 51s-49 -15.333 -49 -46c0 -7.33301 1.16699 -14.666 3.5 -21.999s7.66602 -15 15.999 -23s20.833 -16.167 37.5 -24.5
s39.667 -17.166 69 -26.499c48 -15.333 87.167 -39.333 117.5 -72s45.5 -73.334 45.5 -122.001c0 -38.667 -9.5 -72.834 -28.5 -102.501s-44.833 -53.167 -77.5 -70.5c22.667 -15.333 40.167 -34 52.5 -56s18.5 -45.667 18.5 -71c0 -22.667 -4.66699 -43.834 -14 -63.501
s-22.666 -36.834 -39.999 -51.501s-38.666 -26.167 -63.999 -34.5s-54.333 -12.5 -87 -12.5zM290.001 172.001c25.333 0 45.666 7.16699 60.999 21.5s23 33.166 23 56.499s-7.66699 42.166 -23 56.499s-35.666 21.5 -60.999 21.5s-45.666 -7.16699 -60.999 -21.5
s-23 -33.166 -23 -56.499s7.66699 -42.166 23 -56.499s35.666 -21.5 60.999 -21.5z" />
    <glyph glyph-name="dieresis" unicode="&#xa8;" horiz-adv-x="400" 
d="M94 586c-21.333 0 -39 7 -53 21s-21 31.667 -21 53s7 39 21 53s31.667 21 53 21s39 -7 53 -21s21 -31.667 21 -53s-7 -39 -21 -53s-31.667 -21 -53 -21zM306 586c-21.333 0 -39 7 -53 21s-21 31.667 -21 53s7 39 21 53s31.667 21 53 21s39 -7 53 -21s21 -31.667 21 -53
s-7 -39 -21 -53s-31.667 -21 -53 -21z" />
    <glyph glyph-name="copyright" unicode="&#xa9;" horiz-adv-x="840" 
d="M420 -22c-52.667 0 -101.834 9.5 -147.501 28.5s-85.334 45.167 -119.001 78.5s-60.167 72.666 -79.5 117.999s-29 94.333 -29 147s9.66699 101.667 29 147s45.833 84.666 79.5 117.999s73.334 59.5 119.001 78.5s94.834 28.5 147.501 28.5s101.834 -9.5 147.501 -28.5
s85.334 -45.167 119.001 -78.5s60.167 -72.666 79.5 -117.999s29 -94.333 29 -147s-9.66699 -101.667 -29 -147s-45.833 -84.666 -79.5 -117.999s-73.334 -59.5 -119.001 -78.5s-94.834 -28.5 -147.501 -28.5zM420 74c38 0 73.5 7 106.5 21s61.833 33.333 86.5 58
s44 53.834 58 87.501s21 70.167 21 109.5c0 38.667 -7 74.834 -21 108.501s-33.333 63 -58 88s-53.5 44.5 -86.5 58.5s-68.5 21 -106.5 21s-73.5 -7 -106.5 -21s-61.833 -33.5 -86.5 -58.5s-44 -54.333 -58 -88s-21 -69.834 -21 -108.501c0 -39.333 7 -75.833 21 -109.5
s33.333 -62.834 58 -87.501s53.5 -44 86.5 -58s68.5 -21 106.5 -21zM420 138c-58.667 0 -105.833 17.668 -141.5 53.001s-53.5 86.666 -53.5 153.999v10c0 32 4.83301 60.833 14.5 86.5s23.167 47.5 40.5 65.5s38 31.667 62 41s50 14 78 14c56 0 100 -13.333 132 -40
s49.667 -64 53 -112h-116c-5.33301 20.667 -13 36.167 -23 46.5s-25.333 15.5 -46 15.5c-21.333 0 -39.833 -9.83301 -55.5 -29.5s-23.5 -48.834 -23.5 -87.501v-10c0 -41.333 8 -71.166 24 -89.499s34.333 -27.5 55 -27.5c21.333 0 37.333 6.33301 48 19
s17.667 28.667 21 48h116c-4 -48 -21.667 -86.167 -53 -114.5s-75.333 -42.5 -132 -42.5z" />
    <glyph glyph-name="ordfeminine" unicode="&#xaa;" horiz-adv-x="400" 
d="M140 368c-40.667 0 -70.001 9 -88.001 27s-27 43.667 -27 77c0 31.333 10.833 56.5 32.5 75.5s59.167 28.5 112.5 28.5h71v9c0 19.333 -3.16699 32.333 -9.5 39s-15.166 10 -26.499 10c-9.33301 0 -17.5 -2.5 -24.5 -7.5s-11.833 -13.833 -14.5 -26.5h-121
c1.33301 18 5 33.833 11 47.5s15.167 25.334 27.5 35.001s28.5 17 48.5 22s44.333 7.5 73 7.5c60 0 101.667 -10.5 125 -31.5s35 -52.833 35 -95.5v-125c0 -17.333 0.666992 -32.5 2 -45.5s3 -24.5 5 -34.5h-114c-3.33301 9.33301 -5 22.666 -5 39.999
c-4 -7.33301 -9.83301 -14 -17.5 -20s-16.5 -11.5 -26.5 -16.5s-21 -8.83301 -33 -11.5s-24 -4 -36 -4zM181.999 446c18 0 32.334 4.66797 43.001 14.001s16 22.666 16 39.999v14h-51c-13.333 0 -23.5 -3.33301 -30.5 -10s-10.5 -15.667 -10.5 -27s3.16699 -19.333 9.5 -24
s14.166 -7 23.499 -7z" />
    <glyph glyph-name="guillemotleft" unicode="&#xab;" horiz-adv-x="540" 
d="M30 220v110l220 185v-138l-125 -100l125 -100v-142zM270 220v110l220 185v-138l-125 -100l125 -100v-142z" />
    <glyph glyph-name="logicalnot" unicode="&#xac;" horiz-adv-x="570" 
d="M398 298h-358v124h490v-292h-132v168z" />
    <glyph glyph-name="uni00AD" unicode="&#xad;" horiz-adv-x="380" 
d="M30 342h320v-124h-320v124z" />
    <glyph glyph-name="registered" unicode="&#xae;" 
d="M320 139c-39.333 0 -76.333 7.5 -111 22.5s-64.834 35.333 -90.501 61s-46 55.834 -61 90.501s-22.5 72 -22.5 112s7.5 77.333 22.5 112s35.333 64.834 61 90.501s55.834 46 90.501 61s71.667 22.5 111 22.5s76.333 -7.5 111 -22.5s64.834 -35.333 90.501 -61
s46 -55.834 61 -90.501s22.5 -72 22.5 -112s-7.5 -77.333 -22.5 -112s-35.333 -64.834 -61 -90.501s-55.834 -46 -90.501 -61s-71.667 -22.5 -111 -22.5zM320 214c28.667 0 55.5 5.16699 80.5 15.5s46.667 24.833 65 43.5s32.666 41 42.999 67s15.5 54.333 15.5 85
s-5.16699 59 -15.5 85s-24.666 48.333 -42.999 67s-40 33.167 -65 43.5s-51.833 15.5 -80.5 15.5c-29.333 0 -56.333 -5.16699 -81 -15.5s-46.167 -24.833 -64.5 -43.5s-32.666 -41 -42.999 -67s-15.5 -54.333 -15.5 -85s5.16699 -59 15.5 -85s24.666 -48.333 42.999 -67
s39.833 -33.167 64.5 -43.5s51.667 -15.5 81 -15.5zM205 575l115.001 -0.000976562c49.333 0 84.166 -8.66699 104.499 -26s30.5 -41.666 30.5 -72.999c0 -22 -4.83301 -40.5 -14.5 -55.5s-26.167 -26.167 -49.5 -33.5l54 -112h-90l-42 104h-24v-104h-84v300z
M316.001 442.999c21.333 0 35.833 2.83105 43.5 8.49805s11.5 13.834 11.5 24.501s-3.83301 18.834 -11.5 24.501s-22.167 8.5 -43.5 8.5h-27v-66h27z" />
    <glyph glyph-name="macron" unicode="&#xaf;" horiz-adv-x="340" 
d="M20 705h300v-90h-300v90z" />
    <glyph glyph-name="degree" unicode="&#xb0;" horiz-adv-x="390" 
d="M195 382c-22.667 0 -44 4.33301 -64 13s-37.5 20.5 -52.5 35.5s-26.833 32.5 -35.5 52.5s-13 41.333 -13 64s4.33301 44 13 64s20.5 37.5 35.5 52.5s32.5 26.833 52.5 35.5s41.333 13 64 13s44 -4.33301 64 -13s37.5 -20.5 52.5 -35.5s26.833 -32.5 35.5 -52.5
s13 -41.333 13 -64s-4.33301 -44 -13 -64s-20.5 -37.5 -35.5 -52.5s-32.5 -26.833 -52.5 -35.5s-41.333 -13 -64 -13zM195 486c17.333 0 31.833 5.83301 43.5 17.5s17.5 26.167 17.5 43.5s-5.83301 31.833 -17.5 43.5s-26.167 17.5 -43.5 17.5s-31.833 -5.83301 -43.5 -17.5
s-17.5 -26.167 -17.5 -43.5s5.83301 -31.833 17.5 -43.5s26.167 -17.5 43.5 -17.5z" />
    <glyph glyph-name="plusminus" unicode="&#xb1;" horiz-adv-x="570" 
d="M40 192h490v-124h-490v124zM219 348h-179v124h179v183h132v-183h179v-124h-179v-78h-132v78z" />
    <glyph glyph-name="twosuperior" unicode="&#xb2;" horiz-adv-x="380" 
d="M20 462l159.001 123.003c20 15.333 33.333 27.666 40 36.999s10 20.333 10 33c0 9.33301 -3.16699 17.166 -9.5 23.499s-16.166 9.5 -29.499 9.5c-11.333 0 -20.666 -3.83301 -27.999 -11.5s-11 -18.167 -11 -31.5h-126c0 46 13.667 82 41 108s68.666 39 123.999 39
s96.666 -12 123.999 -36s41 -54.333 41 -91c0 -13.333 -1.5 -25.333 -4.5 -36s-8.33301 -21.334 -16 -32.001s-17.834 -22 -30.501 -34s-28.667 -25.333 -48 -40l-53 -41h157v-102h-340v82z" />
    <glyph glyph-name="threesuperior" unicode="&#xb3;" horiz-adv-x="390" 
d="M195 368c-60 0 -104.165 12.833 -132.498 38.5s-42.5 60.167 -42.5 103.5h126c0 -25.333 16.333 -38 49 -38s49 12.333 49 37s-16.667 37 -50 37h-39v78h39c26.667 0 40 11.333 40 34c0 20 -13 30 -39 30c-12.667 0 -22.334 -3 -29.001 -9s-10 -14 -10 -24h-126
c0 43.333 13.167 77 39.5 101s68.166 36 125.499 36c54 0 95 -11 123 -33s42 -49.667 42 -83c0 -26 -5.83301 -45.167 -17.5 -57.5s-27.5 -21.833 -47.5 -28.5c20 -6.66699 37.5 -17.667 52.5 -33s22.5 -37 22.5 -65c0 -34.667 -14.167 -64 -42.5 -88s-72.5 -36 -132.5 -36z
" />
    <glyph glyph-name="acute" unicode="&#xb4;" horiz-adv-x="300" 
d="M130 740h150l-150 -160h-110z" />
    <glyph glyph-name="mu" unicode="&#xb5;" horiz-adv-x="600" 
d="M60 530h132.002v-309c0 -40 7.83301 -70.167 23.5 -90.5s42.167 -30.5 79.5 -30.5c20 0 37 3.33301 51 10s25.667 15.5 35 26.5s16.166 23.833 20.499 38.5s6.5 30 6.5 46v309h132v-530h-122v78c-12.667 -24 -32.834 -45 -60.501 -63s-64.5 -27 -110.5 -27
c-10 0 -19.5 0.666992 -28.5 2s-17.833 3 -26.5 5v-195h-132v730z" />
    <glyph glyph-name="paragraph" unicode="&#xb6;" horiz-adv-x="635" 
d="M185 306c-21.333 5.33301 -41.167 14.168 -59.5 26.501s-34.166 27 -47.499 44s-23.833 36 -31.5 57s-11.5 43.167 -11.5 66.5c0 27.333 5.33301 53.166 16 77.499s25 45.5 43 63.5s39.167 32.333 63.5 43s50.166 16 77.499 16h320v-900h-120v790h-130v-790h-120v506z
" />
    <glyph glyph-name="periodcentered" unicode="&#xb7;" horiz-adv-x="310" 
d="M155 190c-23.333 0 -43.333 8.33301 -60 25s-25 36.667 -25 60c0 24.667 8.33301 45 25 61s36.667 24 60 24s43.333 -8 60 -24s25 -36.333 25 -61c0 -23.333 -8.33301 -43.333 -25 -60s-36.667 -25 -60 -25z" />
    <glyph glyph-name="cedilla" unicode="&#xb8;" horiz-adv-x="240" 
d="M90 -212c-11.333 0 -21.333 0.332031 -30 0.999023s-16 1.66699 -22 3c-7.33301 1.33301 -13.333 2.66602 -18 3.99902v73c4 -1.33301 8.66699 -2.33301 14 -3c4.66699 -0.666992 10 -1.16699 16 -1.5s12.667 -0.5 20 -0.5c18 0 30.167 2.83301 36.5 8.5
s9.5 11.834 9.5 18.501c0 7.33301 -3 13.833 -9 19.5s-19.333 8.5 -40 8.5l17 91h76l-7 -46c25.333 -5.33301 42.833 -15.666 52.5 -30.999s14.5 -31.333 14.5 -48c0 -30 -10.167 -53.667 -30.5 -71s-53.5 -26 -99.5 -26z" />
    <glyph glyph-name="onesuperior" unicode="&#xb9;" horiz-adv-x="270" 
d="M119 649l-104 -74v127l110 78h120v-400h-126v269z" />
    <glyph glyph-name="ordmasculine" unicode="&#xba;" horiz-adv-x="380" 
d="M190 368c-26 0 -49.333 4 -70 12s-38.5 19.333 -53.5 34s-26.5 32.167 -34.5 52.5s-12 43.166 -12 68.499v10c0 24.667 4 47.334 12 68.001s19.5 38.334 34.5 53.001s32.833 26 53.5 34s44 12 70 12s49.333 -4 70 -12s38.5 -19.333 53.5 -34s26.5 -32.334 34.5 -53.001
s12 -43.334 12 -68.001v-10c0 -25.333 -4 -48.166 -12 -68.499s-19.5 -37.833 -34.5 -52.5s-32.833 -26 -53.5 -34s-44 -12 -70 -12zM190 472c13.333 0 24 4.83301 32 14.5s12 25.834 12 48.501v10c0 22.667 -4 38.834 -12 48.501s-18.667 14.5 -32 14.5
s-24 -4.83301 -32 -14.5s-12 -25.834 -12 -48.501v-10c0 -22.667 4 -38.834 12 -48.501s18.667 -14.5 32 -14.5z" />
    <glyph glyph-name="guillemotright" unicode="&#xbb;" horiz-adv-x="540" 
d="M270 330v-110l-220 -185v138l125 100l-125 100v142zM510 330v-110l-220 -185v138l125 100l-125 100v142z" />
    <glyph glyph-name="onequarter" unicode="&#xbc;" horiz-adv-x="860" 
d="M620 700h140l-480 -700h-140zM119 570l-104 -74v127l110 78h120v-400h-126v269zM664 70h-194v82l184 249h136v-229h40v-102h-40v-69h-126v69zM664 172v108l-72 -108h72z" />
    <glyph glyph-name="onehalf" unicode="&#xbd;" horiz-adv-x="920" 
d="M620 700h140l-480 -700h-140zM119 570l-104 -74v127l110 78h120v-400h-126v269zM560 83l159.001 123.003c20 15.333 33.333 27.666 40 36.999s10 20.333 10 33c0 9.33301 -3.16699 17.166 -9.5 23.499s-16.166 9.5 -29.499 9.5c-11.333 0 -20.666 -3.83301 -27.999 -11.5
s-11 -18.167 -11 -31.5h-126c0 46 13.667 82 41 108s68.666 39 123.999 39s96.666 -12 123.999 -36s41 -54.333 41 -91c0 -13.333 -1.5 -25.333 -4.5 -36s-8.33301 -21.334 -16 -32.001s-17.834 -22 -30.501 -34s-28.667 -25.333 -48 -40l-53 -41h157v-102h-340v82z" />
    <glyph glyph-name="threequarters" unicode="&#xbe;" horiz-adv-x="890" 
d="M650 700h140l-480 -700h-140zM195 289c-60 0 -104.165 12.833 -132.498 38.5s-42.5 60.167 -42.5 103.5h126c0 -25.333 16.333 -38 49 -38s49 12.333 49 37s-16.667 37 -50 37h-39v78h39c26.667 0 40 11.333 40 34c0 20 -13 30 -39 30c-12.667 0 -22.334 -3 -29.001 -9
s-10 -14 -10 -24h-126c0 43.333 13.167 77 39.5 101s68.166 36 125.499 36c54 0 95 -11 123 -33s42 -49.667 42 -83c0 -26 -5.83301 -45.167 -17.5 -57.5s-27.5 -21.833 -47.5 -28.5c20 -6.66699 37.5 -17.667 52.5 -33s22.5 -37 22.5 -65c0 -34.667 -14.167 -64 -42.5 -88
s-72.5 -36 -132.5 -36zM694.002 70h-194v82l184 249h136v-229h40v-102h-40v-69h-126v69zM694.002 172v108l-72 -108h72z" />
    <glyph glyph-name="questiondown" unicode="&#xbf;" horiz-adv-x="530" 
d="M265 -212c-36 0 -68.168 4.83203 -96.501 14.499s-52.5 23.167 -72.5 40.5s-35.167 37.666 -45.5 60.999s-15.5 48.666 -15.5 75.999c0 18 1.66699 34.333 5 49s8.83301 28.667 16.5 42s17.834 26.833 30.501 40.5s28 28.5 46 44.5c14.667 12.667 26.5 23.667 35.5 33
s15.667 17.5 20 24.5s7.16602 13.333 8.49902 19s2 11.5 2 17.5v50h132v-70c0 -25.333 -6.66699 -48.166 -20 -68.499s-35 -43.166 -65 -68.499c-24 -20.667 -42.833 -38.667 -56.5 -54s-20.5 -33.333 -20.5 -54c0 -25.333 8.16699 -45.833 24.5 -61.5
s40.166 -23.5 71.499 -23.5c28.667 0 51.834 7.83301 69.501 23.5s26.5 37.834 26.5 66.501h134c0 -27.333 -5.83301 -53.166 -17.5 -77.499s-27.667 -45.833 -48 -64.5s-44.666 -33.334 -72.999 -44.001s-58.833 -16 -91.5 -16zM264.999 371.999
c-23.333 0 -43.333 8.33301 -60 25s-25 36.667 -25 60c0 24.667 8.33301 45 25 61s36.667 24 60 24s43.333 -8 60 -24s25 -36.333 25 -61c0 -23.333 -8.33301 -43.333 -25 -60s-36.667 -25 -60 -25z" />
    <glyph glyph-name="Agrave" unicode="&#xc0;" horiz-adv-x="690" 
d="M468 143h-259l-53 -143h-146l260 700h150l260 -700h-158zM255 267h168l-84 243zM135 900h160l110 -150h-120z" />
    <glyph glyph-name="Aacute" unicode="&#xc1;" horiz-adv-x="690" 
d="M468 143h-259l-53 -143h-146l260 700h150l260 -700h-158zM255 267h168l-84 243zM395 900h160l-150 -150h-120z" />
    <glyph glyph-name="Acircumflex" unicode="&#xc2;" horiz-adv-x="690" 
d="M468 143h-259l-53 -143h-146l260 700h150l260 -700h-158zM255 267h168l-84 243zM275 900h140l110 -150h-120l-60 60l-60 -60h-120z" />
    <glyph glyph-name="Atilde" unicode="&#xc3;" horiz-adv-x="690" 
d="M468 143h-259l-53 -143h-146l260 700h150l260 -700h-158zM255 267h168l-84 243zM415 750c-17.333 0 -32.332 2.33398 -44.999 7.00098s-24.167 9.83398 -34.5 15.501l-29.5 15.5c-9.33301 4.66699 -19.666 7 -30.999 7c-9.33301 0 -17 -2 -23 -6s-11 -8.66699 -15 -14
c-4.66699 -6 -8.66699 -12.667 -12 -20l-70 40c5.33301 19.333 13.333 36.666 24 51.999c9.33301 13.333 21.666 25.5 36.999 36.5s35 16.5 59 16.5c17.333 0 32.333 -2.33301 45 -7s24.167 -9.83398 34.5 -15.501l29.5 -15.5c9.33301 -4.66699 19.666 -7 30.999 -7
c8.66699 0 16.167 2 22.5 6s11.5 8.66699 15.5 14c4.66699 6 8.66699 12.667 12 20l70 -40c-5.33301 -20 -13.333 -37.667 -24 -53c-9.33301 -13.333 -21.833 -25.333 -37.5 -36s-35.167 -16 -58.5 -16z" />
    <glyph glyph-name="Adieresis" unicode="&#xc4;" horiz-adv-x="690" 
d="M468 143h-259l-53 -143h-146l260 700h150l260 -700h-158zM255 267h168l-84 243zM225 745c-23.333 0 -42.5 7.5 -57.5 22.5s-22.5 34.167 -22.5 57.5s7.5 42.5 22.5 57.5s34.167 22.5 57.5 22.5s42.5 -7.5 57.5 -22.5s22.5 -34.167 22.5 -57.5s-7.5 -42.5 -22.5 -57.5
s-34.167 -22.5 -57.5 -22.5zM465 745c-23.333 0 -42.5 7.5 -57.5 22.5s-22.5 34.167 -22.5 57.5s7.5 42.5 22.5 57.5s34.167 22.5 57.5 22.5s42.5 -7.5 57.5 -22.5s22.5 -34.167 22.5 -57.5s-7.5 -42.5 -22.5 -57.5s-34.167 -22.5 -57.5 -22.5z" />
    <glyph glyph-name="Aring" unicode="&#xc5;" horiz-adv-x="690" 
d="M468 143h-259l-53 -143h-146l260 700h150l260 -700h-158zM255 267h168l-84 243zM345 730c-18.667 0 -35.834 2.83301 -51.501 8.5s-29.334 13.5 -41.001 23.5s-20.834 22 -27.501 36s-10 29.667 -10 47c0 16.667 3.33301 32.167 10 46.5s15.834 26.5 27.501 36.5
s25.334 17.833 41.001 23.5s32.834 8.5 51.501 8.5s35.834 -2.83301 51.501 -8.5s29.334 -13.5 41.001 -23.5s20.834 -22.167 27.501 -36.5s10 -29.833 10 -46.5c0 -17.333 -3.33301 -33 -10 -47s-15.834 -26 -27.501 -36s-25.334 -17.833 -41.001 -23.5
s-32.834 -8.5 -51.501 -8.5zM345 810c11.333 0 20.833 3 28.5 9s11.5 14.667 11.5 26s-3.83301 20 -11.5 26s-17.167 9 -28.5 9s-20.833 -3 -28.5 -9s-11.5 -14.667 -11.5 -26s3.83301 -20 11.5 -26s17.167 -9 28.5 -9z" />
    <glyph glyph-name="AE" unicode="&#xc6;" horiz-adv-x="1000" 
d="M420 700h530v-124h-339v-156h309v-120h-309v-176h339v-124h-490v143h-210l-84 -143h-156zM460 267v248l-138 -248h138z" />
    <glyph glyph-name="Ccedilla" unicode="&#xc7;" horiz-adv-x="700" 
d="M365 -12c-46 0 -88.1641 6.6709 -126.497 20.0039s-71.5 34.166 -99.5 62.499s-49.833 65.166 -65.5 110.499s-23.5 100 -23.5 164v20c0 61.333 8.16699 113.833 24.5 157.5s38.666 79.5 66.999 107.5s61.666 48.667 99.999 62s79.5 20 123.5 20
c39.333 0 76.333 -4.66699 111 -14s65.167 -23.833 91.5 -43.5s47.666 -44.834 63.999 -75.501s25.833 -67 28.5 -109h-156c-7.33301 40 -23.333 69.333 -48 88s-55 28 -91 28c-20.667 0 -40.5 -3.66699 -59.5 -11s-35.833 -19.666 -50.5 -36.999s-26.5 -40 -35.5 -68
s-13.5 -63 -13.5 -105v-20c0 -44 4.66699 -80.833 14 -110.5s21.5 -53.334 36.5 -71.001s32 -30.334 51 -38.001s38.167 -11.5 57.5 -11.5c38 0 69.333 9.83301 94 29.5s39.667 48.5 45 86.5h156c-3.33301 -44 -13 -81.333 -29 -112s-37 -55.667 -63 -75
s-56.333 -33.333 -91 -42s-72 -13 -112 -13zM335.003 -211.996c-11.333 0 -21.333 0.333008 -30 1s-16 1.66699 -22 3c-7.33301 1.33301 -13.333 2.66602 -18 3.99902v75c4 -1.33301 8.66699 -2.33301 14 -3c4.66699 -0.666992 10 -1.16699 16 -1.5s12.667 -0.5 20 -0.5
c18 0 29.833 2.5 35.5 7.5s8.5 10.833 8.5 17.5c0 7.33301 -2.83301 13.5 -8.5 18.5s-19.167 7.5 -40.5 7.5l17 93h80l-7 -46c24.667 -5.33301 41.667 -15.666 51 -30.999s14 -31.333 14 -48c0 -30 -10.167 -53.667 -30.5 -71s-53.5 -26 -99.5 -26z" />
    <glyph glyph-name="Egrave" unicode="&#xc8;" horiz-adv-x="620" 
d="M80 700h490v-124h-339v-156h309v-120h-309v-176h339v-124h-490v700zM115 900h160l110 -150h-120z" />
    <glyph glyph-name="Eacute" unicode="&#xc9;" horiz-adv-x="620" 
d="M80 700h490v-124h-339v-156h309v-120h-309v-176h339v-124h-490v700zM375 900h160l-150 -150h-120z" />
    <glyph glyph-name="Ecircumflex" unicode="&#xca;" horiz-adv-x="620" 
d="M80 700h490v-124h-339v-156h309v-120h-309v-176h339v-124h-490v700zM255 900h140l110 -150h-120l-60 60l-60 -60h-120z" />
    <glyph glyph-name="Edieresis" unicode="&#xcb;" horiz-adv-x="620" 
d="M80 700h490v-124h-339v-156h309v-120h-309v-176h339v-124h-490v700zM200 745c-23.333 0 -42.5 7.5 -57.5 22.5s-22.5 34.167 -22.5 57.5s7.5 42.5 22.5 57.5s34.167 22.5 57.5 22.5s42.5 -7.5 57.5 -22.5s22.5 -34.167 22.5 -57.5s-7.5 -42.5 -22.5 -57.5
s-34.167 -22.5 -57.5 -22.5zM440 745c-23.333 0 -42.5 7.5 -57.5 22.5s-22.5 34.167 -22.5 57.5s7.5 42.5 22.5 57.5s34.167 22.5 57.5 22.5s42.5 -7.5 57.5 -22.5s22.5 -34.167 22.5 -57.5s-7.5 -42.5 -22.5 -57.5s-34.167 -22.5 -57.5 -22.5z" />
    <glyph glyph-name="Igrave" unicode="&#xcc;" horiz-adv-x="330" 
d="M90 700h150v-700h-150v700zM-44 900h160l110 -150h-120z" />
    <glyph glyph-name="Iacute" unicode="&#xcd;" horiz-adv-x="330" 
d="M90 700h150v-700h-150v700zM215 900h160l-150 -150h-120z" />
    <glyph glyph-name="Icircumflex" unicode="&#xce;" horiz-adv-x="330" 
d="M90 700h150v-700h-150v700zM96 900h140l110 -150h-120l-60 60l-60 -60h-120z" />
    <glyph glyph-name="Idieresis" unicode="&#xcf;" horiz-adv-x="330" 
d="M90 700h150v-700h-150v700zM46 745c-23.333 0 -42.5 7.5 -57.5 22.5s-22.5 34.167 -22.5 57.5s7.5 42.5 22.5 57.5s34.167 22.5 57.5 22.5s42.5 -7.5 57.5 -22.5s22.5 -34.167 22.5 -57.5s-7.5 -42.5 -22.5 -57.5s-34.167 -22.5 -57.5 -22.5zM286 745
c-23.333 0 -42.5 7.5 -57.5 22.5s-22.5 34.167 -22.5 57.5s7.5 42.5 22.5 57.5s34.167 22.5 57.5 22.5s42.5 -7.5 57.5 -22.5s22.5 -34.167 22.5 -57.5s-7.5 -42.5 -22.5 -57.5s-34.167 -22.5 -57.5 -22.5z" />
    <glyph glyph-name="Eth" unicode="&#xd0;" horiz-adv-x="735" 
d="M105 303h-79.998v104h80v293h245c52.667 0 99.667 -7.16699 141 -21.5s76.333 -35.5 105 -63.5s50.667 -63 66 -105s23 -90.333 23 -145v-20c0 -56 -7.83301 -105.5 -23.5 -148.5s-38.334 -79 -68.001 -108s-65.834 -51 -108.501 -66s-91 -22.5 -145 -22.5h-235v303z
M330.002 124c26.667 0 52 3.83301 76 11.5s45.167 20.167 63.5 37.5s32.833 40 43.5 68s16 62.667 16 104v20c0 38.667 -5 71.5 -15 98.5s-23.5 48.833 -40.5 65.5s-37 28.667 -60 36s-47.5 11 -73.5 11h-85v-169h140v-104h-140v-179h75z" />
    <glyph glyph-name="Ntilde" unicode="&#xd1;" horiz-adv-x="760" 
d="M80 700h142l308 -450v450h150v-700h-142l-308 450v-450h-150v700zM450 750c-17.333 0 -32.332 2.33398 -44.999 7.00098s-24.167 9.83398 -34.5 15.501l-29.5 15.5c-9.33301 4.66699 -19.666 7 -30.999 7c-9.33301 0 -17 -2 -23 -6s-11 -8.66699 -15 -14
c-4.66699 -6 -8.66699 -12.667 -12 -20l-70 40c5.33301 19.333 13.333 36.666 24 51.999c9.33301 13.333 21.666 25.5 36.999 36.5s35 16.5 59 16.5c17.333 0 32.333 -2.33301 45 -7s24.167 -9.83398 34.5 -15.501l29.5 -15.5c9.33301 -4.66699 19.666 -7 30.999 -7
c8.66699 0 16.167 2 22.5 6s11.5 8.66699 15.5 14c4.66699 6 8.66699 12.667 12 20l70 -40c-5.33301 -20 -13.333 -37.667 -24 -53c-9.33301 -13.333 -21.833 -25.333 -37.5 -36s-35.167 -16 -58.5 -16z" />
    <glyph glyph-name="Ograve" unicode="&#xd2;" horiz-adv-x="760" 
d="M380 -12c-44 0 -85.833 6.66699 -125.5 20s-74.667 34.333 -105 63s-54.5 65.5 -72.5 110.5s-27 99.5 -27 163.5v20c0 61.333 9 113.833 27 157.5s42.167 79.5 72.5 107.5s65.333 48.667 105 62s81.5 20 125.5 20s85.833 -6.66699 125.5 -20s74.667 -34 105 -62
s54.5 -63.833 72.5 -107.5s27 -96.167 27 -157.5v-20c0 -64 -9 -118.5 -27 -163.5s-42.167 -81.833 -72.5 -110.5s-65.333 -49.667 -105 -63s-81.5 -20 -125.5 -20zM380 114c22.667 0 44.5 3.83301 65.5 11.5s39.5 20.5 55.5 38.5s28.833 41.667 38.5 71s14.5 66 14.5 110
v20c0 41.333 -4.83301 76 -14.5 104s-22.5 50.667 -38.5 68s-34.5 29.833 -55.5 37.5s-42.833 11.5 -65.5 11.5s-44.5 -3.83301 -65.5 -11.5s-39.5 -20.167 -55.5 -37.5s-28.833 -40 -38.5 -68s-14.5 -62.667 -14.5 -104v-20c0 -44 4.83301 -80.667 14.5 -110
s22.5 -53 38.5 -71s34.5 -30.833 55.5 -38.5s42.833 -11.5 65.5 -11.5zM170 900h160l110 -150h-120z" />
    <glyph glyph-name="Oacute" unicode="&#xd3;" horiz-adv-x="760" 
d="M380 -12c-44 0 -85.833 6.66699 -125.5 20s-74.667 34.333 -105 63s-54.5 65.5 -72.5 110.5s-27 99.5 -27 163.5v20c0 61.333 9 113.833 27 157.5s42.167 79.5 72.5 107.5s65.333 48.667 105 62s81.5 20 125.5 20s85.833 -6.66699 125.5 -20s74.667 -34 105 -62
s54.5 -63.833 72.5 -107.5s27 -96.167 27 -157.5v-20c0 -64 -9 -118.5 -27 -163.5s-42.167 -81.833 -72.5 -110.5s-65.333 -49.667 -105 -63s-81.5 -20 -125.5 -20zM380 114c22.667 0 44.5 3.83301 65.5 11.5s39.5 20.5 55.5 38.5s28.833 41.667 38.5 71s14.5 66 14.5 110
v20c0 41.333 -4.83301 76 -14.5 104s-22.5 50.667 -38.5 68s-34.5 29.833 -55.5 37.5s-42.833 11.5 -65.5 11.5s-44.5 -3.83301 -65.5 -11.5s-39.5 -20.167 -55.5 -37.5s-28.833 -40 -38.5 -68s-14.5 -62.667 -14.5 -104v-20c0 -44 4.83301 -80.667 14.5 -110
s22.5 -53 38.5 -71s34.5 -30.833 55.5 -38.5s42.833 -11.5 65.5 -11.5zM430 900h160l-150 -150h-120z" />
    <glyph glyph-name="Ocircumflex" unicode="&#xd4;" horiz-adv-x="760" 
d="M380 -12c-44 0 -85.833 6.66699 -125.5 20s-74.667 34.333 -105 63s-54.5 65.5 -72.5 110.5s-27 99.5 -27 163.5v20c0 61.333 9 113.833 27 157.5s42.167 79.5 72.5 107.5s65.333 48.667 105 62s81.5 20 125.5 20s85.833 -6.66699 125.5 -20s74.667 -34 105 -62
s54.5 -63.833 72.5 -107.5s27 -96.167 27 -157.5v-20c0 -64 -9 -118.5 -27 -163.5s-42.167 -81.833 -72.5 -110.5s-65.333 -49.667 -105 -63s-81.5 -20 -125.5 -20zM380 114c22.667 0 44.5 3.83301 65.5 11.5s39.5 20.5 55.5 38.5s28.833 41.667 38.5 71s14.5 66 14.5 110
v20c0 41.333 -4.83301 76 -14.5 104s-22.5 50.667 -38.5 68s-34.5 29.833 -55.5 37.5s-42.833 11.5 -65.5 11.5s-44.5 -3.83301 -65.5 -11.5s-39.5 -20.167 -55.5 -37.5s-28.833 -40 -38.5 -68s-14.5 -62.667 -14.5 -104v-20c0 -44 4.83301 -80.667 14.5 -110
s22.5 -53 38.5 -71s34.5 -30.833 55.5 -38.5s42.833 -11.5 65.5 -11.5zM310 900h140l110 -150h-120l-60 60l-60 -60h-120z" />
    <glyph glyph-name="Otilde" unicode="&#xd5;" horiz-adv-x="760" 
d="M380 -12c-44 0 -85.833 6.66699 -125.5 20s-74.667 34.333 -105 63s-54.5 65.5 -72.5 110.5s-27 99.5 -27 163.5v20c0 61.333 9 113.833 27 157.5s42.167 79.5 72.5 107.5s65.333 48.667 105 62s81.5 20 125.5 20s85.833 -6.66699 125.5 -20s74.667 -34 105 -62
s54.5 -63.833 72.5 -107.5s27 -96.167 27 -157.5v-20c0 -64 -9 -118.5 -27 -163.5s-42.167 -81.833 -72.5 -110.5s-65.333 -49.667 -105 -63s-81.5 -20 -125.5 -20zM380 114c22.667 0 44.5 3.83301 65.5 11.5s39.5 20.5 55.5 38.5s28.833 41.667 38.5 71s14.5 66 14.5 110
v20c0 41.333 -4.83301 76 -14.5 104s-22.5 50.667 -38.5 68s-34.5 29.833 -55.5 37.5s-42.833 11.5 -65.5 11.5s-44.5 -3.83301 -65.5 -11.5s-39.5 -20.167 -55.5 -37.5s-28.833 -40 -38.5 -68s-14.5 -62.667 -14.5 -104v-20c0 -44 4.83301 -80.667 14.5 -110
s22.5 -53 38.5 -71s34.5 -30.833 55.5 -38.5s42.833 -11.5 65.5 -11.5zM450 750c-17.333 0 -32.332 2.33398 -44.999 7.00098s-24.167 9.83398 -34.5 15.501l-29.5 15.5c-9.33301 4.66699 -19.666 7 -30.999 7c-9.33301 0 -17 -2 -23 -6s-11 -8.66699 -15 -14
c-4.66699 -6 -8.66699 -12.667 -12 -20l-70 40c5.33301 19.333 13.333 36.666 24 51.999c9.33301 13.333 21.666 25.5 36.999 36.5s35 16.5 59 16.5c17.333 0 32.333 -2.33301 45 -7s24.167 -9.83398 34.5 -15.501l29.5 -15.5c9.33301 -4.66699 19.666 -7 30.999 -7
c8.66699 0 16.167 2 22.5 6s11.5 8.66699 15.5 14c4.66699 6 8.66699 12.667 12 20l70 -40c-5.33301 -20 -13.333 -37.667 -24 -53c-9.33301 -13.333 -21.833 -25.333 -37.5 -36s-35.167 -16 -58.5 -16z" />
    <glyph glyph-name="Odieresis" unicode="&#xd6;" horiz-adv-x="760" 
d="M380 -12c-44 0 -85.833 6.66699 -125.5 20s-74.667 34.333 -105 63s-54.5 65.5 -72.5 110.5s-27 99.5 -27 163.5v20c0 61.333 9 113.833 27 157.5s42.167 79.5 72.5 107.5s65.333 48.667 105 62s81.5 20 125.5 20s85.833 -6.66699 125.5 -20s74.667 -34 105 -62
s54.5 -63.833 72.5 -107.5s27 -96.167 27 -157.5v-20c0 -64 -9 -118.5 -27 -163.5s-42.167 -81.833 -72.5 -110.5s-65.333 -49.667 -105 -63s-81.5 -20 -125.5 -20zM380 114c22.667 0 44.5 3.83301 65.5 11.5s39.5 20.5 55.5 38.5s28.833 41.667 38.5 71s14.5 66 14.5 110
v20c0 41.333 -4.83301 76 -14.5 104s-22.5 50.667 -38.5 68s-34.5 29.833 -55.5 37.5s-42.833 11.5 -65.5 11.5s-44.5 -3.83301 -65.5 -11.5s-39.5 -20.167 -55.5 -37.5s-28.833 -40 -38.5 -68s-14.5 -62.667 -14.5 -104v-20c0 -44 4.83301 -80.667 14.5 -110
s22.5 -53 38.5 -71s34.5 -30.833 55.5 -38.5s42.833 -11.5 65.5 -11.5zM260 745c-23.333 0 -42.5 7.5 -57.5 22.5s-22.5 34.167 -22.5 57.5s7.5 42.5 22.5 57.5s34.167 22.5 57.5 22.5s42.5 -7.5 57.5 -22.5s22.5 -34.167 22.5 -57.5s-7.5 -42.5 -22.5 -57.5
s-34.167 -22.5 -57.5 -22.5zM500 745c-23.333 0 -42.5 7.5 -57.5 22.5s-22.5 34.167 -22.5 57.5s7.5 42.5 22.5 57.5s34.167 22.5 57.5 22.5s42.5 -7.5 57.5 -22.5s22.5 -34.167 22.5 -57.5s-7.5 -42.5 -22.5 -57.5s-34.167 -22.5 -57.5 -22.5z" />
    <glyph glyph-name="multiply" unicode="&#xd7;" horiz-adv-x="570" 
d="M60 219l141 141l-141 141l84 84l141 -141l141 141l84 -84l-141 -141l141 -141l-84 -84l-141 141l-141 -141z" />
    <glyph glyph-name="Oslash" unicode="&#xd8;" horiz-adv-x="760" 
d="M380 -12c-36 0 -70.832 4.33301 -104.499 13s-64.5 22.667 -92.5 42l-44 -55l-64 54l47 58c-22.667 28.667 -40.334 63.167 -53.001 103.5s-19 87.5 -19 141.5v20c0 61.333 9 113.833 27 157.5s42.167 79.5 72.5 107.5s65.333 48.667 105 62s81.5 20 125.5 20
c36 0 70.667 -4.33301 104 -13s64 -22.667 92 -42l45 55l64 -53l-47 -58c22 -28 39.5 -61.333 52.5 -100s19.5 -84 19.5 -136v-20c0 -64 -9 -118.5 -27 -163.5s-42.167 -81.833 -72.5 -110.5s-65.333 -49.667 -105 -63s-81.5 -20 -125.5 -20zM380.001 114
c22.667 0 44.5 3.83398 65.5 11.501s39.5 20.5 55.5 38.5s28.833 41.667 38.5 71s14.5 66 14.5 110v20c0 22.667 -1.66699 43.167 -5 61.5s-7.66602 35.166 -12.999 50.499l-264 -326c15.333 -13.333 32.166 -22.833 50.499 -28.5s37.5 -8.5 57.5 -8.5zM380.001 586.001
c-22.667 0 -44.5 -3.83301 -65.5 -11.5s-39.5 -20.167 -55.5 -37.5s-28.833 -40 -38.5 -68s-14.5 -62.667 -14.5 -104v-20c0 -49.333 6 -89.333 18 -120l264 324c-15.333 13.333 -32.333 22.833 -51 28.5s-37.667 8.5 -57 8.5z" />
    <glyph glyph-name="Ugrave" unicode="&#xd9;" horiz-adv-x="730" 
d="M365 -12c-45.333 0 -86.168 6 -122.501 18s-67.166 30.167 -92.499 54.5s-45 54.833 -59 91.5s-21 79.334 -21 128.001v420h150v-406c0 -60 11.667 -105 35 -135s60 -45 110 -45s86.667 15 110 45s35 74.667 35 134v407h150v-420
c0 -48.667 -6.83301 -91.334 -20.5 -128.001s-33.334 -67.167 -59.001 -91.5s-56.667 -42.5 -93 -54.5s-77.166 -18 -122.499 -18zM154.998 900h160l110 -150h-120z" />
    <glyph glyph-name="Uacute" unicode="&#xda;" horiz-adv-x="730" 
d="M365 -12c-45.333 0 -86.168 6 -122.501 18s-67.166 30.167 -92.499 54.5s-45 54.833 -59 91.5s-21 79.334 -21 128.001v420h150v-406c0 -60 11.667 -105 35 -135s60 -45 110 -45s86.667 15 110 45s35 74.667 35 134v407h150v-420
c0 -48.667 -6.83301 -91.334 -20.5 -128.001s-33.334 -67.167 -59.001 -91.5s-56.667 -42.5 -93 -54.5s-77.166 -18 -122.499 -18zM414.998 900h160l-150 -150h-120z" />
    <glyph glyph-name="Ucircumflex" unicode="&#xdb;" horiz-adv-x="730" 
d="M365 -12c-45.333 0 -86.168 6 -122.501 18s-67.166 30.167 -92.499 54.5s-45 54.833 -59 91.5s-21 79.334 -21 128.001v420h150v-406c0 -60 11.667 -105 35 -135s60 -45 110 -45s86.667 15 110 45s35 74.667 35 134v407h150v-420
c0 -48.667 -6.83301 -91.334 -20.5 -128.001s-33.334 -67.167 -59.001 -91.5s-56.667 -42.5 -93 -54.5s-77.166 -18 -122.499 -18zM294.998 900h140l110 -150h-120l-60 60l-60 -60h-120z" />
    <glyph glyph-name="Udieresis" unicode="&#xdc;" horiz-adv-x="730" 
d="M365 -12c-45.333 0 -86.168 6 -122.501 18s-67.166 30.167 -92.499 54.5s-45 54.833 -59 91.5s-21 79.334 -21 128.001v420h150v-406c0 -60 11.667 -105 35 -135s60 -45 110 -45s86.667 15 110 45s35 74.667 35 134v407h150v-420
c0 -48.667 -6.83301 -91.334 -20.5 -128.001s-33.334 -67.167 -59.001 -91.5s-56.667 -42.5 -93 -54.5s-77.166 -18 -122.499 -18zM244.998 745c-23.333 0 -42.5 7.5 -57.5 22.5s-22.5 34.167 -22.5 57.5s7.5 42.5 22.5 57.5s34.167 22.5 57.5 22.5s42.5 -7.5 57.5 -22.5
s22.5 -34.167 22.5 -57.5s-7.5 -42.5 -22.5 -57.5s-34.167 -22.5 -57.5 -22.5zM484.998 745c-23.333 0 -42.5 7.5 -57.5 22.5s-22.5 34.167 -22.5 57.5s7.5 42.5 22.5 57.5s34.167 22.5 57.5 22.5s42.5 -7.5 57.5 -22.5s22.5 -34.167 22.5 -57.5s-7.5 -42.5 -22.5 -57.5
s-34.167 -22.5 -57.5 -22.5z" />
    <glyph glyph-name="Yacute" unicode="&#xdd;" horiz-adv-x="680" 
d="M275 267l-265 433h176l167 -281l157 281h160l-245 -433v-267h-150v267zM398 900h160l-150 -150h-120z" />
    <glyph glyph-name="Thorn" unicode="&#xde;" horiz-adv-x="665" 
d="M80 700h150v-110h120c94.667 0 165 -20.833 211 -62.5s69 -97.5 69 -167.5s-23 -125.833 -69 -167.5s-116.333 -62.5 -211 -62.5h-120v-130h-150v700zM335 254c53.333 0 90.833 9.16699 112.5 27.5s32.5 44.5 32.5 78.5s-10.833 60.167 -32.5 78.5
s-59.167 27.5 -112.5 27.5h-105v-212h105z" />
    <glyph glyph-name="germandbls" unicode="&#xdf;" horiz-adv-x="590" 
d="M60 475c0 76.667 19.834 135.334 59.501 176.001s96.5 61 170.5 61c36 0 67.833 -4.5 95.5 -13.5s50.667 -21.333 69 -37s32.166 -34.334 41.499 -56.001s14 -45.167 14 -70.5c0 -34 -8.66699 -64.333 -26 -91s-42 -45.667 -74 -57c25.333 -4 47 -11.333 65 -22
s32.5 -23.667 43.5 -39s19 -32.5 24 -51.5s7.5 -38.833 7.5 -59.5v-10c0 -70 -19.167 -122.667 -57.5 -158s-100.833 -53 -187.5 -53c-7.33301 0 -15.666 0.166992 -24.999 0.5s-17.666 1.16602 -24.999 2.49902v112c7.33301 -1.33301 15.666 -2.16602 24.999 -2.49902
s17.666 -0.5 24.999 -0.5c75.333 0 113 35.667 113 107v10c0 34 -10 60.333 -30 79s-51 28 -93 28h-20v100h15c25.333 0 46.333 7 63 21s25 35.333 25 64c0 56.667 -29.333 85 -88 85c-32 0 -56.333 -10.333 -73 -31s-25 -52 -25 -94v-475h-132v475z" />
    <glyph glyph-name="agrave" unicode="&#xe0;" horiz-adv-x="575" 
d="M219 -12c-28.667 0 -53.999 4.16504 -75.999 12.498s-40.667 20 -56 35s-27 32.667 -35 53s-12 42.5 -12 66.5c0 106.667 63.333 160 190 160h158v25c0 34.667 -7.83301 59 -23.5 73s-40.5 21 -74.5 21c-30 0 -51.667 -5.16699 -65 -15.5s-21 -23.166 -23 -38.499h-132
c1.33301 22.667 7.16602 44 17.499 64s25 37.167 44 51.5s42.167 25.666 69.5 33.999s58.666 12.5 93.999 12.5c34 0 64.833 -3.66699 92.5 -11s51.334 -19.166 71.001 -35.499s34.834 -37.5 45.501 -63.5s16 -57.333 16 -94v-203c0 -28 0.5 -52.5 1.5 -73.5
s2.83301 -41.5 5.5 -61.5h-123c-2.66699 14.667 -4.16699 25.834 -4.5 33.501s-0.5 19.167 -0.5 34.5c-14.667 -21.333 -36.834 -40 -66.501 -56s-67.5 -24 -113.5 -24zM260.001 89.998c16 0 31.666 2.16699 46.999 6.5s29 11 41 20s21.667 20.5 29 34.5s11 30.333 11 49v25
h-133c-25.333 0 -45.166 -5.83301 -59.499 -17.5s-21.5 -27.5 -21.5 -47.5c0 -21.333 7.33301 -38.333 22 -51s36 -19 64 -19zM90 739.998h150l110 -160h-110z" />
    <glyph glyph-name="aacute" unicode="&#xe1;" horiz-adv-x="575" 
d="M219 -12c-28.667 0 -53.999 4.16504 -75.999 12.498s-40.667 20 -56 35s-27 32.667 -35 53s-12 42.5 -12 66.5c0 106.667 63.333 160 190 160h158v25c0 34.667 -7.83301 59 -23.5 73s-40.5 21 -74.5 21c-30 0 -51.667 -5.16699 -65 -15.5s-21 -23.166 -23 -38.499h-132
c1.33301 22.667 7.16602 44 17.499 64s25 37.167 44 51.5s42.167 25.666 69.5 33.999s58.666 12.5 93.999 12.5c34 0 64.833 -3.66699 92.5 -11s51.334 -19.166 71.001 -35.499s34.834 -37.5 45.501 -63.5s16 -57.333 16 -94v-203c0 -28 0.5 -52.5 1.5 -73.5
s2.83301 -41.5 5.5 -61.5h-123c-2.66699 14.667 -4.16699 25.834 -4.5 33.501s-0.5 19.167 -0.5 34.5c-14.667 -21.333 -36.834 -40 -66.501 -56s-67.5 -24 -113.5 -24zM260.001 89.998c16 0 31.666 2.16699 46.999 6.5s29 11 41 20s21.667 20.5 29 34.5s11 30.333 11 49v25
h-133c-25.333 0 -45.166 -5.83301 -59.499 -17.5s-21.5 -27.5 -21.5 -47.5c0 -21.333 7.33301 -38.333 22 -51s36 -19 64 -19zM350 739.998h150l-150 -160h-110z" />
    <glyph glyph-name="acircumflex" unicode="&#xe2;" horiz-adv-x="575" 
d="M219 -12c-28.667 0 -53.999 4.16504 -75.999 12.498s-40.667 20 -56 35s-27 32.667 -35 53s-12 42.5 -12 66.5c0 106.667 63.333 160 190 160h158v25c0 34.667 -7.83301 59 -23.5 73s-40.5 21 -74.5 21c-30 0 -51.667 -5.16699 -65 -15.5s-21 -23.166 -23 -38.499h-132
c1.33301 22.667 7.16602 44 17.499 64s25 37.167 44 51.5s42.167 25.666 69.5 33.999s58.666 12.5 93.999 12.5c34 0 64.833 -3.66699 92.5 -11s51.334 -19.166 71.001 -35.499s34.834 -37.5 45.501 -63.5s16 -57.333 16 -94v-203c0 -28 0.5 -52.5 1.5 -73.5
s2.83301 -41.5 5.5 -61.5h-123c-2.66699 14.667 -4.16699 25.834 -4.5 33.501s-0.5 19.167 -0.5 34.5c-14.667 -21.333 -36.834 -40 -66.501 -56s-67.5 -24 -113.5 -24zM260.001 89.998c16 0 31.666 2.16699 46.999 6.5s29 11 41 20s21.667 20.5 29 34.5s11 30.333 11 49v25
h-133c-25.333 0 -45.166 -5.83301 -59.499 -17.5s-21.5 -27.5 -21.5 -47.5c0 -21.333 7.33301 -38.333 22 -51s36 -19 64 -19zM230 739.998h130l110 -160h-110l-65 70l-65 -70h-110z" />
    <glyph glyph-name="atilde" unicode="&#xe3;" horiz-adv-x="575" 
d="M219 -12c-28.667 0 -53.999 4.16504 -75.999 12.498s-40.667 20 -56 35s-27 32.667 -35 53s-12 42.5 -12 66.5c0 106.667 63.333 160 190 160h158v25c0 34.667 -7.83301 59 -23.5 73s-40.5 21 -74.5 21c-30 0 -51.667 -5.16699 -65 -15.5s-21 -23.166 -23 -38.499h-132
c1.33301 22.667 7.16602 44 17.499 64s25 37.167 44 51.5s42.167 25.666 69.5 33.999s58.666 12.5 93.999 12.5c34 0 64.833 -3.66699 92.5 -11s51.334 -19.166 71.001 -35.499s34.834 -37.5 45.501 -63.5s16 -57.333 16 -94v-203c0 -28 0.5 -52.5 1.5 -73.5
s2.83301 -41.5 5.5 -61.5h-123c-2.66699 14.667 -4.16699 25.834 -4.5 33.501s-0.5 19.167 -0.5 34.5c-14.667 -21.333 -36.834 -40 -66.501 -56s-67.5 -24 -113.5 -24zM260.001 89.998c16 0 31.666 2.16699 46.999 6.5s29 11 41 20s21.667 20.5 29 34.5s11 30.333 11 49v25
h-133c-25.333 0 -45.166 -5.83301 -59.499 -17.5s-21.5 -27.5 -21.5 -47.5c0 -21.333 7.33301 -38.333 22 -51s36 -19 64 -19zM355 589.998c-15.333 0 -28.5 2.33301 -39.5 7s-21 9.83398 -30 15.501l-25.5 15.5c-8 4.66699 -16.333 7 -25 7c-9.33301 0 -17 -2 -23 -6
s-11 -8.66699 -15 -14c-4.66699 -6 -8.66699 -12.667 -12 -20l-60 35c5.33301 18.667 13 35.334 23 50.001c8.66699 12.667 20 24.167 34 34.5s31.667 15.5 53 15.5c14.667 0 27.667 -2.33301 39 -7s21.5 -9.83398 30.5 -15.501l25.5 -15.5c8 -4.66699 16.333 -7 25 -7
s16.167 2 22.5 6s11.5 8.66699 15.5 14c4.66699 6 8.66699 12.667 12 20l60 -35c-5.33301 -18.667 -13 -35.334 -23 -50.001c-8.66699 -12.667 -20 -24.167 -34 -34.5s-31.667 -15.5 -53 -15.5z" />
    <glyph glyph-name="adieresis" unicode="&#xe4;" horiz-adv-x="575" 
d="M219 -12c-28.667 0 -53.999 4.16504 -75.999 12.498s-40.667 20 -56 35s-27 32.667 -35 53s-12 42.5 -12 66.5c0 106.667 63.333 160 190 160h158v25c0 34.667 -7.83301 59 -23.5 73s-40.5 21 -74.5 21c-30 0 -51.667 -5.16699 -65 -15.5s-21 -23.166 -23 -38.499h-132
c1.33301 22.667 7.16602 44 17.499 64s25 37.167 44 51.5s42.167 25.666 69.5 33.999s58.666 12.5 93.999 12.5c34 0 64.833 -3.66699 92.5 -11s51.334 -19.166 71.001 -35.499s34.834 -37.5 45.501 -63.5s16 -57.333 16 -94v-203c0 -28 0.5 -52.5 1.5 -73.5
s2.83301 -41.5 5.5 -61.5h-123c-2.66699 14.667 -4.16699 25.834 -4.5 33.501s-0.5 19.167 -0.5 34.5c-14.667 -21.333 -36.834 -40 -66.501 -56s-67.5 -24 -113.5 -24zM260.001 89.998c16 0 31.666 2.16699 46.999 6.5s29 11 41 20s21.667 20.5 29 34.5s11 30.333 11 49v25
h-133c-25.333 0 -45.166 -5.83301 -59.499 -17.5s-21.5 -27.5 -21.5 -47.5c0 -21.333 7.33301 -38.333 22 -51s36 -19 64 -19zM189 585.998c-21.333 0 -39 7 -53 21s-21 31.667 -21 53s7 39 21 53s31.667 21 53 21s39 -7 53 -21s21 -31.667 21 -53s-7 -39 -21 -53
s-31.667 -21 -53 -21zM401 585.998c-21.333 0 -39 7 -53 21s-21 31.667 -21 53s7 39 21 53s31.667 21 53 21s39 -7 53 -21s21 -31.667 21 -53s-7 -39 -21 -53s-31.667 -21 -53 -21z" />
    <glyph glyph-name="aring" unicode="&#xe5;" horiz-adv-x="575" 
d="M219 -12c-28.667 0 -53.999 4.16504 -75.999 12.498s-40.667 20 -56 35s-27 32.667 -35 53s-12 42.5 -12 66.5c0 106.667 63.333 160 190 160h158v25c0 34.667 -7.83301 59 -23.5 73s-40.5 21 -74.5 21c-30 0 -51.667 -5.16699 -65 -15.5s-21 -23.166 -23 -38.499h-132
c1.33301 22.667 7.16602 44 17.499 64s25 37.167 44 51.5s42.167 25.666 69.5 33.999s58.666 12.5 93.999 12.5c34 0 64.833 -3.66699 92.5 -11s51.334 -19.166 71.001 -35.499s34.834 -37.5 45.501 -63.5s16 -57.333 16 -94v-203c0 -28 0.5 -52.5 1.5 -73.5
s2.83301 -41.5 5.5 -61.5h-123c-2.66699 14.667 -4.16699 25.834 -4.5 33.501s-0.5 19.167 -0.5 34.5c-14.667 -21.333 -36.834 -40 -66.501 -56s-67.5 -24 -113.5 -24zM260.001 89.998c16 0 31.666 2.16699 46.999 6.5s29 11 41 20s21.667 20.5 29 34.5s11 30.333 11 49v25
h-133c-25.333 0 -45.166 -5.83301 -59.499 -17.5s-21.5 -27.5 -21.5 -47.5c0 -21.333 7.33301 -38.333 22 -51s36 -19 64 -19zM295 564.998c-18 0 -34.5 3 -49.5 9s-28.167 14.167 -39.5 24.5s-20.166 22.5 -26.499 36.5s-9.5 29 -9.5 45s3.16699 31 9.5 45
s15.166 26.167 26.499 36.5s24.5 18.5 39.5 24.5s31.5 9 49.5 9s34.5 -3 49.5 -9s28.167 -14.167 39.5 -24.5s20.166 -22.5 26.499 -36.5s9.5 -29 9.5 -45s-3.16699 -31 -9.5 -45s-15.166 -26.167 -26.499 -36.5s-24.5 -18.5 -39.5 -24.5s-31.5 -9 -49.5 -9zM295 642.998
c11.333 0 20.333 3.33301 27 10s10 15.667 10 27s-3.33301 20.333 -10 27s-15.667 10 -27 10s-20.333 -3.33301 -27 -10s-10 -15.667 -10 -27s3.33301 -20.333 10 -27s15.667 -10 27 -10z" />
    <glyph glyph-name="ae" unicode="&#xe6;" horiz-adv-x="935" 
d="M219 -12c-28.667 0 -54.1631 4.16699 -76.4961 12.5s-41 20 -56 35s-26.5 32.667 -34.5 53s-12 42.5 -12 66.5c0 106 63.333 159 190 159h158v27c0 34 -7.83301 58 -23.5 72s-40.5 21 -74.5 21c-30 0 -51.667 -5.16699 -65 -15.5s-21 -23.166 -23 -38.499h-132
c1.33301 22.667 7.16602 44 17.499 64s25 37.167 44 51.5s42.167 25.666 69.5 33.999s58.666 12.5 93.999 12.5c40 0 74 -6.16699 102 -18.5s51.667 -30.166 71 -53.499c18 21.333 41.5 38.666 70.5 51.999s64.5 20 106.5 20c83.333 0 146.666 -22 189.999 -66
s65 -107.667 65 -191v-62h-375c0.666992 -22 4.66699 -41 12 -57s17 -29.167 29 -39.5s25.833 -18 41.5 -23s31.5 -7.5 47.5 -7.5c34 0 59.667 5 77 15s29.666 24.667 36.999 44h121c-10.667 -55.333 -37 -97 -79 -125s-94 -42 -156 -42c-46 0 -86.833 8.16699 -122.5 24.5
s-63.167 41.5 -82.5 75.5c-19.333 -32.667 -48.5 -57.5 -87.5 -74.5s-86.833 -25.5 -143.5 -25.5zM260.004 90c16 0 31.666 2.16699 46.999 6.5s29 11 41 20s21.667 20.5 29 34.5s11 30.333 11 49v24h-133c-25.333 0 -45.166 -5.66699 -59.499 -17s-21.5 -27 -21.5 -47
c0 -21.333 7.33301 -38.333 22 -51s36 -19 64 -19zM650.003 434c-15.333 0 -30.5 -2 -45.5 -6s-28.167 -10.5 -39.5 -19.5s-20.666 -21 -27.999 -36s-11.333 -33.5 -12 -55.5h247c-0.666992 23.333 -4.16699 42.5 -10.5 57.5s-15 27 -26 36s-23.833 15.167 -38.5 18.5
s-30.334 5 -47.001 5z" />
    <glyph glyph-name="ccedilla" unicode="&#xe7;" horiz-adv-x="565" 
d="M295 -12c-36.667 0 -70.8311 5.66602 -102.498 16.999s-59.167 28.333 -82.5 51s-41.666 51 -54.999 85s-20 73.667 -20 119v20c0 42.667 7 80.334 21 113.001s32.833 60 56.5 82s51.167 38.667 82.5 50s64.666 17 99.999 17c37.333 0 70.5 -5 99.5 -15
s53.5 -23.667 73.5 -41s35.667 -37.666 47 -60.999s18 -48.333 20 -75h-134c-5.33301 24.667 -16.166 44.167 -32.499 58.5s-40.833 21.5 -73.5 21.5c-17.333 0 -33.5 -3 -48.5 -9s-28.333 -15.167 -40 -27.5s-20.834 -27.833 -27.501 -46.5s-10 -41 -10 -67v-20
c0 -28 3.16699 -52.167 9.5 -72.5s15.166 -37 26.499 -50s24.666 -22.5 39.999 -28.5s32 -9 50 -9c26 0 48.5 6.83301 67.5 20.5s31.833 33.5 38.5 59.5h134c-3.33301 -29.333 -11.5 -55.833 -24.5 -79.5s-30 -43.834 -51 -60.501s-45.5 -29.5 -73.5 -38.5
s-58.333 -13.5 -91 -13.5zM270.003 -212.001c-11.333 0 -21.333 0.332031 -30 0.999023s-16 1.66699 -22 3c-7.33301 1.33301 -13.333 2.66602 -18 3.99902v73c4 -1.33301 8.66699 -2.33301 14 -3c4.66699 -0.666992 10 -1.16699 16 -1.5s12.667 -0.5 20 -0.5
c18 0 30.167 2.83301 36.5 8.5s9.5 11.834 9.5 18.501c0 7.33301 -3 13.833 -9 19.5s-19.333 8.5 -40 8.5l17 91h76l-7 -46c25.333 -5.33301 42.833 -15.666 52.5 -30.999s14.5 -31.333 14.5 -48c0 -30 -10.167 -53.667 -30.5 -71s-53.5 -26 -99.5 -26z" />
    <glyph glyph-name="egrave" unicode="&#xe8;" horiz-adv-x="580" 
d="M300 -12c-36 0 -70.1641 5.5 -102.497 16.5s-60.5 27.667 -84.5 50s-43 50.666 -57 84.999s-21 74.5 -21 120.5v20c0 44 6.66699 82.333 20 115s31.666 59.834 54.999 81.501s50.333 38 81 49s63.667 16.5 99 16.5c83.333 0 146.666 -22 189.999 -66s65 -107.667 65 -191
v-56h-375c0.666992 -23.333 4.66699 -43.5 12 -60.5s17 -30.833 29 -41.5s25.833 -18.5 41.5 -23.5s31.5 -7.5 47.5 -7.5c34 0 59.667 5 77 15s29.666 24.667 36.999 44h121c-10.667 -55.333 -37 -97 -79 -125s-94 -42 -156 -42zM295.003 434
c-15.333 0 -30.5 -1.99902 -45.5 -5.99902s-28.167 -10.333 -39.5 -19s-20.666 -20.334 -27.999 -35.001s-11.333 -32.334 -12 -53.001h247c-0.666992 22 -4.16699 40.333 -10.5 55s-15 26.334 -26 35.001s-23.833 14.667 -38.5 18s-30.334 5 -47.001 5zM85.0029 740.001
h150l110 -160h-110z" />
    <glyph glyph-name="eacute" unicode="&#xe9;" horiz-adv-x="580" 
d="M300 -12c-36 0 -70.1641 5.5 -102.497 16.5s-60.5 27.667 -84.5 50s-43 50.666 -57 84.999s-21 74.5 -21 120.5v20c0 44 6.66699 82.333 20 115s31.666 59.834 54.999 81.501s50.333 38 81 49s63.667 16.5 99 16.5c83.333 0 146.666 -22 189.999 -66s65 -107.667 65 -191
v-56h-375c0.666992 -23.333 4.66699 -43.5 12 -60.5s17 -30.833 29 -41.5s25.833 -18.5 41.5 -23.5s31.5 -7.5 47.5 -7.5c34 0 59.667 5 77 15s29.666 24.667 36.999 44h121c-10.667 -55.333 -37 -97 -79 -125s-94 -42 -156 -42zM295.003 434
c-15.333 0 -30.5 -1.99902 -45.5 -5.99902s-28.167 -10.333 -39.5 -19s-20.666 -20.334 -27.999 -35.001s-11.333 -32.334 -12 -53.001h247c-0.666992 22 -4.16699 40.333 -10.5 55s-15 26.334 -26 35.001s-23.833 14.667 -38.5 18s-30.334 5 -47.001 5zM345.003 740.001
h150l-150 -160h-110z" />
    <glyph glyph-name="ecircumflex" unicode="&#xea;" horiz-adv-x="580" 
d="M300 -12c-36 0 -70.1641 5.5 -102.497 16.5s-60.5 27.667 -84.5 50s-43 50.666 -57 84.999s-21 74.5 -21 120.5v20c0 44 6.66699 82.333 20 115s31.666 59.834 54.999 81.501s50.333 38 81 49s63.667 16.5 99 16.5c83.333 0 146.666 -22 189.999 -66s65 -107.667 65 -191
v-56h-375c0.666992 -23.333 4.66699 -43.5 12 -60.5s17 -30.833 29 -41.5s25.833 -18.5 41.5 -23.5s31.5 -7.5 47.5 -7.5c34 0 59.667 5 77 15s29.666 24.667 36.999 44h121c-10.667 -55.333 -37 -97 -79 -125s-94 -42 -156 -42zM295.003 434
c-15.333 0 -30.5 -1.99902 -45.5 -5.99902s-28.167 -10.333 -39.5 -19s-20.666 -20.334 -27.999 -35.001s-11.333 -32.334 -12 -53.001h247c-0.666992 22 -4.16699 40.333 -10.5 55s-15 26.334 -26 35.001s-23.833 14.667 -38.5 18s-30.334 5 -47.001 5zM225.003 740.001
h130l110 -160h-110l-65 70l-65 -70h-110z" />
    <glyph glyph-name="edieresis" unicode="&#xeb;" horiz-adv-x="580" 
d="M300 -12c-36 0 -70.1641 5.5 -102.497 16.5s-60.5 27.667 -84.5 50s-43 50.666 -57 84.999s-21 74.5 -21 120.5v20c0 44 6.66699 82.333 20 115s31.666 59.834 54.999 81.501s50.333 38 81 49s63.667 16.5 99 16.5c83.333 0 146.666 -22 189.999 -66s65 -107.667 65 -191
v-56h-375c0.666992 -23.333 4.66699 -43.5 12 -60.5s17 -30.833 29 -41.5s25.833 -18.5 41.5 -23.5s31.5 -7.5 47.5 -7.5c34 0 59.667 5 77 15s29.666 24.667 36.999 44h121c-10.667 -55.333 -37 -97 -79 -125s-94 -42 -156 -42zM295.003 434
c-15.333 0 -30.5 -1.99902 -45.5 -5.99902s-28.167 -10.333 -39.5 -19s-20.666 -20.334 -27.999 -35.001s-11.333 -32.334 -12 -53.001h247c-0.666992 22 -4.16699 40.333 -10.5 55s-15 26.334 -26 35.001s-23.833 14.667 -38.5 18s-30.334 5 -47.001 5zM184.003 586.001
c-21.333 0 -39 7 -53 21s-21 31.667 -21 53s7 39 21 53s31.667 21 53 21s39 -7 53 -21s21 -31.667 21 -53s-7 -39 -21 -53s-31.667 -21 -53 -21zM396.003 586.001c-21.333 0 -39 7 -53 21s-21 31.667 -21 53s7 39 21 53s31.667 21 53 21s39 -7 53 -21s21 -31.667 21 -53
s-7 -39 -21 -53s-31.667 -21 -53 -21z" />
    <glyph glyph-name="igrave" unicode="&#xec;" horiz-adv-x="272" 
d="M70 530h132v-530h-132v530zM-68 740h150l110 -160h-110z" />
    <glyph glyph-name="iacute" unicode="&#xed;" horiz-adv-x="272" 
d="M70 530h132v-530h-132v530zM191 740h150l-150 -160h-110z" />
    <glyph glyph-name="icircumflex" unicode="&#xee;" horiz-adv-x="272" 
d="M70 530h132v-530h-132v530zM72 740h130l110 -160h-110l-65 70l-65 -70h-110z" />
    <glyph glyph-name="idieresis" unicode="&#xef;" horiz-adv-x="272" 
d="M70 530h132v-530h-132v530zM31 586c-21.333 0 -39 7 -53 21s-21 31.667 -21 53s7 39 21 53s31.667 21 53 21s39 -7 53 -21s21 -31.667 21 -53s-7 -39 -21 -53s-31.667 -21 -53 -21zM243 586c-21.333 0 -39 7 -53 21s-21 31.667 -21 53s7 39 21 53s31.667 21 53 21
s39 -7 53 -21s21 -31.667 21 -53s-7 -39 -21 -53s-31.667 -21 -53 -21z" />
    <glyph glyph-name="eth" unicode="&#xf0;" horiz-adv-x="605" 
d="M300 -12c-34 0 -66.832 5.49902 -98.499 16.499s-59.834 27.5 -84.501 49.5s-44.5 49.333 -59.5 82s-22.5 70.667 -22.5 114v20c0 40.667 7.33301 76.667 22 108s33.834 57.666 57.501 78.999s50 37.5 79 48.5s57.833 16.5 86.5 16.5c46.667 0 88 -10 124 -30
c-15.333 26 -33.333 48.167 -54 66.5s-45.334 34.5 -74.001 48.5l-26 -49l-62 29l24 46c-24 8 -50 16 -78 24l34 96l48.5 -14c15.667 -4.66699 30.5 -9.66699 44.5 -15l25 46l62 -29l-23 -43c44.667 -22 82.334 -47 113.001 -75s55.5 -59 74.5 -93s32.5 -71 40.5 -111
s12 -83 12 -129v-20c0 -48 -7.5 -89.667 -22.5 -125s-34.833 -64.666 -59.5 -87.999s-52.834 -40.666 -84.501 -51.999s-64.5 -17 -98.5 -17zM300.001 97.999c18 0 34.833 3.16699 50.5 9.5s29.5 15.833 41.5 28.5s21.5 28.5 28.5 47.5s10.5 41.167 10.5 66.5v20
c0 22.667 -3.5 42.834 -10.5 60.501s-16.5 32.5 -28.5 44.5s-25.833 21.167 -41.5 27.5s-32.5 9.5 -50.5 9.5s-34.833 -3.16699 -50.5 -9.5s-29.5 -15.5 -41.5 -27.5s-21.5 -26.833 -28.5 -44.5s-10.5 -37.834 -10.5 -60.501v-20c0 -25.333 3.5 -47.5 10.5 -66.5
s16.5 -34.833 28.5 -47.5s25.833 -22.167 41.5 -28.5s32.5 -9.5 50.5 -9.5z" />
    <glyph glyph-name="ntilde" unicode="&#xf1;" horiz-adv-x="605" 
d="M60 530h121.999v-78c12.667 24 33.167 45 61.5 63s66.5 27 114.5 27c64.667 0 112.834 -17.333 144.501 -52s47.5 -84.667 47.5 -150v-340h-132v310c0 40 -8.16699 70 -24.5 90s-44.166 30 -83.499 30c-21.333 0 -39.333 -3.33301 -54 -10s-26.834 -15.5 -36.501 -26.5
s-16.667 -23.667 -21 -38s-6.5 -29.5 -6.5 -45.5v-310h-132v530zM364.999 590c-15.333 0 -28.5 2.33301 -39.5 7s-21 9.83398 -30 15.501l-25.5 15.5c-8 4.66699 -16.333 7 -25 7c-9.33301 0 -17 -2 -23 -6s-11 -8.66699 -15 -14c-4.66699 -6 -8.66699 -12.667 -12 -20
l-60 35c5.33301 18.667 13 35.334 23 50.001c8.66699 12.667 20 24.167 34 34.5s31.667 15.5 53 15.5c14.667 0 27.667 -2.33301 39 -7s21.5 -9.83398 30.5 -15.501l25.5 -15.5c8 -4.66699 16.333 -7 25 -7s16.167 2 22.5 6s11.5 8.66699 15.5 14
c4.66699 6 8.66699 12.667 12 20l60 -35c-5.33301 -18.667 -13 -35.334 -23 -50.001c-8.66699 -12.667 -20 -24.167 -34 -34.5s-31.667 -15.5 -53 -15.5z" />
    <glyph glyph-name="ograve" unicode="&#xf2;" horiz-adv-x="600" 
d="M300 -12c-36 0 -70.167 5.5 -102.5 16.5s-60.5 27.833 -84.5 50.5s-43 51 -57 85s-21 74 -21 120v20c0 43.333 7 81.333 21 114s33 60 57 82s52.167 38.5 84.5 49.5s66.5 16.5 102.5 16.5s70 -5.5 102 -16.5s60.167 -27.5 84.5 -49.5s43.5 -49.333 57.5 -82
s21 -70.667 21 -114v-20c0 -45.333 -7 -85 -21 -119s-33.167 -62.333 -57.5 -85s-52.5 -39.667 -84.5 -51s-66 -17 -102 -17zM300 100c37.333 0 68.5 13.333 93.5 40s37.5 66.667 37.5 120v20c0 48.667 -12.5 85.834 -37.5 111.501s-56.167 38.5 -93.5 38.5
c-38 0 -69.333 -12.833 -94 -38.5s-37 -62.834 -37 -111.501v-20c0 -54 12.333 -94.167 37 -120.5s56 -39.5 94 -39.5zM95 740h150l110 -160h-110z" />
    <glyph glyph-name="oacute" unicode="&#xf3;" horiz-adv-x="600" 
d="M300 -12c-36 0 -70.167 5.5 -102.5 16.5s-60.5 27.833 -84.5 50.5s-43 51 -57 85s-21 74 -21 120v20c0 43.333 7 81.333 21 114s33 60 57 82s52.167 38.5 84.5 49.5s66.5 16.5 102.5 16.5s70 -5.5 102 -16.5s60.167 -27.5 84.5 -49.5s43.5 -49.333 57.5 -82
s21 -70.667 21 -114v-20c0 -45.333 -7 -85 -21 -119s-33.167 -62.333 -57.5 -85s-52.5 -39.667 -84.5 -51s-66 -17 -102 -17zM300 100c37.333 0 68.5 13.333 93.5 40s37.5 66.667 37.5 120v20c0 48.667 -12.5 85.834 -37.5 111.501s-56.167 38.5 -93.5 38.5
c-38 0 -69.333 -12.833 -94 -38.5s-37 -62.834 -37 -111.501v-20c0 -54 12.333 -94.167 37 -120.5s56 -39.5 94 -39.5zM355 740h150l-150 -160h-110z" />
    <glyph glyph-name="ocircumflex" unicode="&#xf4;" horiz-adv-x="600" 
d="M300 -12c-36 0 -70.167 5.5 -102.5 16.5s-60.5 27.833 -84.5 50.5s-43 51 -57 85s-21 74 -21 120v20c0 43.333 7 81.333 21 114s33 60 57 82s52.167 38.5 84.5 49.5s66.5 16.5 102.5 16.5s70 -5.5 102 -16.5s60.167 -27.5 84.5 -49.5s43.5 -49.333 57.5 -82
s21 -70.667 21 -114v-20c0 -45.333 -7 -85 -21 -119s-33.167 -62.333 -57.5 -85s-52.5 -39.667 -84.5 -51s-66 -17 -102 -17zM300 100c37.333 0 68.5 13.333 93.5 40s37.5 66.667 37.5 120v20c0 48.667 -12.5 85.834 -37.5 111.501s-56.167 38.5 -93.5 38.5
c-38 0 -69.333 -12.833 -94 -38.5s-37 -62.834 -37 -111.501v-20c0 -54 12.333 -94.167 37 -120.5s56 -39.5 94 -39.5zM235 740h130l110 -160h-110l-65 70l-65 -70h-110z" />
    <glyph glyph-name="otilde" unicode="&#xf5;" horiz-adv-x="600" 
d="M300 -12c-36 0 -70.167 5.5 -102.5 16.5s-60.5 27.833 -84.5 50.5s-43 51 -57 85s-21 74 -21 120v20c0 43.333 7 81.333 21 114s33 60 57 82s52.167 38.5 84.5 49.5s66.5 16.5 102.5 16.5s70 -5.5 102 -16.5s60.167 -27.5 84.5 -49.5s43.5 -49.333 57.5 -82
s21 -70.667 21 -114v-20c0 -45.333 -7 -85 -21 -119s-33.167 -62.333 -57.5 -85s-52.5 -39.667 -84.5 -51s-66 -17 -102 -17zM300 100c37.333 0 68.5 13.333 93.5 40s37.5 66.667 37.5 120v20c0 48.667 -12.5 85.834 -37.5 111.501s-56.167 38.5 -93.5 38.5
c-38 0 -69.333 -12.833 -94 -38.5s-37 -62.834 -37 -111.501v-20c0 -54 12.333 -94.167 37 -120.5s56 -39.5 94 -39.5zM360 590c-15.333 0 -28.5 2.33301 -39.5 7s-21 9.83398 -30 15.501l-25.5 15.5c-8 4.66699 -16.333 7 -25 7c-9.33301 0 -17 -2 -23 -6
s-11 -8.66699 -15 -14c-4.66699 -6 -8.66699 -12.667 -12 -20l-60 35c5.33301 18.667 13 35.334 23 50.001c8.66699 12.667 20 24.167 34 34.5s31.667 15.5 53 15.5c14.667 0 27.667 -2.33301 39 -7s21.5 -9.83398 30.5 -15.501l25.5 -15.5c8 -4.66699 16.333 -7 25 -7
s16.167 2 22.5 6s11.5 8.66699 15.5 14c4.66699 6 8.66699 12.667 12 20l60 -35c-5.33301 -18.667 -13 -35.334 -23 -50.001c-8.66699 -12.667 -20 -24.167 -34 -34.5s-31.667 -15.5 -53 -15.5z" />
    <glyph glyph-name="odieresis" unicode="&#xf6;" horiz-adv-x="600" 
d="M300 -12c-36 0 -70.167 5.5 -102.5 16.5s-60.5 27.833 -84.5 50.5s-43 51 -57 85s-21 74 -21 120v20c0 43.333 7 81.333 21 114s33 60 57 82s52.167 38.5 84.5 49.5s66.5 16.5 102.5 16.5s70 -5.5 102 -16.5s60.167 -27.5 84.5 -49.5s43.5 -49.333 57.5 -82
s21 -70.667 21 -114v-20c0 -45.333 -7 -85 -21 -119s-33.167 -62.333 -57.5 -85s-52.5 -39.667 -84.5 -51s-66 -17 -102 -17zM300 100c37.333 0 68.5 13.333 93.5 40s37.5 66.667 37.5 120v20c0 48.667 -12.5 85.834 -37.5 111.501s-56.167 38.5 -93.5 38.5
c-38 0 -69.333 -12.833 -94 -38.5s-37 -62.834 -37 -111.501v-20c0 -54 12.333 -94.167 37 -120.5s56 -39.5 94 -39.5zM194 586c-21.333 0 -39 7 -53 21s-21 31.667 -21 53s7 39 21 53s31.667 21 53 21s39 -7 53 -21s21 -31.667 21 -53s-7 -39 -21 -53s-31.667 -21 -53 -21z
M406 586c-21.333 0 -39 7 -53 21s-21 31.667 -21 53s7 39 21 53s31.667 21 53 21s39 -7 53 -21s21 -31.667 21 -53s-7 -39 -21 -53s-31.667 -21 -53 -21z" />
    <glyph glyph-name="divide" unicode="&#xf7;" horiz-adv-x="570" 
d="M40 422h490v-124h-490v124zM285 68c-23.333 0 -43.333 8.33301 -60 25s-25 36.667 -25 60c0 24.667 8.33301 45 25 61s36.667 24 60 24s43.333 -8 60 -24s25 -36.333 25 -61c0 -23.333 -8.33301 -43.333 -25 -60s-36.667 -25 -60 -25zM285 482
c-23.333 0 -43.333 8.33301 -60 25s-25 36.667 -25 60c0 24.667 8.33301 45 25 61s36.667 24 60 24s43.333 -8 60 -24s25 -36.333 25 -61c0 -23.333 -8.33301 -43.333 -25 -60s-36.667 -25 -60 -25z" />
    <glyph glyph-name="oslash" unicode="&#xf8;" horiz-adv-x="600" 
d="M300 -12c-59.333 0 -111 13.999 -155 41.999l-35 -42l-50 42l36 43c-19.333 22 -34.333 48.5 -45 79.5s-16 66.833 -16 107.5v20c0 43.333 7 81.333 21 114s33 60 57 82s52.167 38.5 84.5 49.5s66.5 16.5 102.5 16.5c58.667 0 110 -14 154 -42l36 42l50 -42l-36 -43
c19.333 -21.333 34.333 -46.666 45 -75.999s16 -63 16 -101v-20c0 -45.333 -7 -85 -21 -119s-33.167 -62.333 -57.5 -85s-52.5 -39.667 -84.5 -51s-66 -17 -102 -17zM300 99.999c37.333 0 68.501 13.333 93.501 40s37.5 66.667 37.5 120v20c0 27.333 -4.66699 52 -14 74
l-193 -231c21.333 -15.333 46.666 -23 75.999 -23zM300.001 429.999c-38 0 -69.334 -12.8311 -94.001 -38.498s-37 -62.834 -37 -111.501v-20c0 -32.667 4.66699 -60.334 14 -83.001l193 229c-21.333 16 -46.666 24 -75.999 24z" />
    <glyph glyph-name="ugrave" unicode="&#xf9;" horiz-adv-x="595" 
d="M242 -12c-62 0 -108.665 17.5 -139.998 52.5s-47 89.167 -47 162.5v327h132v-309c0 -40 7.83301 -70.167 23.5 -90.5s42.167 -30.5 79.5 -30.5c20 0 37 3.33301 51 10s25.667 15.5 35 26.5s16.166 23.833 20.499 38.5s6.5 30 6.5 46v309h132v-530h-122v78
c-12.667 -24 -32.834 -45 -60.501 -63s-64.5 -27 -110.5 -27zM90.002 740h150l110 -160h-110z" />
    <glyph glyph-name="uacute" unicode="&#xfa;" horiz-adv-x="595" 
d="M242 -12c-62 0 -108.665 17.5 -139.998 52.5s-47 89.167 -47 162.5v327h132v-309c0 -40 7.83301 -70.167 23.5 -90.5s42.167 -30.5 79.5 -30.5c20 0 37 3.33301 51 10s25.667 15.5 35 26.5s16.166 23.833 20.499 38.5s6.5 30 6.5 46v309h132v-530h-122v78
c-12.667 -24 -32.834 -45 -60.501 -63s-64.5 -27 -110.5 -27zM350.002 740h150l-150 -160h-110z" />
    <glyph glyph-name="ucircumflex" unicode="&#xfb;" horiz-adv-x="595" 
d="M242 -12c-62 0 -108.665 17.5 -139.998 52.5s-47 89.167 -47 162.5v327h132v-309c0 -40 7.83301 -70.167 23.5 -90.5s42.167 -30.5 79.5 -30.5c20 0 37 3.33301 51 10s25.667 15.5 35 26.5s16.166 23.833 20.499 38.5s6.5 30 6.5 46v309h132v-530h-122v78
c-12.667 -24 -32.834 -45 -60.501 -63s-64.5 -27 -110.5 -27zM230.002 740h130l110 -160h-110l-65 70l-65 -70h-110z" />
    <glyph glyph-name="udieresis" unicode="&#xfc;" horiz-adv-x="595" 
d="M242 -12c-62 0 -108.665 17.5 -139.998 52.5s-47 89.167 -47 162.5v327h132v-309c0 -40 7.83301 -70.167 23.5 -90.5s42.167 -30.5 79.5 -30.5c20 0 37 3.33301 51 10s25.667 15.5 35 26.5s16.166 23.833 20.499 38.5s6.5 30 6.5 46v309h132v-530h-122v78
c-12.667 -24 -32.834 -45 -60.501 -63s-64.5 -27 -110.5 -27zM189.002 586c-21.333 0 -39 7 -53 21s-21 31.667 -21 53s7 39 21 53s31.667 21 53 21s39 -7 53 -21s21 -31.667 21 -53s-7 -39 -21 -53s-31.667 -21 -53 -21zM401.002 586c-21.333 0 -39 7 -53 21
s-21 31.667 -21 53s7 39 21 53s31.667 21 53 21s39 -7 53 -21s21 -31.667 21 -53s-7 -39 -21 -53s-31.667 -21 -53 -21z" />
    <glyph glyph-name="yacute" unicode="&#xfd;" horiz-adv-x="580" 
d="M150 -212c-10 0 -20 1 -30 3v112c10 -2 20 -3 30 -3c20 0 35.5 7.5 46.5 22.5s23.5 40.833 37.5 77.5l-224 530h148l144 -366l132 366h136l-204 -530c-14.667 -37.333 -28.5 -69.5 -41.5 -96.5s-27.5 -49 -43.5 -66s-34.333 -29.5 -55 -37.5s-46 -12 -76 -12zM351 740
h150l-150 -160h-110z" />
    <glyph glyph-name="thorn" unicode="&#xfe;" horiz-adv-x="615" 
d="M60 700h131.998v-243c17.333 25.333 39.833 45.833 67.5 61.5s59.5 23.5 95.5 23.5c70.667 0 125.834 -21.833 165.501 -65.5s59.5 -109.167 59.5 -196.5v-20c0 -91.333 -20.167 -159.5 -60.5 -204.5s-95.166 -67.5 -164.499 -67.5c-36 0 -67.833 7.83301 -95.5 23.5
s-50.167 36.167 -67.5 61.5v-273h-132v900zM323.998 100c34.667 0 63.668 13.167 87.001 39.5s35 66.5 35 120.5v20c0 50 -11.333 87.5 -34 112.5s-52 37.5 -88 37.5c-38 0 -69.5 -10.833 -94.5 -32.5s-37.5 -54.5 -37.5 -98.5v-60c0 -46.667 12.167 -81.5 36.5 -104.5
s56.166 -34.5 95.499 -34.5z" />
    <glyph glyph-name="ydieresis" unicode="&#xff;" horiz-adv-x="580" 
d="M150 -212c-10 0 -20 1 -30 3v112c10 -2 20 -3 30 -3c20 0 35.5 7.5 46.5 22.5s23.5 40.833 37.5 77.5l-224 530h148l144 -366l132 366h136l-204 -530c-14.667 -37.333 -28.5 -69.5 -41.5 -96.5s-27.5 -49 -43.5 -66s-34.333 -29.5 -55 -37.5s-46 -12 -76 -12zM190 586
c-21.333 0 -39 7 -53 21s-21 31.667 -21 53s7 39 21 53s31.667 21 53 21s39 -7 53 -21s21 -31.667 21 -53s-7 -39 -21 -53s-31.667 -21 -53 -21zM402 586c-21.333 0 -39 7 -53 21s-21 31.667 -21 53s7 39 21 53s31.667 21 53 21s39 -7 53 -21s21 -31.667 21 -53
s-7 -39 -21 -53s-31.667 -21 -53 -21z" />
    <glyph glyph-name="dotlessi" unicode="&#x131;" horiz-adv-x="272" 
d="M70 530h132v-530h-132v530z" />
    <glyph glyph-name="Lslash" unicode="&#x141;" horiz-adv-x="610" 
d="M120 227l-100 -58v124l100 58v349h150v-262l160 92v-124l-160 -92v-190h320v-124h-470v227z" />
    <glyph glyph-name="lslash" unicode="&#x142;" horiz-adv-x="375" 
d="M275 -6c-30.667 0 -56.998 2.83203 -78.998 8.49902s-40.167 15.5 -54.5 29.5s-24.833 32.833 -31.5 56.5s-10 53.167 -10 88.5v101l-80 -46v125l80 46v297h132v-221l108 63v-125l-108 -63v-161c0 -34 5 -57 15 -69s29.333 -18 58 -18
c7.33301 0 13.666 0.166992 18.999 0.5s10.666 0.833008 15.999 1.5v-111c-5.33301 -1.33301 -15 -2.16602 -29 -2.49902s-26 -0.5 -36 -0.5z" />
    <glyph glyph-name="OE" unicode="&#x152;" horiz-adv-x="1100" 
d="M375 -12c-42.667 0 -83.5 6.66699 -122.5 20s-73.5 34.333 -103.5 63s-54 65.5 -72 110.5s-27 99.5 -27 163.5v20c0 61.333 9 113.833 27 157.5s42 79.5 72 107.5s64.5 48.667 103.5 62s79.833 20 122.5 20c36 0 69.5 -4.66699 100.5 -14s59.167 -25 84.5 -47v49h490
v-124h-339v-154h309v-124h-309v-174h339v-124h-490v49c-25.333 -22 -53.5 -37.667 -84.5 -47s-64.5 -14 -100.5 -14zM380 114c22.667 0 44.5 3.83301 65.5 11.5s39.5 20.5 55.5 38.5s28.833 41.667 38.5 71s14.5 66 14.5 110v20c0 41.333 -4.83301 76 -14.5 104
s-22.5 50.667 -38.5 68s-34.5 29.833 -55.5 37.5s-42.833 11.5 -65.5 11.5s-44.5 -3.83301 -65.5 -11.5s-39.5 -20.167 -55.5 -37.5s-28.833 -40 -38.5 -68s-14.5 -62.667 -14.5 -104v-20c0 -44 4.83301 -80.667 14.5 -110s22.5 -53 38.5 -71s34.5 -30.833 55.5 -38.5
s42.833 -11.5 65.5 -11.5z" />
    <glyph glyph-name="oe" unicode="&#x153;" horiz-adv-x="980" 
d="M300 -12c-36 0 -70.166 5.5 -102.499 16.5s-60.5 27.833 -84.5 50.5s-43 51 -57 85s-21 74 -21 120v20c0 43.333 7 81.333 21 114s33 60 57 82s52.167 38.5 84.5 49.5s66.5 16.5 102.5 16.5c40.667 0 78 -7.16699 112 -21.5s62.667 -35.5 86 -63.5
c22 28.667 49.5 50 82.5 64s69.5 21 109.5 21c83.333 0 146.666 -22 189.999 -66s65 -107.667 65 -191v-56h-375c0.666992 -23.333 4.66699 -43.5 12 -60.5s17 -30.833 29 -41.5s25.833 -18.5 41.5 -23.5s31.5 -7.5 47.5 -7.5c34 0 59.667 5 77 15s29.666 24.667 36.999 44
h121c-10.667 -55.333 -37 -97 -79 -125s-94 -42 -156 -42c-42 0 -80.167 7.16699 -114.5 21.5s-63.166 36.5 -86.499 66.5c-23.333 -30 -52 -52.167 -86 -66.5s-71.667 -21.5 -113 -21.5zM300.001 100c37.333 0 68.5 13.333 93.5 40s37.5 66.667 37.5 120v20
c0 48.667 -12.5 85.834 -37.5 111.501s-56.167 38.5 -93.5 38.5c-38 0 -69.333 -12.833 -94 -38.5s-37 -62.834 -37 -111.501v-20c0 -54 12.333 -94.167 37 -120.5s56 -39.5 94 -39.5zM695.001 434c-15.333 0 -30.5 -1.99902 -45.5 -5.99902s-28.167 -10.333 -39.5 -19
s-20.666 -20.334 -27.999 -35.001s-11.333 -32.334 -12 -53.001h247c-0.666992 22 -4.16699 40.333 -10.5 55s-15 26.334 -26 35.001s-23.833 14.667 -38.5 18s-30.334 5 -47.001 5z" />
    <glyph glyph-name="Scaron" unicode="&#x160;" horiz-adv-x="660" 
d="M330 -12c-92.667 0 -162.664 19 -209.997 57s-72.333 88 -75 150h150c2.66699 -13.333 6.66699 -25 12 -35s13.333 -18.333 24 -25s24 -11.834 40 -15.501s35.667 -5.5 59 -5.5c48 0 82.5 6.5 103.5 19.5s31.5 31.5 31.5 55.5c0 29.333 -13.833 51.5 -41.5 66.5
s-71.834 28.5 -132.501 40.5c-36 6.66699 -68 15.5 -96 26.5s-51.667 25 -71 42s-34 37.5 -44 61.5s-15 52.667 -15 86c0 30 6.16699 57.333 18.5 82s30 45.834 53 63.501s50.833 31.167 83.5 40.5s69.334 14 110.001 14c44 0 82 -4.66699 114 -14
s58.833 -22.666 80.5 -39.999s38.167 -38 49.5 -62s18.333 -51 21 -81h-150c-4.66699 24 -15.334 41.833 -32.001 53.5s-44.334 17.5 -83.001 17.5c-39.333 0 -68.333 -6.33301 -87 -19s-28 -29.667 -28 -51c0 -25.333 12.833 -45.5 38.5 -60.5s66.167 -27.833 121.5 -38.5
c38 -7.33301 71.833 -16.333 101.5 -27s54.667 -24.334 75 -41.001s36 -37.167 47 -61.5s16.5 -53.5 16.5 -87.5c0 -64.667 -24.833 -116.167 -74.5 -154.5s-119.834 -57.5 -210.501 -57.5zM150.003 900h120l60 -60l60 60h120l-110 -150h-140z" />
    <glyph glyph-name="scaron" unicode="&#x161;" horiz-adv-x="550" 
d="M275 -12c-43.333 0 -79.835 4.6709 -109.502 14.0039s-53.667 21.666 -72 36.999s-32.166 33 -41.499 53s-15 41 -17 63h132c3.33301 -17.333 13.666 -31.5 30.999 -42.5s43 -16.5 77 -16.5c38.667 0 66.334 5.33301 83.001 16s25 24.334 25 41.001
c0 8.66699 -2 16.167 -6 22.5s-10.833 12.166 -20.5 17.499s-22.834 10 -39.501 14s-37.667 8 -63 12c-28.667 4 -55.334 9.66699 -80.001 17s-46.167 17.333 -64.5 30s-32.833 28.5 -43.5 47.5s-16 42.167 -16 69.5c0 22 5 42.667 15 62s24.667 36.166 44 50.499
s43 25.666 71 33.999s59.667 12.5 95 12.5c38 0 70.5 -4.66699 97.5 -14s49.167 -21.833 66.5 -37.5s30.333 -33.5 39 -53.5s14.334 -40.667 17.001 -62h-132c-5.33301 19.333 -15.666 34 -30.999 44s-34.333 15 -57 15c-33.333 0 -57.166 -5.16699 -71.499 -15.5
s-21.5 -23.166 -21.5 -38.499c0 -8 1.66699 -15 5 -21s9.5 -11.333 18.5 -16s21.333 -8.83398 37 -12.501s35.5 -7.16699 59.5 -10.5c30 -4 57.833 -9.83301 83.5 -17.5s48.167 -17.834 67.5 -30.501s34.5 -28.667 45.5 -48s16.5 -42.333 16.5 -69
c0 -24 -5 -46.167 -15 -66.5s-25 -38 -45 -53s-45 -26.667 -75 -35s-65 -12.5 -105 -12.5zM99.998 740.004h110l65 -70l65 70h110l-110 -160h-130z" />
    <glyph glyph-name="Ydieresis" unicode="&#x178;" horiz-adv-x="680" 
d="M275 267l-265 433h176l167 -281l157 281h160l-245 -433v-267h-150v267zM228 745c-23.333 0 -42.5 7.5 -57.5 22.5s-22.5 34.167 -22.5 57.5s7.5 42.5 22.5 57.5s34.167 22.5 57.5 22.5s42.5 -7.5 57.5 -22.5s22.5 -34.167 22.5 -57.5s-7.5 -42.5 -22.5 -57.5
s-34.167 -22.5 -57.5 -22.5zM468 745c-23.333 0 -42.5 7.5 -57.5 22.5s-22.5 34.167 -22.5 57.5s7.5 42.5 22.5 57.5s34.167 22.5 57.5 22.5s42.5 -7.5 57.5 -22.5s22.5 -34.167 22.5 -57.5s-7.5 -42.5 -22.5 -57.5s-34.167 -22.5 -57.5 -22.5z" />
    <glyph glyph-name="Zcaron" unicode="&#x17d;" horiz-adv-x="620" 
d="M35 109l360 467h-350v124h530v-109l-360 -467h370v-124h-550v109zM130 900h120l60 -60l60 60h120l-110 -150h-140z" />
    <glyph glyph-name="zcaron" unicode="&#x17e;" horiz-adv-x="510" 
d="M30 95l274 325h-264v110h430v-95l-274 -325h284v-110h-450v95zM80 740h110l65 -70l65 70h110l-110 -160h-130z" />
    <glyph glyph-name="florin" unicode="&#x192;" horiz-adv-x="370" 
d="M42 -212c-5.33301 0 -14.501 0.166992 -27.501 0.5s-22.167 1.16602 -27.5 2.49902v112c5.33301 -1.33301 12.833 -2.16602 22.5 -2.49902s17.167 -0.5 22.5 -0.5c20.667 0 35.5 4.33301 44.5 13s13.5 22.334 13.5 41.001v466h-65v110h65v20
c0 50.667 14.167 89.334 42.5 116.001s77.5 40 147.5 40c10 0 22.5 -0.166992 37.5 -0.5s27.5 -1.16602 37.5 -2.49902v-112c-10 1.33301 -20.833 2.16602 -32.5 2.49902s-22.5 0.5 -32.5 0.5c-25.333 0 -43 -4.33301 -53 -13s-15 -22.334 -15 -41.001v-10h123v-110h-123
v-476c0 -50.667 -13.667 -89.334 -41 -116.001s-73.666 -40 -138.999 -40z" />
    <glyph glyph-name="uni0237" unicode="&#x237;" horiz-adv-x="272" 
d="M22 -212c-7.33301 0 -15.666 0.166992 -24.999 0.5s-17.666 1.16602 -24.999 2.49902v112c5.33301 -1.33301 11.166 -2.16602 17.499 -2.49902s12.166 -0.5 17.499 -0.5c12 0 22 1.66699 30 5s14.5 9 19.5 17s8.5 19.167 10.5 33.5s3 32.5 3 54.5v520h132v-530
c0 -42 -2.83301 -76.667 -8.5 -104s-15.5 -49 -29.5 -65s-32.5 -27.167 -55.5 -33.5s-51.833 -9.5 -86.5 -9.5z" />
    <glyph glyph-name="uni02BC" unicode="&#x2bc;" horiz-adv-x="285" 
d="M85 570v130h140v-130l-112 -160h-68z" />
    <glyph glyph-name="circumflex" unicode="&#x2c6;" horiz-adv-x="390" 
d="M130 740h130l110 -160h-110l-65 70l-65 -70h-110z" />
    <glyph glyph-name="caron" unicode="&#x2c7;" horiz-adv-x="390" 
d="M20 740h110l65 -70l65 70h110l-110 -160h-130z" />
    <glyph glyph-name="dotaccent" unicode="&#x2d9;" horiz-adv-x="200" 
d="M100 580c-23.333 0 -42.5 7.5 -57.5 22.5s-22.5 34.167 -22.5 57.5s7.5 42.5 22.5 57.5s34.167 22.5 57.5 22.5s42.5 -7.5 57.5 -22.5s22.5 -34.167 22.5 -57.5s-7.5 -42.5 -22.5 -57.5s-34.167 -22.5 -57.5 -22.5z" />
    <glyph glyph-name="ring" unicode="&#x2da;" horiz-adv-x="290" 
d="M145 565c-18 0 -34.5 3 -49.5 9s-28.167 14.167 -39.5 24.5s-20.166 22.5 -26.499 36.5s-9.5 29 -9.5 45s3.16699 31 9.5 45s15.166 26.167 26.499 36.5s24.5 18.5 39.5 24.5s31.5 9 49.5 9s34.5 -3 49.5 -9s28.167 -14.167 39.5 -24.5s20.166 -22.5 26.499 -36.5
s9.5 -29 9.5 -45s-3.16699 -31 -9.5 -45s-15.166 -26.167 -26.499 -36.5s-24.5 -18.5 -39.5 -24.5s-31.5 -9 -49.5 -9zM145 643c11.333 0 20.333 3.33301 27 10s10 15.667 10 27s-3.33301 20.333 -10 27s-15.667 10 -27 10s-20.333 -3.33301 -27 -10s-10 -15.667 -10 -27
s3.33301 -20.333 10 -27s15.667 -10 27 -10z" />
    <glyph glyph-name="tilde" unicode="&#x2dc;" horiz-adv-x="380" 
d="M250 590c-15.333 0 -28.5 2.33301 -39.5 7s-21 9.83398 -30 15.501l-25.5 15.5c-8 4.66699 -16.333 7 -25 7c-9.33301 0 -17 -2 -23 -6s-11 -8.66699 -15 -14c-4.66699 -6 -8.66699 -12.667 -12 -20l-60 35c5.33301 18.667 13 35.334 23 50.001
c8.66699 12.667 20 24.167 34 34.5s31.667 15.5 53 15.5c14.667 0 27.667 -2.33301 39 -7s21.5 -9.83398 30.5 -15.501l25.5 -15.5c8 -4.66699 16.333 -7 25 -7s16.167 2 22.5 6s11.5 8.66699 15.5 14c4.66699 6 8.66699 12.667 12 20l60 -35
c-5.33301 -18.667 -13 -35.334 -23 -50.001c-8.66699 -12.667 -20 -24.167 -34 -34.5s-31.667 -15.5 -53 -15.5z" />
    <glyph glyph-name="hungarumlaut" unicode="&#x2dd;" horiz-adv-x="587" 
d="M63 580l84 160h137l-123 -160h-98zM271 580l123 160h143l-163 -160h-103z" />
    <glyph glyph-name="uni0401" unicode="&#x401;" horiz-adv-x="620" 
d="M80 700h490v-124h-339v-156h309v-120h-309v-176h339v-124h-490v700zM205 745c-23.333 0 -42.5 7.5 -57.5 22.5s-22.5 34.167 -22.5 57.5s7.5 42.5 22.5 57.5s34.167 22.5 57.5 22.5s42.5 -7.5 57.5 -22.5s22.5 -34.167 22.5 -57.5s-7.5 -42.5 -22.5 -57.5
s-34.167 -22.5 -57.5 -22.5zM445 745c-23.333 0 -42.5 7.5 -57.5 22.5s-22.5 34.167 -22.5 57.5s7.5 42.5 22.5 57.5s34.167 22.5 57.5 22.5s42.5 -7.5 57.5 -22.5s22.5 -34.167 22.5 -57.5s-7.5 -42.5 -22.5 -57.5s-34.167 -22.5 -57.5 -22.5z" />
    <glyph glyph-name="uni0402" unicode="&#x402;" horiz-adv-x="830" 
d="M245 576h-225.004v124h600v-124h-225v-163c17.333 11.333 40.833 21.666 70.5 30.999s64.5 14 104.5 14c72.667 0 128.334 -19.333 167.001 -58s58 -94.667 58 -168v-20c0 -69.333 -20.5 -123 -61.5 -161s-105.5 -57 -193.5 -57c-5.33301 0 -13.666 0.166992 -24.999 0.5
s-19.666 1.16602 -24.999 2.49902v126c5.33301 -1.33301 12 -2.16602 20 -2.49902s14.667 -0.5 20 -0.5c34.667 0 61.5 9 80.5 27s28.5 41 28.5 69v20c0 28 -9.5 51 -28.5 69s-45.833 27 -80.5 27c-31.333 0 -58.166 -4.16699 -80.499 -12.5s-40.5 -17.166 -54.5 -26.499
v-293h-150v576z" />
    <glyph glyph-name="uni0403" unicode="&#x403;" horiz-adv-x="560" 
d="M80 700h460v-124h-310v-576h-150v700zM365 900h160l-150 -150h-120z" />
    <glyph glyph-name="uni0404" unicode="&#x404;" horiz-adv-x="700" 
d="M365 -12c-44 0 -85.167 6.66699 -123.5 20s-71.666 34.166 -99.999 62.499s-50.666 65.166 -66.999 110.499s-24.5 100 -24.5 164v20c0 60 8 111.833 24 155.5s38.167 79.667 66.5 108s61.666 49.333 99.999 63s79.833 20.5 124.5 20.5c39.333 0 76.333 -4.66699 111 -14
s65.167 -23.833 91.5 -43.5s47.666 -44.834 63.999 -75.501s25.833 -67 28.5 -109h-156c-7.33301 40 -23.333 69.333 -48 88s-55 28 -91 28c-41.333 0 -76.166 -13.167 -104.499 -39.5s-45.833 -70.166 -52.5 -131.499h242v-118h-242c3.33301 -34 9.83301 -62.667 19.5 -86
s21.667 -42.166 36 -56.499s30.166 -24.666 47.499 -30.999s35.333 -9.5 54 -9.5c38 0 69.333 9.83301 94 29.5s39.667 48.5 45 86.5h156c-3.33301 -44 -13 -81.333 -29 -112s-37 -55.667 -63 -75s-56.333 -33.333 -91 -42s-72 -13 -112 -13z" />
    <glyph glyph-name="uni0405" unicode="&#x405;" horiz-adv-x="660" 
d="M330 -12c-92.667 0 -162.664 19 -209.997 57s-72.333 88 -75 150h150c2.66699 -13.333 6.66699 -25 12 -35s13.333 -18.333 24 -25s24 -11.834 40 -15.501s35.667 -5.5 59 -5.5c48 0 82.5 6.5 103.5 19.5s31.5 31.5 31.5 55.5c0 29.333 -13.833 51.5 -41.5 66.5
s-71.834 28.5 -132.501 40.5c-36 6.66699 -68 15.5 -96 26.5s-51.667 25 -71 42s-34 37.5 -44 61.5s-15 52.667 -15 86c0 30 6.16699 57.333 18.5 82s30 45.834 53 63.501s50.833 31.167 83.5 40.5s69.334 14 110.001 14c44 0 82 -4.66699 114 -14
s58.833 -22.666 80.5 -39.999s38.167 -38 49.5 -62s18.333 -51 21 -81h-150c-4.66699 24 -15.334 41.833 -32.001 53.5s-44.334 17.5 -83.001 17.5c-39.333 0 -68.333 -6.33301 -87 -19s-28 -29.667 -28 -51c0 -25.333 12.833 -45.5 38.5 -60.5s66.167 -27.833 121.5 -38.5
c38 -7.33301 71.833 -16.333 101.5 -27s54.667 -24.334 75 -41.001s36 -37.167 47 -61.5s16.5 -53.5 16.5 -87.5c0 -64.667 -24.833 -116.167 -74.5 -154.5s-119.834 -57.5 -210.501 -57.5z" />
    <glyph glyph-name="uni0406" unicode="&#x406;" horiz-adv-x="330" 
d="M90 700h150v-700h-150v700z" />
    <glyph glyph-name="uni0407" unicode="&#x407;" horiz-adv-x="330" 
d="M90 700h150v-700h-150v700zM46 745c-23.333 0 -42.5 7.5 -57.5 22.5s-22.5 34.167 -22.5 57.5s7.5 42.5 22.5 57.5s34.167 22.5 57.5 22.5s42.5 -7.5 57.5 -22.5s22.5 -34.167 22.5 -57.5s-7.5 -42.5 -22.5 -57.5s-34.167 -22.5 -57.5 -22.5zM286 745
c-23.333 0 -42.5 7.5 -57.5 22.5s-22.5 34.167 -22.5 57.5s7.5 42.5 22.5 57.5s34.167 22.5 57.5 22.5s42.5 -7.5 57.5 -22.5s22.5 -34.167 22.5 -57.5s-7.5 -42.5 -22.5 -57.5s-34.167 -22.5 -57.5 -22.5z" />
    <glyph glyph-name="uni0408" unicode="&#x408;" horiz-adv-x="575" 
d="M255 -12c-74.667 0 -131.165 20 -169.498 60s-58.5 97.333 -60.5 172h142c2.66699 -70 32 -105 88 -105c31.333 0 54.166 10 68.499 30s21.5 55 21.5 105v450h150v-450c0 -47.333 -5.5 -87.5 -16.5 -120.5s-26.833 -60 -47.5 -81s-45.834 -36.333 -75.501 -46
s-63.167 -14.5 -100.5 -14.5z" />
    <glyph glyph-name="uni0409" unicode="&#x409;" horiz-adv-x="1055" 
d="M65 -12c-5.33301 0 -12 0.171875 -20 0.504883s-14.667 1.16602 -20 2.49902v134c3.33301 -0.666992 8.33301 -1 15 -1c17.333 0 32 3.83301 44 11.5s21.833 24.5 29.5 50.5s13.167 63.833 16.5 113.5s5 116.5 5 200.5v200h500v-250h110
c47.333 0 88.666 -5.33301 123.999 -16s64.5 -25.834 87.5 -45.501s40.167 -43.334 51.5 -71.001s17 -58.5 17 -92.5s-5.66699 -64.833 -17 -92.5s-28.5 -51.334 -51.5 -71.001s-52.167 -34.834 -87.5 -45.501s-76.666 -16 -123.999 -16h-260v576h-208v-96
c0 -106 -4.66699 -191.333 -14 -256s-23 -114.5 -41 -149.5s-40.167 -58.167 -66.5 -69.5s-56.5 -17 -90.5 -17zM730 124.005c53.333 0 90.833 9 112.5 27s32.5 42.667 32.5 74s-10.833 56 -32.5 74s-59.167 27 -112.5 27h-95v-202h95z" />
    <glyph glyph-name="uni040A" unicode="&#x40a;" horiz-adv-x="1090" 
d="M80 700l150 0.00390625v-268h290v268h150v-268h120c46 0 86 -5.16699 120 -15.5s62.167 -24.833 84.5 -43.5s38.833 -41.334 49.5 -68.001s16 -56.334 16 -89.001s-5.33301 -62.334 -16 -89.001s-27.167 -49.334 -49.5 -68.001s-50.5 -33.167 -84.5 -43.5
s-74 -15.5 -120 -15.5h-270v308h-290v-308h-150v700zM775 124.004c26 0 47.667 2.00195 65 6.00195s31.166 9.83301 41.499 17.5s17.666 17.167 21.999 28.5s6.5 24.666 6.5 39.999s-2.16699 28.666 -6.5 39.999s-11.666 20.833 -21.999 28.5s-24.166 13.5 -41.499 17.5
s-39 6 -65 6h-105v-184h105z" />
    <glyph glyph-name="uni040B" unicode="&#x40b;" horiz-adv-x="845" 
d="M245 576h-225.001v124h600v-124h-225v-163c17.333 11.333 40.833 21.666 70.5 30.999s64.5 14 104.5 14c76 0 132.5 -18.667 169.5 -56s55.5 -96.333 55.5 -177v-225h-150v205c0 45.333 -9.16699 77.833 -27.5 97.5s-47.5 29.5 -87.5 29.5
c-31.333 0 -58.166 -4.16699 -80.499 -12.5s-40.5 -17.166 -54.5 -26.499v-293h-150v576z" />
    <glyph glyph-name="uni040C" unicode="&#x40c;" horiz-adv-x="710" 
d="M80 700h150v-285h60l224 285h166l-275 -331l285 -369h-176l-224 305h-60v-305h-150v700zM421 900h160l-150 -150h-120z" />
    <glyph glyph-name="uni040E" unicode="&#x40e;" horiz-adv-x="690" 
d="M205 -12c-7.33301 0 -14.499 0.332031 -21.499 0.999023s-13.167 1.33398 -18.5 2.00098v119c5.33301 -0.666992 11.5 -1.16699 18.5 -1.5s14.167 -0.5 21.5 -0.5c14.667 0 26.5 1.33301 35.5 4s16.5 6.83398 22.5 12.501s11.333 13 16 22s10 19.833 16 32.5l-285 521
h162l196 -375l156 375h156l-237 -540c-14 -31.333 -28.167 -57.833 -42.5 -79.5s-30.5 -39.334 -48.5 -53.001s-38.833 -23.667 -62.5 -30s-51.834 -9.5 -84.501 -9.5zM348.001 739.999c-65.333 0 -113.333 14.5 -144 43.5s-46 71.167 -46 126.5h126
c0 -32 5.33301 -54 16 -66s26.667 -18 48 -18s37.333 6 48 18s16 34 16 66h126c0 -55.333 -15.333 -97.5 -46 -126.5s-78.667 -43.5 -144 -43.5z" />
    <glyph glyph-name="uni040F" unicode="&#x40f;" horiz-adv-x="740" 
d="M303 0h-223v700h150v-576h280v576h150v-700h-223v-130h-134v130z" />
    <glyph glyph-name="uni0410" unicode="&#x410;" horiz-adv-x="690" 
d="M468 143h-259l-53 -143h-146l260 700h150l260 -700h-158zM255 267h168l-84 243z" />
    <glyph glyph-name="uni0411" unicode="&#x411;" horiz-adv-x="675" 
d="M80 700h495v-124h-345v-134h130c48 0 89.5 -5.33301 124.5 -16s64 -25.667 87 -45s40.167 -42.5 51.5 -69.5s17 -57.167 17 -90.5s-5.66699 -63.5 -17 -90.5s-28.5 -50.167 -51.5 -69.5s-52 -34.333 -87 -45s-76.5 -16 -124.5 -16h-280v700zM345 124
c54.667 0 92.5 8.5 113.5 25.5s31.5 40.833 31.5 71.5s-10.5 54.5 -31.5 71.5s-58.833 25.5 -113.5 25.5h-115v-194h115z" />
    <glyph glyph-name="uni0412" unicode="&#x412;" horiz-adv-x="680" 
d="M80 700l300.001 -0.00390625c78.667 0 136.667 -16.5 174 -49.5s56 -78.833 56 -137.5c0 -36 -8.83301 -66.833 -26.5 -92.5s-41.834 -44.167 -72.501 -55.5c40 -9.33301 71.5 -28.166 94.5 -56.499s34.5 -65.166 34.5 -110.499c0 -30 -4.66699 -57.167 -14 -81.5
s-23.833 -45.166 -43.5 -62.499s-45.167 -30.666 -76.5 -39.999s-69 -14 -113 -14h-313v700zM366.001 113.996c46.667 0 79 8 97 24s27 39.667 27 71s-9 55.833 -27 73.5s-50.667 26.5 -98 26.5h-135v-195h136zM350.001 410.996c40.667 0 69.167 8 85.5 24
s24.5 37.667 24.5 65c0 28 -8 49.333 -24 64s-44.333 22 -85 22h-121v-175h120z" />
    <glyph glyph-name="uni0413" unicode="&#x413;" horiz-adv-x="560" 
d="M80 700h460v-124h-310v-576h-150v700z" />
    <glyph glyph-name="uni0414" unicode="&#x414;" horiz-adv-x="750" 
d="M20 124h78c10 23.333 18.333 51.5 25 84.5s12 68 16 105s7 75 9 114s3 76.5 3 112.5v160h493v-576h76v-254h-134v130h-432v-130h-134v254zM494 124v452h-201v-56c0 -91.333 -4.33301 -168.333 -13 -231s-21 -117.667 -37 -165h251z" />
    <glyph glyph-name="uni0415" unicode="&#x415;" horiz-adv-x="620" 
d="M80 700h490v-124h-339v-156h309v-120h-309v-176h339v-124h-490v700z" />
    <glyph glyph-name="uni0416" unicode="&#x416;" horiz-adv-x="1000" 
d="M260 364l-230 336h160l185 -285h50v285h150v-285h50l191 285h154l-230 -329l240 -371h-166l-189 305h-50v-305h-150v305h-50l-191 -305h-164z" />
    <glyph glyph-name="uni0417" unicode="&#x417;" horiz-adv-x="657" 
d="M325 -12c-92.667 0 -163.333 20.834 -212 62.501s-74.667 98.167 -78 169.5h156c3.33301 -34 15.666 -60.167 36.999 -78.5s53.666 -27.5 96.999 -27.5c46.667 0 80.667 8.66699 102 26s32 41 32 71s-10.167 53.833 -30.5 71.5s-56.5 26.5 -108.5 26.5h-74v102h74
c20.667 0 38.334 2.5 53.001 7.5s26.5 11.667 35.5 20s15.5 18.166 19.5 29.499s6 23.333 6 36c0 24.667 -8.66699 44.5 -26 59.5s-45 22.5 -83 22.5c-38.667 0 -67.5 -7.16699 -86.5 -21.5s-29.833 -37.5 -32.5 -69.5h-156c3.33301 70.667 27.333 124.5 72 161.5
s112.334 55.5 203.001 55.5c90 0 156.667 -17.5 200 -52.5s65 -83.5 65 -145.5c0 -36.667 -9 -67.834 -27 -93.501s-44.333 -44.167 -79 -55.5c42.667 -10 75.167 -29.167 97.5 -57.5s33.5 -65.166 33.5 -110.499c0 -30.667 -6 -58.834 -18 -84.501s-30 -47.667 -54 -66
s-54.167 -32.666 -90.5 -42.999s-78.833 -15.5 -127.5 -15.5z" />
    <glyph glyph-name="uni0418" unicode="&#x418;" horiz-adv-x="760" 
d="M80 700h150v-465l305 465h145v-700h-150v465l-306 -465h-144v700z" />
    <glyph glyph-name="uni0419" unicode="&#x419;" horiz-adv-x="760" 
d="M80 700h150v-465l305 465h145v-700h-150v465l-306 -465h-144v700zM380 740c-65.333 0 -113.333 14.5 -144 43.5s-46 71.167 -46 126.5h126c0 -32 5.33301 -54 16 -66s26.667 -18 48 -18s37.333 6 48 18s16 34 16 66h126c0 -55.333 -15.333 -97.5 -46 -126.5
s-78.667 -43.5 -144 -43.5z" />
    <glyph glyph-name="uni041A" unicode="&#x41a;" horiz-adv-x="710" 
d="M80 700h150v-285h60l224 285h166l-275 -331l285 -369h-176l-224 305h-60v-305h-150v700z" />
    <glyph glyph-name="uni041B" unicode="&#x41b;" horiz-adv-x="725" 
d="M65 -12c-5.33301 0 -12 0.167969 -20 0.500977s-14.667 1.16602 -20 2.49902v134c3.33301 -0.666992 8.33301 -1 15 -1c17.333 0 32 3.83301 44 11.5s21.833 24.5 29.5 50.5s13.167 63.833 16.5 113.5s5 116.5 5 200.5v200h510v-700h-150v576h-218v-96
c0 -106 -4.66699 -191.333 -14 -256s-23 -114.5 -41 -149.5s-40.167 -58.167 -66.5 -69.5s-56.5 -17 -90.5 -17z" />
    <glyph glyph-name="uni041C" unicode="&#x41c;" horiz-adv-x="880" 
d="M80 700h150l213 -394l212 394h145v-700h-150v445l-165 -305h-90l-165 305v-445h-150v700z" />
    <glyph glyph-name="uni041D" unicode="&#x41d;" horiz-adv-x="760" 
d="M80 700h150v-278h300v278h150v-700h-150v298h-300v-298h-150v700z" />
    <glyph glyph-name="uni041E" unicode="&#x41e;" horiz-adv-x="760" 
d="M380 -12c-44 0 -85.833 6.66699 -125.5 20s-74.667 34.333 -105 63s-54.5 65.5 -72.5 110.5s-27 99.5 -27 163.5v20c0 61.333 9 113.833 27 157.5s42.167 79.5 72.5 107.5s65.333 48.667 105 62s81.5 20 125.5 20s85.833 -6.66699 125.5 -20s74.667 -34 105 -62
s54.5 -63.833 72.5 -107.5s27 -96.167 27 -157.5v-20c0 -64 -9 -118.5 -27 -163.5s-42.167 -81.833 -72.5 -110.5s-65.333 -49.667 -105 -63s-81.5 -20 -125.5 -20zM380 114c22.667 0 44.5 3.83301 65.5 11.5s39.5 20.5 55.5 38.5s28.833 41.667 38.5 71s14.5 66 14.5 110
v20c0 41.333 -4.83301 76 -14.5 104s-22.5 50.667 -38.5 68s-34.5 29.833 -55.5 37.5s-42.833 11.5 -65.5 11.5s-44.5 -3.83301 -65.5 -11.5s-39.5 -20.167 -55.5 -37.5s-28.833 -40 -38.5 -68s-14.5 -62.667 -14.5 -104v-20c0 -44 4.83301 -80.667 14.5 -110
s22.5 -53 38.5 -71s34.5 -30.833 55.5 -38.5s42.833 -11.5 65.5 -11.5z" />
    <glyph glyph-name="uni041F" unicode="&#x41f;" horiz-adv-x="750" 
d="M80 700h590v-700h-150v576h-290v-576h-150v700z" />
    <glyph glyph-name="uni0420" unicode="&#x420;" horiz-adv-x="665" 
d="M80 700h270c94.667 0 165 -20.833 211 -62.5s69 -97.5 69 -167.5s-23 -125.833 -69 -167.5s-116.333 -62.5 -211 -62.5h-120v-240h-150v700zM335 364c53.333 0 90.833 9 112.5 27s32.5 44.333 32.5 79c0 34 -10.833 60.167 -32.5 78.5s-59.167 27.5 -112.5 27.5h-105
v-212h105z" />
    <glyph glyph-name="uni0421" unicode="&#x421;" horiz-adv-x="700" 
d="M365 -12c-46 0 -88.1641 6.6709 -126.497 20.0039s-71.5 34.166 -99.5 62.499s-49.833 65.166 -65.5 110.499s-23.5 100 -23.5 164v20c0 61.333 8.16699 113.833 24.5 157.5s38.666 79.5 66.999 107.5s61.666 48.667 99.999 62s79.5 20 123.5 20
c39.333 0 76.333 -4.66699 111 -14s65.167 -23.833 91.5 -43.5s47.666 -44.834 63.999 -75.501s25.833 -67 28.5 -109h-156c-7.33301 40 -23.333 69.333 -48 88s-55 28 -91 28c-20.667 0 -40.5 -3.66699 -59.5 -11s-35.833 -19.666 -50.5 -36.999s-26.5 -40 -35.5 -68
s-13.5 -63 -13.5 -105v-20c0 -44 4.66699 -80.833 14 -110.5s21.5 -53.334 36.5 -71.001s32 -30.334 51 -38.001s38.167 -11.5 57.5 -11.5c38 0 69.333 9.83301 94 29.5s39.667 48.5 45 86.5h156c-3.33301 -44 -13 -81.333 -29 -112s-37 -55.667 -63 -75
s-56.333 -33.333 -91 -42s-72 -13 -112 -13z" />
    <glyph glyph-name="uni0422" unicode="&#x422;" 
d="M245 576h-225v124h600v-124h-225v-576h-150v576z" />
    <glyph glyph-name="uni0423" unicode="&#x423;" horiz-adv-x="690" 
d="M205 -12c-7.33301 0 -14.499 0.332031 -21.499 0.999023s-13.167 1.33398 -18.5 2.00098v119c5.33301 -0.666992 11.5 -1.16699 18.5 -1.5s14.167 -0.5 21.5 -0.5c14.667 0 26.5 1.33301 35.5 4s16.5 6.83398 22.5 12.501s11.333 13 16 22s10 19.833 16 32.5l-285 521
h162l196 -375l156 375h156l-237 -540c-14 -31.333 -28.167 -57.833 -42.5 -79.5s-30.5 -39.334 -48.5 -53.001s-38.833 -23.667 -62.5 -30s-51.834 -9.5 -84.501 -9.5z" />
    <glyph glyph-name="uni0424" unicode="&#x424;" horiz-adv-x="900" 
d="M375 32c-52.667 0 -99.5 7.5 -140.5 22.5s-75.5 36.5 -103.5 64.5s-49.333 61.5 -64 100.5s-22 82.5 -22 130.5v20c0 42.667 7.33301 82.334 22 119.001s36 68.167 64 94.5s62.5 47 103.5 62s87.833 22.5 140.5 22.5v62h150v-62c52 0 98.5 -7.5 139.5 -22.5
s75.667 -35.667 104 -62s49.833 -57.833 64.5 -94.5s22 -76.334 22 -119.001v-20c0 -48 -7.33301 -91.5 -22 -130.5s-36.167 -72.5 -64.5 -100.5s-63 -49.5 -104 -64.5s-87.5 -22.5 -139.5 -22.5v-62h-150v62zM700 370c0 54.667 -14.667 97 -44 127s-73 45 -131 45v-384
c116.667 0 175 64 175 192v20zM201 350c0 -64.667 14.001 -112.833 42.001 -144.5s72 -47.5 132 -47.5v384c-58.667 0 -102.334 -15 -131.001 -45s-43 -72.333 -43 -127v-20z" />
    <glyph glyph-name="uni0425" unicode="&#x425;" horiz-adv-x="700" 
d="M255 365l-225 335h168l154 -229l155 229h163l-223 -332l233 -368h-169l-162 262l-163 -262h-166z" />
    <glyph glyph-name="uni0426" unicode="&#x426;" horiz-adv-x="775" 
d="M611 0h-531v700h150v-576h280v576h150v-576h85v-254h-134v130z" />
    <glyph glyph-name="uni0427" unicode="&#x427;" horiz-adv-x="680" 
d="M450 287c-17.333 -11.333 -40.832 -21.666 -70.499 -30.999s-64.5 -14 -104.5 -14c-76 0 -132.5 18.667 -169.5 56s-55.5 96.333 -55.5 177v225h150v-205c0 -45.333 9.16699 -77.833 27.5 -97.5s47.5 -29.5 87.5 -29.5c31.333 0 58.166 4.16699 80.499 12.5
s40.5 17.166 54.5 26.499v293h150v-700h-150v287z" />
    <glyph glyph-name="uni0428" unicode="&#x428;" horiz-adv-x="990" 
d="M80 700h150v-576h190v576h150v-576h190v576h150v-700h-830v700z" />
    <glyph glyph-name="uni0429" unicode="&#x429;" horiz-adv-x="1025" 
d="M80 700h150v-576h190v576h150v-576h190v576h150v-576h85v-254h-134v130h-781v700z" />
    <glyph glyph-name="uni042A" unicode="&#x42a;" horiz-adv-x="740" 
d="M160 576l-140 0.00390625v124h290v-250h120c47.333 0 88.666 -5.33301 123.999 -16s64.5 -25.834 87.5 -45.501s40.167 -43.334 51.5 -71.001s17 -58.5 17 -92.5s-5.66699 -64.833 -17 -92.5s-28.5 -51.334 -51.5 -71.001s-52.167 -34.834 -87.5 -45.501
s-76.666 -16 -123.999 -16h-270v576zM415 124.004c53.333 0 90.833 9 112.5 27s32.5 42.667 32.5 74s-10.833 56 -32.5 74s-59.167 27 -112.5 27h-105v-202h105z" />
    <glyph glyph-name="uni042B" unicode="&#x42b;" horiz-adv-x="910" 
d="M80 700l150 0.00390625v-250h100c47.333 0 88.666 -5.33301 123.999 -16s64.5 -25.834 87.5 -45.501s40.167 -43.334 51.5 -71.001s17 -58.5 17 -92.5s-5.66699 -64.833 -17 -92.5s-28.5 -51.334 -51.5 -71.001s-52.167 -34.834 -87.5 -45.501s-76.666 -16 -123.999 -16
h-250v700zM315 124.004c53.333 0 90.833 9 112.5 27s32.5 42.667 32.5 74s-10.833 56 -32.5 74s-59.167 27 -112.5 27h-85v-202h85zM680 700.004h150v-700h-150v700z" />
    <glyph glyph-name="uni042C" unicode="&#x42c;" horiz-adv-x="660" 
d="M80 700l150 0.00390625v-250h120c47.333 0 88.666 -5.33301 123.999 -16s64.5 -25.834 87.5 -45.501s40.167 -43.334 51.5 -71.001s17 -58.5 17 -92.5s-5.66699 -64.833 -17 -92.5s-28.5 -51.334 -51.5 -71.001s-52.167 -34.834 -87.5 -45.501s-76.666 -16 -123.999 -16
h-270v700zM335 124.004c53.333 0 90.833 9 112.5 27s32.5 42.667 32.5 74s-10.833 56 -32.5 74s-59.167 27 -112.5 27h-105v-202h105z" />
    <glyph glyph-name="uni042D" unicode="&#x42d;" horiz-adv-x="700" 
d="M335 -12c-40 0 -77.332 4.33301 -111.999 13s-65 22.667 -91 42s-47 44.333 -63 75s-25.667 68 -29 112h156c5.33301 -38 20.333 -66.833 45 -86.5s56 -29.5 94 -29.5c18.667 0 36.667 3.16699 54 9.5s33.166 16.666 47.499 30.999s26.333 33.166 36 56.499
s16.167 52 19.5 86h-242v118h241c-6.66699 61.333 -24.167 105.166 -52.5 131.499s-62.833 39.5 -103.5 39.5c-36 0 -66.333 -9.33301 -91 -28s-40.667 -48 -48 -88h-156c2.66699 42 12.167 78.333 28.5 109s37.666 55.834 63.999 75.501s56.833 34.167 91.5 43.5
s71.667 14 111 14c44.667 0 86.167 -6.83301 124.5 -20.5s71.666 -34.667 99.999 -63s50.5 -64.333 66.5 -108s24 -95.5 24 -155.5v-20c0 -64 -8.16699 -118.667 -24.5 -164s-38.666 -82.166 -66.999 -110.499s-61.666 -49.166 -99.999 -62.499s-79.5 -20 -123.5 -20z" />
    <glyph glyph-name="uni042E" unicode="&#x42e;" horiz-adv-x="970" 
d="M80 700l149.999 0.000976562v-278h88c4.66699 50.667 15.5 94.167 32.5 130.5s38.667 66.333 65 90s56.5 41.167 90.5 52.5s70.333 17 109 17c44 0 84.667 -6.5 122 -19.5s69.5 -33.5 96.5 -61.5s48.167 -63.833 63.5 -107.5s23 -96.5 23 -158.5v-20
c0 -63.333 -7.83301 -117.5 -23.5 -162.5s-37.167 -82 -64.5 -111s-59.5 -50.167 -96.5 -63.5s-77.167 -20 -120.5 -20c-40 0 -77.333 5.66699 -112 17s-65.167 29.5 -91.5 54.5s-47.666 57.167 -63.999 96.5s-26.5 86.666 -30.5 141.999h-87v-298h-150v700z
M614.999 114.001c21.333 0 41 3.83301 59 11.5s33.667 20.5 47 38.5s23.833 41.667 31.5 71s11.5 66 11.5 110v20c0 41.333 -3.83301 76 -11.5 104s-18.167 50.667 -31.5 68s-29 29.833 -47 37.5s-37.667 11.5 -59 11.5s-41 -3.83301 -59 -11.5s-33.667 -20.167 -47 -37.5
s-23.833 -40 -31.5 -68s-11.5 -62.667 -11.5 -104v-20c0 -44 3.83301 -80.667 11.5 -110s18.167 -53 31.5 -71s29 -30.833 47 -38.5s37.667 -11.5 59 -11.5z" />
    <glyph glyph-name="uni042F" unicode="&#x42f;" horiz-adv-x="695" 
d="M214 272c-50 16 -87.333 41.665 -112 76.998s-37 77.333 -37 126c0 34 5.66699 64.833 17 92.5s28 51.334 50 71.001s49.5 34.834 82.5 45.501s71.5 16 115.5 16h285v-700h-150v256h-111l-155 -256h-164zM215 474.998c0 -16.667 2.33301 -31.334 7 -44.001
s12.667 -23.167 24 -31.5s26.166 -14.666 44.499 -18.999s41.5 -6.5 69.5 -6.5h105v202h-105c-28 0 -51.167 -2.16699 -69.5 -6.5s-33.166 -10.666 -44.499 -18.999s-19.333 -18.833 -24 -31.5s-7 -27.334 -7 -44.001z" />
    <glyph glyph-name="uni0430" unicode="&#x430;" horiz-adv-x="575" 
d="M219 -12c-28.667 0 -53.999 4.16504 -75.999 12.498s-40.667 20 -56 35s-27 32.667 -35 53s-12 42.5 -12 66.5c0 106.667 63.333 160 190 160h158v25c0 34.667 -7.83301 59 -23.5 73s-40.5 21 -74.5 21c-30 0 -51.667 -5.16699 -65 -15.5s-21 -23.166 -23 -38.499h-132
c1.33301 22.667 7.16602 44 17.499 64s25 37.167 44 51.5s42.167 25.666 69.5 33.999s58.666 12.5 93.999 12.5c34 0 64.833 -3.66699 92.5 -11s51.334 -19.166 71.001 -35.499s34.834 -37.5 45.501 -63.5s16 -57.333 16 -94v-203c0 -28 0.5 -52.5 1.5 -73.5
s2.83301 -41.5 5.5 -61.5h-123c-2.66699 14.667 -4.16699 25.834 -4.5 33.501s-0.5 19.167 -0.5 34.5c-14.667 -21.333 -36.834 -40 -66.501 -56s-67.5 -24 -113.5 -24zM260.001 89.998c16 0 31.666 2.16699 46.999 6.5s29 11 41 20s21.667 20.5 29 34.5s11 30.333 11 49v25
h-133c-25.333 0 -45.166 -5.83301 -59.499 -17.5s-21.5 -27.5 -21.5 -47.5c0 -21.333 7.33301 -38.333 22 -51s36 -19 64 -19z" />
    <glyph glyph-name="uni0431" unicode="&#x431;" horiz-adv-x="595" 
d="M300 -12c-37.333 0 -71.834 6.33008 -103.501 18.9971s-59.167 31.834 -82.5 57.501s-41.5 57.334 -54.5 95.001s-19.5 81.5 -19.5 131.5v23c0 60 4.5 113.333 13.5 160s24 86.334 45 119.001s49 58.167 84 76.5s78.833 28.833 131.5 31.5l61 2
c20 0.666992 39 1.66699 57 3s34.333 3.5 49 6.5s27.667 7.16699 39 12.5v-117c-10.667 -6 -30.5 -11 -59.5 -15s-72.833 -6.33301 -131.5 -7c-30 -0.666992 -55.833 -4.16699 -77.5 -10.5s-39.667 -16.333 -54 -30s-25.666 -31.5 -33.999 -53.5s-14.166 -49 -17.499 -81
c15.333 30 38.333 54.333 69 73s70.667 28 120 28c33.333 0 63.666 -5.16699 90.999 -15.5s51 -25.5 71 -45.5s35.5 -44.667 46.5 -74s16.5 -63.333 16.5 -102v-19c0 -42 -6.5 -79.667 -19.5 -113s-31.167 -61.5 -54.5 -84.5s-50.833 -40.5 -82.5 -52.5
s-66.167 -18 -103.5 -18zM299.999 99.9971c40 0 71.0029 13.167 93.0029 39.5s33 63.833 33 112.5v20c0 42 -11.333 75 -34 99s-53.334 36 -92.001 36c-38 0 -68.5 -12 -91.5 -36s-34.5 -57 -34.5 -99v-18c0 -24 3.16699 -45.667 9.5 -65s15.166 -35.5 26.499 -48.5
s24.666 -23 39.999 -30s32 -10.5 50 -10.5z" />
    <glyph glyph-name="uni0432" unicode="&#x432;" horiz-adv-x="575" 
d="M60 530l266 0.000976562c34 0 63.167 -3.5 87.5 -10.5s44.5 -16.833 60.5 -29.5s27.667 -27.667 35 -45s11 -36.333 11 -57c0 -24.667 -7.5 -47.834 -22.5 -69.501s-35.5 -36.167 -61.5 -43.5c32.667 -8 58.167 -23.167 76.5 -45.5s27.5 -48.5 27.5 -78.5
c0 -46 -16 -82.667 -48 -110s-80.667 -41 -146 -41h-286v530zM320 106.001c30 0 52.167 4.5 66.5 13.5s21.5 23.5 21.5 43.5s-6.83301 34.5 -20.5 43.5s-36.167 13.5 -67.5 13.5h-128v-114h128zM307 318.001c30.667 0 51.833 4.33301 63.5 13s17.5 22 17.5 40
c0 17.333 -6 30.5 -18 39.5s-33 13.5 -63 13.5h-115v-106h115z" />
    <glyph glyph-name="uni0433" unicode="&#x433;" horiz-adv-x="470" 
d="M70 530h380v-110h-248v-420h-132v530z" />
    <glyph glyph-name="uni0434" unicode="&#x434;" horiz-adv-x="625" 
d="M20 110l60 0.000976562c6.66699 10 12.667 24.5 18 43.5s9.5 40.333 12.5 64s5.33301 48.667 7 75s2.5 52.166 2.5 77.499v160h415v-420h65v-235h-116v125h-348v-125h-116v235zM403 110.001l-0.000976562 310h-162v-70c0 -23.333 -0.666992 -46.333 -2 -69
s-3.16602 -44.5 -5.49902 -65.5s-5.5 -40.5 -9.5 -58.5s-9 -33.667 -15 -47h194z" />
    <glyph glyph-name="uni0435" unicode="&#x435;" horiz-adv-x="580" 
d="M300 -12c-36 0 -70.1641 5.5 -102.497 16.5s-60.5 27.667 -84.5 50s-43 50.666 -57 84.999s-21 74.5 -21 120.5v20c0 44 6.66699 82.333 20 115s31.666 59.834 54.999 81.501s50.333 38 81 49s63.667 16.5 99 16.5c83.333 0 146.666 -22 189.999 -66s65 -107.667 65 -191
v-56h-375c0.666992 -23.333 4.66699 -43.5 12 -60.5s17 -30.833 29 -41.5s25.833 -18.5 41.5 -23.5s31.5 -7.5 47.5 -7.5c34 0 59.667 5 77 15s29.666 24.667 36.999 44h121c-10.667 -55.333 -37 -97 -79 -125s-94 -42 -156 -42zM295.003 434
c-15.333 0 -30.5 -1.99902 -45.5 -5.99902s-28.167 -10.333 -39.5 -19s-20.666 -20.334 -27.999 -35.001s-11.333 -32.334 -12 -53.001h247c-0.666992 22 -4.16699 40.333 -10.5 55s-15 26.334 -26 35.001s-23.833 14.667 -38.5 18s-30.334 5 -47.001 5z" />
    <glyph glyph-name="uni0436" unicode="&#x436;" horiz-adv-x="820" 
d="M203 276l-178 254h138l142 -208h39v208h132v-208h40l143 208h136l-177 -251l187 -279h-148l-141 218h-40v-218h-132v218h-40l-145 -218h-144z" />
    <glyph glyph-name="uni0437" unicode="&#x437;" horiz-adv-x="545" 
d="M270 -12c-76.667 0 -135 15.668 -175 47.001s-61.667 76.333 -65 135h134c1.33301 -11.333 4 -21.333 8 -30s10 -16 18 -22s18.5 -10.5 31.5 -13.5s29.167 -4.5 48.5 -4.5c38.667 0 66 5.83301 82 17.5s24 25.834 24 42.501c0 20 -6.66699 35 -20 45s-37 15 -71 15h-80
v98h73c25.333 0 44.666 5.33301 57.999 16s20 24.667 20 42c0 15.333 -6.5 28.166 -19.5 38.499s-35.167 15.5 -66.5 15.5c-32.667 0 -56.167 -5.5 -70.5 -16.5s-22.833 -27.167 -25.5 -48.5h-134c3.33301 57.333 24.333 101.166 63 131.499s94.334 45.5 167.001 45.5
c38.667 0 71.834 -3.66699 99.501 -11s50.5 -17.833 68.5 -31.5s31.167 -30 39.5 -49s12.5 -40.167 12.5 -63.5c0 -25.333 -6.5 -48 -19.5 -68s-33.5 -34.667 -61.5 -44c38 -9.33301 64.333 -24.5 79 -45.5s22 -45.833 22 -74.5c0 -24 -4.83301 -46.167 -14.5 -66.5
s-24.334 -38 -44.001 -53s-44.5 -26.667 -74.5 -35s-65.667 -12.5 -107 -12.5z" />
    <glyph glyph-name="uni0438" unicode="&#x438;" horiz-adv-x="610" 
d="M60 530h132v-340l236 340h122v-530h-132v340l-236 -340h-122v530z" />
    <glyph glyph-name="uni0439" unicode="&#x439;" horiz-adv-x="610" 
d="M60 530h132v-340l236 340h122v-530h-132v340l-236 -340h-122v530zM305 585c-59.333 0 -102.5 12.667 -129.5 38s-40.5 62.666 -40.5 111.999h117c0 -26 4.5 -44.167 13.5 -54.5s22.167 -15.5 39.5 -15.5c18.667 0 32.5 5.16699 41.5 15.5s13.5 28.5 13.5 54.5h115
c0 -49.333 -13.5 -86.666 -40.5 -111.999s-70.167 -38 -129.5 -38z" />
    <glyph glyph-name="uni043A" unicode="&#x43a;" horiz-adv-x="575" 
d="M60 530h132v-208h50l162 208h146l-200 -251l210 -279h-158l-160 218h-50v-218h-132v530z" />
    <glyph glyph-name="uni043B" unicode="&#x43b;" horiz-adv-x="595" 
d="M65 -12c-5.33301 0 -11.998 0.166016 -19.998 0.499023s-14.667 1.16602 -20 2.49902v119c3.33301 -0.666992 8.33301 -1 15 -1c12.667 0 23.667 3.83301 33 11.5s17.166 20.834 23.499 39.501s11 43.5 14 74.5s4.5 69.5 4.5 115.5v180h420v-530h-132v420h-166v-90
c0 -68.667 -3.5 -125.167 -10.5 -169.5s-17.667 -79.166 -32 -104.499s-32.333 -43 -54 -53s-46.834 -15 -75.501 -15z" />
    <glyph glyph-name="uni043C" unicode="&#x43c;" horiz-adv-x="720" 
d="M60 530h156l147 -286l147 286h150v-530h-126v345l-129 -240h-90l-129 240v-345h-126v530z" />
    <glyph glyph-name="uni043D" unicode="&#x43d;" horiz-adv-x="610" 
d="M60 530h132v-205h226v205h132v-530h-132v215h-226v-215h-132v530z" />
    <glyph glyph-name="uni043E" unicode="&#x43e;" horiz-adv-x="600" 
d="M300 -12c-36 0 -70.167 5.5 -102.5 16.5s-60.5 27.833 -84.5 50.5s-43 51 -57 85s-21 74 -21 120v20c0 43.333 7 81.333 21 114s33 60 57 82s52.167 38.5 84.5 49.5s66.5 16.5 102.5 16.5s70 -5.5 102 -16.5s60.167 -27.5 84.5 -49.5s43.5 -49.333 57.5 -82
s21 -70.667 21 -114v-20c0 -45.333 -7 -85 -21 -119s-33.167 -62.333 -57.5 -85s-52.5 -39.667 -84.5 -51s-66 -17 -102 -17zM300 100c37.333 0 68.5 13.333 93.5 40s37.5 66.667 37.5 120v20c0 48.667 -12.5 85.834 -37.5 111.501s-56.167 38.5 -93.5 38.5
c-38 0 -69.333 -12.833 -94 -38.5s-37 -62.834 -37 -111.501v-20c0 -54 12.333 -94.167 37 -120.5s56 -39.5 94 -39.5z" />
    <glyph glyph-name="uni043F" unicode="&#x43f;" horiz-adv-x="600" 
d="M60 530h480v-530h-132v420h-216v-420h-132v530z" />
    <glyph glyph-name="uni0440" unicode="&#x440;" horiz-adv-x="615" 
d="M60 530h122.998v-78c13.333 24 34.333 45 63 63s65 27 109 27c70.667 0 125.834 -21.833 165.501 -65.5s59.5 -109.167 59.5 -196.5v-20c0 -91.333 -20.167 -159.5 -60.5 -204.5s-95.166 -67.5 -164.499 -67.5c-36 0 -67.833 7.83301 -95.5 23.5
s-50.167 36.167 -67.5 61.5v-273h-132v730zM323.998 100c34.667 0 63.668 13.167 87.001 39.5s35 66.5 35 120.5v20c0 50 -11.333 87.5 -34 112.5s-52 37.5 -88 37.5c-38 0 -69.5 -10.833 -94.5 -32.5s-37.5 -54.167 -37.5 -97.5v-60c0 -47.333 12.167 -82.5 36.5 -105.5
s56.166 -34.5 95.499 -34.5z" />
    <glyph glyph-name="uni0441" unicode="&#x441;" horiz-adv-x="565" 
d="M295 -12c-36.667 0 -70.8311 5.66602 -102.498 16.999s-59.167 28.333 -82.5 51s-41.666 51 -54.999 85s-20 73.667 -20 119v20c0 42.667 7 80.334 21 113.001s32.833 60 56.5 82s51.167 38.667 82.5 50s64.666 17 99.999 17c37.333 0 70.5 -5 99.5 -15
s53.5 -23.667 73.5 -41s35.667 -37.666 47 -60.999s18 -48.333 20 -75h-134c-5.33301 24.667 -16.166 44.167 -32.499 58.5s-40.833 21.5 -73.5 21.5c-17.333 0 -33.5 -3 -48.5 -9s-28.333 -15.167 -40 -27.5s-20.834 -27.833 -27.501 -46.5s-10 -41 -10 -67v-20
c0 -28 3.16699 -52.167 9.5 -72.5s15.166 -37 26.499 -50s24.666 -22.5 39.999 -28.5s32 -9 50 -9c26 0 48.5 6.83301 67.5 20.5s31.833 33.5 38.5 59.5h134c-3.33301 -29.333 -11.5 -55.833 -24.5 -79.5s-30 -43.834 -51 -60.501s-45.5 -29.5 -73.5 -38.5
s-58.333 -13.5 -91 -13.5z" />
    <glyph glyph-name="uni0442" unicode="&#x442;" horiz-adv-x="510" 
d="M189 420h-169v110h470v-110h-169v-420h-132v420z" />
    <glyph glyph-name="uni0443" unicode="&#x443;" horiz-adv-x="580" 
d="M150 -212c-10 0 -20 1 -30 3v112c10 -2 20 -3 30 -3c20 0 35.5 7.5 46.5 22.5s23.5 40.833 37.5 77.5l-224 530h148l144 -366l132 366h136l-204 -530c-14.667 -37.333 -28.5 -69.5 -41.5 -96.5s-27.5 -49 -43.5 -66s-34.333 -29.5 -55 -37.5s-46 -12 -76 -12z" />
    <glyph glyph-name="uni0444" unicode="&#x444;" horiz-adv-x="760" 
d="M314 -12c-91.333 0 -160.666 23.333 -207.999 70s-71 114 -71 202v20c0 84.667 23.667 149.5 71 194.5s116.666 67.5 207.999 67.5v158h132v-158c90.667 0 159.834 -22.5 207.501 -67.5s71.5 -109.5 71.5 -193.5v-21c0 -88 -23.833 -155.333 -71.5 -202
s-116.834 -70 -207.501 -70v-188h-132v188zM591 280c0 50 -11.833 87.5 -35.5 112.5s-61.5 37.5 -113.5 37.5v-330c52 0 89.833 13.5 113.5 40.5s35.5 66.833 35.5 119.5v20zM169 260c0 -52.667 12 -92.5 36 -119.5s61.667 -40.5 113 -40.5v330
c-52 0 -89.833 -12.667 -113.5 -38s-35.5 -62.333 -35.5 -111v-21z" />
    <glyph glyph-name="uni0445" unicode="&#x445;" horiz-adv-x="570" 
d="M195 276l-170 254h147l116 -170l114 170h143l-168 -249l178 -281h-148l-124 198l-123 -198h-145z" />
    <glyph glyph-name="uni0446" unicode="&#x446;" horiz-adv-x="630" 
d="M489 0h-429v530h132v-420h206v420h132v-420h75v-235h-116v125z" />
    <glyph glyph-name="uni0447" unicode="&#x447;" horiz-adv-x="565" 
d="M373 195c-15.333 -9.33301 -33.6641 -17.667 -54.9971 -25s-47.333 -11 -78 -11c-64.667 0 -113.334 15.333 -146.001 46s-49 79 -49 145v180h132v-165c0 -34.667 7.33301 -59 22 -73s40 -21 76 -21c25.333 0 46.166 3 62.499 9s28.166 11.667 35.499 17v233h132v-530
h-132v195z" />
    <glyph glyph-name="uni0448" unicode="&#x448;" horiz-adv-x="830" 
d="M60 530h132v-420h157v420h132v-420h157v420h132v-530h-710v530z" />
    <glyph glyph-name="uni0449" unicode="&#x449;" horiz-adv-x="870" 
d="M729 0h-669v530h132v-420h157v420h132v-420h157v420h132v-420h75v-235h-116v125z" />
    <glyph glyph-name="uni044A" unicode="&#x44a;" horiz-adv-x="615" 
d="M140 420h-119.999v110h252v-178h113c136.667 0 205 -58.667 205 -176c0 -26 -3.83301 -49.833 -11.5 -71.5s-19.834 -40.167 -36.501 -55.5s-38 -27.333 -64 -36s-57 -13 -93 -13h-245v420zM370.001 106c32 0 54.667 5.83301 68 17.5s20 29.167 20 52.5
s-6.83301 40.833 -20.5 52.5s-36.167 17.5 -67.5 17.5h-98v-140h98z" />
    <glyph glyph-name="uni044B" unicode="&#x44b;" horiz-adv-x="740" 
d="M60 530h132.001v-178h93c136.667 0 205 -58.667 205 -176c0 -26 -3.83301 -49.833 -11.5 -71.5s-19.834 -40.167 -36.501 -55.5s-38 -27.333 -64 -36s-57 -13 -93 -13h-225v530zM270.001 106c32 0 54.667 5.83301 68 17.5s20 29.167 20 52.5s-6.83301 40.833 -20.5 52.5
s-36.167 17.5 -67.5 17.5h-78v-140h78zM548.001 530h132v-530h-132v530z" />
    <glyph glyph-name="uni044C" unicode="&#x44c;" horiz-adv-x="535" 
d="M60 530h132.001v-178h113c136.667 0 205 -58.667 205 -176c0 -26 -3.83301 -49.833 -11.5 -71.5s-19.834 -40.167 -36.501 -55.5s-38 -27.333 -64 -36s-57 -13 -93 -13h-245v530zM290.001 106c32 0 54.667 5.83301 68 17.5s20 29.167 20 52.5s-6.83301 40.833 -20.5 52.5
s-36.167 17.5 -67.5 17.5h-98v-140h98z" />
    <glyph glyph-name="uni044D" unicode="&#x44d;" horiz-adv-x="565" 
d="M270 -12c-33.333 0 -64.002 4.50098 -92.002 13.501s-52.5 21.833 -73.5 38.5s-38 36.834 -51 60.501s-20.833 50.167 -23.5 79.5h134c6.66699 -26 19.5 -45.833 38.5 -59.5s41.5 -20.5 67.5 -20.5c36 0 64.333 9.66699 85 29s33.667 50.333 39 93h-184v96h183
c-5.33301 38 -18.666 66.167 -39.999 84.5s-49 27.5 -83 27.5c-32.667 0 -57.167 -7.16699 -73.5 -21.5s-27.166 -33.833 -32.499 -58.5h-134c2 26.667 8.66699 51.667 20 75s27 43.666 47 60.999s44.5 31 73.5 41s62.167 15 99.5 15s72 -5.66699 104 -17s59.5 -28 82.5 -50
s41 -49.333 54 -82s19.5 -70.334 19.5 -113.001v-20c0 -45.333 -6.16699 -85 -18.5 -119s-29.833 -62.333 -52.5 -85s-50 -39.667 -82 -51s-67.667 -17 -107 -17z" />
    <glyph glyph-name="uni044E" unicode="&#x44e;" horiz-adv-x="775" 
d="M60 530h132.001v-205h42c4.66699 36 14.167 67.5 28.5 94.5s32.5 49.5 54.5 67.5s47.167 31.667 75.5 41s59.166 14 92.499 14c36 0 69.5 -5.5 100.5 -16.5s58 -27.5 81 -49.5s41 -49.333 54 -82s19.5 -70.667 19.5 -114v-20c0 -45.333 -6.5 -85 -19.5 -119
s-31 -62.333 -54 -85s-50 -39.667 -81 -51s-64.5 -17 -100.5 -17c-33.333 0 -64.333 4.66699 -93 14s-54 23.333 -76 42s-40.167 42.167 -54.5 70.5s-23.5 61.833 -27.5 100.5h-42v-215h-132v530zM485.001 100c16 0 31.333 3.16699 46 9.5s27.5 16 38.5 29
s19.833 29.5 26.5 49.5s10 44 10 72v20c0 25.333 -3.33301 47.5 -10 66.5s-15.5 34.667 -26.5 47s-23.833 21.5 -38.5 27.5s-30 9 -46 9s-31.333 -3 -46 -9s-27.5 -15.167 -38.5 -27.5s-19.833 -28 -26.5 -47s-10 -41.167 -10 -66.5v-20c0 -28 3.33301 -52.167 10 -72.5
s15.5 -37 26.5 -50s23.833 -22.5 38.5 -28.5s30 -9 46 -9z" />
    <glyph glyph-name="uni044F" unicode="&#x44f;" horiz-adv-x="580" 
d="M167 199c-40.667 13.333 -70.333 33.3311 -89 59.998s-28 58 -28 94c0 26 4.5 49.833 13.5 71.5s22.5 40.334 40.5 56.001s40.833 27.834 68.5 36.501s60.167 13 97.5 13h250v-530h-132v183h-95l-115 -183h-148zM182.001 352.998c0 -22.667 7.5 -39.333 22.5 -50
s35.167 -16 60.5 -16h123v133h-123c-25.333 0 -45.5 -5.5 -60.5 -16.5s-22.5 -27.833 -22.5 -50.5z" />
    <glyph glyph-name="uni0451" unicode="&#x451;" horiz-adv-x="580" 
d="M300 -12c-36 0 -70.1641 5.5 -102.497 16.5s-60.5 27.667 -84.5 50s-43 50.666 -57 84.999s-21 74.5 -21 120.5v20c0 44 6.66699 82.333 20 115s31.666 59.834 54.999 81.501s50.333 38 81 49s63.667 16.5 99 16.5c83.333 0 146.666 -22 189.999 -66s65 -107.667 65 -191
v-56h-375c0.666992 -23.333 4.66699 -43.5 12 -60.5s17 -30.833 29 -41.5s25.833 -18.5 41.5 -23.5s31.5 -7.5 47.5 -7.5c34 0 59.667 5 77 15s29.666 24.667 36.999 44h121c-10.667 -55.333 -37 -97 -79 -125s-94 -42 -156 -42zM295.003 434
c-15.333 0 -30.5 -1.99902 -45.5 -5.99902s-28.167 -10.333 -39.5 -19s-20.666 -20.334 -27.999 -35.001s-11.333 -32.334 -12 -53.001h247c-0.666992 22 -4.16699 40.333 -10.5 55s-15 26.334 -26 35.001s-23.833 14.667 -38.5 18s-30.334 5 -47.001 5zM184.003 586.001
c-21.333 0 -39 7 -53 21s-21 31.667 -21 53s7 39 21 53s31.667 21 53 21s39 -7 53 -21s21 -31.667 21 -53s-7 -39 -21 -53s-31.667 -21 -53 -21zM396.003 586.001c-21.333 0 -39 7 -53 21s-21 31.667 -21 53s7 39 21 53s31.667 21 53 21s39 -7 53 -21s21 -31.667 21 -53
s-7 -39 -21 -53s-31.667 -21 -53 -21z" />
    <glyph glyph-name="uni0452" unicode="&#x452;" 
d="M110 434h-90v96h90v170h132v-170h218v-96h-218v-137c6 10 13.667 20 23 30s20.666 19.167 33.999 27.5s28.5 15 45.5 20s36.5 7.5 58.5 7.5c62 0 108.667 -17.333 140 -52s47 -84.667 47 -150v-180c0 -42 -2.83301 -76.667 -8.5 -104s-15.5 -49 -29.5 -65
s-32.5 -27.167 -55.5 -33.5s-51.833 -9.5 -86.5 -9.5c-7.33301 0 -15.666 0.166992 -24.999 0.5s-17.666 1.16602 -24.999 2.49902v112c5.33301 -1.33301 11.166 -2.16602 17.499 -2.49902s12.166 -0.5 17.499 -0.5c12 0 22 1.66699 30 5s14.5 9 19.5 17
s8.5 19.167 10.5 33.5s3 32.5 3 54.5v139c0 40 -8 70.167 -24 90.5s-42.333 30.5 -79 30.5c-20 0 -37 -3.33301 -51 -10s-25.667 -15.5 -35 -26.5s-16.166 -23.833 -20.499 -38.5s-6.5 -30 -6.5 -46v-149h-132v434z" />
    <glyph glyph-name="uni0453" unicode="&#x453;" horiz-adv-x="470" 
d="M70 530h380v-110h-248v-420h-132v530zM315 740h150l-150 -160h-110z" />
    <glyph glyph-name="uni0454" unicode="&#x454;" horiz-adv-x="565" 
d="M295 -12c-36.667 0 -70.834 5.66602 -102.501 16.999s-59.167 28.333 -82.5 51s-41.666 51 -54.999 85s-20 73.667 -20 119v20c0 42.667 7 80.334 21 113.001s32.833 60 56.5 82s51.167 38.667 82.5 50s64.666 17 99.999 17c37.333 0 70.5 -5 99.5 -15
s53.5 -23.667 73.5 -41s35.667 -37.666 47 -60.999s18 -48.333 20 -75h-134c-5.33301 24.667 -16.166 44.167 -32.499 58.5s-40.833 21.5 -73.5 21.5c-30 0 -56.5 -9.16699 -79.5 -27.5s-37.5 -46.5 -43.5 -84.5h183v-96h-184c6 -42.667 20.167 -73.667 42.5 -93
s49.5 -29 81.5 -29c26 0 48.5 6.83301 67.5 20.5s31.833 33.5 38.5 59.5h134c-3.33301 -29.333 -11.5 -55.833 -24.5 -79.5s-30 -43.834 -51 -60.501s-45.5 -29.5 -73.5 -38.5s-58.333 -13.5 -91 -13.5z" />
    <glyph glyph-name="uni0455" unicode="&#x455;" horiz-adv-x="550" 
d="M275 -12c-43.333 0 -79.835 4.6709 -109.502 14.0039s-53.667 21.666 -72 36.999s-32.166 33 -41.499 53s-15 41 -17 63h132c3.33301 -17.333 13.666 -31.5 30.999 -42.5s43 -16.5 77 -16.5c38.667 0 66.334 5.33301 83.001 16s25 24.334 25 41.001
c0 8.66699 -2 16.167 -6 22.5s-10.833 12.166 -20.5 17.499s-22.834 10 -39.501 14s-37.667 8 -63 12c-28.667 4 -55.334 9.66699 -80.001 17s-46.167 17.333 -64.5 30s-32.833 28.5 -43.5 47.5s-16 42.167 -16 69.5c0 22 5 42.667 15 62s24.667 36.166 44 50.499
s43 25.666 71 33.999s59.667 12.5 95 12.5c38 0 70.5 -4.66699 97.5 -14s49.167 -21.833 66.5 -37.5s30.333 -33.5 39 -53.5s14.334 -40.667 17.001 -62h-132c-5.33301 19.333 -15.666 34 -30.999 44s-34.333 15 -57 15c-33.333 0 -57.166 -5.16699 -71.499 -15.5
s-21.5 -23.166 -21.5 -38.499c0 -8 1.66699 -15 5 -21s9.5 -11.333 18.5 -16s21.333 -8.83398 37 -12.501s35.5 -7.16699 59.5 -10.5c30 -4 57.833 -9.83301 83.5 -17.5s48.167 -17.834 67.5 -30.501s34.5 -28.667 45.5 -48s16.5 -42.333 16.5 -69
c0 -24 -5 -46.167 -15 -66.5s-25 -38 -45 -53s-45 -26.667 -75 -35s-65 -12.5 -105 -12.5z" />
    <glyph glyph-name="uni0456" unicode="&#x456;" horiz-adv-x="272" 
d="M70 530h132v-530h-132v530zM136 580c-23.333 0 -42.5 7.5 -57.5 22.5s-22.5 34.167 -22.5 57.5s7.5 42.5 22.5 57.5s34.167 22.5 57.5 22.5s42.5 -7.5 57.5 -22.5s22.5 -34.167 22.5 -57.5s-7.5 -42.5 -22.5 -57.5s-34.167 -22.5 -57.5 -22.5z" />
    <glyph glyph-name="uni0457" unicode="&#x457;" horiz-adv-x="272" 
d="M70 530h132v-530h-132v530zM31 586c-21.333 0 -39 7 -53 21s-21 31.667 -21 53s7 39 21 53s31.667 21 53 21s39 -7 53 -21s21 -31.667 21 -53s-7 -39 -21 -53s-31.667 -21 -53 -21zM243 586c-21.333 0 -39 7 -53 21s-21 31.667 -21 53s7 39 21 53s31.667 21 53 21
s39 -7 53 -21s21 -31.667 21 -53s-7 -39 -21 -53s-31.667 -21 -53 -21z" />
    <glyph glyph-name="uni0458" unicode="&#x458;" horiz-adv-x="272" 
d="M22 -212c-7.33301 0 -15.666 0.166992 -24.999 0.5s-17.666 1.16602 -24.999 2.49902v112c5.33301 -1.33301 11.166 -2.16602 17.499 -2.49902s12.166 -0.5 17.499 -0.5c12 0 22 1.66699 30 5s14.5 9 19.5 17s8.5 19.167 10.5 33.5s3 32.5 3 54.5v520h132v-530
c0 -42 -2.83301 -76.667 -8.5 -104s-15.5 -49 -29.5 -65s-32.5 -27.167 -55.5 -33.5s-51.833 -9.5 -86.5 -9.5zM136 580c-23.333 0 -42.5 7.5 -57.5 22.5s-22.5 34.167 -22.5 57.5s7.5 42.5 22.5 57.5s34.167 22.5 57.5 22.5s42.5 -7.5 57.5 -22.5s22.5 -34.167 22.5 -57.5
s-7.5 -42.5 -22.5 -57.5s-34.167 -22.5 -57.5 -22.5z" />
    <glyph glyph-name="uni0459" unicode="&#x459;" horiz-adv-x="860" 
d="M65 -12c-5.33301 0 -11.9971 0.166016 -19.9971 0.499023s-14.667 1.16602 -20 2.49902v119c3.33301 -0.666992 8.33301 -1 15 -1c12.667 0 23.667 3.83301 33 11.5s17.166 20.834 23.499 39.501s11 43.5 14 74.5s4.5 69.5 4.5 115.5v180h410v-178h105
c136.667 0 205 -58.667 205 -176c0 -26 -3.83301 -49.833 -11.5 -71.5s-19.834 -40.167 -36.501 -55.5s-38 -27.333 -64 -36s-57 -13 -93 -13h-237v420h-156v-90c0 -68.667 -3.5 -125.167 -10.5 -169.5s-17.667 -79.166 -32 -104.499s-32.333 -43 -54 -53
s-46.834 -15 -75.501 -15zM615.003 105.999c32 0 54.667 5.83301 68 17.5s20 29.167 20 52.5s-6.83301 40.833 -20.5 52.5s-36.167 17.5 -67.5 17.5h-90v-140h90z" />
    <glyph glyph-name="uni045A" unicode="&#x45a;" horiz-adv-x="885" 
d="M60 530l132.001 0.00195312v-190h216v190h132v-192h125c63.333 0 111.666 -14.333 144.999 -43s50 -70.334 50 -125.001c0 -24.667 -3.83301 -47.334 -11.5 -68.001s-19.5 -38.5 -35.5 -53.5s-36.167 -26.833 -60.5 -35.5s-53.5 -13 -87.5 -13h-257v230h-216v-230h-132
v530zM650.001 106.002c26.667 0 46.333 5.66699 59 17s19 27 19 47c0 19.333 -6.5 34.5 -19.5 45.5s-32.5 16.5 -58.5 16.5h-110v-126h110z" />
    <glyph glyph-name="uni045B" unicode="&#x45b;" 
d="M110 434h-90v96h90v170h132v-170h218v-96h-218v-137c6 10 13.667 20 23 30s20.666 19.167 33.999 27.5s28.5 15 45.5 20s36.5 7.5 58.5 7.5c62 0 108.667 -17.333 140 -52s47 -84.667 47 -150v-180h-132v149c0 40 -8 70.167 -24 90.5s-42.333 30.5 -79 30.5
c-20 0 -37 -3.33301 -51 -10s-25.667 -15.5 -35 -26.5s-16.166 -23.833 -20.499 -38.5s-6.5 -30 -6.5 -46v-149h-132v434z" />
    <glyph glyph-name="uni045C" unicode="&#x45c;" horiz-adv-x="575" 
d="M60 530h132v-208h50l162 208h146l-200 -251l210 -279h-158l-160 218h-50v-218h-132v530zM353 740h150l-150 -160h-110z" />
    <glyph glyph-name="uni045E" unicode="&#x45e;" horiz-adv-x="580" 
d="M150 -212c-10 0 -20 1 -30 3v112c10 -2 20 -3 30 -3c20 0 35.5 7.5 46.5 22.5s23.5 40.833 37.5 77.5l-224 530h148l144 -366l132 366h136l-204 -530c-14.667 -37.333 -28.5 -69.5 -41.5 -96.5s-27.5 -49 -43.5 -66s-34.333 -29.5 -55 -37.5s-46 -12 -76 -12zM296 585
c-59.333 0 -102.5 12.667 -129.5 38s-40.5 62.666 -40.5 111.999h117c0 -26 4.5 -44.167 13.5 -54.5s22.167 -15.5 39.5 -15.5c18.667 0 32.5 5.16699 41.5 15.5s13.5 28.5 13.5 54.5h115c0 -49.333 -13.5 -86.666 -40.5 -111.999s-70.167 -38 -129.5 -38z" />
    <glyph glyph-name="uni045F" unicode="&#x45f;" horiz-adv-x="590" 
d="M237 0h-177v530h132v-420h206v420h132v-530h-177v-125h-116v125z" />
    <glyph glyph-name="uni0490" unicode="&#x490;" horiz-adv-x="560" 
d="M80 700h326v130h134v-254h-310v-576h-150v700z" />
    <glyph glyph-name="uni0491" unicode="&#x491;" horiz-adv-x="470" 
d="M70 530h264v125h116v-235h-248v-420h-132v530z" />
    <glyph glyph-name="uni0492" unicode="&#x492;" horiz-adv-x="580" 
d="M100 700h460v-124h-310v-159h173v-126h-173v-291h-150v291h-80v126h80v283z" />
    <glyph glyph-name="uni0493" unicode="&#x493;" horiz-adv-x="495" 
d="M25 305h70v225h380v-110h-248v-115h156v-110h-156v-195h-132v195h-70v110z" />
    <glyph glyph-name="uni0494" unicode="&#x494;" horiz-adv-x="657" 
d="M80 700l452.998 -0.00195312v-126h-302v-157c15.333 8.66699 35.833 17.334 61.5 26.001s56.5 13 92.5 13c68 0 121 -17.667 159 -53s57 -91.666 57 -168.999v-238c0 -27.333 -3.66699 -53.833 -11 -79.5s-19.5 -48.5 -36.5 -68.5s-39.667 -36 -68 -48
s-63.5 -18 -105.5 -18h-54v116h39c32 0 54.333 8.5 67 25.5s19 41.5 19 73.5v213c0 42.667 -9.33301 73 -28 91s-46 27 -82 27c-25.333 0 -47.166 -3.33301 -65.499 -10s-33.166 -14 -44.499 -22v-296h-151v700z" />
    <glyph glyph-name="uni0495" unicode="&#x495;" horiz-adv-x="563" 
d="M70 530h380.001v-110h-248v-107c14.667 8 31.5 15.167 50.5 21.5s43.167 9.5 72.5 9.5c66 0 115 -15.167 147 -45.5s48 -78.833 48 -145.5v-153c0 -42 -3 -76.667 -9 -104s-16 -49 -30 -65s-32.5 -27.167 -55.5 -33.5s-51.5 -9.5 -85.5 -9.5
c-7.33301 0 -15.666 0.166992 -24.999 0.5s-17.666 1.16602 -24.999 2.49902v112c5.33301 -1.33301 11.166 -2.16602 17.499 -2.49902s12.166 -0.5 17.499 -0.5c10.667 0 20 1.5 28 4.5s14.667 8.5 20 16.5s9.16602 19.167 11.499 33.5s3.5 32.833 3.5 55.5v128
c0 34.667 -7.33301 59 -22 73s-40 21 -76 21c-20 0 -37.5 -2 -52.5 -6s-26.833 -8.33301 -35.5 -13v-213h-132v530z" />
    <glyph glyph-name="uni0496" unicode="&#x496;" horiz-adv-x="1019" 
d="M859 -130v130h-46l-187 305h-50v-305h-151v305h-50l-192 -305h-163l236 361l-226 339h161l183 -285h51v285h151v-285h50l189 285h155l-226 -329l156 -245h93v-256h-134z" />
    <glyph glyph-name="uni0497" unicode="&#x497;" horiz-adv-x="837" 
d="M700 -125v125h-50l-137 219h-40v-219h-132v219h-41l-142 -219h-143l183 273l-172 257h140l134 -209h41v209h132v-209h40l139 209h136l-173 -249l111 -171h89v-235h-115z" />
    <glyph glyph-name="uni0498" unicode="&#x498;" horiz-adv-x="659" 
d="M268 -130v121.001c-65.333 6.66699 -117 26.334 -155 59.001c-48.667 42 -74.667 98.667 -78 170h156c3.33301 -34 15.666 -60.167 36.999 -78.5s53.666 -27.5 96.999 -27.5c46.667 0 80.667 8.66699 102 26s32 41 32 71s-10.167 53.833 -30.5 71.5
s-56.5 26.5 -108.5 26.5h-74v102h74c20.667 0 38.334 2.5 53.001 7.5s26.5 11.667 35.5 20s15.5 18.166 19.5 29.499s6 23.333 6 36c0 24.667 -8.66699 44.5 -26 59.5s-45 22.5 -83 22.5c-38.667 0 -67.5 -7.16699 -86.5 -21.5s-29.833 -37.5 -32.5 -69.5h-156
c3.33301 70.667 27.333 124.5 72 161.5s112.334 55.5 203.001 55.5c90 0 156.667 -17.5 200 -52.5s65 -83.5 65 -145.5c0 -36.667 -9 -67.834 -27 -93.501s-44.333 -44.167 -79 -55.5c42.667 -10 75.167 -29.167 97.5 -57.5s33.5 -65.166 33.5 -110.499
c0 -30.667 -6 -58.834 -18 -84.501s-30 -47.667 -54 -66s-54.333 -32.833 -91 -43.5c-15.333 -4 -32 -7.33301 -50 -10v-123h-134z" />
    <glyph glyph-name="uni0499" unicode="&#x499;" horiz-adv-x="545" 
d="M220 -125l0.00195312 116.001c-52.667 5.33301 -94.334 20 -125.001 44c-40 31.333 -61.667 76.333 -65 135h134c1.33301 -11.333 4 -21.333 8 -30s10 -16 18 -22s18.5 -10.5 31.5 -13.5s29.167 -4.5 48.5 -4.5c38.667 0 66 5.83301 82 17.5s24 25.834 24 42.501
c0 20 -6.66699 35 -20 45s-37 15 -71 15h-80v98h73c25.333 0 44.666 5.33301 57.999 16s20 24.667 20 42c0 15.333 -6.5 28.166 -19.5 38.499s-35.167 15.5 -66.5 15.5c-32.667 0 -56.167 -5.5 -70.5 -16.5s-22.833 -27.167 -25.5 -48.5h-134
c3.33301 57.333 24.333 101.166 63 131.499s94.334 45.5 167.001 45.5c38.667 0 71.834 -3.66699 99.501 -11s50.5 -17.833 68.5 -31.5s31.167 -30 39.5 -49s12.5 -40.167 12.5 -63.5c0 -25.333 -6.5 -48 -19.5 -68s-33.5 -34.667 -61.5 -44
c38 -9.33301 64.333 -24.5 79 -45.5s22 -45.833 22 -74.5c0 -24 -4.83301 -46.167 -14.5 -66.5s-24.334 -38 -44.001 -53s-44.5 -26.833 -74.5 -35.5c-12.667 -3.33301 -26.334 -6 -41.001 -8v-117h-116z" />
    <glyph glyph-name="uni049A" unicode="&#x49a;" horiz-adv-x="743" 
d="M582 -130v130h-68l-224 305h-60v-305h-150v700h150v-285h60l224 285h166l-275 -331l187 -243h124v-256h-134z" />
    <glyph glyph-name="uni049B" unicode="&#x49b;" horiz-adv-x="590" 
d="M454 -125v125h-52l-160 218h-50v-218h-132v530h132v-208h50l162 208h146l-200 -251l127 -169h92v-235h-115z" />
    <glyph glyph-name="uni049C" unicode="&#x49c;" horiz-adv-x="775" 
d="M80 700h151v-286h47v120h119v-120h22l143 286h155l-177 -326l215 -374h-177l-159 303h-22v-113h-119v113h-47v-303h-151v700z" />
    <glyph glyph-name="uni049D" unicode="&#x49d;" horiz-adv-x="660" 
d="M60 530h132v-208h44v90h111v-90h20l108 208h147l-146 -252l169 -278h-156l-121 218h-21v-93h-111v93h-44v-218h-132v530z" />
    <glyph glyph-name="uni04A0" unicode="&#x4a0;" horiz-adv-x="815" 
d="M20 700h302v-285h60l224 285h166l-275 -331l285 -369h-176l-224 305h-60v-305h-150v586h-152v114z" />
    <glyph glyph-name="uni04A1" unicode="&#x4a1;" horiz-adv-x="658" 
d="M20 530h252v-208h50l165 208h146l-206 -251l216 -279h-158l-163 218h-50v-218h-132v419h-120v111z" />
    <glyph glyph-name="uni04A2" unicode="&#x4a2;" horiz-adv-x="782" 
d="M622 -130v130h-93v297h-298v-297h-151v700h151v-277h298v277h151v-574h76v-256h-134z" />
    <glyph glyph-name="uni04A3" unicode="&#x4a3;" horiz-adv-x="637" 
d="M500 -125v125h-82v215h-226v-215h-132v530h132v-205h226v205h132v-420h65v-235h-115z" />
    <glyph glyph-name="uni04A4" unicode="&#x4a4;" horiz-adv-x="1009" 
d="M80 0v700h151v-277h298v277h460v-126h-309v-574h-151v297h-298v-297h-151z" />
    <glyph glyph-name="uni04A5" unicode="&#x4a5;" horiz-adv-x="818" 
d="M418 215h-226v-215h-132v530h132v-205h226v205h380v-110h-248v-420h-132v215z" />
    <glyph glyph-name="uni04AA" unicode="&#x4aa;" horiz-adv-x="700" 
d="M301 -130l0.00292969 123.004c-22 3.33301 -43 8.33301 -63 15c-38 13.333 -71 34.166 -99 62.499s-49.833 65.166 -65.5 110.499s-23.5 100 -23.5 164v20c0 61.333 8.16699 113.833 24.5 157.5s38.666 79.5 66.999 107.5s61.666 48.667 99.999 62s79.5 20 123.5 20
c39.333 0 76.333 -4.66699 111 -14s65.167 -23.833 91.5 -43.5s47.666 -44.834 63.999 -75.501s25.833 -67 28.5 -109h-156c-7.33301 40 -23.333 69.333 -48 88s-55 28 -91 28c-20.667 0 -40.5 -3.66699 -59.5 -11s-35.833 -19.666 -50.5 -36.999s-26.5 -40 -35.5 -68
s-13.5 -63 -13.5 -105v-20c0 -44 4.66699 -80.833 14 -110.5s21.5 -53.334 36.5 -71.001s32 -30.334 51 -38.001s38.167 -11.5 57.5 -11.5c38 0 69.333 9.83301 94 29.5s39.667 48.5 45 86.5h156c-3.33301 -44 -13 -81.333 -29 -112s-37 -55.667 -63 -75
s-56.333 -33.333 -91 -42c-13.333 -3.33301 -27.333 -6 -42 -8v-123h-134z" />
    <glyph glyph-name="uni04AB" unicode="&#x4ab;" horiz-adv-x="565" 
d="M237 -125v118.998c-15.333 2.66699 -30.333 6.33398 -45 11.001c-31.333 11.333 -58.666 28.333 -81.999 51s-41.666 51 -54.999 85s-20 73.667 -20 119v20c0 42.667 7 80.334 21 113.001s32.833 60 56.5 82s51.167 38.667 82.5 50s64.666 17 99.999 17
c37.333 0 70.5 -5 99.5 -15s53.5 -23.667 73.5 -41s35.667 -37.666 47 -60.999s18 -48.333 20 -75h-134c-5.33301 24.667 -16.166 44.167 -32.499 58.5s-40.833 21.5 -73.5 21.5c-17.333 0 -33.5 -3 -48.5 -9s-28.333 -15.167 -40 -27.5s-20.834 -27.833 -27.501 -46.5
s-10 -41 -10 -67v-20c0 -28 3.16699 -52.167 9.5 -72.5s15.166 -37 26.499 -50s24.666 -22.5 39.999 -28.5s32 -9 50 -9c26 0 48.5 6.83301 67.5 20.5s31.833 33.5 38.5 59.5h134c-3.33301 -29.333 -11.5 -55.833 -24.5 -79.5s-30 -43.834 -51 -60.501
s-45.5 -29.667 -73.5 -39c-11.333 -3.33301 -22.666 -6 -33.999 -8v-118h-115z" />
    <glyph glyph-name="uni04AE" unicode="&#x4ae;" horiz-adv-x="680" 
d="M274 0v267l-264 433h175l167 -282l158 282h160l-244 -433v-267h-152z" />
    <glyph glyph-name="uni04AF" unicode="&#x4af;" horiz-adv-x="587" 
d="M239 -227v220l-226 537h146l147 -382l133 382h134l-202 -528v-229h-132z" />
    <glyph glyph-name="uni04B0" unicode="&#x4b0;" horiz-adv-x="666" 
d="M269 172h-128v126h125l-252 402h174l159 -268l150 268h159l-233 -402h123v-126h-125v-172h-152v172z" />
    <glyph glyph-name="uni04B1" unicode="&#x4b1;" horiz-adv-x="579" 
d="M93 110h104l-184 420h147l142 -355l129 355h134l-168 -420h110v-110h-140v-227h-132v227h-142v110z" />
    <glyph glyph-name="uni04B2" unicode="&#x4b2;" horiz-adv-x="721" 
d="M561 -130v130h-57l-162 262l-163 -262h-166l235 365l-225 335h168l154 -229l155 229h163l-223 -332l153 -242h102v-256h-134z" />
    <glyph glyph-name="uni04B3" unicode="&#x4b3;" horiz-adv-x="592" 
d="M456 -125v125h-49l-124 198l-123 -198h-145l180 276l-170 254h147l116 -170l114 170h143l-168 -249l108 -171h85v-235h-114z" />
    <glyph glyph-name="uni04B6" unicode="&#x4b6;" horiz-adv-x="712" 
d="M449 0v288.999c-17.333 -11.333 -40.833 -21.666 -70.5 -30.999s-64.167 -14 -103.5 -14c-76 0 -132.5 18.333 -169.5 55s-55.5 95.334 -55.5 176.001v225h151v-205c0 -44 9.5 -75.5 28.5 -94.5s47.5 -28.5 85.5 -28.5c32.667 0 59.667 3.66699 81 11
s39 15.666 53 24.999v292h151v-574h85v-256h-134v130h-102z" />
    <glyph glyph-name="uni04B7" unicode="&#x4b7;" horiz-adv-x="598" 
d="M462 0h-92v194c-15.333 -8.66699 -33.333 -16.667 -54 -24s-47 -11 -79 -11c-66.667 0 -115.834 15.167 -147.501 45.5s-47.5 78.833 -47.5 145.5v180h132v-165c0 -35.333 7.33301 -59.833 22 -73.5s40 -20.5 76 -20.5c25.333 0 46.333 2.83301 63 8.5
s28.334 11.5 35.001 17.5v233h132v-420h75v-235h-115v125z" />
    <glyph glyph-name="uni04B8" unicode="&#x4b8;" horiz-adv-x="707" 
d="M476 0l0.000976562 312.999c-20 -14 -45.667 -25 -77 -33v-111h-119v97c-82.667 1.33301 -142.834 21.166 -180.501 59.499s-56.5 97.833 -56.5 178.5v196h152v-176c0 -39.333 6.66699 -69.666 20 -90.999s35 -35 65 -41v121h119v-117c16 4 30.333 9.33301 43 16
s24 14.334 34 23.001v265h151v-700h-151z" />
    <glyph glyph-name="uni04B9" unicode="&#x4b9;" horiz-adv-x="608" 
d="M410 223c-17.333 -10 -37.666 -17.667 -60.999 -23v-102h-111v90c-66.667 2 -116 18.167 -148 48.5s-48 77.833 -48 142.5v151h132v-136c0 -27.333 4.83301 -47.833 14.5 -61.5s26.167 -23.167 49.5 -28.5v95h111v-93c15.333 2 28.166 4.83301 38.499 8.5
s17.833 7.5 22.5 11.5v204h132v-530h-132v223z" />
    <glyph glyph-name="uni04BA" unicode="&#x4ba;" horiz-adv-x="665" 
d="M231 700l-0.000976562 -271c17.333 11.333 41 21.5 71 30.5s65.667 13.5 107 13.5c74 0 129.333 -18.167 166 -54.5s55 -94.833 55 -175.5v-243h-151v223c0 44 -9.66699 75.333 -29 94s-49.666 28 -90.999 28c-30 0 -55.333 -3.66699 -76 -11s-38 -15.333 -52 -24v-310
h-151v700h151z" />
    <glyph glyph-name="uni04BB" unicode="&#x4bb;" horiz-adv-x="608" 
d="M60 0l0.000976562 700.002h132v-246c6 10 13.833 20.333 23.5 31s21.5 20.167 35.5 28.5s30.167 15.166 48.5 20.499s38.5 8 60.5 8c64.667 0 113 -17.333 145 -52s48 -84.334 48 -149.001v-341h-132v310c0 40 -8.33301 70 -25 90s-44.667 30 -84 30
c-21.333 0 -39.5 -3.16699 -54.5 -9.5s-27.333 -15 -37 -26s-16.834 -23.833 -21.501 -38.5s-7 -30 -7 -46v-310h-132z" />
    <glyph glyph-name="uni04C0" unicode="&#x4c0;" horiz-adv-x="330" 
d="M90 700h150v-700h-150v700z" />
    <glyph glyph-name="uni04C3" unicode="&#x4c3;" horiz-adv-x="694" 
d="M80 700h150.999v-286h82l174 286h166l-194 -293c48.667 -8.66699 88.334 -29.5 119.001 -62.5s46 -79.167 46 -138.5v-210c0 -27.333 -3.66699 -53.833 -11 -79.5s-19.5 -48.5 -36.5 -68.5s-39.667 -36 -68 -48s-63.5 -18 -105.5 -18h-53v116h39c32 0 54.333 8.5 67 25.5
s19 41.5 19 73.5v183c0 42 -10.167 73 -30.5 93s-48.5 30 -84.5 30h-129v-303h-151v700z" />
    <glyph glyph-name="uni04C4" unicode="&#x4c4;" horiz-adv-x="577" 
d="M292 -94c6 -1.33301 11.833 -2.16602 17.5 -2.49902s11.167 -0.5 16.5 -0.5c19.333 0 33.333 7.33301 42 22s13 43 13 85v109c0 36 -8 61.5 -24 76.5s-40.667 22.5 -74 22.5h-91v-218h-132v530h132v-208h77l128 208h145l-148 -219c79.333 -22 119 -81.333 119 -178v-141
c0 -37.333 -2.83301 -68.833 -8.5 -94.5s-15.167 -46.334 -28.5 -62.001s-30.833 -27 -52.5 -34s-48.167 -10.5 -79.5 -10.5c-8 0 -16.5 0.166992 -25.5 0.5s-17.833 1.5 -26.5 3.5v111z" />
    <glyph glyph-name="uni04C7" unicode="&#x4c7;" horiz-adv-x="760" 
d="M80 700h151.003v-277h298v277h151v-700c0 -30 -3.33301 -58.167 -10 -84.5s-18.334 -49.5 -35.001 -69.5s-38.834 -35.667 -66.501 -47s-62.834 -17 -105.501 -17h-43v117h32c29.333 0 49.5 8.33301 60.5 25s16.5 42 16.5 76v297h-298v-297h-151v700z" />
    <glyph glyph-name="uni04C8" unicode="&#x4c8;" horiz-adv-x="610" 
d="M60 530h131.999v-205h226v205h132v-538c0 -37.333 -2.83301 -68.833 -8.5 -94.5s-15.167 -46.334 -28.5 -62.001s-30.833 -27 -52.5 -34s-48.5 -10.5 -80.5 -10.5c-7.33301 0 -15.666 0.166992 -24.999 0.5s-18 1.5 -26 3.5v111
c5.33301 -1.33301 11 -2.16602 17 -2.49902s11.667 -0.5 17 -0.5c18.667 0 32.5 7.33301 41.5 22s13.5 43 13.5 85v205h-226v-215h-132v530z" />
    <glyph glyph-name="uni04CB" unicode="&#x4cb;" horiz-adv-x="680" 
d="M370 126l79 -0.000976562v163c-17.333 -11.333 -40.833 -21.666 -70.5 -30.999s-64.167 -14 -103.5 -14c-76 0 -132.5 18.333 -169.5 55s-55.5 95.334 -55.5 176.001v225h151v-205c0 -44 9.5 -75.5 28.5 -94.5s47.5 -28.5 85.5 -28.5c32.667 0 59.667 3.66699 81 11
s39 15.666 53 24.999v292h151v-700h-96v-130h-134v256z" />
    <glyph glyph-name="uni04CC" unicode="&#x4cc;" horiz-adv-x="568" 
d="M305 100l65 -0.000976562v108c-15.333 -9.33301 -33.333 -17.666 -54 -24.999s-47 -11 -79 -11c-66.667 0 -115.834 15.167 -147.501 45.5s-47.5 78.833 -47.5 145.5v167h132v-152c0 -34.667 7.33301 -59 22 -73s40 -21 76 -21c25.333 0 46.333 3 63 9
s28.334 11.667 35.001 17v220h132v-530h-82v-125h-115v225z" />
    <glyph glyph-name="uni04CF" unicode="&#x4cf;" horiz-adv-x="262" 
d="M65 0v700h132v-700h-132z" />
    <glyph glyph-name="uni04D0" unicode="&#x4d0;" horiz-adv-x="697" 
d="M468 143h-259l-53 -143h-146l260 700h150l260 -700h-158zM255 267h168l-84 243zM348 742c-65.333 0 -113.333 14.5 -144 43.5s-46 71.167 -46 126.5h126c0 -32 5.33301 -54 16 -66s26.667 -18 48 -18s37.333 6 48 18s16 34 16 66h126c0 -55.333 -15.333 -97.5 -46 -126.5
s-78.667 -43.5 -144 -43.5z" />
    <glyph glyph-name="uni04D1" unicode="&#x4d1;" horiz-adv-x="575" 
d="M219 -12c-28.667 0 -53.999 4.16504 -75.999 12.498s-40.667 20 -56 35s-27 32.667 -35 53s-12 42.5 -12 66.5c0 106.667 63.333 160 190 160h158v25c0 34.667 -7.83301 59 -23.5 73s-40.5 21 -74.5 21c-30 0 -51.667 -5.16699 -65 -15.5s-21 -23.166 -23 -38.499h-132
c1.33301 22.667 7.16602 44 17.499 64s25 37.167 44 51.5s42.167 25.666 69.5 33.999s58.666 12.5 93.999 12.5c34 0 64.833 -3.66699 92.5 -11s51.334 -19.166 71.001 -35.499s34.834 -37.5 45.501 -63.5s16 -57.333 16 -94v-203c0 -28 0.5 -52.5 1.5 -73.5
s2.83301 -41.5 5.5 -61.5h-123c-2.66699 14.667 -4.16699 25.834 -4.5 33.501s-0.5 19.167 -0.5 34.5c-14.667 -21.333 -36.834 -40 -66.501 -56s-67.5 -24 -113.5 -24zM260.001 89.998c16 0 31.666 2.16699 46.999 6.5s29 11 41 20s21.667 20.5 29 34.5s11 30.333 11 49v25
h-133c-25.333 0 -45.166 -5.83301 -59.499 -17.5s-21.5 -27.5 -21.5 -47.5c0 -21.333 7.33301 -38.333 22 -51s36 -19 64 -19zM294 584.998c-59.333 0 -102.5 12.667 -129.5 38s-40.5 62.666 -40.5 111.999h117c0 -26 4.5 -44.167 13.5 -54.5s22.167 -15.5 39.5 -15.5
c18.667 0 32.5 5.16699 41.5 15.5s13.5 28.5 13.5 54.5h115c0 -49.333 -13.5 -86.666 -40.5 -111.999s-70.167 -38 -129.5 -38z" />
    <glyph glyph-name="uni04D2" unicode="&#x4d2;" horiz-adv-x="697" 
d="M468 143h-259l-53 -143h-146l260 700h150l260 -700h-158zM255 267h168l-84 243zM228 745c-23.333 0 -42.5 7.5 -57.5 22.5s-22.5 34.167 -22.5 57.5s7.5 42.5 22.5 57.5s34.167 22.5 57.5 22.5s42.5 -7.5 57.5 -22.5s22.5 -34.167 22.5 -57.5s-7.5 -42.5 -22.5 -57.5
s-34.167 -22.5 -57.5 -22.5zM468 745c-23.333 0 -42.5 7.5 -57.5 22.5s-22.5 34.167 -22.5 57.5s7.5 42.5 22.5 57.5s34.167 22.5 57.5 22.5s42.5 -7.5 57.5 -22.5s22.5 -34.167 22.5 -57.5s-7.5 -42.5 -22.5 -57.5s-34.167 -22.5 -57.5 -22.5z" />
    <glyph glyph-name="uni04D3" unicode="&#x4d3;" horiz-adv-x="575" 
d="M219 -12c-28.667 0 -53.999 4.16504 -75.999 12.498s-40.667 20 -56 35s-27 32.667 -35 53s-12 42.5 -12 66.5c0 106.667 63.333 160 190 160h158v25c0 34.667 -7.83301 59 -23.5 73s-40.5 21 -74.5 21c-30 0 -51.667 -5.16699 -65 -15.5s-21 -23.166 -23 -38.499h-132
c1.33301 22.667 7.16602 44 17.499 64s25 37.167 44 51.5s42.167 25.666 69.5 33.999s58.666 12.5 93.999 12.5c34 0 64.833 -3.66699 92.5 -11s51.334 -19.166 71.001 -35.499s34.834 -37.5 45.501 -63.5s16 -57.333 16 -94v-203c0 -28 0.5 -52.5 1.5 -73.5
s2.83301 -41.5 5.5 -61.5h-123c-2.66699 14.667 -4.16699 25.834 -4.5 33.501s-0.5 19.167 -0.5 34.5c-14.667 -21.333 -36.834 -40 -66.501 -56s-67.5 -24 -113.5 -24zM260.001 89.998c16 0 31.666 2.16699 46.999 6.5s29 11 41 20s21.667 20.5 29 34.5s11 30.333 11 49v25
h-133c-25.333 0 -45.166 -5.83301 -59.499 -17.5s-21.5 -27.5 -21.5 -47.5c0 -21.333 7.33301 -38.333 22 -51s36 -19 64 -19zM182 585.998c-21.333 0 -39 7 -53 21s-21 31.667 -21 53s7 39 21 53s31.667 21 53 21s39 -7 53 -21s21 -31.667 21 -53s-7 -39 -21 -53
s-31.667 -21 -53 -21zM394 585.998c-21.333 0 -39 7 -53 21s-21 31.667 -21 53s7 39 21 53s31.667 21 53 21s39 -7 53 -21s21 -31.667 21 -53s-7 -39 -21 -53s-31.667 -21 -53 -21z" />
    <glyph glyph-name="uni04D4" unicode="&#x4d4;" horiz-adv-x="1000" 
d="M420 700h530v-124h-339v-156h309v-120h-309v-176h339v-124h-490v143h-210l-84 -143h-156zM460 267v248l-138 -248h138z" />
    <glyph glyph-name="uni04D5" unicode="&#x4d5;" horiz-adv-x="935" 
d="M219 -12c-28.667 0 -54.1631 4.16699 -76.4961 12.5s-41 20 -56 35s-26.5 32.667 -34.5 53s-12 42.5 -12 66.5c0 106 63.333 159 190 159h158v27c0 34 -7.83301 58 -23.5 72s-40.5 21 -74.5 21c-30 0 -51.667 -5.16699 -65 -15.5s-21 -23.166 -23 -38.499h-132
c1.33301 22.667 7.16602 44 17.499 64s25 37.167 44 51.5s42.167 25.666 69.5 33.999s58.666 12.5 93.999 12.5c40 0 74 -6.16699 102 -18.5s51.667 -30.166 71 -53.499c18 21.333 41.5 38.666 70.5 51.999s64.5 20 106.5 20c83.333 0 146.666 -22 189.999 -66
s65 -107.667 65 -191v-62h-375c0.666992 -22 4.66699 -41 12 -57s17 -29.167 29 -39.5s25.833 -18 41.5 -23s31.5 -7.5 47.5 -7.5c34 0 59.667 5 77 15s29.666 24.667 36.999 44h121c-10.667 -55.333 -37 -97 -79 -125s-94 -42 -156 -42c-46 0 -86.833 8.16699 -122.5 24.5
s-63.167 41.5 -82.5 75.5c-19.333 -32.667 -48.5 -57.5 -87.5 -74.5s-86.833 -25.5 -143.5 -25.5zM260.004 90c16 0 31.666 2.16699 46.999 6.5s29 11 41 20s21.667 20.5 29 34.5s11 30.333 11 49v24h-133c-25.333 0 -45.166 -5.66699 -59.499 -17s-21.5 -27 -21.5 -47
c0 -21.333 7.33301 -38.333 22 -51s36 -19 64 -19zM650.003 434c-15.333 0 -30.5 -2 -45.5 -6s-28.167 -10.5 -39.5 -19.5s-20.666 -21 -27.999 -36s-11.333 -33.5 -12 -55.5h247c-0.666992 23.333 -4.16699 42.5 -10.5 57.5s-15 27 -26 36s-23.833 15.167 -38.5 18.5
s-30.334 5 -47.001 5z" />
    <glyph glyph-name="uni04D6" unicode="&#x4d6;" horiz-adv-x="620" 
d="M80 700h490v-124h-339v-156h309v-120h-309v-176h339v-124h-490v700zM325 740c-65.333 0 -113.333 14.5 -144 43.5s-46 71.167 -46 126.5h126c0 -32 5.33301 -54 16 -66s26.667 -18 48 -18s37.333 6 48 18s16 34 16 66h126c0 -55.333 -15.333 -97.5 -46 -126.5
s-78.667 -43.5 -144 -43.5z" />
    <glyph glyph-name="uni04D7" unicode="&#x4d7;" horiz-adv-x="587" 
d="M300 -12c-36 0 -70.1641 5.5 -102.497 16.5s-60.5 27.667 -84.5 50s-43 50.666 -57 84.999s-21 74.5 -21 120.5v20c0 44 6.66699 82.333 20 115s31.666 59.834 54.999 81.501s50.333 38 81 49s63.667 16.5 99 16.5c83.333 0 146.666 -22 189.999 -66s65 -107.667 65 -191
v-56h-375c0.666992 -23.333 4.66699 -43.5 12 -60.5s17 -30.833 29 -41.5s25.833 -18.5 41.5 -23.5s31.5 -7.5 47.5 -7.5c34 0 59.667 5 77 15s29.666 24.667 36.999 44h121c-10.667 -55.333 -37 -97 -79 -125s-94 -42 -156 -42zM295.003 434
c-15.333 0 -30.5 -1.99902 -45.5 -5.99902s-28.167 -10.333 -39.5 -19s-20.666 -20.334 -27.999 -35.001s-11.333 -32.334 -12 -53.001h247c-0.666992 22 -4.16699 40.333 -10.5 55s-15 26.334 -26 35.001s-23.833 14.667 -38.5 18s-30.334 5 -47.001 5zM293.003 585.001
c-59.333 0 -102.5 12.667 -129.5 38s-40.5 62.666 -40.5 111.999h117c0 -26 4.5 -44.167 13.5 -54.5s22.167 -15.5 39.5 -15.5c18.667 0 32.5 5.16699 41.5 15.5s13.5 28.5 13.5 54.5h115c0 -49.333 -13.5 -86.666 -40.5 -111.999s-70.167 -38 -129.5 -38z" />
    <glyph glyph-name="uni04D8" unicode="&#x4d8;" horiz-adv-x="725" 
d="M346 -12c-45.333 0 -86.3262 6.83691 -122.993 20.5039s-68.334 34.834 -95.001 63.501s-47.167 65.5 -61.5 110.5s-21.5 99.167 -21.5 162.5v57h472c-2.66699 33.333 -8.83398 61.666 -18.501 84.999s-21.834 42.166 -36.501 56.499s-31.334 24.666 -50.001 30.999
s-38.334 9.5 -59.001 9.5c-32 0 -60.167 -8.16699 -84.5 -24.5s-41.5 -42.833 -51.5 -79.5h-157c6 39.333 17.667 73.666 35 102.999s38.833 53.5 64.5 72.5s54.667 33.167 87 42.5s67.166 14 104.499 14c44.667 0 86.667 -6.83301 126 -20.5s73.666 -34.667 102.999 -63
s52.5 -64.333 69.5 -108s25.5 -95.5 25.5 -155.5v-20c0 -63.333 -8.5 -117.5 -25.5 -162.5s-40.333 -81.833 -70 -110.5s-64.5 -49.834 -104.5 -63.501s-83 -20.5 -129 -20.5zM348.007 116.004c46.667 0 84.999 14.332 114.999 42.999s47.667 77.334 53 146.001h-325
c2.66699 -36 8.33398 -66 17.001 -90s19.667 -43.333 33 -58s29 -25.167 47 -31.5s38 -9.5 60 -9.5z" />
    <glyph glyph-name="uni04D9" unicode="&#x4d9;" horiz-adv-x="587" 
d="M283 542c37.333 0 72.332 -5.5 104.999 -16.5s61.167 -27.667 85.5 -50s43.5 -50.666 57.5 -84.999s21 -74.5 21 -120.5v-20c0 -44 -6.83301 -82.333 -20.5 -115s-32.167 -59.834 -55.5 -81.501s-50.666 -38 -81.999 -49s-65 -16.5 -101 -16.5
c-84.667 0 -148.834 22 -192.501 66s-65.5 107.667 -65.5 191v55h382c-0.666992 24 -4.83398 44.5 -12.501 61.5s-17.667 30.667 -30 41s-26.5 18 -42.5 23s-32.333 7.5 -49 7.5c-33.333 0 -59 -5.16699 -77 -15.5s-30.667 -24.5 -38 -42.5h-123
c10.667 56 36.834 97.833 78.501 125.5s94.834 41.5 159.501 41.5zM162.999 209c0 -21.333 3.33301 -39.3311 10 -53.998s15.667 -26.334 27 -35.001s24.5 -14.834 39.5 -18.501s31.167 -5.5 48.5 -5.5c16 0 31.667 2.16699 47 6.5s28.833 11 40.5 20s21.167 20.667 28.5 35
s11.333 31.5 12 51.5h-253z" />
    <glyph glyph-name="uni04DA" unicode="&#x4da;" horiz-adv-x="725" 
d="M346 -12c-45.333 0 -86.3262 6.83691 -122.993 20.5039s-68.334 34.834 -95.001 63.501s-47.167 65.5 -61.5 110.5s-21.5 99.167 -21.5 162.5v57h472c-2.66699 33.333 -8.83398 61.666 -18.501 84.999s-21.834 42.166 -36.501 56.499s-31.334 24.666 -50.001 30.999
s-38.334 9.5 -59.001 9.5c-32 0 -60.167 -8.16699 -84.5 -24.5s-41.5 -42.833 -51.5 -79.5h-157c6 39.333 17.667 73.666 35 102.999s38.833 53.5 64.5 72.5s54.667 33.167 87 42.5s67.166 14 104.499 14c44.667 0 86.667 -6.83301 126 -20.5s73.666 -34.667 102.999 -63
s52.5 -64.333 69.5 -108s25.5 -95.5 25.5 -155.5v-20c0 -63.333 -8.5 -117.5 -25.5 -162.5s-40.333 -81.833 -70 -110.5s-64.5 -49.834 -104.5 -63.501s-83 -20.5 -129 -20.5zM348.007 116.004c46.667 0 84.999 14.332 114.999 42.999s47.667 77.334 53 146.001h-325
c2.66699 -36 8.33398 -66 17.001 -90s19.667 -43.333 33 -58s29 -25.167 47 -31.5s38 -9.5 60 -9.5zM242.006 745.003c-23.333 0 -42.5 7.5 -57.5 22.5s-22.5 34.167 -22.5 57.5s7.5 42.5 22.5 57.5s34.167 22.5 57.5 22.5s42.5 -7.5 57.5 -22.5s22.5 -34.167 22.5 -57.5
s-7.5 -42.5 -22.5 -57.5s-34.167 -22.5 -57.5 -22.5zM482.006 745.003c-23.333 0 -42.5 7.5 -57.5 22.5s-22.5 34.167 -22.5 57.5s7.5 42.5 22.5 57.5s34.167 22.5 57.5 22.5s42.5 -7.5 57.5 -22.5s22.5 -34.167 22.5 -57.5s-7.5 -42.5 -22.5 -57.5
s-34.167 -22.5 -57.5 -22.5z" />
    <glyph glyph-name="uni04DB" unicode="&#x4db;" horiz-adv-x="587" 
d="M283 542c37.333 0 72.332 -5.5 104.999 -16.5s61.167 -27.667 85.5 -50s43.5 -50.666 57.5 -84.999s21 -74.5 21 -120.5v-20c0 -44 -6.83301 -82.333 -20.5 -115s-32.167 -59.834 -55.5 -81.501s-50.666 -38 -81.999 -49s-65 -16.5 -101 -16.5
c-84.667 0 -148.834 22 -192.501 66s-65.5 107.667 -65.5 191v55h382c-0.666992 24 -4.83398 44.5 -12.501 61.5s-17.667 30.667 -30 41s-26.5 18 -42.5 23s-32.333 7.5 -49 7.5c-33.333 0 -59 -5.16699 -77 -15.5s-30.667 -24.5 -38 -42.5h-123
c10.667 56 36.834 97.833 78.501 125.5s94.834 41.5 159.501 41.5zM162.999 209c0 -21.333 3.33301 -39.3311 10 -53.998s15.667 -26.334 27 -35.001s24.5 -14.834 39.5 -18.501s31.167 -5.5 48.5 -5.5c16 0 31.667 2.16699 47 6.5s28.833 11 40.5 20s21.167 20.667 28.5 35
s11.333 31.5 12 51.5h-253zM176.999 586.002c-21.333 0 -39 7 -53 21s-21 31.667 -21 53s7 39 21 53s31.667 21 53 21s39 -7 53 -21s21 -31.667 21 -53s-7 -39 -21 -53s-31.667 -21 -53 -21zM388.999 586.002c-21.333 0 -39 7 -53 21s-21 31.667 -21 53s7 39 21 53
s31.667 21 53 21s39 -7 53 -21s21 -31.667 21 -53s-7 -39 -21 -53s-31.667 -21 -53 -21z" />
    <glyph glyph-name="uni04DC" unicode="&#x4dc;" horiz-adv-x="1000" 
d="M260 364l-230 336h160l185 -285h50v285h150v-285h50l191 285h154l-230 -329l240 -371h-166l-189 305h-50v-305h-150v305h-50l-191 -305h-164zM380 745c-23.333 0 -42.5 7.5 -57.5 22.5s-22.5 34.167 -22.5 57.5s7.5 42.5 22.5 57.5s34.167 22.5 57.5 22.5
s42.5 -7.5 57.5 -22.5s22.5 -34.167 22.5 -57.5s-7.5 -42.5 -22.5 -57.5s-34.167 -22.5 -57.5 -22.5zM620 745c-23.333 0 -42.5 7.5 -57.5 22.5s-22.5 34.167 -22.5 57.5s7.5 42.5 22.5 57.5s34.167 22.5 57.5 22.5s42.5 -7.5 57.5 -22.5s22.5 -34.167 22.5 -57.5
s-7.5 -42.5 -22.5 -57.5s-34.167 -22.5 -57.5 -22.5z" />
    <glyph glyph-name="uni04DD" unicode="&#x4dd;" horiz-adv-x="813" 
d="M203 276l-178 254h138l142 -208h39v208h132v-208h40l143 208h136l-177 -251l187 -279h-148l-141 218h-40v-218h-132v218h-40l-145 -218h-144zM300 586c-21.333 0 -39 7 -53 21s-21 31.667 -21 53s7 39 21 53s31.667 21 53 21s39 -7 53 -21s21 -31.667 21 -53
s-7 -39 -21 -53s-31.667 -21 -53 -21zM512 586c-21.333 0 -39 7 -53 21s-21 31.667 -21 53s7 39 21 53s31.667 21 53 21s39 -7 53 -21s21 -31.667 21 -53s-7 -39 -21 -53s-31.667 -21 -53 -21z" />
    <glyph glyph-name="uni04DE" unicode="&#x4de;" horiz-adv-x="659" 
d="M325 -12c-92.667 0 -163.333 20.834 -212 62.501s-74.667 98.167 -78 169.5h156c3.33301 -34 15.666 -60.167 36.999 -78.5s53.666 -27.5 96.999 -27.5c46.667 0 80.667 8.66699 102 26s32 41 32 71s-10.167 53.833 -30.5 71.5s-56.5 26.5 -108.5 26.5h-74v102h74
c20.667 0 38.334 2.5 53.001 7.5s26.5 11.667 35.5 20s15.5 18.166 19.5 29.499s6 23.333 6 36c0 24.667 -8.66699 44.5 -26 59.5s-45 22.5 -83 22.5c-38.667 0 -67.5 -7.16699 -86.5 -21.5s-29.833 -37.5 -32.5 -69.5h-156c3.33301 70.667 27.333 124.5 72 161.5
s112.334 55.5 203.001 55.5c90 0 156.667 -17.5 200 -52.5s65 -83.5 65 -145.5c0 -36.667 -9 -67.834 -27 -93.501s-44.333 -44.167 -79 -55.5c42.667 -10 75.167 -29.167 97.5 -57.5s33.5 -65.166 33.5 -110.499c0 -30.667 -6 -58.834 -18 -84.501s-30 -47.667 -54 -66
s-54.167 -32.666 -90.5 -42.999s-78.833 -15.5 -127.5 -15.5zM209.001 745.001c-23.333 0 -42.5 7.5 -57.5 22.5s-22.5 34.167 -22.5 57.5s7.5 42.5 22.5 57.5s34.167 22.5 57.5 22.5s42.5 -7.5 57.5 -22.5s22.5 -34.167 22.5 -57.5s-7.5 -42.5 -22.5 -57.5
s-34.167 -22.5 -57.5 -22.5zM449.001 745.001c-23.333 0 -42.5 7.5 -57.5 22.5s-22.5 34.167 -22.5 57.5s7.5 42.5 22.5 57.5s34.167 22.5 57.5 22.5s42.5 -7.5 57.5 -22.5s22.5 -34.167 22.5 -57.5s-7.5 -42.5 -22.5 -57.5s-34.167 -22.5 -57.5 -22.5z" />
    <glyph glyph-name="uni04DF" unicode="&#x4df;" horiz-adv-x="546" 
d="M270 -12c-76.667 0 -135 15.668 -175 47.001s-61.667 76.333 -65 135h134c1.33301 -11.333 4 -21.333 8 -30s10 -16 18 -22s18.5 -10.5 31.5 -13.5s29.167 -4.5 48.5 -4.5c38.667 0 66 5.83301 82 17.5s24 25.834 24 42.501c0 20 -6.66699 35 -20 45s-37 15 -71 15h-80
v98h73c25.333 0 44.666 5.33301 57.999 16s20 24.667 20 42c0 15.333 -6.5 28.166 -19.5 38.499s-35.167 15.5 -66.5 15.5c-32.667 0 -56.167 -5.5 -70.5 -16.5s-22.833 -27.167 -25.5 -48.5h-134c3.33301 57.333 24.333 101.166 63 131.499s94.334 45.5 167.001 45.5
c38.667 0 71.834 -3.66699 99.501 -11s50.5 -17.833 68.5 -31.5s31.167 -30 39.5 -49s12.5 -40.167 12.5 -63.5c0 -25.333 -6.5 -48 -19.5 -68s-33.5 -34.667 -61.5 -44c38 -9.33301 64.333 -24.5 79 -45.5s22 -45.833 22 -74.5c0 -24 -4.83301 -46.167 -14.5 -66.5
s-24.334 -38 -44.001 -53s-44.5 -26.667 -74.5 -35s-65.667 -12.5 -107 -12.5zM167 586.001c-21.333 0 -39 7 -53 21s-21 31.667 -21 53s7 39 21 53s31.667 21 53 21s39 -7 53 -21s21 -31.667 21 -53s-7 -39 -21 -53s-31.667 -21 -53 -21zM379 586.001
c-21.333 0 -39 7 -53 21s-21 31.667 -21 53s7 39 21 53s31.667 21 53 21s39 -7 53 -21s21 -31.667 21 -53s-7 -39 -21 -53s-31.667 -21 -53 -21z" />
    <glyph glyph-name="uni04E2" unicode="&#x4e2;" horiz-adv-x="760" 
d="M80 700h150v-465l305 465h145v-700h-150v465l-306 -465h-144v700zM230 875h300v-90h-300v90z" />
    <glyph glyph-name="uni04E3" unicode="&#x4e3;" horiz-adv-x="610" 
d="M60 530h132v-340l236 340h122v-530h-132v340l-236 -340h-122v530zM155 705h300v-90h-300v90z" />
    <glyph glyph-name="uni04E4" unicode="&#x4e4;" horiz-adv-x="760" 
d="M80 700h150v-465l305 465h145v-700h-150v465l-306 -465h-144v700zM260 745c-23.333 0 -42.5 7.5 -57.5 22.5s-22.5 34.167 -22.5 57.5s7.5 42.5 22.5 57.5s34.167 22.5 57.5 22.5s42.5 -7.5 57.5 -22.5s22.5 -34.167 22.5 -57.5s-7.5 -42.5 -22.5 -57.5
s-34.167 -22.5 -57.5 -22.5zM500 745c-23.333 0 -42.5 7.5 -57.5 22.5s-22.5 34.167 -22.5 57.5s7.5 42.5 22.5 57.5s34.167 22.5 57.5 22.5s42.5 -7.5 57.5 -22.5s22.5 -34.167 22.5 -57.5s-7.5 -42.5 -22.5 -57.5s-34.167 -22.5 -57.5 -22.5z" />
    <glyph glyph-name="uni04E5" unicode="&#x4e5;" horiz-adv-x="610" 
d="M60 530h132v-340l236 340h122v-530h-132v340l-236 -340h-122v530zM199 586c-21.333 0 -39 7 -53 21s-21 31.667 -21 53s7 39 21 53s31.667 21 53 21s39 -7 53 -21s21 -31.667 21 -53s-7 -39 -21 -53s-31.667 -21 -53 -21zM411 586c-21.333 0 -39 7 -53 21
s-21 31.667 -21 53s7 39 21 53s31.667 21 53 21s39 -7 53 -21s21 -31.667 21 -53s-7 -39 -21 -53s-31.667 -21 -53 -21z" />
    <glyph glyph-name="uni04E6" unicode="&#x4e6;" horiz-adv-x="760" 
d="M380 -12c-44 0 -85.833 6.66699 -125.5 20s-74.667 34.333 -105 63s-54.5 65.5 -72.5 110.5s-27 99.5 -27 163.5v20c0 61.333 9 113.833 27 157.5s42.167 79.5 72.5 107.5s65.333 48.667 105 62s81.5 20 125.5 20s85.833 -6.66699 125.5 -20s74.667 -34 105 -62
s54.5 -63.833 72.5 -107.5s27 -96.167 27 -157.5v-20c0 -64 -9 -118.5 -27 -163.5s-42.167 -81.833 -72.5 -110.5s-65.333 -49.667 -105 -63s-81.5 -20 -125.5 -20zM380 114c22.667 0 44.5 3.83301 65.5 11.5s39.5 20.5 55.5 38.5s28.833 41.667 38.5 71s14.5 66 14.5 110
v20c0 41.333 -4.83301 76 -14.5 104s-22.5 50.667 -38.5 68s-34.5 29.833 -55.5 37.5s-42.833 11.5 -65.5 11.5s-44.5 -3.83301 -65.5 -11.5s-39.5 -20.167 -55.5 -37.5s-28.833 -40 -38.5 -68s-14.5 -62.667 -14.5 -104v-20c0 -44 4.83301 -80.667 14.5 -110
s22.5 -53 38.5 -71s34.5 -30.833 55.5 -38.5s42.833 -11.5 65.5 -11.5zM260 745c-23.333 0 -42.5 7.5 -57.5 22.5s-22.5 34.167 -22.5 57.5s7.5 42.5 22.5 57.5s34.167 22.5 57.5 22.5s42.5 -7.5 57.5 -22.5s22.5 -34.167 22.5 -57.5s-7.5 -42.5 -22.5 -57.5
s-34.167 -22.5 -57.5 -22.5zM500 745c-23.333 0 -42.5 7.5 -57.5 22.5s-22.5 34.167 -22.5 57.5s7.5 42.5 22.5 57.5s34.167 22.5 57.5 22.5s42.5 -7.5 57.5 -22.5s22.5 -34.167 22.5 -57.5s-7.5 -42.5 -22.5 -57.5s-34.167 -22.5 -57.5 -22.5z" />
    <glyph glyph-name="uni04E7" unicode="&#x4e7;" horiz-adv-x="600" 
d="M300 -12c-36 0 -70.167 5.5 -102.5 16.5s-60.5 27.833 -84.5 50.5s-43 51 -57 85s-21 74 -21 120v20c0 43.333 7 81.333 21 114s33 60 57 82s52.167 38.5 84.5 49.5s66.5 16.5 102.5 16.5s70 -5.5 102 -16.5s60.167 -27.5 84.5 -49.5s43.5 -49.333 57.5 -82
s21 -70.667 21 -114v-20c0 -45.333 -7 -85 -21 -119s-33.167 -62.333 -57.5 -85s-52.5 -39.667 -84.5 -51s-66 -17 -102 -17zM300 100c37.333 0 68.5 13.333 93.5 40s37.5 66.667 37.5 120v20c0 48.667 -12.5 85.834 -37.5 111.501s-56.167 38.5 -93.5 38.5
c-38 0 -69.333 -12.833 -94 -38.5s-37 -62.834 -37 -111.501v-20c0 -54 12.333 -94.167 37 -120.5s56 -39.5 94 -39.5zM194 586c-21.333 0 -39 7 -53 21s-21 31.667 -21 53s7 39 21 53s31.667 21 53 21s39 -7 53 -21s21 -31.667 21 -53s-7 -39 -21 -53s-31.667 -21 -53 -21z
M406 586c-21.333 0 -39 7 -53 21s-21 31.667 -21 53s7 39 21 53s31.667 21 53 21s39 -7 53 -21s21 -31.667 21 -53s-7 -39 -21 -53s-31.667 -21 -53 -21z" />
    <glyph glyph-name="uni04E8" unicode="&#x4e8;" horiz-adv-x="773" 
d="M387 -12c-45.333 0 -88.333 6.66699 -129 20s-76.334 34.5 -107.001 63.5s-55.167 66 -73.5 111s-27.5 99.167 -27.5 162.5v20c0 60.667 9.16699 112.834 27.5 156.501s42.833 79.667 73.5 108s66.334 49.166 107.001 62.499s83.667 20 129 20
c44.667 0 87.334 -6.66699 128.001 -20s76.5 -34.166 107.5 -62.499s55.5 -64.333 73.5 -108s27 -95.834 27 -156.501v-20c0 -63.333 -9 -117.5 -27 -162.5s-42.5 -82 -73.5 -111s-66.833 -50.167 -107.5 -63.5s-83.334 -20 -128.001 -20zM387 116
c20.667 0 40.832 3 60.499 9s37.334 16 53.001 30s29 32.5 40 55.5s18.5 51.5 22.5 85.5h-354c4 -34 11.5 -62.5 22.5 -85.5s24.5 -41.5 40.5 -55.5s33.833 -24 53.5 -30s40.167 -9 61.5 -9zM386.998 584c-20.667 0 -40.833 -2.83301 -60.5 -8.5s-37.5 -15.167 -53.5 -28.5
s-29.5 -30.833 -40.5 -52.5s-18.5 -48.5 -22.5 -80.5h353c-4 32 -11.5 58.833 -22.5 80.5s-24.5 39.167 -40.5 52.5s-33.667 22.833 -53 28.5s-39.333 8.5 -60 8.5z" />
    <glyph glyph-name="uni04E9" unicode="&#x4e9;" horiz-adv-x="613" 
d="M307 -12c-37.333 0 -72.5 5.5 -105.5 16.5s-61.833 27.833 -86.5 50.5s-44.167 51 -58.5 85s-21.5 74 -21.5 120v20c0 42.667 7.16699 80.334 21.5 113.001s33.833 60 58.5 82s53.5 38.667 86.5 50s68.167 17 105.5 17c36.667 0 71.5 -5.66699 104.5 -17
s61.833 -28 86.5 -50s44.167 -49.333 58.5 -82s21.5 -70.334 21.5 -113.001v-20c0 -45.333 -7.16699 -85 -21.5 -119s-33.833 -62.333 -58.5 -85s-53.5 -39.667 -86.5 -51s-67.833 -17 -104.5 -17zM307 100c35.333 0 65.168 10.5 89.501 31.5s39.166 52.5 44.499 94.5h-269
c5.33301 -42 20.333 -73.5 45 -94.5s54.667 -31.5 90 -31.5zM307.002 430c-34 0 -63 -9.66699 -87 -29s-39.667 -47 -47 -83h267c-6.66699 36 -22 63.667 -46 83s-53 29 -87 29z" />
    <glyph glyph-name="uni04EA" unicode="&#x4ea;" horiz-adv-x="773" 
d="M387 -12c-45.333 0 -88.333 6.66699 -129 20s-76.334 34.5 -107.001 63.5s-55.167 66 -73.5 111s-27.5 99.167 -27.5 162.5v20c0 60.667 9.16699 112.834 27.5 156.501s42.833 79.667 73.5 108s66.334 49.166 107.001 62.499s83.667 20 129 20
c44.667 0 87.334 -6.66699 128.001 -20s76.5 -34.166 107.5 -62.499s55.5 -64.333 73.5 -108s27 -95.834 27 -156.501v-20c0 -63.333 -9 -117.5 -27 -162.5s-42.5 -82 -73.5 -111s-66.833 -50.167 -107.5 -63.5s-83.334 -20 -128.001 -20zM387 116
c20.667 0 40.832 3 60.499 9s37.334 16 53.001 30s29 32.5 40 55.5s18.5 51.5 22.5 85.5h-354c4 -34 11.5 -62.5 22.5 -85.5s24.5 -41.5 40.5 -55.5s33.833 -24 53.5 -30s40.167 -9 61.5 -9zM386.998 584c-20.667 0 -40.833 -2.83301 -60.5 -8.5s-37.5 -15.167 -53.5 -28.5
s-29.5 -30.833 -40.5 -52.5s-18.5 -48.5 -22.5 -80.5h353c-4 32 -11.5 58.833 -22.5 80.5s-24.5 39.167 -40.5 52.5s-33.667 22.833 -53 28.5s-39.333 8.5 -60 8.5zM265.999 745c-23.333 0 -42.5 7.5 -57.5 22.5s-22.5 34.167 -22.5 57.5s7.5 42.5 22.5 57.5
s34.167 22.5 57.5 22.5s42.5 -7.5 57.5 -22.5s22.5 -34.167 22.5 -57.5s-7.5 -42.5 -22.5 -57.5s-34.167 -22.5 -57.5 -22.5zM505.999 745c-23.333 0 -42.5 7.5 -57.5 22.5s-22.5 34.167 -22.5 57.5s7.5 42.5 22.5 57.5s34.167 22.5 57.5 22.5s42.5 -7.5 57.5 -22.5
s22.5 -34.167 22.5 -57.5s-7.5 -42.5 -22.5 -57.5s-34.167 -22.5 -57.5 -22.5z" />
    <glyph glyph-name="uni04EB" unicode="&#x4eb;" horiz-adv-x="613" 
d="M307 -12c-37.333 0 -72.5 5.5 -105.5 16.5s-61.833 27.833 -86.5 50.5s-44.167 51 -58.5 85s-21.5 74 -21.5 120v20c0 42.667 7.16699 80.334 21.5 113.001s33.833 60 58.5 82s53.5 38.667 86.5 50s68.167 17 105.5 17c36.667 0 71.5 -5.66699 104.5 -17
s61.833 -28 86.5 -50s44.167 -49.333 58.5 -82s21.5 -70.334 21.5 -113.001v-20c0 -45.333 -7.16699 -85 -21.5 -119s-33.833 -62.333 -58.5 -85s-53.5 -39.667 -86.5 -51s-67.833 -17 -104.5 -17zM307 100c35.333 0 65.168 10.5 89.501 31.5s39.166 52.5 44.499 94.5h-269
c5.33301 -42 20.333 -73.5 45 -94.5s54.667 -31.5 90 -31.5zM307.002 430c-34 0 -63 -9.66699 -87 -29s-39.667 -47 -47 -83h267c-6.66699 36 -22 63.667 -46 83s-53 29 -87 29zM201.002 586c-21.333 0 -39 7 -53 21s-21 31.667 -21 53s7 39 21 53s31.667 21 53 21
s39 -7 53 -21s21 -31.667 21 -53s-7 -39 -21 -53s-31.667 -21 -53 -21zM413.002 586c-21.333 0 -39 7 -53 21s-21 31.667 -21 53s7 39 21 53s31.667 21 53 21s39 -7 53 -21s21 -31.667 21 -53s-7 -39 -21 -53s-31.667 -21 -53 -21z" />
    <glyph glyph-name="uni04EE" unicode="&#x4ee;" horiz-adv-x="697" 
d="M205 -12c-7.33301 0 -14.499 0.332031 -21.499 0.999023s-13.167 1.33398 -18.5 2.00098v119c5.33301 -0.666992 11.5 -1.16699 18.5 -1.5s14.167 -0.5 21.5 -0.5c14.667 0 26.5 1.33301 35.5 4s16.5 6.83398 22.5 12.501s11.333 13 16 22s10 19.833 16 32.5l-285 521
h162l196 -375l156 375h156l-237 -540c-14 -31.333 -28.167 -57.833 -42.5 -79.5s-30.5 -39.334 -48.5 -53.001s-38.833 -23.667 -62.5 -30s-51.834 -9.5 -84.501 -9.5zM198.001 874.999h300v-90h-300v90z" />
    <glyph glyph-name="uni04EF" unicode="&#x4ef;" horiz-adv-x="587" 
d="M150 -212c-10 0 -20 1 -30 3v112c10 -2 20 -3 30 -3c20 0 35.5 7.5 46.5 22.5s23.5 40.833 37.5 77.5l-224 530h148l144 -366l132 366h136l-204 -530c-14.667 -37.333 -28.5 -69.5 -41.5 -96.5s-27.5 -49 -43.5 -66s-34.333 -29.5 -55 -37.5s-46 -12 -76 -12zM143 705
h300v-90h-300v90z" />
    <glyph glyph-name="uni04F0" unicode="&#x4f0;" horiz-adv-x="697" 
d="M205 -12c-7.33301 0 -14.499 0.332031 -21.499 0.999023s-13.167 1.33398 -18.5 2.00098v119c5.33301 -0.666992 11.5 -1.16699 18.5 -1.5s14.167 -0.5 21.5 -0.5c14.667 0 26.5 1.33301 35.5 4s16.5 6.83398 22.5 12.501s11.333 13 16 22s10 19.833 16 32.5l-285 521
h162l196 -375l156 375h156l-237 -540c-14 -31.333 -28.167 -57.833 -42.5 -79.5s-30.5 -39.334 -48.5 -53.001s-38.833 -23.667 -62.5 -30s-51.834 -9.5 -84.501 -9.5zM228.001 744.999c-23.333 0 -42.5 7.5 -57.5 22.5s-22.5 34.167 -22.5 57.5s7.5 42.5 22.5 57.5
s34.167 22.5 57.5 22.5s42.5 -7.5 57.5 -22.5s22.5 -34.167 22.5 -57.5s-7.5 -42.5 -22.5 -57.5s-34.167 -22.5 -57.5 -22.5zM468.001 744.999c-23.333 0 -42.5 7.5 -57.5 22.5s-22.5 34.167 -22.5 57.5s7.5 42.5 22.5 57.5s34.167 22.5 57.5 22.5s42.5 -7.5 57.5 -22.5
s22.5 -34.167 22.5 -57.5s-7.5 -42.5 -22.5 -57.5s-34.167 -22.5 -57.5 -22.5z" />
    <glyph glyph-name="uni04F1" unicode="&#x4f1;" horiz-adv-x="587" 
d="M150 -212c-10 0 -20 1 -30 3v112c10 -2 20 -3 30 -3c20 0 35.5 7.5 46.5 22.5s23.5 40.833 37.5 77.5l-224 530h148l144 -366l132 366h136l-204 -530c-14.667 -37.333 -28.5 -69.5 -41.5 -96.5s-27.5 -49 -43.5 -66s-34.333 -29.5 -55 -37.5s-46 -12 -76 -12zM184 586
c-21.333 0 -39 7 -53 21s-21 31.667 -21 53s7 39 21 53s31.667 21 53 21s39 -7 53 -21s21 -31.667 21 -53s-7 -39 -21 -53s-31.667 -21 -53 -21zM396 586c-21.333 0 -39 7 -53 21s-21 31.667 -21 53s7 39 21 53s31.667 21 53 21s39 -7 53 -21s21 -31.667 21 -53
s-7 -39 -21 -53s-31.667 -21 -53 -21z" />
    <glyph glyph-name="uni04F2" unicode="&#x4f2;" horiz-adv-x="697" 
d="M205 -12c-7.33301 0 -14.499 0.332031 -21.499 0.999023s-13.167 1.33398 -18.5 2.00098v119c5.33301 -0.666992 11.5 -1.16699 18.5 -1.5s14.167 -0.5 21.5 -0.5c14.667 0 26.5 1.33301 35.5 4s16.5 6.83398 22.5 12.501s11.333 13 16 22s10 19.833 16 32.5l-285 521
h162l196 -375l156 375h156l-237 -540c-14 -31.333 -28.167 -57.833 -42.5 -79.5s-30.5 -39.334 -48.5 -53.001s-38.833 -23.667 -62.5 -30s-51.834 -9.5 -84.501 -9.5zM327.001 899.999h125l-133 -150h-101zM519.001 899.999h128l-161 -150h-101z" />
    <glyph glyph-name="uni04F3" unicode="&#x4f3;" horiz-adv-x="587" 
d="M150 -212c-10 0 -20 1 -30 3v112c10 -2 20 -3 30 -3c20 0 35.5 7.5 46.5 22.5s23.5 40.833 37.5 77.5l-224 530h148l144 -366l132 366h136l-204 -530c-14.667 -37.333 -28.5 -69.5 -41.5 -96.5s-27.5 -49 -43.5 -66s-34.333 -29.5 -55 -37.5s-46 -12 -76 -12zM143 580
l84 160h137l-123 -160h-98zM351 580l123 160h143l-163 -160h-103z" />
    <glyph glyph-name="uni04F4" unicode="&#x4f4;" horiz-adv-x="680" 
d="M450 287c-17.333 -11.333 -40.832 -21.666 -70.499 -30.999s-64.5 -14 -104.5 -14c-76 0 -132.5 18.667 -169.5 56s-55.5 96.333 -55.5 177v225h150v-205c0 -45.333 9.16699 -77.833 27.5 -97.5s47.5 -29.5 87.5 -29.5c31.333 0 58.166 4.16699 80.499 12.5
s40.5 17.166 54.5 26.499v293h150v-700h-150v287zM220.001 745c-23.333 0 -42.5 7.5 -57.5 22.5s-22.5 34.167 -22.5 57.5s7.5 42.5 22.5 57.5s34.167 22.5 57.5 22.5s42.5 -7.5 57.5 -22.5s22.5 -34.167 22.5 -57.5s-7.5 -42.5 -22.5 -57.5s-34.167 -22.5 -57.5 -22.5z
M460.001 745c-23.333 0 -42.5 7.5 -57.5 22.5s-22.5 34.167 -22.5 57.5s7.5 42.5 22.5 57.5s34.167 22.5 57.5 22.5s42.5 -7.5 57.5 -22.5s22.5 -34.167 22.5 -57.5s-7.5 -42.5 -22.5 -57.5s-34.167 -22.5 -57.5 -22.5z" />
    <glyph glyph-name="uni04F5" unicode="&#x4f5;" horiz-adv-x="568" 
d="M373 195c-15.333 -9.33301 -33.6641 -17.667 -54.9971 -25s-47.333 -11 -78 -11c-64.667 0 -113.334 15.333 -146.001 46s-49 79 -49 145v180h132v-165c0 -34.667 7.33301 -59 22 -73s40 -21 76 -21c25.333 0 46.166 3 62.499 9s28.166 11.667 35.499 17v233h132v-530
h-132v195zM170.002 585.999c-21.333 0 -39 7 -53 21s-21 31.667 -21 53s7 39 21 53s31.667 21 53 21s39 -7 53 -21s21 -31.667 21 -53s-7 -39 -21 -53s-31.667 -21 -53 -21zM382.002 585.999c-21.333 0 -39 7 -53 21s-21 31.667 -21 53s7 39 21 53s31.667 21 53 21
s39 -7 53 -21s21 -31.667 21 -53s-7 -39 -21 -53s-31.667 -21 -53 -21z" />
    <glyph glyph-name="uni04F8" unicode="&#x4f8;" horiz-adv-x="910" 
d="M80 700l150 0.00390625v-250h100c47.333 0 88.666 -5.33301 123.999 -16s64.5 -25.834 87.5 -45.501s40.167 -43.334 51.5 -71.001s17 -58.5 17 -92.5s-5.66699 -64.833 -17 -92.5s-28.5 -51.334 -51.5 -71.001s-52.167 -34.834 -87.5 -45.501s-76.666 -16 -123.999 -16
h-250v700zM315 124.004c53.333 0 90.833 9 112.5 27s32.5 42.667 32.5 74s-10.833 56 -32.5 74s-59.167 27 -112.5 27h-85v-202h85zM680 700.004h150v-700h-150v700zM335 745.004c-23.333 0 -42.5 7.5 -57.5 22.5s-22.5 34.167 -22.5 57.5s7.5 42.5 22.5 57.5
s34.167 22.5 57.5 22.5s42.5 -7.5 57.5 -22.5s22.5 -34.167 22.5 -57.5s-7.5 -42.5 -22.5 -57.5s-34.167 -22.5 -57.5 -22.5zM575 745.004c-23.333 0 -42.5 7.5 -57.5 22.5s-22.5 34.167 -22.5 57.5s7.5 42.5 22.5 57.5s34.167 22.5 57.5 22.5s42.5 -7.5 57.5 -22.5
s22.5 -34.167 22.5 -57.5s-7.5 -42.5 -22.5 -57.5s-34.167 -22.5 -57.5 -22.5z" />
    <glyph glyph-name="uni04F9" unicode="&#x4f9;" horiz-adv-x="740" 
d="M60 530h132.001v-178h93c136.667 0 205 -58.667 205 -176c0 -26 -3.83301 -49.833 -11.5 -71.5s-19.834 -40.167 -36.501 -55.5s-38 -27.333 -64 -36s-57 -13 -93 -13h-225v530zM270.001 106c32 0 54.667 5.83301 68 17.5s20 29.167 20 52.5s-6.83301 40.833 -20.5 52.5
s-36.167 17.5 -67.5 17.5h-78v-140h78zM548.001 530h132v-530h-132v530zM266.001 586c-21.333 0 -39 7 -53 21s-21 31.667 -21 53s7 39 21 53s31.667 21 53 21s39 -7 53 -21s21 -31.667 21 -53s-7 -39 -21 -53s-31.667 -21 -53 -21zM478.001 586c-21.333 0 -39 7 -53 21
s-21 31.667 -21 53s7 39 21 53s31.667 21 53 21s39 -7 53 -21s21 -31.667 21 -53s-7 -39 -21 -53s-31.667 -21 -53 -21z" />
    <glyph glyph-name="uni0512" unicode="&#x512;" horiz-adv-x="725" 
d="M385 -101h31.0029c30 0 50.5 8.33301 61.5 25s16.5 42 16.5 76v575h-216v-95c0 -106 -4.83301 -191.333 -14.5 -256s-23.5 -114.5 -41.5 -149.5s-40.167 -58.167 -66.5 -69.5s-56.5 -17 -90.5 -17c-5.33301 0 -12 0.166992 -20 0.5s-14.667 1.16602 -20 2.49902v136
c2 -0.666992 7 -1 15 -1c17.333 0 32 3.83301 44 11.5s21.833 24.334 29.5 50.001s13.167 63.167 16.5 112.5s5 116 5 200v200h510v-700c0 -30 -3.33301 -58.167 -10 -84.5s-18.334 -49.5 -35.001 -69.5s-38.834 -35.667 -66.501 -47s-62.834 -17 -105.501 -17h-43v117z" />
    <glyph glyph-name="uni0513" unicode="&#x513;" horiz-adv-x="592" 
d="M311 -94c5.33301 -1.33301 11 -2.16699 17 -2.5s11.667 -0.5 17 -0.5c18.667 0 32.5 7.33301 41.5 22s13.5 43 13.5 85v410h-163v-90c0 -68.667 -3.66699 -125.167 -11 -169.5s-18.333 -79.166 -33 -104.499s-33 -43 -55 -53s-47.333 -15 -76 -15
c-5.33301 0 -12 0.166992 -20 0.5s-14.667 1.16602 -20 2.49902v119c2 -0.666992 7 -1 15 -1c12.667 0 23.667 3.83301 33 11.5s17.166 20.834 23.499 39.501s11 43.5 14 74.5s4.5 69.5 4.5 115.5v180h420v-538c0 -37.333 -2.83301 -68.833 -8.5 -94.5
s-15.167 -46.334 -28.5 -62.001s-30.833 -27 -52.5 -34s-48.5 -10.5 -80.5 -10.5c-7.33301 0 -15.666 0.166992 -24.999 0.5s-18 1.5 -26 3.5v111z" />
    <glyph glyph-name="uni1E9E" unicode="&#x1e9e;" horiz-adv-x="686" 
d="M351 711c42.667 0 80.002 -5.5 112.002 -16.5s59.167 -26 81.5 -45s40.166 -41.667 53.499 -68s22.666 -54.833 27.999 -85.5l-125 -109c49.333 -7.33301 85.833 -26.166 109.5 -56.499s35.5 -70.5 35.5 -120.5c0 -68 -20.667 -120 -62 -156s-98.666 -54 -171.999 -54
h-62v121h42c36 0 62.167 8.5 78.5 25.5s24.5 39.5 24.5 67.5c0 31.333 -9.33301 54 -28 68s-46.334 21 -83.001 21h-43v82l135 120c-5.33301 23.333 -16.833 42.333 -34.5 57s-43.167 22 -76.5 22c-48 0 -83.5 -14.167 -106.5 -42.5s-34.5 -69.5 -34.5 -123.5v-418h-151v435
c0 43.333 6.5 82.166 19.5 116.499s31.5 63.333 55.5 87s53.167 41.667 87.5 54s72.833 18.5 115.5 18.5z" />
    <glyph glyph-name="uni2009" unicode="&#x2009;" horiz-adv-x="154" 
 />
    <glyph glyph-name="uni2010" unicode="&#x2010;" horiz-adv-x="380" 
d="M30 342h320v-124h-320v124z" />
    <glyph glyph-name="uni2011" unicode="&#x2011;" horiz-adv-x="380" 
d="M30 342h320v-124h-320v124z" />
    <glyph glyph-name="figuredash" unicode="&#x2012;" horiz-adv-x="599" 
d="M53 422h493v-124h-493v124z" />
    <glyph glyph-name="endash" unicode="&#x2013;" horiz-adv-x="530" 
d="M30 342h470v-124h-470v124z" />
    <glyph glyph-name="emdash" unicode="&#x2014;" horiz-adv-x="730" 
d="M30 342h670v-124h-670v124z" />
    <glyph glyph-name="quoteleft" unicode="&#x2018;" horiz-adv-x="300" 
d="M215.005 550v-119.992h-129.992v119.992l101.994 149.991h67.9961z" />
    <glyph glyph-name="quoteright" unicode="&#x2019;" horiz-adv-x="300" 
d="M85 580v120h130v-120l-102 -150h-68z" />
    <glyph glyph-name="quotesinglbase" unicode="&#x201a;" horiz-adv-x="300" 
d="M85 0v120h130v-120l-102 -150h-68z" />
    <glyph glyph-name="quotedblleft" unicode="&#x201c;" horiz-adv-x="510" 
d="M215.005 550v-119.992h-129.992v119.992l101.994 149.991h67.9961zM425.005 550v-119.992h-129.992v119.992l101.994 149.991h67.9961z" />
    <glyph glyph-name="quotedblright" unicode="&#x201d;" horiz-adv-x="510" 
d="M85 580v120h130v-120l-102 -150h-68zM295 580v120h130v-120l-102 -150h-68z" />
    <glyph glyph-name="quotedblbase" unicode="&#x201e;" horiz-adv-x="510" 
d="M85 0v120h130v-120l-102 -150h-68zM295 0v120h130v-120l-102 -150h-68z" />
    <glyph glyph-name="dagger" unicode="&#x2020;" horiz-adv-x="550" 
d="M215 432h-180v98h180v170h120v-170h180v-98h-180v-632h-120v632z" />
    <glyph glyph-name="daggerdbl" unicode="&#x2021;" horiz-adv-x="550" 
d="M215 0h-180v98h180v334h-180v98h180v170h120v-170h180v-98h-180v-334h180v-98h-180v-200h-120v200z" />
    <glyph glyph-name="bullet" unicode="&#x2022;" horiz-adv-x="400" 
d="M200 135c-20 0 -38.5 3.66699 -55.5 11s-31.667 17.166 -44 29.499s-22.166 27 -29.499 44s-11 35.5 -11 55.5s3.66699 38.5 11 55.5s17.166 31.667 29.499 44s27 22.166 44 29.499s35.5 11 55.5 11s38.5 -3.66699 55.5 -11s31.667 -17.166 44 -29.499
s22.166 -27 29.499 -44s11 -35.5 11 -55.5s-3.66699 -38.5 -11 -55.5s-17.166 -31.667 -29.499 -44s-27 -22.166 -44 -29.499s-35.5 -11 -55.5 -11z" />
    <glyph glyph-name="ellipsis" unicode="&#x2026;" horiz-adv-x="970" 
d="M155 -12c-23.333 0 -43.333 8.33301 -60 25s-25 36.667 -25 60c0 24.667 8.33301 45 25 61s36.667 24 60 24s43.333 -8 60 -24s25 -36.333 25 -61c0 -23.333 -8.33301 -43.333 -25 -60s-36.667 -25 -60 -25zM485 -12c-23.333 0 -43.333 8.33301 -60 25s-25 36.667 -25 60
c0 24.667 8.33301 45 25 61s36.667 24 60 24s43.333 -8 60 -24s25 -36.333 25 -61c0 -23.333 -8.33301 -43.333 -25 -60s-36.667 -25 -60 -25zM815 -12c-23.333 0 -43.333 8.33301 -60 25s-25 36.667 -25 60c0 24.667 8.33301 45 25 61s36.667 24 60 24s43.333 -8 60 -24
s25 -36.333 25 -61c0 -23.333 -8.33301 -43.333 -25 -60s-36.667 -25 -60 -25z" />
    <glyph glyph-name="uni202F" unicode="&#x202f;" horiz-adv-x="154" 
 />
    <glyph glyph-name="perthousand" unicode="&#x2030;" horiz-adv-x="1220" 
d="M590 700h140l-480 -700h-140zM190 368c-26 0 -49.333 4 -70 12s-38.5 19.333 -53.5 34s-26.5 32.167 -34.5 52.5s-12 43.166 -12 68.499v10c0 24.667 4 47.334 12 68.001s19.5 38.334 34.5 53.001s32.833 26 53.5 34s44 12 70 12s49.333 -4 70 -12s38.5 -19.333 53.5 -34
s26.5 -32.334 34.5 -53.001s12 -43.334 12 -68.001v-10c0 -25.333 -4 -48.166 -12 -68.499s-19.5 -37.833 -34.5 -52.5s-32.833 -26 -53.5 -34s-44 -12 -70 -12zM190 472c13.333 0 24 4.83301 32 14.5s12 25.834 12 48.501v10c0 22.667 -4 38.834 -12 48.501
s-18.667 14.5 -32 14.5s-24 -4.83301 -32 -14.5s-12 -25.834 -12 -48.501v-10c0 -22.667 4 -38.834 12 -48.501s18.667 -14.5 32 -14.5zM650 -11c-26 0 -49.333 4 -70 12s-38.5 19.333 -53.5 34s-26.5 32.167 -34.5 52.5s-12 43.166 -12 68.499v10
c0 24.667 4 47.334 12 68.001s19.5 38.334 34.5 53.001s32.833 26 53.5 34s44 12 70 12s49.333 -4 70 -12s38.5 -19.333 53.5 -34s26.5 -32.334 34.5 -53.001s12 -43.334 12 -68.001v-10c0 -25.333 -4 -48.166 -12 -68.499s-19.5 -37.833 -34.5 -52.5s-32.833 -26 -53.5 -34
s-44 -12 -70 -12zM650 93c13.333 0 24 4.83301 32 14.5s12 25.834 12 48.501v10c0 22.667 -4 38.834 -12 48.501s-18.667 14.5 -32 14.5s-24 -4.83301 -32 -14.5s-12 -25.834 -12 -48.501v-10c0 -22.667 4 -38.834 12 -48.501s18.667 -14.5 32 -14.5zM1030 -11
c-26 0 -49.333 4 -70 12s-38.5 19.333 -53.5 34s-26.5 32.167 -34.5 52.5s-12 43.166 -12 68.499v10c0 24.667 4 47.334 12 68.001s19.5 38.334 34.5 53.001s32.833 26 53.5 34s44 12 70 12s49.333 -4 70 -12s38.5 -19.333 53.5 -34s26.5 -32.334 34.5 -53.001
s12 -43.334 12 -68.001v-10c0 -25.333 -4 -48.166 -12 -68.499s-19.5 -37.833 -34.5 -52.5s-32.833 -26 -53.5 -34s-44 -12 -70 -12zM1030 93c13.333 0 24 4.83301 32 14.5s12 25.834 12 48.501v10c0 22.667 -4 38.834 -12 48.501s-18.667 14.5 -32 14.5
s-24 -4.83301 -32 -14.5s-12 -25.834 -12 -48.501v-10c0 -22.667 4 -38.834 12 -48.501s18.667 -14.5 32 -14.5z" />
    <glyph glyph-name="guilsinglleft" unicode="&#x2039;" horiz-adv-x="300" 
d="M30 220v110l220 185v-138l-125 -100l125 -100v-142z" />
    <glyph glyph-name="guilsinglright" unicode="&#x203a;" horiz-adv-x="300" 
d="M270 330v-110l-220 -185v138l125 100l-125 100v142z" />
    <glyph glyph-name="fraction" unicode="&#x2044;" horiz-adv-x="180" 
d="M260 700h140l-480 -700h-140z" />
    <glyph glyph-name="uni2074" unicode="&#x2074;" horiz-adv-x="400" 
d="M204 449h-194v82l184 249h136v-229h40v-102h-40v-69h-126v69zM204 551v108l-72 -108h72z" />
    <glyph glyph-name="Euro" unicode="&#x20ac;" horiz-adv-x="690" 
d="M375 -12c-35.333 0 -68.3311 4.50195 -98.998 13.502s-58.167 23 -82.5 42s-45.166 43.167 -62.499 72.5s-30.333 64.666 -39 105.999h-72v104h60v24v15v19h-60v104h73c8.66699 38.667 22 72.167 40 100.5s39.333 51.666 64 69.999s52 31.833 82 40.5s62 13 96 13
c36.667 0 71.167 -4.66699 103.5 -14s60.833 -23.833 85.5 -43.5s44.5 -44.834 59.5 -75.501s23.833 -67 26.5 -109h-156c-7.33301 40 -21.333 69.333 -42 88s-46.334 28 -77.001 28c-25.333 0 -49 -7.33301 -71 -22s-39 -40 -51 -76h157v-104h-174v-19v-15v-24h174v-104
h-159c11.333 -39.333 28 -67.166 50 -83.499s46.667 -24.5 74 -24.5c33.333 0 60.166 9.83301 80.499 29.5s33.166 48.5 38.499 86.5h156c-3.33301 -44 -12.5 -81.333 -27.5 -112s-34.5 -55.667 -58.5 -75s-52 -33.333 -84 -42s-67 -13 -105 -13z" />
    <glyph glyph-name="uni20B4" unicode="&#x20b4;" horiz-adv-x="610" 
d="M40 491l304.999 0.000976562c13.333 15.333 20 31.666 20 48.999c0 14 -4.66699 25.167 -14 33.5s-24.666 12.5 -45.999 12.5c-18 0 -31.667 -3 -41 -9s-15.666 -16.667 -18.999 -32h-150c2 52 19.833 92.833 53.5 122.5s85.834 44.5 156.501 44.5
c35.333 0 66.166 -4 92.499 -12s48.166 -18.5 65.499 -31.5s30.333 -28 39 -45s13 -34.833 13 -53.5c0 -14.667 -1 -28.5 -3 -41.5s-6.66699 -25.5 -14 -37.5h72v-104h-530v104zM304.999 -11.999c-38 0 -70.833 3.66895 -98.5 11.002s-50.5 17.666 -68.5 30.999
s-31.333 28.833 -40 46.5s-13 37.167 -13 58.5c0 20 1.66699 36.667 5 50s8.66602 26.666 15.999 39.999h-66v104h530v-104h-306c-11.333 -11.333 -19 -21.833 -23 -31.5s-6 -19.167 -6 -28.5c0 -16 5.33301 -28.5 16 -37.5s28.667 -13.5 54 -13.5c42 0 65.333 13.667 70 41
h150c-1.33301 -24.667 -6.16602 -47.167 -14.499 -67.5s-21.166 -37.833 -38.499 -52.5s-39.833 -26.167 -67.5 -34.5s-60.834 -12.5 -99.501 -12.5z" />
    </font>
</defs>
</svg>
