<svg width="51" height="50" viewBox="0 0 51 50" fill="none" xmlns="http://www.w3.org/2000/svg">
<path d="M50.46 7.11205C50.46 3.36805 47.34 0.248047 43.596 0.248047H7.40398C3.65998 0.248047 0.539978 3.36805 0.539978 7.11205V42.888C0.539978 46.632 3.65998 49.752 7.40398 49.752H43.804C47.548 49.752 50.668 46.632 50.668 42.888C50.46 21.672 50.46 21.048 50.46 7.11205ZM26.956 5.65605H42.764C44.012 5.65605 44.844 6.48805 44.844 7.73605C44.844 8.77605 44.012 9.81605 42.764 9.81605H26.956C25.708 9.81605 24.876 8.77605 24.876 7.73605C24.876 6.48805 25.916 5.65605 26.956 5.65605ZM16.348 5.65605C17.388 5.65605 18.428 6.69605 18.428 7.73605C18.428 8.98405 17.596 9.81605 16.348 9.81605C15.1 9.81605 14.268 8.98405 14.268 7.73605C14.268 6.48805 15.308 5.65605 16.348 5.65605ZM8.02798 5.65605C9.06798 5.65605 10.108 6.69605 10.108 7.73605C10.108 8.98405 9.27598 9.81605 8.02798 9.81605C6.77998 9.81605 5.94798 8.98405 5.94798 7.73605C5.94798 6.48805 6.98798 5.65605 8.02798 5.65605ZM46.3 42.888C46.3 44.344 45.052 45.592 43.596 45.592H7.40398C5.94798 45.592 4.69998 44.344 4.69998 42.888V15.016H46.3V42.888Z" fill="white"/>
<path d="M16.348 33.1123C17.18 33.1123 17.596 33.5283 18.012 34.1523C18.22 34.5683 18.22 35.4003 17.596 35.8163H17.388C16.764 36.4403 16.764 37.4803 17.388 38.1043L18.428 39.1443C19.052 39.7683 20.092 39.7683 20.508 39.1443L20.716 38.9363C21.132 38.5203 21.756 38.3123 22.38 38.5203H22.588C23.212 38.7283 23.628 39.3523 23.628 39.9763V40.1843C23.628 41.0163 24.252 41.6403 25.084 41.6403H26.54C27.372 41.6403 27.996 41.0163 27.996 40.1843V39.9763C27.996 39.3523 28.412 38.7283 29.036 38.5203H29.244C29.868 38.3123 30.492 38.3123 30.908 38.9363L31.116 39.1443C31.74 39.7683 32.78 39.7683 33.196 39.1443L34.236 38.1043C34.86 37.4803 34.86 36.4403 34.236 35.8163H34.028C33.612 35.4003 33.404 34.7763 33.82 34.1523C34.028 33.5283 34.652 33.1123 35.276 33.1123H35.484C36.316 33.1123 36.94 32.4883 36.94 31.4483V29.9923C36.94 29.1603 36.316 28.3283 35.276 28.3283H35.068C34.444 28.3283 33.82 27.9123 33.612 27.2883C33.404 26.6643 33.404 26.0403 33.82 25.6243L34.028 25.4163C34.652 24.7923 34.652 23.7523 34.028 23.1283L32.988 22.0883C32.364 21.4643 31.324 21.4643 30.908 22.0883L30.7 22.2963C30.284 22.7123 29.66 22.9203 29.036 22.7123C29.036 22.7123 29.036 22.7123 28.828 22.7123C28.204 22.5043 27.788 21.8803 27.788 21.2563V21.0483C27.788 20.2163 27.164 19.5923 26.332 19.5923H24.876C24.044 19.5923 23.42 20.2163 23.42 21.0483V21.2563C23.42 21.8803 23.004 22.5043 22.38 22.7123C22.38 22.7123 22.38 22.7123 22.172 22.7123C21.548 22.9203 20.924 22.7123 20.508 22.2963L20.3 22.0883C19.676 21.4643 18.636 21.4643 18.22 22.0883L17.18 23.1283C16.556 23.7523 16.556 24.7923 17.18 25.4163H17.388C18.22 26.2483 18.22 26.8723 18.012 27.4963C17.804 28.1203 17.18 28.5363 16.556 28.5363H16.348C15.516 28.5363 14.892 29.1603 14.892 30.2003V31.6563C14.892 32.2803 15.516 33.1123 16.348 33.1123ZM25.916 26.6643C28.204 26.6643 30.076 28.5363 30.076 30.8243C30.076 33.1123 28.204 34.9843 25.916 34.9843C23.628 34.9843 21.756 33.1123 21.756 30.8243C21.964 28.5363 23.628 26.6643 25.916 26.6643Z" fill="white"/>
</svg>
